<svg width="263" height="256" viewBox="0 0 263 256" fill="none" xmlns="http://www.w3.org/2000/svg">
<path d="M262.9 252.809C262.9 252.888 204.064 252.955 131.504 252.955C58.9451 252.955 0.0976562 252.888 0.0976562 252.809C0.0976562 252.731 58.9227 252.652 131.499 252.652C204.075 252.652 262.9 252.725 262.9 252.809Z" fill="#263238"/>
<path d="M130.229 112.053V112.614H127.984V112.171L129.275 110.645H128.018V110.084H130.2V110.527L128.91 112.053H130.229Z" fill="#263238"/>
<path d="M126.119 109.589V110.913H120.84V109.875L123.858 106.306H120.918V104.982H126.029V106.02L123 109.589H126.119Z" fill="#263238"/>
<path d="M118.554 106.554V109.219H107.895V107.132L113.982 99.9335H108.052V97.2461H118.352V99.3332L112.271 106.531L118.554 106.554Z" fill="#263238"/>
<path d="M115.794 74.3224H107.653V84.7971H92.5612V74.3224H63.6172V64.2237L88.1683 30.0508H104.203L81.9127 62.0301H93.0213V52.7392H107.642V62.0469H115.794V74.3224Z" fill="#383838"/>
<path d="M118.906 57.4127C118.906 39.3529 129.072 28.9512 143.07 28.9512C157.068 28.9512 167.156 39.3697 167.156 57.4127C167.156 75.4558 156.99 85.8743 143.07 85.8743C129.151 85.8743 118.906 75.4951 118.906 57.4127ZM151.592 57.4127C151.592 45.917 147.996 41.6195 143.07 41.6195C138.144 41.6195 134.469 45.917 134.469 57.4127C134.469 68.9084 138.066 73.2116 143.07 73.2116C148.075 73.2116 151.592 68.9253 151.592 57.4127Z" fill="#383838"/>
<path d="M224.071 74.3224H215.936V84.7971H200.844V74.3224H171.895V64.2237L196.451 30.0508H212.48L190.196 62.0301H201.299V52.7392H215.919V62.0469H224.071V74.3224Z" fill="#383838"/>
<g opacity="0.3">
<path d="M115.794 74.3224H107.653V84.7971H92.5612V74.3224H63.6172V64.2237L88.1683 30.0508H104.203L81.9127 62.0301H93.0213V52.7392H107.642V62.0469H115.794V74.3224Z" fill="black"/>
<path d="M118.906 57.4127C118.906 39.3529 129.072 28.9512 143.07 28.9512C157.068 28.9512 167.156 39.3697 167.156 57.4127C167.156 75.4558 156.99 85.8743 143.07 85.8743C129.151 85.8743 118.906 75.4951 118.906 57.4127ZM151.592 57.4127C151.592 45.917 147.996 41.6195 143.07 41.6195C138.144 41.6195 134.469 45.917 134.469 57.4127C134.469 68.9084 138.066 73.2116 143.07 73.2116C148.075 73.2116 151.592 68.9253 151.592 57.4127Z" fill="black"/>
<path d="M224.075 74.3224H215.94V84.7971H200.848V74.3224H171.898V64.2237L196.455 30.0508H212.484L190.2 62.0301H201.303V52.7392H215.923V62.0469H224.075V74.3224Z" fill="black"/>
</g>
<path d="M111.254 74.3224H103.119V84.7971H88.0266V74.3224H59.0938V64.2237L83.6505 30.0508H99.6794L77.3949 62.0301H88.4979V52.7392H103.119V62.0469H111.254V74.3224Z" fill="#383838"/>
<path d="M114.375 57.4127C114.375 39.3529 124.541 28.9512 138.539 28.9512C152.537 28.9512 162.624 39.3697 162.624 57.4127C162.624 75.4558 152.458 85.8743 138.539 85.8743C124.62 85.8743 114.375 75.4951 114.375 57.4127ZM147.061 57.4127C147.061 45.917 143.465 41.6195 138.539 41.6195C133.613 41.6195 129.938 45.917 129.938 57.4127C129.938 68.9084 133.535 73.2116 138.539 73.2116C143.543 73.2116 147.061 68.9253 147.061 57.4127Z" fill="#383838"/>
<path d="M219.548 74.3224H211.413V84.7971H196.321V74.3224H167.41V64.2237L191.967 30.0508H207.973L185.689 62.0301H196.792V52.7392H211.413V62.0469H219.548V74.3224Z" fill="#383838"/>
<path d="M120.719 16.5577C120.719 13.3205 123.26 10.9473 126.705 10.9473C130.15 10.9473 132.697 13.3149 132.697 16.5577C132.697 19.8005 130.155 22.1681 126.705 22.1681C123.255 22.1681 120.719 19.7893 120.719 16.5577ZM129.617 16.5577C129.634 16.1649 129.572 15.7727 129.433 15.4047C129.295 15.0368 129.083 14.7006 128.811 14.4166C128.54 14.1326 128.213 13.9065 127.852 13.7521C127.49 13.5977 127.101 13.5181 126.708 13.5181C126.315 13.5181 125.926 13.5977 125.564 13.7521C125.203 13.9065 124.876 14.1326 124.604 14.4166C124.332 14.7006 124.121 15.0368 123.982 15.4047C123.844 15.7727 123.782 16.1649 123.799 16.5577C123.782 16.9504 123.844 17.3426 123.982 17.7106C124.121 18.0786 124.332 18.4147 124.604 18.6987C124.876 18.9827 125.203 19.2088 125.564 19.3632C125.926 19.5176 126.315 19.5972 126.708 19.5972C127.101 19.5972 127.49 19.5176 127.852 19.3632C128.213 19.2088 128.54 18.9827 128.811 18.6987C129.083 18.4147 129.295 18.0786 129.433 17.7106C129.572 17.3426 129.634 16.9504 129.617 16.5577Z" fill="#263238"/>
<path d="M133.633 17.7585C133.633 15.245 135.619 13.4609 138.346 13.4609C141.072 13.4609 143.053 15.245 143.053 17.7585C143.053 20.272 141.1 22.0785 138.346 22.0785C135.591 22.0785 133.633 20.2776 133.633 17.7585ZM140.096 17.7585C140.096 16.4962 139.344 15.7836 138.346 15.7836C137.347 15.7836 136.589 16.4962 136.589 17.7585C136.589 19.0208 137.358 19.7558 138.346 19.7558C139.333 19.7558 140.096 19.0321 140.096 17.7585Z" fill="#263238"/>
<path d="M153.751 17.7693C153.751 20.4174 151.922 22.0781 149.655 22.0781C149.229 22.0992 148.803 22.0325 148.403 21.8819C148.003 21.7313 147.639 21.5002 147.333 21.2028V24.9281H144.398V13.6007H147.204V14.4311C147.513 14.0928 147.896 13.8295 148.323 13.6614C148.75 13.4932 149.209 13.4245 149.667 13.4605C151.922 13.4605 153.751 15.1212 153.751 17.7693ZM150.794 17.7693C150.794 16.5069 150.026 15.7832 149.044 15.7832C148.062 15.7832 147.288 16.5069 147.288 17.7693C147.288 19.0316 148.056 19.7554 149.044 19.7554C150.031 19.7554 150.794 19.0316 150.794 17.7693Z" fill="#263238"/>
<path d="M154.449 21.22L155.324 19.217C156.212 19.7224 157.215 19.9874 158.236 19.9857C159.218 19.9857 159.543 19.7725 159.543 19.4246C159.543 18.3025 154.618 19.5761 154.618 16.2379C154.618 14.667 156.065 13.4664 158.679 13.4664C159.817 13.4431 160.945 13.6851 161.973 14.1733L161.098 16.1594C160.363 15.7514 159.536 15.5389 158.696 15.5422C157.709 15.5422 157.355 15.8227 157.355 16.1033C157.355 17.2534 162.265 16.0079 162.265 19.318C162.265 20.8553 160.851 22.0559 158.141 22.0559C156.86 22.0896 155.591 21.8022 154.449 21.22Z" fill="#263238"/>
<path d="M163.164 20.4624C163.207 20.0285 163.409 19.626 163.732 19.3331C164.055 19.0403 164.476 18.8781 164.912 18.8781C165.348 18.8781 165.768 19.0403 166.091 19.3331C166.414 19.626 166.617 20.0285 166.659 20.4624C166.634 20.9088 166.439 21.3286 166.114 21.6357C165.789 21.9427 165.359 22.1138 164.912 22.1138C164.465 22.1138 164.034 21.9427 163.709 21.6357C163.385 21.3286 163.189 20.9088 163.164 20.4624ZM163.164 11.166H166.643L166.053 18.0163H163.731L163.164 11.166Z" fill="#263238"/>
<path d="M68.9428 201.234H62.0195V234.487H68.9428V201.234Z" fill="#E0E0E0"/>
<path d="M40.7188 196.955C40.831 196.955 62.0383 203.603 62.0383 203.603H68.9559L93.2433 196.955H40.7188Z" fill="#E0E0E0"/>
<path d="M21.3686 85.4253C18.2997 86.1154 15.5562 88.9487 16.0163 94.6039C16.0163 94.6039 13.5701 95.064 13.7216 99.5018C13.8731 103.94 13.4186 131.481 18.9224 146.461C23.45 158.776 31.2653 185.117 33.9247 194.11C34.1875 195 34.7311 195.78 35.4744 196.336C36.2176 196.891 37.1206 197.191 38.0483 197.19H97.9225C98.9771 197.186 100.02 196.97 100.99 196.555C101.959 196.139 102.835 195.533 103.564 194.771C104.294 194.01 104.863 193.11 105.238 192.124C105.612 191.138 105.784 190.086 105.743 189.033C105.652 187.003 104.777 185.087 103.303 183.688C101.829 182.289 99.8704 181.516 97.8383 181.531L54.1782 181.986C54.1782 181.986 51.502 167.567 48.7473 167.399C48.7473 167.399 49.9704 158.372 45.3811 155.774C45.3811 155.774 46.2956 144.632 41.4033 143.628C41.4033 143.628 42.1663 134.303 38.0371 132.648C38.0371 132.648 40.3317 124.261 36.051 119.98C36.051 119.98 37.2741 110.19 36.051 102.846C34.8279 95.5016 34.3791 82.5247 21.3686 85.4253Z" fill="#455A64"/>
<path d="M100.99 189.942C100.99 189.942 100.889 189.942 100.687 189.942H99.8009L96.3617 189.97L83.5419 190.009L39.6742 190.059H39.5732L39.5396 189.964L33.3681 172.067C29.7831 161.581 26.3888 151.583 23.3985 142.461C22.6523 140.177 21.9341 137.973 21.2609 135.773C20.9122 134.706 20.6237 133.619 20.3969 132.519C20.2813 131.982 20.1951 131.439 20.1388 130.892C20.0771 130.331 19.9817 129.815 19.9481 129.282C19.5609 125.024 19.4712 121.04 19.387 117.41C19.2916 110.151 19.387 104.271 19.488 100.215C19.5441 98.1892 19.589 96.6183 19.6171 95.5411L19.6675 94.3236C19.6675 94.0487 19.6956 93.9141 19.6956 93.9141C19.6956 93.9141 19.6956 94.0543 19.6956 94.3236C19.6956 94.5929 19.6956 95.0137 19.6956 95.5411C19.6956 96.6183 19.6507 98.1948 19.6171 100.215C19.5609 104.276 19.488 110.151 19.6171 117.41C19.6956 121.035 19.7966 125.013 20.1781 129.26C20.2174 129.821 20.3071 130.32 20.3688 130.859C20.4266 131.4 20.5147 131.937 20.6325 132.469C20.8709 133.57 21.1725 134.656 21.5358 135.723C22.2091 137.894 22.9328 140.116 23.6846 142.399C26.6862 151.516 30.0917 161.508 33.6711 171.994C35.8031 178.165 37.8677 184.213 39.8425 189.897L39.7079 189.801L83.5756 189.852L96.3954 189.891H99.8345H100.721C100.889 189.93 100.99 189.942 100.99 189.942Z" fill="#263238"/>
<path d="M47.6649 182.053C47.4948 182.234 47.3069 182.397 47.1039 182.541C46.728 182.838 46.195 183.287 45.5554 183.848C43.886 185.319 42.3329 186.917 40.91 188.628C39.4884 190.339 38.1945 192.153 37.0388 194.053C36.5956 194.783 36.2478 195.383 36.0177 195.804C35.9084 196.028 35.7768 196.24 35.625 196.438C35.6984 196.2 35.7962 195.971 35.9167 195.753C36.1187 195.316 36.4385 194.699 36.8593 193.952C37.9706 192.005 39.251 190.16 40.6856 188.437C42.1149 186.713 43.7 185.124 45.4208 183.691C46.0828 183.13 46.6382 182.72 47.0309 182.451C47.2274 182.296 47.4399 182.162 47.6649 182.053Z" fill="#263238"/>
<path d="M54.1764 181.963C54.1764 181.963 54.0305 181.963 53.7444 181.963L52.4876 181.997L47.6627 182.076H47.601V182.014L47.5 181.419C47.4394 181.228 47.3663 181.04 47.2812 180.858C47.0831 180.465 46.7387 180.165 46.3218 180.022C45.3447 179.811 44.3242 179.974 43.4605 180.477L43.2585 180.572L43.3315 180.364C44.0086 178.385 44.1059 176.254 43.612 174.221C43.0557 171.823 41.7175 169.677 39.8081 168.123L39.7352 168.067L39.7689 167.982C40.3713 166.27 40.453 164.418 40.0037 162.66C39.5544 160.901 38.5941 159.316 37.2442 158.102L37.1712 158.046L37.2049 157.957C37.9342 155.592 37.8923 153.057 37.0854 150.718C36.2786 148.379 34.7485 146.358 32.7166 144.946L32.6493 144.901V144.823C32.6943 143.274 32.6456 141.725 32.5034 140.183C32.3697 138.605 32.0784 137.045 31.6338 135.526C31.1737 134.056 30.478 132.586 29.2494 131.734L29.1596 131.672L29.1932 131.571C29.844 129.317 30.1003 126.967 29.9507 124.625C29.8621 123.514 29.6244 122.419 29.2437 121.371C28.8526 120.363 28.2824 119.433 27.5606 118.628L27.4933 118.549L27.5438 118.465C28.7742 116.511 29.4492 114.26 29.4962 111.951C29.5053 109.867 28.827 107.838 27.5662 106.178V106.145V106.105C27.6352 103.335 27.0771 100.584 25.9336 98.0599C25.4435 97.0376 24.7394 96.1326 23.869 95.4062C23.1265 94.8084 22.2572 94.3881 21.3275 94.1775C20.5796 94.0167 19.8125 93.9638 19.0496 94.0204L18.1351 94.1214L17.3834 94.2729C16.9345 94.3571 16.6035 94.4805 16.3791 94.531C16.1547 94.5815 16.0312 94.6151 16.0312 94.6151C16.4691 94.4575 16.9148 94.3227 17.3665 94.2112L18.1183 94.0429L19.044 93.9251C19.8151 93.8572 20.592 93.9026 21.3499 94.0597C22.3052 94.2601 23.2004 94.6808 23.9644 95.2884C24.8593 96.022 25.5847 96.9407 26.0907 97.9814C27.2612 100.528 27.8368 103.308 27.7738 106.111V106.044C29.0728 107.739 29.775 109.816 29.7711 111.951C29.7305 114.309 29.0477 116.612 27.7963 118.611V118.448C28.5399 119.272 29.1308 120.222 29.5411 121.253C29.9369 122.337 30.1823 123.469 30.2704 124.62C30.4311 126.998 30.1748 129.387 29.513 131.677L29.3896 131.47C30.7193 132.396 31.4206 133.922 31.8918 135.397C32.3491 136.933 32.6462 138.513 32.7783 140.11C32.9215 141.665 32.9684 143.228 32.9186 144.789L32.8568 144.66C34.9437 146.105 36.5155 148.177 37.3438 150.577C38.1721 152.976 38.2139 155.577 37.463 158.001L37.4237 157.85C38.814 159.104 39.7988 160.745 40.2525 162.561C40.7062 164.378 40.6081 166.289 39.9708 168.05L39.9316 167.909C41.8809 169.498 43.2402 171.695 43.7915 174.148C44.2878 176.221 44.1768 178.393 43.4717 180.404L43.3483 180.292C43.8262 180.056 44.3339 179.886 44.8575 179.787C45.3518 179.677 45.8662 179.698 46.3498 179.848C46.5842 179.933 46.7987 180.065 46.9801 180.236C47.1615 180.406 47.306 180.613 47.4046 180.841C47.4942 181.041 47.5692 181.248 47.629 181.459L47.73 182.076L47.6627 182.014H52.4876H53.7444L54.1764 181.963Z" fill="#263238"/>
<g opacity="0.3">
<path d="M46.168 155.594L26.1445 158.175C26.4459 158.707 26.8658 159.162 27.3718 159.506C27.8778 159.849 28.4561 160.071 29.0619 160.155C30.2728 160.307 31.4993 160.283 32.7031 160.082C37.8874 159.519 43.1055 159.332 48.3168 159.521C47.733 158.144 47.0131 156.828 46.168 155.594Z" fill="black"/>
</g>
<path d="M36.2689 118.898C34.8889 119.078 33.4977 119.159 32.106 119.139C30.7168 119.213 29.3242 119.194 27.9375 119.083C29.3175 118.902 30.7088 118.821 32.1004 118.841C33.4896 118.767 34.8822 118.786 36.2689 118.898Z" fill="#263238"/>
<path d="M36.0859 247.605C36.0859 247.605 39.2895 237.832 43.7049 235.464C50.7964 231.666 67.1507 229.854 67.1507 229.854L68.9404 234.476C68.9404 234.476 47.1328 235.335 43.6936 239.733C41.7326 242.254 39.9049 244.876 38.2179 247.588L36.0859 247.605Z" fill="#E0E0E0"/>
<path d="M38.8786 252.794C41.4349 252.794 43.5072 250.722 43.5072 248.166C43.5072 245.609 41.4349 243.537 38.8786 243.537C36.3223 243.537 34.25 245.609 34.25 248.166C34.25 250.722 36.3223 252.794 38.8786 252.794Z" fill="#263238"/>
<path d="M95.1904 247.431C95.1904 247.431 91.9869 237.658 87.5715 235.29C80.48 231.492 64.1313 229.68 64.1313 229.68L62.3359 234.303C62.3359 234.303 84.1436 235.161 87.5827 239.565C89.5446 242.085 91.3724 244.707 93.0585 247.42L95.1904 247.431Z" fill="#E0E0E0"/>
<path d="M93.5544 252.794C96.1107 252.794 98.1829 250.722 98.1829 248.166C98.1829 245.609 96.1107 243.537 93.5544 243.537C90.9981 243.537 88.9258 245.609 88.9258 248.166C88.9258 250.722 90.9981 252.794 93.5544 252.794Z" fill="#263238"/>
<path d="M63.0938 232.346L64.1092 244.924L66.9705 245.491V232.346" fill="#E0E0E0"/>
<path d="M65.4762 252.794C68.0325 252.794 70.1048 250.722 70.1048 248.166C70.1048 245.609 68.0325 243.537 65.4762 243.537C62.9199 243.537 60.8477 245.609 60.8477 248.166C60.8477 250.722 62.9199 252.794 65.4762 252.794Z" fill="#263238"/>
<path d="M31.0742 133.849C32.1861 133.473 33.327 133.187 34.4853 132.997C35.6254 132.714 36.787 132.526 37.9582 132.436C36.8466 132.813 35.7056 133.098 34.5471 133.288C33.4068 133.57 32.2453 133.758 31.0742 133.849Z" fill="#263238"/>
<path d="M40.9925 143.64C40.6268 143.812 40.2402 143.937 39.8424 144.01C39.1187 144.195 38.1144 144.408 36.9923 144.571C35.8702 144.734 34.8492 144.851 34.1086 144.896C33.7083 144.95 33.3026 144.95 32.9023 144.896C32.9023 144.812 34.7201 144.638 36.9474 144.285C39.1748 143.931 40.9701 143.561 40.9925 143.64Z" fill="#263238"/>
<path d="M49.2641 167.887C48.8288 168.008 48.3804 168.076 47.9288 168.088C47.0984 168.173 45.9483 168.246 44.6747 168.285C43.4012 168.324 42.2511 168.285 41.4151 168.285C40.9646 168.296 40.5143 168.253 40.0742 168.156C40.5193 168.085 40.9704 168.059 41.4207 168.077L44.6691 168.004L47.9119 167.892C48.3613 167.845 48.8143 167.843 49.2641 167.887Z" fill="#263238"/>
<path d="M51.5906 176.674C51.5906 176.764 49.728 177.168 47.5568 178.093C45.3855 179.019 43.781 180.074 43.7305 180.001C44.0269 179.697 44.3673 179.44 44.7403 179.238C45.6015 178.693 46.5059 178.22 47.4446 177.824C48.3809 177.425 49.3494 177.106 50.3395 176.87C50.7461 176.75 51.1668 176.684 51.5906 176.674Z" fill="#263238"/>
<path d="M89.0251 197.297C89.0251 197.375 77.9895 197.42 64.3787 197.387C50.7678 197.353 39.7266 197.274 39.7266 197.19C39.7266 197.106 50.7622 197.067 64.3787 197.095C77.9951 197.123 89.0251 197.213 89.0251 197.297Z" fill="#263238"/>
<path d="M68.5961 203.845C67.505 203.992 66.4027 204.041 65.3028 203.991C64.201 204.041 63.0969 203.993 62.0039 203.845C63.0972 203.701 64.201 203.652 65.3028 203.699C66.4027 203.652 67.5047 203.701 68.5961 203.845Z" fill="#263238"/>
<path d="M68.9113 230.65C67.8987 231.221 66.762 231.535 65.6003 231.565C64.4385 231.595 63.287 231.341 62.2461 230.824C63.3469 231.104 64.4766 231.255 65.6123 231.273C66.7323 231.193 67.8392 230.984 68.9113 230.65Z" fill="#263238"/>
<path d="M137.065 126.719C137.065 126.719 134.428 122.674 132.902 121.294C131.724 120.233 126.007 118.129 123.438 117.215C122.614 116.924 121.747 116.772 120.874 116.766C117.507 116.732 108.609 116.766 104.076 117.574C98.4265 118.606 135.91 148.083 135.91 148.083L167.131 148.156L169.174 140.448L148.331 136.144L136.83 127.022" fill="#E0E0E0"/>
<g opacity="0.3">
<path d="M112.707 118.639C112.707 118.639 114.772 118.74 117.65 119.2C120.528 119.66 123.687 119.806 125.269 121.208C126.329 122.145 132.815 122.33 132.815 122.33L123.838 121.999L112.707 118.639Z" fill="black"/>
</g>
<path d="M109.746 117.899C109.935 117.896 110.124 117.919 110.307 117.966C110.672 118.033 111.205 118.14 111.85 118.303C113.146 118.622 114.919 119.116 116.866 119.7L119.014 120.367H118.981C120.444 120.432 121.899 120.637 123.323 120.979C123.442 121.198 123.532 121.432 123.593 121.674C123.443 121.476 123.315 121.261 123.211 121.035L123.245 121.069C121.817 120.828 120.376 120.677 118.93 120.614H118.897L116.742 119.963L111.76 118.488L110.245 118.056C110.073 118.024 109.905 117.971 109.746 117.899Z" fill="#263238"/>
<path d="M191.306 147.864C191.351 147.628 190.689 144.941 190.621 144.672C190.554 144.402 188.501 141.305 188.501 141.305L187.378 140.963C187.378 140.963 182.161 139.723 181.106 139.796L180.371 139.875C180.371 139.875 179.002 139.976 178.464 140.071C177.925 140.166 174.587 141.339 174.587 141.339C173.768 141.512 172.931 141.574 172.096 141.524C170.945 141.337 169.804 141.09 168.679 140.784L167.344 148.133L169.868 148.055C170.656 148.334 171.47 148.535 172.298 148.655C173.207 148.717 175.782 148.997 175.782 148.997C175.782 148.997 179.76 150.68 180.758 148.335C181.757 145.99 177.919 145.749 177.919 145.749L179.109 144.907L182.155 144.593L182.946 144.845L183.816 146.192C183.816 146.192 183.58 149.165 185.499 148.963L186.004 148.907L186.273 145.855L185.364 142.77L187.373 145.816C187.373 145.816 187.547 148.453 188.416 148.795C188.483 148.825 188.556 148.839 188.63 148.834C189.684 148.801 189.892 148.503 189.892 148.503L190.111 147.97C190.111 147.97 191.154 148.666 191.306 147.864Z" fill="#FFBF9D"/>
<path d="M179.902 139.884C180.22 139.838 180.544 139.851 180.856 139.924C181.627 140.028 182.381 140.23 183.1 140.524C183.834 140.806 184.484 141.269 184.991 141.871C185.215 142.111 185.36 142.415 185.406 142.74C185.356 142.74 185.216 142.42 184.845 142.005C184.321 141.474 183.69 141.061 182.994 140.793C181.344 140.137 179.886 139.991 179.902 139.884Z" fill="#FF9A6C"/>
<path d="M181.865 143.096C181.944 143.096 182 143.416 182.039 143.797C182.078 144.179 182.09 144.504 182.011 144.526C181.933 144.549 181.792 144.235 181.747 143.831C181.703 143.427 181.781 143.09 181.865 143.096Z" fill="#FF9A6C"/>
<path d="M179.902 143.195C179.964 143.139 180.52 143.756 181.406 144.182C182.292 144.609 183.089 144.743 183.089 144.811C182.457 144.901 181.813 144.77 181.266 144.44C180.679 144.198 180.197 143.757 179.902 143.195Z" fill="#FF9A6C"/>
<path d="M173.539 143.471C173.821 143.495 174.091 143.592 174.325 143.751C174.922 144.08 175.435 144.542 175.822 145.103C175.943 145.283 176.051 145.471 176.148 145.664L175.996 145.586C176.727 145.439 177.484 145.504 178.179 145.771C177.465 145.76 176.751 145.792 176.041 145.866H175.94L175.89 145.777C175.798 145.597 175.694 145.422 175.581 145.255C175.02 144.536 174.327 143.931 173.539 143.471Z" fill="#FF9A6C"/>
<path d="M187.492 140.936C187.79 141.174 188.046 141.46 188.25 141.783C188.786 142.529 189.22 143.344 189.54 144.206C189.862 145.068 190.064 145.971 190.14 146.888C190.205 147.259 190.205 147.639 190.14 148.01C189.968 146.749 189.682 145.506 189.288 144.296C188.79 143.125 188.189 142 187.492 140.936Z" fill="#FF9A6C"/>
<path d="M137.796 228.967L137.235 244.149C137.235 244.149 152.456 249.849 152.625 252.655L123.148 252.593L123.086 228.895L137.796 228.967Z" fill="#455A64"/>
<path d="M128.133 242.853C127.85 242.938 127.608 243.125 127.455 243.377C127.301 243.63 127.247 243.931 127.302 244.222C127.376 244.509 127.557 244.757 127.809 244.914C128.061 245.071 128.364 245.124 128.655 245.063C128.955 244.972 129.211 244.772 129.373 244.502C129.535 244.233 129.591 243.913 129.53 243.604C129.42 243.314 129.202 243.078 128.922 242.944C128.642 242.81 128.321 242.79 128.026 242.886" fill="#E0E0E0"/>
<path d="M123.148 252.587L123.238 250.197L151.464 251.151C151.464 251.151 152.771 251.712 152.625 252.649L123.148 252.587Z" fill="#263238"/>
<path d="M137.7 243.997C137.7 244.143 136.971 244.205 136.264 244.665C135.557 245.125 135.175 245.731 135.041 245.675C134.906 245.619 135.125 244.788 135.994 244.244C136.864 243.7 137.728 243.868 137.7 243.997Z" fill="white"/>
<path d="M140.783 245.282C140.817 245.423 140.194 245.664 139.7 246.275C139.207 246.887 139.072 247.527 138.926 247.521C138.78 247.515 138.69 246.696 139.319 245.956C139.947 245.215 140.783 245.148 140.783 245.282Z" fill="white"/>
<path d="M142.537 248.985C142.403 249.019 142.206 248.301 142.577 247.51C142.947 246.719 143.62 246.388 143.699 246.534C143.777 246.679 143.34 247.095 143.048 247.723C142.756 248.351 142.678 248.974 142.537 248.985Z" fill="white"/>
<path d="M137.446 240.525C137.385 240.654 136.723 240.458 135.909 240.525C135.096 240.592 134.462 240.833 134.389 240.71C134.316 240.587 134.922 240.076 135.881 240.026C136.84 239.975 137.514 240.413 137.446 240.525Z" fill="white"/>
<path d="M114.17 227.408L104.633 239.189C104.633 239.189 113.396 252.879 111.864 255.235L88.3008 237.506L102.445 218.504L114.17 227.408Z" fill="#455A64"/>
<path d="M98.096 232.692C97.8169 232.592 97.5109 232.598 97.2359 232.709C96.9609 232.819 96.7359 233.027 96.6036 233.292C96.491 233.564 96.4863 233.869 96.5906 234.144C96.6948 234.419 96.9002 234.644 97.1647 234.773C97.4601 234.88 97.7844 234.873 98.0754 234.755C98.3664 234.637 98.6035 234.416 98.7412 234.134C98.8282 233.835 98.7961 233.515 98.6517 233.24C98.5073 232.965 98.2619 232.756 97.967 232.658" fill="#E0E0E0"/>
<path d="M88.3008 237.505L89.7988 235.648L111.82 253.332C111.82 253.332 112.526 254.578 111.853 255.229L88.3008 237.505Z" fill="#263238"/>
<path d="M105.081 239.364C104.992 239.476 104.374 239.095 103.533 239.039C102.691 238.983 102.024 239.241 101.951 239.112C101.878 238.983 102.551 238.455 103.572 238.551C104.593 238.646 105.188 239.274 105.081 239.364Z" fill="white"/>
<path d="M106.783 242.242C106.727 242.376 106.082 242.197 105.324 242.387C104.567 242.578 104.067 243.01 103.955 242.92C103.843 242.831 104.264 242.124 105.206 241.899C106.149 241.675 106.867 242.129 106.783 242.242Z" fill="white"/>
<path d="M105.962 246.253C105.839 246.202 106.108 245.507 106.882 245.097C107.657 244.688 108.375 244.845 108.352 244.979C108.33 245.114 107.741 245.193 107.118 245.54C106.495 245.888 106.086 246.332 105.962 246.253Z" fill="white"/>
<path d="M106.961 236.429C106.838 236.496 106.429 235.94 105.744 235.497C105.06 235.054 104.398 234.874 104.414 234.734C104.431 234.594 105.222 234.543 106.025 235.082C106.827 235.621 107.085 236.384 106.961 236.429Z" fill="white"/>
<path d="M136.273 122.646C139.13 121.884 142.047 121.372 144.992 121.114C147.952 120.861 150.928 121.347 153.654 122.528C154.058 122.713 156.763 124.273 156.678 124.71C156.622 125.024 154.07 123.998 153.783 124.149C151.023 125.468 147.825 125.63 144.807 125.137C141.88 124.63 139.018 123.8 136.273 122.662" fill="#263238"/>
<path d="M121.018 121.523L147.533 123.268C154.938 123.633 160.897 128.239 160.33 135.611L160.24 136.29C159.793 139.59 158.12 142.6 155.554 144.722C152.989 146.845 149.719 147.925 146.394 147.746C139.975 147.393 132.889 146.927 129.495 146.422C122.454 145.401 122.319 138.203 122.319 138.203C122.319 138.203 121.691 138.125 119.615 137.934L112.883 133.081L121.018 121.523Z" fill="#FFBF9D"/>
<path d="M122.323 138.203C122.77 134.948 124.143 131.891 126.278 129.395C126.278 129.395 120.668 130.887 120.359 138.001L122.323 138.203Z" fill="#FF9A6C"/>
<path d="M141.403 141.365C141.549 141.478 141.077 142.314 141.218 143.396C141.358 144.479 142.003 145.203 141.885 145.338C141.768 145.472 141.582 145.31 141.285 144.995C140.901 144.566 140.658 144.03 140.589 143.458C140.515 142.893 140.623 142.319 140.898 141.82C141.111 141.455 141.336 141.315 141.403 141.365Z" fill="#263238"/>
<path d="M142.187 131.684C142.316 131.813 141.739 132.576 141.722 133.67C141.705 134.764 142.243 135.572 142.103 135.684C142.047 135.746 141.811 135.611 141.542 135.258C141.223 134.78 141.059 134.216 141.071 133.642C141.085 133.07 141.281 132.518 141.632 132.066C141.89 131.735 142.159 131.622 142.187 131.684Z" fill="#263238"/>
<path d="M135.825 137.949C135.924 138.544 135.95 139.149 135.903 139.75C135.903 140.031 135.903 140.311 136.094 140.373C136.377 140.436 136.673 140.411 136.941 140.3L139.157 139.767C142.311 139.038 144.886 138.55 144.914 138.679C144.942 138.808 142.411 139.498 139.258 140.227L137.014 140.726C136.652 140.859 136.254 140.859 135.892 140.726C135.8 140.673 135.721 140.599 135.662 140.511C135.602 140.422 135.564 140.321 135.55 140.216C135.53 140.057 135.53 139.897 135.55 139.739C135.565 139.133 135.657 138.532 135.825 137.949Z" fill="#263238"/>
<path d="M148.011 136.004C147.758 135.819 148.19 134.809 148.392 133.53C148.594 132.251 148.538 131.162 148.841 131.072C148.981 131.033 149.206 131.286 149.368 131.762C149.556 132.396 149.596 133.064 149.486 133.715C149.376 134.367 149.119 134.984 148.734 135.521C148.426 135.925 148.134 136.088 148.011 136.004Z" fill="#263238"/>
<path d="M146.65 146.326C146.432 146.068 146.796 145.204 146.936 144.155C147.077 143.106 147.004 142.175 147.29 142.001C147.425 141.922 147.655 142.096 147.851 142.517C148.076 143.093 148.142 143.719 148.042 144.329C147.967 144.944 147.725 145.526 147.34 146.012C147.043 146.349 146.774 146.439 146.65 146.326Z" fill="#263238"/>
<path d="M142.241 123.139C142.308 123.026 144.328 118.488 139.492 117.988C134.655 117.489 135.149 122.477 135.284 122.477C135.418 122.477 142.241 123.139 142.241 123.139Z" fill="#FFBF9D"/>
<path d="M137.269 121.186C137.269 121.186 137.218 121.096 137.168 120.945C137.105 120.736 137.125 120.511 137.224 120.317C137.465 119.823 138.318 119.475 139.193 119.542C139.609 119.572 140.014 119.695 140.377 119.901C140.519 119.966 140.644 120.063 140.741 120.185C140.839 120.307 140.906 120.45 140.938 120.603C140.953 120.703 140.932 120.805 140.88 120.892C140.828 120.979 140.747 121.046 140.652 121.08C140.511 121.13 140.416 121.08 140.405 121.113C140.394 121.147 140.478 121.225 140.68 121.209C140.803 121.192 140.918 121.135 141.005 121.046C141.119 120.922 141.179 120.759 141.173 120.591C141.155 120.389 141.085 120.196 140.97 120.028C140.855 119.861 140.699 119.727 140.517 119.638C140.121 119.386 139.667 119.237 139.199 119.206C138.217 119.133 137.252 119.537 136.982 120.216C136.931 120.342 136.908 120.477 136.916 120.613C136.923 120.749 136.962 120.882 137.027 121.001C137.156 121.164 137.263 121.203 137.269 121.186Z" fill="#FF9A6C"/>
<path d="M154.709 145.389C155.068 146.214 157.828 144.099 158.889 142.259C160.482 139.453 161.694 135.1 161.206 132.345C160.594 129.024 159.242 126.174 156.454 124.289C153.602 122.441 150.31 121.386 146.916 121.231C145.89 121.094 144.846 121.233 143.892 121.635C142.77 122.196 141.962 123.447 140.486 123.251C140.221 123.207 139.949 123.216 139.687 123.279C139.425 123.341 139.178 123.456 138.96 123.615C137.934 124.412 138.719 125.579 139.561 126.162C141.356 127.402 143.611 127.739 145.777 128.036C147.305 128.331 148.87 128.375 150.411 128.165C151.242 128.003 152.038 127.694 152.874 127.604C153.289 127.519 153.718 127.525 154.131 127.622C154.544 127.719 154.93 127.904 155.264 128.165C155.396 128.299 155.516 128.443 155.623 128.597C156.149 129.328 156.47 130.186 156.555 131.082C156.64 131.978 156.485 132.881 156.106 133.697C154.883 136.334 153.003 140.856 153.811 142.163C154.978 144.037 155.808 144.536 155.808 144.536L154.709 145.389Z" fill="#263238"/>
<path d="M142.322 120.778C142.232 120.205 141.981 119.669 141.6 119.232C141.219 118.794 140.723 118.473 140.168 118.304C140.168 118.265 140.387 118.242 140.729 118.332C141.164 118.453 141.554 118.698 141.851 119.039C142.149 119.375 142.344 119.79 142.412 120.234C142.412 120.571 142.362 120.778 142.322 120.778Z" fill="white"/>
<path d="M133.454 135.436C133.345 135.182 133.147 134.976 132.896 134.859C132.646 134.742 132.361 134.722 132.096 134.802L132.236 134.74C131.99 134.707 131.739 134.759 131.526 134.889C131.314 135.019 131.152 135.218 131.069 135.453C130.998 135.691 130.998 135.946 131.07 136.184C131.141 136.423 131.282 136.635 131.473 136.794C131.687 136.967 131.95 137.069 132.224 137.086C132.498 137.103 132.771 137.034 133.005 136.889C133.232 136.732 133.4 136.504 133.481 136.24C133.563 135.977 133.553 135.693 133.454 135.436Z" fill="#FF9A6C"/>
<path d="M133.184 136.687C133.346 136.495 133.435 136.253 133.437 136.002C133.458 135.741 133.406 135.478 133.285 135.245C133.065 135.018 132.765 134.885 132.449 134.875C132.133 134.826 131.81 134.894 131.54 135.065C131.431 135.134 131.338 135.224 131.265 135.33C131.193 135.436 131.143 135.556 131.119 135.682C131.098 135.93 131.151 136.178 131.271 136.395C131.271 136.395 131.181 136.395 131.086 136.26C130.96 136.086 130.899 135.874 130.912 135.66C130.927 135.498 130.977 135.342 131.058 135.202C131.14 135.061 131.25 134.94 131.383 134.847C131.709 134.616 132.111 134.521 132.505 134.583C132.702 134.591 132.896 134.641 133.072 134.73C133.248 134.819 133.403 134.945 133.526 135.099C133.674 135.382 133.722 135.706 133.661 136.019C133.643 136.228 133.556 136.425 133.414 136.58C133.263 136.692 133.184 136.704 133.184 136.687Z" fill="#263238"/>
<g opacity="0.1">
<path d="M160.64 131.048C159.87 128.561 158.368 126.363 156.331 124.742C154.293 123.12 151.814 122.151 149.217 121.959L147.265 121.87C146.925 121.824 146.58 121.857 146.255 121.965C146.093 122.023 145.956 122.134 145.864 122.279C145.773 122.425 145.733 122.596 145.75 122.767C145.834 123.149 146.255 123.328 146.631 123.429C148.875 124.03 151.232 123.917 153.403 124.68C155.48 125.411 157.205 126.898 158.235 128.845C159.264 130.792 159.522 133.055 158.957 135.183C158.845 135.5 158.796 135.835 158.811 136.171C158.821 136.339 158.887 136.499 158.999 136.625C159.111 136.751 159.262 136.836 159.428 136.866C159.584 136.854 159.734 136.804 159.866 136.721C159.998 136.638 160.107 136.524 160.186 136.389C161.302 134.903 161.19 132.821 160.64 131.048Z" fill="white"/>
</g>
<path d="M141.003 135.796C141.003 135.83 140.75 135.836 140.397 135.673C139.931 135.453 139.56 135.071 139.354 134.599C139.148 134.126 139.12 133.595 139.275 133.103C139.398 132.733 139.572 132.542 139.6 132.576C139.628 132.61 139.538 132.806 139.477 133.137C139.389 133.585 139.44 134.048 139.622 134.466C139.805 134.884 140.11 135.237 140.498 135.477C140.795 135.684 141.036 135.752 141.003 135.796Z" fill="#FF9A6C"/>
<path d="M139.607 145.014C139.366 144.551 139.285 144.021 139.376 143.506C139.468 142.992 139.726 142.522 140.112 142.17C140.184 142.226 139.797 142.77 139.663 143.561C139.528 144.352 139.691 144.992 139.607 145.014Z" fill="#FF9A6C"/>
<path d="M88.3008 163.622C88.6374 163.499 112.425 164.66 120.145 165.339C127.865 166.018 141.246 169.659 141.908 178.748C142.469 186.042 142.34 236.872 142.34 236.872H121.582L121.088 183.152L88.845 175.017L88.3008 163.622Z" fill="#263238"/>
<g opacity="0.3">
<path d="M105.348 167.045C105.348 167.045 116.905 169.132 126.134 171.752C135.363 174.372 139.436 179.977 140.783 183.315C142.129 186.653 142.769 191.641 139.936 196.32C138.146 199.282 129.175 209.706 129.175 209.706C129.175 209.706 127.324 179.792 127.234 179.337C127.144 178.883 105.348 167.045 105.348 167.045Z" fill="black"/>
</g>
<path d="M139.771 186.716C138.795 180.948 132.264 176.914 124.258 173.913C116.37 170.945 95.7292 163.612 95.7292 163.612L90.7865 162.394H88.576L87.8466 160.206C87.8466 160.206 73.8206 156.15 53.5615 163.623L52.8714 164.184C52.8714 164.184 52.2599 178.962 55.1156 182.137C55.1156 182.137 87.3866 181.683 89.0809 181.823C90.7752 181.964 114.44 192.702 114.44 192.702L94.1808 223.778L110.933 235.481C110.933 235.481 121.032 221.085 127.204 212.479C136.018 200.124 140.927 193.527 139.771 186.716Z" fill="#263238"/>
<path d="M139.772 186.716C139.772 186.716 139.823 187.064 139.907 187.743C139.993 188.748 139.955 189.76 139.795 190.755C139.512 192.368 139.016 193.936 138.319 195.418C137.383 197.429 136.305 199.372 135.093 201.23C132.411 205.455 128.776 210.347 124.742 216.114L111.03 235.549L110.963 235.644L110.867 235.577L94.1091 223.885L94.0081 223.812L94.0754 223.705C100.275 214.196 107.114 203.687 114.323 192.624L114.379 192.831C109.891 190.797 105.287 188.739 100.567 186.66C98.2103 185.633 95.8371 184.601 93.4303 183.597C92.224 183.108 91.0178 182.592 89.7835 182.166C89.635 182.112 89.4832 182.067 89.3291 182.031C89.1794 181.98 89.0215 181.957 88.8634 181.964C88.5436 181.964 88.2126 181.964 87.8872 181.964H85.9067C75.3311 182.02 65.0192 182.166 55.1225 182.295H55.0551L55.0102 182.25C54.5158 181.616 54.1498 180.892 53.933 180.118C53.6951 179.37 53.5076 178.608 53.372 177.835C53.103 176.314 52.9157 174.78 52.811 173.24C52.6146 170.182 52.5978 167.175 52.6931 164.213V164.151L52.7436 164.112L53.4337 163.551C59.1571 161.436 65.1191 160.034 71.185 159.376C74.0243 159.072 76.8822 158.978 79.7353 159.096C82.4773 159.146 85.207 159.477 87.8816 160.083H87.9433V160.145C88.1958 160.914 88.4314 161.632 88.667 162.339L88.5548 162.26H90.799L95.7474 163.483L115.81 170.749L124.057 173.739C126.368 174.591 128.617 175.599 130.79 176.758C134.717 178.845 137.332 181.296 138.493 183.355C138.754 183.8 138.987 184.261 139.189 184.735C139.325 185.084 139.443 185.44 139.542 185.801C139.677 186.391 139.733 186.688 139.733 186.688C139.733 186.688 139.654 186.391 139.514 185.807C139.447 185.515 139.29 185.173 139.144 184.758C139.071 184.545 138.942 184.337 138.835 184.107C138.721 183.858 138.588 183.618 138.437 183.389C137.264 181.352 134.65 178.934 130.728 176.864C128.554 175.719 126.305 174.724 123.996 173.885L115.793 170.945L95.7193 163.719L90.7765 162.501H88.5324V162.423L87.7413 160.24L87.8255 160.319C85.1967 159.705 82.5124 159.359 79.8138 159.287C76.9735 159.173 74.1287 159.27 71.3028 159.578C65.2593 160.239 59.32 161.641 53.6189 163.753H53.6581L52.9681 164.314L53.0186 164.213C52.9232 167.158 52.9456 170.171 53.142 173.189C53.2374 174.72 53.4134 176.244 53.6694 177.756C53.8111 178.515 53.9985 179.264 54.2304 180C54.4375 180.736 54.7842 181.426 55.2515 182.031L55.1449 181.981C65.0472 181.852 75.3423 181.7 85.9348 181.644H87.9152C88.2462 181.644 88.5773 181.644 88.9083 181.644C89.0797 181.643 89.2503 181.669 89.4132 181.723C89.5813 181.759 89.7463 181.807 89.9069 181.869C91.158 182.301 92.3587 182.811 93.5705 183.305C95.9774 184.309 98.3562 185.341 100.707 186.374C105.412 188.438 110.018 190.495 114.525 192.545L114.677 192.613L114.587 192.753L94.3223 223.823L94.2886 223.644L111.03 235.358H110.867L124.618 215.946C128.664 210.19 132.316 205.286 135.009 201.107C136.217 199.273 137.295 197.357 138.235 195.373C138.936 193.903 139.439 192.346 139.733 190.744C139.898 189.753 139.947 188.745 139.879 187.743C139.8 187.069 139.772 186.716 139.772 186.716Z" fill="#455A64"/>
<path d="M124.493 188.915C123.964 189.039 123.428 189.134 122.889 189.201C120.318 189.669 117.866 190.642 115.674 192.062C114.832 192.623 114.338 192.982 114.305 192.949C114.672 192.542 115.093 192.187 115.556 191.894C116.634 191.127 117.802 190.496 119.034 190.014C120.265 189.531 121.55 189.198 122.861 189.021C123.399 188.92 123.947 188.885 124.493 188.915Z" fill="#455A64"/>
<path d="M120.853 137.848V139.627L116.516 140.031L116.27 139.122L117.436 136.412L120.853 137.848Z" fill="#383838"/>
<path d="M117.463 139.252L111.864 150.462L113.103 170.581L110.293 174.968L107.336 169.908L107.846 150.765L116.565 138.428L117.463 139.252Z" fill="#383838"/>
<path d="M119.158 120.547C119.158 120.547 111.259 117.551 103.623 117.052C95.9874 116.552 86.5451 121.675 82.0344 123.678C77.5236 125.68 60.2773 142.753 56.5463 148.431C54.4088 151.696 51.5587 159.09 51.5587 159.09C51.0762 161.671 52.8771 164.185 52.8771 164.185L87.5999 164.443H94.1136L96.8683 158.557C96.8683 158.557 102.125 158.181 103.629 155.303C105.132 152.425 110.642 148.167 110.642 148.167L116.914 137.788L121.043 138.663L123.333 121.029L119.158 120.547Z" fill="#E0E0E0"/>
<path d="M93.4197 128.439C93.3908 128.647 93.338 128.85 93.2626 129.045C93.1336 129.494 92.9709 130.033 92.7745 130.672C92.2576 132.461 91.8344 134.276 91.5066 136.109C91.1878 137.945 90.9686 139.797 90.8502 141.658C90.8165 142.32 90.7829 142.886 90.7604 143.341C90.7621 143.55 90.7414 143.759 90.6987 143.963C90.653 143.759 90.6341 143.55 90.6426 143.341C90.6426 142.942 90.6426 142.359 90.6426 141.658C90.6946 139.776 90.8821 137.901 91.2036 136.047C91.5292 134.202 91.9829 132.382 92.5613 130.599C92.7858 129.915 92.9877 129.371 93.1224 129C93.1994 128.803 93.2992 128.614 93.4197 128.439Z" fill="#263238"/>
<path d="M108.639 197.621C108.639 197.621 111.018 200.393 111.753 201.397C112.415 202.295 113.071 205.582 113.323 208.792C113.341 208.982 113.311 209.175 113.236 209.351C113.162 209.527 113.044 209.682 112.894 209.802C112.745 209.921 112.568 210.002 112.379 210.036C112.19 210.07 111.996 210.057 111.814 209.998C111.655 209.937 111.515 209.836 111.408 209.704C111.301 209.572 111.23 209.414 111.203 209.246C110.692 206.923 110.557 205.936 110.557 205.936C110.49 204.814 110.372 204.971 110.339 205.728C110.305 206.486 110.9 210.677 110.9 210.677C110.9 210.677 112.504 216.394 112.072 217.033C111.98 217.16 111.86 217.265 111.722 217.34C111.584 217.414 111.431 217.457 111.274 217.464C111.117 217.471 110.96 217.442 110.816 217.38C110.671 217.318 110.543 217.225 110.44 217.106C110.221 216.809 108.414 212.057 108.414 212.057L107.937 209.454C107.937 209.454 108.869 217.678 108.347 218.324C108.27 218.441 108.166 218.539 108.043 218.609C107.921 218.678 107.784 218.718 107.643 218.725C107.503 218.731 107.362 218.704 107.234 218.646C107.106 218.588 106.993 218.501 106.905 218.391C106.54 218.066 106.17 214.43 106.17 214.43L105.323 209.577L105.474 218.829C105.474 218.829 105.379 219.704 104.689 219.737C103.999 219.771 103.567 218.756 103.567 218.756L102.574 209.218C102.574 209.218 102.894 214.52 102.535 214.8C102.058 215.171 101.626 215.047 101.469 214.638C101.149 213.813 100.683 209.027 100.683 209.027L100.246 199.95L99.9258 196.948L107.87 194.104L108.639 197.621Z" fill="#FFBF9D"/>
<g opacity="0.3">
<path d="M91.4257 140.93C88.9575 148.571 87.218 156.429 86.2305 164.398C86.3276 167.283 86.6579 170.156 87.2179 172.988C88.1324 177.526 95.5774 197.208 95.5774 197.208L100.677 197.651L96.3797 162.687L100.677 146.344L91.4257 140.93Z" fill="black"/>
</g>
<path d="M114.29 126.021C117.785 127.099 118.441 134.185 117.69 136.204C115.283 142.684 107.591 148.772 107.703 148.418L102.704 168.301L109.79 195.231L98.3337 199.333C98.3337 199.333 87.8816 171.685 87.674 167.353C87.4664 163.022 90.5802 151.734 91.0402 144.985C91.3376 140.648 93.5369 131.851 98.8948 126.672" fill="#E0E0E0"/>
<path d="M98.901 126.634C98.901 126.634 98.8169 126.735 98.643 126.926C98.469 127.117 98.1997 127.392 97.8687 127.773C96.9253 128.899 96.0841 130.106 95.3553 131.381C94.2156 133.416 93.2941 135.565 92.6062 137.794C92.1632 139.183 91.8091 140.6 91.5458 142.035C91.4112 142.798 91.2877 143.583 91.2148 144.397C91.1419 145.211 91.0914 146.08 90.9735 146.916C90.5696 150.35 89.8178 154.069 89.0604 158.075C88.6901 160.072 88.2974 162.148 88.0169 164.297C87.8568 165.381 87.8061 166.479 87.8654 167.574L87.9832 168.393L88.174 169.212C88.2918 169.773 88.4489 170.334 88.606 170.895C89.2175 173.105 89.9468 175.35 90.7099 177.627C91.4729 179.905 92.2808 182.245 93.1167 184.618C94.7998 189.359 96.5839 194.262 98.469 199.278L98.2839 199.194L103.608 197.286L109.74 195.093L109.651 195.266C107.132 185.69 104.747 176.612 102.576 168.337V168.269C104.433 160.931 106.122 154.243 107.597 148.392L107.805 148.448C107.809 148.433 107.81 148.417 107.807 148.401C107.804 148.386 107.798 148.371 107.788 148.359C107.778 148.346 107.765 148.337 107.75 148.331C107.735 148.325 107.719 148.323 107.704 148.324H107.737L107.816 148.279L107.973 148.173L108.287 147.937L108.893 147.449C109.286 147.112 109.667 146.776 110.015 146.434C110.756 145.755 111.452 145.059 112.102 144.363C113.334 143.06 114.46 141.66 115.469 140.178C116.362 138.895 117.088 137.504 117.629 136.038C117.906 134.756 117.941 133.433 117.73 132.138C117.415 129.788 116.641 128.037 115.8 127.089C115.372 126.616 114.843 126.248 114.251 126.012C114.251 126.012 114.408 126.068 114.706 126.191C114.891 126.269 115.065 126.373 115.222 126.5C115.453 126.658 115.663 126.847 115.844 127.061C116.714 127.981 117.528 129.743 117.847 132.11C117.938 132.735 117.987 133.364 117.993 133.995C118.013 134.694 117.938 135.393 117.769 136.071C117.234 137.556 116.508 138.965 115.609 140.262C114.601 141.758 113.475 143.17 112.243 144.487C111.586 145.188 110.89 145.889 110.15 146.574C109.78 146.922 109.398 147.264 109.028 147.601C108.831 147.763 108.629 147.932 108.422 148.094L108.102 148.335L107.934 148.448L107.844 148.504H107.788H107.737C107.718 148.506 107.698 148.504 107.679 148.497C107.66 148.49 107.644 148.478 107.631 148.463C107.617 148.448 107.608 148.431 107.603 148.411C107.598 148.392 107.598 148.372 107.603 148.352L107.816 148.408L102.84 168.297V168.23L109.937 195.16L109.97 195.289L109.847 195.334L103.715 197.527L98.3849 199.435L98.2502 199.486L98.1997 199.351C96.3146 194.33 94.5305 189.42 92.853 184.68C92.0227 182.306 91.2092 179.973 90.4518 177.683C89.6944 175.394 88.9706 173.139 88.3535 170.917C88.1964 170.356 88.0449 169.795 87.9271 169.234C87.8598 168.954 87.7981 168.673 87.7363 168.404C87.6746 168.135 87.6522 167.843 87.6129 167.551C87.5538 166.441 87.6083 165.328 87.7756 164.23C88.0617 162.064 88.4545 159.994 88.836 157.991C89.6046 153.985 90.3676 150.277 90.7828 146.849C90.9006 145.996 90.9455 145.166 91.0297 144.341C91.1138 143.516 91.2372 142.725 91.3775 141.962C91.6472 140.523 92.0089 139.102 92.4603 137.709C93.1591 135.474 94.0998 133.322 95.2655 131.291C96.0024 130.013 96.861 128.808 97.8295 127.695C98.5139 126.982 98.901 126.634 98.901 126.634Z" fill="#263238"/>
<path d="M117.473 130.622C117.415 130.126 117.415 129.625 117.473 129.13C117.527 127.931 117.643 126.737 117.82 125.55C117.997 124.364 118.236 123.188 118.539 122.027C118.636 121.537 118.792 121.06 119.004 120.607C118.956 121.102 118.868 121.592 118.741 122.072C118.555 122.969 118.32 124.215 118.112 125.595C117.905 126.975 117.77 128.232 117.68 129.146C117.656 129.644 117.586 130.137 117.473 130.622Z" fill="#263238"/>
<g opacity="0.3">
<path d="M118.742 121.024C118.624 120.973 118.501 121.091 118.422 121.198C117.69 122.048 117.104 123.015 116.689 124.059C116.066 125.922 116.728 127.986 117.295 129.894C117.823 131.714 118.013 133.616 117.856 135.504L117.716 136.161C118.319 134.979 118.489 133.623 118.198 132.329C117.903 131.047 117.675 129.751 117.514 128.446C117.385 126.039 118.355 123.728 118.838 121.372C118.866 121.259 118.871 121.074 118.742 121.024Z" fill="black"/>
</g>
<path d="M79.5973 173.738H76.0234V199.31H79.5973V173.738Z" fill="#E0E0E0"/>
<path d="M24.9318 157.03C25.251 157.786 25.8355 158.4 26.5752 158.755C27.315 159.111 28.1591 159.184 28.9489 158.96C37.3245 156.654 46.1558 156.563 54.5772 158.697C66.3983 161.631 70.7127 167.999 72.3173 172.004C72.7109 172.963 73.3821 173.783 74.2449 174.358C75.1076 174.933 76.1224 175.237 77.159 175.23H77.6415C78.1401 175.227 78.6317 175.113 79.0808 174.896C79.5298 174.679 79.9251 174.365 80.2381 173.977C80.5511 173.589 80.7739 173.136 80.8905 172.652C81.0072 172.167 81.0146 171.662 80.9124 171.174C79.6893 165.62 72.3004 155.97 59.0935 152.402C43.1993 148.104 32.1636 150.965 27.0301 152.564C26.5889 152.705 26.1815 152.936 25.8334 153.241C25.4853 153.547 25.204 153.921 25.007 154.34C24.8101 154.759 24.7018 155.214 24.6888 155.677C24.6759 156.14 24.7586 156.601 24.9318 157.03Z" fill="#455A64"/>
<path d="M24.9284 157.031C24.9284 157.031 24.8779 156.925 24.7994 156.706C24.6641 156.275 24.6167 155.822 24.6601 155.373C24.7035 154.924 24.8367 154.488 25.0519 154.091C25.4242 153.413 26.0185 152.884 26.735 152.593C31.3126 151.079 36.0827 150.225 40.9013 150.057C44.224 149.939 47.5508 150.114 50.8429 150.579C51.7293 150.719 52.6326 150.848 53.5415 151.006L56.3074 151.567L59.1126 152.262C60.0439 152.565 61.0145 152.823 61.9571 153.166C62.8996 153.508 63.8646 153.867 64.7959 154.321C65.2616 154.546 65.7441 154.736 66.2042 154.989L67.5955 155.735C69.4716 156.802 71.2463 158.037 72.8974 159.427C74.6052 160.871 76.1532 162.494 77.5147 164.269L78.0309 164.947L78.5078 165.666C78.6592 165.901 78.8276 166.137 78.9734 166.384L79.3998 167.135C79.9809 168.145 80.4494 169.216 80.7968 170.328C80.8697 170.614 80.9539 170.889 81.0268 171.181C81.084 171.476 81.1047 171.778 81.0885 172.078C81.035 172.981 80.6329 173.827 79.9671 174.438C79.3013 175.049 78.4239 175.378 77.5203 175.355C76.3632 175.419 75.2147 175.123 74.2326 174.508C73.2675 173.896 72.5257 172.988 72.1175 171.921C71.7125 170.924 71.2128 169.967 70.6251 169.065C70.3502 168.605 70.0192 168.19 69.7107 167.764C69.4021 167.337 69.0598 166.933 68.6952 166.558C67.3068 165.049 65.7172 163.739 63.9712 162.664C62.3078 161.645 60.5513 160.787 58.7255 160.1C56.9947 159.466 55.2234 158.949 53.4237 158.552C50.2001 157.809 46.9118 157.382 43.6055 157.278C38.8133 157.116 34.0232 157.658 29.3887 158.888C29.0035 159.016 28.604 159.095 28.1993 159.124C27.7401 159.144 27.2817 159.069 26.8523 158.905C26.4229 158.741 26.0317 158.491 25.7027 158.17C25.3739 157.856 25.119 157.473 24.9565 157.048C25.153 157.457 25.4209 157.827 25.7476 158.142C26.1444 158.508 26.6235 158.774 27.1446 158.916C27.4817 159.002 27.8294 159.038 28.1769 159.023C28.5738 158.987 28.9653 158.906 29.3438 158.782C33.9918 157.507 38.8053 156.939 43.6223 157.098C46.9485 157.18 50.2582 157.593 53.5022 158.333C55.3127 158.729 57.0951 159.244 58.8377 159.876C60.6835 160.564 62.459 161.428 64.1395 162.456C65.9083 163.538 67.5188 164.86 68.9252 166.384C69.2955 166.76 69.6097 167.192 69.9575 167.601C70.3054 168.011 70.6027 168.46 70.8832 168.925C71.4846 169.839 71.9939 170.811 72.4036 171.826C72.7927 172.837 73.4969 173.697 74.4122 174.278C75.3481 174.861 76.4415 175.141 77.5428 175.08C78.3727 175.103 79.1791 174.802 79.7908 174.241C80.4025 173.679 80.7714 172.902 80.8192 172.073C80.8341 171.796 80.8153 171.519 80.7631 171.248C80.6958 170.973 80.6117 170.687 80.5387 170.423C80.1976 169.331 79.7385 168.28 79.1698 167.287L78.7602 166.535C78.6144 166.294 78.4517 166.058 78.2946 165.823L77.8065 165.133L77.2959 164.459C75.9464 162.703 74.4136 161.095 72.7234 159.662C71.0864 158.284 69.3268 157.057 67.4665 155.999L66.0919 155.253C65.6375 155 65.155 154.815 64.695 154.591C63.7692 154.136 62.8155 153.8 61.8898 153.44C60.964 153.081 59.9934 152.835 59.0846 152.537L56.2794 151.836L53.5247 151.275C52.6158 151.112 51.7181 150.983 50.8373 150.837C47.5589 150.365 44.2457 150.177 40.9349 150.276C36.1355 150.426 31.3805 151.245 26.8079 152.711C26.109 152.983 25.5274 153.491 25.1641 154.147C24.8919 154.623 24.7434 155.159 24.7321 155.707C24.7186 156.157 24.7851 156.605 24.9284 157.031Z" fill="#263238"/>
<path d="M30.7946 155.679C30.7946 156.215 30.6357 156.738 30.338 157.184C30.0402 157.63 29.617 157.977 29.1218 158.182C28.6267 158.387 28.0818 158.441 27.5562 158.336C27.0305 158.232 26.5477 157.974 26.1687 157.595C25.7897 157.216 25.5316 156.733 25.4271 156.207C25.3225 155.682 25.3762 155.137 25.5813 154.642C25.7864 154.146 26.1337 153.723 26.5793 153.425C27.025 153.128 27.5489 152.969 28.0848 152.969C28.4409 152.968 28.7936 153.038 29.1227 153.174C29.4518 153.309 29.7508 153.509 30.0026 153.761C30.2544 154.013 30.454 154.312 30.5899 154.641C30.7258 154.97 30.7954 155.323 30.7946 155.679Z" fill="white"/>
<path d="M191.527 137.557H204.308L203.309 144.586C203.309 144.586 202.479 148.042 200.504 148.042H194.967C194.286 147.625 193.696 147.074 193.234 146.424C192.771 145.773 192.444 145.035 192.274 144.255L191.527 137.557Z" fill="#455A64"/>
<path d="M191.527 137.557C191.546 137.631 191.559 137.706 191.567 137.781C191.567 137.938 191.617 138.146 191.656 138.404C191.729 138.965 191.836 139.756 191.971 140.744C192.105 141.731 192.262 142.954 192.442 144.329C192.616 145.08 192.94 145.789 193.394 146.412C193.848 147.036 194.423 147.562 195.084 147.959H195.034H199.46C199.853 147.959 200.252 147.959 200.639 147.959C201.021 147.937 201.385 147.782 201.665 147.521C202.252 146.958 202.693 146.261 202.95 145.49C203.063 145.194 203.161 144.893 203.242 144.587C203.584 142.101 203.909 139.739 204.207 137.557L204.308 137.675L195.135 137.624L192.492 137.596H191.78H191.527C191.604 137.587 191.681 137.587 191.757 137.596H192.447L195.068 137.568L204.308 137.518H204.42V137.63C204.123 139.812 203.803 142.18 203.472 144.66C203.392 144.976 203.293 145.287 203.175 145.591C202.901 146.396 202.437 147.124 201.822 147.712C201.506 148.003 201.097 148.174 200.667 148.194C200.263 148.194 199.87 148.194 199.477 148.194H195.051H195.023C194.34 147.781 193.748 147.233 193.283 146.584C192.818 145.935 192.49 145.198 192.318 144.418C192.133 143.01 192.01 141.781 191.892 140.772C191.774 139.762 191.696 138.993 191.64 138.432L191.572 137.821C191.547 137.735 191.532 137.646 191.527 137.557Z" fill="#263238"/>
<path d="M203.312 141.182L203.503 141.137C203.385 141.137 203.536 141.137 203.559 141.137C203.697 141.129 203.836 141.129 203.974 141.137C203.839 141.137 203.974 141.137 204.025 141.137L204.243 141.194L204.423 141.25C204.507 141.278 204.423 141.25 204.389 141.25L204.507 141.306C204.629 141.372 204.747 141.445 204.861 141.525C204.933 141.575 204.861 141.525 204.832 141.525L204.905 141.586C204.961 141.636 205.013 141.688 205.063 141.743C205.102 141.788 205.18 141.895 205.107 141.788C205.152 141.85 205.192 141.912 205.231 141.973C205.27 142.035 205.293 142.091 205.321 142.147C205.349 142.203 205.321 142.147 205.321 142.114C205.339 142.154 205.354 142.195 205.365 142.237C205.391 142.308 205.412 142.382 205.427 142.456C205.427 142.484 205.466 142.669 205.455 142.579C205.444 142.49 205.455 142.675 205.455 142.703C205.461 142.779 205.461 142.856 205.455 142.933C205.455 142.978 205.455 143.023 205.455 143.067C205.455 143.112 205.455 143.185 205.455 143.067C205.448 143.109 205.439 143.15 205.427 143.191C205.416 143.256 205.399 143.32 205.377 143.382C205.377 143.432 205.293 143.606 205.377 143.471C205.316 143.601 205.247 143.727 205.169 143.847L205.113 143.926C205.113 143.926 205.192 143.836 205.113 143.898C205.034 143.959 204.995 144.021 204.933 144.083C204.872 144.145 204.771 144.212 204.838 144.167C204.905 144.122 204.754 144.218 204.731 144.229L204.563 144.324L204.479 144.369C204.524 144.369 204.574 144.319 204.479 144.369C204.434 144.369 204.187 144.448 204.041 144.487C203.896 144.526 204.081 144.487 204.092 144.487H203.963H203.525H203.402L203.155 144.408C203.262 144.453 203.071 144.363 203.071 144.363C202.984 144.312 202.887 144.279 202.787 144.265C202.686 144.251 202.584 144.257 202.486 144.282C202.389 144.308 202.297 144.353 202.216 144.414C202.135 144.475 202.067 144.551 202.016 144.638C201.965 144.726 201.931 144.822 201.917 144.922C201.904 145.023 201.91 145.125 201.935 145.223C201.961 145.321 202.005 145.413 202.066 145.493C202.127 145.574 202.204 145.642 202.291 145.693C203.028 146.076 203.883 146.168 204.684 145.95C205.486 145.731 206.176 145.219 206.617 144.515C207.032 143.777 207.16 142.912 206.976 142.086C206.882 141.684 206.71 141.304 206.469 140.969C206.229 140.634 205.924 140.35 205.573 140.133C205.186 139.89 204.753 139.729 204.302 139.661C203.85 139.592 203.389 139.617 202.947 139.735C202.75 139.789 202.583 139.92 202.482 140.097C202.381 140.275 202.354 140.486 202.409 140.683C202.463 140.88 202.593 141.048 202.771 141.149C202.949 141.25 203.16 141.276 203.357 141.222L203.312 141.182Z" fill="#455A64"/>
<path d="M203.308 141.181C203.228 141.22 203.139 141.235 203.05 141.226C202.918 141.219 202.789 141.18 202.675 141.112C202.562 141.043 202.467 140.947 202.399 140.833C202.344 140.741 202.308 140.638 202.292 140.531C202.277 140.424 202.283 140.316 202.31 140.211C202.338 140.107 202.385 140.009 202.451 139.923C202.516 139.837 202.598 139.765 202.691 139.711C202.927 139.604 203.179 139.539 203.437 139.52C203.722 139.484 204.011 139.484 204.296 139.52C204.95 139.619 205.561 139.907 206.052 140.351C206.624 140.859 206.992 141.56 207.084 142.32C207.198 143.16 206.998 144.013 206.523 144.716C206.262 145.082 205.927 145.391 205.541 145.623C205.155 145.854 204.725 146.004 204.279 146.062C203.88 146.119 203.474 146.107 203.078 146.029C202.888 145.984 202.701 145.928 202.517 145.86L202.248 145.737C202.149 145.693 202.061 145.627 201.99 145.546C201.857 145.382 201.785 145.177 201.785 144.965C201.785 144.754 201.857 144.549 201.99 144.385C202.129 144.232 202.315 144.131 202.519 144.098C202.723 144.065 202.932 144.103 203.112 144.205L202.966 144.295C202.967 144.27 202.977 144.247 202.993 144.228C203.009 144.21 203.032 144.198 203.056 144.194C203.112 144.194 203.118 144.194 203.112 144.194H203.151C203.151 144.132 203.23 144.351 203.106 144.373H203.045H203V144.345C202.944 144.121 203.157 144.183 203.095 144.177H203.129L203.207 144.205C203.312 144.239 203.419 144.265 203.527 144.284C203.527 144.284 203.527 144.284 203.583 144.312C203.639 144.34 203.617 144.312 203.611 144.407C203.606 144.502 203.533 144.486 203.527 144.486H203.477H203.432H203.393C203.393 144.486 203.336 144.458 203.364 144.362C203.393 144.267 203.437 144.317 203.449 144.312H203.701C203.808 144.317 203.914 144.317 204.021 144.312V144.503H203.987H203.937C203.911 144.502 203.887 144.492 203.869 144.474C203.858 144.459 203.852 144.44 203.852 144.421C203.852 144.402 203.858 144.383 203.869 144.368C203.869 144.329 203.869 144.34 203.869 144.334L203.914 144.306H204.004L204.167 144.261L204.335 144.216H204.408C204.369 144.177 204.408 144.407 204.464 144.379H204.503H204.47L204.38 144.211L204.599 144.093L204.7 144.031C204.72 144.025 204.741 144.025 204.761 144.031C204.78 144.037 204.797 144.047 204.812 144.059C204.827 144.077 204.835 144.1 204.835 144.124C204.835 144.147 204.827 144.17 204.812 144.188H204.778C204.76 144.195 204.74 144.195 204.722 144.188C204.706 144.185 204.692 144.179 204.679 144.169C204.666 144.159 204.656 144.147 204.649 144.132C204.616 144.082 204.683 144.009 204.649 144.026C204.714 143.979 204.774 143.927 204.829 143.869L204.907 143.784C204.907 143.784 205.003 143.784 205.025 143.846C205.048 143.908 205.025 143.891 205.025 143.902L204.991 143.941L204.846 143.835C204.947 143.695 205.02 143.543 205.104 143.403L205.261 143.476V143.504C205.261 143.504 205.261 143.504 205.193 143.504C205.182 143.503 205.172 143.5 205.162 143.495C205.152 143.49 205.143 143.484 205.136 143.475C205.128 143.467 205.123 143.457 205.119 143.447C205.116 143.436 205.114 143.425 205.115 143.414V143.352C205.13 143.318 205.144 143.282 205.154 143.246C205.154 143.173 205.193 143.1 205.21 143.027V142.971C205.21 142.971 205.21 142.971 205.244 142.92C205.256 142.913 205.269 142.91 205.283 142.91C205.297 142.91 205.311 142.913 205.322 142.92H205.356C205.362 142.942 205.362 142.966 205.356 142.988V143.044C205.412 143.106 205.121 143.077 205.199 143.044V142.993C205.196 142.977 205.196 142.96 205.199 142.943C205.199 142.87 205.199 142.797 205.199 142.73C205.205 142.661 205.205 142.591 205.199 142.522V142.46C205.2 142.447 205.205 142.434 205.212 142.422C205.218 142.411 205.227 142.401 205.238 142.393C205.25 142.385 205.264 142.38 205.278 142.38C205.292 142.38 205.305 142.385 205.317 142.393C205.323 142.395 205.329 142.399 205.334 142.404C205.339 142.409 205.343 142.415 205.345 142.421C205.345 142.449 205.345 142.449 205.345 142.449V142.483C205.347 142.494 205.347 142.505 205.345 142.516C205.345 142.516 205.345 142.516 205.3 142.544C205.283 142.549 205.265 142.548 205.248 142.541C205.232 142.533 205.219 142.521 205.21 142.505L205.182 142.382C205.155 142.254 205.119 142.129 205.076 142.006L205.21 141.955V141.983C205.212 141.992 205.212 142.001 205.21 142.009C205.208 142.018 205.204 142.026 205.199 142.032C205.193 142.039 205.187 142.045 205.179 142.049C205.171 142.053 205.163 142.056 205.154 142.056C205.098 142.056 205.098 142.056 205.092 142.056C205.092 142.056 205.092 142.011 205.053 141.989L204.997 141.871L204.862 141.664L204.975 141.591V141.619C204.98 141.628 204.983 141.639 204.983 141.65C204.983 141.66 204.98 141.671 204.975 141.68C204.969 141.69 204.96 141.697 204.95 141.703C204.941 141.708 204.93 141.711 204.919 141.711C204.907 141.711 204.897 141.708 204.887 141.703C204.877 141.697 204.869 141.69 204.862 141.68L204.823 141.63C204.798 141.597 204.77 141.567 204.739 141.54L204.576 141.383L204.655 141.293H204.689C204.554 141.479 204.632 141.338 204.604 141.378L204.531 141.333L204.391 141.243C204.31 141.187 204.223 141.138 204.133 141.097L204.178 141.002H204.223H204.257C204.257 141.002 204.285 141.069 204.257 141.08H204.228H204.43L204.341 141.046L204.172 140.996L204.015 140.957H203.942C203.976 140.957 203.875 140.996 203.942 140.878H204.004V140.957H203.634H203.493C203.493 140.957 203.493 140.957 203.493 140.923H203.578C203.578 140.923 203.578 140.923 203.578 140.951H203.533C203.463 140.967 203.391 140.977 203.32 140.979C203.385 140.947 203.455 140.924 203.527 140.912H203.555H203.493H204.004V140.99H203.942C204.01 140.867 203.903 140.923 203.942 140.912H204.032L204.2 140.946L204.374 140.996L204.464 141.024C204.43 141.159 204.43 141.108 204.425 141.114H204.369L204.414 141.018C204.507 141.06 204.597 141.109 204.683 141.164L204.829 141.248L204.907 141.293L204.879 141.338L204.84 141.305L204.919 141.215C204.979 141.264 205.037 141.316 205.092 141.372C205.092 141.406 205.154 141.428 205.188 141.467L205.227 141.518C205.227 141.518 205.199 141.518 205.188 141.518V141.49L205.3 141.417C205.345 141.484 205.395 141.551 205.44 141.63L205.502 141.748C205.502 141.748 205.541 141.781 205.502 141.81L205.463 141.843C205.448 141.838 205.432 141.838 205.418 141.843H205.39V141.804L205.524 141.753C205.575 141.883 205.616 142.016 205.648 142.152V142.202V142.242C205.648 142.242 205.648 142.242 205.603 142.242C205.558 142.242 205.603 142.242 205.575 142.242C205.569 142.239 205.562 142.238 205.555 142.238C205.549 142.238 205.542 142.239 205.536 142.242H205.502H205.547H205.575C205.575 142.242 205.603 142.242 205.609 142.242H205.553V142.281C205.553 142.348 205.553 142.432 205.553 142.505C205.561 142.58 205.561 142.655 205.553 142.73C205.556 142.75 205.556 142.771 205.553 142.791C205.553 142.791 205.524 142.791 205.485 142.791H205.39V142.741C205.39 142.741 205.446 142.741 205.435 142.741C205.558 142.741 205.508 142.741 205.519 142.741V142.797C205.519 142.87 205.48 142.954 205.457 143.033C205.448 143.073 205.435 143.113 205.418 143.15V143.201C205.199 143.111 205.278 143.134 205.272 143.122V143.094L205.429 143.167C205.339 143.319 205.266 143.481 205.16 143.633L205.014 143.526L205.053 143.481H205.087C205.087 143.481 205.126 143.481 205.137 143.521V143.549C205.137 143.549 205.171 143.594 205.165 143.582L205.081 143.672C205.024 143.733 204.962 143.789 204.896 143.84C204.857 143.807 204.857 143.779 204.846 143.784C204.834 143.79 204.846 143.784 204.846 143.756L204.818 143.706C204.818 143.706 204.846 143.739 204.818 143.745C204.79 143.751 204.818 143.796 204.818 143.796C204.817 143.807 204.819 143.819 204.825 143.829C204.831 143.839 204.84 143.847 204.851 143.852H204.823L204.717 143.919L204.492 144.042L204.402 143.874H204.442H204.509C204.593 143.874 204.61 144.082 204.565 144.037H204.537L204.447 144.07L204.279 144.115L204.105 144.16H204.021C204.021 144.16 204.021 144.205 203.987 144.076C203.987 144.076 203.987 143.964 203.987 143.975H204.066V144.166C203.952 144.174 203.837 144.174 203.724 144.166C203.666 144.171 203.607 144.171 203.55 144.166H203.488V144.07C203.488 144.07 203.488 144.014 203.488 143.986H203.55C203.55 143.986 203.55 144.031 203.55 144.037C203.55 144.042 203.55 144.037 203.55 144.07C203.55 144.07 203.55 144.07 203.55 144.11C203.554 144.126 203.554 144.144 203.55 144.16C203.434 144.138 203.32 144.11 203.207 144.076L203.123 144.048H203.073V144.014C203.074 143.996 203.074 143.977 203.073 143.958C203.146 143.812 203.106 143.88 203.118 143.863H203.151C203.151 143.863 203.151 143.93 203.123 143.941L203.078 144.02H203.039C203.059 144.026 203.081 144.026 203.101 144.02C203.116 144.017 203.131 144.01 203.144 144C203.156 143.991 203.167 143.978 203.174 143.964V143.936C203.174 143.936 203.174 143.936 203.095 143.936L203.028 144.031C202.891 143.958 202.735 143.931 202.581 143.955C202.428 143.98 202.288 144.054 202.181 144.166C202.083 144.292 202.03 144.447 202.03 144.606C202.03 144.766 202.083 144.921 202.181 145.047C202.311 145.159 202.461 145.244 202.624 145.299C202.797 145.364 202.975 145.415 203.157 145.451C203.526 145.528 203.905 145.542 204.279 145.49C204.699 145.438 205.103 145.3 205.466 145.084C205.829 144.867 206.143 144.578 206.388 144.233C206.846 143.58 207.046 142.781 206.95 141.989C206.868 141.273 206.529 140.611 205.996 140.126C205.527 139.695 204.942 139.412 204.313 139.313C203.806 139.218 203.283 139.261 202.798 139.436C202.711 139.488 202.635 139.556 202.574 139.637C202.514 139.718 202.469 139.81 202.444 139.908C202.405 140.076 202.433 140.253 202.523 140.401C202.579 140.506 202.659 140.596 202.756 140.665C202.854 140.733 202.966 140.777 203.084 140.794C203.139 140.933 203.215 141.064 203.308 141.181Z" fill="#263238"/>
<path d="M200.154 135.072C200.302 134.933 200.436 134.779 200.553 134.612C200.696 134.38 200.792 134.121 200.835 133.852C200.877 133.582 200.865 133.306 200.799 133.041C200.703 132.678 200.492 132.356 200.199 132.121C199.891 131.852 199.498 131.639 199.133 131.319C198.946 131.152 198.79 130.952 198.673 130.73C198.547 130.491 198.511 130.214 198.572 129.95C198.643 129.682 198.787 129.439 198.987 129.249C199.172 129.052 199.38 128.884 199.548 128.688C199.738 128.519 199.888 128.31 199.986 128.076C200.059 127.844 200.059 127.596 199.986 127.364C199.835 126.908 199.582 126.494 199.245 126.152C198.928 125.826 198.671 125.446 198.488 125.03C198.35 124.655 198.307 124.252 198.365 123.857C198.446 123.287 198.721 122.762 199.144 122.37C199.259 122.269 199.386 122.18 199.52 122.107L199.666 122.045C199.5 122.161 199.341 122.287 199.189 122.421C198.801 122.814 198.555 123.325 198.488 123.874C198.439 124.253 198.485 124.639 198.623 124.996C198.808 125.39 199.061 125.749 199.369 126.056C199.727 126.413 199.996 126.85 200.154 127.33C200.238 127.595 200.238 127.879 200.154 128.143C200.05 128.405 199.887 128.639 199.677 128.828C199.296 129.209 198.841 129.524 198.729 129.995C198.699 130.223 198.73 130.456 198.819 130.669C198.907 130.882 199.051 131.067 199.234 131.207C199.571 131.51 199.964 131.728 200.283 132.015C200.442 132.15 200.578 132.309 200.687 132.486C200.787 132.649 200.861 132.827 200.906 133.013C200.973 133.293 200.981 133.583 200.928 133.865C200.874 134.148 200.762 134.416 200.598 134.651C200.486 134.826 200.334 134.97 200.154 135.072Z" fill="#263238"/>
<path d="M197.698 135.072C197.844 134.932 197.975 134.778 198.091 134.612C198.238 134.381 198.335 134.123 198.378 133.852C198.42 133.582 198.407 133.306 198.338 133.041C198.246 132.676 198.035 132.352 197.738 132.121C197.429 131.852 197.036 131.639 196.677 131.319C196.488 131.153 196.332 130.953 196.217 130.73C196.089 130.491 196.051 130.214 196.111 129.95C196.186 129.684 196.329 129.442 196.526 129.249C196.717 129.052 196.919 128.884 197.087 128.688C197.273 128.517 197.421 128.309 197.519 128.076C197.596 127.845 197.596 127.595 197.519 127.364C197.368 126.908 197.115 126.494 196.778 126.152C196.461 125.825 196.203 125.445 196.015 125.03C195.877 124.655 195.835 124.252 195.892 123.857C195.973 123.285 196.25 122.759 196.677 122.37C196.79 122.266 196.917 122.177 197.053 122.107C197.098 122.078 197.147 122.057 197.199 122.045C197.033 122.161 196.874 122.287 196.722 122.421C196.334 122.815 196.086 123.325 196.015 123.874C195.966 124.254 196.014 124.64 196.156 124.996C196.341 125.39 196.594 125.749 196.902 126.056C197.258 126.415 197.527 126.851 197.687 127.33C197.771 127.595 197.771 127.879 197.687 128.143C197.581 128.404 197.418 128.638 197.21 128.828C196.829 129.209 196.369 129.524 196.257 129.995C196.228 130.223 196.259 130.455 196.347 130.668C196.436 130.881 196.579 131.066 196.762 131.207C197.098 131.51 197.496 131.728 197.811 132.015C197.971 132.15 198.109 132.309 198.22 132.486C198.315 132.652 198.389 132.829 198.439 133.013C198.504 133.293 198.51 133.583 198.456 133.865C198.403 134.147 198.292 134.415 198.13 134.651C198.021 134.823 197.873 134.967 197.698 135.072Z" fill="#263238"/>
<path d="M215.711 101.345L214.473 102.383L230.169 121.122L231.408 120.085L215.711 101.345Z" fill="#263238"/>
<path d="M217.543 98.7164L216.305 99.7539L232.001 118.493L233.24 117.456L217.543 98.7164Z" fill="#263238"/>
<path d="M232.257 120.81L230.891 119.947L215.202 144.803L216.568 145.665L232.257 120.81Z" fill="#263238"/>
<path d="M235.796 121.495L234.43 120.633L219.046 145.005L220.413 145.867L235.796 121.495Z" fill="#263238"/>
<path d="M232.338 117.691L229.875 121.023C229.574 121.429 229.432 121.932 229.477 122.435C229.521 122.939 229.749 123.409 230.117 123.756C230.426 124.046 230.818 124.235 231.238 124.296C231.659 124.357 232.088 124.288 232.467 124.098L235.783 122.415C236.073 122.272 236.325 122.064 236.52 121.807C236.715 121.55 236.847 121.251 236.905 120.934L236.939 120.732C237.005 120.363 236.969 119.983 236.835 119.634C236.702 119.284 236.476 118.977 236.182 118.745L234.498 117.405C234.34 117.275 234.158 117.179 233.961 117.123C233.765 117.068 233.559 117.053 233.356 117.079C233.154 117.106 232.959 117.174 232.784 117.279C232.609 117.385 232.457 117.525 232.338 117.691Z" fill="#263238"/>
<path d="M232.341 117.69C232.341 117.69 232.369 117.612 232.47 117.499C232.623 117.329 232.816 117.198 233.031 117.118C233.369 116.992 233.741 116.992 234.08 117.118C234.286 117.192 234.476 117.305 234.641 117.449L235.202 117.887L235.83 118.369C236.071 118.536 236.296 118.724 236.504 118.93C236.729 119.179 236.895 119.476 236.987 119.799C237.08 120.122 237.097 120.462 237.037 120.793C237 121.163 236.871 121.519 236.662 121.827C236.454 122.136 236.172 122.388 235.842 122.56L233.833 123.575L232.818 124.092C232.485 124.291 232.114 124.419 231.729 124.468C231.375 124.5 231.019 124.446 230.69 124.311C230.361 124.176 230.07 123.963 229.842 123.69C229.613 123.418 229.455 123.094 229.379 122.747C229.303 122.399 229.312 122.039 229.406 121.696C229.491 121.406 229.632 121.135 229.822 120.899L230.298 120.271L231.757 118.375C231.927 118.139 232.115 117.915 232.318 117.707C232.184 117.966 232.026 118.212 231.847 118.442L230.461 120.394C230.111 120.799 229.832 121.26 229.636 121.758C229.563 122.046 229.555 122.347 229.614 122.639C229.674 122.93 229.798 123.204 229.979 123.441C230.18 123.698 230.442 123.901 230.742 124.031C231.042 124.16 231.37 124.212 231.695 124.181C232.045 124.135 232.381 124.017 232.683 123.834L233.698 123.317L235.701 122.302C235.972 122.149 236.207 121.938 236.388 121.685C236.57 121.432 236.694 121.143 236.753 120.837C236.811 120.531 236.803 120.217 236.728 119.914C236.653 119.612 236.513 119.33 236.318 119.087C236.122 118.884 235.91 118.696 235.684 118.526C235.471 118.352 235.269 118.184 235.067 118.027L234.506 117.572C234.355 117.435 234.18 117.324 233.99 117.247C233.677 117.141 233.338 117.141 233.025 117.247C232.771 117.35 232.539 117.501 232.341 117.69Z" fill="#455A64"/>
<path d="M207.402 148.154C207.402 148.154 209.321 144.081 216.856 144.092H220.323C220.323 144.092 227.095 145.551 227.908 148.165L207.402 148.154Z" fill="#263238"/>
<path d="M212.072 97.673L213.632 103.844C213.649 103.911 213.683 103.972 213.732 104.02C213.782 104.068 213.843 104.101 213.91 104.116C213.977 104.131 214.046 104.127 214.111 104.105C214.176 104.083 214.234 104.043 214.277 103.99L218.928 99.2271C218.971 99.177 219 99.1164 219.011 99.0516C219.023 98.9868 219.017 98.9201 218.994 98.8583C218.971 98.7966 218.932 98.7421 218.881 98.7004C218.83 98.6587 218.769 98.6314 218.704 98.6211L212.488 97.2466C212.43 97.2376 212.371 97.2425 212.316 97.2609C212.261 97.2793 212.21 97.3107 212.17 97.3525C212.129 97.3942 212.099 97.4451 212.082 97.5009C212.065 97.5567 212.062 97.6157 212.072 97.673Z" fill="#263238"/>
<path d="M212.073 97.6723C212.073 97.6723 212.034 97.6275 212.04 97.5209C212.047 97.4394 212.08 97.3622 212.133 97.3C212.187 97.2377 212.258 97.1934 212.337 97.173C212.448 97.1507 212.562 97.1507 212.674 97.173L213.049 97.246L213.97 97.4311L216.41 97.9417L217.88 98.2558L218.671 98.4242C218.761 98.4342 218.848 98.466 218.923 98.5168C218.998 98.5676 219.06 98.6359 219.103 98.7159C219.148 98.8058 219.165 98.9068 219.153 99.0064C219.141 99.1061 219.1 99.2001 219.036 99.2769L216.966 101.403L214.379 104.04C214.322 104.107 214.249 104.159 214.166 104.189C214.084 104.22 213.994 104.229 213.907 104.214C213.82 104.2 213.739 104.164 213.67 104.109C213.601 104.054 213.548 103.982 213.515 103.9C213.442 103.625 213.392 103.406 213.33 103.171C213.218 102.705 213.111 102.256 213.005 101.835C212.808 101.005 212.629 100.27 212.477 99.636C212.326 99.002 212.242 98.5756 212.152 98.1941C212.101 98.0228 212.072 97.8455 212.068 97.6667C212.141 97.8294 212.199 97.9984 212.242 98.1717C212.348 98.5476 212.483 99.0188 212.64 99.5911C212.797 100.163 213.01 100.954 213.229 101.779L213.582 103.103L213.768 103.805C213.783 103.842 213.808 103.875 213.84 103.9C213.872 103.925 213.909 103.941 213.949 103.948C213.989 103.954 214.03 103.95 214.068 103.935C214.106 103.921 214.14 103.897 214.166 103.866L216.741 101.218L218.817 99.0974C218.846 99.061 218.865 99.0169 218.87 98.9703C218.874 98.9237 218.866 98.8768 218.844 98.8351C218.823 98.7935 218.79 98.759 218.749 98.7358C218.708 98.7127 218.662 98.7018 218.615 98.7047L217.83 98.5251L216.36 98.1885L213.93 97.6275L213.016 97.4031L212.646 97.3133C212.553 97.2766 212.453 97.2612 212.354 97.2684C212.289 97.2814 212.229 97.3126 212.182 97.3583C212.134 97.404 212.1 97.4623 212.085 97.5265C212.068 97.6162 212.084 97.6723 212.073 97.6723Z" fill="#455A64"/>
<path d="M207.474 115.266C210.554 111.143 212.299 106.946 212.007 102.654L206.223 97.0831C200.613 95.2149 192.898 101.1 192.898 101.1C192.898 101.1 194.812 111.479 207.474 115.266Z" fill="#263238"/>
<path d="M215.14 93.0012L215.32 93.1701C216.136 93.9355 216.615 94.9938 216.651 96.1121C216.687 97.2305 216.277 98.3174 215.512 99.1336L210.289 104.703L203.953 98.7627L209.18 93.1887C209.559 92.7847 210.014 92.4594 210.519 92.2313C211.023 92.0033 211.568 91.8769 212.121 91.8595C212.675 91.8421 213.226 91.934 213.744 92.1299C214.262 92.3258 214.737 92.6219 215.14 93.0012Z" fill="#263238"/>
<path d="M211.617 102.458C211.2 102.472 210.784 102.404 210.394 102.256C209.434 101.958 208.548 101.459 207.796 100.792C207.039 100.126 206.431 99.308 206.012 98.3908C205.82 98.0225 205.702 97.6204 205.664 97.207C205.87 97.5618 206.057 97.927 206.225 98.3011C206.677 99.1602 207.282 99.9301 208.009 100.573C208.74 101.213 209.577 101.718 210.483 102.066C211.168 102.324 211.622 102.408 211.617 102.458Z" fill="#455A64"/>
<path d="M234.34 119.688C234.34 119.791 234.31 119.892 234.252 119.978C234.195 120.063 234.114 120.13 234.018 120.17C233.923 120.209 233.818 120.22 233.717 120.2C233.616 120.179 233.523 120.13 233.45 120.057C233.377 119.984 233.327 119.891 233.307 119.79C233.287 119.688 233.297 119.583 233.337 119.488C233.376 119.393 233.443 119.311 233.529 119.254C233.615 119.197 233.715 119.166 233.819 119.166C233.887 119.166 233.955 119.18 234.018 119.206C234.082 119.232 234.139 119.27 234.188 119.319C234.236 119.367 234.274 119.425 234.301 119.488C234.327 119.551 234.34 119.619 234.34 119.688Z" fill="#455A64"/>
<path d="M215.02 101.621C215.02 101.725 214.989 101.825 214.932 101.911C214.875 101.997 214.793 102.064 214.698 102.103C214.603 102.143 214.498 102.153 214.397 102.133C214.295 102.113 214.202 102.063 214.129 101.99C214.056 101.917 214.007 101.824 213.987 101.723C213.966 101.622 213.977 101.517 214.016 101.422C214.056 101.326 214.123 101.245 214.208 101.188C214.294 101.13 214.395 101.1 214.498 101.1C214.637 101.1 214.769 101.155 214.867 101.252C214.965 101.35 215.02 101.483 215.02 101.621Z" fill="#455A64"/>
<path d="M217.001 99.5979C217.001 99.7011 216.97 99.802 216.913 99.8878C216.855 99.9736 216.774 100.041 216.678 100.08C216.583 100.119 216.478 100.13 216.377 100.11C216.276 100.09 216.183 100.04 216.11 99.9669C216.037 99.8939 215.987 99.8009 215.967 99.6997C215.947 99.5985 215.957 99.4936 215.997 99.3983C216.036 99.3029 216.103 99.2214 216.189 99.1641C216.275 99.1068 216.376 99.0762 216.479 99.0762C216.547 99.0762 216.615 99.0897 216.678 99.1159C216.742 99.1421 216.799 99.1805 216.848 99.229C216.896 99.2774 216.935 99.335 216.961 99.3983C216.987 99.4616 217.001 99.5294 217.001 99.5979Z" fill="#455A64"/>
<path d="M232.227 121.584C232.227 121.687 232.197 121.788 232.139 121.874C232.082 121.96 232 122.027 231.905 122.066C231.81 122.106 231.705 122.116 231.604 122.096C231.502 122.076 231.409 122.026 231.336 121.953C231.263 121.88 231.214 121.787 231.194 121.686C231.173 121.585 231.184 121.48 231.223 121.385C231.263 121.289 231.33 121.208 231.415 121.15C231.501 121.093 231.602 121.062 231.705 121.063C231.844 121.062 231.976 121.117 232.074 121.215C232.172 121.313 232.227 121.446 232.227 121.584Z" fill="#455A64"/>
<path d="M211.543 157.255L211.386 247.778H126.961V157.008H121.547V247.778V252.811H126.961H211.386H216.8V247.778L216.957 157.255H211.543Z" fill="#E0E0E0"/>
<path d="M211.541 157.276H216.955H216.983C216.983 169.344 216.944 203.899 216.91 252.833V252.945H216.775H121.522H121.398V252.805C121.398 226.279 121.398 197.413 121.398 167.459V156.855H127.104V157.001C127.104 189.026 127.104 219.597 127.104 247.772L126.97 247.637L211.395 247.665L211.288 247.772C211.451 191.915 211.552 158.095 211.552 157.248C211.552 158.095 211.552 191.915 211.507 247.772V247.879H211.395L126.97 247.907H126.835V247.772C126.835 219.597 126.835 189.026 126.835 157.001L126.981 157.147H121.567L121.713 157.001V167.459C121.713 197.413 121.713 226.279 121.713 252.805L121.572 252.664L216.826 252.692L216.714 252.805C216.837 203.871 216.921 169.316 216.955 157.248L216.983 157.276H211.541Z" fill="#263238"/>
<path d="M233.259 148.154H110.93V157.916H233.259V148.154Z" fill="#AE7461"/>
<path d="M141.595 147.977L141.281 148.049C141.079 148.089 140.776 148.134 140.389 148.223C139.614 148.38 138.503 148.65 137.151 149.048C135.799 149.446 134.2 149.985 132.439 150.613C130.677 151.242 128.747 151.949 126.677 152.583C124.734 153.185 122.742 153.617 120.724 153.873C119.086 154.082 117.428 154.095 115.787 153.912C114.672 153.787 113.575 153.536 112.516 153.166C112.228 153.068 111.946 152.956 111.669 152.83C111.478 152.751 111.383 152.701 111.383 152.701C111.383 152.701 111.489 152.729 111.686 152.801C111.882 152.874 112.163 152.998 112.539 153.104C113.6 153.446 114.695 153.675 115.804 153.789C117.447 153.955 119.103 153.932 120.741 153.722C122.747 153.454 124.727 153.019 126.66 152.42C128.725 151.786 130.655 151.085 132.422 150.468C134.189 149.85 135.788 149.317 137.146 148.936C138.22 148.623 139.31 148.365 140.411 148.162C140.798 148.083 141.107 148.049 141.309 148.016C141.511 147.982 141.595 147.977 141.595 147.977Z" fill="#6F4439"/>
<path d="M203.991 156.992C203.946 156.95 203.905 156.905 203.867 156.857C203.756 156.72 203.638 156.589 203.514 156.464C203.037 155.975 202.491 155.56 201.892 155.23C200.945 154.713 199.913 154.368 198.846 154.209C197.43 154.012 195.992 154.048 194.587 154.316C192.88 154.647 191.194 155.08 189.538 155.612C187.639 156.238 185.677 156.651 183.686 156.846C182.602 156.923 181.513 156.85 180.449 156.627C179.344 156.383 178.268 156.022 177.24 155.55C175.136 154.624 173.105 153.368 170.861 152.459C166.345 150.641 161.57 150.501 157.424 151.034C153.731 151.564 150.113 152.53 146.647 153.912C143.673 155.034 141.334 156.156 139.712 156.863L137.844 157.71C137.418 157.906 137.188 158.002 137.188 158.002C137.188 158.002 137.406 157.884 137.827 157.682L139.679 156.801C141.294 156.049 143.634 154.955 146.602 153.8C150.07 152.399 153.694 151.421 157.396 150.888C161.559 150.327 166.373 150.478 170.917 152.307C173.161 153.227 175.209 154.484 177.296 155.404C178.314 155.873 179.378 156.232 180.472 156.476C181.52 156.698 182.595 156.772 183.664 156.694C185.643 156.503 187.596 156.099 189.488 155.488C191.144 154.962 192.83 154.535 194.537 154.209C195.955 153.945 197.407 153.917 198.835 154.125C199.91 154.294 200.947 154.651 201.898 155.18C202.495 155.519 203.038 155.947 203.508 156.448C203.682 156.617 203.844 156.798 203.991 156.992Z" fill="#6F4439"/>
<path d="M232.549 151.174C231.256 151.68 229.926 152.085 228.571 152.386C227.942 152.532 227.252 152.683 226.506 152.79C225.76 152.897 224.952 153.009 224.105 153.104C220.418 153.435 216.702 153.162 213.103 152.296C212.278 152.083 211.493 151.892 210.78 151.646C210.068 151.399 209.394 151.174 208.794 150.944C207.496 150.449 206.24 149.852 205.035 149.16C205.126 149.191 205.215 149.231 205.299 149.278L206.045 149.631C206.365 149.794 206.763 149.985 207.234 150.192C207.706 150.4 208.233 150.636 208.839 150.843C209.445 151.051 210.096 151.309 210.819 151.522C211.543 151.735 212.323 151.949 213.142 152.156C216.721 152.994 220.41 153.259 224.071 152.942C224.913 152.852 225.715 152.784 226.461 152.65C227.207 152.515 227.892 152.403 228.52 152.268C229.149 152.134 229.71 151.982 230.203 151.853C230.697 151.724 231.118 151.606 231.455 151.494L232.246 151.247C232.344 151.213 232.445 151.189 232.549 151.174Z" fill="#6F4439"/>
<path d="M162.491 145.697H124.952C124.251 145.697 123.684 146.265 123.684 146.965V147.038C123.684 147.738 124.251 148.306 124.952 148.306H162.491C163.191 148.306 163.759 147.738 163.759 147.038V146.965C163.759 146.265 163.191 145.697 162.491 145.697Z" fill="#455A64"/>
<path d="M173.171 113.516L163.79 147.235C163.692 147.584 163.46 147.879 163.145 148.058C162.83 148.237 162.457 148.283 162.107 148.189C161.759 148.09 161.463 147.858 161.284 147.543C161.106 147.228 161.059 146.855 161.153 146.505L170.54 112.759C170.637 112.409 170.868 112.113 171.184 111.934C171.499 111.755 171.873 111.709 172.223 111.805C172.398 111.854 172.562 111.938 172.705 112.05C172.847 112.163 172.966 112.303 173.054 112.463C173.143 112.622 173.198 112.797 173.218 112.978C173.238 113.159 173.222 113.342 173.171 113.516Z" fill="#455A64"/>
<path d="M165.535 116.126C165.479 116.187 162.853 113.73 159.672 110.65C156.491 107.57 153.96 105.039 154.017 104.961C154.073 104.882 156.693 107.351 159.874 110.437C163.055 113.522 165.591 116.069 165.535 116.126Z" fill="#263238"/>
<path d="M164.256 120.16C163.935 120.067 163.622 119.948 163.319 119.806L160.823 118.757C158.708 117.87 155.773 116.664 152.536 115.391C149.299 114.117 146.314 113.017 144.165 112.232L141.596 111.273C141.28 111.174 140.972 111.05 140.676 110.902C141.003 110.962 141.324 111.05 141.635 111.166C142.247 111.357 143.128 111.643 144.21 112.013C146.382 112.748 149.361 113.82 152.626 115.099C155.891 116.378 158.797 117.618 160.884 118.549C161.934 119.021 162.775 119.408 163.353 119.671C163.665 119.813 163.967 119.976 164.256 120.16Z" fill="#263238"/>
<path d="M163.741 124.177C162.976 124.295 162.199 124.312 161.429 124.227C160.655 124.244 159.883 124.163 159.129 123.986C160.668 123.855 162.218 123.919 163.741 124.177Z" fill="#263238"/>
<path d="M232.047 236.855C232.047 236.855 229.719 220.815 229.91 211.485C230.1 202.155 229.91 191.652 229.91 191.652H230.987C230.987 191.652 230.257 210.167 231.048 221.348C231.84 232.53 233.927 236.855 233.927 236.855H232.058" fill="#263238"/>
<path d="M239.001 173.604C238.833 173.037 238.492 172.536 238.025 172.173C237.341 171.741 236.449 171.921 235.685 172.173C232.437 173.323 229.559 179.377 228.246 182.564L232.555 197.094C240.342 189.891 241.689 180.415 239.001 173.604Z" fill="#455A64"/>
<path d="M237.769 172.762C237.755 172.826 237.732 172.888 237.702 172.947C237.651 173.087 237.578 173.267 237.494 173.48C237.304 173.934 237.04 174.602 236.72 175.427C236.086 177.076 235.278 179.354 234.554 181.98C233.831 184.605 233.337 186.978 233.034 188.712C232.877 189.582 232.765 190.289 232.692 190.777C232.653 191.007 232.624 191.192 232.596 191.338C232.589 191.403 232.574 191.467 232.552 191.528C232.545 191.463 232.545 191.397 232.552 191.332C232.552 191.181 232.585 190.996 232.608 190.771C232.664 190.277 232.759 189.565 232.899 188.69C233.27 186.421 233.766 184.176 234.386 181.963C235.01 179.738 235.759 177.55 236.63 175.41C236.961 174.585 237.242 173.929 237.455 173.48C237.55 173.272 237.629 173.098 237.696 172.964C237.709 172.893 237.734 172.825 237.769 172.762Z" fill="#263238"/>
<path d="M230.637 200.596C228.674 199.479 227.03 197.876 225.866 195.94C224.702 194.004 224.055 191.801 223.989 189.543C223.832 186.323 224.825 183.159 225.947 180.129C226.015 179.857 226.176 179.617 226.402 179.45C226.587 179.38 226.788 179.358 226.985 179.388C227.181 179.417 227.367 179.497 227.524 179.618C230.458 181.301 232.242 184.483 233.185 187.725C233.867 189.877 234.094 192.147 233.852 194.391C233.482 196.749 232.36 198.925 230.654 200.596" fill="#455A64"/>
<path d="M230.64 200.595C230.632 200.529 230.632 200.463 230.64 200.398V199.837C230.64 199.349 230.64 198.648 230.578 197.784C230.464 195.526 230.213 193.278 229.826 191.051C229.383 188.448 228.839 186.12 228.435 184.437L227.958 182.439L227.834 181.878C227.816 181.816 227.804 181.752 227.801 181.688C227.83 181.744 227.853 181.805 227.868 181.867C227.907 182.013 227.958 182.187 228.025 182.428C228.154 182.894 228.339 183.55 228.558 184.409C228.99 186.092 229.557 188.42 230.006 191.029C230.39 193.255 230.624 195.504 230.707 197.761C230.707 198.625 230.707 199.327 230.707 199.815C230.707 200.039 230.707 200.224 230.707 200.376C230.694 200.451 230.671 200.525 230.64 200.595Z" fill="#263238"/>
<g opacity="0.3">
<path d="M230.637 200.596C228.674 199.479 227.03 197.876 225.866 195.94C224.702 194.004 224.055 191.801 223.989 189.543C223.832 186.323 224.825 183.159 225.947 180.129C226.015 179.857 226.176 179.617 226.402 179.45C226.587 179.38 226.788 179.358 226.985 179.388C227.181 179.417 227.367 179.497 227.524 179.618C230.458 181.301 232.242 184.483 233.185 187.725C233.867 189.877 234.094 192.147 233.852 194.391C233.482 196.749 232.36 198.925 230.654 200.596" fill="black"/>
</g>
<path d="M235.199 225.164C239.177 226.039 242.448 228.844 246.291 230.213C248.827 231.116 251.699 231.436 253.725 233.209C253.242 231.98 252.087 231.161 250.964 230.466C247.803 228.478 244.426 226.856 240.899 225.629C239.098 225.007 237.135 224.507 235.289 225.001" fill="#455A64"/>
<path d="M229.443 228.682C224.461 228.598 219.216 224.356 214.262 224.104C219.446 222.421 226.88 223.795 229.443 228.682Z" fill="#455A64"/>
<path d="M231.391 216.748C233.958 215.9 236.697 215.707 239.357 216.187C242.004 216.672 244.605 217.377 247.133 218.296C246.875 216.568 245.478 215.272 244.16 214.122C243.2 213.223 242.155 212.419 241.041 211.721C239.919 211.021 238.621 210.655 237.298 210.666C236.504 210.716 235.728 210.926 235.018 211.283C234.307 211.641 233.676 212.139 233.164 212.748C232.157 213.846 231.535 215.242 231.391 216.726" fill="#455A64"/>
<path d="M221.168 211.226C218.032 208.55 213.28 208.808 209.156 208.904C215.782 212.06 222.03 215.954 227.783 220.512C227.951 217.594 225.129 214.609 221.168 211.226Z" fill="#455A64"/>
<g opacity="0.3">
<path d="M221.168 211.228C218.032 208.552 213.28 208.81 209.156 208.906C215.782 212.062 222.03 215.956 227.783 220.513C227.951 217.596 225.129 214.611 221.168 211.228Z" fill="black"/>
</g>
<path d="M232.806 207.53C234.336 206.469 235.948 205.531 237.626 204.724C239.281 203.978 240.818 202.783 242.411 201.919C244.481 200.797 246.271 199.243 248.167 197.857C250.064 196.471 252.151 195.215 254.474 194.85C252.561 194.507 250.595 194.62 248.734 195.181C246.883 195.738 245.078 196.44 243.337 197.279C240.891 198.401 238.4 199.524 236.402 201.302C234.405 203.08 232.593 204.853 232.806 207.53Z" fill="#455A64"/>
<path d="M246.196 228.681L246.039 228.608L245.607 228.383C245.231 228.187 244.692 227.89 244.013 227.547C243.677 227.373 243.307 227.188 242.891 226.986C242.476 226.784 242.055 226.594 241.595 226.392C240.605 225.948 239.578 225.591 238.527 225.326C237.485 225.036 236.389 225.007 235.334 225.241C234.872 225.342 234.418 225.477 233.976 225.645C233.598 225.799 233.233 225.987 232.888 226.206C232.383 226.52 231.921 226.897 231.514 227.328C231.222 227.637 231.082 227.822 231.07 227.817C231.093 227.764 231.123 227.714 231.16 227.671C231.252 227.533 231.354 227.402 231.463 227.278C231.857 226.82 232.312 226.418 232.815 226.083C233.171 225.853 233.546 225.656 233.937 225.494C234.384 225.317 234.843 225.174 235.312 225.067C236.392 224.816 237.519 224.839 238.588 225.135C239.65 225.403 240.684 225.767 241.68 226.223C242.14 226.431 242.572 226.633 242.97 226.835C243.368 227.037 243.744 227.222 244.092 227.396C244.765 227.755 245.298 228.069 245.663 228.288L246.078 228.54C246.151 228.641 246.202 228.675 246.196 228.681Z" fill="#263238"/>
<path d="M225.752 226.207C225.861 226.223 225.967 226.255 226.066 226.302C226.343 226.402 226.613 226.52 226.874 226.656C227.748 227.095 228.552 227.662 229.258 228.339C229.964 229.013 230.564 229.791 231.037 230.645C231.182 230.902 231.311 231.168 231.424 231.442C231.472 231.539 231.506 231.643 231.525 231.75C231.497 231.75 231.312 231.341 230.93 230.712C229.928 229.065 228.51 227.71 226.818 226.785C226.145 226.409 225.718 226.241 225.752 226.207Z" fill="#263238"/>
<path d="M214.703 210.975C214.776 210.987 214.848 211.008 214.916 211.036L215.517 211.25L216.459 211.597C216.824 211.738 217.222 211.94 217.677 212.158C220.014 213.24 222.195 214.631 224.162 216.293C225.238 217.215 226.249 218.21 227.186 219.272C227.95 220.139 228.667 221.046 229.335 221.988C229.896 222.796 230.334 223.469 230.631 223.929L230.968 224.49C231.014 224.548 231.051 224.612 231.08 224.681C231.027 224.628 230.98 224.57 230.94 224.507C230.855 224.395 230.726 224.221 230.569 223.991C230.255 223.536 229.812 222.869 229.228 222.083C228.645 221.298 227.921 220.4 227.063 219.401C226.122 218.353 225.114 217.367 224.044 216.45C222.089 214.788 219.93 213.38 217.621 212.259C217.177 212.057 216.785 211.85 216.42 211.698L215.489 211.322L214.928 211.076C214.849 211.051 214.774 211.017 214.703 210.975Z" fill="#263238"/>
<path d="M238.869 213.943C238.735 213.942 238.601 213.925 238.471 213.893L238.011 213.808C237.837 213.775 237.63 213.775 237.4 213.752C236.218 213.647 235.031 213.88 233.977 214.426C233.401 214.728 232.875 215.118 232.417 215.581C232.041 215.957 231.706 216.373 231.419 216.821C231.158 217.239 230.929 217.676 230.734 218.128C230.747 217.995 230.782 217.864 230.835 217.741C230.959 217.396 231.119 217.065 231.312 216.754C231.587 216.285 231.92 215.853 232.305 215.469C232.763 214.982 233.3 214.577 233.893 214.269C234.975 213.706 236.2 213.482 237.411 213.623C237.641 213.657 237.854 213.668 238.028 213.713L238.488 213.825C238.619 213.853 238.746 213.892 238.869 213.943Z" fill="#263238"/>
<path d="M243.875 198.391C243.82 198.439 243.757 198.479 243.69 198.508L243.129 198.811C242.641 199.069 241.945 199.457 241.103 199.933C240.262 200.41 239.269 201.056 238.214 201.807C237.064 202.613 235.987 203.518 234.994 204.512C234.481 205.011 234.037 205.577 233.675 206.195C233.35 206.817 233.036 207.423 232.75 208.007C232.235 209.033 231.774 210.086 231.369 211.16C231.099 211.884 230.873 212.624 230.691 213.376C230.641 213.656 230.577 213.933 230.5 214.206C230.495 214.133 230.495 214.06 230.5 213.988C230.5 213.842 230.533 213.634 230.601 213.365C230.758 212.604 230.966 211.854 231.224 211.121C231.615 210.035 232.068 208.973 232.581 207.94C232.867 207.378 233.176 206.745 233.501 206.116C233.868 205.477 234.319 204.89 234.842 204.371C235.842 203.371 236.931 202.464 238.096 201.661C239.162 200.91 240.167 200.298 241.019 199.804C241.872 199.311 242.579 198.952 243.073 198.71L243.634 198.436L243.875 198.391Z" fill="#263238"/>
<path d="M229.905 213.478C229.858 213.341 229.826 213.2 229.81 213.057C229.748 212.754 229.675 212.367 229.591 211.907C229.126 209.373 228.33 206.911 227.223 204.585L226.741 203.519C226.67 203.392 226.616 203.256 226.578 203.115C226.665 203.231 226.74 203.355 226.803 203.486C226.932 203.732 227.117 204.086 227.364 204.529C227.941 205.687 228.435 206.885 228.839 208.114C229.232 209.347 229.532 210.607 229.737 211.884C229.815 212.378 229.871 212.771 229.899 213.051C229.915 213.193 229.917 213.336 229.905 213.478Z" fill="#263238"/>
<path d="M229.546 202.16C229.389 200.272 228.837 198.439 227.925 196.779C226.697 194.494 224.983 192.506 222.904 190.955C220.825 189.404 218.431 188.328 215.891 187.803L227.033 204.404L228.475 207.372C229.376 205.792 229.751 203.967 229.546 202.16Z" fill="#455A64"/>
<path d="M248.285 231.088H216.906V236.648H248.285V231.088Z" fill="#383838"/>
<path d="M219.25 235.543L223.458 252.801H242.752L245.939 235.543H219.25Z" fill="#383838"/>
<path d="M248.267 236.653C248.267 236.715 241.187 236.765 232.462 236.765C223.738 236.765 216.652 236.715 216.652 236.653C216.652 236.592 223.727 236.541 232.462 236.541C241.198 236.541 248.267 236.592 248.267 236.653Z" fill="#263238"/>
</svg>
