<svg width="80" height="81" viewBox="0 0 80 81" fill="none" xmlns="http://www.w3.org/2000/svg">
<g clip-path="url(#clip0_1258_1634)">
<path d="M14.1667 0.623053H65.8333C67.6942 0.621254 69.5372 0.995854 71.2568 1.72541C72.9763 2.45497 74.5387 3.52517 75.8546 4.87475C77.1704 6.22434 78.2139 7.82682 78.9252 9.59048C79.6365 11.3541 80.0018 13.2444 80 15.153V66.0931C80.0018 68.0017 79.6365 69.892 78.9252 71.6556C78.2139 73.4193 77.1704 75.0218 75.8546 76.3713C74.5387 77.7209 72.9763 78.7911 71.2568 79.5207C69.5372 80.2503 67.6942 80.6248 65.8333 80.623H14.1667C12.3058 80.6248 10.4628 80.2503 8.74325 79.5207C7.02368 78.7911 5.46126 77.7209 4.14541 76.3713C2.82957 75.0218 1.78613 73.4193 1.07481 71.6556C0.363487 69.892 -0.00174761 68.0017 6.28692e-06 66.0931V15.153C-0.00174761 13.2444 0.363487 11.3541 1.07481 9.59048C1.78613 7.82682 2.82957 6.22434 4.14541 4.87475C5.46126 3.52517 7.02368 2.45497 8.74325 1.72541C10.4628 0.995854 12.3058 0.621254 14.1667 0.623053Z" fill="#330000"/>
<path d="M38.7678 48.6237H26.3678L23.8344 56.6579C23.8061 56.8044 23.7255 56.9347 23.6083 57.0232C23.4911 57.1118 23.3459 57.1522 23.2011 57.1366H16.9344C16.5678 57.1366 16.4678 56.9314 16.5678 56.5212L27.3011 24.8289C27.4011 24.487 27.5011 24.1109 27.6344 23.7007C27.7686 22.9679 27.8355 22.224 27.8344 21.4784C27.8244 21.3928 27.8464 21.3065 27.8958 21.2367C27.9453 21.167 28.0186 21.119 28.1011 21.1024H36.7344C37.0011 21.1024 37.1344 21.2049 37.1678 21.3759L49.3344 56.5895C49.4344 56.9656 49.3344 57.1366 49.0011 57.1366H42.0344C41.9166 57.1482 41.7986 57.1169 41.701 57.0481C41.6035 56.9793 41.5327 56.8775 41.5011 56.7605L38.7678 48.6237ZM28.3011 41.6836H36.7678C36.5678 40.9656 36.3011 40.1109 36.0011 39.222C35.7011 38.3331 35.4011 37.3075 35.1011 36.2819C34.8011 35.2562 34.4678 34.1964 34.1344 33.1366C33.8011 32.0767 33.5011 31.0853 33.2344 30.0938C32.9678 29.1024 32.7344 28.2477 32.5011 27.4272H32.4344C32.1349 28.9172 31.7565 30.3895 31.3011 31.8374C30.8011 33.4784 30.3011 35.1878 29.7678 36.8972C29.3011 38.6408 28.8011 40.2477 28.3011 41.6836ZM56.6011 26.9485C56.054 26.9608 55.5099 26.8613 55.0006 26.6559C54.4913 26.4505 54.0269 26.1432 53.6344 25.7519C52.8707 24.8955 52.464 23.7666 52.5011 22.6066C52.4814 22.0415 52.5781 21.4784 52.7849 20.9541C52.9916 20.4298 53.3038 19.9561 53.7011 19.5639C54.5023 18.7872 55.5653 18.3584 56.6678 18.3673C57.9678 18.3673 58.9678 18.7776 59.7011 19.5639C60.4396 20.3929 60.8341 21.4843 60.8011 22.6066C60.8214 23.1843 60.7287 23.7602 60.5283 24.3004C60.3279 24.8407 60.024 25.3342 59.6344 25.7519C59.2417 26.1623 58.7676 26.4814 58.2444 26.6878C57.7211 26.8943 57.1607 26.9831 56.6011 26.9485ZM52.8678 56.6237V30.2989C52.8678 29.9571 53.0011 29.8203 53.3011 29.8203H59.9011C60.2011 29.8203 60.3344 29.9913 60.3344 30.2989V56.6237C60.3344 56.9998 60.2011 57.1707 59.9011 57.1707H53.3678C53.2977 57.1767 53.2273 57.1663 53.1617 57.1404C53.0961 57.1145 53.037 57.0737 52.989 57.0211C52.9409 56.9685 52.905 56.9054 52.884 56.8366C52.863 56.7678 52.8575 56.6951 52.8678 56.6237Z" fill="#FF9A00"/>
</g>
<defs>
<clipPath id="clip0_1258_1634">
<rect width="80" height="80" fill="white" transform="translate(0 0.623047)"/>
</clipPath>
</defs>
</svg>
