<svg width="100" height="100" viewBox="0 0 100 100" fill="none" xmlns="http://www.w3.org/2000/svg">
<path d="M72.9173 79.1663H91.6673M91.6673 79.1663L81.2506 68.7497M91.6673 79.1663L81.2506 89.583M50.0007 8.33301L39.584 18.7497L50.0007 29.1663" stroke="#383838" stroke-width="8" stroke-linecap="round" stroke-linejoin="round"/>
<path d="M43.7506 18.75C52.0387 18.75 59.9872 22.0424 65.8477 27.9029C71.7082 33.7634 75.0006 41.712 75.0006 50C75.0006 58.288 71.7082 66.2366 65.8477 72.0971C59.9872 77.9576 52.0387 81.25 43.7506 81.25H8.33398" stroke="#383838" stroke-width="8" stroke-linecap="round" stroke-linejoin="round"/>
<path d="M28.15 22.916C23.391 25.6563 19.4384 29.6028 16.6908 34.3577C13.9433 39.1126 12.4977 44.5077 12.5 49.9993C12.5 57.0327 14.825 63.5243 18.75 68.7493" stroke="#383838" stroke-width="8" stroke-linecap="round" stroke-linejoin="round"/>
</svg>
