<svg width="132" height="132" viewBox="0 0 132 132" fill="none" xmlns="http://www.w3.org/2000/svg">
<path d="M125.251 105.5H84.5663C83.5833 102.739 81.9981 100.232 79.9257 98.1592C77.8533 96.0869 75.3457 94.5017 72.5846 93.5187V72.5837H118.668C120.414 72.5837 122.088 71.8901 123.323 70.6554C124.558 69.4208 125.251 67.7463 125.251 66.0003C125.251 64.2543 124.558 62.5798 123.323 61.3452C122.088 60.1106 120.414 59.417 118.668 59.417H112.085V19.917C112.085 14.679 110.004 9.65548 106.3 5.95163C102.596 2.24779 97.5727 0.166992 92.3346 0.166992H39.668C34.4299 0.166992 29.4065 2.24779 25.7026 5.95163C21.9988 9.65548 19.918 14.679 19.918 19.917V59.417H13.3346C11.5886 59.417 9.91413 60.1106 8.67952 61.3452C7.4449 62.5798 6.7513 64.2543 6.7513 66.0003C6.7513 67.7463 7.4449 69.4208 8.67952 70.6554C9.91413 71.8901 11.5886 72.5837 13.3346 72.5837H59.418V93.5187C56.6569 94.5017 54.1493 96.0869 52.0769 98.1592C50.0045 100.232 48.4193 102.739 47.4363 105.5H6.7513C5.00529 105.5 3.3308 106.194 2.09618 107.429C0.861568 108.663 0.167969 110.338 0.167969 112.084C0.167969 113.83 0.861568 115.504 2.09618 116.739C3.3308 117.973 5.00529 118.667 6.7513 118.667H47.4363C48.8201 122.48 51.3444 125.774 54.6659 128.102C57.9874 130.43 61.9452 131.679 66.0013 131.679C70.0574 131.679 74.0152 130.43 77.3367 128.102C80.6582 125.774 83.1825 122.48 84.5663 118.667H125.251C126.997 118.667 128.672 117.973 129.906 116.739C131.141 115.504 131.835 113.83 131.835 112.084C131.835 110.338 131.141 108.663 129.906 107.429C128.672 106.194 126.997 105.5 125.251 105.5ZM33.0846 59.417V19.917C33.0846 18.171 33.7782 16.4965 35.0129 15.2619C36.2475 14.0273 37.922 13.3337 39.668 13.3337H92.3346C94.0806 13.3337 95.7551 14.0273 96.9898 15.2619C98.2244 16.4965 98.918 18.171 98.918 19.917V59.417H33.0846ZM66.0013 118.667C64.6992 118.667 63.4264 118.281 62.3438 117.558C61.2612 116.834 60.4174 115.806 59.9191 114.603C59.4208 113.4 59.2904 112.076 59.5445 110.799C59.7985 109.522 60.4255 108.349 61.3462 107.429C62.2669 106.508 63.4399 105.881 64.717 105.627C65.994 105.373 67.3177 105.503 68.5206 106.001C69.7236 106.5 70.7518 107.344 71.4751 108.426C72.1985 109.509 72.5846 110.782 72.5846 112.084C72.5846 113.83 71.891 115.504 70.6564 116.739C69.4218 117.973 67.7473 118.667 66.0013 118.667Z" fill="#383838"/>
</svg>
