<svg width="154" height="80" viewBox="0 0 154 80" fill="none" xmlns="http://www.w3.org/2000/svg">
<path d="M58.6654 31.5995L64.7987 20.9995C65.332 19.9662 64.932 18.6995 63.932 18.1662C63.4625 17.9215 62.9184 17.861 62.4066 17.9967C61.8947 18.1323 61.452 18.4543 61.1654 18.8995L54.8987 29.6995C50.1848 27.7033 45.1178 26.6747 39.9987 26.6747C34.8796 26.6747 29.8126 27.7033 25.0987 29.6995L18.832 18.8995C18.529 18.4346 18.0575 18.1053 17.5166 17.981C16.9757 17.8566 16.4077 17.9469 15.932 18.2329C14.9987 18.8329 14.6987 20.0329 15.1987 20.9995L21.332 31.5995C16.2432 34.5066 11.9427 38.6142 8.8053 43.5643C5.6679 48.5144 3.78889 54.1568 3.33203 59.9995H76.6654C76.2085 54.1568 74.3295 48.5144 71.1921 43.5643C68.0547 38.6142 63.7542 34.5066 58.6654 31.5995ZM23.332 50.8329C22.227 50.8329 21.1672 50.3939 20.3858 49.6125C19.6044 48.8311 19.1654 47.7713 19.1654 46.6662C19.1654 45.5611 19.6044 44.5013 20.3858 43.7199C21.1672 42.9385 22.227 42.4995 23.332 42.4995C24.4371 42.4995 25.4969 42.9385 26.2783 43.7199C27.0597 44.5013 27.4987 45.5611 27.4987 46.6662C27.4987 47.7713 27.0597 48.8311 26.2783 49.6125C25.4969 50.3939 24.4371 50.8329 23.332 50.8329ZM56.6654 50.8329C55.5603 50.8329 54.5005 50.3939 53.7191 49.6125C52.9377 48.8311 52.4987 47.7713 52.4987 46.6662C52.4987 45.5611 52.9377 44.5013 53.7191 43.7199C54.5005 42.9385 55.5603 42.4995 56.6654 42.4995C57.7704 42.4995 58.8302 42.9385 59.6116 43.7199C60.3931 44.5013 60.832 45.5611 60.832 46.6662C60.832 47.7713 60.3931 48.8311 59.6116 49.6125C58.8302 50.3939 57.7704 50.8329 56.6654 50.8329Z" fill="#AEAEAE"/>
<path d="M99.7955 46.2045C99.2424 46.2045 98.7405 46.1004 98.2898 45.892C97.839 45.6799 97.4811 45.375 97.2159 44.9773C96.9508 44.5758 96.8182 44.0909 96.8182 43.5227C96.8182 43.0227 96.9167 42.6174 97.1136 42.3068C97.3106 41.9924 97.5739 41.7462 97.9034 41.5682C98.233 41.3902 98.5966 41.2576 98.9943 41.1705C99.3958 41.0795 99.7992 41.0076 100.205 40.9545C100.735 40.8864 101.165 40.8352 101.494 40.8011C101.828 40.7633 102.07 40.7008 102.222 40.6136C102.377 40.5265 102.455 40.375 102.455 40.1591V40.1136C102.455 39.553 102.301 39.1174 101.994 38.8068C101.691 38.4962 101.231 38.3409 100.614 38.3409C99.9735 38.3409 99.4716 38.4811 99.108 38.7614C98.7443 39.0417 98.4886 39.3409 98.3409 39.6591L97.0682 39.2045C97.2955 38.6742 97.5985 38.2614 97.9773 37.9659C98.3598 37.6667 98.7765 37.4583 99.2273 37.3409C99.6818 37.2197 100.129 37.1591 100.568 37.1591C100.848 37.1591 101.17 37.1932 101.534 37.2614C101.902 37.3258 102.256 37.4602 102.597 37.6648C102.941 37.8693 103.227 38.178 103.455 38.5909C103.682 39.0038 103.795 39.5568 103.795 40.25V46H102.455V44.8182H102.386C102.295 45.0076 102.144 45.2102 101.932 45.4261C101.72 45.642 101.438 45.8258 101.085 45.9773C100.733 46.1288 100.303 46.2045 99.7955 46.2045ZM100 45C100.53 45 100.977 44.8958 101.341 44.6875C101.708 44.4792 101.985 44.2102 102.17 43.8807C102.36 43.5511 102.455 43.2045 102.455 42.8409V41.6136C102.398 41.6818 102.273 41.7443 102.08 41.8011C101.89 41.8542 101.67 41.9015 101.42 41.9432C101.174 41.9811 100.934 42.0152 100.699 42.0455C100.468 42.072 100.28 42.0947 100.136 42.1136C99.7879 42.1591 99.4621 42.233 99.1591 42.3352C98.8598 42.4337 98.6174 42.5833 98.4318 42.7841C98.25 42.9811 98.1591 43.25 98.1591 43.5909C98.1591 44.0568 98.3314 44.4091 98.6761 44.6477C99.0246 44.8826 99.4659 45 100 45ZM107.584 40.75V46H106.243V37.2727H107.538V38.6364H107.652C107.857 38.1932 108.167 37.8371 108.584 37.5682C109 37.2955 109.538 37.1591 110.197 37.1591C110.788 37.1591 111.305 37.2803 111.749 37.5227C112.192 37.7614 112.536 38.125 112.783 38.6136C113.029 39.0985 113.152 39.7121 113.152 40.4545V46H111.811V40.5455C111.811 39.8598 111.633 39.3258 111.277 38.9432C110.921 38.5568 110.432 38.3636 109.811 38.3636C109.383 38.3636 109 38.4564 108.663 38.642C108.33 38.8277 108.067 39.0985 107.874 39.4545C107.68 39.8106 107.584 40.2424 107.584 40.75ZM118.898 46.1818C118.17 46.1818 117.528 45.9981 116.972 45.6307C116.415 45.2595 115.979 44.7367 115.665 44.0625C115.35 43.3845 115.193 42.5833 115.193 41.6591C115.193 40.7424 115.35 39.947 115.665 39.2727C115.979 38.5985 116.417 38.0777 116.977 37.7102C117.538 37.3428 118.186 37.1591 118.92 37.1591C119.489 37.1591 119.938 37.2538 120.267 37.4432C120.6 37.6288 120.854 37.8409 121.028 38.0795C121.206 38.3144 121.345 38.5076 121.443 38.6591H121.557V34.3636H122.898V46H121.602V44.6591H121.443C121.345 44.8182 121.205 45.0189 121.023 45.2614C120.841 45.5 120.581 45.714 120.244 45.9034C119.907 46.089 119.458 46.1818 118.898 46.1818ZM119.08 44.9773C119.617 44.9773 120.072 44.8371 120.443 44.5568C120.814 44.2727 121.097 43.8807 121.29 43.3807C121.483 42.8769 121.58 42.2955 121.58 41.6364C121.58 40.9848 121.485 40.4148 121.295 39.9261C121.106 39.4337 120.826 39.0511 120.455 38.7784C120.083 38.5019 119.625 38.3636 119.08 38.3636C118.511 38.3636 118.038 38.5095 117.659 38.8011C117.284 39.089 117.002 39.4811 116.812 39.9773C116.627 40.4697 116.534 41.0227 116.534 41.6364C116.534 42.2576 116.629 42.822 116.818 43.3295C117.011 43.8333 117.295 44.2348 117.67 44.5341C118.049 44.8295 118.519 44.9773 119.08 44.9773ZM125.54 46V37.2727H126.835V38.5909H126.926C127.085 38.1591 127.373 37.8087 127.79 37.5398C128.206 37.2708 128.676 37.1364 129.199 37.1364C129.297 37.1364 129.42 37.1383 129.568 37.142C129.716 37.1458 129.828 37.1515 129.903 37.1591V38.5227C129.858 38.5114 129.754 38.4943 129.591 38.4716C129.432 38.4451 129.263 38.4318 129.085 38.4318C128.661 38.4318 128.282 38.5208 127.949 38.6989C127.619 38.8731 127.358 39.1155 127.165 39.4261C126.975 39.733 126.881 40.0833 126.881 40.4773V46H125.54ZM134.773 46.1818C133.985 46.1818 133.294 45.9943 132.699 45.6193C132.108 45.2443 131.646 44.7197 131.312 44.0455C130.983 43.3712 130.818 42.5833 130.818 41.6818C130.818 40.7727 130.983 39.9792 131.312 39.3011C131.646 38.6231 132.108 38.0966 132.699 37.7216C133.294 37.3466 133.985 37.1591 134.773 37.1591C135.561 37.1591 136.25 37.3466 136.841 37.7216C137.436 38.0966 137.898 38.6231 138.227 39.3011C138.561 39.9792 138.727 40.7727 138.727 41.6818C138.727 42.5833 138.561 43.3712 138.227 44.0455C137.898 44.7197 137.436 45.2443 136.841 45.6193C136.25 45.9943 135.561 46.1818 134.773 46.1818ZM134.773 44.9773C135.371 44.9773 135.864 44.8239 136.25 44.517C136.636 44.2102 136.922 43.8068 137.108 43.3068C137.294 42.8068 137.386 42.2652 137.386 41.6818C137.386 41.0985 137.294 40.5549 137.108 40.0511C136.922 39.5473 136.636 39.1402 136.25 38.8295C135.864 38.5189 135.371 38.3636 134.773 38.3636C134.174 38.3636 133.682 38.5189 133.295 38.8295C132.909 39.1402 132.623 39.5473 132.438 40.0511C132.252 40.5549 132.159 41.0985 132.159 41.6818C132.159 42.2652 132.252 42.8068 132.438 43.3068C132.623 43.8068 132.909 44.2102 133.295 44.517C133.682 44.8239 134.174 44.9773 134.773 44.9773ZM140.774 46V37.2727H142.115V46H140.774ZM141.456 35.8182C141.195 35.8182 140.969 35.7292 140.78 35.5511C140.594 35.3731 140.501 35.1591 140.501 34.9091C140.501 34.6591 140.594 34.4451 140.78 34.267C140.969 34.089 141.195 34 141.456 34C141.717 34 141.941 34.089 142.126 34.267C142.316 34.4451 142.411 34.6591 142.411 34.9091C142.411 35.1591 142.316 35.3731 142.126 35.5511C141.941 35.7292 141.717 35.8182 141.456 35.8182ZM147.866 46.1818C147.139 46.1818 146.497 45.9981 145.94 45.6307C145.384 45.2595 144.948 44.7367 144.634 44.0625C144.319 43.3845 144.162 42.5833 144.162 41.6591C144.162 40.7424 144.319 39.947 144.634 39.2727C144.948 38.5985 145.385 38.0777 145.946 37.7102C146.507 37.3428 147.154 37.1591 147.889 37.1591C148.457 37.1591 148.906 37.2538 149.236 37.4432C149.569 37.6288 149.823 37.8409 149.997 38.0795C150.175 38.3144 150.313 38.5076 150.412 38.6591H150.526V34.3636H151.866V46H150.571V44.6591H150.412C150.313 44.8182 150.173 45.0189 149.991 45.2614C149.81 45.5 149.55 45.714 149.213 45.9034C148.876 46.089 148.427 46.1818 147.866 46.1818ZM148.048 44.9773C148.586 44.9773 149.041 44.8371 149.412 44.5568C149.783 44.2727 150.065 43.8807 150.259 43.3807C150.452 42.8769 150.548 42.2955 150.548 41.6364C150.548 40.9848 150.454 40.4148 150.264 39.9261C150.075 39.4337 149.795 39.0511 149.423 38.7784C149.052 38.5019 148.594 38.3636 148.048 38.3636C147.48 38.3636 147.007 38.5095 146.628 38.8011C146.253 39.089 145.971 39.4811 145.781 39.9773C145.596 40.4697 145.503 41.0227 145.503 41.6364C145.503 42.2576 145.598 42.822 145.787 43.3295C145.98 43.8333 146.264 44.2348 146.639 44.5341C147.018 44.8295 147.488 44.9773 148.048 44.9773Z" fill="#AEAEAE"/>
</svg>
