<svg width="304" height="275" viewBox="0 0 304 275" fill="none" xmlns="http://www.w3.org/2000/svg">
<path d="M253.844 98.3179C256.974 97.5815 259.816 95.9332 262.01 93.5814L267.244 95.3557L269.849 90.8346L265.707 87.1894C266.638 84.1054 266.638 80.8154 265.707 77.7314L269.849 74.0863L267.244 69.5577L262.01 71.332C259.818 68.9798 256.975 67.3336 253.844 66.603L252.76 61.1836H250.146" stroke="#263238" stroke-miterlimit="10"/>
<path d="M247.518 61.1836L246.434 66.603C243.304 67.3352 240.461 68.9812 238.268 71.332L233.071 69.5577L230.466 74.0863L234.608 77.7314C233.678 80.8154 233.678 84.1055 234.608 87.1895L230.443 90.8346L233.049 95.3557L238.246 93.5814C240.441 95.9318 243.282 97.5798 246.412 98.3179L247.496 103.73H252.693L253.777 98.3179" stroke="#263238" stroke-miterlimit="10"/>
<path d="M249.813 91.1686C240.504 90.5153 238.759 76.9592 248.061 74.5762" stroke="#263238" stroke-miterlimit="10"/>
<path d="M255.684 76.4473C260.317 80.6863 258.854 88.9714 252.715 90.8422" stroke="#263238" stroke-miterlimit="10"/>
<path d="M251.23 74.3906C252.04 74.4867 252.831 74.7044 253.576 75.0365" stroke="#263238" stroke-miterlimit="10"/>
<path d="M281.58 102.438L282.679 101.124C284.725 101.685 286.892 101.63 288.907 100.968L291.372 103.633" stroke="#263238" stroke-miterlimit="10"/>
<path d="M277.518 81.8662L278.001 83.1654C276.493 84.6561 275.46 86.5599 275.031 88.6368L271.49 89.446L271.572 92.8832L275.158 93.5069C275.425 94.5268 275.84 95.5022 276.39 96.4022C276.94 97.3021 277.62 98.1152 278.409 98.8149L277.333 102.289L280.354 103.93" stroke="#263238" stroke-miterlimit="10"/>
<path d="M291.372 103.634L294.29 101.837L293.042 98.4222C294.548 96.9299 295.581 95.0268 296.012 92.9508L299.553 92.149L299.464 88.7118L295.886 88.0882C295.35 86.0363 294.219 84.1892 292.634 82.7801L293.71 79.3057L290.689 77.665L288.35 80.4564C286.307 79.888 284.141 79.9423 282.129 80.6123L279.657 77.9472L276.725 79.7437" stroke="#263238" stroke-miterlimit="10"/>
<path d="M290.933 89.5279C291.95 93.7892 287.896 97.8946 283.613 96.1648C279.53 94.5093 278.936 88.5182 282.729 86.2168" stroke="#263238" stroke-miterlimit="10"/>
<path d="M287.43 85.6973C288.284 86.0002 289.049 86.5104 289.657 87.182" stroke="#263238" stroke-miterlimit="10"/>
<path d="M52.1387 173.923L57.7214 179.498C57.4845 180.494 57.5066 181.535 57.7857 182.52C58.0648 183.505 58.5915 184.403 59.3156 185.127C60.0398 185.851 60.9373 186.378 61.9227 186.657C62.9081 186.936 63.9485 186.958 64.9449 186.721L61.4408 183.225L62.3911 179.676L65.9322 178.726L69.4363 182.23C69.6732 181.234 69.6511 180.193 69.372 179.208C69.093 178.222 68.5663 177.325 67.8421 176.601C67.1179 175.876 66.2204 175.35 65.235 175.071C64.2497 174.792 63.2092 174.77 62.2129 175.006L57.0756 169.869" stroke="#263238" stroke-miterlimit="10"/>
<path d="M48.9152 161.732L43.8001 156.617C44.0271 155.623 43.9974 154.587 43.7138 153.607C43.4301 152.627 42.9019 151.735 42.1787 151.016C41.4555 150.297 40.5612 149.773 39.58 149.494C38.5987 149.216 37.5626 149.191 36.5693 149.423L40.0734 152.927L39.1231 156.469L35.5819 157.419L32.0778 153.878C31.8432 154.875 31.8672 155.915 32.1474 156.9C32.4277 157.886 32.955 158.783 33.6792 159.507C34.4035 160.231 35.3008 160.759 36.286 161.039C37.2712 161.319 38.3117 161.343 39.3087 161.109L44.4238 166.224" stroke="#263238" stroke-miterlimit="10"/>
<path d="M54.6617 167.115L61.7961 159.98C62.1484 159.63 62.5513 159.335 62.9913 159.104L64.4241 158.362L69.6209 152.423L66.3766 149.23L60.4375 154.427L59.6951 155.86C59.469 156.303 59.1733 156.706 58.8191 157.055L53.1621 162.72" stroke="#263238" stroke-miterlimit="10"/>
<path d="M35.6712 185.801C36.1556 186.108 36.7335 186.234 37.3019 186.155C37.8703 186.076 38.3922 185.798 38.7744 185.37L51.1352 173.009C51.4304 172.744 51.6534 172.408 51.7832 172.032C51.913 171.657 51.9455 171.255 51.8776 170.864L54.0231 168.718L54.1567 168.844C54.2299 168.919 54.3172 168.978 54.4134 169.018C54.5096 169.058 54.6129 169.079 54.7172 169.079C54.8215 169.079 54.9248 169.058 55.021 169.018C55.1172 168.978 55.2045 168.919 55.2777 168.844C55.4242 168.695 55.5062 168.493 55.5062 168.284C55.5062 168.074 55.4242 167.873 55.2777 167.723L51.0461 163.492C50.8965 163.343 50.6939 163.26 50.483 163.261C50.272 163.261 50.07 163.346 49.9214 163.496C49.7727 163.645 49.6896 163.848 49.6903 164.059C49.691 164.27 49.7755 164.472 49.9251 164.62L50.0587 164.746L47.9132 166.892C47.522 166.823 47.1197 166.855 46.7443 166.985C46.369 167.115 46.0329 167.339 45.7677 167.634L33.4218 180.047C33.1376 180.3 32.9179 180.617 32.7811 180.973C32.6442 181.328 32.5941 181.71 32.6349 182.089" stroke="#263238" stroke-miterlimit="10"/>
<path d="M33.1328 183.396C33.4227 183.858 33.7666 184.284 34.1573 184.665C34.5926 185.124 35.0929 185.517 35.6421 185.831" stroke="#263238" stroke-miterlimit="10"/>
<path d="M36.9316 182.081L39.092 179.921" stroke="#263238" stroke-miterlimit="10"/>
<path d="M42.0117 177.003L51.1431 167.679" stroke="#263238" stroke-miterlimit="10"/>
<path d="M241.255 19.3271H43.334V147.909H241.255V19.3271Z" fill="white"/>
<path d="M241.255 19.3271H43.334V147.909H64.2619H97.4392H241.255V19.3271Z" fill="#BFBFBF"/>
<path d="M241.255 19.3271H43.334V36.1497H241.255V19.3271Z" fill="white"/>
<path d="M241.255 19.3271H43.334V36.1497H241.255V19.3271Z" fill="#757575"/>
<path d="M235.189 22.0068H227.617C226.543 22.0068 225.672 22.8777 225.672 23.9519V31.5243C225.672 32.5985 226.543 33.4693 227.617 33.4693H235.189C236.264 33.4693 237.134 32.5985 237.134 31.5243V23.9519C237.134 22.8777 236.264 22.0068 235.189 22.0068Z" fill="white"/>
<path d="M221.13 22.0068H213.587C212.504 22.0068 211.627 22.8843 211.627 23.9667V31.5094C211.627 32.5918 212.504 33.4693 213.587 33.4693H221.13C222.212 33.4693 223.089 32.5918 223.089 31.5094V23.9667C223.089 22.8843 222.212 22.0068 221.13 22.0068Z" fill="white"/>
<path d="M207.097 22.0068H199.525C198.451 22.0068 197.58 22.8777 197.58 23.9519V31.5243C197.58 32.5985 198.451 33.4693 199.525 33.4693H207.097C208.172 33.4693 209.043 32.5985 209.043 31.5243V23.9519C209.043 22.8777 208.172 22.0068 207.097 22.0068Z" fill="white"/>
<path d="M229.955 43.5732H54.6331C52.4928 43.5732 50.7578 45.3083 50.7578 47.4485V136.609C50.7578 138.75 52.4928 140.485 54.6331 140.485H229.955C232.096 140.485 233.831 138.75 233.831 136.609V47.4485C233.831 45.3083 232.096 43.5732 229.955 43.5732Z" fill="white" stroke="#263238" stroke-linecap="round" stroke-linejoin="round"/>
<path d="M228.945 30.1959L233.86 25.2812" stroke="#263238" stroke-linecap="round" stroke-linejoin="round"/>
<path d="M228.945 25.2812L233.86 30.1959" stroke="#263238" stroke-linecap="round" stroke-linejoin="round"/>
<path d="M220.631 26.6846H214.076V31.0127H220.631V26.6846Z" stroke="#263238" stroke-linecap="round" stroke-linejoin="round"/>
<path d="M206.585 31.0117H200.029" stroke="#263238" stroke-linecap="round" stroke-linejoin="round"/>
<path d="M222.323 109.453H209.309C208.915 109.453 208.538 109.297 208.259 109.018C207.981 108.74 207.824 108.362 207.824 107.968C207.824 107.574 207.981 107.197 208.259 106.918C208.538 106.64 208.915 106.483 209.309 106.483H222.323C222.717 106.483 223.095 106.64 223.373 106.918C223.651 107.197 223.808 107.574 223.808 107.968C223.808 108.362 223.651 108.74 223.373 109.018C223.095 109.297 222.717 109.453 222.323 109.453Z" fill="#757575"/>
<path d="M222.323 119.727H185.998C185.605 119.727 185.227 119.571 184.949 119.292C184.67 119.014 184.514 118.636 184.514 118.243C184.514 117.849 184.67 117.471 184.949 117.193C185.227 116.914 185.605 116.758 185.998 116.758H222.323C222.717 116.758 223.095 116.914 223.373 117.193C223.652 117.471 223.808 117.849 223.808 118.243C223.808 118.636 223.652 119.014 223.373 119.292C223.095 119.571 222.717 119.727 222.323 119.727Z" fill="#757575"/>
<path d="M222.323 129.995H142.293C141.9 129.995 141.522 129.839 141.243 129.56C140.965 129.282 140.809 128.904 140.809 128.51C140.809 128.116 140.965 127.739 141.243 127.46C141.522 127.182 141.9 127.025 142.293 127.025H222.323C222.717 127.025 223.094 127.182 223.373 127.46C223.651 127.739 223.808 128.116 223.808 128.51C223.808 128.904 223.651 129.282 223.373 129.56C223.094 129.839 222.717 129.995 222.323 129.995Z" fill="#757575"/>
<path d="M64.4934 99.1863H58.4281C58.0343 99.1863 57.6567 99.0299 57.3782 98.7515C57.0998 98.473 56.9434 98.0954 56.9434 97.7016C56.9434 97.3078 57.0998 96.9301 57.3782 96.6517C57.6567 96.3732 58.0343 96.2168 58.4281 96.2168H64.4934C64.8872 96.2168 65.2649 96.3732 65.5433 96.6517C65.8218 96.9301 65.9782 97.3078 65.9782 97.7016C65.9782 98.0954 65.8218 98.473 65.5433 98.7515C65.2649 99.0299 64.8872 99.1863 64.4934 99.1863Z" fill="#BFBFBF"/>
<path d="M64.4934 109.453H58.4281C58.0343 109.453 57.6567 109.297 57.3782 109.018C57.0998 108.74 56.9434 108.362 56.9434 107.968C56.9434 107.574 57.0998 107.197 57.3782 106.918C57.6567 106.64 58.0343 106.483 58.4281 106.483H64.4934C64.8872 106.483 65.2649 106.64 65.5433 106.918C65.8218 107.197 65.9782 107.574 65.9782 107.968C65.9782 108.362 65.8218 108.74 65.5433 109.018C65.2649 109.297 64.8872 109.453 64.4934 109.453Z" fill="#BFBFBF"/>
<path d="M64.4934 119.727H58.4281C58.0343 119.727 57.6567 119.571 57.3782 119.292C57.0998 119.014 56.9434 118.636 56.9434 118.243C56.9434 117.849 57.0998 117.471 57.3782 117.193C57.6567 116.914 58.0343 116.758 58.4281 116.758H64.4934C64.8872 116.758 65.2649 116.914 65.5433 117.193C65.8218 117.471 65.9782 117.849 65.9782 118.243C65.9782 118.636 65.8218 119.014 65.5433 119.292C65.2649 119.571 64.8872 119.727 64.4934 119.727Z" fill="#BFBFBF"/>
<path d="M64.4934 129.995H58.4281C58.0343 129.995 57.6567 129.839 57.3782 129.56C57.0998 129.282 56.9434 128.904 56.9434 128.51C56.9434 128.116 57.0998 127.739 57.3782 127.46C57.6567 127.182 58.0343 127.025 58.4281 127.025H64.4934C64.8872 127.025 65.2649 127.182 65.5433 127.46C65.8218 127.739 65.9782 128.116 65.9782 128.51C65.9782 128.904 65.8218 129.282 65.5433 129.56C65.2649 129.839 64.8872 129.995 64.4934 129.995Z" fill="#BFBFBF"/>
<g opacity="0.7">
<path d="M64.4934 99.1863H58.4281C58.0343 99.1863 57.6567 99.0299 57.3782 98.7515C57.0998 98.473 56.9434 98.0954 56.9434 97.7016C56.9434 97.3078 57.0998 96.9301 57.3782 96.6517C57.6567 96.3732 58.0343 96.2168 58.4281 96.2168H64.4934C64.8872 96.2168 65.2649 96.3732 65.5433 96.6517C65.8218 96.9301 65.9782 97.3078 65.9782 97.7016C65.9782 98.0954 65.8218 98.473 65.5433 98.7515C65.2649 99.0299 64.8872 99.1863 64.4934 99.1863Z" fill="#BFBFBF"/>
</g>
<g opacity="0.7">
<path d="M64.4934 109.453H58.4281C58.0343 109.453 57.6567 109.297 57.3782 109.018C57.0998 108.74 56.9434 108.362 56.9434 107.968C56.9434 107.574 57.0998 107.197 57.3782 106.918C57.6567 106.64 58.0343 106.483 58.4281 106.483H64.4934C64.8872 106.483 65.2649 106.64 65.5433 106.918C65.8218 107.197 65.9782 107.574 65.9782 107.968C65.9782 108.362 65.8218 108.74 65.5433 109.018C65.2649 109.297 64.8872 109.453 64.4934 109.453Z" fill="#BFBFBF"/>
</g>
<g opacity="0.7">
<path d="M64.4934 119.728H58.4281C58.0343 119.728 57.6567 119.572 57.3782 119.293C57.0998 119.015 56.9434 118.637 56.9434 118.244C56.9434 117.85 57.0998 117.472 57.3782 117.194C57.6567 116.915 58.0343 116.759 58.4281 116.759H64.4934C64.8872 116.759 65.2649 116.915 65.5433 117.194C65.8218 117.472 65.9782 117.85 65.9782 118.244C65.9782 118.637 65.8218 119.015 65.5433 119.293C65.2649 119.572 64.8872 119.728 64.4934 119.728Z" fill="#BFBFBF"/>
</g>
<g opacity="0.7">
<path d="M64.4934 129.995H58.4281C58.0343 129.995 57.6567 129.839 57.3782 129.56C57.0998 129.282 56.9434 128.904 56.9434 128.51C56.9434 128.116 57.0998 127.739 57.3782 127.46C57.6567 127.182 58.0343 127.025 58.4281 127.025H64.4934C64.8872 127.025 65.2649 127.182 65.5433 127.46C65.8218 127.739 65.9782 128.116 65.9782 128.51C65.9782 128.904 65.8218 129.282 65.5433 129.56C65.2649 129.839 64.8872 129.995 64.4934 129.995Z" fill="#BFBFBF"/>
</g>
<path d="M186 88.911H58.4281C58.0343 88.911 57.6567 88.7545 57.3782 88.4761C57.0998 88.1976 56.9434 87.82 56.9434 87.4262C56.9434 87.0324 57.0998 86.6547 57.3782 86.3763C57.6567 86.0978 58.0343 85.9414 58.4281 85.9414H186C186.394 85.9414 186.772 86.0978 187.05 86.3763C187.328 86.6547 187.485 87.0324 187.485 87.4262C187.485 87.82 187.328 88.1976 187.05 88.4761C186.772 88.7545 186.394 88.911 186 88.911Z" fill="#BFBFBF"/>
<path d="M222.323 68.3768H209.309C208.915 68.3768 208.538 68.2203 208.259 67.9419C207.981 67.6635 207.824 67.2858 207.824 66.892C207.824 66.4982 207.981 66.1206 208.259 65.8421C208.538 65.5637 208.915 65.4072 209.309 65.4072H222.323C222.717 65.4072 223.095 65.5637 223.373 65.8421C223.651 66.1206 223.808 66.4982 223.808 66.892C223.808 67.2858 223.651 67.6635 223.373 67.9419C223.095 68.2203 222.717 68.3768 222.323 68.3768Z" fill="#BFBFBF"/>
<path d="M203.869 68.3768H191.442C191.048 68.3768 190.67 68.2203 190.392 67.9419C190.113 67.6635 189.957 67.2858 189.957 66.892C189.957 66.4982 190.113 66.1206 190.392 65.8421C190.67 65.5637 191.048 65.4072 191.442 65.4072H203.869C204.263 65.4072 204.641 65.5637 204.919 65.8421C205.198 66.1206 205.354 66.4982 205.354 66.892C205.354 67.2858 205.198 67.6635 204.919 67.9419C204.641 68.2203 204.263 68.3768 203.869 68.3768Z" fill="#BFBFBF"/>
<path d="M186 68.3768H58.4281C58.0343 68.3768 57.6567 68.2203 57.3782 67.9419C57.0998 67.6635 56.9434 67.2858 56.9434 66.892C56.9434 66.4982 57.0998 66.1206 57.3782 65.8421C57.6567 65.5637 58.0343 65.4072 58.4281 65.4072H186C186.394 65.4072 186.772 65.5637 187.05 65.8421C187.328 66.1206 187.485 66.4982 187.485 66.892C187.485 67.2858 187.328 67.6635 187.05 67.9419C186.772 68.2203 186.394 68.3768 186 68.3768Z" fill="#BFBFBF"/>
<path d="M222.323 99.1863H209.309C208.915 99.1863 208.538 99.0299 208.259 98.7515C207.981 98.473 207.824 98.0954 207.824 97.7016C207.824 97.3078 207.981 96.9301 208.259 96.6517C208.538 96.3732 208.915 96.2168 209.309 96.2168H222.323C222.717 96.2168 223.095 96.3732 223.373 96.6517C223.651 96.9301 223.808 97.3078 223.808 97.7016C223.808 98.0954 223.651 98.473 223.373 98.7515C223.095 99.0299 222.717 99.1863 222.323 99.1863Z" fill="#999999"/>
<path d="M203.867 99.1863H71.1723C70.7785 99.1863 70.4008 99.0299 70.1224 98.7515C69.8439 98.473 69.6875 98.0954 69.6875 97.7016C69.6875 97.3078 69.8439 96.9301 70.1224 96.6517C70.4008 96.3732 70.7785 96.2168 71.1723 96.2168H203.867C204.261 96.2168 204.638 96.3732 204.917 96.6517C205.195 96.9301 205.352 97.3078 205.352 97.7016C205.352 98.0954 205.195 98.473 204.917 98.7515C204.638 99.0299 204.261 99.1863 203.867 99.1863Z" fill="#999999"/>
<path d="M109.279 109.453H71.1723C70.7785 109.453 70.4008 109.297 70.1224 109.018C69.8439 108.74 69.6875 108.362 69.6875 107.968C69.6875 107.574 69.8439 107.197 70.1224 106.918C70.4008 106.64 70.7785 106.483 71.1723 106.483H109.279C109.673 106.483 110.05 106.64 110.329 106.918C110.607 107.197 110.764 107.574 110.764 107.968C110.764 108.362 110.607 108.74 110.329 109.018C110.05 109.297 109.673 109.453 109.279 109.453Z" fill="#999999"/>
<path d="M109.279 119.727H71.1723C70.7785 119.727 70.4008 119.571 70.1224 119.292C69.8439 119.014 69.6875 118.636 69.6875 118.243C69.6875 117.849 69.8439 117.471 70.1224 117.193C70.4008 116.914 70.7785 116.758 71.1723 116.758H109.279C109.673 116.758 110.05 116.914 110.329 117.193C110.607 117.471 110.764 117.849 110.764 118.243C110.764 118.636 110.607 119.014 110.329 119.292C110.05 119.571 109.673 119.727 109.279 119.727Z" fill="#999999"/>
<path d="M109.279 129.995H71.1723C70.7785 129.995 70.4008 129.839 70.1224 129.56C69.8439 129.282 69.6875 128.904 69.6875 128.51C69.6875 128.116 69.8439 127.739 70.1224 127.46C70.4008 127.182 70.7785 127.025 71.1723 127.025H109.279C109.673 127.025 110.05 127.182 110.329 127.46C110.607 127.739 110.764 128.116 110.764 128.51C110.764 128.904 110.607 129.282 110.329 129.56C110.05 129.839 109.673 129.995 109.279 129.995Z" fill="#999999"/>
<path d="M84.2522 261.702C84.2522 261.702 80.362 268.384 81.8914 268.644C83.4207 268.903 86.6352 263.09 86.6352 263.09L95.4325 260.782L88.803 260.099L84.2522 261.702Z" fill="white" stroke="#263238" stroke-linecap="round" stroke-linejoin="round"/>
<path opacity="0.3" d="M84.2522 261.702C84.2522 261.702 80.362 268.384 81.8914 268.644C83.4207 268.903 86.6352 263.09 86.6352 263.09L95.4325 260.782L88.803 260.099L84.2522 261.702Z" fill="black" stroke="#263238" stroke-linecap="round" stroke-linejoin="round"/>
<path d="M87.2159 257.129C87.2159 257.129 81.7667 255.838 80.2671 258.391C78.7675 260.945 74.328 268.525 76.0058 269.386C77.6836 270.247 79.1016 267.456 79.1016 267.456L87.2159 257.129Z" fill="white" stroke="#263238" stroke-linecap="round" stroke-linejoin="round"/>
<path d="M109.501 264.895C105.927 266.13 102.118 266.531 98.3651 266.068L92.1662 268.131C92.1662 268.131 86.717 270.811 84.1781 269.46C81.6391 268.109 90.6368 265.125 90.6368 265.125C90.6368 265.125 96.6873 262.504 94.8833 261.873C93.0793 261.242 86.2493 261.368 84.913 262.393C83.5767 263.417 80.0504 270.091 77.4892 269.705C74.9279 269.319 78.5582 265.696 79.4713 264.301C80.3845 262.905 82.4409 257.337 86.5686 257.1C90.6962 256.862 104.661 257.582 104.661 257.582L121.06 255.83L124.928 265.162L109.501 264.895Z" fill="#FFBE9D" stroke="#FF9A6C" stroke-linecap="round" stroke-linejoin="round"/>
<path d="M118.062 267.203C118.519 267.531 119.069 267.704 119.632 267.696C120.194 267.688 120.74 267.5 121.187 267.159C121.681 267.369 122.227 267.429 122.755 267.332C123.283 267.234 123.771 266.983 124.157 266.609C125.352 265.295 125.456 253.766 122.145 252.467C121.187 252.096 118.797 252.133 118.433 253.469C118.178 253.365 117.902 253.324 117.627 253.347C117.353 253.37 117.088 253.457 116.854 253.602C116.619 253.746 116.423 253.944 116.279 254.179C116.135 254.414 116.049 254.679 116.028 254.954C115.701 257.032 117.765 258.97 117.074 264.946C117.014 265.377 117.075 265.816 117.249 266.214C117.423 266.613 117.705 266.955 118.062 267.203Z" fill="#383838" stroke="#263238" stroke-linecap="round" stroke-linejoin="round"/>
<path opacity="0.3" d="M118.062 267.203C118.519 267.531 119.069 267.704 119.632 267.696C120.194 267.688 120.74 267.5 121.187 267.159C121.681 267.369 122.227 267.429 122.755 267.332C123.283 267.234 123.771 266.983 124.157 266.609C125.352 265.295 125.456 253.766 122.145 252.467C121.187 252.096 118.797 252.133 118.433 253.469C118.178 253.365 117.902 253.324 117.627 253.347C117.353 253.37 117.088 253.457 116.854 253.602C116.619 253.746 116.423 253.944 116.279 254.179C116.135 254.414 116.049 254.679 116.028 254.954C115.701 257.032 117.765 258.97 117.074 264.946C117.014 265.377 117.075 265.816 117.249 266.214C117.423 266.613 117.705 266.955 118.062 267.203Z" fill="black" stroke="#263238" stroke-linecap="round" stroke-linejoin="round"/>
<path d="M121.847 264.494C121.843 261.353 121.175 258.249 119.887 255.385" stroke="#263238" stroke-linecap="round" stroke-linejoin="round"/>
<path d="M199.895 260.329C199.346 264.553 198.722 269.127 198.009 274.093H134.283L134.587 265.882C130.779 266.803 123.377 266.239 123.377 266.239V254.101C127.876 251.554 128.574 252.267 128.574 252.267C128.574 252.267 128.804 222.646 131.499 215.251C132.527 212.467 134.362 210.053 136.77 208.318C137.411 207.84 138.083 207.406 138.782 207.018L138.878 206.959C139.62 206.566 140.519 206.15 141.543 205.719L141.825 205.608C151.803 201.532 173.577 196.803 193.867 205.474C195.285 206.083 206.866 211.614 207.853 219.58C208.388 224.16 205.285 246.833 199.895 260.329Z" fill="#383838"/>
<mask id="mask0_1144_9663" style="mask-type:luminance" maskUnits="userSpaceOnUse" x="123" y="200" width="85" height="75">
<path d="M199.891 260.329C199.342 264.553 198.718 269.127 198.005 274.093H134.279L134.583 265.882C130.775 266.803 123.373 266.239 123.373 266.239V254.101C127.872 251.554 128.57 252.267 128.57 252.267C128.57 252.267 128.8 222.646 131.495 215.251C132.523 212.467 134.358 210.053 136.766 208.318C137.407 207.84 138.079 207.406 138.778 207.018L138.874 206.959C139.617 206.566 140.515 206.15 141.539 205.719L141.821 205.608C151.799 201.532 173.573 196.803 193.863 205.474C195.281 206.083 206.862 211.614 207.849 219.58C208.384 224.16 205.281 246.833 199.891 260.329Z" fill="white"/>
</mask>
<g mask="url(#mask0_1144_9663)">
<path opacity="0.2" d="M189.796 223.812L183.441 253.307C182.454 252.527 179.611 252.475 176.018 252.817C176.799 251.958 177.447 250.987 177.94 249.936C187.525 229.149 189.611 224.227 189.796 223.812Z" fill="black"/>
<path opacity="0.2" d="M201.408 256.217C199.861 262.089 198.724 268.063 198.008 274.093H134.281L134.868 264.635C138.84 264.071 145.811 263.492 153.049 262.208C153.604 264.472 153.662 266.83 153.22 269.12C153.22 269.12 182.529 272.757 192.366 270.389C195.172 269.713 197.711 265.794 199.886 260.396C200.413 259.082 200.918 257.679 201.408 256.217Z" fill="black"/>
<path opacity="0.3" d="M129.306 252.824C129.306 252.824 127.873 251.554 123.367 254.101V266.239C123.367 266.239 130.791 265.979 133.701 264.398C136.211 265.949 135.765 237.538 136.211 222.237C132.573 223.24 132.283 230.159 131.719 236.669C131.253 242.099 130.447 247.495 129.306 252.824Z" fill="black"/>
</g>
<path d="M199.895 260.329C199.346 264.553 198.722 269.127 198.009 274.093H134.283L134.587 265.882C130.779 266.803 123.377 266.239 123.377 266.239V254.101C127.876 251.554 128.574 252.267 128.574 252.267C128.574 252.267 128.804 222.646 131.499 215.251C132.527 212.467 134.362 210.053 136.77 208.318C137.411 207.84 138.083 207.406 138.782 207.018L138.878 206.959C139.62 206.566 140.519 206.15 141.543 205.719L141.825 205.608C151.803 201.532 173.577 196.803 193.867 205.474C195.285 206.083 206.866 211.614 207.853 219.58C208.388 224.16 205.285 246.833 199.895 260.329Z" stroke="#263238" stroke-linecap="round" stroke-linejoin="round"/>
<path d="M207.822 219.602C207.822 219.78 207.867 219.988 207.874 220.218C208.201 225.919 205.097 247.434 199.886 260.396C197.711 265.793 195.172 269.713 192.365 270.388C182.529 272.757 153.219 269.119 153.219 269.119C153.984 265.097 153.202 260.934 151.029 257.463C151.029 257.463 179.804 250.426 183.442 253.306L189.812 223.781" stroke="#263238" stroke-linecap="round" stroke-linejoin="round"/>
<path d="M185.447 254.917C187.499 255.903 189.257 257.408 190.547 259.282" stroke="#263238" stroke-linecap="round" stroke-linejoin="round"/>
<path d="M112.145 255.972C112.145 255.972 109.457 255.407 108.366 256.632C107.274 257.857 102.597 264.88 104.179 266.216C105.76 267.553 108.975 260.211 108.975 260.211L112.145 255.972Z" fill="#FFBE9D" stroke="#FF9A6C" stroke-linecap="round" stroke-linejoin="round"/>
<path d="M117.534 255.845C117.534 255.845 111.595 254.568 110.236 256.387C108.878 258.206 101.387 267.619 106.064 267.916L113.488 259.542L117.534 255.845Z" fill="#FFBE9D" stroke="#FF9A6C" stroke-linecap="round" stroke-linejoin="round"/>
<path d="M131 265.852C131 265.852 124.876 267.188 122.389 267.678C119.902 268.168 115.284 271.39 112.552 270.106C109.82 268.821 121.461 264.092 121.461 264.092L125.47 262.481L131 265.852Z" fill="#FF9A6C" stroke="#FF9A6C" stroke-linecap="round" stroke-linejoin="round"/>
<path d="M135.961 229.208C136.05 226.885 136.132 224.561 136.221 222.237" stroke="#263238" stroke-linecap="round" stroke-linejoin="round"/>
<path d="M134.283 274.092C135.419 260.039 135.842 232.37 135.842 232.37" stroke="#263238" stroke-linecap="round" stroke-linejoin="round"/>
<path d="M153.235 258.272H132.099C132.099 258.272 115.707 253.35 112.982 257.173C110.258 260.997 104.423 266.824 106.063 267.916C107.704 269.007 114.63 261.093 114.63 261.093L120.644 261.145C120.644 261.145 115.544 263.372 114.452 264.456C113.361 265.54 110.993 268.643 112.225 269.193C113.458 269.742 117.511 265.733 117.511 265.733C117.511 265.733 123.517 264.248 124.972 264.991C129.641 267.38 135.042 267.911 140.087 266.476L156.204 268.48L153.235 258.272Z" fill="#FFBE9D" stroke="#FF9A6C" stroke-linecap="round" stroke-linejoin="round"/>
<path d="M187.609 234.004C187.026 230.623 187.004 227.169 187.542 223.781" stroke="#263238" stroke-linecap="round" stroke-linejoin="round"/>
<path d="M192.395 216.298C192.395 216.298 202.639 202.801 207.821 219.601" stroke="#263238" stroke-linecap="round" stroke-linejoin="round"/>
<path d="M148.885 256.602C149.247 256.171 149.738 255.866 150.285 255.733C150.832 255.599 151.408 255.644 151.928 255.859C152.354 255.531 152.868 255.336 153.404 255.299C153.94 255.262 154.476 255.385 154.943 255.652C156.427 256.631 159.397 267.767 156.509 269.853C155.678 270.447 153.354 271.004 152.641 269.809C152.418 269.973 152.16 270.082 151.887 270.127C151.614 270.173 151.334 270.153 151.07 270.07C150.806 269.987 150.565 269.842 150.367 269.649C150.169 269.455 150.02 269.217 149.931 268.955C149.1 267.018 150.622 264.634 148.447 259.015C148.293 258.611 148.252 258.172 148.329 257.747C148.406 257.322 148.598 256.926 148.885 256.602Z" fill="#383838"/>
<mask id="mask1_1144_9663" style="mask-type:luminance" maskUnits="userSpaceOnUse" x="148" y="255" width="10" height="16">
<path d="M148.889 256.602C149.251 256.171 149.742 255.866 150.289 255.733C150.836 255.599 151.412 255.644 151.932 255.859C152.358 255.531 152.872 255.336 153.408 255.299C153.944 255.262 154.48 255.385 154.946 255.652C156.431 256.631 159.401 267.767 156.513 269.853C155.681 270.447 153.358 271.004 152.645 269.809C152.422 269.973 152.164 270.082 151.891 270.127C151.617 270.173 151.338 270.153 151.073 270.07C150.809 269.987 150.569 269.842 150.371 269.649C150.173 269.455 150.024 269.217 149.935 268.955C149.104 267.018 150.626 264.634 148.451 259.015C148.296 258.611 148.256 258.172 148.333 257.747C148.41 257.322 148.602 256.926 148.889 256.602Z" fill="white"/>
</mask>
<g mask="url(#mask1_1144_9663)">
<path opacity="0.3" d="M148.889 256.602C149.251 256.171 149.742 255.866 150.289 255.733C150.836 255.599 151.412 255.644 151.932 255.859C152.358 255.531 152.872 255.336 153.408 255.299C153.944 255.262 154.48 255.385 154.946 255.652C156.431 256.631 159.401 267.767 156.513 269.853C155.681 270.447 153.358 271.004 152.645 269.809C152.422 269.973 152.164 270.082 151.891 270.127C151.617 270.173 151.338 270.153 151.073 270.07C150.809 269.987 150.569 269.842 150.371 269.649C150.173 269.455 150.024 269.217 149.935 268.955C149.104 267.018 150.626 264.634 148.451 259.015C148.296 258.611 148.256 258.172 148.333 257.747C148.41 257.322 148.602 256.926 148.889 256.602Z" fill="black"/>
</g>
<path d="M148.885 256.602C149.247 256.171 149.738 255.866 150.285 255.733C150.832 255.599 151.408 255.644 151.928 255.859C152.354 255.531 152.868 255.336 153.404 255.299C153.94 255.262 154.476 255.385 154.943 255.652C156.427 256.631 159.397 267.767 156.509 269.853C155.678 270.447 153.354 271.004 152.641 269.809C152.418 269.973 152.16 270.082 151.887 270.127C151.614 270.173 151.334 270.153 151.07 270.07C150.806 269.987 150.565 269.842 150.367 269.649C150.169 269.455 150.02 269.217 149.931 268.955C149.1 267.018 150.622 264.634 148.447 259.015C148.293 258.611 148.252 258.172 148.329 257.747C148.406 257.322 148.598 256.926 148.885 256.602Z" stroke="#263238" stroke-linecap="round" stroke-linejoin="round"/>
<path d="M153.576 262.386C153.838 264.107 153.858 265.856 153.636 267.582" stroke="#263238" stroke-linecap="round" stroke-linejoin="round"/>
<path d="M162.887 229.045C162.872 229.331 162.773 229.606 162.601 229.835C162.43 230.065 162.194 230.238 161.924 230.333C161.654 230.429 161.361 230.442 161.084 230.371C160.806 230.3 160.556 230.148 160.364 229.935C160.173 229.722 160.049 229.457 160.009 229.173C159.968 228.89 160.013 228.6 160.136 228.342C160.26 228.084 160.458 227.868 160.705 227.722C160.951 227.576 161.235 227.507 161.521 227.523C161.901 227.553 162.254 227.728 162.508 228.011C162.762 228.294 162.898 228.664 162.887 229.045Z" fill="white" stroke="#263238" stroke-linecap="round" stroke-linejoin="round"/>
<path d="M161.817 251.465C161.799 251.749 161.697 252.021 161.525 252.247C161.353 252.473 161.117 252.643 160.848 252.736C160.58 252.828 160.289 252.839 160.014 252.767C159.739 252.695 159.492 252.543 159.303 252.33C159.114 252.118 158.992 251.854 158.953 251.572C158.914 251.291 158.959 251.004 159.083 250.748C159.206 250.492 159.403 250.278 159.648 250.134C159.892 249.989 160.175 249.92 160.458 249.936C160.841 249.959 161.199 250.133 161.454 250.419C161.709 250.706 161.839 251.082 161.817 251.465Z" fill="white" stroke="#263238" stroke-linecap="round" stroke-linejoin="round"/>
<path d="M175.075 201.591L174.021 186.632L158.535 190.255L157.689 202.229C156.716 202.348 155.788 202.489 154.875 202.623L158.661 211.702L166.085 212.675L177.919 201.769C176.991 201.695 176.011 201.635 175.075 201.591Z" fill="white"/>
<mask id="mask2_1144_9663" style="mask-type:luminance" maskUnits="userSpaceOnUse" x="154" y="186" width="24" height="27">
<path d="M175.077 201.591L174.023 186.632L158.537 190.255L157.691 202.229C156.718 202.348 155.79 202.489 154.877 202.623L158.663 211.702L166.087 212.675L177.921 201.769C176.993 201.695 176.013 201.635 175.077 201.591Z" fill="white"/>
</mask>
<g mask="url(#mask2_1144_9663)">
<path d="M158.305 195.511C158.409 206.157 170.844 202.89 174.288 192.259L174.014 186.632L158.535 190.255L158.305 195.511Z" fill="#263238"/>
</g>
<path d="M175.075 201.591L174.021 186.632L158.535 190.255L157.689 202.229C156.716 202.348 155.788 202.489 154.875 202.623L158.661 211.702L166.085 212.675L177.919 201.769C176.991 201.695 176.011 201.635 175.075 201.591Z" fill="#FFBE9D"/>
<path d="M148.826 174.003C148.826 174.003 143.169 164.219 142.337 159.059C139.746 143.12 151.246 148.495 151.246 148.495C151.246 148.495 159.412 141.212 169.516 142.489C179.62 143.766 182.322 148.079 189.145 150.73C189.145 150.73 184.022 176.713 177.467 182.548C170.912 188.384 148.826 174.003 148.826 174.003Z" fill="#263238" stroke="#263238" stroke-linecap="round" stroke-linejoin="round"/>
<path d="M151.804 150.864C151.804 150.864 149.257 144.672 155.716 139.943" stroke="#263238" stroke-linecap="round" stroke-linejoin="round"/>
<path d="M162.924 147.145C170.489 143.804 173.867 149.372 182.308 150.857" stroke="#BFBFBF" stroke-miterlimit="10"/>
<path d="M157.08 150.864C157.768 149.999 158.599 149.258 159.537 148.674" stroke="#BFBFBF" stroke-miterlimit="10"/>
<path d="M164.846 153.291C164.846 153.291 168.12 150.151 174.616 154.234C176.576 155.524 178.783 156.394 181.097 156.788" stroke="#BFBFBF" stroke-miterlimit="10"/>
<path d="M174.854 160.092C165.44 160.337 155.715 156.083 155.715 156.083C146.94 161.376 148.247 169.981 148.247 169.981C150.251 190.545 152.961 196.023 162.567 196.023C172.174 196.023 179.984 185.63 180.615 170.819C176.992 170.99 174.854 160.092 174.854 160.092Z" fill="#FFBE9D"/>
<path d="M179.805 169.98C180.021 169.661 180.307 169.397 180.642 169.207C180.977 169.018 181.351 168.909 181.735 168.889C183.443 168.889 184.705 171.116 184.104 173.9C183.502 176.684 182.715 178.903 181.008 178.903C180.618 178.889 180.241 178.757 179.928 178.523C179.615 178.29 179.381 177.967 179.256 177.597" fill="#FFBE9D"/>
<path d="M179.805 169.98C180.021 169.661 180.307 169.397 180.642 169.207C180.977 169.018 181.351 168.909 181.735 168.889C183.443 168.889 184.705 171.116 184.104 173.9C183.502 176.684 182.715 178.903 181.008 178.903C180.618 178.889 180.241 178.757 179.928 178.523C179.615 178.29 179.381 177.967 179.256 177.597" stroke="#263238" stroke-linecap="round" stroke-linejoin="round"/>
<path d="M161.089 180.077C161.089 180.077 162.24 181.651 160.035 182.831C157.83 184.012 156.078 183.989 155.514 182.638C154.95 181.287 157.4 170.018 157.4 170.018" stroke="#263238" stroke-linecap="round" stroke-linejoin="round"/>
<path d="M157.029 171.821C155.841 171.22 151.09 169.141 146.576 171.977L146.866 176.343C146.866 176.343 148.529 177.256 152.345 177.256C153.593 177.279 154.839 177.149 156.056 176.87" stroke="#263238" stroke-linecap="round" stroke-linejoin="round"/>
<path d="M160.971 171.977L162.352 176.528C162.352 176.528 162.916 177.271 166.739 177.271C170.562 177.271 171.817 176.358 171.817 176.358L171.706 171.992C171.706 171.992 166.16 168.726 160.971 171.977Z" stroke="#263238" stroke-linecap="round" stroke-linejoin="round"/>
<path d="M157.334 171.978H160.972" stroke="#263238" stroke-linecap="round" stroke-linejoin="round"/>
<path d="M158.105 186.959C160.093 187.525 162.207 187.46 164.156 186.773C165.656 186.207 166.962 185.223 167.92 183.938" stroke="#263238" stroke-linecap="round" stroke-linejoin="round"/>
<path d="M164.154 167.672C168.928 165.704 171.036 168.065 171.036 168.065" stroke="#263238" stroke-linecap="round" stroke-linejoin="round"/>
<path d="M151.557 167.479C152.377 167.086 153.291 166.933 154.195 167.036C155.098 167.14 155.954 167.497 156.664 168.065" stroke="#263238" stroke-linecap="round" stroke-linejoin="round"/>
<path d="M166.056 170.99C166.501 170.99 166.798 171.733 166.798 172.601C166.798 173.47 166.427 174.205 165.996 174.205C165.566 174.205 165.254 173.462 165.254 172.601C165.254 171.74 165.618 170.99 166.056 170.99Z" fill="#263238"/>
<path d="M154.2 170.789C154.638 170.789 154.943 171.531 154.943 172.4C154.943 173.269 154.571 174.004 154.141 174.004C153.71 174.004 153.398 173.261 153.398 172.4C153.398 171.539 153.77 170.789 154.2 170.789Z" fill="#263238"/>
<path d="M146.287 162.594C146.44 163.47 146.689 164.326 147.029 165.148" stroke="#BFBFBF" stroke-miterlimit="10"/>
<path d="M151.98 152.787C147.288 151.525 145.432 154.346 145.781 158.8" stroke="#BFBFBF" stroke-miterlimit="10"/>
<path d="M156.946 201.531L162.663 211.821L176.389 200.989L180.614 201.583L171.705 217.285C171.624 217.426 171.515 217.55 171.385 217.648C171.255 217.746 171.107 217.817 170.949 217.857C170.791 217.896 170.626 217.903 170.465 217.878C170.304 217.852 170.15 217.794 170.012 217.708L162.418 212.912L156.479 216.535C156.305 216.641 156.107 216.702 155.904 216.711C155.701 216.721 155.498 216.679 155.315 216.589C155.132 216.499 154.975 216.365 154.858 216.199C154.741 216.032 154.668 215.839 154.645 215.637L153.16 202.229L156.946 201.531Z" fill="#383838"/>
<mask id="mask3_1144_9663" style="mask-type:luminance" maskUnits="userSpaceOnUse" x="153" y="200" width="28" height="18">
<path d="M156.946 201.531L162.663 211.821L176.389 200.989L180.614 201.583L171.705 217.285C171.624 217.426 171.515 217.55 171.385 217.648C171.255 217.746 171.107 217.817 170.949 217.857C170.791 217.896 170.626 217.903 170.465 217.878C170.304 217.852 170.15 217.794 170.012 217.708L162.418 212.912L156.479 216.535C156.305 216.641 156.107 216.702 155.904 216.711C155.701 216.721 155.498 216.679 155.315 216.589C155.132 216.499 154.975 216.365 154.858 216.199C154.741 216.032 154.668 215.839 154.645 215.637L153.16 202.229L156.946 201.531Z" fill="white"/>
</mask>
<g mask="url(#mask3_1144_9663)">
<path opacity="0.3" d="M156.443 201.464L162.664 211.82L176.636 200.796L180.838 201.464L171.728 217.284C171.647 217.426 171.539 217.549 171.409 217.647C171.279 217.746 171.13 217.817 170.972 217.856C170.814 217.896 170.65 217.903 170.489 217.877C170.328 217.852 170.174 217.794 170.036 217.707L162.441 212.912L156.502 216.535C156.328 216.641 156.131 216.701 155.927 216.711C155.724 216.72 155.521 216.678 155.339 216.589C155.156 216.499 154.999 216.365 154.881 216.198C154.764 216.032 154.691 215.839 154.668 215.636L153.184 202.229L156.443 201.464Z" fill="black"/>
</g>
<path d="M156.946 201.531L162.663 211.821L176.389 200.989L180.614 201.583L171.705 217.285C171.624 217.426 171.515 217.55 171.385 217.648C171.255 217.746 171.107 217.817 170.949 217.857C170.791 217.896 170.626 217.903 170.465 217.878C170.304 217.852 170.15 217.794 170.012 217.708L162.418 212.912L156.479 216.535C156.305 216.641 156.107 216.702 155.904 216.711C155.701 216.721 155.498 216.679 155.315 216.589C155.132 216.499 154.975 216.365 154.858 216.199C154.741 216.032 154.668 215.839 154.645 215.637L153.16 202.229L156.946 201.531Z" stroke="#263238" stroke-linecap="round" stroke-linejoin="round"/>
<path d="M71.8324 269.118H109.16V274.092H71.8324C71.4386 274.092 71.061 273.936 70.7825 273.657C70.5041 273.379 70.3477 273.001 70.3477 272.607V270.581C70.3535 270.191 70.5125 269.819 70.7903 269.545C71.0681 269.271 71.4425 269.118 71.8324 269.118Z" fill="#263238" stroke="#263238" stroke-linecap="round" stroke-linejoin="round"/>
<path d="M141.276 274.092H109.16V269.118L141.358 271.234C141.615 271.253 141.856 271.368 142.032 271.556C142.208 271.745 142.307 271.993 142.308 272.251V273.075C142.308 273.21 142.281 273.343 142.229 273.468C142.177 273.592 142.101 273.705 142.005 273.8C141.909 273.894 141.795 273.969 141.67 274.019C141.545 274.069 141.411 274.094 141.276 274.092Z" fill="#383838" stroke="#263238" stroke-linecap="round" stroke-linejoin="round"/>
<path d="M171.729 172.712L179.806 169.98L178.848 171.191" stroke="#263238" stroke-linecap="round" stroke-linejoin="round"/>
<path d="M223.465 182.007C223.465 182.007 214.163 153.603 237.57 151.614C260.978 149.624 263.717 171.421 265.863 182.349C267.54 190.894 283.517 206.521 271.148 218.184C258.246 230.366 226.813 226.298 225.002 208.986C223.19 191.673 224.831 188.124 223.465 182.007Z" fill="#263238" stroke="#263238" stroke-linecap="round" stroke-linejoin="round"/>
<path d="M250.755 186.543C250.755 186.543 249.738 199.164 256.234 209.965C256.234 209.965 247.481 212.824 238.349 210.106C238.728 206.763 238.542 203.38 237.8 200.099L237.488 198.726L244.125 192.987L250.755 186.543Z" fill="white"/>
<mask id="mask4_1144_9663" style="mask-type:luminance" maskUnits="userSpaceOnUse" x="237" y="186" width="20" height="26">
<path d="M250.755 186.542C250.755 186.542 249.738 199.163 256.234 209.964C256.234 209.964 247.481 212.823 238.349 210.105C238.728 206.762 238.542 203.379 237.8 200.098L237.488 198.725L244.125 192.986L250.755 186.542Z" fill="white"/>
</mask>
<g mask="url(#mask4_1144_9663)">
<path d="M234.689 196.023C235.9 202.801 237.006 204.279 242.752 203.068C247.006 202.17 250.636 195.786 250.844 191.146C250.635 189.039 250.533 186.923 250.539 184.806L244.125 192.972L234.689 196.023Z" fill="#263238"/>
</g>
<path d="M250.755 186.543C250.755 186.543 249.738 199.164 256.234 209.965C256.234 209.965 247.481 212.824 238.349 210.106C238.728 206.763 238.542 203.38 237.8 200.099L237.488 198.726L244.125 192.987L250.755 186.543Z" fill="#FFBE9D" stroke="#263238" stroke-linecap="round" stroke-linejoin="round"/>
<path d="M185.626 258.606C185.626 258.606 172.672 252.667 171.944 257.582C171.216 262.496 174.386 270.084 186.25 266.349L211.142 269.631C211.142 269.631 215.403 261.145 210.853 256.52C210.845 256.52 188.915 259.928 185.626 258.606Z" fill="#FFBE9D" stroke="#263238" stroke-linecap="round" stroke-linejoin="round"/>
<path d="M165.663 263.922C165.663 263.922 163.614 264.583 163.31 265.941C163.005 267.3 162.344 269.223 163.131 269.23C163.918 269.237 164.876 266.528 164.876 266.528L166.873 266.008L165.663 263.922Z" fill="#FFBE9D" stroke="#FF9A6C" stroke-linecap="round" stroke-linejoin="round"/>
<path d="M179.233 251.028L165.766 252.438L167.775 271.621L181.242 270.21L179.233 251.028Z" fill="white" stroke="#263238" stroke-linecap="round" stroke-linejoin="round"/>
<path d="M165.76 252.437L163.752 252.647L165.761 271.83L167.77 271.619L165.76 252.437Z" fill="#383838" stroke="#263238" stroke-linecap="round" stroke-linejoin="round"/>
<path d="M175.612 248.25C174.842 248.34 174.138 248.727 173.65 249.329C173.161 249.931 172.928 250.7 172.999 251.472C173.01 251.54 173.025 251.607 173.043 251.673L173.719 251.606L174.461 251.532C174.445 251.463 174.432 251.394 174.424 251.324C174.395 251.058 174.437 250.789 174.545 250.544C174.654 250.3 174.824 250.088 175.04 249.93C175.256 249.773 175.51 249.675 175.776 249.647C176.042 249.618 176.311 249.661 176.555 249.769C176.8 249.878 177.011 250.049 177.169 250.265C177.326 250.482 177.423 250.736 177.451 251.002C177.479 251.268 177.436 251.536 177.327 251.781C177.218 252.025 177.046 252.236 176.83 252.393C176.916 252.632 177.069 252.841 177.27 252.996C177.471 253.151 177.712 253.246 177.965 253.269C178.405 252.847 178.702 252.298 178.814 251.698C178.926 251.099 178.849 250.48 178.592 249.927C178.335 249.374 177.912 248.916 177.382 248.615C176.852 248.314 176.241 248.187 175.634 248.25H175.612Z" fill="white" stroke="#263238" stroke-linecap="round" stroke-linejoin="round"/>
<path d="M168.299 256.417L172.939 255.927" stroke="#263238" stroke-linecap="round" stroke-linejoin="round"/>
<path d="M168.521 258.525L177.527 257.582" stroke="#263238" stroke-linecap="round" stroke-linejoin="round"/>
<path d="M168.744 260.641L173.25 260.173" stroke="#263238" stroke-linecap="round" stroke-linejoin="round"/>
<path d="M168.967 262.757L176.487 261.97" stroke="#263238" stroke-linecap="round" stroke-linejoin="round"/>
<path d="M169.189 264.873L173.688 264.397" stroke="#263238" stroke-linecap="round" stroke-linejoin="round"/>
<path d="M169.412 266.981L179.286 265.949" stroke="#263238" stroke-linecap="round" stroke-linejoin="round"/>
<path d="M169.629 269.097L174.269 268.614" stroke="#263238" stroke-linecap="round" stroke-linejoin="round"/>
<path d="M173.116 248.51C172.348 248.602 171.645 248.99 171.159 249.591C170.672 250.193 170.439 250.961 170.511 251.732C170.519 251.802 170.532 251.871 170.548 251.94L171.231 251.866L171.973 251.791C171.951 251.724 171.936 251.654 171.929 251.584C171.914 251.195 172.047 250.816 172.302 250.522C172.557 250.229 172.914 250.044 173.301 250.004C173.687 249.964 174.074 250.073 174.384 250.309C174.693 250.544 174.901 250.889 174.965 251.272C174.994 251.537 174.95 251.806 174.839 252.049C174.728 252.292 174.554 252.5 174.334 252.653C174.42 252.891 174.573 253.101 174.774 253.256C174.976 253.411 175.217 253.506 175.47 253.529C175.909 253.106 176.206 252.557 176.318 251.958C176.431 251.359 176.353 250.74 176.096 250.187C175.84 249.634 175.416 249.175 174.886 248.875C174.356 248.574 173.745 248.447 173.139 248.51H173.116Z" fill="white" stroke="#263238" stroke-linecap="round" stroke-linejoin="round"/>
<path d="M170.622 248.77C169.854 248.862 169.151 249.25 168.665 249.851C168.178 250.453 167.945 251.221 168.017 251.992C168.017 252.066 168.017 252.126 168.017 252.2L168.699 252.126L169.442 252.051C169.424 251.985 169.409 251.918 169.397 251.851C169.367 251.583 169.408 251.312 169.516 251.066C169.624 250.819 169.795 250.605 170.012 250.446C170.229 250.286 170.484 250.187 170.752 250.158C171.02 250.129 171.29 250.171 171.536 250.28C171.783 250.389 171.996 250.562 172.154 250.779C172.312 250.997 172.41 251.253 172.438 251.521C172.466 251.789 172.422 252.059 172.312 252.305C172.202 252.55 172.029 252.763 171.81 252.92C171.894 253.158 172.045 253.367 172.246 253.521C172.446 253.676 172.687 253.768 172.939 253.789C173.263 253.484 173.513 253.108 173.667 252.691C173.822 252.273 173.877 251.826 173.829 251.383C173.74 250.616 173.355 249.914 172.756 249.426C172.157 248.938 171.392 248.703 170.622 248.77Z" fill="white" stroke="#263238" stroke-linecap="round" stroke-linejoin="round"/>
<path d="M168.136 249.03C167.366 249.12 166.661 249.507 166.173 250.109C165.685 250.711 165.451 251.48 165.522 252.252C165.533 252.322 165.548 252.392 165.567 252.46L166.242 252.386L166.985 252.312C166.969 252.246 166.956 252.179 166.948 252.111C166.919 251.845 166.961 251.576 167.069 251.332C167.177 251.087 167.348 250.875 167.564 250.718C167.78 250.56 168.034 250.462 168.3 250.434C168.566 250.406 168.834 250.448 169.079 250.557C169.323 250.665 169.535 250.836 169.692 251.053C169.849 251.269 169.947 251.523 169.974 251.789C170.002 252.055 169.959 252.324 169.85 252.568C169.741 252.812 169.57 253.023 169.353 253.18C169.44 253.418 169.593 253.626 169.794 253.78C169.995 253.934 170.236 254.027 170.489 254.049C170.811 253.742 171.058 253.366 171.213 252.949C171.367 252.532 171.424 252.086 171.38 251.643C171.29 250.869 170.9 250.161 170.293 249.673C169.686 249.184 168.911 248.953 168.136 249.03Z" fill="white" stroke="#263238" stroke-linecap="round" stroke-linejoin="round"/>
<path d="M164.43 252.371C164.399 252.102 164.439 251.831 164.547 251.583C164.654 251.336 164.826 251.121 165.043 250.961C165.26 250.802 165.516 250.702 165.784 250.673C166.053 250.644 166.324 250.686 166.57 250.796C166.817 250.905 167.03 251.078 167.188 251.297C167.347 251.516 167.444 251.772 167.471 252.041C167.498 252.309 167.453 252.58 167.342 252.826C167.23 253.071 167.056 253.283 166.836 253.44C166.922 253.678 167.075 253.886 167.277 254.04C167.478 254.194 167.719 254.287 167.971 254.308C168.393 253.904 168.684 253.383 168.808 252.813C168.931 252.242 168.88 251.647 168.663 251.105C168.445 250.564 168.07 250.099 167.587 249.772C167.103 249.445 166.532 249.271 165.948 249.271C165.365 249.271 164.794 249.445 164.31 249.772C163.826 250.099 163.452 250.564 163.234 251.105C163.017 251.647 162.966 252.242 163.089 252.813C163.212 253.383 163.504 253.904 163.925 254.308L163.755 252.638L164.497 252.564C164.468 252.502 164.446 252.437 164.43 252.371Z" fill="white" stroke="#263238" stroke-linecap="round" stroke-linejoin="round"/>
<path d="M162.196 257.813C162.322 258.093 162.469 258.363 162.634 258.622C162.491 259.133 162.465 259.67 162.557 260.194C162.65 260.717 162.859 261.212 163.169 261.643C163.169 261.643 163.228 263.759 163.978 264.093C164.728 264.427 165.923 264.836 165.901 264.242C165.878 263.648 165.529 261.874 164.178 261.48C164.178 261.48 165.73 261.784 165.559 260.923C165.388 260.062 165.091 258.815 164.141 258.459L163.629 258.236C163.629 258.236 164.861 258.459 164.757 257.531C164.653 256.603 164.55 255.511 163.844 255.251C163.681 255.192 163.495 255.14 163.302 255.088C162.263 254.843 161.595 256.476 162.196 257.813Z" fill="#FFBE9D" stroke="#FF9A6C" stroke-linecap="round" stroke-linejoin="round"/>
<path d="M184.17 258.443C184.17 258.443 182.722 255.236 180.354 253.565C177.985 251.895 177.095 248.643 176.129 249.43C175.164 250.217 176.04 253.669 177.54 254.85C179.04 256.03 177.362 258.666 181.051 261.917" fill="#FFBE9D"/>
<path d="M184.17 258.443C184.17 258.443 182.722 255.236 180.354 253.565C177.985 251.895 177.095 248.643 176.129 249.43C175.164 250.217 176.04 253.669 177.54 254.85C179.04 256.03 177.362 258.666 181.051 261.917" stroke="#FF9A6C" stroke-linecap="round" stroke-linejoin="round"/>
<path d="M271.378 267.805C271.052 269.824 270.703 271.92 270.331 274.093H219.418C219.337 273.41 219.819 272.036 220.28 269.638C214.608 271.561 204.689 268.577 204.689 268.577C205.922 265.332 205.068 257.092 205.068 257.092L210.844 255.867C210.844 255.867 213.242 230.759 215.068 223.566C217.006 215.934 227.607 207.604 263.264 210.062C263.264 210.062 279.715 209.75 282.269 220.656C284.674 230.834 272.061 267.337 271.378 267.805Z" fill="#383838"/>
<mask id="mask5_1144_9663" style="mask-type:luminance" maskUnits="userSpaceOnUse" x="204" y="209" width="79" height="66">
<path d="M271.378 267.805C271.052 269.824 270.703 271.92 270.331 274.093H219.418C219.337 273.41 219.819 272.036 220.28 269.638C214.608 271.561 204.689 268.577 204.689 268.577C205.922 265.332 205.068 257.092 205.068 257.092L210.844 255.867C210.844 255.867 213.242 230.759 215.068 223.566C217.006 215.934 227.607 207.604 263.264 210.062C263.264 210.062 279.715 209.75 282.269 220.656C284.674 230.834 272.061 267.337 271.378 267.805Z" fill="white"/>
</mask>
<g mask="url(#mask5_1144_9663)">
<path opacity="0.2" d="M220.28 269.646C216.338 270.982 210.361 269.95 207.08 269.193C207.934 268.54 208.468 267.203 208.669 265.481C211.341 265.065 214.014 260.819 215.773 241.517C216.189 236.988 217.08 234.145 218.223 232.229C217.07 236.573 217.025 241.137 218.09 245.503C218.728 248.094 220.733 254.33 220.911 256.914C221.267 261.167 221.055 265.449 220.28 269.646Z" fill="black"/>
<path opacity="0.2" d="M271.371 267.812C271.055 269.831 270.708 271.925 270.332 274.093H219.419C220.332 271.301 222.574 258.012 219.419 249.935C219.293 249.609 230.354 244.961 237.763 246.862C269.166 254.917 258.35 228.963 267.318 224.241L259.582 254.583L255.358 255.926C264.504 256.491 261.861 270.202 261.861 270.202C265.22 270.649 268.623 269.793 271.371 267.812Z" fill="black"/>
</g>
<path d="M271.378 267.805C271.052 269.824 270.703 271.92 270.331 274.093H219.418C219.337 273.41 219.819 272.036 220.28 269.638C214.608 271.561 204.689 268.577 204.689 268.577C205.922 265.332 205.068 257.092 205.068 257.092L210.844 255.867C210.844 255.867 213.242 230.759 215.068 223.566C217.006 215.934 227.607 207.604 263.264 210.062C263.264 210.062 279.715 209.75 282.269 220.656C284.674 230.834 272.061 267.337 271.378 267.805Z" stroke="#263238" stroke-linecap="round" stroke-linejoin="round"/>
<path d="M206.019 255.681C206.019 255.681 207.95 256.713 208.581 261.249C209.212 265.785 208.239 269.69 205.722 269.631C203.206 269.571 202.753 268.584 203.273 267.649C203.792 266.713 204.891 265.459 204.052 261.576C202.998 256.713 200.83 257.159 200.83 257.159C200.83 257.159 203.718 254.389 206.019 255.681Z" fill="#383838" stroke="#263238" stroke-linecap="round" stroke-linejoin="round"/>
<path opacity="0.2" d="M208.67 265.511C208.469 267.204 207.927 268.54 207.081 269.223C206.694 269.525 206.213 269.681 205.722 269.661C203.198 269.602 202.753 268.614 203.273 267.679C203.792 266.743 204.891 265.489 204.052 261.606C202.998 256.743 200.83 257.189 200.83 257.189C200.83 257.189 203.725 254.42 206.027 255.704C206.027 255.704 207.957 256.736 208.588 261.272C208.789 262.676 208.816 264.1 208.67 265.511Z" fill="black"/>
<path d="M254.519 200.99C254.519 200.99 241.72 204.873 235.9 202.802L234.689 210.574C234.689 210.574 240.354 215.504 258.498 209.439L254.519 200.99Z" fill="#383838" stroke="#263238" stroke-linecap="round" stroke-linejoin="round"/>
<path d="M209.041 253.417C210.562 258.369 211.921 262.326 210.577 262.764C209.234 263.202 208.127 259.119 206.605 254.16C205.084 249.2 203.725 245.251 205.069 244.82C206.412 244.39 207.519 248.458 209.041 253.417Z" fill="#383838" stroke="#263238" stroke-linecap="round" stroke-linejoin="round"/>
<path d="M206.412 253.536L208.847 252.793C208.491 251.628 208.157 250.514 207.838 249.52L205.41 250.262C205.707 251.264 206.049 252.363 206.412 253.536Z" fill="#263238"/>
<path d="M206.189 247.166C206.189 247.166 207.325 244.887 208.372 246.498C209.419 248.109 209.634 253.001 210.377 253.009" stroke="#263238" stroke-linecap="round" stroke-linejoin="round"/>
<path d="M221.29 222.92C220.362 225.763 219.063 228.859 218.224 232.267C217.071 236.611 217.025 241.174 218.091 245.54C218.729 248.131 220.733 254.367 220.912 256.951C221.265 261.194 221.053 265.466 220.281 269.653C219.82 272.044 219.338 273.417 219.419 274.108" stroke="#263238" stroke-linecap="round" stroke-linejoin="round"/>
<path d="M252.804 256.772C252.804 256.772 232.091 259.601 225.105 259.742C224.036 259.742 220.829 259.371 220.829 259.371L215.863 256.052C215.863 256.052 212.039 255.488 210.161 255.911L208.023 258.71C208.023 258.71 205.358 259.571 206.88 261.591C206.721 262.064 206.704 262.574 206.829 263.057C206.954 263.541 207.217 263.978 207.585 264.315C207.585 264.315 207.704 266.075 208.877 266.78C208.877 266.78 209.107 268.421 210.399 268.888C211.69 269.356 219.775 268.064 222.24 267.366C224.704 266.668 248.609 270.41 257.986 270.18C257.986 270.195 266.018 260.781 252.804 256.772Z" fill="#FFBE9D" stroke="#263238" stroke-linecap="round" stroke-linejoin="round"/>
<path d="M253.123 178.377C253.123 178.377 247.659 180.508 244.423 174.613C243.02 172.059 240.184 166.736 240.184 166.736C239.374 168.822 240.369 172 240.369 172C238.513 171.191 234.935 170.998 234.935 170.998C233.665 168.874 233.294 164.049 233.294 164.049C231.535 167.018 232.04 171.205 232.04 171.205C229.168 171.482 226.45 172.632 224.252 174.502C224.72 176.395 224.883 179.349 224.727 185.489C224.527 193.499 228.38 195.697 232.151 198.696C235.922 201.695 246.19 203.239 249.738 187.56C249.738 187.56 257.162 184.791 253.539 178.978L253.123 178.377Z" fill="#FFBE9D" stroke="#263238" stroke-linecap="round" stroke-linejoin="round"/>
<path d="M247.037 168.726C248.143 171.113 249.755 173.23 251.761 174.931C253.767 176.633 256.12 177.877 258.655 178.577" stroke="#BFBFBF" stroke-miterlimit="10"/>
<path d="M245.084 162.787C245.258 163.762 245.506 164.723 245.826 165.66" stroke="#BFBFBF" stroke-miterlimit="10"/>
<path d="M248.795 163.15C248.795 163.15 253.012 171.198 259.604 171.391" stroke="#BFBFBF" stroke-miterlimit="10"/>
<path d="M261.721 183.618C261.721 183.618 272.448 200.99 272.448 211.087" stroke="#BFBFBF" stroke-miterlimit="10"/>
<path d="M258.885 188.25C258.885 188.25 261.535 197.938 265.804 202.801" stroke="#BFBFBF" stroke-miterlimit="10"/>
<path d="M225.172 163.062C224.851 164.491 224.64 165.943 224.541 167.404" stroke="#BFBFBF" stroke-miterlimit="10"/>
<path d="M233.955 153.96C233.955 153.96 228.958 154.895 225.699 160.783" stroke="#BFBFBF" stroke-miterlimit="10"/>
<path d="M227.63 198.941C227.63 198.941 227.467 206.736 231.446 211.117" stroke="#BFBFBF" stroke-miterlimit="10"/>
<path d="M234.689 175.088C240.101 174.027 242.47 176.781 242.47 176.781" stroke="#263238" stroke-linecap="round" stroke-linejoin="round"/>
<path d="M225.678 177.367C226.275 176.765 226.99 176.292 227.778 175.977C228.566 175.663 229.41 175.515 230.258 175.541" stroke="#263238" stroke-linecap="round" stroke-linejoin="round"/>
<path d="M238.216 193.225C239.886 192.274 240.814 189.795 240.814 189.795L240.466 189.988C238.288 191.152 235.915 191.907 233.465 192.215C234.037 192.88 234.812 193.339 235.67 193.521C236.528 193.704 237.423 193.6 238.216 193.225Z" stroke="#263238" stroke-linecap="round" stroke-linejoin="round"/>
<path d="M231.595 188.072C230.89 187.983 228.878 187.033 228.707 185.667C228.655 185.259 228.952 184.887 229.39 184.561C230.257 183.952 230.954 183.132 231.415 182.178C231.876 181.225 232.086 180.169 232.026 179.112C232.026 178.963 232.026 178.874 232.026 178.874" stroke="#263238" stroke-linecap="round" stroke-linejoin="round"/>
<path d="M238.514 177.263C239.026 177.197 239.553 178.05 239.687 179.157C239.82 180.263 239.523 181.206 239.004 181.272C238.484 181.339 237.972 180.485 237.831 179.379C237.69 178.273 238.002 177.323 238.514 177.263Z" fill="#263238"/>
<path d="M229.591 180.463C229.725 181.547 229.428 182.475 228.923 182.535C228.418 182.594 227.906 181.792 227.772 180.686C227.639 179.58 227.936 178.667 228.44 178.608C228.945 178.548 229.457 179.372 229.591 180.463Z" fill="#263238"/>
<path d="M246.206 178.191C246.206 178.191 245.515 176.231 246.302 175.222" stroke="#263238" stroke-linecap="round" stroke-linejoin="round"/>
<path d="M271.37 267.812C268.62 269.797 265.214 270.652 261.853 270.202C261.853 270.202 264.496 256.491 255.35 255.926L259.574 254.583L267.309 224.241" stroke="#263238" stroke-linecap="round" stroke-linejoin="round"/>
<path d="M261.854 254.583C261.854 254.583 266.753 255.875 268.127 260.092" stroke="#263238" stroke-linecap="round" stroke-linejoin="round"/>
<path d="M241.861 205.757C246.524 205.725 251.127 204.713 255.373 202.787" stroke="#263238" stroke-linecap="round" stroke-linejoin="round"/>
<path d="M235.551 205.028C236.598 205.301 237.666 205.49 238.743 205.593" stroke="#263238" stroke-linecap="round" stroke-linejoin="round"/>
<path d="M256.428 213.73C257.749 213.264 259.135 212.717 260.585 212.089" stroke="#263238" stroke-linecap="round" stroke-linejoin="round"/>
<path d="M233.496 213.841C233.496 213.841 238.478 218.57 251.655 215.192" stroke="#263238" stroke-linecap="round" stroke-linejoin="round"/>
<path d="M237.801 237.345C237.801 237.345 238.543 248.755 247.036 253.009" stroke="#263238" stroke-linecap="round" stroke-linejoin="round"/>
<path d="M252.598 256.951C252.598 256.951 254.261 253.284 259.235 255.095C259.235 255.095 263.934 256.714 265.344 261.547C266.755 266.38 264.988 270.693 261.558 270.871C258.128 271.049 257.505 270.782 258.084 269.728C258.693 268.577 259.033 267.303 259.079 266.002C259.125 264.701 258.876 263.406 258.351 262.215C256.221 257.115 252.598 256.951 252.598 256.951Z" fill="#383838"/>
<mask id="mask6_1144_9663" style="mask-type:luminance" maskUnits="userSpaceOnUse" x="252" y="254" width="14" height="17">
<path d="M252.598 256.951C252.598 256.951 254.261 253.284 259.235 255.095C259.235 255.095 263.934 256.714 265.344 261.547C266.755 266.38 264.988 270.693 261.558 270.871C258.128 271.049 257.505 270.782 258.084 269.728C258.693 268.577 259.033 267.303 259.079 266.002C259.125 264.701 258.876 263.406 258.351 262.215C256.221 257.115 252.598 256.951 252.598 256.951Z" fill="white"/>
</mask>
<g mask="url(#mask6_1144_9663)">
<g opacity="0.2">
<path d="M252.598 256.951C252.598 256.951 254.261 253.284 259.235 255.095C259.235 255.095 263.934 256.714 265.344 261.547C266.755 266.38 264.988 270.693 261.558 270.871C258.128 271.049 257.505 270.782 258.084 269.728C258.693 268.577 259.033 267.303 259.079 266.002C259.125 264.701 258.876 263.406 258.351 262.215C256.221 257.115 252.598 256.951 252.598 256.951Z" fill="black"/>
</g>
</g>
<path d="M252.598 256.951C252.598 256.951 254.261 253.284 259.235 255.095C259.235 255.095 263.934 256.714 265.344 261.547C266.755 266.38 264.988 270.693 261.558 270.871C258.128 271.049 257.505 270.782 258.084 269.728C258.693 268.577 259.033 267.303 259.079 266.002C259.125 264.701 258.876 263.406 258.351 262.215C256.221 257.115 252.598 256.951 252.598 256.951Z" stroke="#263238" stroke-linecap="round" stroke-linejoin="round"/>
<path d="M25.1298 241.859C25.1298 241.859 22.576 220.025 0 228.86C0 228.86 19.213 228.719 22.4647 245.192L25.4342 244.873L25.1298 241.859Z" fill="#383838"/>
<path opacity="0.1" d="M25.1298 241.859C25.1298 241.859 22.576 220.025 0 228.86C0 228.86 19.213 228.719 22.4647 245.192L25.4342 244.873L25.1298 241.859Z" fill="black"/>
<path d="M25.4427 241.481C25.4427 241.481 23.4902 218.199 19.2363 200.107C19.2363 200.107 32.2281 213.849 29.2586 239.721L25.4427 241.481Z" fill="#383838"/>
<path opacity="0.1" d="M25.4427 241.481C25.4427 241.481 23.4902 218.199 19.2363 200.107C19.2363 200.107 32.2281 213.849 29.2586 239.721L25.4427 241.481Z" fill="black"/>
<path d="M24.179 256.907C24.179 256.907 20.467 224.836 7.97266 213.849C7.97266 213.849 30.2443 219.394 26.9629 253.455L24.179 256.907Z" fill="#383838"/>
<path d="M28.0992 255.585C28.0992 255.585 33.5558 223.759 46.5921 213.433C46.5921 213.433 24.0384 217.768 25.5083 251.963L28.0992 255.585Z" fill="#383838"/>
<path d="M39.5403 245.147H13.1855V249.728H14.0616V265.89C14.0615 268.059 14.9207 270.14 16.4511 271.677C17.9816 273.215 20.0586 274.083 22.2278 274.093H30.3941C32.5705 274.093 34.6578 273.229 36.1974 271.691C37.737 270.153 38.6029 268.066 38.6049 265.89V249.728H39.4809L39.5403 245.147Z" fill="white" stroke="#263238" stroke-miterlimit="10"/>
<path d="M31.373 249.513H34.8771H31.373Z" fill="white"/>
<path d="M31.373 249.513H34.8771" stroke="#263238" stroke-miterlimit="10"/>
<path d="M17.6309 249.513H27.7719H17.6309Z" fill="white"/>
<path d="M17.6309 249.513H27.7719" stroke="#263238" stroke-miterlimit="10"/>
<path d="M128.737 253.93L121.981 198.919C121.853 198.059 121.427 197.271 120.777 196.693C120.127 196.115 119.294 195.784 118.425 195.757H110.689L119.643 257.071H125.975C126.373 257.078 126.768 256.999 127.132 256.838C127.496 256.678 127.821 256.44 128.084 256.141C128.347 255.842 128.542 255.489 128.654 255.108C128.767 254.726 128.795 254.324 128.737 253.93Z" fill="#383838" stroke="#263238" stroke-linecap="round" stroke-linejoin="round"/>
<path d="M124.284 257.07H46.4523C45.5843 257.042 44.7538 256.709 44.1054 256.132C43.457 255.554 43.0318 254.767 42.9037 253.908L36.148 198.897C36.0883 198.503 36.1156 198.101 36.2278 197.718C36.34 197.336 36.5345 196.983 36.7977 196.684C37.0608 196.384 37.3862 196.146 37.751 195.986C38.1159 195.826 38.5113 195.748 38.9097 195.757H116.771C117.639 195.785 118.47 196.117 119.118 196.695C119.767 197.273 120.192 198.06 120.32 198.919L127.076 253.93C127.134 254.326 127.106 254.731 126.991 255.115C126.877 255.499 126.68 255.853 126.413 256.152C126.147 256.452 125.819 256.689 125.451 256.848C125.083 257.006 124.685 257.082 124.284 257.07Z" fill="#263238"/>
<mask id="mask7_1144_9663" style="mask-type:luminance" maskUnits="userSpaceOnUse" x="36" y="195" width="92" height="63">
<path d="M124.282 257.07H46.4504C45.5823 257.042 44.7518 256.709 44.1034 256.132C43.4551 255.554 43.0298 254.767 42.9018 253.908L36.146 198.897C36.0864 198.503 36.1136 198.101 36.2258 197.718C36.3381 197.336 36.5326 196.983 36.7957 196.684C37.0588 196.384 37.3842 196.146 37.7491 195.986C38.1139 195.826 38.5094 195.748 38.9077 195.757H116.769C117.637 195.785 118.468 196.117 119.116 196.695C119.765 197.273 120.19 198.06 120.318 198.919L127.074 253.93C127.133 254.326 127.104 254.731 126.989 255.115C126.875 255.499 126.678 255.853 126.411 256.152C126.145 256.452 125.817 256.689 125.449 256.848C125.081 257.006 124.683 257.082 124.282 257.07Z" fill="white"/>
</mask>
<g mask="url(#mask7_1144_9663)">
<path opacity="0.1" d="M124.282 257.07H46.4504C45.5823 257.042 44.7518 256.709 44.1034 256.132C43.4551 255.554 43.0298 254.767 42.9018 253.908L36.146 198.897C36.0864 198.503 36.1136 198.101 36.2258 197.718C36.3381 197.336 36.5326 196.983 36.7957 196.684C37.0588 196.384 37.3842 196.146 37.7491 195.986C38.1139 195.826 38.5094 195.748 38.9077 195.757H116.769C117.637 195.785 118.468 196.117 119.116 196.695C119.765 197.273 120.19 198.06 120.318 198.919L127.074 253.93C127.133 254.326 127.104 254.731 126.989 255.115C126.875 255.499 126.678 255.853 126.411 256.152C126.145 256.452 125.817 256.689 125.449 256.848C125.081 257.006 124.683 257.082 124.282 257.07Z" fill="white"/>
</g>
<path d="M124.284 257.07H46.4523C45.5843 257.042 44.7538 256.709 44.1054 256.132C43.457 255.554 43.0318 254.767 42.9037 253.908L36.148 198.897C36.0883 198.503 36.1156 198.101 36.2278 197.718C36.34 197.336 36.5345 196.983 36.7977 196.684C37.0608 196.384 37.3862 196.146 37.751 195.986C38.1159 195.826 38.5113 195.748 38.9097 195.757H116.771C117.639 195.785 118.47 196.117 119.118 196.695C119.767 197.273 120.192 198.06 120.32 198.919L127.076 253.93C127.134 254.326 127.106 254.731 126.991 255.115C126.877 255.499 126.68 255.853 126.413 256.152C126.147 256.452 125.819 256.689 125.451 256.848C125.083 257.006 124.685 257.082 124.284 257.07Z" stroke="#263238" stroke-linecap="round" stroke-linejoin="round"/>
<path d="M88.0035 269.595L91.1141 234.16C91.1273 233.957 91.0987 233.754 91.03 233.563C90.9613 233.371 90.8541 233.196 90.7148 233.048C90.5756 232.899 90.4074 232.781 90.2207 232.701C90.034 232.62 89.8327 232.579 89.6293 232.579H70.008C69.6398 232.577 69.2839 232.712 69.0096 232.958C68.7352 233.203 68.5619 233.542 68.5232 233.908L65.1379 272.512C65.1247 272.715 65.1533 272.919 65.222 273.11C65.2907 273.301 65.3979 273.477 65.5371 273.625C65.6764 273.773 65.8445 273.891 66.0313 273.972C66.218 274.053 66.4193 274.094 66.6227 274.093H105.554C105.947 274.093 106.325 273.937 106.603 273.659C106.882 273.38 107.038 273.002 107.038 272.609C107.038 272.215 106.882 271.837 106.603 271.559C106.325 271.28 105.947 271.124 105.554 271.124H89.4511C89.2555 271.119 89.0627 271.076 88.8839 270.996C88.7051 270.917 88.5438 270.802 88.4093 270.66C88.2747 270.518 88.1696 270.351 88.1 270.168C88.0303 269.985 87.9975 269.79 88.0035 269.595Z" fill="#263238" stroke="#263238" stroke-linecap="round" stroke-linejoin="round"/>
<path d="M107.008 272.661C107.008 272.267 106.852 271.889 106.574 271.611C106.295 271.332 105.917 271.176 105.524 271.176H89.4509C89.2469 271.176 89.0449 271.135 88.8576 271.054C88.6704 270.973 88.5018 270.854 88.3625 270.705C88.2232 270.556 88.1161 270.38 88.0479 270.187C87.9797 269.995 87.9519 269.791 87.9661 269.587L91.0767 234.153C91.1407 233.942 91.1567 233.719 91.1235 233.5C91.0904 233.282 91.0089 233.074 90.8851 232.891C90.7613 232.708 90.5983 232.555 90.4079 232.443C90.2175 232.331 90.0045 232.263 89.7845 232.244C89.5645 232.225 89.343 232.255 89.1361 232.332C88.9292 232.409 88.7421 232.532 88.5886 232.691C88.435 232.849 88.3187 233.04 88.2483 233.25C88.1779 233.459 88.155 233.681 88.1814 233.901L84.7961 272.505C84.7831 272.705 84.8106 272.905 84.877 273.094C84.9434 273.283 85.0474 273.456 85.1826 273.604C85.3178 273.752 85.4816 273.871 85.6639 273.954C85.8463 274.036 86.0436 274.081 86.2438 274.086H105.546C105.926 274.081 106.289 273.93 106.561 273.665C106.833 273.4 106.993 273.04 107.008 272.661Z" fill="#383838" stroke="#263238" stroke-linecap="round" stroke-linejoin="round"/>
<path d="M17.75 274.094H296.146" stroke="#263238" stroke-linecap="round" stroke-linejoin="round"/>
<path d="M277.519 139.275H262.886C261.975 139.275 261.101 139.638 260.456 140.282C259.811 140.927 259.449 141.801 259.449 142.713V149.84C259.449 150.751 259.811 151.625 260.456 152.27C261.101 152.915 261.975 153.277 262.886 153.277H266.71L267.831 159.847L273.696 153.277H277.519C277.971 153.278 278.419 153.19 278.837 153.017C279.254 152.845 279.634 152.592 279.954 152.273C280.274 151.953 280.528 151.574 280.701 151.157C280.874 150.739 280.964 150.292 280.964 149.84V142.742C280.967 142.288 280.88 141.838 280.708 141.417C280.536 140.997 280.283 140.614 279.963 140.292C279.642 139.97 279.262 139.714 278.842 139.54C278.423 139.365 277.973 139.275 277.519 139.275Z" fill="white" stroke="#263238" stroke-linecap="round" stroke-linejoin="round"/>
<path d="M255.083 118.243H240.451C239.999 118.242 239.551 118.33 239.133 118.503C238.715 118.675 238.335 118.928 238.015 119.247C237.695 119.567 237.441 119.946 237.268 120.363C237.095 120.781 237.006 121.228 237.006 121.68V128.8C237.006 129.714 237.369 130.59 238.015 131.236C238.661 131.882 239.537 132.245 240.451 132.245H244.274L247.177 138.815L251.26 132.245H255.083C255.997 132.245 256.873 131.882 257.519 131.236C258.165 130.59 258.528 129.714 258.528 128.8V121.68C258.528 121.228 258.439 120.781 258.265 120.363C258.092 119.946 257.838 119.567 257.518 119.247C257.198 118.928 256.819 118.675 256.401 118.503C255.983 118.33 255.535 118.242 255.083 118.243Z" fill="white" stroke="#263238" stroke-linecap="round" stroke-linejoin="round"/>
<path d="M226.606 125.601H212.783C211.921 125.601 211.093 125.943 210.484 126.553C209.874 127.163 209.531 127.99 209.531 128.852V135.578C209.531 136.441 209.874 137.268 210.484 137.878C211.093 138.487 211.921 138.83 212.783 138.83H216.398L220.17 145.029L222.991 138.83H226.606C227.469 138.83 228.296 138.487 228.905 137.878C229.515 137.268 229.858 136.441 229.858 135.578V128.852C229.858 127.99 229.515 127.163 228.905 126.553C228.296 125.943 227.469 125.601 226.606 125.601Z" fill="white" stroke="#263238" stroke-linecap="round" stroke-linejoin="round"/>
<path d="M217.825 130.626V131.435C217.825 132.43 217.35 132.972 216.34 132.972H215.873V135.318H214.893V129.082H216.34C217.328 129.082 217.825 129.624 217.825 130.626ZM215.902 129.973V132.081H216.34C216.652 132.081 216.815 131.94 216.815 131.495V130.559C216.815 130.114 216.652 129.973 216.34 129.973H215.902Z" fill="#263238"/>
<path d="M219.308 135.318H218.328V129.082H219.308V131.755H220.422V129.082H221.416V135.318H220.422V132.645H219.308V135.318Z" fill="#263238"/>
<path d="M225.009 130.626V131.435C225.009 132.43 224.534 132.972 223.524 132.972H223.064V135.318H222.084V129.082H223.524C224.504 129.082 225.009 129.624 225.009 130.626ZM223.086 129.973V132.081H223.546C223.858 132.081 224.029 131.94 224.029 131.495V130.559C224.029 130.114 223.858 129.973 223.546 129.973H223.086Z" fill="#263238"/>
<path d="M245.671 126.173V127.004C245.671 127.999 245.173 128.57 244.186 128.57C243.199 128.57 242.701 127.999 242.701 127.004V123.76C242.701 122.765 243.199 122.193 244.186 122.193C245.173 122.193 245.671 122.765 245.671 123.76V124.369H244.743V123.7C244.743 123.255 244.55 123.084 244.238 123.084C243.926 123.084 243.733 123.255 243.733 123.7V127.063C243.733 127.509 243.926 127.672 244.238 127.672C244.55 127.672 244.743 127.509 244.743 127.063V126.173H245.671Z" fill="#263238"/>
<path d="M248.024 125.036H249.22V125.726H248.024V126.951H247.326V125.726H246.139V125.036H247.326V123.833H248.024V125.036Z" fill="#263238"/>
<path d="M251.55 125.036H252.716V125.726H251.52V126.951H250.83V125.726H249.635V125.036H250.83V123.833H251.52L251.55 125.036Z" fill="#263238"/>
<path d="M263.34 146.958V146.008L267.312 144.523V145.489L264.594 146.454L267.319 147.426V148.391L263.34 146.958Z" fill="#263238"/>
<path d="M271.217 142.223H272.367L269.049 150.745H267.891L271.217 142.223Z" fill="#263238"/>
<path d="M272.916 148.421V147.456L275.641 146.484L272.916 145.511V144.546L276.888 146.031V146.981L272.916 148.421Z" fill="#263238"/>
</svg>
