<svg width="178" height="80" viewBox="0 0 178 80" fill="none" xmlns="http://www.w3.org/2000/svg">
<g clip-path="url(#clip0_1341_2183)">
<path d="M25.9361 18.265C25.9361 21.9225 23.3736 25.9375 14.6086 25.9375H3.65609L6.93859 12.0625H17.5336C24.1111 12.0625 25.9411 15.7025 25.9411 18.265H25.9361ZM45.6536 12.0625H35.0586L32.1361 25.9375H43.0886C51.4961 25.9375 54.0411 21.9225 54.0411 18.265C54.0561 15.7025 52.2311 12.0625 45.6536 12.0625ZM13.8736 32.515H3.27859L-0.00390625 46.39H10.9486C19.7136 46.39 22.2761 42.735 22.2761 38.7175C22.2761 36.17 20.4486 32.515 13.8686 32.515H13.8736ZM42.0136 32.515H31.4211L28.4986 46.39H39.4511C47.8586 46.39 50.4036 42.735 50.4036 38.7175C50.4036 36.17 48.5761 32.515 42.0136 32.515ZM71.5911 24.11H60.9961L58.0736 37.985H69.0261C77.4336 37.985 79.9786 34.3275 79.9786 30.3125C79.9936 27.765 78.1686 24.11 71.5911 24.11ZM67.2161 45.655H56.6211L53.6986 59.53H64.6511C73.4161 59.53 75.6036 55.875 75.6036 51.8575C75.6036 49.31 73.7936 45.655 67.2161 45.655ZM37.6236 54.0625H27.0286L24.1061 67.9375H35.0586C43.8236 67.9375 46.0111 63.9225 46.0111 60.265C46.0261 57.7175 44.1986 54.0625 37.6211 54.0625H37.6236Z" fill="#AEAEAE"/>
</g>
<path d="M97.4091 46V34.3636H101.477C102.288 34.3636 102.956 34.5038 103.483 34.7841C104.009 35.0606 104.402 35.4337 104.659 35.9034C104.917 36.3693 105.045 36.8864 105.045 37.4545C105.045 37.9545 104.956 38.3674 104.778 38.6932C104.604 39.0189 104.373 39.2765 104.085 39.4659C103.801 39.6553 103.492 39.7955 103.159 39.8864V40C103.515 40.0227 103.873 40.1477 104.233 40.375C104.593 40.6023 104.894 40.928 105.136 41.3523C105.379 41.7765 105.5 42.2955 105.5 42.9091C105.5 43.4924 105.367 44.017 105.102 44.483C104.837 44.9489 104.419 45.3182 103.847 45.5909C103.275 45.8636 102.53 46 101.614 46H97.4091ZM98.8182 44.75H101.614C102.534 44.75 103.188 44.572 103.574 44.2159C103.964 43.8561 104.159 43.4205 104.159 42.9091C104.159 42.5152 104.059 42.1515 103.858 41.8182C103.657 41.4811 103.371 41.2121 103 41.0114C102.629 40.8068 102.189 40.7045 101.682 40.7045H98.8182V44.75ZM98.8182 39.4773H101.432C101.856 39.4773 102.239 39.3939 102.58 39.2273C102.924 39.0606 103.197 38.8258 103.398 38.5227C103.602 38.2197 103.705 37.8636 103.705 37.4545C103.705 36.9432 103.527 36.5095 103.17 36.1534C102.814 35.7936 102.25 35.6136 101.477 35.6136H98.8182V39.4773ZM108.974 34.3636V46H107.634V34.3636H108.974ZM113.999 46.2045C113.446 46.2045 112.944 46.1004 112.493 45.892C112.042 45.6799 111.684 45.375 111.419 44.9773C111.154 44.5758 111.021 44.0909 111.021 43.5227C111.021 43.0227 111.12 42.6174 111.317 42.3068C111.514 41.9924 111.777 41.7462 112.107 41.5682C112.436 41.3902 112.8 41.2576 113.197 41.1705C113.599 41.0795 114.002 41.0076 114.408 40.9545C114.938 40.8864 115.368 40.8352 115.697 40.8011C116.031 40.7633 116.273 40.7008 116.425 40.6136C116.58 40.5265 116.658 40.375 116.658 40.1591V40.1136C116.658 39.553 116.504 39.1174 116.197 38.8068C115.894 38.4962 115.434 38.3409 114.817 38.3409C114.177 38.3409 113.675 38.4811 113.311 38.7614C112.947 39.0417 112.692 39.3409 112.544 39.6591L111.271 39.2045C111.499 38.6742 111.802 38.2614 112.18 37.9659C112.563 37.6667 112.98 37.4583 113.43 37.3409C113.885 37.2197 114.332 37.1591 114.771 37.1591C115.052 37.1591 115.374 37.1932 115.737 37.2614C116.105 37.3258 116.459 37.4602 116.8 37.6648C117.144 37.8693 117.43 38.178 117.658 38.5909C117.885 39.0038 117.999 39.5568 117.999 40.25V46H116.658V44.8182H116.589C116.499 45.0076 116.347 45.2102 116.135 45.4261C115.923 45.642 115.641 45.8258 115.288 45.9773C114.936 46.1288 114.506 46.2045 113.999 46.2045ZM114.203 45C114.733 45 115.18 44.8958 115.544 44.6875C115.911 44.4792 116.188 44.2102 116.374 43.8807C116.563 43.5511 116.658 43.2045 116.658 42.8409V41.6136C116.601 41.6818 116.476 41.7443 116.283 41.8011C116.093 41.8542 115.874 41.9015 115.624 41.9432C115.377 41.9811 115.137 42.0152 114.902 42.0455C114.671 42.072 114.483 42.0947 114.339 42.1136C113.991 42.1591 113.665 42.233 113.362 42.3352C113.063 42.4337 112.821 42.5833 112.635 42.7841C112.453 42.9811 112.362 43.25 112.362 43.5909C112.362 44.0568 112.535 44.4091 112.879 44.6477C113.228 44.8826 113.669 45 114.203 45ZM123.991 46.1818C123.173 46.1818 122.469 45.9886 121.878 45.6023C121.287 45.2159 120.832 44.6837 120.514 44.0057C120.196 43.3277 120.037 42.553 120.037 41.6818C120.037 40.7955 120.2 40.0133 120.526 39.3352C120.855 38.6534 121.313 38.1212 121.901 37.7386C122.491 37.3523 123.181 37.1591 123.969 37.1591C124.582 37.1591 125.135 37.2727 125.628 37.5C126.12 37.7273 126.524 38.0455 126.838 38.4545C127.152 38.8636 127.348 39.3409 127.423 39.8864H126.082C125.98 39.4886 125.753 39.1364 125.401 38.8295C125.052 38.5189 124.582 38.3636 123.991 38.3636C123.469 38.3636 123.01 38.5 122.616 38.7727C122.226 39.0417 121.921 39.4223 121.702 39.9148C121.486 40.4034 121.378 40.9773 121.378 41.6364C121.378 42.3106 121.484 42.8977 121.696 43.3977C121.912 43.8977 122.215 44.286 122.605 44.5625C122.999 44.839 123.461 44.9773 123.991 44.9773C124.34 44.9773 124.656 44.9167 124.94 44.7955C125.224 44.6742 125.465 44.5 125.662 44.2727C125.859 44.0455 125.999 43.7727 126.082 43.4545H127.423C127.348 43.9697 127.16 44.4337 126.861 44.8466C126.565 45.2557 126.173 45.5814 125.685 45.8239C125.2 46.0625 124.635 46.1818 123.991 46.1818ZM130.634 42.8182L130.611 41.1591H130.884L134.702 37.2727H136.361L132.293 41.3864H132.179L130.634 42.8182ZM129.384 46V34.3636H130.724V46H129.384ZM134.929 46L131.52 41.6818L132.474 40.75L136.634 46H134.929ZM138.268 46V34.3636H142.337C143.147 34.3636 143.816 34.5038 144.342 34.7841C144.869 35.0606 145.261 35.4337 145.518 35.9034C145.776 36.3693 145.905 36.8864 145.905 37.4545C145.905 37.9545 145.816 38.3674 145.638 38.6932C145.464 39.0189 145.232 39.2765 144.945 39.4659C144.661 39.6553 144.352 39.7955 144.018 39.8864V40C144.375 40.0227 144.732 40.1477 145.092 40.375C145.452 40.6023 145.753 40.928 145.996 41.3523C146.238 41.7765 146.359 42.2955 146.359 42.9091C146.359 43.4924 146.227 44.017 145.962 44.483C145.696 44.9489 145.278 45.3182 144.706 45.5909C144.134 45.8636 143.39 46 142.473 46H138.268ZM139.678 44.75H142.473C143.393 44.75 144.047 44.572 144.433 44.2159C144.823 43.8561 145.018 43.4205 145.018 42.9091C145.018 42.5152 144.918 42.1515 144.717 41.8182C144.517 41.4811 144.231 41.2121 143.859 41.0114C143.488 40.8068 143.049 40.7045 142.541 40.7045H139.678V44.75ZM139.678 39.4773H142.291C142.715 39.4773 143.098 39.3939 143.439 39.2273C143.784 39.0606 144.056 38.8258 144.257 38.5227C144.462 38.2197 144.564 37.8636 144.564 37.4545C144.564 36.9432 144.386 36.5095 144.03 36.1534C143.674 35.7936 143.109 35.6136 142.337 35.6136H139.678V39.4773ZM152.152 46.1818C151.311 46.1818 150.586 45.9962 149.976 45.625C149.37 45.25 148.902 44.7273 148.572 44.0568C148.247 43.3826 148.084 42.5985 148.084 41.7045C148.084 40.8106 148.247 40.0227 148.572 39.3409C148.902 38.6553 149.36 38.1212 149.947 37.7386C150.538 37.3523 151.228 37.1591 152.016 37.1591C152.47 37.1591 152.919 37.2348 153.362 37.3864C153.805 37.5379 154.209 37.7841 154.572 38.125C154.936 38.4621 155.226 38.9091 155.442 39.4659C155.658 40.0227 155.766 40.7083 155.766 41.5227V42.0909H149.038V40.9318H154.402C154.402 40.4394 154.304 40 154.107 39.6136C153.913 39.2273 153.637 38.9223 153.277 38.6989C152.921 38.4754 152.5 38.3636 152.016 38.3636C151.482 38.3636 151.019 38.4962 150.629 38.7614C150.243 39.0227 149.946 39.3636 149.737 39.7841C149.529 40.2045 149.425 40.6553 149.425 41.1364V41.9091C149.425 42.5682 149.538 43.1269 149.766 43.5852C149.997 44.0398 150.317 44.3864 150.726 44.625C151.135 44.8598 151.61 44.9773 152.152 44.9773C152.504 44.9773 152.822 44.928 153.107 44.8295C153.394 44.7273 153.643 44.5758 153.851 44.375C154.059 44.1705 154.22 43.9167 154.334 43.6136L155.629 43.9773C155.493 44.4167 155.264 44.803 154.942 45.1364C154.62 45.4659 154.222 45.7235 153.749 45.9091C153.275 46.0909 152.743 46.1818 152.152 46.1818ZM157.805 46V37.2727H159.101V38.5909H159.192C159.351 38.1591 159.639 37.8087 160.055 37.5398C160.472 37.2708 160.942 37.1364 161.464 37.1364C161.563 37.1364 161.686 37.1383 161.834 37.142C161.982 37.1458 162.093 37.1515 162.169 37.1591V38.5227C162.124 38.5114 162.019 38.4943 161.857 38.4716C161.697 38.4451 161.529 38.4318 161.351 38.4318C160.927 38.4318 160.548 38.5208 160.214 38.6989C159.885 38.8731 159.624 39.1155 159.43 39.4261C159.241 39.733 159.146 40.0833 159.146 40.4773V46H157.805ZM163.759 46V37.2727H165.054V38.5909H165.145C165.304 38.1591 165.592 37.8087 166.009 37.5398C166.425 37.2708 166.895 37.1364 167.418 37.1364C167.516 37.1364 167.639 37.1383 167.787 37.142C167.935 37.1458 168.046 37.1515 168.122 37.1591V38.5227C168.077 38.5114 167.973 38.4943 167.81 38.4716C167.651 38.4451 167.482 38.4318 167.304 38.4318C166.88 38.4318 166.501 38.5208 166.168 38.6989C165.838 38.8731 165.577 39.1155 165.384 39.4261C165.194 39.733 165.099 40.0833 165.099 40.4773V46H163.759ZM170.841 49.2727C170.614 49.2727 170.411 49.2538 170.233 49.2159C170.055 49.1818 169.932 49.1477 169.864 49.1136L170.205 47.9318C170.53 48.0152 170.818 48.0455 171.068 48.0227C171.318 48 171.54 47.8883 171.733 47.6875C171.93 47.4905 172.11 47.1705 172.273 46.7273L172.523 46.0455L169.295 37.2727H170.75L173.159 44.2273H173.25L175.659 37.2727H177.114L173.409 47.2727C173.242 47.7235 173.036 48.0966 172.79 48.392C172.544 48.6913 172.258 48.9129 171.932 49.0568C171.61 49.2008 171.246 49.2727 170.841 49.2727Z" fill="#AEAEAE"/>
<defs>
<clipPath id="clip0_1341_2183">
<rect width="80" height="80" fill="white"/>
</clipPath>
</defs>
</svg>
