<svg width="40" height="40" viewBox="0 0 40 40" fill="none" xmlns="http://www.w3.org/2000/svg">
<g clip-path="url(#clip0_879_6014)">
<path d="M0 20.4688C0 22.7083 0.638021 24.8177 1.91406 26.7969C3.1901 28.776 4.89583 30.3906 7.03125 31.6406C6.92708 32.0052 6.8099 32.474 6.67969 33.0469C6.54948 33.6198 6.36719 34.5182 6.13281 35.7422C5.89844 36.9661 5.80729 37.9818 5.85938 38.7891C5.91146 39.5964 6.17188 40 6.64062 40C8.20312 40 9.77865 39.5833 11.3672 38.75C12.9557 37.9167 14.2188 37.0833 15.1562 36.25C16.0938 35.4167 16.5885 35 16.6406 35C19.5052 35 22.2917 34.4531 25 33.3594C24.6875 33.2552 24.1016 32.9427 23.2422 32.4219C22.3828 31.901 21.849 31.6406 21.6406 31.6406H16.6406C15.7031 31.6406 14.7135 32.1615 13.6719 33.2031C12.2135 34.5052 10.8333 35.4427 9.53125 36.0156L10 30L8.67188 28.8281C5.13021 26.5365 3.35938 23.75 3.35938 20.4688C3.35938 19.6354 3.51562 18.6979 3.82812 17.6562C3.61979 17.3438 3.47656 16.862 3.39844 16.2109C3.32031 15.5599 3.28125 14.974 3.28125 14.4531V12.6562L3.35938 11.6406C1.11979 14.0365 0 16.9792 0 20.4688ZM23.3594 0C18.724 0 14.7786 1.35417 11.5234 4.0625C8.26823 6.77083 6.64062 10.026 6.64062 13.8281C6.64062 17.5781 8.25521 20.651 11.4844 23.0469C14.7135 25.4427 18.6719 26.6406 23.3594 26.6406C23.4115 26.6406 23.9453 27.2005 24.9609 28.3203C25.9766 29.4401 27.3177 30.5599 28.9844 31.6797C30.651 32.7995 32.2656 33.3594 33.8281 33.3594C34.1927 33.3594 34.4141 33.0729 34.4922 32.5C34.5703 31.9271 34.5312 31.237 34.375 30.4297C34.2188 29.6224 34.0365 28.8021 33.8281 27.9688C33.6198 27.1354 33.4375 26.4323 33.2812 25.8594L32.9688 25C35.1042 23.6979 36.8099 22.0703 38.0859 20.1172C39.362 18.1641 40 16.0677 40 13.8281C40 10.026 38.3724 6.77083 35.1172 4.0625C31.862 1.35417 27.9427 0 23.3594 0ZM31.3281 22.1875L29.1406 23.5156L30 26.0156C30.1042 26.276 30.2344 26.7188 30.3906 27.3438C30.5469 27.9688 30.7031 28.4635 30.8594 28.8281C29.7135 28.0469 28.3594 26.875 26.7969 25.3125C25.599 24.0104 24.5052 23.3594 23.5156 23.3594C19.8698 23.3594 16.7318 22.513 14.1016 20.8203C11.4714 19.1276 10.1562 16.7969 10.1562 13.8281C10.1042 10.9115 11.3672 8.4375 13.9453 6.40625C16.5234 4.375 19.6615 3.35938 23.3594 3.35938C27.0573 3.35938 30.1953 4.375 32.7734 6.40625C35.3516 8.4375 36.6406 10.9115 36.6406 13.8281C36.6406 17.1094 34.8698 19.8958 31.3281 22.1875Z" fill="#F7971D"/>
</g>
<defs>
<clipPath id="clip0_879_6014">
<rect width="40" height="40" fill="white"/>
</clipPath>
</defs>
</svg>
