<svg width="100" height="100" viewBox="0 0 100 100" fill="none" xmlns="http://www.w3.org/2000/svg">
<path d="M56.9369 17.4167H56.625H45.8333C38.2444 17.4167 33.9009 21.3808 31.6743 25.9533L31.6192 26.0664L31.5303 26.1553L13.25 44.4357V60.7917V61.1054L13.0265 61.3257L10.0741 64.2365C10.0732 64.2375 10.0722 64.2384 10.0713 64.2394C7.63074 66.7009 7.00064 69.296 7.27095 71.6055C7.54505 73.9474 8.75408 76.0494 10.0778 77.4338L22.572 89.928C24.6837 92.0397 26.9105 92.7917 29 92.7917C31.7239 92.7917 34.2491 91.4397 35.7603 89.929L56.9369 17.4167ZM56.9369 17.4167L57.1569 17.1954L64.2336 10.0771C65.6181 8.75363 67.7196 7.545 70.0611 7.27095C72.3713 7.00056 74.9673 7.63111 77.4295 10.0735C77.4297 10.0737 77.4299 10.0739 77.4301 10.0741L89.9221 22.5661C91.245 23.9497 92.4548 26.0618 92.729 28.4099C92.9994 30.7249 92.369 33.3179 89.9326 35.7567C89.9311 35.7583 89.9295 35.7598 89.928 35.7613L88.6871 36.9608L87.3534 38.25H89.2083C90.1518 38.25 90.9167 39.0148 90.9167 39.9583V50C90.9167 54.0898 88.6128 59.8065 82.6043 61.3571L82.1938 61.4631L82.0728 61.8694C81.0855 65.1868 78.6602 68.5251 74.2659 69.6918L73.8596 69.7996L73.7396 70.2024C73.1265 72.2592 71.9764 74.3108 70.1662 75.8444C68.3664 77.3692 65.874 78.4167 62.5 78.4167H47.5417H47.2302L47.0103 78.6373L35.7613 89.928L56.9369 17.4167ZM67.4167 66.6667V63.25H70.8333C72.7082 63.25 73.9897 62.6022 74.7772 61.5765C75.5369 60.587 75.75 59.357 75.75 58.3333V54.9167H79.1667C81.0415 54.9167 82.3231 54.2689 83.1105 53.2432C83.8702 52.2536 84.0833 51.0237 84.0833 50V45.8333V45.0833H83.3333H54.1667H53.4167V45.8333C53.4167 48.2093 52.6263 51.1636 50.7666 53.5078C48.9282 55.8251 46.0187 57.5833 41.6667 57.5833C37.3146 57.5833 34.4051 55.8251 32.5667 53.5078C30.707 51.1636 29.9167 48.2093 29.9167 45.8333V39.2083V37.3977L28.6363 38.678L20.303 47.0113L20.0833 47.231V47.5417V63.8994L14.928 69.0947L14.9259 69.0967L14.9137 69.1089C14.6938 69.3286 14.2509 69.771 14.1195 70.4118C13.9704 71.1387 14.2492 71.8858 14.9523 72.6374L14.9613 72.6469L14.9705 72.6562L27.428 85.072L27.4289 85.0729L27.4422 85.0862C27.6619 85.3062 28.1043 85.7491 28.7451 85.8805C29.472 86.0296 30.2191 85.7508 30.9707 85.0477L30.9798 85.0392L30.9887 85.0303L44.4356 71.5833H62.5C64.3748 71.5833 65.6564 70.9355 66.4439 69.9098C67.2036 68.9203 67.4167 67.6903 67.4167 66.6667ZM77.4583 38.25H77.7703L77.9902 38.0288L85.072 30.9053L85.0736 30.9038L85.0862 30.8911C85.3062 30.6714 85.7491 30.229 85.8805 29.5882C86.0296 28.8613 85.7508 28.1142 85.0477 27.3626L85.0387 27.353L85.0294 27.3438L72.572 14.928L72.5711 14.9271L72.5578 14.9138C72.3381 14.6938 71.8957 14.2509 71.2549 14.1195C70.528 13.9704 69.7809 14.2492 69.0293 14.9523L69.0202 14.9608L69.0113 14.9697L59.731 24.25H45.8333C41.7646 24.25 39.4369 25.9858 38.1679 28.0559C36.9341 30.0686 36.75 32.312 36.75 33.3333V45.8333C36.75 46.857 36.9631 48.087 37.7228 49.0765C38.5103 50.1022 39.7918 50.75 41.6667 50.75C43.5415 50.75 44.8231 50.1022 45.6105 49.0765C46.3702 48.087 46.5833 46.857 46.5833 45.8333V38.25H77.4583Z" fill="#383838" stroke="white" stroke-width="1.5"/>
</svg>
