<svg width="100" height="100" viewBox="0 0 100 100" fill="none" xmlns="http://www.w3.org/2000/svg">
<path d="M49.9997 22.5001C43.5751 22.5005 37.2947 24.405 31.952 27.9731C26.6093 31.5411 22.4439 36.6126 19.9821 42.5468C17.5204 48.4811 16.8727 55.0118 18.1208 61.314C19.3689 67.6162 22.4569 73.4071 26.9947 77.9551C27.6975 78.6593 28.0918 79.6138 28.0909 80.6087C28.0899 81.6035 27.6938 82.5573 26.9897 83.2601C26.2855 83.963 25.331 84.3573 24.3361 84.3563C23.3412 84.3554 22.3875 83.9593 21.6847 83.2551C17.145 78.7055 13.7686 73.129 11.8411 66.9978C9.91367 60.8665 9.49202 54.3611 10.6119 48.0324C11.7317 41.7036 14.3601 35.7379 18.2744 30.6403C22.1888 25.5428 27.2738 21.4635 33.099 18.7479C38.9242 16.0323 45.3179 14.7604 51.7389 15.0398C58.1599 15.3192 64.419 17.1417 69.9863 20.353C75.5536 23.5644 80.2651 28.0699 83.7218 33.4882C87.1786 38.9065 89.2788 45.078 89.8447 51.4801C87.7564 48.4576 84.6327 46.3052 81.0647 45.4301C79.0163 38.7903 74.8948 32.9814 69.3042 28.8548C63.7137 24.7283 56.9482 22.5012 49.9997 22.5001ZM73.1847 45.6301C71.0044 40.2567 67.0247 35.8078 61.9263 33.0448C56.828 30.2817 50.9279 29.3762 45.2356 30.4831C39.5434 31.59 34.4126 34.6406 30.7212 39.1129C27.0299 43.5852 25.0073 49.2012 24.9997 55.0001C24.9997 61.8851 27.7897 68.1301 32.2897 72.6501C32.9925 73.3549 33.9465 73.7517 34.9419 73.7531C35.9372 73.7545 36.8923 73.3604 37.5972 72.6576C38.302 71.9548 38.6987 71.0008 38.7001 70.0054C38.7015 69.0101 38.3075 68.0549 37.6047 67.3501C35.7377 65.4755 34.32 63.2019 33.4583 60.7004C32.5967 58.199 32.3134 55.5346 32.6298 52.9079C32.9463 50.2812 33.8542 47.7603 35.2853 45.5351C36.7164 43.3098 38.6335 41.438 40.8923 40.0604C43.1511 38.6828 45.6928 37.8353 48.3264 37.5816C50.9599 37.3279 53.6167 37.6747 56.0969 38.5958C58.5771 39.517 60.8162 40.9885 62.6458 42.8997C64.4753 44.8109 65.8477 47.1121 66.6597 49.6301C68.4522 47.755 70.7004 46.3768 73.1847 45.6301ZM39.9997 55.0001C39.9997 52.348 41.0532 49.8044 42.9286 47.9291C44.804 46.0537 47.3475 45.0001 49.9997 45.0001C52.6518 45.0001 55.1954 46.0537 57.0707 47.9291C58.9461 49.8044 59.9997 52.348 59.9997 55.0001C59.9997 57.6523 58.9461 60.1958 57.0707 62.0712C55.1954 63.9466 52.6518 65.0001 49.9997 65.0001C47.3475 65.0001 44.804 63.9466 42.9286 62.0712C41.0532 60.1958 39.9997 57.6523 39.9997 55.0001ZM87.4997 60.0001C87.4997 62.6523 86.4461 65.1958 84.5707 67.0712C82.6954 68.9466 80.1518 70.0001 77.4997 70.0001C74.8475 70.0001 72.304 68.9466 70.4286 67.0712C68.5532 65.1958 67.4997 62.6523 67.4997 60.0001C67.4997 57.348 68.5532 54.8044 70.4286 52.9291C72.304 51.0537 74.8475 50.0001 77.4997 50.0001C80.1518 50.0001 82.6954 51.0537 84.5707 52.9291C86.4461 54.8044 87.4997 57.348 87.4997 60.0001ZM94.9997 82.5001C94.9997 88.7251 89.9997 95.0001 77.4997 95.0001C64.9997 95.0001 59.9997 88.7501 59.9997 82.5001C59.9997 80.511 60.7898 78.6033 62.1964 77.1968C63.6029 75.7903 65.5105 75.0001 67.4997 75.0001H87.4997C89.4888 75.0001 91.3964 75.7903 92.803 77.1968C94.2095 78.6033 94.9997 80.511 94.9997 82.5001Z" fill="#383838"/>
</svg>
