<svg width="479" height="488" viewBox="0 0 479 488" fill="none" xmlns="http://www.w3.org/2000/svg">
<rect width="478.812" height="486.911" transform="translate(0 0.255859)" fill="#605F5F"/>
<path d="M97.2887 291.287C97.9135 295.633 97.6878 300.059 96.6241 304.319C96.1257 306.291 95.4586 308.218 94.6302 310.076C93.5973 312.456 92.5105 314.782 92.771 317.396C93.0225 317.557 92.1603 317.531 92.1333 317.279C85.1637 313.309 76.2271 312.582 70.8651 306.097C68.4434 302.939 66.9142 299.189 66.4372 295.238C65.6396 290.895 65.7251 286.435 66.6887 282.125C67.5869 278.587 69.6795 275.183 72.9758 273.449C76.272 271.716 80.9603 271.815 84.5529 272.928C92.3129 275.353 96.2289 283.751 97.2887 291.287Z" fill="#383838"/>
<path d="M100.86 342.895C99.9075 339.721 98.9494 336.554 97.9854 333.392C96.0724 327.195 94.0785 321.025 91.887 314.926C90.5697 311.28 89.1776 307.663 87.7106 304.077C87.8733 301.818 88.1521 299.57 88.5459 297.34C89.1297 294.646 89.9739 292.032 90.7643 289.383C90.7643 289.221 90.5487 289.14 90.4769 289.293C88.9141 292.931 86.8843 297.592 86.8214 301.912C85.1209 297.852 83.2947 293.856 81.3427 289.922C81.1215 286.591 81.2237 283.246 81.6481 279.934C81.651 279.919 81.6509 279.903 81.6478 279.888C81.6446 279.873 81.6385 279.858 81.6297 279.845C81.621 279.832 81.6098 279.821 81.5967 279.813C81.5837 279.804 81.5691 279.798 81.5538 279.795C81.5384 279.792 81.5227 279.792 81.5074 279.795C81.4921 279.799 81.4775 279.805 81.4646 279.813C81.4517 279.822 81.4406 279.833 81.432 279.846C81.4234 279.859 81.4175 279.874 81.4145 279.889C80.8225 282.787 80.5932 285.746 80.7319 288.7C79.232 285.745 77.6603 282.826 75.9807 279.952C75.828 279.692 75.4688 279.952 75.6035 280.213C78.2201 285.254 80.6631 290.389 82.9324 295.616C79.7219 292.844 76.0121 290.71 72.0019 289.329C71.8313 289.266 71.6965 289.518 71.8762 289.589C76.2531 291.468 80.2567 294.117 83.6958 297.412C85.3305 301.232 86.8903 305.083 88.3752 308.963C84.0192 304.687 78.0465 301.876 72.2803 300.367C72.0828 300.367 72.0289 300.619 72.2175 300.673C78.8997 302.684 84.091 306.475 89.1656 311.019C89.7584 312.591 90.3332 314.163 90.908 315.744C93.0516 321.731 95.0994 327.737 97.0513 333.76C97.9974 336.665 98.9195 339.566 99.8177 342.464C100.797 345.589 101.56 348.885 102.826 351.903C102.943 352.191 103.464 352.128 103.401 351.786C102.708 348.781 101.859 345.813 100.86 342.895Z" fill="#263238"/>
<path d="M89.3008 285.188C88.0569 287.097 87.2051 289.234 86.7949 291.475C86.7949 291.529 86.8668 291.565 86.8937 291.475C87.6624 289.376 88.5623 287.327 89.5882 285.34C89.7139 285.134 89.4175 285.008 89.3008 285.188Z" fill="#263238"/>
<path d="M76.8699 299.712C74.9211 298.63 72.7901 297.914 70.5828 297.602C70.52 297.602 70.484 297.682 70.5828 297.7C71.5888 298.122 72.6396 298.41 73.6635 298.805C74.6874 299.2 75.6754 299.703 76.7082 300.036C76.7511 300.057 76.8007 300.061 76.8462 300.045C76.8917 300.03 76.9293 299.998 76.9507 299.955C76.9722 299.912 76.9757 299.862 76.9605 299.817C76.9454 299.771 76.9128 299.734 76.8699 299.712Z" fill="#263238"/>
<path d="M73.3677 282.243C72.7395 281.764 72.0656 281.349 71.3559 281.003C71.3337 280.996 71.3099 280.996 71.2878 281.004C71.2658 281.011 71.2468 281.026 71.2337 281.045C71.2205 281.064 71.214 281.087 71.2149 281.11C71.2159 281.134 71.2244 281.156 71.2391 281.174C71.857 281.669 72.5218 282.102 73.224 282.467C73.3498 282.539 73.4935 282.324 73.3677 282.243Z" fill="#263238"/>
<path d="M120.782 314.961C115.761 316.443 110.714 317.826 105.693 319.299C105.262 319.425 96.7744 303.132 99.8461 294.798C101.308 291.002 103.598 287.581 106.55 284.784C109.503 281.988 113.042 279.885 116.911 278.631C120.504 277.418 124.896 276.395 128.686 277.23C132.054 277.975 134.434 280.724 135.521 283.894C137.012 288.196 136.518 293.325 135.709 297.726C135.064 301.849 133.362 305.736 130.769 309.006C128.093 312.15 124.689 313.794 120.782 314.961Z" fill="#383838"/>
<path opacity="0.1" d="M120.782 314.961C115.761 316.443 110.714 317.826 105.693 319.299C105.262 319.425 96.7744 303.132 99.8461 294.798C101.308 291.002 103.598 287.581 106.55 284.784C109.503 281.988 113.042 279.885 116.911 278.631C120.504 277.418 124.896 276.395 128.686 277.23C132.054 277.975 134.434 280.724 135.521 283.894C137.012 288.196 136.518 293.325 135.709 297.726C135.064 301.849 133.362 305.736 130.769 309.006C128.093 312.15 124.689 313.794 120.782 314.961Z" fill="black"/>
<path d="M128.057 299.505C124.874 301.059 121.57 302.354 118.178 303.376C115.927 303.986 113.731 304.783 111.612 305.756C113.732 301.031 116.103 296.406 118.519 291.825C121.887 290.983 125.016 289.376 127.662 287.128C127.682 287.102 127.693 287.07 127.692 287.038C127.691 287.005 127.68 286.973 127.659 286.948C127.638 286.923 127.609 286.906 127.577 286.899C127.545 286.893 127.512 286.897 127.482 286.912C124.781 288.648 121.903 290.09 118.896 291.215C119.573 289.981 120.249 288.751 120.926 287.523C121.124 287.182 120.648 286.841 120.423 287.173C117.767 291.001 115.367 295.001 113.238 299.145C112.703 295.516 112.532 291.842 112.726 288.179C112.726 288.16 112.718 288.142 112.705 288.128C112.691 288.115 112.673 288.107 112.654 288.107C112.635 288.107 112.617 288.115 112.603 288.128C112.59 288.142 112.582 288.16 112.582 288.179C111.955 292.179 111.997 296.255 112.708 300.241C110.912 303.753 109.34 307.354 107.903 311.019C107.328 308.827 106.583 306.672 106.106 304.462C105.343 301.301 105.101 298.037 105.388 294.798C105.388 294.708 105.253 294.699 105.235 294.798C104.352 300.794 105.08 306.916 107.346 312.537C106.502 314.728 105.702 316.929 104.975 319.138C101.188 330.39 98.9465 342.104 98.3105 353.959C98.3206 354.008 98.3471 354.052 98.3855 354.083C98.424 354.114 98.472 354.131 98.5216 354.131C98.5712 354.131 98.6192 354.114 98.6577 354.083C98.6961 354.052 98.7226 354.008 98.7327 353.959C100.053 342.261 102.566 330.729 106.232 319.542C107.687 315.168 109.367 310.92 111.199 306.753C114.163 305.854 117.118 304.687 120.028 303.672C122.942 302.803 125.692 301.455 128.165 299.684C128.264 299.603 128.156 299.451 128.057 299.505Z" fill="#263238"/>
<path d="M132.737 294.779C129.665 295.875 126.755 297.402 123.693 298.507C123.549 298.561 123.63 298.785 123.774 298.758C127.016 298.085 130.24 297.088 132.854 294.959C132.953 294.878 132.845 294.743 132.737 294.779Z" fill="#263238"/>
<path d="M107.67 288.161C107.67 288 107.472 287.901 107.419 288.072C106.583 290.901 105.999 293.901 106.817 296.793C106.817 296.821 106.828 296.849 106.848 296.869C106.869 296.889 106.896 296.9 106.925 296.9C106.953 296.9 106.981 296.889 107.001 296.869C107.021 296.849 107.032 296.821 107.032 296.793C107.185 293.865 107.005 291.036 107.67 288.161Z" fill="#263238"/>
<path d="M120.353 281.622C119.376 283.03 118.907 284.727 119.023 286.436C119.023 286.544 119.203 286.607 119.23 286.481C119.607 284.856 120.227 283.383 120.73 281.811C120.742 281.763 120.738 281.712 120.717 281.667C120.697 281.622 120.662 281.586 120.618 281.564C120.573 281.542 120.523 281.535 120.475 281.546C120.426 281.557 120.383 281.584 120.353 281.622Z" fill="#263238"/>
<path d="M61.073 322.129C62.5459 326.799 66.0487 333.257 71.5813 333.302C75.1739 333.302 78.7665 332.915 82.3592 332.861C86.2122 332.808 90.0743 332.817 93.9184 333.041C94.2327 333.041 93.4513 321.5 84.1914 315.877C81.6047 314.297 78.4252 313.803 75.4883 313.183C72.1186 312.38 68.6583 312.02 65.1955 312.114C63.0669 312.195 61.2975 312.644 60.5431 314.809C59.7886 316.973 60.3724 319.91 61.073 322.129Z" fill="#383838"/>
<path d="M65.0612 316.282C67.3155 316.865 69.5519 317.53 71.8422 318.249C71.2547 317.614 70.631 317.015 69.9741 316.452C68.985 315.681 67.9567 314.962 66.8934 314.297C66.8126 314.234 66.8934 314.072 66.9742 314.117C69.1656 315.022 71.0581 316.525 72.435 318.455C75.2462 319.353 78.0395 320.368 80.7249 321.473C82.5767 322.232 84.3512 323.168 86.024 324.266C85.4907 323.096 84.8503 321.978 84.111 320.925C82.8805 319.335 81.2189 318.446 79.6202 317.333C79.5869 317.312 79.5629 317.28 79.5537 317.242C79.5444 317.204 79.5506 317.164 79.5708 317.13C79.5911 317.097 79.6237 317.073 79.6616 317.064C79.6995 317.055 79.7395 317.061 79.7729 317.081C81.4476 317.818 82.9509 318.894 84.1878 320.243C85.4246 321.591 86.368 323.181 86.9581 324.913C88.8851 326.298 90.6479 327.898 92.2123 329.682C98.3377 336.643 103.161 345.903 103.179 355.351C103.179 355.576 102.819 355.639 102.775 355.405C101.204 346.145 97.1709 337.477 91.0986 330.311C90.6585 329.799 90.2004 329.314 89.7513 328.838C88.0721 328.609 86.3804 328.483 84.6858 328.461C82.7188 328.461 80.7609 328.757 78.7939 328.91C75.5695 329.179 71.9949 329.215 69.0759 327.589C68.9502 327.518 69.031 327.293 69.1747 327.347C75.6773 329.709 82.4943 326.709 89.0149 328.119C86.2328 325.464 82.9716 323.361 79.4046 321.922L78.8029 321.68C74.6355 322.183 70.2255 323.269 66.1659 321.913C66.1437 321.904 66.1256 321.887 66.1152 321.865C66.1047 321.843 66.1026 321.818 66.1093 321.795C66.1159 321.772 66.1308 321.752 66.1512 321.739C66.1715 321.726 66.1959 321.721 66.2198 321.724C70.1447 322.703 73.908 321.473 77.779 321.275C73.5667 319.632 69.2645 318.32 65.0342 316.695C64.684 316.515 64.675 316.183 65.0612 316.282Z" fill="#263238"/>
<path d="M63.2179 320.441C65.2322 320.701 67.2589 320.854 69.2894 320.899C69.3343 320.899 69.3523 320.971 69.2894 320.98C67.2442 321.361 65.1364 321.228 63.155 320.594C63.0742 320.522 63.1191 320.378 63.2179 320.441Z" fill="#263238"/>
<path d="M76.9361 316.39C78.0601 316.891 79.0805 317.598 79.9449 318.474C80.0527 318.573 79.9449 318.761 79.7922 318.672C79.2803 318.303 78.7593 317.953 78.2294 317.612C77.724 317.342 77.2351 317.042 76.7654 316.714C76.7226 316.691 76.6904 316.652 76.6761 316.606C76.6618 316.56 76.6665 316.51 76.6891 316.467C76.7117 316.424 76.7505 316.392 76.7968 316.377C76.8431 316.363 76.8932 316.368 76.9361 316.39Z" fill="#263238"/>
<path d="M109.633 331.425C109.561 331.577 109.786 331.721 109.867 331.559C109.882 331.585 109.903 331.606 109.928 331.621C109.953 331.637 109.981 331.647 110.01 331.649C113.739 332.539 117.518 333.199 121.327 333.625C124.39 333.895 127.919 334.065 130.596 332.287C134.189 329.88 136.623 323.449 134.656 319.354C132.329 314.495 125.333 317.135 121.821 318.86C116.419 321.501 112.108 325.945 109.633 331.425Z" fill="#383838"/>
<path opacity="0.1" d="M109.633 331.425C109.561 331.577 109.786 331.721 109.867 331.559C109.882 331.585 109.903 331.606 109.928 331.621C109.953 331.637 109.981 331.647 110.01 331.649C113.739 332.539 117.518 333.199 121.327 333.625C124.39 333.895 127.919 334.065 130.596 332.287C134.189 329.88 136.623 323.449 134.656 319.354C132.329 314.495 125.333 317.135 121.821 318.86C116.419 321.501 112.108 325.945 109.633 331.425Z" fill="black"/>
<path d="M106.915 333.67C108.961 331.696 111.231 329.969 113.678 328.523C115.434 325.735 117.768 323.355 120.522 321.545C120.657 321.455 120.773 321.661 120.648 321.76C118.459 323.516 116.517 325.558 114.873 327.832C117.601 326.343 120.435 325.055 123.351 323.979C124.389 322.044 125.973 320.458 127.905 319.416C127.905 319.416 127.986 319.416 127.905 319.479C126.312 320.687 124.923 322.143 123.791 323.79C125.516 323.143 127.258 322.551 128.992 321.994C129.153 321.94 129.207 322.173 129.063 322.236C125.965 323.44 122.776 324.715 119.741 326.188C123.48 326.785 127.291 326.785 131.03 326.188C131.129 326.188 131.174 326.323 131.03 326.35C127.128 327.504 122.984 327.566 119.049 326.529C117.093 327.481 115.195 328.545 113.364 329.718C114.906 329.586 116.46 329.711 117.962 330.086C120.612 330.704 123.325 331.006 126.046 330.984C126.153 330.984 126.18 331.146 126.046 331.164C121.366 331.972 116.938 329.844 112.295 330.4C107.149 333.871 103.042 338.673 100.412 344.295C98.4634 348.265 97.4036 352.477 95.8229 356.591C95.8066 356.621 95.7801 356.646 95.7481 356.66C95.716 356.673 95.6801 356.676 95.6465 356.666C95.6129 356.657 95.5835 356.636 95.5633 356.608C95.5431 356.579 95.5333 356.545 95.5355 356.51C96.9905 348.372 101.014 339.445 106.915 333.67Z" fill="#263238"/>
<path d="M121.043 322.56C121.352 322.008 121.756 321.515 122.238 321.105C122.631 320.678 123.1 320.328 123.621 320.072C123.621 320.072 123.693 320.117 123.621 320.153C123.235 320.584 122.723 320.908 122.292 321.321C121.861 321.734 121.528 322.219 121.106 322.65C121.096 322.649 121.086 322.646 121.077 322.641C121.068 322.635 121.06 322.628 121.054 322.62C121.048 322.611 121.044 322.601 121.042 322.591C121.04 322.581 121.041 322.57 121.043 322.56Z" fill="#263238"/>
<path d="M128.757 325.076C129.458 324.905 130.194 324.914 130.895 324.77C131.597 324.601 132.289 324.394 132.97 324.151C132.99 324.142 133.012 324.142 133.033 324.151C133.053 324.159 133.069 324.175 133.077 324.196C133.086 324.216 133.086 324.239 133.077 324.259C133.069 324.279 133.053 324.295 133.032 324.303C131.753 325.089 130.252 325.436 128.757 325.291C128.649 325.273 128.658 325.103 128.757 325.076Z" fill="#263238"/>
<path d="M87.6211 346.496L88.2408 353.475L90.3245 377.033H108.782L111.386 353.475L112.159 346.496H87.6211Z" fill="#455A64"/>
<path d="M87.6211 346.496L88.2408 353.475H111.386L112.159 346.496H87.6211Z" fill="#263238"/>
<path d="M85.7984 350.25H113.982V344.592H85.7984V350.25Z" fill="#455A64"/>
<path d="M258.975 427.166C308.799 427.166 349.189 423.926 349.189 419.93C349.189 415.933 308.799 412.693 258.975 412.693C209.152 412.693 168.762 415.933 168.762 419.93C168.762 423.926 209.152 427.166 258.975 427.166Z" fill="#383838"/>
<path d="M434.296 204.355H162.004V377.034H434.296V204.355Z" fill="#383838"/>
<g opacity="0.1">
<path d="M434.3 204.355H162.008V377.034H434.3V204.355Z" fill="black"/>
</g>
<path d="M162.004 204.355H434.287V241.467L323.213 313.714C315.758 318.563 307.057 321.144 298.164 321.144C289.271 321.144 280.569 318.563 273.114 313.714L162.004 241.467V204.355Z" fill="#383838"/>
<path opacity="0.2" d="M162.004 204.355H434.287V241.467L323.213 313.714C315.758 318.563 307.057 321.144 298.164 321.144C289.271 321.144 280.569 318.563 273.114 313.714L162.004 241.467V204.355Z" fill="black"/>
<g opacity="0.1">
<path d="M401.003 354.302C412.087 361.909 423.296 369.31 434.289 377.034C422.613 370.414 411.108 363.463 399.53 356.673C387.953 349.883 376.448 342.895 365.023 335.818C353.144 328.578 341.267 321.244 329.394 313.813L327.876 314.81C325.015 316.79 322.014 318.558 318.894 320.1C309.117 324.715 298.076 325.926 287.531 323.54C284.059 322.722 280.674 321.567 277.427 320.091C274.307 318.551 271.305 316.783 268.445 314.801L266.954 313.822C255.081 321.229 243.186 328.575 231.271 335.862C219.822 342.85 208.338 349.787 196.818 356.673C185.205 363.463 173.717 370.414 162.023 377.034C173.017 369.31 184.226 361.909 195.309 354.302C206.47 346.865 217.673 339.449 228.918 332.054C239.941 324.869 250.979 317.717 262.033 310.597L260.146 309.331L243.62 298.284L235.366 292.751L227.148 287.156C205.216 272.264 183.426 257.166 162.023 241.467C185.052 254.661 207.694 268.411 230.202 282.458L238.645 287.695L247.051 293.003L263.856 303.628C265.365 304.571 266.856 305.532 268.347 306.493L272.218 308.99C272.622 309.259 273.026 309.52 273.421 309.762C275.641 311.243 277.964 312.564 280.373 313.714C283.167 314.956 286.076 315.921 289.058 316.597C292.053 317.205 295.1 317.524 298.156 317.549C304.296 317.579 310.37 316.277 315.958 313.732C318.367 312.575 320.693 311.252 322.918 309.771C323.313 309.529 323.709 309.268 324.113 309.008L327.939 306.538C329.448 305.568 330.957 304.598 332.483 303.646C343.692 296.586 354.838 289.419 366.128 282.476C388.636 268.465 411.278 254.634 434.298 241.467C412.895 257.157 391.106 272.264 369.173 287.156C358.251 294.655 347.177 301.948 336.184 309.331C335.555 309.753 334.926 310.175 334.289 310.589C345.378 317.702 356.431 324.887 367.449 332.144C378.639 339.419 389.839 346.865 401.003 354.302Z" fill="black"/>
</g>
<path d="M385.949 377.034H113.666V146.703L249.79 60.2559L385.949 146.703V377.034Z" fill="#383838"/>
<path opacity="0.1" d="M371.812 376.613H127.803V154.176L249.79 76.7109L371.812 154.176V376.613Z" fill="black"/>
<path d="M376.88 152.828H122.748V376.477H376.88V152.828Z" fill="#EBEBEB"/>
<path d="M161.581 212.879L290.627 212.879V205.64L161.581 205.64V212.879Z" fill="#DBDBDB"/>
<path d="M300.824 188.502H340.504V181.263H300.824V188.502Z" fill="#DBDBDB"/>
<path d="M161.591 231.156L283.703 231.156V223.917L161.591 223.917V231.156Z" fill="#DBDBDB"/>
<path d="M161.583 267.711H340.504V260.472H161.583V267.711Z" fill="#DBDBDB"/>
<path d="M161.583 285.979H340.504V278.739H161.583V285.979Z" fill="#DBDBDB"/>
<path d="M161.583 304.256H340.504V297.017H161.583V304.256Z" fill="#DBDBDB"/>
<path d="M161.583 322.525H340.504V315.286H161.583V322.525Z" fill="#DBDBDB"/>
<path d="M385.949 204.355V377.025H113.666V204.355C125.342 210.984 136.847 217.936 148.424 224.726C160.002 231.516 171.48 238.539 182.931 245.572C195.685 253.356 208.43 261.235 221.166 269.211C221.291 269.13 221.453 269.049 221.57 268.968C221.453 269.049 221.372 269.166 221.247 269.247C230.779 275.187 240.305 281.144 249.826 287.12C259.319 281.147 268.84 275.139 278.369 269.247C278.243 269.166 278.162 269.049 278.046 268.968C278.171 269.052 278.307 269.119 278.45 269.166C291.168 261.232 303.912 253.356 316.684 245.536C328.138 238.536 339.629 231.599 351.155 224.726C362.768 217.936 374.255 210.984 385.949 204.355Z" fill="#383838"/>
<g opacity="0.1">
<path d="M385.947 204.355C374.954 212.089 363.745 219.489 352.662 227.097C341.498 234.533 330.298 241.979 319.053 249.335C307.311 257.023 295.548 264.642 283.764 272.193C283.396 272.444 283.073 272.687 282.705 272.929C272.274 279.594 261.82 286.258 251.341 292.922L249.805 293.865L248.287 292.922C237.827 286.258 227.388 279.582 216.969 272.893C216.601 272.687 216.233 272.444 215.864 272.193C204.045 264.63 192.267 256.999 180.531 249.299C169.331 241.979 158.131 234.533 146.967 227.097C135.884 219.489 124.675 212.089 113.682 204.355C125.358 210.984 136.863 217.936 148.44 224.726C160.017 231.516 171.496 238.539 182.947 245.572C195.701 253.356 208.446 261.235 221.181 269.211C221.181 269.211 221.181 269.211 221.262 269.211C230.795 275.151 240.321 281.108 249.841 287.084C259.335 281.111 268.855 275.103 278.385 269.211C278.429 269.13 278.429 269.13 278.465 269.13C291.183 261.196 303.928 253.32 316.7 245.5C328.154 238.5 339.644 231.563 351.171 224.69C362.766 217.936 374.253 210.984 385.947 204.355Z" fill="black"/>
<path d="M221.567 268.969C221.45 269.05 221.369 269.166 221.243 269.247C219.815 270.478 218.378 271.708 216.95 272.894C210.124 278.66 203.128 284.174 196.014 289.536C187.347 296.192 178.473 302.479 169.555 308.766C160.636 315.053 151.592 321.07 142.404 326.962C133.215 332.854 123.92 338.638 114.318 343.892C122.572 336.653 131.159 329.908 139.826 323.325C148.493 316.741 157.412 310.382 166.276 304.086C175.141 297.79 184.239 291.737 193.472 285.854C200.792 281.148 208.229 276.531 215.836 272.193C217.633 271.169 219.348 270.19 221.153 269.211C221.288 269.13 221.45 269.05 221.567 268.969Z" fill="black"/>
<path d="M385.291 343.919C375.69 338.638 366.367 332.872 357.206 326.989C348.045 321.106 339.009 314.963 330.01 308.766C321.01 302.569 312.227 296.192 303.559 289.536C296.482 284.147 289.485 278.696 282.704 272.93C281.231 271.708 279.794 270.478 278.366 269.247C278.241 269.166 278.16 269.05 278.043 268.969C278.168 269.052 278.304 269.119 278.447 269.166C280.243 270.19 282.04 271.169 283.764 272.193C291.372 276.531 298.772 281.175 306.128 285.854C315.37 291.701 324.352 297.871 333.279 304.086C342.207 310.302 351.072 316.723 359.739 323.352C368.406 329.98 377.037 336.68 385.291 343.919Z" fill="black"/>
</g>
<path d="M385.949 377.025H113.666V339.932L224.74 267.684C232.196 262.838 240.897 260.258 249.79 260.258C258.682 260.258 267.384 262.838 274.839 267.684L385.949 339.932V377.025Z" fill="#383838"/>
<path d="M59.7344 377.088L107.256 376.872L154.768 376.791L249.81 376.639L344.852 376.791L392.374 376.872L439.886 377.088L392.374 377.312L344.852 377.384L249.81 377.537L154.768 377.384L107.256 377.303L59.7344 377.088Z" fill="#263238"/>
<path d="M201.216 411.739C201.054 413.831 207.036 414.433 209.533 413.077C211.55 411.625 213.47 410.044 215.281 408.344C221.281 403.045 229.562 395.294 229.562 395.294L235.705 398.051L265.694 408.038L278.34 375.31C278.34 375.31 263.835 369.175 250.031 363.679L243.788 361.218L243.411 361.074C234.151 357.481 226.481 354.787 225.691 355.371C223.571 356.844 201.378 409.628 201.216 411.739Z" fill="#F7A9A0"/>
<path d="M201.216 411.73C201.054 413.831 207.036 414.424 209.533 413.077C211.55 411.625 213.47 410.044 215.281 408.344C221.281 403.054 229.571 395.294 229.571 395.294L235.705 398.051L236.702 398.383L250.48 363.849L250.04 363.67L243.753 361.227C243.627 361.164 243.492 361.119 243.375 361.074C234.115 357.481 226.445 354.787 225.655 355.371C223.571 356.844 201.378 409.628 201.216 411.73Z" fill="#EBEBEB"/>
<path d="M200.69 412.503C200.816 410.356 222.749 356.332 224.895 354.806C225.695 354.213 233.751 356.952 243.397 360.536L243.693 360.652L229.934 395.68L229.35 395.42C229.35 395.42 211.71 412.35 209.178 413.778C206.645 415.206 200.546 414.649 200.69 412.503Z" fill="#C7C7C7"/>
<path d="M203.03 412.744C206.946 403.763 221.892 366.993 225.098 357.778C225.098 357.706 225.098 357.688 225.044 357.778C220.967 366.624 206.3 403.485 202.878 412.7C202.806 412.879 202.941 412.951 203.03 412.744Z" fill="#263238"/>
<path d="M228.253 399.479C230.373 396.165 231.603 391.557 230.166 387.803C230.112 387.659 229.897 387.74 229.888 387.866C229.608 391.741 228.909 395.574 227.804 399.299C227.798 399.354 227.811 399.408 227.839 399.455C227.867 399.502 227.91 399.538 227.961 399.559C228.012 399.579 228.068 399.582 228.12 399.568C228.173 399.553 228.22 399.522 228.253 399.479Z" fill="#263238"/>
<path d="M225.647 401.464C227.775 398.15 229.006 393.542 227.56 389.788C227.506 389.635 227.299 389.716 227.29 389.851C227 393.722 226.302 397.551 225.206 401.275C225.192 401.331 225.199 401.39 225.224 401.442C225.25 401.493 225.293 401.534 225.346 401.557C225.399 401.58 225.458 401.583 225.514 401.566C225.569 401.549 225.616 401.512 225.647 401.464Z" fill="#263238"/>
<path d="M223.042 403.414C225.162 400.1 226.392 395.501 224.955 391.738C224.901 391.594 224.686 391.675 224.677 391.81C224.397 395.682 223.698 399.513 222.593 403.234C222.588 403.289 222.6 403.343 222.628 403.39C222.656 403.437 222.699 403.473 222.75 403.494C222.801 403.514 222.857 403.517 222.909 403.503C222.962 403.488 223.009 403.457 223.042 403.414Z" fill="#263238"/>
<path d="M234.188 407.339C236.694 406.719 236.883 403.746 236.236 401.735C235.057 398.314 233.001 395.264 230.272 392.888C230.262 392.875 230.249 392.864 230.235 392.857C230.22 392.85 230.204 392.846 230.187 392.846C230.171 392.846 230.154 392.85 230.14 392.857C230.125 392.864 230.112 392.875 230.102 392.888C230.033 392.856 229.957 392.841 229.881 392.844C229.805 392.848 229.731 392.869 229.665 392.907C229.599 392.945 229.543 392.998 229.502 393.062C229.461 393.125 229.435 393.198 229.428 393.274C229.329 396.678 228.79 400.297 229.734 403.639C230.281 405.615 231.844 407.932 234.188 407.339ZM230.326 398.492C230.326 396.813 230.434 395.151 230.38 393.472C231.592 395.164 232.717 396.918 233.748 398.726C234.241 399.591 234.671 400.492 235.033 401.42C235.572 402.875 235.931 407.941 232.248 405.713C230.219 404.519 230.317 400.486 230.326 398.492Z" fill="#263238"/>
<path d="M234.907 384.157C232.446 386.6 231.135 390.022 229.518 393.04C229.488 393.109 229.475 393.185 229.479 393.26C229.484 393.336 229.507 393.409 229.545 393.474C229.584 393.539 229.638 393.593 229.702 393.634C229.766 393.674 229.838 393.698 229.913 393.705C229.914 393.721 229.919 393.737 229.926 393.751C229.934 393.765 229.944 393.778 229.957 393.788C229.97 393.798 229.984 393.806 230 393.81C230.016 393.814 230.032 393.815 230.048 393.812C233.592 393.08 236.881 391.429 239.587 389.025C241.14 387.597 242.434 384.912 240.548 383.133C238.661 381.355 236.335 382.729 234.907 384.157ZM238.114 383.574C242.416 383.439 239.622 387.678 238.437 388.684C237.657 389.322 236.834 389.907 235.976 390.435C234.19 391.501 232.349 392.472 230.461 393.345C231.359 391.917 232.069 390.417 232.877 388.953C233.847 387.211 235.751 383.654 238.132 383.574H238.114Z" fill="#263238"/>
<path opacity="0.1" d="M200.69 412.503C200.546 414.649 206.654 415.197 209.178 413.769C211.701 412.341 229.35 395.411 229.35 395.411L229.934 395.671L240.828 367.99L219.407 366.068C212.213 382.415 200.78 410.958 200.69 412.503Z" fill="black"/>
<path d="M241.156 404.104C241.156 404.104 306.389 419.068 330.334 414.747C341.812 412.682 350.093 397.916 344.578 386.599C339.432 376.046 307.961 365.331 299.069 359.125C296.267 357.176 296.572 349.461 296.572 349.461L273.22 349.146C273.22 349.146 264.903 362.376 268.424 368.816C268.483 368.927 268.553 369.032 268.631 369.13L258.095 365.125L241.156 404.104Z" fill="#263238"/>
<path d="M255.589 386.474C258.185 380.824 261.041 375.31 263.673 369.687C263.727 369.579 263.897 369.633 263.852 369.75C261.356 375.417 259.056 381.157 256.461 386.815C253.865 392.473 251.072 397.988 248.314 403.574C248.252 403.718 248.018 403.637 248.081 403.494C250.605 397.808 253.003 392.096 255.589 386.474Z" fill="#455A64"/>
<path d="M268.462 369.401C270.079 370.344 271.615 371.431 273.177 372.437C274.74 373.443 276.267 374.422 277.848 375.356C281.036 377.251 284.296 379.029 287.602 380.745C294.256 384.157 301.134 387.116 308.187 389.601C312.112 390.984 316.091 392.295 320.133 393.337C320.223 393.337 320.133 393.49 320.133 393.472C317.187 392.762 314.241 392.07 311.331 391.253C312.876 392.223 314.394 393.238 315.92 394.226C315.931 394.229 315.941 394.234 315.95 394.241C315.958 394.249 315.965 394.258 315.969 394.269C315.974 394.279 315.975 394.29 315.974 394.302C315.973 394.313 315.97 394.324 315.964 394.333C315.958 394.343 315.95 394.351 315.94 394.357C315.931 394.363 315.92 394.366 315.909 394.367C315.897 394.368 315.886 394.366 315.876 394.362C315.865 394.358 315.856 394.351 315.849 394.343C314.169 393.328 312.472 392.358 310.801 391.316C310.782 391.304 310.766 391.289 310.753 391.27C310.74 391.252 310.732 391.231 310.727 391.209C310.723 391.187 310.723 391.165 310.728 391.143C310.733 391.121 310.743 391.1 310.756 391.083C310.262 390.939 309.759 390.804 309.265 390.651C305.673 389.538 302.08 388.28 298.604 386.87C291.686 384.084 285.019 380.712 278.674 376.793C276.878 375.679 275.111 374.536 273.375 373.362C271.62 372.232 269.94 370.99 268.345 369.644C268.175 369.509 268.336 369.329 268.462 369.401Z" fill="#455A64"/>
<path d="M176.159 419.741C175.998 421.834 181.979 422.436 184.476 421.08C186.495 419.631 188.418 418.053 190.233 416.355C196.224 411.056 204.505 403.296 204.505 403.296L210.648 406.063L239.74 416.014L253.32 383.312C253.32 383.312 238.814 377.169 225.01 371.636C222.89 370.792 220.798 369.975 218.768 369.184L218.391 369.041C209.131 365.448 201.46 362.754 200.67 363.338C198.55 364.855 176.357 417.64 176.159 419.741Z" fill="#F7A9A0"/>
<path d="M176.159 419.742C175.998 421.834 181.979 422.436 184.476 421.08C186.495 419.631 188.418 418.053 190.233 416.356C196.215 411.057 204.514 403.297 204.514 403.297L210.648 406.063L211.466 406.35L225.764 371.996L224.974 371.682C222.854 370.837 220.774 370.02 218.732 369.23C218.597 369.185 218.48 369.131 218.355 369.077C209.095 365.484 201.424 362.79 200.634 363.383C198.55 364.847 176.357 417.64 176.159 419.742Z" fill="#EBEBEB"/>
<path d="M175.648 420.217C175.809 418.071 198.488 364.352 200.652 362.861C201.461 362.278 209.481 365.125 219.073 368.843L219.37 368.96L205.134 403.781L204.55 403.521C204.55 403.521 186.668 420.199 184.117 421.591C181.567 422.984 175.486 422.355 175.648 420.217Z" fill="#C7C7C7"/>
<path d="M177.956 420.488C181.997 411.506 197.463 374.996 200.787 365.835C200.787 365.754 200.787 365.736 200.724 365.835C196.52 374.628 181.351 411.282 177.803 420.452C177.767 420.622 177.902 420.676 177.956 420.488Z" fill="#263238"/>
<path d="M203.399 407.563C205.572 404.285 206.866 399.695 205.473 395.887C205.42 395.743 205.213 395.824 205.195 395.95C204.865 399.819 204.115 403.64 202.959 407.347C202.93 407.406 202.926 407.473 202.947 407.535C202.968 407.596 203.012 407.647 203.071 407.675C203.129 407.704 203.197 407.708 203.258 407.687C203.319 407.666 203.37 407.621 203.399 407.563Z" fill="#263238"/>
<path d="M200.768 409.52C202.932 406.233 204.225 401.644 202.842 397.844C202.788 397.692 202.573 397.773 202.564 397.907C202.228 401.794 201.476 405.633 200.318 409.359C200.317 409.412 200.332 409.463 200.362 409.507C200.392 409.551 200.435 409.584 200.485 409.602C200.534 409.619 200.588 409.621 200.639 409.607C200.69 409.592 200.735 409.562 200.768 409.52Z" fill="#263238"/>
<path d="M198.125 411.434C200.299 408.156 201.592 403.566 200.2 399.758C200.146 399.614 199.939 399.695 199.931 399.821C199.593 403.69 198.84 407.511 197.685 411.218C197.657 411.277 197.652 411.344 197.673 411.406C197.694 411.467 197.739 411.518 197.797 411.546C197.856 411.575 197.923 411.579 197.985 411.558C198.046 411.537 198.097 411.492 198.125 411.434Z" fill="#263238"/>
<path d="M209.22 415.512C211.735 414.928 211.969 411.919 211.349 409.943C210.22 406.502 208.203 403.42 205.502 401.007C205.493 400.994 205.481 400.983 205.467 400.976C205.453 400.969 205.437 400.965 205.421 400.965C205.405 400.965 205.39 400.969 205.376 400.976C205.361 400.983 205.349 400.994 205.34 401.007C205.271 400.975 205.196 400.96 205.12 400.963C205.044 400.966 204.97 400.987 204.904 401.023C204.837 401.06 204.781 401.112 204.738 401.174C204.695 401.237 204.668 401.309 204.658 401.384C204.505 404.779 203.921 408.399 204.819 411.749C205.34 413.734 206.84 416.069 209.22 415.512ZM205.484 406.611C205.484 404.941 205.637 403.27 205.61 401.6C206.741 403.342 207.945 405.031 208.906 406.89C209.381 407.777 209.795 408.695 210.145 409.638C210.666 411.111 210.945 416.168 207.298 413.895C205.295 412.638 205.439 408.605 205.484 406.611Z" fill="#263238"/>
<path d="M210.289 392.34C207.801 394.747 206.436 398.151 204.819 401.151C204.789 401.22 204.776 401.295 204.78 401.371C204.785 401.446 204.808 401.519 204.846 401.584C204.885 401.649 204.938 401.704 205.002 401.744C205.066 401.784 205.139 401.809 205.214 401.815C205.212 401.832 205.214 401.848 205.22 401.863C205.226 401.879 205.235 401.892 205.248 401.903C205.26 401.914 205.275 401.921 205.291 401.925C205.307 401.928 205.324 401.928 205.34 401.923C208.895 401.244 212.209 399.642 214.95 397.28C216.522 395.869 217.851 393.202 215.992 391.406C214.133 389.609 211.708 390.939 210.289 392.34ZM213.513 391.81C217.806 391.729 214.959 395.923 213.765 396.92C212.974 397.542 212.146 398.115 211.286 398.636C209.489 399.731 207.603 400.558 205.726 401.474C206.624 400.046 207.37 398.564 208.205 397.109C209.157 395.375 211.106 391.846 213.477 391.81H213.513Z" fill="#263238"/>
<path d="M288.546 349.309L248.39 348.707C248.39 348.707 239.866 370.379 243.396 376.828C246.926 383.277 283.939 392.483 283.939 392.483L233.085 373.146L216.164 412.108C216.164 412.108 277.993 425.58 310.784 422.239C323.089 420.981 330.813 404.913 323.601 392.6C315.994 379.567 288.474 361.757 288.474 361.757L288.546 349.309Z" fill="#263238"/>
<path d="M234.389 373.037C249.954 380.151 265.654 386.95 281.713 392.878C283.94 393.704 286.174 394.518 288.413 395.321C290.73 396.156 293.039 397.117 295.41 397.782C295.526 397.782 295.464 397.997 295.356 397.961C293.308 397.189 291.179 396.641 289.069 395.958C286.958 395.276 285.009 394.62 282.988 393.919L280.375 393.021L280.905 393.381C281.704 393.91 282.503 394.449 283.294 395.006C284.919 396.147 286.428 397.503 288.135 398.518C288.233 398.581 288.135 398.752 288.036 398.68C286.41 397.53 284.587 396.668 282.916 395.581C282.108 395.051 281.327 394.503 280.536 393.946C279.794 393.467 279.094 392.927 278.444 392.33C275.881 391.414 273.33 390.477 270.791 389.519C262.798 386.465 254.9 383.172 247.098 379.639C242.742 377.672 238.422 375.624 234.165 373.451C233.976 373.325 234.156 372.939 234.389 373.037Z" fill="#455A64"/>
<path d="M229.673 394.144C232.277 388.495 235.124 382.971 237.756 377.349C237.801 377.241 237.981 377.304 237.927 377.412C235.43 383.079 233.131 388.827 230.535 394.477C227.939 400.126 225.146 405.659 222.389 411.245C222.326 411.389 222.092 411.308 222.155 411.155C224.661 405.47 227.086 399.767 229.673 394.144Z" fill="#455A64"/>
<path d="M289.202 362.207C293.624 364.717 297.867 367.529 301.902 370.623C305.925 373.614 309.832 376.766 313.578 380.134C315.455 381.832 317.269 383.601 319.02 385.424C320.721 387.143 322.266 389.01 323.637 391.002C326.072 394.604 327.244 398.913 326.969 403.253C326.808 405.559 326.268 407.823 325.37 409.953C324.405 412.03 323.153 413.962 321.652 415.692C321.598 415.764 321.49 415.692 321.553 415.593C322.958 413.991 324.024 412.121 324.688 410.096C325.389 408.22 325.81 406.249 325.936 404.249C326.212 400.113 325.233 395.99 323.125 392.421C320.655 388.334 317.035 384.939 313.587 381.643C310.026 378.288 306.3 375.114 302.423 372.132C300.243 370.461 298.034 368.829 295.794 367.237C293.558 365.629 291.303 364.093 289.094 362.423C289.082 362.402 289.075 362.379 289.074 362.355C289.073 362.331 289.079 362.307 289.089 362.286C289.1 362.264 289.116 362.246 289.136 362.232C289.155 362.218 289.178 362.21 289.202 362.207Z" fill="#455A64"/>
<path d="M277.526 363.824C280.866 362.794 284.308 362.138 287.792 361.866C291.214 361.48 294.636 361.3 298.085 361.246C298.175 361.246 298.166 361.381 298.085 361.39C294.6 361.695 291.115 362.135 287.657 362.656C284.2 363.177 280.948 363.887 277.571 364.156C277.365 364.174 277.365 363.887 277.526 363.824Z" fill="#455A64"/>
<path d="M250.222 364.299C252.363 364.243 254.499 364.051 256.617 363.724C258.399 363.623 260.127 363.07 261.637 362.117C264.484 359.979 265.643 356.225 266.245 352.866C266.245 352.794 266.397 352.812 266.379 352.866C265.894 356.512 265.733 360.707 262.526 363.15C260.922 364.253 259.022 364.847 257.075 364.856C254.782 364.945 252.486 364.803 250.222 364.434C250.211 364.427 250.201 364.417 250.195 364.405C250.189 364.393 250.186 364.38 250.186 364.367C250.186 364.353 250.189 364.34 250.195 364.328C250.201 364.317 250.211 364.307 250.222 364.299Z" fill="#455A64"/>
<path d="M245.804 370.083C246.024 367.962 246.399 365.861 246.927 363.795C247.43 361.676 248.032 359.583 248.723 357.508C249.487 355.164 250.367 352.847 251.292 350.557C251.292 350.476 251.463 350.512 251.427 350.602C250.107 354.473 248.894 358.407 247.888 362.376C247.385 364.343 246.945 366.319 246.541 368.313C246.078 370.232 246.078 372.233 246.541 374.151C247.095 376.102 248.217 377.844 249.765 379.154C248.41 378.084 247.34 376.697 246.649 375.114C245.958 373.532 245.668 371.804 245.804 370.083Z" fill="#455A64"/>
<path d="M238.932 381.992C241.626 382.702 244.321 383.636 246.961 384.498C249.602 385.36 252.296 386.231 254.955 387.121C260.272 388.917 265.58 390.713 270.879 392.554C273.888 393.596 276.879 394.71 279.861 395.797C279.88 395.803 279.896 395.816 279.905 395.834C279.914 395.851 279.916 395.872 279.91 395.891C279.904 395.91 279.891 395.926 279.873 395.935C279.856 395.945 279.835 395.946 279.816 395.94C269.11 392.611 258.467 389.082 247.887 385.351C244.878 384.291 241.833 383.321 238.905 382.091C238.896 382.085 238.888 382.076 238.884 382.065C238.88 382.054 238.88 382.043 238.883 382.032C238.886 382.021 238.892 382.011 238.901 382.004C238.91 381.997 238.921 381.993 238.932 381.992Z" fill="#455A64"/>
<path d="M336.768 248.94C336.768 249.486 336.551 250.009 336.165 250.395C335.78 250.78 335.256 250.997 334.711 250.997V253.62C334.981 253.62 335.248 253.673 335.498 253.776C335.748 253.88 335.974 254.031 336.165 254.222C336.356 254.413 336.508 254.64 336.611 254.889C336.715 255.139 336.768 255.406 336.768 255.677C336.768 255.947 336.715 256.214 336.611 256.464C336.508 256.713 336.356 256.94 336.165 257.131C335.974 257.322 335.748 257.473 335.498 257.577C335.248 257.68 334.981 257.733 334.711 257.733V260.356C335.256 260.356 335.78 260.573 336.165 260.958C336.551 261.344 336.768 261.867 336.768 262.413C336.768 262.958 336.551 263.481 336.165 263.867C335.78 264.253 335.256 264.469 334.711 264.469V267.092C334.981 267.092 335.248 267.145 335.498 267.249C335.748 267.352 335.974 267.503 336.165 267.694C336.356 267.885 336.508 268.112 336.611 268.362C336.715 268.611 336.768 268.879 336.768 269.149C336.768 269.419 336.715 269.686 336.611 269.936C336.508 270.185 336.356 270.412 336.165 270.603C335.974 270.794 335.748 270.946 335.498 271.049C335.248 271.152 334.981 271.206 334.711 271.206V273.819C335.234 273.854 335.725 274.086 336.083 274.469C336.441 274.851 336.641 275.356 336.641 275.88C336.641 276.405 336.441 276.909 336.083 277.292C335.725 277.675 335.234 277.907 334.711 277.942V280.555C335.256 280.555 335.78 280.772 336.165 281.158C336.551 281.543 336.768 282.067 336.768 282.612C336.768 283.158 336.551 283.681 336.165 284.066C335.78 284.452 335.256 284.669 334.711 284.669V286.959H337.127C337.127 286.414 337.344 285.89 337.729 285.505C338.115 285.119 338.638 284.902 339.184 284.902C339.729 284.902 340.252 285.119 340.638 285.505C341.024 285.89 341.24 286.414 341.24 286.959H343.854C343.835 286.677 343.875 286.394 343.97 286.128C344.065 285.862 344.214 285.618 344.407 285.411C344.601 285.205 344.834 285.04 345.093 284.928C345.353 284.815 345.633 284.757 345.915 284.757C346.198 284.757 346.478 284.815 346.737 284.928C346.997 285.04 347.23 285.205 347.423 285.411C347.617 285.618 347.765 285.862 347.861 286.128C347.956 286.394 347.995 286.677 347.977 286.959H350.59C350.572 286.677 350.611 286.394 350.706 286.128C350.801 285.862 350.95 285.618 351.143 285.411C351.337 285.205 351.57 285.04 351.83 284.928C352.089 284.815 352.369 284.757 352.652 284.757C352.934 284.757 353.214 284.815 353.473 284.928C353.733 285.04 353.966 285.205 354.16 285.411C354.353 285.618 354.502 285.862 354.597 286.128C354.692 286.394 354.731 286.677 354.713 286.959H357.326C357.308 286.677 357.347 286.394 357.442 286.128C357.538 285.862 357.686 285.618 357.88 285.411C358.073 285.205 358.306 285.04 358.566 284.928C358.825 284.815 359.105 284.757 359.388 284.757C359.67 284.757 359.95 284.815 360.21 284.928C360.469 285.04 360.702 285.205 360.896 285.411C361.089 285.618 361.238 285.862 361.333 286.128C361.428 286.394 361.468 286.677 361.449 286.959H364.071C364.071 286.414 364.288 285.89 364.674 285.505C365.06 285.119 365.583 284.902 366.128 284.902C366.674 284.902 367.197 285.119 367.583 285.505C367.968 285.89 368.185 286.414 368.185 286.959H370.601V284.669C370.056 284.669 369.532 284.452 369.147 284.066C368.761 283.681 368.544 283.158 368.544 282.612C368.544 282.067 368.761 281.543 369.147 281.158C369.532 280.772 370.056 280.555 370.601 280.555V277.942C370.319 277.96 370.036 277.921 369.77 277.826C369.503 277.731 369.26 277.582 369.053 277.389C368.847 277.195 368.682 276.962 368.57 276.702C368.457 276.443 368.399 276.163 368.399 275.88C368.399 275.598 368.457 275.318 368.57 275.059C368.682 274.799 368.847 274.566 369.053 274.372C369.26 274.179 369.503 274.03 369.77 273.935C370.036 273.84 370.319 273.801 370.601 273.819V271.206C370.331 271.206 370.063 271.152 369.814 271.049C369.564 270.946 369.338 270.794 369.147 270.603C368.956 270.412 368.804 270.185 368.701 269.936C368.597 269.686 368.544 269.419 368.544 269.149C368.544 268.879 368.597 268.611 368.701 268.362C368.804 268.112 368.956 267.885 369.147 267.694C369.338 267.503 369.564 267.352 369.814 267.249C370.063 267.145 370.331 267.092 370.601 267.092V264.469C370.056 264.469 369.532 264.253 369.147 263.867C368.761 263.481 368.544 262.958 368.544 262.413C368.544 261.867 368.761 261.344 369.147 260.958C369.532 260.573 370.056 260.356 370.601 260.356V257.733C370.331 257.733 370.063 257.68 369.814 257.577C369.564 257.473 369.338 257.322 369.147 257.131C368.956 256.94 368.804 256.713 368.701 256.464C368.597 256.214 368.544 255.947 368.544 255.677C368.544 255.406 368.597 255.139 368.701 254.889C368.804 254.64 368.956 254.413 369.147 254.222C369.338 254.031 369.564 253.88 369.814 253.776C370.063 253.673 370.331 253.62 370.601 253.62V250.997C370.056 250.997 369.532 250.78 369.147 250.395C368.761 250.009 368.544 249.486 368.544 248.94C368.544 248.395 368.761 247.872 369.147 247.486C369.532 247.1 370.056 246.884 370.601 246.884V244.521H368.176C368.142 245.042 367.91 245.531 367.529 245.887C367.148 246.244 366.646 246.442 366.124 246.442C365.602 246.442 365.099 246.244 364.718 245.887C364.337 245.531 364.106 245.042 364.071 244.521H361.44C361.405 245.042 361.174 245.531 360.793 245.887C360.412 246.244 359.91 246.442 359.388 246.442C358.866 246.442 358.363 246.244 357.982 245.887C357.601 245.531 357.37 245.042 357.335 244.521H354.704C354.669 245.042 354.438 245.531 354.057 245.887C353.676 246.244 353.173 246.442 352.652 246.442C352.13 246.442 351.627 246.244 351.246 245.887C350.865 245.531 350.634 245.042 350.599 244.521H347.968C347.933 245.042 347.702 245.531 347.321 245.887C346.94 246.244 346.437 246.442 345.915 246.442C345.393 246.442 344.891 246.244 344.51 245.887C344.129 245.531 343.898 245.042 343.863 244.521H341.232C341.197 245.042 340.966 245.531 340.585 245.887C340.204 246.244 339.701 246.442 339.179 246.442C338.657 246.442 338.155 246.244 337.774 245.887C337.393 245.531 337.161 245.042 337.127 244.521H334.711V246.884C335.256 246.886 335.777 247.103 336.163 247.489C336.548 247.874 336.765 248.396 336.768 248.94Z" fill="white"/>
<path d="M341.275 279.676H364.025V251.788H341.275V279.676Z" fill="#383838"/>
<path d="M244.223 358.236L301.399 360.14C301.399 361.263 299.8 319.212 285.852 291.71C284.909 289.842 275.972 287.561 271.904 291.081C254.004 306.512 244.196 358.964 244.223 358.236Z" fill="#455A64"/>
<path d="M284.209 305.084C284.731 304.912 285.289 304.884 285.826 305.004C286.119 305.111 286.374 305.305 286.555 305.56C286.736 305.815 286.836 306.119 286.84 306.432C286.836 306.64 286.885 306.845 286.982 307.029C287.08 307.213 287.223 307.369 287.397 307.482C287.588 307.607 287.808 307.678 288.035 307.689C288.295 307.734 288.556 307.77 288.807 307.833C288.284 308.017 287.718 308.039 287.182 307.896C286.898 307.774 286.656 307.571 286.486 307.312C286.317 307.053 286.228 306.75 286.23 306.441C286.224 306.235 286.167 306.035 286.063 305.857C285.96 305.68 285.813 305.531 285.637 305.426C285.44 305.303 285.213 305.238 284.981 305.237C284.721 305.174 284.469 305.174 284.209 305.084ZM290.029 337.418C290.261 337.426 290.487 337.494 290.685 337.615C290.862 337.72 291.009 337.868 291.113 338.046C291.217 338.223 291.274 338.425 291.277 338.63C291.275 338.94 291.364 339.243 291.534 339.501C291.703 339.76 291.945 339.963 292.229 340.085C292.765 340.229 293.332 340.207 293.855 340.022C293.6 339.961 293.342 339.913 293.083 339.879C292.855 339.864 292.635 339.789 292.445 339.663C292.271 339.551 292.129 339.397 292.031 339.215C291.934 339.032 291.884 338.828 291.888 338.621C291.883 338.309 291.785 338.005 291.606 337.748C291.426 337.492 291.174 337.296 290.882 337.184C290.342 337.067 289.78 337.098 289.257 337.274C289.511 337.344 289.769 337.401 290.029 337.445V337.418ZM270.997 315.952C271.229 315.953 271.456 316.018 271.653 316.141C271.831 316.244 271.98 316.391 272.084 316.569C272.188 316.747 272.243 316.949 272.246 317.155C272.244 317.466 272.335 317.77 272.506 318.028C272.677 318.287 272.921 318.49 273.207 318.61C273.742 318.754 274.309 318.732 274.832 318.548C274.572 318.485 274.311 318.449 274.06 318.404C273.829 318.389 273.607 318.314 273.413 318.188C273.24 318.075 273.099 317.921 273.001 317.739C272.904 317.557 272.854 317.353 272.856 317.147C272.852 316.835 272.754 316.532 272.575 316.277C272.395 316.022 272.143 315.827 271.85 315.718C271.311 315.599 270.749 315.627 270.225 315.799C270.467 315.889 270.746 315.952 270.997 315.952ZM260.677 348.959C260.908 348.967 261.133 349.032 261.333 349.148C261.511 349.252 261.66 349.399 261.766 349.577C261.871 349.755 261.929 349.956 261.935 350.163C261.928 350.473 262.015 350.778 262.185 351.038C262.355 351.297 262.6 351.5 262.887 351.618C263.422 351.763 263.988 351.745 264.512 351.564C264.252 351.492 264 351.465 263.74 351.411C263.51 351.403 263.286 351.331 263.093 351.204C262.92 351.09 262.778 350.934 262.681 350.75C262.583 350.567 262.534 350.361 262.537 350.154C262.534 349.842 262.436 349.538 262.256 349.283C262.077 349.027 261.823 348.833 261.531 348.726C260.994 348.606 260.436 348.634 259.914 348.806C260.165 348.878 260.426 348.905 260.677 348.959ZM252.944 340.66C252.773 340.818 252.567 340.932 252.342 340.992C252.142 341.044 251.932 341.043 251.732 340.989C251.532 340.936 251.35 340.832 251.202 340.687C250.983 340.468 250.705 340.318 250.401 340.256C250.098 340.193 249.783 340.222 249.495 340.337C248.903 340.597 248.687 341.109 248.391 341.531C248.624 341.397 248.822 341.235 249.046 341.091C249.212 340.932 249.422 340.826 249.648 340.786C249.85 340.741 250.06 340.75 250.258 340.809C250.456 340.869 250.636 340.978 250.78 341.127C251.003 341.345 251.288 341.49 251.596 341.543C251.904 341.596 252.22 341.554 252.504 341.424C252.968 341.127 253.343 340.711 253.591 340.22C253.402 340.355 253.16 340.516 252.944 340.66ZM276.081 335.882C275.912 336.041 275.704 336.152 275.479 336.205C275.281 336.257 275.072 336.257 274.874 336.205C274.676 336.153 274.495 336.051 274.347 335.909C274.13 335.687 273.852 335.535 273.548 335.472C273.243 335.41 272.928 335.44 272.641 335.559C272.048 335.819 271.832 336.331 271.536 336.744C271.759 336.609 271.975 336.462 272.183 336.304C272.355 336.154 272.562 336.049 272.784 335.999C272.989 335.955 273.201 335.964 273.4 336.025C273.6 336.086 273.781 336.198 273.925 336.349C274.148 336.565 274.431 336.709 274.737 336.762C275.043 336.815 275.358 336.774 275.641 336.645C276.119 336.358 276.505 335.941 276.754 335.442C276.503 335.577 276.296 335.711 276.081 335.882ZM294.322 358.444C294.158 358.605 293.953 358.72 293.729 358.776C293.53 358.828 293.32 358.829 293.12 358.777C292.92 358.725 292.737 358.623 292.589 358.479C292.371 358.258 292.093 358.105 291.79 358.041C291.486 357.978 291.17 358.005 290.882 358.12C290.289 358.381 290.074 358.893 289.777 359.315C290.011 359.18 290.209 359.018 290.424 358.875C290.659 358.652 290.971 358.527 291.295 358.527C291.619 358.527 291.931 358.652 292.167 358.875C292.389 359.094 292.673 359.241 292.981 359.295C293.289 359.35 293.606 359.31 293.891 359.18C294.355 358.88 294.73 358.462 294.978 357.967C294.717 358.165 294.538 358.3 294.322 358.444ZM286.975 322.14C286.974 322.372 286.909 322.599 286.787 322.796C286.684 322.974 286.536 323.123 286.358 323.227C286.18 323.331 285.978 323.387 285.772 323.389C285.461 323.387 285.158 323.478 284.899 323.649C284.64 323.82 284.437 324.064 284.317 324.35C284.174 324.886 284.196 325.452 284.38 325.975C284.442 325.715 284.478 325.454 284.523 325.203C284.538 324.972 284.613 324.75 284.739 324.556C284.852 324.383 285.006 324.242 285.189 324.145C285.371 324.047 285.574 323.997 285.781 323.999C286.092 323.995 286.396 323.897 286.651 323.718C286.905 323.538 287.1 323.286 287.209 322.993C287.328 322.454 287.3 321.893 287.128 321.368C287.056 321.628 287.029 321.889 286.975 322.14ZM263.435 305.65C263.425 305.881 263.36 306.105 263.246 306.306C263.143 306.484 262.995 306.633 262.817 306.737C262.639 306.841 262.437 306.897 262.231 306.899C261.921 306.896 261.616 306.986 261.357 307.157C261.098 307.328 260.896 307.573 260.776 307.86C260.63 308.395 260.649 308.961 260.83 309.485C260.902 309.225 260.929 308.964 260.983 308.713C260.995 308.483 261.066 308.261 261.189 308.066C261.304 307.893 261.461 307.752 261.644 307.655C261.828 307.557 262.032 307.507 262.24 307.509C262.551 307.503 262.853 307.404 263.108 307.225C263.362 307.045 263.557 306.794 263.668 306.503C263.788 305.967 263.76 305.408 263.587 304.887C263.515 305.174 263.489 305.399 263.435 305.65ZM263.435 328.167C263.424 328.397 263.359 328.622 263.246 328.822C263.14 328.999 262.992 329.145 262.815 329.249C262.637 329.353 262.436 329.41 262.231 329.415C261.921 329.411 261.617 329.499 261.358 329.669C261.099 329.838 260.896 330.082 260.776 330.367C260.63 330.902 260.649 331.469 260.83 331.993C260.902 331.732 260.929 331.481 260.983 331.221C260.993 330.993 261.065 330.773 261.189 330.583C261.303 330.408 261.458 330.264 261.642 330.165C261.826 330.066 262.031 330.015 262.24 330.017C262.552 330.014 262.856 329.917 263.111 329.737C263.366 329.557 263.561 329.304 263.668 329.011C263.788 328.475 263.76 327.916 263.587 327.394C263.515 327.628 263.489 327.906 263.435 328.167ZM281.532 347.558C281.524 347.79 281.456 348.016 281.335 348.214C281.229 348.39 281.081 348.536 280.903 348.64C280.726 348.744 280.525 348.801 280.32 348.806C280.011 348.804 279.708 348.893 279.449 349.063C279.19 349.232 278.987 349.474 278.865 349.758C278.722 350.294 278.744 350.861 278.928 351.384C279 351.124 279.027 350.872 279.08 350.612C279.087 350.384 279.159 350.162 279.287 349.974C279.398 349.799 279.552 349.655 279.735 349.556C279.917 349.457 280.121 349.406 280.329 349.408C280.642 349.406 280.947 349.309 281.204 349.129C281.461 348.949 281.657 348.696 281.766 348.402C281.883 347.865 281.852 347.306 281.676 346.785C281.613 347.046 281.577 347.297 281.532 347.558ZM273.162 298.16C273.33 298.001 273.538 297.889 273.763 297.836C273.963 297.785 274.172 297.786 274.372 297.838C274.571 297.89 274.754 297.991 274.904 298.133C275.12 298.354 275.396 298.506 275.699 298.568C276.002 298.631 276.316 298.601 276.602 298.483C277.082 298.207 277.469 297.794 277.715 297.297C277.488 297.43 277.269 297.577 277.06 297.737C276.889 297.889 276.681 297.995 276.458 298.043C276.255 298.087 276.044 298.078 275.846 298.017C275.648 297.955 275.469 297.844 275.326 297.693C275.101 297.477 274.817 297.333 274.509 297.28C274.202 297.228 273.886 297.268 273.602 297.396C273.138 297.693 272.763 298.108 272.515 298.6C272.748 298.492 272.946 298.339 273.162 298.187V298.16Z" fill="white"/>
<path d="M284.144 299.058C281.378 299.48 275.989 295.806 274.372 291.765C274.264 291.486 274.992 288.801 275.728 285.478C276.168 283.466 276.626 281.22 276.86 279.137C276.914 278.706 289.524 283.897 289.524 283.897C288.462 286.409 287.714 289.043 287.296 291.738C287.267 292.037 287.267 292.337 287.296 292.636C287.301 292.684 287.301 292.732 287.296 292.78C287.35 294.396 287.108 298.618 284.144 299.058Z" fill="#F7A9A0"/>
<path d="M287.289 292.6C287.289 292.645 287.289 292.69 287.289 292.744C286.841 292.743 286.394 292.713 285.95 292.654C278.28 291.549 277.427 281.679 277.328 279.182C279.609 279.792 289.543 283.879 289.543 283.879C288.478 286.391 287.726 289.024 287.307 291.72C287.273 292.012 287.267 292.307 287.289 292.6Z" fill="#263238"/>
<path d="M290.422 256.836C290.422 256.836 294.823 258.444 295.811 262.791C296.799 267.138 295.99 271.772 295.622 272.024C295.254 272.275 290.422 256.836 290.422 256.836Z" fill="#263238"/>
<path d="M273.957 264.757C272.817 269.5 276.059 282.801 279.544 285.603C284.591 289.672 292.477 289.627 295.836 283.645C299.088 277.843 294.552 260.581 290.699 258.066C285.014 254.357 275.655 257.743 273.957 264.757Z" fill="#F7A9A0"/>
<path d="M287.528 272.023C287.528 272.023 287.475 272.086 287.528 272.122C287.771 273.02 287.897 274.071 287.16 274.565V274.61C288.103 274.233 287.924 272.841 287.528 272.023Z" fill="#263238"/>
<path d="M286.524 271.277C285.06 271.51 285.626 274.429 286.991 274.214C288.356 273.998 287.754 271.043 286.524 271.277Z" fill="#263238"/>
<path d="M292.818 271.133C292.818 271.133 292.899 271.133 292.899 271.205C293.052 272.103 293.375 273.127 294.256 273.27C293.232 273.378 292.81 272.022 292.818 271.133Z" fill="#263238"/>
<path d="M293.441 270.029C294.869 269.634 295.561 272.526 294.241 272.894C292.92 273.263 292.238 270.362 293.441 270.029Z" fill="#263238"/>
<path d="M285.105 270.146C285.469 269.959 285.823 269.752 286.165 269.527C286.56 269.275 286.911 269.131 287.117 268.682C287.162 268.55 287.161 268.407 287.116 268.276C287.07 268.144 286.982 268.031 286.866 267.955C286.614 267.838 286.336 267.79 286.06 267.815C285.784 267.84 285.52 267.938 285.294 268.099C284.785 268.356 284.391 268.795 284.189 269.329C284.15 269.453 284.148 269.585 284.182 269.71C284.217 269.835 284.287 269.947 284.383 270.033C284.48 270.12 284.6 270.176 284.728 270.196C284.856 270.216 284.987 270.199 285.105 270.146Z" fill="#263238"/>
<path d="M294.276 268.35C293.863 268.35 293.477 268.305 293.054 268.278C292.621 268.312 292.188 268.202 291.824 267.964C291.722 267.867 291.657 267.739 291.637 267.601C291.617 267.462 291.645 267.321 291.716 267.2C291.885 266.98 292.111 266.81 292.368 266.708C292.626 266.605 292.906 266.573 293.18 266.616C293.749 266.616 294.299 266.823 294.725 267.2C294.818 267.293 294.881 267.41 294.908 267.538C294.935 267.667 294.924 267.8 294.876 267.922C294.829 268.044 294.747 268.149 294.64 268.225C294.533 268.301 294.407 268.345 294.276 268.35Z" fill="#263238"/>
<path d="M288.376 280.591C288.637 280.752 288.906 281.004 289.274 280.968C289.599 280.89 289.905 280.746 290.172 280.546C290.172 280.546 290.235 280.546 290.217 280.546C290.123 280.749 289.976 280.924 289.791 281.05C289.606 281.177 289.39 281.251 289.166 281.264C288.968 281.259 288.776 281.193 288.615 281.076C288.455 280.959 288.334 280.796 288.268 280.609C288.266 280.594 288.269 280.58 288.278 280.568C288.286 280.556 288.299 280.548 288.313 280.546C288.328 280.543 288.342 280.547 288.354 280.555C288.366 280.564 288.374 280.576 288.376 280.591Z" fill="#263238"/>
<path d="M288.788 277.691C289.088 278.003 289.45 278.25 289.85 278.416C290.251 278.581 290.681 278.661 291.114 278.652C291.494 278.651 291.872 278.597 292.237 278.49L292.444 278.418C292.509 278.402 292.573 278.378 292.632 278.346C292.679 278.329 292.718 278.296 292.744 278.254C292.77 278.212 292.781 278.162 292.776 278.113C292.779 278.083 292.779 278.053 292.776 278.023V277.951C292.659 277.251 292.381 276.2 292.381 276.2C292.659 276.281 294.069 276.604 293.979 276.2C293.279 273.075 292.261 270.029 290.944 267.11C290.899 267.021 290.755 267.11 290.782 267.164C291.411 270.056 292.578 272.823 293.234 275.715C292.729 275.588 292.209 275.537 291.689 275.562C291.599 275.607 292.264 277.574 292.291 277.888C291.732 278.061 291.143 278.119 290.561 278.057C289.979 277.995 289.415 277.816 288.905 277.529C288.779 277.556 288.725 277.628 288.788 277.691Z" fill="#263238"/>
<path d="M291.751 278.229C291.47 278.805 291.042 279.297 290.512 279.657C290.219 279.84 289.878 279.93 289.533 279.917C288.769 279.872 288.635 279.208 288.635 278.615C288.648 278.31 288.7 278.009 288.787 277.717C289.695 278.202 290.734 278.382 291.751 278.229Z" fill="#263238"/>
<path d="M290.512 279.639C290.219 279.822 289.878 279.912 289.533 279.899C288.769 279.854 288.635 279.19 288.635 278.597C289.02 278.531 289.415 278.598 289.756 278.788C290.098 278.977 290.364 279.277 290.512 279.639Z" fill="#FF99BA"/>
<path d="M276.106 277.33C277.704 277.33 278.162 272.471 278.171 270.639C278.171 269.022 277.336 264.137 277.318 263.786C277.3 263.436 284.899 266.211 288.303 264.092C291.707 261.972 293.26 257.957 292.883 256.385C292.506 254.814 286.794 252.164 282.752 253.071C278.71 253.978 274.732 260.544 274.732 260.544C275.176 259.622 275.549 258.667 275.845 257.688C275.728 257.526 273.447 259.269 273.483 261.28C273.483 261.28 273.348 258.837 273.142 258.846C272.935 258.855 271.489 261.388 272.351 262.753C272.351 262.753 270.555 265.403 270.995 267.666C271.435 269.93 274.229 277.33 276.106 277.33Z" fill="#263238"/>
<path d="M290.73 262.602C289.795 263.496 288.733 264.247 287.577 264.829C286.246 265.331 284.811 265.495 283.401 265.305C281.989 265.162 280.609 264.792 279.314 264.209C278.174 263.706 277.096 263.015 275.91 262.611C275.623 262.503 275.434 262.943 275.65 263.131C277.947 264.992 280.78 266.068 283.733 266.203C285.111 266.264 286.481 265.965 287.708 265.335C288.935 264.705 289.977 263.766 290.73 262.611C290.73 262.611 290.739 262.584 290.73 262.602Z" fill="#263238"/>
<path d="M278.012 275.651C278.012 275.651 274.635 271.547 272.749 272.786C270.863 274.025 273.647 280.142 276.027 280.815C276.326 280.923 276.644 280.97 276.962 280.952C277.279 280.934 277.59 280.852 277.875 280.711C278.161 280.57 278.414 280.373 278.621 280.132C278.829 279.891 278.985 279.61 279.081 279.307L278.012 275.651Z" fill="#F7A9A0"/>
<path d="M273.59 274.52V274.582C275.26 275.112 276.239 276.549 276.958 278.058C276.85 277.904 276.709 277.775 276.547 277.68C276.384 277.585 276.203 277.526 276.015 277.507C275.828 277.488 275.638 277.51 275.46 277.571C275.282 277.632 275.119 277.731 274.982 277.861C274.977 277.869 274.974 277.879 274.974 277.89C274.975 277.9 274.978 277.91 274.984 277.918C274.989 277.926 274.997 277.933 275.006 277.937C275.016 277.941 275.026 277.943 275.036 277.941C275.314 277.828 275.62 277.803 275.913 277.871C276.206 277.938 276.47 278.095 276.67 278.319C277.013 278.696 277.314 279.108 277.569 279.549C277.658 279.693 277.91 279.549 277.847 279.432C277.649 277.331 275.853 274.555 273.59 274.52Z" fill="#263238"/>
<path d="M273.852 309.08C285.142 316.975 308.099 334.058 318.221 332.719C331.496 330.923 349.396 311.936 354.318 307.068C356.464 304.948 343.216 289.842 339.992 290.003C336.768 290.165 314.413 309.484 312.149 310.319C309.886 311.155 290.351 302.11 279.062 299.048C264.826 295.195 264.296 302.407 273.852 309.08Z" fill="#F7A9A0"/>
<path d="M349.403 285.979C347.913 286.383 347.697 285.611 349.332 283.41C350.966 281.21 359.301 273.926 356.517 271.241C353.733 268.555 342.146 279.001 339.677 282.863C337.207 286.725 334.629 293.82 334.629 293.82C337.287 292.239 344.113 289.006 349.403 285.979Z" fill="#F7A9A0"/>
<path d="M348.359 312.07C355.706 307.337 365.145 301.894 369.582 293.084C370.101 292.12 370.278 291.009 370.085 289.931C372.151 286.015 370.92 283.869 370.92 283.869C371.72 279.638 370.166 277.581 370.166 277.581C370.166 277.581 372.528 272.965 369.977 271.07C367.121 268.932 364.355 275.839 360.511 278.704C351.7 285.27 337.348 292.176 334.617 293.784L348.359 312.07Z" fill="#F7A9A0"/>
<path d="M356.123 292.105C358.72 290.214 361.187 288.149 363.506 285.926C365.888 283.328 368.074 280.557 370.045 277.636C370.058 277.619 370.077 277.608 370.098 277.605C370.119 277.601 370.141 277.605 370.159 277.616C370.177 277.627 370.191 277.644 370.198 277.664C370.205 277.684 370.205 277.706 370.197 277.725C366.949 283.745 362.112 288.759 356.213 292.222C356.078 292.302 355.997 292.213 356.123 292.105Z" fill="#263238"/>
<path d="M359.31 297.988C361.69 295.923 365.84 292.258 370.833 283.807H370.887C368.46 289.554 364.475 294.51 359.382 298.114C359.256 298.231 359.157 298.141 359.31 297.988Z" fill="#263238"/>
<path d="M361.091 301.132C364.998 297.458 367.001 294.656 370.073 289.932H370.127C367.199 295.653 365.492 297.395 361.208 301.248C361.046 301.419 360.938 301.275 361.091 301.132Z" fill="#263238"/>
<path d="M294.618 302.883L291.267 323.666C291.267 323.666 272.73 309.799 268.436 304.177C263.595 297.89 267.889 296.767 275.397 297.701C282.906 298.635 294.618 302.883 294.618 302.883Z" fill="#455A64"/>
<path d="M284.208 305.083C284.73 304.911 285.288 304.883 285.825 305.002C286.119 305.11 286.373 305.304 286.554 305.559C286.735 305.814 286.835 306.118 286.84 306.43C286.835 306.638 286.884 306.844 286.982 307.028C287.079 307.212 287.222 307.368 287.396 307.481C287.587 307.606 287.807 307.677 288.034 307.688C288.295 307.733 288.555 307.769 288.807 307.831C288.283 308.015 287.717 308.037 287.181 307.894C286.897 307.772 286.655 307.569 286.485 307.31C286.316 307.052 286.227 306.749 286.229 306.439C286.223 306.234 286.166 306.033 286.063 305.856C285.959 305.679 285.812 305.53 285.636 305.424C285.439 305.302 285.212 305.237 284.98 305.236C284.72 305.173 284.468 305.173 284.208 305.083ZM276.852 297.898C276.615 298.043 276.334 298.102 276.058 298.066C275.782 298.03 275.527 297.901 275.334 297.7C274.697 297.619 274.086 297.557 273.538 297.512C273.143 297.812 272.818 298.195 272.586 298.634C272.819 298.5 273.017 298.347 273.233 298.194C273.401 298.036 273.609 297.924 273.834 297.871C274.034 297.82 274.243 297.821 274.443 297.873C274.642 297.924 274.825 298.026 274.975 298.167C275.19 298.389 275.467 298.541 275.77 298.603C276.073 298.665 276.387 298.636 276.673 298.518C276.936 298.404 277.162 298.221 277.328 297.988L276.852 297.898Z" fill="white"/>
<path d="M290.747 303.01C289.956 305.596 288.699 313.689 288.474 315.027C288.358 315.737 288.016 318.566 287.891 319.266C287.891 319.356 288.016 319.365 288.034 319.266C288.268 317.928 288.636 316.572 288.888 315.27C289.139 313.967 290.684 305.74 290.846 303.019C290.846 302.974 290.756 302.956 290.747 303.01Z" fill="#263238"/>
<path d="M286.128 299.785C285.113 299.345 284.098 298.887 283.065 298.483C283.801 298.842 284.547 299.183 285.292 299.516C283.711 299.094 282.131 298.698 280.541 298.375C280.541 298.375 280.541 298.375 280.541 298.42C282.867 299.255 285.229 299.965 287.574 300.746C289.918 301.528 292.181 302.237 294.489 302.965C294.489 303.45 294.489 303.935 294.489 304.42C294.489 304.439 294.497 304.457 294.51 304.47C294.524 304.484 294.542 304.491 294.561 304.491C294.58 304.491 294.598 304.484 294.612 304.47C294.625 304.457 294.633 304.439 294.633 304.42C294.741 303.908 294.849 303.387 294.983 302.875C295.002 302.816 294.999 302.753 294.974 302.696C294.949 302.64 294.904 302.595 294.849 302.569C291.957 301.581 289.055 300.602 286.128 299.785Z" fill="#263238"/>
<path d="M280.164 315.789C279.266 315.179 278.305 314.568 277.398 313.93C278.098 314.352 278.79 314.784 279.481 315.233C278.26 314.137 277.065 313.032 275.889 311.873C277.856 313.355 279.742 314.954 281.682 316.49C283.622 318.026 289.226 322.067 291.103 323.603C291.103 323.603 291.292 322.202 291.454 321.448C291.454 321.358 291.624 321.349 291.624 321.448C291.616 322.391 291.508 323.33 291.301 324.25C288.966 322.391 282.454 317.792 280.164 315.789Z" fill="#263238"/>
</svg>
