<svg width="211" height="80" viewBox="0 0 211 80" fill="none" xmlns="http://www.w3.org/2000/svg">
<path d="M10 65H20V75H10V65ZM35 65H45V75H35V65ZM60 65H70V75H60V65ZM62.5 40H42.5V35H37.5V40H17.5C16.1743 40.0013 14.9033 40.5285 13.9659 41.4659C13.0285 42.4033 12.5013 43.6743 12.5 45V60H17.5V45H37.5V60H42.5V45H62.5V60H67.5V45C67.4987 43.6743 66.9715 42.4033 66.0341 41.4659C65.0967 40.5285 63.8257 40.0013 62.5 40ZM22.5 5V30H57.5V5H22.5ZM27.5 10H32.5V25H27.5V10ZM52.5 25H37.5V10H52.5V25Z" fill="#AEAEAE"/>
<path d="M106.773 38H105.364C105.28 37.5947 105.134 37.2386 104.926 36.9318C104.722 36.625 104.472 36.3674 104.176 36.1591C103.884 35.947 103.561 35.7879 103.205 35.6818C102.848 35.5758 102.477 35.5227 102.091 35.5227C101.386 35.5227 100.748 35.7008 100.176 36.0568C99.608 36.4129 99.1553 36.9375 98.8182 37.6307C98.4848 38.3239 98.3182 39.1742 98.3182 40.1818C98.3182 41.1894 98.4848 42.0398 98.8182 42.733C99.1553 43.4261 99.608 43.9508 100.176 44.3068C100.748 44.6629 101.386 44.8409 102.091 44.8409C102.477 44.8409 102.848 44.7879 103.205 44.6818C103.561 44.5758 103.884 44.4186 104.176 44.2102C104.472 43.9981 104.722 43.7386 104.926 43.4318C105.134 43.1212 105.28 42.7652 105.364 42.3636H106.773C106.667 42.9583 106.473 43.4905 106.193 43.9602C105.913 44.4299 105.564 44.8295 105.148 45.1591C104.731 45.4848 104.263 45.733 103.744 45.9034C103.229 46.0739 102.678 46.1591 102.091 46.1591C101.098 46.1591 100.216 45.9167 99.4432 45.4318C98.6705 44.947 98.0625 44.2576 97.6193 43.3636C97.1761 42.4697 96.9545 41.4091 96.9545 40.1818C96.9545 38.9545 97.1761 37.8939 97.6193 37C98.0625 36.1061 98.6705 35.4167 99.4432 34.9318C100.216 34.447 101.098 34.2045 102.091 34.2045C102.678 34.2045 103.229 34.2898 103.744 34.4602C104.263 34.6307 104.731 34.8807 105.148 35.2102C105.564 35.536 105.913 35.9337 106.193 36.4034C106.473 36.8693 106.667 37.4015 106.773 38ZM108.868 46V37.2727H110.163V38.5909H110.254C110.413 38.1591 110.701 37.8087 111.118 37.5398C111.535 37.2708 112.004 37.1364 112.527 37.1364C112.625 37.1364 112.749 37.1383 112.896 37.142C113.044 37.1458 113.156 37.1515 113.232 37.1591V38.5227C113.186 38.5114 113.082 38.4943 112.919 38.4716C112.76 38.4451 112.591 38.4318 112.413 38.4318C111.989 38.4318 111.61 38.5208 111.277 38.6989C110.947 38.8731 110.686 39.1155 110.493 39.4261C110.304 39.733 110.209 40.0833 110.209 40.4773V46H108.868ZM118.101 46.1818C117.313 46.1818 116.622 45.9943 116.027 45.6193C115.436 45.2443 114.974 44.7197 114.641 44.0455C114.311 43.3712 114.146 42.5833 114.146 41.6818C114.146 40.7727 114.311 39.9792 114.641 39.3011C114.974 38.6231 115.436 38.0966 116.027 37.7216C116.622 37.3466 117.313 37.1591 118.101 37.1591C118.889 37.1591 119.578 37.3466 120.169 37.7216C120.764 38.0966 121.226 38.6231 121.555 39.3011C121.889 39.9792 122.055 40.7727 122.055 41.6818C122.055 42.5833 121.889 43.3712 121.555 44.0455C121.226 44.7197 120.764 45.2443 120.169 45.6193C119.578 45.9943 118.889 46.1818 118.101 46.1818ZM118.101 44.9773C118.699 44.9773 119.192 44.8239 119.578 44.517C119.964 44.2102 120.25 43.8068 120.436 43.3068C120.622 42.8068 120.714 42.2652 120.714 41.6818C120.714 41.0985 120.622 40.5549 120.436 40.0511C120.25 39.5473 119.964 39.1402 119.578 38.8295C119.192 38.5189 118.699 38.3636 118.101 38.3636C117.502 38.3636 117.01 38.5189 116.624 38.8295C116.237 39.1402 115.951 39.5473 115.766 40.0511C115.58 40.5549 115.487 41.0985 115.487 41.6818C115.487 42.2652 115.58 42.8068 115.766 43.3068C115.951 43.8068 116.237 44.2102 116.624 44.517C117.01 44.8239 117.502 44.9773 118.101 44.9773ZM130.284 39.2273L129.08 39.5682C129.004 39.3674 128.892 39.1723 128.744 38.983C128.6 38.7898 128.403 38.6307 128.153 38.5057C127.903 38.3807 127.583 38.3182 127.193 38.3182C126.659 38.3182 126.214 38.4413 125.858 38.6875C125.506 38.9299 125.33 39.2386 125.33 39.6136C125.33 39.947 125.451 40.2102 125.693 40.4034C125.936 40.5966 126.314 40.7576 126.83 40.8864L128.125 41.2045C128.905 41.3939 129.487 41.6837 129.869 42.0739C130.252 42.4602 130.443 42.9583 130.443 43.5682C130.443 44.0682 130.299 44.5152 130.011 44.9091C129.727 45.303 129.33 45.6136 128.818 45.8409C128.307 46.0682 127.712 46.1818 127.034 46.1818C126.144 46.1818 125.407 45.9886 124.824 45.6023C124.241 45.2159 123.871 44.6515 123.716 43.9091L124.989 43.5909C125.11 44.0606 125.339 44.4129 125.676 44.6477C126.017 44.8826 126.462 45 127.011 45C127.636 45 128.133 44.8674 128.5 44.6023C128.871 44.3333 129.057 44.0114 129.057 43.6364C129.057 43.3333 128.951 43.0795 128.739 42.875C128.527 42.6667 128.201 42.5114 127.761 42.4091L126.307 42.0682C125.508 41.8788 124.92 41.5852 124.545 41.1875C124.174 40.786 123.989 40.2841 123.989 39.6818C123.989 39.1894 124.127 38.7538 124.403 38.375C124.684 37.9962 125.064 37.6989 125.545 37.483C126.03 37.267 126.58 37.1591 127.193 37.1591C128.057 37.1591 128.735 37.3485 129.227 37.7273C129.723 38.1061 130.076 38.6061 130.284 39.2273ZM138.643 39.2273L137.439 39.5682C137.363 39.3674 137.251 39.1723 137.104 38.983C136.96 38.7898 136.763 38.6307 136.513 38.5057C136.263 38.3807 135.943 38.3182 135.553 38.3182C135.018 38.3182 134.573 38.4413 134.217 38.6875C133.865 38.9299 133.689 39.2386 133.689 39.6136C133.689 39.947 133.81 40.2102 134.053 40.4034C134.295 40.5966 134.674 40.7576 135.189 40.8864L136.484 41.2045C137.265 41.3939 137.846 41.6837 138.229 42.0739C138.611 42.4602 138.803 42.9583 138.803 43.5682C138.803 44.0682 138.659 44.5152 138.371 44.9091C138.087 45.303 137.689 45.6136 137.178 45.8409C136.666 46.0682 136.071 46.1818 135.393 46.1818C134.503 46.1818 133.767 45.9886 133.183 45.6023C132.6 45.2159 132.231 44.6515 132.075 43.9091L133.348 43.5909C133.469 44.0606 133.698 44.4129 134.036 44.6477C134.376 44.8826 134.821 45 135.371 45C135.996 45 136.492 44.8674 136.859 44.6023C137.231 44.3333 137.416 44.0114 137.416 43.6364C137.416 43.3333 137.31 43.0795 137.098 42.875C136.886 42.6667 136.56 42.5114 136.121 42.4091L134.666 42.0682C133.867 41.8788 133.28 41.5852 132.905 41.1875C132.534 40.786 132.348 40.2841 132.348 39.6818C132.348 39.1894 132.486 38.7538 132.763 38.375C133.043 37.9962 133.424 37.6989 133.905 37.483C134.39 37.267 134.939 37.1591 135.553 37.1591C136.416 37.1591 137.094 37.3485 137.587 37.7273C138.083 38.1061 138.435 38.6061 138.643 39.2273ZM145.821 40.3864V41.6364H140.73V40.3864H145.821ZM148.362 46V34.3636H152.294C153.207 34.3636 153.953 34.5284 154.533 34.858C155.116 35.1837 155.548 35.625 155.828 36.1818C156.108 36.7386 156.249 37.3598 156.249 38.0455C156.249 38.7311 156.108 39.3542 155.828 39.9148C155.552 40.4754 155.124 40.9223 154.544 41.2557C153.964 41.5852 153.222 41.75 152.317 41.75H149.499V40.5H152.271C152.896 40.5 153.398 40.392 153.777 40.1761C154.156 39.9602 154.43 39.6686 154.601 39.3011C154.775 38.9299 154.862 38.5114 154.862 38.0455C154.862 37.5795 154.775 37.1629 154.601 36.7955C154.43 36.428 154.154 36.1402 153.771 35.9318C153.389 35.7197 152.881 35.6136 152.249 35.6136H149.771V46H148.362ZM159.678 34.3636V46H158.337V34.3636H159.678ZM164.702 46.2045C164.149 46.2045 163.647 46.1004 163.196 45.892C162.745 45.6799 162.387 45.375 162.122 44.9773C161.857 44.5758 161.724 44.0909 161.724 43.5227C161.724 43.0227 161.823 42.6174 162.02 42.3068C162.217 41.9924 162.48 41.7462 162.81 41.5682C163.139 41.3902 163.503 41.2576 163.901 41.1705C164.302 41.0795 164.705 41.0076 165.111 40.9545C165.641 40.8864 166.071 40.8352 166.401 40.8011C166.734 40.7633 166.976 40.7008 167.128 40.6136C167.283 40.5265 167.361 40.375 167.361 40.1591V40.1136C167.361 39.553 167.207 39.1174 166.901 38.8068C166.598 38.4962 166.137 38.3409 165.52 38.3409C164.88 38.3409 164.378 38.4811 164.014 38.7614C163.651 39.0417 163.395 39.3409 163.247 39.6591L161.974 39.2045C162.202 38.6742 162.505 38.2614 162.884 37.9659C163.266 37.6667 163.683 37.4583 164.134 37.3409C164.588 37.2197 165.035 37.1591 165.474 37.1591C165.755 37.1591 166.077 37.1932 166.44 37.2614C166.808 37.3258 167.162 37.4602 167.503 37.6648C167.848 37.8693 168.134 38.178 168.361 38.5909C168.588 39.0038 168.702 39.5568 168.702 40.25V46H167.361V44.8182H167.293C167.202 45.0076 167.05 45.2102 166.838 45.4261C166.626 45.642 166.344 45.8258 165.991 45.9773C165.639 46.1288 165.209 46.2045 164.702 46.2045ZM164.906 45C165.437 45 165.884 44.8958 166.247 44.6875C166.615 44.4792 166.891 44.2102 167.077 43.8807C167.266 43.5511 167.361 43.2045 167.361 42.8409V41.6136C167.304 41.6818 167.179 41.7443 166.986 41.8011C166.796 41.8542 166.577 41.9015 166.327 41.9432C166.08 41.9811 165.84 42.0152 165.605 42.0455C165.374 42.072 165.187 42.0947 165.043 42.1136C164.694 42.1591 164.368 42.233 164.065 42.3352C163.766 42.4337 163.524 42.5833 163.338 42.7841C163.156 42.9811 163.065 43.25 163.065 43.5909C163.065 44.0568 163.238 44.4091 163.582 44.6477C163.931 44.8826 164.372 45 164.906 45ZM174.945 37.2727V38.4091H170.422V37.2727H174.945ZM171.74 35.1818H173.081V43.5C173.081 43.8788 173.136 44.1629 173.246 44.3523C173.359 44.5379 173.503 44.6629 173.678 44.7273C173.856 44.7879 174.043 44.8182 174.24 44.8182C174.388 44.8182 174.509 44.8106 174.604 44.7955C174.698 44.7765 174.774 44.7614 174.831 44.75L175.104 45.9545C175.013 45.9886 174.886 46.0227 174.723 46.0568C174.56 46.0947 174.354 46.1136 174.104 46.1136C173.725 46.1136 173.354 46.0322 172.99 45.8693C172.63 45.7064 172.331 45.4583 172.092 45.125C171.857 44.7917 171.74 44.3712 171.74 43.8636V35.1818ZM180.848 37.2727V38.4091H176.143V37.2727H180.848ZM177.553 46V36.0682C177.553 35.5682 177.67 35.1515 177.905 34.8182C178.14 34.4848 178.445 34.2348 178.82 34.0682C179.195 33.9015 179.59 33.8182 180.007 33.8182C180.337 33.8182 180.606 33.8447 180.814 33.8977C181.022 33.9508 181.178 34 181.28 34.0455L180.893 35.2045C180.825 35.1818 180.731 35.1534 180.609 35.1193C180.492 35.0852 180.337 35.0682 180.143 35.0682C179.7 35.0682 179.38 35.1799 179.183 35.4034C178.99 35.6269 178.893 35.9545 178.893 36.3864V46H177.553ZM185.913 46.1818C185.125 46.1818 184.434 45.9943 183.839 45.6193C183.249 45.2443 182.786 44.7197 182.453 44.0455C182.124 43.3712 181.959 42.5833 181.959 41.6818C181.959 40.7727 182.124 39.9792 182.453 39.3011C182.786 38.6231 183.249 38.0966 183.839 37.7216C184.434 37.3466 185.125 37.1591 185.913 37.1591C186.701 37.1591 187.391 37.3466 187.982 37.7216C188.576 38.0966 189.038 38.6231 189.368 39.3011C189.701 39.9792 189.868 40.7727 189.868 41.6818C189.868 42.5833 189.701 43.3712 189.368 44.0455C189.038 44.7197 188.576 45.2443 187.982 45.6193C187.391 45.9943 186.701 46.1818 185.913 46.1818ZM185.913 44.9773C186.512 44.9773 187.004 44.8239 187.391 44.517C187.777 44.2102 188.063 43.8068 188.249 43.3068C188.434 42.8068 188.527 42.2652 188.527 41.6818C188.527 41.0985 188.434 40.5549 188.249 40.0511C188.063 39.5473 187.777 39.1402 187.391 38.8295C187.004 38.5189 186.512 38.3636 185.913 38.3636C185.315 38.3636 184.822 38.5189 184.436 38.8295C184.05 39.1402 183.764 39.5473 183.578 40.0511C183.393 40.5549 183.3 41.0985 183.3 41.6818C183.3 42.2652 183.393 42.8068 183.578 43.3068C183.764 43.8068 184.05 44.2102 184.436 44.517C184.822 44.8239 185.315 44.9773 185.913 44.9773ZM191.915 46V37.2727H193.21V38.5909H193.301C193.46 38.1591 193.748 37.8087 194.165 37.5398C194.581 37.2708 195.051 37.1364 195.574 37.1364C195.672 37.1364 195.795 37.1383 195.943 37.142C196.091 37.1458 196.203 37.1515 196.278 37.1591V38.5227C196.233 38.5114 196.129 38.4943 195.966 38.4716C195.807 38.4451 195.638 38.4318 195.46 38.4318C195.036 38.4318 194.657 38.5208 194.324 38.6989C193.994 38.8731 193.733 39.1155 193.54 39.4261C193.35 39.733 193.256 40.0833 193.256 40.4773V46H191.915ZM197.868 46V37.2727H199.163V38.6364H199.277C199.459 38.1705 199.752 37.8087 200.158 37.5511C200.563 37.2898 201.05 37.1591 201.618 37.1591C202.194 37.1591 202.673 37.2898 203.055 37.5511C203.442 37.8087 203.743 38.1705 203.959 38.6364H204.05C204.273 38.1856 204.608 37.8277 205.055 37.5625C205.502 37.2936 206.038 37.1591 206.663 37.1591C207.444 37.1591 208.082 37.4034 208.578 37.892C209.074 38.3769 209.322 39.1326 209.322 40.1591V46H207.982V40.1591C207.982 39.5152 207.805 39.0549 207.453 38.7784C207.101 38.5019 206.686 38.3636 206.209 38.3636C205.595 38.3636 205.12 38.5492 204.783 38.9205C204.446 39.2879 204.277 39.7538 204.277 40.3182V46H202.913V40.0227C202.913 39.5265 202.752 39.1269 202.43 38.8239C202.108 38.517 201.694 38.3636 201.186 38.3636C200.838 38.3636 200.512 38.4564 200.209 38.642C199.91 38.8277 199.667 39.0852 199.482 39.4148C199.3 39.7405 199.209 40.1174 199.209 40.5455V46H197.868Z" fill="#AEAEAE"/>
</svg>
