<svg width="262" height="196" viewBox="0 0 262 196" fill="none" xmlns="http://www.w3.org/2000/svg">
<path d="M131.001 195.208C187.109 195.208 232.593 192.553 232.593 189.277C232.593 186.001 187.109 183.346 131.001 183.346C74.8941 183.346 29.4102 186.001 29.4102 189.277C29.4102 192.553 74.8941 195.208 131.001 195.208Z" fill="#F5F5F5"/>
<path d="M169.877 23.7256V86.4912C169.877 87.5107 169.677 88.5203 169.287 89.4624C168.898 90.4045 168.326 91.2606 167.606 91.9817C166.885 92.7028 166.029 93.2749 165.087 93.6652C164.146 94.0555 163.136 94.2564 162.117 94.2564H155.887V23.7256H169.877Z" fill="#383838"/>
<path opacity="0.8" d="M169.877 23.7256V86.4912C169.877 87.5107 169.677 88.5203 169.287 89.4624C168.898 90.4045 168.326 91.2606 167.606 91.9817C166.885 92.7028 166.029 93.2749 165.087 93.6652C164.146 94.0555 163.136 94.2564 162.117 94.2564H155.887V23.7256H169.877Z" fill="white"/>
<path d="M169.876 18.9575V86.4912C169.877 87.5107 169.677 88.5203 169.287 89.4624C168.897 90.4045 168.326 91.2606 167.605 91.9817C166.885 92.7028 166.029 93.2749 165.087 93.6652C164.145 94.0555 163.136 94.2564 162.116 94.2564H52.4351C50.3756 94.2564 48.4005 93.4383 46.9443 91.982C45.488 90.5258 44.6699 88.5507 44.6699 86.4912V18.9575C44.6692 17.9376 44.8696 16.9275 45.2596 15.9851C45.6496 15.0427 46.2215 14.1864 46.9427 13.4652C47.6639 12.744 48.5202 12.1721 49.4627 11.7821C50.4051 11.3921 51.4151 11.1917 52.4351 11.1924H162.116C163.136 11.1924 164.145 11.3933 165.087 11.7836C166.029 12.1739 166.885 12.7459 167.605 13.4671C168.326 14.1882 168.897 15.0443 169.287 15.9863C169.677 16.9284 169.877 17.938 169.876 18.9575Z" fill="white" stroke="#383838" stroke-miterlimit="10"/>
<path d="M169.521 16.6259H45.0273C45.5235 15.0498 46.5095 13.673 47.8419 12.6958C49.1744 11.7186 50.7838 11.192 52.4362 11.1924H162.118C163.769 11.1931 165.377 11.7203 166.709 12.6974C168.04 13.6745 169.025 15.0506 169.521 16.6259Z" fill="#383838"/>
<path d="M60.4968 15.0122C61.1045 15.0122 61.5971 14.5195 61.5971 13.9119C61.5971 13.3042 61.1045 12.8115 60.4968 12.8115C59.8891 12.8115 59.3965 13.3042 59.3965 13.9119C59.3965 14.5195 59.8891 15.0122 60.4968 15.0122Z" fill="white"/>
<path d="M64.4245 15.0122C65.0322 15.0122 65.5249 14.5195 65.5249 13.9119C65.5249 13.3042 65.0322 12.8115 64.4245 12.8115C63.8169 12.8115 63.3242 13.3042 63.3242 13.9119C63.3242 14.5195 63.8169 15.0122 64.4245 15.0122Z" fill="white"/>
<path d="M69.4494 13.9112C69.4494 14.1301 69.3844 14.3441 69.2627 14.526C69.141 14.7079 68.968 14.8496 68.7657 14.9331C68.5634 15.0167 68.3408 15.0382 68.1262 14.9952C67.9116 14.9521 67.7146 14.8463 67.5602 14.6911C67.4058 14.536 67.301 14.3385 67.2589 14.1237C67.2168 13.9089 67.2395 13.6864 67.3239 13.4845C67.4084 13.2826 67.5509 13.1103 67.7334 12.9894C67.9159 12.8686 68.1302 12.8046 68.3491 12.8057C68.494 12.8057 68.6375 12.8343 68.7714 12.8899C68.9052 12.9456 69.0267 13.0271 69.129 13.1298C69.2312 13.2325 69.3122 13.3545 69.3672 13.4886C69.4221 13.6227 69.4501 13.7663 69.4494 13.9112Z" fill="white"/>
<path d="M169.878 18.9576V23.7257H44.6504V18.9576C44.6503 18.1668 44.7704 17.3806 45.0067 16.626H169.5C169.744 17.3795 169.871 18.1658 169.878 18.9576Z" fill="#383838"/>
<path opacity="0.5" d="M169.878 18.9576V23.7257H44.6504V18.9576C44.6503 18.1668 44.7704 17.3806 45.0067 16.626H169.5C169.744 17.3795 169.871 18.1658 169.878 18.9576Z" fill="white"/>
<path d="M59.3985 23.7256V94.2564H52.2622C50.5839 94.2702 48.9445 93.7511 47.5801 92.7737C46.2158 91.7963 45.1968 90.4111 44.6699 88.8176V23.7256H59.3985Z" fill="#383838"/>
<path opacity="0.1" d="M59.3985 23.7256V94.2564H52.2622C50.5839 94.2702 48.9445 93.7511 47.5801 92.7737C46.2158 91.7963 45.1968 90.4111 44.6699 88.8176V23.7256H59.3985Z" fill="black"/>
<path opacity="0.1" d="M150.977 28.7236H64.4238V87.1404H150.977V28.7236Z" fill="#383838"/>
<path opacity="0.2" d="M50.6498 31.6689H46.9297V35.3891H50.6498V31.6689Z" fill="black"/>
<path opacity="0.2" d="M56.2826 31.6689H52.5625V35.3891H56.2826V31.6689Z" fill="black"/>
<path d="M116.361 57.6995C119.531 53.5916 121.6 48.2 121.171 42.9342C120.767 37.9932 116.78 34.9804 111.938 36.1646C109.895 36.6885 108.024 37.6841 106.138 38.622C102.994 40.1939 99.6829 41.5352 96.1829 41.9596C92.6828 42.384 89.2194 41.9596 85.8084 43.2957C79.8719 45.6116 78.2214 53.1986 80.5111 58.7003C82.5441 63.5836 87.3855 67.3561 92.5361 68.4041" stroke="#263238" stroke-linecap="round" stroke-linejoin="round"/>
<path opacity="0.2" d="M50.6498 37.5693H46.9297V41.2895H50.6498V37.5693Z" fill="black"/>
<path opacity="0.2" d="M56.2826 37.5693H52.5625V41.2895H56.2826V37.5693Z" fill="black"/>
<path opacity="0.2" d="M50.6498 43.4688H46.9297V47.1889H50.6498V43.4688Z" fill="black"/>
<path opacity="0.2" d="M56.2826 43.4688H52.5625V47.1889H56.2826V43.4688Z" fill="black"/>
<path opacity="0.2" d="M50.6498 49.3682H46.9297V53.0883H50.6498V49.3682Z" fill="black"/>
<path opacity="0.2" d="M56.2826 49.3682H52.5625V53.0883H56.2826V49.3682Z" fill="black"/>
<path opacity="0.2" d="M50.6498 55.2627H46.9297V58.9828H50.6498V55.2627Z" fill="black"/>
<path opacity="0.2" d="M56.2826 55.2627H52.5625V58.9828H56.2826V55.2627Z" fill="black"/>
<path opacity="0.2" d="M50.6498 61.1631H46.9297V64.8832H50.6498V61.1631Z" fill="black"/>
<path opacity="0.2" d="M56.2826 61.1631H52.5625V64.8832H56.2826V61.1631Z" fill="black"/>
<path d="M50.5305 66.8951C50.5305 66.9793 50.5054 67.0616 50.4586 67.1315C50.4117 67.2014 50.3451 67.2558 50.2672 67.2877C50.1894 67.3197 50.1038 67.3278 50.0213 67.311C49.9388 67.2942 49.8632 67.2532 49.8041 67.1933C49.745 67.1335 49.7049 67.0574 49.6892 66.9747C49.6734 66.892 49.6825 66.8065 49.7155 66.7291C49.7484 66.6516 49.8036 66.5857 49.8741 66.5397C49.9446 66.4937 50.0271 66.4697 50.1113 66.4707C50.1668 66.4707 50.2217 66.4817 50.2729 66.5031C50.3241 66.5245 50.3706 66.5559 50.4096 66.5954C50.4486 66.6348 50.4793 66.6817 50.5001 66.7331C50.5208 66.7846 50.5312 66.8397 50.5305 66.8951Z" fill="#263238"/>
<path d="M52.0539 66.8951C52.0539 66.9791 52.029 67.0611 51.9824 67.1309C51.9357 67.2007 51.8695 67.2551 51.7919 67.2872C51.7144 67.3194 51.629 67.3278 51.5467 67.3114C51.4644 67.295 51.3887 67.2546 51.3294 67.1952C51.27 67.1359 51.2296 67.0603 51.2132 66.9779C51.1969 66.8956 51.2053 66.8103 51.2374 66.7327C51.2695 66.6552 51.3239 66.5889 51.3937 66.5423C51.4635 66.4956 51.5455 66.4707 51.6295 66.4707C51.6854 66.47 51.7409 66.4805 51.7927 66.5016C51.8445 66.5227 51.8916 66.5539 51.9312 66.5935C51.9707 66.633 52.0019 66.6801 52.023 66.7319C52.0441 66.7837 52.0546 66.8392 52.0539 66.8951Z" fill="#263238"/>
<path d="M53.5734 66.8951C53.5734 66.9793 53.5484 67.0616 53.5015 67.1315C53.4547 67.2014 53.3881 67.2558 53.3102 67.2877C53.2323 67.3197 53.1467 67.3278 53.0643 67.311C52.9818 67.2942 52.9062 67.2532 52.8471 67.1933C52.7879 67.1335 52.7479 67.0574 52.7321 66.9747C52.7164 66.892 52.7255 66.8065 52.7584 66.7291C52.7914 66.6516 52.8466 66.5857 52.9171 66.5397C52.9875 66.4937 53.0701 66.4697 53.1543 66.4707C53.2097 66.4707 53.2647 66.4817 53.3159 66.5031C53.3671 66.5245 53.4135 66.5559 53.4525 66.5954C53.4915 66.6348 53.5223 66.6817 53.543 66.7331C53.5638 66.7846 53.5741 66.8397 53.5734 66.8951Z" fill="#263238"/>
<path d="M105.378 62.9182L104.713 63.3846L104.314 60.4766L106.74 61.9541L106.138 62.3628L107.076 63.7461L106.337 64.3539L105.378 62.9182Z" fill="#263238"/>
<path d="M156.202 94.8849C156.202 94.8849 153.53 107.785 151.722 111.081C149.915 114.376 139.551 114.224 139.551 114.224L127.552 113.627C127.552 113.627 125.267 106.15 135.05 110.027C135.05 110.027 143.302 108.456 146.451 105.836L149.752 92.3018L156.202 94.8849Z" fill="#FF8B7B"/>
<path d="M191.91 191.053H188.709L180.021 143.796L179.723 142.167L182.814 141.596L183.218 143.796L191.91 191.053Z" fill="#383838"/>
<path opacity="0.5" d="M191.91 191.053H188.709L180.021 143.796L179.723 142.167L182.814 141.596L183.218 143.796L191.91 191.053Z" fill="white"/>
<path d="M178.105 191.053H174.945L170.607 143.797L170.146 138.767L170.041 137.65L173.169 137.362L173.3 138.767L173.761 143.797L178.105 191.053Z" fill="#383838"/>
<path opacity="0.5" d="M178.105 191.053H174.945L170.607 143.797L170.146 138.767L170.041 137.65L173.169 137.362L173.3 138.767L173.761 143.797L178.105 191.053Z" fill="white"/>
<path d="M145.799 139.364L145.464 143.796L141.869 191.053H138.715L142.304 143.796L142.66 139.128L145.799 139.364Z" fill="#383838"/>
<path opacity="0.5" d="M145.799 139.364L145.464 143.796L141.869 191.053H138.715L142.304 143.796L142.66 139.128L145.799 139.364Z" fill="white"/>
<path d="M136.684 139.506L135.977 143.797L128.186 191.053H125L132.797 143.797L133.588 138.992L136.684 139.506Z" fill="#383838"/>
<path opacity="0.5" d="M136.684 139.506L135.977 143.797L128.186 191.053H125L132.797 143.797L133.588 138.992L136.684 139.506Z" fill="white"/>
<path d="M188.072 138.028L187.784 138.767L186.406 142.251C186.228 142.708 185.917 143.1 185.511 143.376C185.106 143.652 184.627 143.799 184.137 143.797H132.233C131.729 143.798 131.238 143.643 130.825 143.354C130.412 143.065 130.099 142.656 129.927 142.183L128.707 138.767L128.418 137.954C128.286 137.586 128.245 137.191 128.298 136.804C128.35 136.416 128.496 136.047 128.721 135.727C128.947 135.407 129.246 135.146 129.594 134.967C129.942 134.787 130.327 134.694 130.719 134.695H185.803C186.201 134.695 186.592 134.792 186.944 134.977C187.295 135.163 187.596 135.432 187.82 135.761C188.044 136.089 188.184 136.468 188.228 136.863C188.271 137.258 188.218 137.658 188.072 138.028Z" fill="#383838"/>
<path opacity="0.3" d="M187.782 138.767L186.404 142.251C186.227 142.708 185.915 143.101 185.51 143.377C185.105 143.653 184.625 143.799 184.135 143.797H132.231C131.728 143.798 131.236 143.643 130.823 143.354C130.411 143.066 130.097 142.656 129.926 142.183L128.705 138.767H187.782Z" fill="black"/>
<path d="M135.219 168.894L137.671 163.324C137.813 162.999 138.069 162.738 138.39 162.587C138.711 162.437 139.075 162.408 139.416 162.507L143.293 163.607C143.496 163.665 143.684 163.766 143.844 163.903C144.004 164.04 144.133 164.21 144.222 164.402C144.311 164.593 144.358 164.801 144.36 165.012C144.361 165.223 144.317 165.432 144.231 165.624C143.183 167.993 141.192 172.404 140.563 173.982C139.709 176.177 138.991 178.823 137.849 179.562C137.779 179.608 137.706 179.648 137.629 179.682C137.388 179.781 137.126 179.814 136.868 179.776C136.611 179.739 136.368 179.633 136.166 179.469C135.963 179.306 135.808 179.091 135.717 178.848C135.626 178.604 135.603 178.34 135.648 178.084C135.952 176.24 136.282 172.792 135.172 170.01C135.104 169.83 135.073 169.639 135.081 169.447C135.089 169.255 135.136 169.067 135.219 168.894Z" fill="#263238"/>
<path d="M156.392 115.953C156.392 115.953 129.906 112.338 121.905 119.862C121.905 119.862 116.948 126.626 119.332 139.867C120.891 148.038 124.279 155.751 129.24 162.429L136.193 156.518C136.193 156.518 130.005 141.276 132.101 131.845L141.721 131.274L155.517 121.843L156.963 117.934L156.392 115.953Z" fill="#263238"/>
<path d="M129.879 165.091L127.285 161.942L136.79 154.124L138.587 155.995L129.879 165.091Z" fill="#383838"/>
<path d="M182.428 115.666C182.428 115.666 183.161 123.211 180.767 128.733C178.372 134.256 169.91 136.278 164.204 135.912C158.498 135.545 151.137 135.073 148.009 135.953C148.009 135.953 143.958 158.919 136.963 175.665L128.496 174.931C128.496 174.931 133.096 142.519 133.835 134.989C134.574 127.46 134.202 126.339 138.802 122.66C143.403 118.982 166.966 114.01 182.428 115.666Z" fill="#263238"/>
<path d="M134.809 178.697L134.008 182.203L127.285 184.555L129.24 177.089L134.809 178.697Z" fill="#FF8B7B"/>
<path d="M127.196 184.336L132.907 182.214C133.24 182.091 133.606 182.093 133.937 182.219C134.268 182.345 134.543 182.587 134.709 182.9L136.617 186.447C136.72 186.634 136.782 186.841 136.797 187.054C136.812 187.267 136.781 187.481 136.705 187.68C136.629 187.88 136.511 188.06 136.358 188.209C136.205 188.359 136.022 188.472 135.82 188.543C133.384 189.429 128.841 191.084 127.285 191.745C125.116 192.667 122.716 193.992 121.39 193.683C121.308 193.666 121.228 193.643 121.149 193.615C120.911 193.511 120.704 193.344 120.552 193.132C120.4 192.921 120.307 192.672 120.283 192.413C120.26 192.153 120.306 191.892 120.418 191.656C120.53 191.421 120.703 191.22 120.919 191.074C122.454 190.026 125.158 187.846 126.378 185.111C126.455 184.933 126.567 184.773 126.708 184.64C126.848 184.506 127.014 184.403 127.196 184.336Z" fill="#263238"/>
<path d="M156.203 117.687C156.203 117.687 152.756 94.8844 152.012 89.3356C151.268 83.7869 152.012 80.9522 154.108 79.1341C156.203 77.3159 165.813 73.4333 172.263 74.4813C178.713 75.5292 181.862 80.9312 182.742 87.0564L181.244 87.8057C181.244 87.8057 183.161 109.058 182.464 116.409L156.203 117.687Z" fill="#383838"/>
<path d="M154.102 79.1182C154.102 79.1182 149.004 83.619 149.004 92.3168L156.952 95.361L154.102 79.1182Z" fill="#383838"/>
<path d="M181.364 87.7217C181.364 87.7217 184.251 97.9285 183.46 102.146C182.669 106.364 175.485 112.023 165.499 113.909C165.499 113.909 161.061 114.685 158.504 112.579L154.621 111.468L155.732 108.025C158.691 108.078 161.605 108.762 164.278 110.032C164.278 110.032 173.819 105.704 176.816 102.377C176.816 102.377 176.481 95.6073 174.82 90.8497L181.364 87.7217Z" fill="#FF8B7B"/>
<path d="M138.142 175.664L126.997 173.987L126.594 177.493L136.706 179.557L138.142 175.664Z" fill="#383838"/>
<path d="M148.516 65.0661C147.826 67.0801 147.912 69.2791 148.758 71.2331C148.365 69.6745 148.438 68.0351 148.967 66.5175C149.491 65.0818 150.356 63.819 151.026 62.4567C151.697 61.0944 152.153 59.5068 151.707 58.0554C151.613 57.7673 151.404 57.4319 151.105 57.4791C150.806 57.5262 150.743 57.7777 150.659 58.003C150.37 58.6 150.149 59.2274 149.999 59.8736C149.926 60.3714 149.999 60.8639 149.926 61.3721C149.68 62.6506 148.951 63.8138 148.516 65.0661Z" fill="#263238"/>
<path d="M151.603 60.6491C151.2 60.801 150.848 61.0626 150.587 61.4044C150.326 61.7462 150.166 62.1543 150.125 62.5825C149.344 62.0793 148.763 61.3192 148.483 60.4333C148.202 59.5474 148.24 58.5915 148.59 57.7306C149.8 54.5868 151.44 50.1279 156.323 50.7776C161.207 51.4273 171.445 52.8735 167.777 63.7824C164.11 74.6913 160.473 61.3669 160.473 61.3669L151.603 60.6491Z" fill="#263238"/>
<path d="M162.288 81.0364C157.839 80.7587 159.726 76.9233 159.93 75.5033C159.984 74.884 159.849 74.2627 159.542 73.7219C159.335 73.3202 159.082 72.9439 158.788 72.6006C156.839 72.6006 154.68 72.3386 153.134 71.0287C151.405 69.5878 150.719 66.8998 150.436 64.7673C150.214 62.7946 150.175 60.8055 150.32 58.8256C150.32 58.5321 150.362 58.244 150.373 57.9558C150.441 56.8188 150.514 55.687 150.556 54.5762C150.556 54.5762 154.869 53.6278 158.72 54.5081C161.57 55.1578 163.572 57.5261 164.436 61.2515C164.754 62.6703 164.914 64.1201 164.913 65.5742C164.991 71.7675 167.417 72.8521 168.366 74.6702C169.314 76.4884 166.747 81.2984 162.288 81.0364Z" fill="#FF8B7B"/>
<path d="M154.338 66.1085L153.29 62.1211L152.572 66.3128C152.572 66.3128 153.154 66.7896 154.338 66.1085Z" fill="#FF5652"/>
<path d="M157.418 66.79C157.418 66.79 156.763 68.1943 154.678 68.4405" stroke="#263238" stroke-width="0.5" stroke-linecap="round" stroke-linejoin="round"/>
<path d="M157.198 60.0364C156.914 59.7235 156.54 59.5054 156.128 59.4117C155.715 59.318 155.284 59.3531 154.893 59.5124" stroke="#263238" stroke-width="0.75" stroke-linecap="round" stroke-linejoin="round"/>
<path d="M155.543 61.99C155.579 62.3934 155.815 62.7026 156.067 62.6816C156.318 62.6607 156.496 62.3148 156.465 61.9114C156.433 61.5079 156.192 61.1988 155.941 61.2198C155.689 61.2407 155.511 61.5865 155.543 61.99Z" fill="#263238"/>
<path d="M150.91 63.1331C150.947 63.5365 151.183 63.8457 151.434 63.8247C151.686 63.8038 151.864 63.4579 151.832 63.0545C151.801 62.651 151.56 62.3367 151.308 62.3629C151.057 62.3891 150.91 62.7296 150.91 63.1331Z" fill="#263238"/>
<path d="M150.24 58.0182C151.921 57.6342 153.499 56.8925 154.867 55.8438C156.407 60.9367 162.967 61.1201 164.607 61.1201C163.748 57.3947 161.684 54.8063 158.844 54.1566C154.998 53.2764 150.46 54.2929 150.46 54.2929C150.418 55.4089 150.303 56.8865 150.24 58.0182Z" fill="#263238"/>
<path d="M155.941 61.22L154.867 61.0156C154.867 61.0156 155.145 61.7963 155.941 61.22Z" fill="#263238"/>
<path d="M151.525 62.3837L150.451 62.1846C150.451 62.1846 150.729 62.96 151.525 62.3837Z" fill="#263238"/>
<path d="M165.704 51.5908C166.238 49.377 164.788 47.1277 162.464 46.5669C160.141 46.006 157.824 47.3461 157.29 49.5599C156.755 51.7737 158.206 54.023 160.529 54.5838C162.853 55.1447 165.17 53.8047 165.704 51.5908Z" fill="#263238"/>
<path d="M153.464 56.5881L152.594 57.7304C152.594 57.7304 154.894 57.3322 155.402 55.7603C155.91 54.1884 153.993 55.4197 153.993 55.4197L153.464 56.5881Z" fill="#263238"/>
<path opacity="0.1" d="M161.727 71.3535C161.163 72.2806 160.42 73.0858 159.542 73.7218C159.334 73.3201 159.081 72.9439 158.787 72.6006C159.824 72.3341 160.815 71.9137 161.727 71.3535Z" fill="black"/>
<path d="M149.926 61.3407C150.045 60.9679 150.293 60.6494 150.625 60.4413C150.956 60.2333 151.351 60.1491 151.739 60.2037" stroke="#263238" stroke-width="0.75" stroke-linecap="round" stroke-linejoin="round"/>
<path d="M163.266 61.7598C163.41 61.5458 163.573 61.3459 163.754 61.1624C164.367 60.5389 165.367 59.7216 166.295 60.1774C167.416 60.7014 167.18 62.2995 166.866 63.2635C166.613 64.1265 166.034 64.8573 165.252 65.3018C164.147 65.8729 162.501 65.569 162.512 64.0809C162.529 63.2498 162.792 62.4424 163.266 61.7598Z" fill="#FF8B7B"/>
<path d="M164.434 60.0466C164.434 60.0466 162.6 63.138 163.349 65.8731C164.098 68.6082 163.684 69.8971 163.166 71.3485C163.166 71.3485 163.37 67.1935 162.511 65.6949C161.201 63.4052 163.035 60.0361 163.035 60.0361L164.434 60.0466Z" fill="#263238"/>
<path d="M157.352 50.8244C157.352 50.8244 162.099 51.3903 164.954 53.3395C164.954 53.3133 162.476 50.0175 157.352 50.8244Z" fill="#383838"/>
<path d="M98.7443 112.401H128.61C128.914 112.402 129.213 112.333 129.486 112.2C129.758 112.067 129.997 111.874 130.184 111.635C130.371 111.396 130.501 111.118 130.564 110.821C130.627 110.524 130.622 110.217 130.549 109.923L125.236 88.7496C125.128 88.317 124.879 87.9328 124.528 87.6584C124.176 87.384 123.743 87.235 123.297 87.2354H93.4313C93.128 87.2351 92.8286 87.304 92.5559 87.4368C92.2832 87.5696 92.0444 87.7628 91.8575 88.0017C91.6706 88.2406 91.5407 88.5189 91.4774 88.8156C91.4142 89.1122 91.4194 89.4194 91.4927 89.7137L96.7742 110.887C96.8831 111.325 97.1372 111.713 97.495 111.988C97.8527 112.263 98.2931 112.409 98.7443 112.401Z" fill="#263238"/>
<path d="M147.876 112.328H127.578V110.756H146.839C147.117 110.756 147.383 110.866 147.58 111.063C147.776 111.26 147.887 111.526 147.887 111.804V112.359L147.876 112.328Z" fill="#263238"/>
<path opacity="0.3" d="M98.7443 112.401H128.61C128.914 112.402 129.213 112.333 129.486 112.2C129.758 112.067 129.997 111.874 130.184 111.635C130.371 111.396 130.501 111.118 130.564 110.821C130.627 110.524 130.622 110.217 130.549 109.923L125.236 88.7496C125.128 88.317 124.879 87.9328 124.528 87.6584C124.176 87.384 123.743 87.235 123.297 87.2354H93.4313C93.128 87.2351 92.8286 87.304 92.5559 87.4368C92.2832 87.5696 92.0444 87.7628 91.8575 88.0017C91.6706 88.2406 91.5407 88.5189 91.4774 88.8156C91.4142 89.1122 91.4194 89.4194 91.4927 89.7137L96.7742 110.887C96.8831 111.325 97.1372 111.713 97.495 111.988C97.8527 112.263 98.2931 112.409 98.7443 112.401Z" fill="black"/>
<path d="M97.1792 112.401H127.045C127.348 112.402 127.648 112.333 127.921 112.2C128.193 112.067 128.432 111.874 128.619 111.635C128.806 111.396 128.936 111.118 128.999 110.821C129.062 110.524 129.057 110.217 128.984 109.923L123.666 88.7496C123.558 88.317 123.309 87.9328 122.957 87.6584C122.606 87.384 122.173 87.235 121.727 87.2354H91.861C91.5577 87.2351 91.2583 87.304 90.9856 87.4368C90.7129 87.5696 90.4741 87.7628 90.2872 88.0017C90.1003 88.2406 89.9703 88.5189 89.9071 88.8156C89.8439 89.1122 89.8491 89.4194 89.9224 89.7137L95.2039 110.887C95.3139 111.325 95.5689 111.714 95.9276 111.989C96.2862 112.264 96.7274 112.409 97.1792 112.401Z" fill="#263238"/>
<path opacity="0.2" d="M97.1792 112.401H127.045C127.348 112.402 127.648 112.333 127.921 112.2C128.193 112.067 128.432 111.874 128.619 111.635C128.806 111.396 128.936 111.118 128.999 110.821C129.062 110.524 129.057 110.217 128.984 109.923L123.666 88.7496C123.558 88.317 123.309 87.9328 122.957 87.6584C122.606 87.384 122.173 87.235 121.727 87.2354H91.861C91.5577 87.2351 91.2583 87.304 90.9856 87.4368C90.7129 87.5696 90.4741 87.7628 90.2872 88.0017C90.1003 88.2406 89.9703 88.5189 89.9071 88.8156C89.8439 89.1122 89.8491 89.4194 89.9224 89.7137L95.2039 110.887C95.3139 111.325 95.5689 111.714 95.9276 111.989C96.2862 112.264 96.7274 112.409 97.1792 112.401Z" fill="white"/>
<path opacity="0.3" d="M110.782 99.1971C111.196 100.963 110.363 102.676 108.917 103.017C107.471 103.357 105.951 102.205 105.532 100.439C105.113 98.6732 105.951 96.9598 107.397 96.6192C108.843 96.2786 110.363 97.4576 110.782 99.1971Z" fill="black"/>
<path d="M89.9333 114.24L78.9143 182.576H76.4727L87.5545 113.853L89.9333 114.24Z" fill="#383838"/>
<path opacity="0.5" d="M89.9333 114.24L78.9143 182.576H76.4727L87.5545 113.853L89.9333 114.24Z" fill="white"/>
<path d="M106.145 182.575H103.698L93.0508 114.234L95.4348 113.862L106.145 182.575Z" fill="#383838"/>
<path opacity="0.5" d="M106.145 182.575H103.698L93.0508 114.234L95.4348 113.862L106.145 182.575Z" fill="white"/>
<path d="M131.565 114.24L120.547 182.576H118.1L129.181 113.853L131.565 114.24Z" fill="#383838"/>
<path opacity="0.5" d="M131.565 114.24L120.547 182.576H118.1L129.181 113.853L131.565 114.24Z" fill="white"/>
<path d="M168.344 182.575H165.902L155.25 114.234L157.634 113.862L168.344 182.575Z" fill="#383838"/>
<path opacity="0.5" d="M168.344 182.575H165.902L155.25 114.234L157.634 113.862L168.344 182.575Z" fill="white"/>
<path d="M171.346 111.908H70.0898V115.089H171.346V111.908Z" fill="#383838"/>
<path opacity="0.3" d="M171.394 111.908H130.582V115.089H171.394V111.908Z" fill="black"/>
<path d="M167.715 111.908H150.99C150.99 111.661 151.089 111.424 151.263 111.249C151.438 111.074 151.676 110.976 151.923 110.976H166.777C167.025 110.976 167.263 111.074 167.439 111.248C167.614 111.423 167.714 111.66 167.715 111.908Z" fill="#263238"/>
<path d="M161.643 102.995L159.39 108.403C158.976 108.319 158.604 108.261 158.342 108.224L160.689 102.592C160.743 102.463 160.845 102.361 160.974 102.308C161.102 102.255 161.247 102.255 161.376 102.309C161.504 102.362 161.606 102.465 161.659 102.593C161.712 102.722 161.712 102.867 161.658 102.995H161.643Z" fill="#263238"/>
<path d="M163.236 98.762C166.13 98.762 168.475 96.0454 168.475 92.6945C168.475 89.3435 166.13 86.627 163.236 86.627C160.342 86.627 157.996 89.3435 157.996 92.6945C157.996 96.0454 160.342 98.762 163.236 98.762Z" fill="#263238"/>
<path d="M174.821 90.829L174.465 89.5662L182.487 85.5684L182.759 87.0826L174.821 90.829Z" fill="#263238"/>
<path opacity="0.1" d="M174.462 89.5664L172.031 85.9248L175.893 94.9475L174.462 89.5664Z" fill="black"/>
<path d="M152.624 93.7008L152.404 92.3333L149.004 91.0391V92.3333L152.624 93.7008Z" fill="#263238"/>
<path opacity="0.1" d="M152.626 93.7001C152.558 93.4381 151.725 87.7217 151.725 87.7217V93.3595L152.626 93.7001Z" fill="black"/>
<path d="M159.4 76.4673C159.4 76.4673 157.105 81.5916 162.512 81.4292C167.919 81.2668 169.282 77.2742 169.554 74.3033L167.867 73.7217C167.867 73.7217 166.892 77.9134 163.235 78.7465C159.578 79.5796 159.882 75.7651 159.882 75.7651L159.4 76.4673Z" fill="#263238"/>
<path opacity="0.1" d="M128.674 179.243L134.38 180.584L134.705 179.154L129.004 177.985L128.674 179.243Z" fill="black"/>
</svg>
