<svg width="158" height="158" viewBox="0 0 158 158" fill="none" xmlns="http://www.w3.org/2000/svg">
<path d="M42.793 115.209H23.043V134.959" stroke="#383838" stroke-width="13" stroke-linecap="round" stroke-linejoin="round"/>
<path d="M134.961 134.959H115.211V115.209" stroke="#383838" stroke-width="13" stroke-linecap="round" stroke-linejoin="round"/>
<path d="M115.211 42.792H134.961V23.042" stroke="#383838" stroke-width="13" stroke-linecap="round" stroke-linejoin="round"/>
<path d="M23.043 23.042H42.793V42.792" stroke="#383838" stroke-width="13" stroke-linecap="round" stroke-linejoin="round"/>
<path d="M42.793 24.0098C24.9448 35.7855 13.168 56.0174 13.168 79.0002C13.168 82.3564 13.4191 85.654 13.9037 88.8752" stroke="#383838" stroke-width="13" stroke-linecap="round" stroke-linejoin="round"/>
<path d="M88.8771 144.098C85.6559 144.583 82.3583 144.834 79.0021 144.834C56.0194 144.834 35.7875 133.057 24.0117 115.209" stroke="#383838" stroke-width="13" stroke-linecap="round" stroke-linejoin="round"/>
<path d="M144.1 69.125C144.585 72.3462 144.836 75.6438 144.836 79C144.836 101.983 133.059 122.215 115.211 133.991" stroke="#383838" stroke-width="13" stroke-linecap="round" stroke-linejoin="round"/>
<path d="M69.125 13.9027C72.3462 13.4181 75.6438 13.167 79 13.167C101.983 13.167 122.215 24.9439 133.991 42.792" stroke="#383838" stroke-width="13" stroke-linecap="round" stroke-linejoin="round"/>
</svg>
