<svg width="40" height="40" viewBox="0 0 40 40" fill="none" xmlns="http://www.w3.org/2000/svg">
<path d="M3.33333 11.6668V9.5835C2.18333 9.5835 1.25 10.5168 1.25 11.6668H3.33333ZM21.6667 11.6668H23.75C23.75 10.5168 22.8167 9.5835 21.6667 9.5835V11.6668ZM21.6667 15.0002V12.9168C21.1141 12.9168 20.5842 13.1363 20.1935 13.527C19.8028 13.9177 19.5833 14.4476 19.5833 15.0002H21.6667ZM3.33333 13.7502H21.6667V9.5835H3.33333V13.7502ZM19.5833 11.6668V31.6668H23.75V11.6668H19.5833ZM5.41667 28.3335V11.6668H1.25V28.3335H5.41667ZM21.6667 17.0835H30V12.9168H21.6667V17.0835ZM34.5833 21.6668V28.3335H38.75V21.6668H34.5833ZM23.75 31.6668V15.0002H19.5833V31.6668H23.75ZM30.8833 32.5502C30.649 32.7842 30.3313 32.9157 30 32.9157C29.6687 32.9157 29.351 32.7842 29.1167 32.5502L26.17 35.4968C27.1858 36.5126 28.5635 37.0832 30 37.0832C31.4365 37.0832 32.8142 36.5126 33.83 35.4968L30.8833 32.5502ZM29.1167 30.7835C29.351 30.5494 29.6687 30.4179 30 30.4179C30.3313 30.4179 30.649 30.5494 30.8833 30.7835L33.83 27.8368C32.8142 26.8211 31.4365 26.2505 30 26.2505C28.5635 26.2505 27.1858 26.8211 26.17 27.8368L29.1167 30.7835ZM10.8833 32.5502C10.649 32.7842 10.3313 32.9157 10 32.9157C9.66875 32.9157 9.35104 32.7842 9.11667 32.5502L6.17 35.4968C7.18581 36.5126 8.56349 37.0832 10 37.0832C11.4365 37.0832 12.8142 36.5126 13.83 35.4968L10.8833 32.5502ZM9.11667 30.7835C9.35104 30.5494 9.66875 30.4179 10 30.4179C10.3313 30.4179 10.649 30.5494 10.8833 30.7835L13.83 27.8368C12.8142 26.8211 11.4365 26.2505 10 26.2505C8.56349 26.2505 7.18581 26.8211 6.17 27.8368L9.11667 30.7835ZM30.8833 30.7835C31.0002 30.8989 31.0928 31.0365 31.1558 31.1882C31.2187 31.3399 31.2508 31.5026 31.25 31.6668H35.4167C35.4175 30.9554 35.2778 30.2508 35.0055 29.5935C34.7332 28.9362 34.3337 28.3392 33.83 27.8368L30.8833 30.7835ZM31.25 31.6668C31.2504 31.831 31.2182 31.9936 31.1553 32.1453C31.0923 32.2969 30.9999 32.4345 30.8833 32.5502L33.83 35.4968C34.3334 34.9942 34.7327 34.3972 35.005 33.7399C35.2773 33.0827 35.4172 32.3782 35.4167 31.6668H31.25ZM26.6667 29.5835H21.6667V33.7502H26.6667V29.5835ZM29.1167 32.5502C29.0001 32.4345 28.9077 32.2969 28.8447 32.1453C28.7818 31.9936 28.7496 31.831 28.75 31.6668H24.5833C24.5833 33.0502 25.1133 34.4402 26.17 35.4968L29.1167 32.5502ZM28.75 31.6668C28.7492 31.5026 28.7813 31.3399 28.8442 31.1882C28.9072 31.0365 28.9998 30.8989 29.1167 30.7835L26.17 27.8368C25.6666 28.3395 25.2673 28.9365 24.995 29.5937C24.7227 30.2509 24.5828 30.9554 24.5833 31.6668H28.75ZM9.11667 32.5502C9.00011 32.4345 8.90769 32.2969 8.84474 32.1453C8.7818 31.9936 8.7496 31.831 8.75 31.6668H4.58333C4.58333 33.0502 5.11333 34.4402 6.17 35.4968L9.11667 32.5502ZM8.75 31.6668C8.74922 31.5026 8.78126 31.3399 8.84422 31.1882C8.90719 31.0365 8.99981 30.8989 9.11667 30.7835L6.17 27.8368C5.66656 28.3395 5.26727 28.9365 4.995 29.5937C4.72272 30.2509 4.58283 30.9554 4.58333 31.6668H8.75ZM21.6667 29.5835H13.3333V33.7502H21.6667V29.5835ZM10.8833 30.7835C11.0002 30.8989 11.0928 31.0365 11.1558 31.1882C11.2187 31.3399 11.2508 31.5026 11.25 31.6668H15.4167C15.4167 30.2835 14.8867 28.8935 13.83 27.8368L10.8833 30.7835ZM11.25 31.6668C11.2504 31.831 11.2182 31.9936 11.1553 32.1453C11.0923 32.2969 10.9999 32.4345 10.8833 32.5502L13.83 35.4968C14.3334 34.9942 14.7327 34.3972 15.005 33.7399C15.2773 33.0827 15.4172 32.3782 15.4167 31.6668H11.25ZM34.5833 28.3335C34.5833 28.665 34.4516 28.983 34.2172 29.2174C33.9828 29.4518 33.6649 29.5835 33.3333 29.5835V33.7502C34.7699 33.7502 36.1477 33.1795 37.1635 32.1637C38.1793 31.1478 38.75 29.7701 38.75 28.3335H34.5833ZM30 17.0835C31.2156 17.0835 32.3814 17.5664 33.2409 18.4259C34.1004 19.2855 34.5833 20.4513 34.5833 21.6668H38.75C38.75 16.8335 34.8333 12.9168 30 12.9168V17.0835ZM1.25 28.3335C1.25 29.7701 1.82068 31.1478 2.8365 32.1637C3.85233 33.1795 5.23008 33.7502 6.66667 33.7502V29.5835C6.33515 29.5835 6.0172 29.4518 5.78278 29.2174C5.54836 28.983 5.41667 28.665 5.41667 28.3335H1.25Z" fill="#F7971D"/>
<path d="M12.4997 10C12.4997 8.67392 11.9729 7.40215 11.0352 6.46447C10.0975 5.52678 8.82576 5 7.49967 5C7.05765 5 6.63372 5.17559 6.32116 5.48816C6.0086 5.80072 5.83301 6.22464 5.83301 6.66667C5.83301 7.99275 6.35979 9.26452 7.29747 10.2022C8.23516 11.1399 9.50693 11.6667 10.833 11.6667H12.4997M12.4997 10V11.6667M12.4997 10C12.4997 8.67392 13.0265 7.40215 13.9641 6.46447C14.9018 5.52678 16.1736 5 17.4997 5C17.9417 5 18.3656 5.17559 18.6782 5.48816C18.9907 5.80072 19.1663 6.22464 19.1663 6.66667C19.1663 7.99275 18.6396 9.26452 17.7019 10.2022C16.7642 11.1399 15.4924 11.6667 14.1663 11.6667H12.4997" stroke="#F7971D" stroke-width="2.5" stroke-linejoin="round"/>
</svg>
