<svg width="80" height="80" viewBox="0 0 80 80" fill="none" xmlns="http://www.w3.org/2000/svg">
<rect width="80" height="80" rx="8" fill="url(#paint0_linear_1346_6717)"/>
<path d="M57.6394 48.4938C55.6472 47.3406 53.219 47.65 51.5831 49.0938L49.0987 47.6547V40.5437C49.0987 39.8078 48.705 39.1234 48.0675 38.7578L41.6925 35.0875V31.9422C43.7644 31.2391 45.255 29.2797 45.255 26.9688C45.255 24.0672 42.9065 21.7188 40.005 21.7188C37.1034 21.7188 34.755 24.0672 34.755 26.9688C34.755 29.2797 36.2456 31.2391 38.3175 31.9422V35.0875L31.9425 38.7578C31.305 39.1234 30.9112 39.8078 30.9112 40.5437V47.65L28.4269 49.0891C26.7909 47.6453 24.3581 47.3359 22.3706 48.4891C19.8628 49.9422 19.0097 53.1484 20.4487 55.6562C21.8925 58.1641 25.0847 59.0266 27.5831 57.5781C29.5753 56.425 30.5222 54.1562 30.0956 52.0094L32.3784 50.6828L38.969 54.4797C39.2878 54.6625 39.644 54.7562 40.0003 54.7562C40.3565 54.7562 40.7128 54.6625 41.0315 54.4797L47.6175 50.6875L49.9003 52.0141C49.4737 54.1562 50.4253 56.4297 52.4128 57.5828C54.9112 59.0312 58.1081 58.1734 59.5472 55.6609C60.9909 53.1484 60.1378 49.9422 57.6394 48.4938ZM26.0925 54.9812C25.8379 55.1287 25.5566 55.2244 25.2649 55.2627C24.9732 55.301 24.6768 55.2813 24.3927 55.2046C24.1087 55.1279 23.8426 54.9958 23.6098 54.8159C23.377 54.636 23.182 54.4118 23.0362 54.1562C22.4175 53.0828 22.7831 51.7047 23.8565 51.0859C24.1111 50.9385 24.3924 50.8428 24.6841 50.8045C24.9758 50.7662 25.2723 50.7859 25.5563 50.8626C25.8404 50.9393 26.1065 51.0714 26.3393 51.2513C26.5721 51.4312 26.767 51.6554 26.9128 51.9109C27.5315 52.9844 27.1659 54.3625 26.0925 54.9812ZM37.7503 26.9688C37.7623 26.38 38.0046 25.8194 38.4253 25.4072C38.8459 24.9951 39.4114 24.7642 40.0003 24.7642C40.5892 24.7642 41.1546 24.9951 41.5753 25.4072C41.9959 25.8194 42.2383 26.38 42.2503 26.9688C42.2383 27.5575 41.9959 28.1181 41.5753 28.5303C41.1546 28.9424 40.5892 29.1733 40.0003 29.1733C39.4114 29.1733 38.8459 28.9424 38.4253 28.5303C38.0046 28.1181 37.7623 27.5575 37.7503 26.9688ZM45.719 47.8844L40.0003 51.1797L34.2815 47.8844V41.3031L40.0003 38.0078L45.719 41.3031V47.8844ZM56.9644 54.1609C56.3456 55.2344 54.9769 55.6047 53.9081 54.9859C52.8394 54.3672 52.469 52.9891 53.0878 51.9156C53.7065 50.8422 55.0753 50.4719 56.144 51.0906C57.2175 51.7094 57.5831 53.0828 56.9644 54.1609Z" fill="#383838"/>
<defs>
<linearGradient id="paint0_linear_1346_6717" x1="0" y1="80" x2="80" y2="0" gradientUnits="userSpaceOnUse">
<stop stop-color="#DE3C63"/>
<stop offset="0.4" stop-color="#F7971D"/>
<stop offset="1" stop-color="#FFD700"/>
</linearGradient>
</defs>
</svg>
