<svg width="76" height="70" viewBox="0 0 76 70" fill="none" xmlns="http://www.w3.org/2000/svg">
<rect x="0.917969" width="74.1667" height="69.9235" rx="8" fill="url(#paint0_linear_1346_6596)"/>
<path d="M20.7513 50.0901V24.5985C20.7512 24.205 20.8721 23.8211 21.0978 23.4987C21.3234 23.1764 21.6428 22.9313 22.0125 22.7968L40.5486 16.0578C40.6933 16.0051 40.8487 15.9881 41.0015 16.0082C41.1542 16.0283 41.2999 16.085 41.4261 16.1734C41.5523 16.2618 41.6553 16.3793 41.7265 16.516C41.7976 16.6527 41.8347 16.8045 41.8346 16.9586V26.4519L53.9403 30.4865C54.3221 30.6136 54.6542 30.8577 54.8895 31.1842C55.1248 31.5107 55.2514 31.9029 55.2513 32.3054V50.0901H59.0846V53.9235H16.918V50.0901H20.7513ZM24.5846 50.0901H38.0013V21.0641L24.5846 25.9401V50.0901ZM51.418 50.0901V33.6873L41.8346 30.4922V50.0901H51.418Z" fill="#383838"/>
<defs>
<linearGradient id="paint0_linear_1346_6596" x1="0.917969" y1="69.9235" x2="70.7203" y2="-4.11469" gradientUnits="userSpaceOnUse">
<stop stop-color="#DE3C63"/>
<stop offset="0.4" stop-color="#F7971D"/>
<stop offset="1" stop-color="#FFD700"/>
</linearGradient>
</defs>
</svg>
