<svg width="145" height="146" viewBox="0 0 145 146" fill="none" xmlns="http://www.w3.org/2000/svg">
<g opacity="0.8">
<path d="M7.81377 137.744L54.7849 90.7728M113.934 69.8853L99.8739 112.066C99.6496 112.742 99.2654 113.354 98.754 113.85C98.2426 114.346 97.6191 114.712 96.9364 114.915L10.7439 140.534C9.96741 140.765 9.1425 140.778 8.35899 140.572C7.57548 140.366 6.86337 139.95 6.30017 139.368C5.73698 138.785 5.34426 138.06 5.16477 137.27C4.98528 136.48 5.02589 135.656 5.28217 134.888L33.27 50.9389C33.4706 50.3361 33.7985 49.7836 34.2315 49.3188C34.6645 48.8539 35.1924 48.4877 35.7795 48.2449L75.5396 31.8744C76.3479 31.5406 77.237 31.4535 78.0947 31.6243C78.9524 31.7951 79.7404 32.2159 80.3592 32.8339L112.864 65.3461C113.447 65.9283 113.856 66.6615 114.045 67.4634C114.234 68.2653 114.196 69.104 113.934 69.8853Z" stroke="#383838" stroke-width="10" stroke-linecap="round" stroke-linejoin="round"/>
<path d="M114.804 67.2874L135.677 46.4073C138.444 43.6391 139.999 39.8851 139.999 35.9709C139.999 32.0567 138.444 28.3027 135.677 25.5345L120.03 9.87254C118.659 8.50117 117.031 7.41331 115.24 6.6711C113.449 5.92889 111.529 5.54688 109.59 5.54688C107.651 5.54688 105.731 5.92889 103.939 6.6711C102.148 7.41331 100.52 8.50117 99.1496 9.87254L78.2768 30.7527M70.4384 75.111C69.41 74.0831 68.1893 73.2679 66.8458 72.7118C65.5024 72.1556 64.0625 71.8696 62.6085 71.87C61.1545 71.8703 59.7148 72.157 58.3716 72.7138C57.0284 73.2705 55.808 74.0864 54.7802 75.1147C53.7523 76.1431 52.937 77.3639 52.3809 78.7073C51.8248 80.0508 51.5387 81.4906 51.5391 82.9446C51.5394 84.3986 51.8261 85.8383 52.3829 87.1815C52.9396 88.5247 53.7555 89.7451 54.7838 90.773C56.8607 92.8489 59.6772 94.0148 62.6137 94.0141C65.5502 94.0134 68.3662 92.8462 70.4421 90.7693C72.518 88.6924 73.6839 85.8759 73.6832 82.9394C73.6825 80.0029 72.5153 77.187 70.4384 75.111Z" stroke="#383838" stroke-width="10" stroke-linecap="round" stroke-linejoin="round"/>
</g>
</svg>
