<svg width="80" height="80" viewBox="0 0 80 80" fill="none" xmlns="http://www.w3.org/2000/svg">
<rect width="80" height="80" rx="8" fill="url(#paint0_linear_1346_6708)"/>
<path d="M29.4399 34.2292L22.5136 40.0005L29.4399 45.7717C29.6696 45.96 29.8598 46.1918 29.9994 46.4539C30.1391 46.716 30.2255 47.0032 30.2536 47.2989C30.2817 47.5945 30.251 47.8928 30.1633 48.1765C30.0756 48.4603 29.9326 48.7239 29.7425 48.952C29.5524 49.1802 29.3191 49.3685 29.0559 49.5061C28.7926 49.6437 28.5048 49.7277 28.2089 49.7535C27.9131 49.7793 27.615 49.7462 27.332 49.6562C27.049 49.5663 26.7866 49.4211 26.5599 49.2292L17.5599 41.7292C17.3064 41.5181 17.1025 41.2538 16.9625 40.955C16.8225 40.6563 16.75 40.3304 16.75 40.0005C16.75 39.6706 16.8225 39.3447 16.9625 39.046C17.1025 38.7472 17.3064 38.4829 17.5599 38.2717L26.5599 30.7717C27.019 30.3955 27.6083 30.2159 28.1992 30.2721C28.7902 30.3283 29.3349 30.6158 29.7149 31.0719C30.0948 31.5281 30.2791 32.1158 30.2276 32.7072C30.1761 33.2986 29.893 33.8457 29.4399 34.2292ZM62.4399 38.2717L53.4399 30.7717C53.2132 30.5798 52.9508 30.4347 52.6678 30.3447C52.3848 30.2548 52.0867 30.2217 51.7908 30.2475C51.495 30.2732 51.2071 30.3573 50.9439 30.4949C50.6807 30.6324 50.4473 30.8207 50.2573 31.0489C50.0672 31.2771 49.9242 31.5407 49.8365 31.8244C49.7487 32.1082 49.7181 32.4065 49.7462 32.7021C49.7743 32.9978 49.8607 33.2849 50.0004 33.547C50.14 33.8091 50.3302 34.041 50.5599 34.2292L57.4861 40.0005L50.5599 45.7717C50.3302 45.96 50.14 46.1918 50.0004 46.4539C49.8607 46.716 49.7743 47.0032 49.7462 47.2989C49.7181 47.5945 49.7487 47.8928 49.8365 48.1765C49.9242 48.4603 50.0672 48.7239 50.2573 48.952C50.4473 49.1802 50.6807 49.3685 50.9439 49.5061C51.2071 49.6437 51.495 49.7277 51.7908 49.7535C52.0867 49.7793 52.3848 49.7462 52.6678 49.6562C52.9508 49.5663 53.2132 49.4211 53.4399 49.2292L62.4399 41.7292C62.6934 41.5181 62.8973 41.2538 63.0373 40.955C63.1772 40.6563 63.2498 40.3304 63.2498 40.0005C63.2498 39.6706 63.1772 39.3447 63.0373 39.046C62.8973 38.7472 62.6934 38.4829 62.4399 38.2717ZM46.7686 21.3855C46.4909 21.2845 46.196 21.2392 45.9007 21.2522C45.6055 21.2652 45.3157 21.3362 45.0479 21.4612C44.7801 21.5862 44.5395 21.7628 44.34 21.9808C44.1405 22.1988 43.9858 22.454 43.8849 22.7317L31.8849 55.7317C31.6815 56.2924 31.709 56.9109 31.9615 57.4513C32.2139 57.9917 32.6706 58.4098 33.2311 58.6136C33.4772 58.7045 33.7375 58.7508 33.9999 58.7505C34.4618 58.7506 34.9126 58.6085 35.291 58.3435C35.6694 58.0784 35.9571 57.7034 36.1149 57.2692L48.1149 24.2692C48.2159 23.9915 48.2612 23.6966 48.2482 23.4013C48.2352 23.1061 48.1642 22.8163 48.0392 22.5485C47.9141 22.2807 47.7376 22.0401 47.5196 21.8406C47.3016 21.641 47.0464 21.4864 46.7686 21.3855Z" fill="#383838"/>
<defs>
<linearGradient id="paint0_linear_1346_6708" x1="0" y1="80" x2="80" y2="0" gradientUnits="userSpaceOnUse">
<stop stop-color="#DE3C63"/>
<stop offset="0.4" stop-color="#F7971D"/>
<stop offset="1" stop-color="#FFD700"/>
</linearGradient>
</defs>
</svg>
