<svg width="80" height="80" viewBox="0 0 80 80" fill="none" xmlns="http://www.w3.org/2000/svg">
<rect width="80" height="80" rx="8" fill="url(#paint0_linear_1346_6577)"/>
<path d="M25 41.25C24.8619 41.25 24.75 41.3619 24.75 41.5V44.5C24.75 44.6381 24.8619 44.75 25 44.75H37C37.1381 44.75 37.25 44.6381 37.25 44.5V41.5C37.25 41.3619 37.1381 41.25 37 41.25H25Z" fill="#383838" stroke="#383838" stroke-width="0.5" stroke-linejoin="round"/>
<path d="M20.5 44.75C21.4665 44.75 22.25 43.9665 22.25 43C22.25 42.0335 21.4665 41.25 20.5 41.25C19.5335 41.25 18.75 42.0335 18.75 43C18.75 43.9665 19.5335 44.75 20.5 44.75Z" fill="#383838" stroke="#383838" stroke-width="0.5" stroke-linejoin="round"/>
<path d="M35.5 38.75C36.4665 38.75 37.25 37.9665 37.25 37C37.25 36.0335 36.4665 35.25 35.5 35.25C34.5335 35.25 33.75 36.0335 33.75 37C33.75 37.9665 34.5335 38.75 35.5 38.75Z" fill="#383838" stroke="#383838" stroke-width="0.5" stroke-linejoin="round"/>
<path d="M19 35.25C18.8619 35.25 18.75 35.3619 18.75 35.5V38.5C18.75 38.6381 18.8619 38.75 19 38.75H31C31.1381 38.75 31.25 38.6381 31.25 38.5V35.5C31.25 35.3619 31.1381 35.25 31 35.25H19ZM25 29.25C24.8619 29.25 24.75 29.3619 24.75 29.5V32.5C24.75 32.6381 24.8619 32.75 25 32.75H37C37.1381 32.75 37.25 32.6381 37.25 32.5V29.5C37.25 29.3619 37.1381 29.25 37 29.25H25Z" fill="#383838" stroke="#383838" stroke-width="0.5" stroke-linejoin="round"/>
<path d="M20.5 32.75C21.4665 32.75 22.25 31.9665 22.25 31C22.25 30.0335 21.4665 29.25 20.5 29.25C19.5335 29.25 18.75 30.0335 18.75 31C18.75 31.9665 19.5335 32.75 20.5 32.75Z" fill="#383838" stroke="#383838" stroke-width="0.5" stroke-linejoin="round"/>
<path d="M61.176 59.0768C61.2736 58.9791 61.2736 58.8209 61.176 58.7232L50.2284 47.7756C52.4319 44.7637 53.7492 41.0281 53.7492 37C53.7492 26.9619 45.5373 18.75 35.4992 18.75C30.4813 18.75 25.7639 20.7278 22.2652 24.5307C22.1722 24.6318 22.1782 24.789 22.2786 24.8828L24.5286 26.9828C24.5785 27.0293 24.6451 27.0534 24.7131 27.0496C24.7812 27.0458 24.8447 27.0144 24.889 26.9627C27.5374 23.8729 31.3656 22.25 35.4992 22.25C43.6111 22.25 50.2492 28.8881 50.2492 37C50.2492 45.1119 43.6111 51.75 35.4992 51.75C31.0725 51.75 26.9436 49.8323 24.142 46.4408C24.0991 46.3889 24.0371 46.3565 23.97 46.3509C23.9029 46.3453 23.8364 46.367 23.7855 46.4111L21.5355 48.3611C21.4334 48.4496 21.4201 48.6032 21.5054 48.7079C24.8542 52.8178 30.0261 55.25 35.4992 55.25C40.2829 55.25 44.6217 53.3407 47.94 50.3943L58.7224 61.1768C58.8201 61.2744 58.9784 61.2744 59.076 61.1768L61.176 59.0768Z" fill="#383838" stroke="#383838" stroke-width="0.5" stroke-linejoin="round"/>
<defs>
<linearGradient id="paint0_linear_1346_6577" x1="0" y1="80" x2="80" y2="0" gradientUnits="userSpaceOnUse">
<stop stop-color="#DE3C63"/>
<stop offset="0.4" stop-color="#F7971D"/>
<stop offset="1" stop-color="#FFD700"/>
</linearGradient>
</defs>
</svg>
