<svg width="100" height="100" viewBox="0 0 100 100" fill="none" xmlns="http://www.w3.org/2000/svg">
<path d="M54.1889 22.7538C59.0341 22.7538 62.9618 18.8261 62.9618 13.9809C62.9618 9.13578 59.0341 5.20801 54.1889 5.20801C49.3438 5.20801 45.416 9.13578 45.416 13.9809C45.416 18.8261 49.3438 22.7538 54.1889 22.7538Z" stroke="#383838" stroke-width="6" stroke-linecap="round" stroke-linejoin="round"/>
<path d="M86.0092 54.6747C90.8544 54.6747 94.7822 50.747 94.7822 45.9018C94.7822 41.0567 90.8544 37.1289 86.0092 37.1289C81.1641 37.1289 77.2363 41.0567 77.2363 45.9018C77.2363 50.747 81.1641 54.6747 86.0092 54.6747Z" stroke="#383838" stroke-width="6" stroke-linecap="round" stroke-linejoin="round"/>
<path d="M65.4741 94.7919C70.3192 94.7919 74.247 90.8642 74.247 86.019C74.247 81.1739 70.3192 77.2461 65.4741 77.2461C60.6289 77.2461 56.7012 81.1739 56.7012 86.019C56.7012 90.8642 60.6289 94.7919 65.4741 94.7919Z" stroke="#383838" stroke-width="6" stroke-linecap="round" stroke-linejoin="round"/>
<path d="M20.9663 87.662C25.8114 87.662 29.7392 83.7343 29.7392 78.8891C29.7392 74.044 25.8114 70.1162 20.9663 70.1162C16.1211 70.1162 12.1934 74.044 12.1934 78.8891C12.1934 83.7343 16.1211 87.662 20.9663 87.662Z" stroke="#383838" stroke-width="6" stroke-linecap="round" stroke-linejoin="round"/>
<path d="M13.9917 43.1415C18.8368 43.1415 22.7646 39.2138 22.7646 34.3686C22.7646 29.5235 18.8368 25.5957 13.9917 25.5957C9.14652 25.5957 5.21875 29.5235 5.21875 34.3686C5.21875 39.2138 9.14652 43.1415 13.9917 43.1415Z" stroke="#383838" stroke-width="6" stroke-linecap="round" stroke-linejoin="round"/>
<path d="M50.2237 21.8081L25.182 71.1956M78.2133 49.929L28.9987 75.3581M64.1174 77.354L55.5487 22.6498M20.1862 40.5831L59.282 79.804M77.3445 44.5144L22.5904 36.1227M46.2299 18.0186L21.8154 30.4019M19.5341 70.2352L15.332 43.0415M56.7008 84.7352L29.5404 80.7623M82.0112 53.7123L69.4716 78.2081M60.3841 20.1956L79.8154 39.6894" stroke="#383838" stroke-width="6" stroke-linecap="round" stroke-linejoin="round"/>
</svg>
