<svg width="272" height="242" viewBox="0 0 272 242" fill="none" xmlns="http://www.w3.org/2000/svg">
<path d="M65.8085 0.214844H51.0859C46.5846 0.214844 42.9355 3.8639 42.9355 8.36523V23.0956C42.9355 27.5969 46.5846 31.246 51.0859 31.246H65.8085C70.3098 31.246 73.9588 27.5969 73.9588 23.0956V8.36523C73.9588 3.8639 70.3098 0.214844 65.8085 0.214844Z" fill="white"/>
<path d="M65.8396 31.246C65.8396 31.246 66.2322 31.246 66.9467 31.1125C68.0028 30.97 69.0169 30.6061 69.9227 30.0446C71.3722 29.1847 72.5148 27.891 73.1891 26.3463C73.6005 25.3871 73.827 24.3588 73.8565 23.3155C73.8565 22.2005 73.8565 21.0148 73.8565 19.7663C73.8565 17.2773 73.8565 14.5526 73.8565 11.6238C73.8565 10.8936 73.8565 10.1476 73.8565 9.38598C73.8646 8.6263 73.8094 7.86727 73.6916 7.11675C73.5778 6.35223 73.3447 5.61034 73.0006 4.91818C72.6601 4.19672 72.2069 3.53409 71.658 2.95518C70.5232 1.75321 69.0452 0.930605 67.4257 0.599576C66.5793 0.467178 65.7222 0.4146 64.866 0.442535H51.0935C49.274 0.442823 47.5094 1.06633 46.0936 2.20926C44.6778 3.35219 43.6962 4.94557 43.3122 6.72414C43.1614 7.58709 43.1009 8.46339 43.1316 9.33887V11.9457C43.1316 13.6732 43.1316 15.3614 43.1316 17.0103C43.1316 18.6592 43.1316 20.261 43.1316 21.8236C43.1087 22.5832 43.1297 23.3435 43.1944 24.1007C43.2874 24.8226 43.4721 25.5298 43.744 26.205C44.2637 27.4362 45.0822 28.5183 46.1256 29.3533C47.169 30.1883 48.4043 30.7498 49.7194 30.9869C50.8871 31.1184 52.0627 31.1657 53.2371 31.1282H56.3779H61.4503H64.6618H65.4941C65.5881 31.1179 65.6829 31.1179 65.7768 31.1282H65.4941H64.6618L61.4503 31.1675H56.3779H53.2371C52.0476 31.22 50.8558 31.1806 49.6723 31.0497C48.2958 30.8202 46.9992 30.2484 45.9015 29.3867C44.8038 28.5251 43.9404 27.4012 43.3907 26.1186C43.0966 25.4155 42.8985 24.676 42.8018 23.9201C42.7311 23.137 42.7048 22.3505 42.7233 21.5645C42.7233 19.994 42.7233 18.4236 42.7233 16.7512C42.7233 15.0787 42.7233 13.4141 42.7233 11.6866V9.32316C42.6866 8.42154 42.7471 7.51858 42.9039 6.62992C43.3016 4.75701 44.3305 3.07752 45.8185 1.87256C47.3064 0.667607 49.1632 0.0103063 51.0778 0.0106745H64.8346C65.7176 -0.0260049 66.6021 0.0319071 67.4728 0.18342C69.1745 0.539779 70.7226 1.41813 71.9014 2.69606C72.4729 3.30082 72.9447 3.99257 73.299 4.74544C73.6571 5.4726 73.8982 6.25166 74.0136 7.05393C74.1174 7.83455 74.1542 8.62264 74.1235 9.40954C74.1235 10.1947 74.1235 10.9171 74.1235 11.6474C74.1235 14.5762 74.1235 17.3008 74.1235 19.7899C74.1235 21.0384 74.1235 22.224 74.1235 23.3469C74.0912 24.4311 73.8458 25.4983 73.4011 26.4877C72.6791 28.0575 71.4777 29.3579 69.9698 30.2017C69.0393 30.7491 68.0039 31.0943 66.931 31.2146C66.5687 31.2547 66.2037 31.2652 65.8396 31.246Z" fill="#263238"/>
<path d="M59.7971 15.5657C60.4809 15.2666 61.0615 14.7727 61.4665 14.1458C61.8714 13.5188 62.0828 12.7865 62.0742 12.0401C62.0969 11.5564 62.0211 11.073 61.8516 10.6193C61.6821 10.1656 61.4223 9.75106 61.088 9.40068C60.7536 9.05029 60.3517 8.77138 59.9064 8.58081C59.4612 8.39025 58.9819 8.29199 58.4976 8.29199C58.0133 8.29199 57.534 8.39025 57.0887 8.58081C56.6435 8.77138 56.2415 9.05029 55.9072 9.40068C55.5728 9.75106 55.3131 10.1656 55.1435 10.6193C54.974 11.073 54.8983 11.5564 54.921 12.0401C54.9062 12.7918 55.1146 13.5309 55.5199 14.1641C55.9253 14.7972 56.5093 15.2959 57.1981 15.5971C51.7017 16.4294 51.9529 22.4048 51.9529 22.4048L64.9559 22.4676C64.9559 22.4676 65.2542 16.3902 59.7971 15.5657Z" fill="#455A64"/>
<path d="M64.9721 22.4515L51.9456 22.3966C51.9373 21.3236 52.129 20.2585 52.5109 19.2557C52.8466 18.374 53.3845 17.5833 54.0813 16.9473C54.9475 16.1873 56.0178 15.6986 57.1593 15.5417C56.482 15.2328 55.9104 14.7318 55.5154 14.1008C55.1203 13.4699 54.9193 12.7368 54.9372 11.9926C54.9326 10.9899 55.3119 10.0235 55.9972 9.29155C56.3201 8.95413 56.7076 8.68504 57.1365 8.50025C57.5654 8.31545 58.0271 8.21873 58.4941 8.21582C59.478 8.25469 60.4065 8.68099 61.0772 9.40175C61.748 10.1225 62.1065 11.0792 62.0747 12.0633C62.0844 12.8018 61.8796 13.5272 61.4852 14.1516C61.0908 14.7761 60.5236 15.2726 59.8525 15.581C60.9878 15.7405 62.0506 16.2322 62.907 16.9944C63.5889 17.6507 64.1078 18.4574 64.4224 19.35C64.7961 20.3541 64.9773 21.4196 64.9563 22.4908L64.9721 22.4515ZM51.9691 22.3494L64.9407 22.4044C64.9445 21.3499 64.7638 20.3029 64.4067 19.3107C64.094 18.4172 63.5748 17.6101 62.8913 16.9551C62.0276 16.1806 60.9485 15.6876 59.7976 15.5417H59.7269H59.7897C60.47 15.2438 61.0473 14.752 61.4495 14.1277C61.8517 13.5035 62.061 12.7745 62.0511 12.0319C62.0872 11.0564 61.7344 10.1064 61.0704 9.39082C60.4064 8.67525 59.4854 8.25262 58.5099 8.21582C58.0405 8.21764 57.5765 8.3162 57.1469 8.50534C56.7172 8.69447 56.3312 8.97013 56.0129 9.3151C55.3319 10.0398 54.9553 10.9983 54.9607 11.9926C54.937 12.742 55.1382 13.4813 55.5384 14.1153C55.9387 14.7493 56.5196 15.2488 57.2064 15.5496C56.0424 15.6931 54.9482 16.1827 54.0656 16.9551C53.369 17.5851 52.8309 18.3707 52.4952 19.2479C52.1327 20.2411 51.9544 21.2922 51.9691 22.3494Z" fill="#DD6A57"/>
<path d="M68.9687 132.388H49.9512C45.4498 132.388 41.8008 136.037 41.8008 140.538V159.564C41.8008 164.065 45.4498 167.714 49.9512 167.714H68.9687C73.4701 167.714 77.1191 164.065 77.1191 159.564V140.538C77.1191 136.037 73.4701 132.388 68.9687 132.388Z" fill="white"/>
<path d="M68.9831 167.715C68.9831 167.715 69.4306 167.715 70.263 167.558C71.8306 167.293 73.2856 166.573 74.4461 165.487C75.6066 164.4 76.4212 162.996 76.788 161.449C77.0056 160.255 77.0768 159.04 77 157.829C77 156.533 77 155.159 77 153.722C77 150.841 77 147.692 77 144.3V141.701C77.0356 140.824 76.9883 139.946 76.8586 139.078C76.5136 137.233 75.5295 135.569 74.0792 134.377C72.629 133.185 70.8052 132.542 68.9281 132.561H50.0048C48.9592 132.562 47.924 132.769 46.9585 133.17C45.9929 133.571 45.1157 134.159 44.3771 134.899C43.6385 135.639 43.0529 136.517 42.6537 137.484C42.2546 138.45 42.0496 139.485 42.0507 140.531C42.0507 144.677 42.0507 148.674 42.0507 152.482C42.0507 154.382 42.0507 156.243 42.0507 158.041C42.0221 158.922 42.0536 159.803 42.1449 160.679C42.2517 161.517 42.5014 162.329 42.883 163.082C43.6012 164.526 44.7364 165.722 46.1416 166.513C47.4449 167.231 48.918 167.584 50.4052 167.534L64.0442 167.605L67.7503 167.644H68.7161H69.0459C68.9363 167.656 68.8257 167.656 68.7161 167.644H67.7503H64.0442L50.4052 167.707C48.865 167.768 47.3372 167.409 45.9845 166.67C44.5186 165.855 43.3335 164.615 42.5846 163.113C42.1831 162.329 41.9176 161.482 41.7994 160.609C41.7052 159.717 41.6737 158.82 41.7052 157.923C41.7052 156.125 41.7052 154.264 41.7052 152.364C41.7052 148.556 41.7052 144.559 41.7052 140.413C41.7031 139.314 41.9176 138.226 42.3365 137.21C42.7553 136.194 43.3702 135.271 44.1461 134.493C44.922 133.715 45.8437 133.097 46.8584 132.675C47.8731 132.254 48.9609 132.036 50.0597 132.035H68.9831C70.9961 132.03 72.945 132.742 74.4795 134.045C75.9328 135.291 76.9141 136.999 77.2591 138.882C77.3885 139.771 77.4332 140.67 77.3926 141.568V144.151C77.3926 147.535 77.3926 150.684 77.3926 153.573C77.3926 155.01 77.3926 156.384 77.3926 157.68C77.4567 158.911 77.3697 160.145 77.1335 161.355C76.6534 163.295 75.484 164.995 73.8435 166.136C72.8147 166.849 71.6349 167.314 70.3964 167.495C70.0772 167.547 69.754 167.571 69.4306 167.566L68.9831 167.715Z" fill="#263238"/>
<path d="M60.9986 149.866C61.7752 149.524 62.4341 148.961 62.8934 148.248C63.3528 147.535 63.5922 146.702 63.5819 145.853C63.6164 145.298 63.5368 144.741 63.348 144.218C63.1592 143.695 62.8653 143.215 62.4842 142.81C62.1031 142.404 61.643 142.081 61.1323 141.86C60.6215 141.639 60.071 141.525 59.5145 141.525C58.9581 141.525 58.4075 141.639 57.8968 141.86C57.386 142.081 56.9259 142.404 56.5449 142.81C56.1638 143.215 55.8698 143.695 55.681 144.218C55.4922 144.741 55.4127 145.298 55.4472 145.853C55.4287 146.71 55.6652 147.552 56.1266 148.273C56.588 148.995 57.2534 149.563 58.0383 149.905C51.7567 150.847 52.063 157.655 52.063 157.655L66.864 157.726C66.864 157.726 67.2016 150.808 60.9986 149.866Z" fill="#383838"/>
<path d="M180.542 175.629C180.652 175.629 180.746 179.555 180.746 184.47C180.746 189.386 180.652 193.312 180.542 193.312C180.432 193.312 180.338 189.386 180.338 184.47C180.338 179.555 180.424 175.629 180.542 175.629Z" fill="#263238"/>
<path d="M177.813 212.384H157.9V232.297H177.813V212.384Z" fill="#E0E0E0"/>
<path d="M203.338 213.594H182.828V215.298H203.338V213.594Z" fill="#E0E0E0"/>
<path d="M203.338 217.527H182.828V219.231H203.338V217.527Z" fill="#E0E0E0"/>
<path d="M203.338 221.469H182.828V223.173H203.338V221.469Z" fill="#E0E0E0"/>
<path d="M203.338 225.41H182.828V227.114H203.338V225.41Z" fill="#E0E0E0"/>
<path d="M203.338 229.344H182.828V231.048H203.338V229.344Z" fill="#E0E0E0"/>
<path d="M158.117 193.665H201.508C202.976 193.665 204.384 194.248 205.422 195.286C206.46 196.325 207.043 197.733 207.043 199.201V206.982H152.66V199.13C152.668 197.685 153.246 196.3 154.267 195.278C155.289 194.255 156.672 193.675 158.117 193.665Z" fill="#DD6A57"/>
<path d="M201.972 241.523C202.632 241.49 203.282 241.347 203.895 241.099C204.631 240.784 205.282 240.3 205.796 239.686C206.496 238.85 206.902 237.807 206.95 236.718C206.95 231.755 206.95 224.594 206.903 215.753C206.903 211.324 206.903 206.48 206.903 201.274C206.903 200.622 206.903 199.962 206.903 199.303C206.939 198.652 206.868 197.999 206.691 197.371C206.399 196.411 205.822 195.562 205.037 194.936C204.252 194.311 203.295 193.939 202.294 193.869C201.618 193.83 200.888 193.869 200.181 193.869H195.847H157.765C156.945 193.864 156.136 194.061 155.409 194.442C154.701 194.828 154.099 195.384 153.658 196.06C153.21 196.727 152.94 197.497 152.873 198.298C152.834 199.083 152.873 199.947 152.873 200.755V210.476C152.873 216.844 152.873 222.992 152.873 228.85V235.304C152.836 235.991 152.868 236.681 152.967 237.362C153.103 238.008 153.365 238.622 153.739 239.168C154.112 239.714 154.589 240.18 155.142 240.542C155.684 240.894 156.29 241.137 156.925 241.256C157.564 241.351 158.211 241.383 158.856 241.35H173.335L194.308 241.421L200.009 241.46H201.493H201.995C201.995 241.46 201.823 241.46 201.493 241.46H200.009L194.308 241.5L173.335 241.562H158.856C158.19 241.596 157.523 241.567 156.862 241.476C155.823 241.274 154.866 240.772 154.111 240.03C153.355 239.289 152.835 238.342 152.614 237.307C152.508 236.603 152.471 235.89 152.504 235.179V233.059C152.504 231.63 152.504 230.185 152.504 228.724C152.504 222.867 152.504 216.719 152.504 210.351V200.755C152.504 199.97 152.504 199.122 152.504 198.266C152.571 197.399 152.855 196.562 153.329 195.832C153.81 195.102 154.462 194.501 155.229 194.081C156.009 193.672 156.876 193.459 157.757 193.461H195.839H200.174C200.896 193.461 201.579 193.461 202.309 193.461C203.034 193.508 203.741 193.709 204.382 194.05C205.007 194.372 205.562 194.816 206.014 195.355C206.465 195.895 206.805 196.519 207.013 197.191C207.2 197.851 207.277 198.539 207.24 199.224V201.195C207.24 206.401 207.24 211.246 207.24 215.674C207.24 224.531 207.24 231.692 207.162 236.647C207.096 237.767 206.666 238.834 205.937 239.686C205.403 240.305 204.73 240.789 203.974 241.099C203.512 241.282 203.025 241.396 202.529 241.437L201.972 241.523Z" fill="#263238"/>
<path d="M182.836 193.665C182.837 194.119 182.704 194.563 182.452 194.942C182.201 195.32 181.843 195.615 181.424 195.789C181.005 195.964 180.543 196.01 180.097 195.922C179.652 195.834 179.243 195.615 178.922 195.294C178.6 194.973 178.382 194.564 178.294 194.118C178.205 193.673 178.252 193.211 178.426 192.792C178.601 192.372 178.896 192.014 179.274 191.763C179.652 191.512 180.096 191.378 180.551 191.38C181.157 191.38 181.738 191.621 182.166 192.049C182.595 192.478 182.836 193.059 182.836 193.665Z" fill="#263238"/>
<path d="M91.2505 116.221C91.0701 116.233 90.8891 116.233 90.7087 116.221L89.1383 116.26L83.4063 116.323L64.4908 116.386H61.7583C61.3024 116.401 60.8459 116.385 60.3921 116.339C59.9386 116.275 59.4969 116.145 59.0808 115.954C58.2983 115.58 57.6039 115.045 57.0436 114.383C56.4832 113.721 56.0696 112.948 55.8301 112.114C55.6001 111.351 55.4863 110.556 55.4924 109.759C55.4924 108.974 55.4924 108.267 55.4924 107.552C55.4924 106.139 55.4924 104.812 55.5474 103.626C55.5474 101.271 55.6259 99.2999 55.6495 97.8944C55.6495 97.2506 55.6652 96.7271 55.6966 96.324C55.6913 96.1422 55.7071 95.9604 55.7437 95.7822C55.7609 95.9624 55.7609 96.1438 55.7437 96.324C55.7437 96.7166 55.7437 97.2401 55.7437 97.8944C55.7437 99.2999 55.7437 101.247 55.7437 103.626C55.7437 104.843 55.7437 106.17 55.7437 107.592C55.7437 109.013 55.5788 110.56 56.0813 112.044C56.3107 112.821 56.7003 113.542 57.225 114.16C57.7496 114.778 58.3978 115.28 59.1279 115.632C59.5134 115.802 59.9202 115.918 60.3371 115.978C60.7727 116.021 61.2107 116.037 61.6484 116.025H64.3809L83.2964 116.08L89.0284 116.142L90.5988 116.182C90.8168 116.166 91.0359 116.179 91.2505 116.221Z" fill="#263238"/>
<path d="M63.1275 44.1709H31.5703C27.069 44.1709 23.4199 47.82 23.4199 52.3213V83.8785C23.4199 88.3799 27.069 92.0289 31.5703 92.0289H63.1275C67.6289 92.0289 71.2779 88.3799 71.2779 83.8785V52.3213C71.2779 47.82 67.6289 44.1709 63.1275 44.1709Z" fill="white"/>
<path d="M63.118 92.0212C63.7138 91.9748 64.3063 91.8936 64.8926 91.7778C66.5702 91.3847 68.0796 90.4692 69.2034 89.1631C70.0162 88.2308 70.5974 87.1196 70.8994 85.9202C71.1715 84.4713 71.2559 82.9935 71.1507 81.5231C71.1507 78.3351 71.1507 74.6997 71.1507 70.6951C71.1507 66.6906 71.1507 62.2856 71.1507 57.5666V53.9625C71.2196 52.7416 71.1299 51.5169 70.8837 50.3192C70.5623 49.0928 69.9529 47.9607 69.1062 47.0171C68.2596 46.0734 67.2 45.3454 66.0154 44.8934C65.4084 44.653 64.772 44.4946 64.1231 44.4223C63.4573 44.3655 62.7889 44.3445 62.1208 44.3595H31.5687C30.0807 44.3698 28.6254 44.7969 27.3678 45.5922C26.7409 45.9777 26.1747 46.454 25.6875 47.0056C25.1923 47.541 24.7795 48.147 24.4626 48.8037C24.1392 49.4546 23.9067 50.1468 23.7716 50.8609C23.6571 51.5747 23.6098 52.2976 23.6303 53.0202V57.3938C23.6303 63.165 23.6303 68.74 23.6303 74.0479C23.6303 76.7019 23.6303 79.2852 23.6303 81.7979C23.5747 83.025 23.6272 84.2547 23.7873 85.4726C24.0306 86.6241 24.5209 87.7091 25.2242 88.6527C25.8951 89.5455 26.7468 90.2868 27.7237 90.828C28.7006 91.3692 29.7807 91.6982 30.8934 91.7935C33.0527 91.872 35.1727 91.7935 37.175 91.8484L56.1847 91.9113L61.3513 91.9505L56.1847 91.9898L37.175 92.0605C35.1649 92.0605 33.0763 92.0997 30.8934 92.0605C29.733 91.9623 28.6066 91.619 27.5887 91.0533C26.5708 90.4875 25.6846 89.7121 24.9887 88.7783C24.2467 87.7963 23.7319 86.6619 23.4811 85.4569C23.3057 84.2193 23.2479 82.9679 23.3083 81.7194C23.3083 79.2067 23.3083 76.6234 23.3083 73.9694C23.3083 68.6615 23.3083 63.0865 23.3083 57.3153V52.9417C23.2818 52.193 23.3291 51.4434 23.4497 50.7039C23.5929 49.9551 23.8358 49.2288 24.1721 48.5446C24.5101 47.8563 24.9436 47.2193 25.4598 46.6523C25.9738 46.0747 26.5689 45.5749 27.2265 45.1682C28.5569 44.336 30.0936 43.8927 31.6629 43.8884H62.1601C62.844 43.8729 63.5282 43.8965 64.2095 43.959C64.8872 44.0401 65.552 44.2063 66.1882 44.4537C67.4279 44.9282 68.536 45.6926 69.4198 46.683C70.3036 47.6734 70.9375 48.8609 71.2684 50.1464C71.5233 51.3722 71.6131 52.6265 71.5354 53.8761V57.4802C71.5354 62.1914 71.5354 66.5885 71.5354 70.6088C71.5354 74.629 71.5354 78.2488 71.5354 81.4367C71.6243 82.9248 71.524 84.4181 71.237 85.8809C70.9204 87.1057 70.3146 88.2366 69.4703 89.1788C68.3201 90.4991 66.771 91.4088 65.0575 91.7699C64.6188 91.8672 64.1718 91.9224 63.7227 91.9348C63.2672 92.029 63.118 92.0212 63.118 92.0212Z" fill="#263238"/>
<path d="M37.0812 77.6279H31.043V82.2528H37.0812V77.6279Z" fill="#383838"/>
<path d="M44.7198 66.9648H38.6816V82.2527H44.7198V66.9648Z" fill="#383838"/>
<path d="M53.1241 73.5459H47.0859V82.2459H53.1241V73.5459Z" fill="#383838"/>
<path d="M61.1398 62.5283H55.1016V82.2447H61.1398V62.5283Z" fill="#383838"/>
<path d="M33.6479 72.8623C33.0532 72.8623 32.4717 72.6859 31.9772 72.3555C31.4826 72.025 31.0972 71.5554 30.8695 71.0058C30.6419 70.4563 30.5824 69.8516 30.6984 69.2683C30.8144 68.6849 31.1009 68.1491 31.5214 67.7285C31.942 67.3079 32.4779 67.0215 33.0612 66.9054C33.6446 66.7894 34.2493 66.849 34.7988 67.0766C35.3483 67.3042 35.818 67.6896 36.1484 68.1842C36.4789 68.6787 36.6553 69.2602 36.6553 69.855C36.6553 70.6526 36.3384 71.4175 35.7744 71.9815C35.2105 72.5455 34.4455 72.8623 33.6479 72.8623ZM33.6479 67.6407C33.2081 67.6407 32.7782 67.7712 32.4126 68.0158C32.047 68.2603 31.7622 68.6078 31.5942 69.0143C31.4263 69.4208 31.3827 69.868 31.4691 70.2992C31.5555 70.7305 31.7679 71.1264 32.0795 71.4369C32.391 71.7473 32.7877 71.9584 33.2193 72.0432C33.6508 72.1281 34.0979 72.0829 34.5038 71.9135C34.9097 71.7442 35.2562 71.4581 35.4994 71.0917C35.7426 70.7252 35.8716 70.2948 35.8701 69.855C35.868 69.267 35.633 68.7038 35.2165 68.2888C34.8 67.8738 34.2359 67.6407 33.6479 67.6407Z" fill="#383838"/>
<path d="M42.2847 61.4297C41.6899 61.4297 41.1084 61.2533 40.6139 60.9229C40.1193 60.5924 39.7339 60.1227 39.5063 59.5732C39.2787 59.0237 39.2191 58.419 39.3351 57.8357C39.4512 57.2523 39.7376 56.7164 40.1582 56.2959C40.5787 55.8753 41.1146 55.5889 41.698 55.4728C42.2813 55.3568 42.886 55.4163 43.4355 55.644C43.985 55.8716 44.4547 56.257 44.7852 56.7516C45.1156 57.2461 45.292 57.8276 45.292 58.4224C45.2899 59.2193 44.9724 59.983 44.4089 60.5466C43.8453 61.1101 43.0816 61.4276 42.2847 61.4297ZM42.2847 56.2002C41.8452 56.2002 41.4155 56.3306 41.0501 56.5747C40.6847 56.8189 40.3999 57.1659 40.2317 57.572C40.0635 57.978 40.0195 58.4248 40.1052 58.8559C40.191 59.2869 40.4026 59.6829 40.7134 59.9936C41.0242 60.3044 41.4201 60.516 41.8511 60.6018C42.2822 60.6875 42.729 60.6435 43.135 60.4753C43.5411 60.3071 43.8881 60.0223 44.1323 59.6569C44.3765 59.2915 44.5068 58.8619 44.5068 58.4224C44.5068 58.1305 44.4493 57.8416 44.3376 57.572C44.226 57.3024 44.0623 57.0574 43.8559 56.8511C43.6496 56.6447 43.4046 56.4811 43.135 56.3694C42.8654 56.2577 42.5765 56.2002 42.2847 56.2002Z" fill="#383838"/>
<path d="M50.1401 68.6768C49.5453 68.6768 48.9639 68.5004 48.4694 68.1699C47.9748 67.8395 47.5894 67.3698 47.3617 66.8203C47.1341 66.2708 47.0746 65.6661 47.1906 65.0827C47.3066 64.4994 47.5931 63.9635 48.0136 63.5429C48.4342 63.1224 48.9701 62.8359 49.5534 62.7199C50.1368 62.6039 50.7415 62.6634 51.291 62.891C51.8405 63.1186 52.3102 63.5041 52.6406 63.9987C52.9711 64.4932 53.1475 65.0746 53.1475 65.6694C53.1454 66.4664 52.8279 67.2301 52.2643 67.7936C51.7008 68.3572 50.9371 68.6747 50.1401 68.6768ZM50.1401 63.4552C49.7003 63.4552 49.2704 63.5857 48.9048 63.8302C48.5392 64.0747 48.2544 64.4222 48.0864 64.8287C47.9185 65.2352 47.8749 65.6824 47.9613 66.1137C48.0477 66.545 48.2601 66.9409 48.5717 67.2513C48.8832 67.5618 49.2799 67.7728 49.7115 67.8577C50.143 67.9425 50.5901 67.8974 50.996 67.728C51.4019 67.5586 51.7484 67.2726 51.9916 66.9061C52.2348 66.5397 52.3638 66.1093 52.3623 65.6694C52.3623 65.0801 52.1281 64.5149 51.7114 64.0982C51.2947 63.6814 50.7295 63.4473 50.1401 63.4473V63.4552Z" fill="#383838"/>
<path d="M58.4546 58.1709C57.8598 58.1709 57.2784 57.9945 56.7838 57.6641C56.2893 57.3336 55.9038 56.8639 55.6762 56.3144C55.4486 55.7649 55.389 55.1602 55.5051 54.5769C55.6211 53.9935 55.9075 53.4577 56.3281 53.0371C56.7487 52.6165 57.2845 52.3301 57.8679 52.214C58.4513 52.098 59.0559 52.1576 59.6054 52.3852C60.155 52.6128 60.6246 52.9982 60.9551 53.4928C61.2855 53.9873 61.4619 54.5688 61.4619 55.1636C61.4598 55.9605 61.1423 56.7242 60.5788 57.2878C60.0153 57.8513 59.2515 58.1688 58.4546 58.1709ZM58.4546 52.9415C58.0151 52.9415 57.5855 53.0718 57.22 53.3159C56.8546 53.5601 56.5698 53.9072 56.4016 54.3132C56.2334 54.7192 56.1894 55.166 56.2752 55.5971C56.3609 56.0281 56.5725 56.4241 56.8833 56.7349C57.1941 57.0456 57.59 57.2573 58.0211 57.343C58.4521 57.4287 58.8989 57.3847 59.305 57.2165C59.711 57.0484 60.058 56.7635 60.3022 56.3981C60.5464 56.0327 60.6767 55.6031 60.6767 55.1636C60.6685 54.5797 60.4307 54.0225 60.0149 53.6126C59.599 53.2026 59.0385 52.9728 58.4546 52.9729V52.9415Z" fill="#383838"/>
<path d="M56.3588 56.8456L51.5098 63.7451L52.1522 64.1966L57.0012 57.2971L56.3588 56.8456Z" fill="#383838"/>
<path d="M44.587 60.2601L44.0195 60.8027L47.7098 64.6616L48.2772 64.119L44.587 60.2601Z" fill="#383838"/>
<path d="M40.2277 60.4276L34.7871 67.4365L35.4074 67.918L40.848 60.909L40.2277 60.4276Z" fill="#383838"/>
<path d="M58.9664 92.5867C58.968 93.0408 58.8346 93.4852 58.5833 93.8635C58.332 94.2417 57.9739 94.5368 57.5547 94.7113C57.1354 94.8858 56.6738 94.9319 56.2283 94.8437C55.7828 94.7554 55.3735 94.5369 55.0524 94.2158C54.7313 93.8947 54.5128 93.4854 54.4245 93.0399C54.3363 92.5944 54.3824 92.1328 54.5569 91.7135C54.7314 91.2942 55.0265 90.9362 55.4047 90.6849C55.783 90.4336 56.2273 90.3002 56.6815 90.3018C57.2875 90.3018 57.8687 90.5425 58.2972 90.971C58.7257 91.3995 58.9664 91.9807 58.9664 92.5867Z" fill="#263238"/>
<path d="M114.022 81.2947C113.913 81.2947 113.818 74.699 113.818 66.5644C113.818 58.4297 113.913 51.834 114.022 51.834C114.132 51.834 114.227 58.4297 114.227 66.5644C114.227 74.699 114.132 81.2947 114.022 81.2947Z" fill="#263238"/>
<path d="M128.448 3.81934H96.8906C92.3893 3.81934 88.7402 7.46839 88.7402 11.9697V43.527C88.7402 48.0283 92.3893 51.6774 96.8906 51.6774H128.448C132.949 51.6774 136.598 48.0283 136.598 43.527V11.9697C136.598 7.46839 132.949 3.81934 128.448 3.81934Z" fill="white"/>
<path d="M128.439 51.6692C129.04 51.6157 129.638 51.5266 130.229 51.4023C131.906 51.0092 133.416 50.0937 134.54 48.7875C135.352 47.8553 135.934 46.7441 136.236 45.5447C136.512 44.1122 136.604 42.6504 136.51 41.1947C136.51 38.0067 136.51 34.3713 136.51 30.3667C136.51 26.3622 136.51 21.9572 136.51 17.2382V13.6105C136.579 12.3897 136.49 11.165 136.243 9.9672C135.921 8.74018 135.312 7.60744 134.465 6.66262C133.619 5.71779 132.56 4.98801 131.375 4.53361C130.767 4.29939 130.131 4.14371 129.483 4.07034C128.817 4.00958 128.149 3.9886 127.481 4.00752H96.8892C95.3974 4.01019 93.9364 4.43189 92.6727 5.22458C92.0369 5.61054 91.4625 6.0896 90.9688 6.6458C90.4736 7.18115 90.0608 7.78715 89.7438 8.44391C89.4204 9.09479 89.1879 9.787 89.0529 10.5011C88.9384 11.2149 88.8911 11.9378 88.9115 12.6604V17.034C88.9115 22.8052 88.9115 28.3802 88.9115 33.6881C88.9115 36.3343 88.9115 38.9254 88.9115 41.4381C88.8559 42.6626 88.9085 43.8897 89.0686 45.105C89.3103 46.2594 89.8006 47.3472 90.5055 48.2929C91.1777 49.1843 92.0298 49.9245 93.0064 50.4656C93.983 51.0066 95.0624 51.3365 96.1746 51.4337C98.3339 51.5122 100.454 51.4337 102.456 51.4886L121.466 51.5515L126.633 51.5907H121.466L102.456 51.6535C100.446 51.6535 98.3575 51.7006 96.1746 51.6535C94.3946 51.4925 92.7133 50.7639 91.3788 49.5749C90.0442 48.386 89.127 46.7997 88.7623 45.05C88.587 43.8124 88.5291 42.5609 88.5896 41.3124C88.5896 38.7998 88.5896 36.2086 88.5896 33.5625C88.5896 28.2545 88.5896 22.6796 88.5896 16.9084V12.6683C88.563 11.9195 88.6103 11.1699 88.7309 10.4305C88.8741 9.68164 89.1171 8.9554 89.4533 8.27116C89.7913 7.5829 90.2248 6.94583 90.741 6.37883C91.2551 5.80131 91.8502 5.30143 92.5077 4.8948C93.8382 4.0626 95.3749 3.61926 96.9441 3.61492H127.441C128.125 3.59951 128.809 3.6231 129.491 3.68559C130.168 3.76665 130.833 3.93285 131.469 4.18027C132.703 4.66068 133.804 5.42856 134.68 6.42006C135.557 7.41156 136.185 8.59802 136.51 9.88083C136.765 11.1066 136.855 12.361 136.777 13.6105V17.2146C136.777 21.9258 136.777 26.3229 136.777 30.3432C136.777 34.3634 136.777 37.9832 136.777 41.1711C136.866 42.6592 136.766 44.1525 136.479 45.6153C136.162 46.8401 135.557 47.9711 134.712 48.9132C133.562 50.2335 132.013 51.1432 130.299 51.5043C129.861 51.6016 129.414 51.6568 128.965 51.6692H128.439Z" fill="#263238"/>
<path d="M116.267 51.6697C116.267 52.1216 116.133 52.5634 115.882 52.9391C115.631 53.3149 115.274 53.6078 114.857 53.7807C114.439 53.9536 113.98 53.9989 113.536 53.9107C113.093 53.8226 112.686 53.6049 112.367 53.2854C112.047 52.9658 111.829 52.5587 111.741 52.1155C111.653 51.6722 111.698 51.2128 111.871 50.7953C112.044 50.3778 112.337 50.0209 112.713 49.7698C113.089 49.5188 113.53 49.3848 113.982 49.3848C114.588 49.3848 115.169 49.6255 115.598 50.054C116.026 50.4825 116.267 51.0637 116.267 51.6697Z" fill="#263238"/>
<path d="M110.858 33.8531C109.591 33.8636 108.338 33.598 107.184 33.0749C106.03 32.5518 105.004 31.7837 104.177 30.824C103.35 29.8643 102.742 28.7361 102.396 27.5177C102.049 26.2993 101.972 25.0199 102.169 23.7687C102.367 22.5174 102.835 21.3242 103.54 20.272C104.246 19.2198 105.172 18.3338 106.254 17.6758C107.337 17.0177 108.549 16.6032 109.808 16.4612C111.067 16.3192 112.342 16.4531 113.544 16.8535C114.636 17.2045 115.648 17.7675 116.522 18.5104C117.396 19.2533 118.114 20.1615 118.637 21.1827C119.159 22.204 119.475 23.3183 119.565 24.4618C119.656 25.6053 119.52 26.7555 119.166 27.8463C118.59 29.5949 117.477 31.1171 115.985 32.1958C114.493 33.2744 112.699 33.8545 110.858 33.8531ZM110.858 17.9685C109.538 17.9686 108.244 18.3339 107.119 19.0238C105.994 19.7137 105.082 20.7013 104.484 21.8775C103.885 23.0537 103.624 24.3725 103.728 25.6881C103.833 27.0036 104.299 28.2646 105.076 29.3316C105.852 30.3985 106.909 31.2298 108.129 31.7335C109.349 32.2371 110.684 32.3935 111.987 32.1853C113.291 31.9771 114.511 31.4125 115.513 30.5538C116.515 29.6952 117.26 28.5761 117.666 27.3203C118.247 25.5137 118.087 23.5505 117.221 21.8618C116.355 20.1731 114.855 18.8971 113.049 18.314C112.344 18.0851 111.607 17.9685 110.866 17.9685H110.858Z" fill="#263238"/>
<path d="M122.375 39.0902C122.267 39.0888 122.16 39.0651 122.062 39.0205C121.963 38.9759 121.875 38.9114 121.802 38.8311L115.309 31.7721C115.183 31.6168 115.122 31.4196 115.137 31.2207C115.152 31.0218 115.242 30.836 115.389 30.701C115.536 30.5661 115.729 30.4921 115.928 30.4942C116.128 30.4962 116.319 30.5741 116.463 30.7121L122.949 37.7789C123.089 37.9321 123.163 38.1347 123.154 38.3422C123.145 38.5497 123.054 38.7452 122.902 38.886C122.758 39.0169 122.57 39.0897 122.375 39.0902Z" fill="#263238"/>
<path d="M187.524 20.2373H155.967C151.465 20.2373 147.816 23.8864 147.816 28.3877V59.9449C147.816 64.4463 151.465 68.0953 155.967 68.0953H187.524C192.025 68.0953 195.674 64.4463 195.674 59.9449V28.3877C195.674 23.8864 192.025 20.2373 187.524 20.2373Z" fill="white"/>
<path d="M187.548 68.0957C188.146 68.0497 188.741 67.9685 189.33 67.8523C191.008 67.4593 192.517 66.5437 193.641 65.2376C194.453 64.3017 195.034 63.1883 195.337 61.9869C195.605 60.5402 195.689 59.0654 195.588 57.5976C195.588 54.4018 195.588 50.7742 195.588 46.7618C195.588 42.7494 195.588 38.3523 195.588 33.6411V30.037C195.658 28.8158 195.566 27.5906 195.313 26.3937C194.995 25.1659 194.388 24.0319 193.543 23.0866C192.697 22.1413 191.638 21.4122 190.453 20.9601C189.844 20.7277 189.208 20.5721 188.56 20.4968C187.895 20.4323 187.226 20.4113 186.558 20.434H155.975C154.483 20.4424 153.022 20.8666 151.758 21.6589C151.131 22.0415 150.565 22.5152 150.078 23.0644C149.582 23.602 149.169 24.2107 148.853 24.8704C148.527 25.5176 148.295 26.2075 148.162 26.9198C148.048 27.6362 148 28.3617 148.021 29.0869V33.4605C148.021 39.2317 148.021 44.7988 148.021 50.1068C148.021 52.7608 148.021 55.3519 148.021 57.8646C147.961 59.0891 148.014 60.3165 148.178 61.5315C148.419 62.6859 148.91 63.7737 149.614 64.7194C150.286 65.6099 151.137 66.3495 152.112 66.8905C153.087 67.4316 154.165 67.7619 155.276 67.8602C157.443 67.9387 159.563 67.8602 161.557 67.9151L180.567 67.978L185.734 68.0172L180.567 68.0565L161.557 68.1193C159.547 68.1193 157.459 68.1664 155.276 68.1193C154.116 68.0202 152.99 67.6765 151.972 67.1108C150.954 66.5451 150.068 65.7702 149.371 64.8372C148.628 63.8547 148.111 62.7207 147.856 61.5158C147.688 60.2774 147.63 59.0267 147.683 57.7782C147.683 55.2656 147.683 52.6744 147.683 50.0204C147.683 44.7124 147.683 39.1454 147.683 33.3741V29.0948C147.656 28.346 147.704 27.5964 147.824 26.857C147.967 26.1081 148.21 25.3819 148.547 24.6977C148.885 24.0094 149.318 23.3723 149.834 22.8053C150.348 22.2278 150.943 21.7279 151.601 21.3213C152.931 20.4867 154.467 20.0407 156.037 20.0336H186.535C187.218 20.0194 187.902 20.0404 188.584 20.0964C189.261 20.1812 189.925 20.3473 190.563 20.5911C191.788 21.0763 192.881 21.8442 193.753 22.8321C194.625 23.8201 195.251 25.0001 195.58 26.2759C195.835 27.5044 195.924 28.7613 195.847 30.0135C195.847 31.2305 195.847 32.4319 195.847 33.6175C195.847 38.3288 195.847 42.7259 195.847 46.7383C195.847 50.7506 195.847 54.3783 195.847 57.574C195.942 59.0618 195.845 60.5556 195.557 62.0183C195.168 63.4732 194.385 64.7926 193.295 65.8316C192.205 66.8705 190.849 67.5888 189.377 67.9073C188.938 68.0001 188.491 68.0553 188.042 68.0722C187.673 68.1036 187.548 68.0957 187.548 68.0957Z" fill="#263238"/>
<path d="M174.632 68.4334C174.634 68.8872 174.501 69.3312 174.25 69.7093C173.999 70.0874 173.641 70.3825 173.223 70.5572C172.804 70.732 172.342 70.7785 171.897 70.6909C171.452 70.6033 171.043 70.3856 170.721 70.0653C170.4 69.7449 170.181 69.3364 170.092 68.8914C170.002 68.4464 170.047 67.985 170.221 67.5656C170.394 67.1462 170.688 66.7877 171.065 66.5354C171.442 66.2831 171.886 66.1484 172.34 66.1484C172.946 66.1484 173.528 66.3889 173.958 66.8172C174.388 67.2455 174.63 67.8267 174.632 68.4334Z" fill="#263238"/>
<path d="M189.841 46.0552C191.043 50.2639 188.271 54.3783 183.992 54.3783H161.315C160.445 54.3824 159.585 54.1859 158.803 53.8039C158.022 53.422 157.338 52.8649 156.806 52.176C156.275 51.4871 155.909 50.6849 155.738 49.8317C155.566 48.9785 155.594 48.0973 155.819 47.2565C155.871 47.0689 155.937 46.8853 156.015 46.7069C156.545 45.4741 157.475 44.4555 158.654 43.8146C159.833 43.1738 161.193 42.948 162.516 43.1735C162.797 40.8681 163.848 38.725 165.499 37.092C167.151 35.459 169.305 34.4319 171.614 34.1773C173.922 33.9228 176.249 34.4557 178.216 35.6896C180.184 36.9235 181.677 38.786 182.453 40.9749C182.453 40.9749 188.334 40.6608 189.841 46.0552Z" fill="#DD6A57"/>
<path d="M170.656 58.3989V49.6988H167.249C167.157 49.6989 167.068 49.6737 166.99 49.626C166.912 49.5784 166.849 49.5102 166.808 49.4289C166.766 49.3477 166.748 49.2565 166.755 49.1656C166.763 49.0747 166.795 48.9875 166.848 48.9136L172.462 40.991C172.508 40.9293 172.567 40.8791 172.635 40.8446C172.703 40.81 172.779 40.792 172.855 40.792C172.931 40.792 173.007 40.81 173.075 40.8446C173.143 40.8791 173.202 40.9293 173.248 40.991L178.854 48.843C178.907 48.9168 178.94 49.004 178.947 49.0949C178.954 49.1859 178.936 49.277 178.894 49.3582C178.853 49.4395 178.79 49.5077 178.712 49.5553C178.634 49.603 178.545 49.6282 178.453 49.6282H175.132V58.391L170.656 58.3989Z" fill="white"/>
<path d="M239.575 78.0293H208.018C203.516 78.0293 199.867 81.6783 199.867 86.1797V117.737C199.867 122.238 203.516 125.887 208.018 125.887H239.575C244.076 125.887 247.725 122.238 247.725 117.737V86.1797C247.725 81.6783 244.076 78.0293 239.575 78.0293Z" fill="white"/>
<path d="M239.567 125.879C240.164 125.837 240.757 125.756 241.342 125.635C243.019 125.242 244.529 124.327 245.653 123.021C246.466 122.088 247.047 120.977 247.349 119.778C247.621 118.329 247.705 116.851 247.6 115.381C247.6 112.193 247.6 108.565 247.6 104.553C247.6 100.54 247.6 96.1432 247.6 91.4241V87.8279C247.669 86.6044 247.579 85.3772 247.333 84.1767C247.012 82.9503 246.402 81.8183 245.556 80.8747C244.709 79.931 243.649 79.203 242.465 78.751C241.858 78.5106 241.221 78.3522 240.572 78.2799C239.907 78.223 239.238 78.2021 238.57 78.2171H208.018C206.526 78.2197 205.065 78.6414 203.801 79.4341C203.176 79.822 202.61 80.298 202.121 80.8475C201.626 81.3828 201.213 81.9888 200.896 82.6456C200.574 83.297 200.342 83.989 200.205 84.7028C200.091 85.4192 200.043 86.1448 200.064 86.87V91.2357C200.064 97.0069 200.064 102.582 200.064 107.89C200.064 110.544 200.064 113.127 200.064 115.64C200.008 116.867 200.061 118.097 200.221 119.314C200.463 120.466 200.953 121.552 201.658 122.495C202.327 123.393 203.177 124.14 204.154 124.688C205.131 125.236 206.212 125.572 207.327 125.675C209.486 125.745 211.606 125.675 213.609 125.722L232.618 125.785L237.785 125.824H239.128C239.434 125.824 239.591 125.824 239.591 125.824H239.128H237.785H232.618L213.609 125.894C211.598 125.894 209.51 125.942 207.327 125.894C205.547 125.731 203.866 125 202.532 123.81C201.197 122.62 200.28 121.033 199.915 119.283C199.739 118.045 199.681 116.794 199.742 115.546C199.742 113.033 199.742 110.45 199.742 107.796C199.742 102.488 199.742 96.9127 199.742 91.1415V86.7758C199.715 86.0244 199.762 85.2722 199.883 84.5301C200.026 83.7813 200.269 83.055 200.606 82.3708C200.944 81.6825 201.377 81.0454 201.893 80.4784C202.407 79.9009 203.003 79.401 203.66 78.9944C204.99 78.1622 206.527 77.7189 208.096 77.7145H238.594C239.278 77.6991 239.962 77.7227 240.643 77.7852C241.321 77.8663 241.986 78.0325 242.622 78.2799C243.861 78.7544 244.97 79.5188 245.853 80.5091C246.737 81.4995 247.371 82.6871 247.702 83.9726C247.957 85.201 248.047 86.458 247.969 87.7101V91.4477C247.969 96.1589 247.969 100.556 247.969 104.576C247.969 108.596 247.969 112.216 247.969 115.404C248.058 116.892 247.958 118.386 247.671 119.848C247.354 121.073 246.748 122.204 245.904 123.146C244.752 124.466 243.204 125.377 241.491 125.745C241.052 125.837 240.605 125.889 240.156 125.902C239.717 125.887 239.567 125.879 239.567 125.879Z" fill="#263238"/>
<path d="M224.405 116.487C221.525 116.489 218.71 115.636 216.315 114.037C213.919 112.438 212.052 110.165 210.949 107.504C209.847 104.844 209.558 101.916 210.119 99.0916C210.681 96.2669 212.067 93.6723 214.104 91.6359C216.14 89.5995 218.735 88.2129 221.559 87.6514C224.384 87.09 227.312 87.3789 229.972 88.4817C232.632 89.5845 234.906 91.4516 236.505 93.8468C238.104 96.242 238.957 99.0577 238.955 101.938C238.949 105.794 237.414 109.492 234.687 112.219C231.959 114.946 228.262 116.481 224.405 116.487ZM224.405 88.1651C221.681 88.1636 219.018 88.97 216.752 90.4824C214.486 91.9948 212.719 94.1452 211.676 96.6616C210.632 99.1781 210.358 101.948 210.889 104.62C211.419 107.292 212.73 109.746 214.656 111.673C216.582 113.6 219.036 114.913 221.708 115.445C224.38 115.977 227.149 115.705 229.666 114.662C232.183 113.62 234.335 111.855 235.848 109.59C237.362 107.325 238.17 104.662 238.17 101.938C238.166 98.2875 236.714 94.788 234.134 92.2063C231.554 89.6246 228.055 88.1714 224.405 88.1651Z" fill="#383838"/>
<path d="M223.966 116.441C222.519 115.536 221.254 114.37 220.236 113.002C217.79 109.744 216.582 105.722 216.828 101.656C216.867 97.6201 218.273 93.7172 220.817 90.5842C221.853 89.3101 223.121 88.2443 224.555 87.4434L224.9 88.15C224.829 88.15 217.982 91.6913 217.613 101.695C217.244 111.698 224.28 115.734 224.35 115.773L223.966 116.441Z" fill="#383838"/>
<path d="M224.61 116.433L224.202 115.766C224.264 115.719 231.08 111.376 230.711 101.365C230.342 91.3538 223.785 88.158 223.723 88.1266L224.052 87.4199C224.343 87.5534 231.119 90.8434 231.496 101.342C231.873 111.84 224.681 116.386 224.61 116.433Z" fill="#383838"/>
<path d="M224.595 97.3205C218.706 97.3205 214.905 95.3182 212.754 93.6379L213.241 93.0176C215.29 94.6272 218.926 96.5353 224.595 96.5353C230.091 96.5353 233.562 94.6351 235.517 93.0411L236.012 93.6457C233.962 95.3261 230.319 97.3205 224.595 97.3205Z" fill="#383838"/>
<path d="M235.548 110.419C233.499 108.848 229.863 107.011 224.186 107.011C218.69 107.011 215.219 108.848 213.264 110.403L212.777 109.783C214.827 108.157 218.47 106.226 224.186 106.226C230.083 106.226 233.876 108.165 236.027 109.79L235.548 110.419Z" fill="#383838"/>
<path d="M238.578 101.585H210.594V102.37H238.578V101.585Z" fill="#383838"/>
<path d="M201.982 102.928C201.982 103.381 201.847 103.825 201.595 104.202C201.343 104.579 200.984 104.873 200.565 105.047C200.145 105.22 199.684 105.265 199.239 105.176C198.794 105.087 198.386 104.867 198.065 104.546C197.745 104.225 197.527 103.815 197.44 103.37C197.352 102.925 197.399 102.464 197.573 102.045C197.748 101.626 198.043 101.268 198.421 101.017C198.799 100.766 199.243 100.633 199.697 100.635C199.998 100.635 200.296 100.694 200.573 100.809C200.851 100.925 201.103 101.094 201.316 101.307C201.528 101.52 201.696 101.773 201.81 102.051C201.925 102.329 201.983 102.627 201.982 102.928Z" fill="#263238"/>
<path d="M200.976 102.928C200.976 103.038 195.542 103.132 188.844 103.132C182.146 103.132 176.713 103.038 176.713 102.928C176.713 102.818 182.146 102.724 188.844 102.724C195.542 102.724 200.976 102.81 200.976 102.928Z" fill="#263238"/>
<path d="M230.199 140.311H211.182C206.68 140.311 203.031 143.96 203.031 148.461V167.479C203.031 171.98 206.68 175.629 211.182 175.629H230.199C234.701 175.629 238.35 171.98 238.35 167.479V148.461C238.35 143.96 234.701 140.311 230.199 140.311Z" fill="white"/>
<path d="M230.2 175.629C230.2 175.629 230.655 175.629 231.48 175.48C232.694 175.269 233.845 174.788 234.848 174.074C236.425 172.93 237.54 171.259 237.989 169.363C238.206 168.169 238.278 166.954 238.201 165.743C238.201 164.448 238.201 163.074 238.201 161.637C238.201 158.755 238.201 155.598 238.201 152.214V149.631C238.238 148.754 238.188 147.875 238.052 147.008C237.722 145.209 236.778 143.581 235.382 142.399C233.915 141.158 232.051 140.484 230.129 140.499H211.206C210.159 140.5 209.123 140.707 208.156 141.11C207.189 141.512 206.312 142.1 205.573 142.842C204.834 143.584 204.249 144.464 203.85 145.432C203.452 146.4 203.249 147.438 203.252 148.484C203.252 152.622 203.252 156.619 203.252 160.427C203.252 162.338 203.252 164.194 203.252 165.994C203.221 166.872 203.25 167.751 203.338 168.625C203.451 169.462 203.703 170.274 204.084 171.028C204.797 172.473 205.93 173.669 207.335 174.459C208.641 175.179 210.116 175.534 211.606 175.488L225.245 175.55L228.951 175.59H229.917H230.239C230.132 175.6 230.024 175.6 229.917 175.59H228.951H225.245L211.606 175.66C210.066 175.713 208.54 175.352 207.186 174.616C205.72 173.801 204.532 172.565 203.778 171.067C203.381 170.281 203.115 169.434 202.993 168.562C202.9 167.67 202.866 166.773 202.891 165.877C202.891 164.071 202.891 162.215 202.891 160.31C202.891 156.501 202.891 152.505 202.891 148.367C202.923 146.182 203.81 144.096 205.361 142.557C206.913 141.017 209.005 140.146 211.19 140.13H230.114C232.125 140.124 234.074 140.833 235.61 142.132C237.067 143.375 238.05 145.084 238.39 146.969C238.525 147.857 238.573 148.757 238.531 149.654C238.531 150.534 238.531 151.39 238.531 152.238C238.531 155.622 238.531 158.778 238.531 161.66C238.531 163.097 238.531 164.471 238.531 165.767C238.601 166.995 238.517 168.227 238.28 169.434C237.799 171.376 236.63 173.078 234.99 174.223C233.962 174.937 232.781 175.399 231.543 175.574C231.223 175.624 230.9 175.65 230.577 175.652C230.451 175.656 230.325 175.648 230.2 175.629Z" fill="#263238"/>
<path d="M212.039 164.094C213.795 165.22 215.826 165.841 217.911 165.89C219.995 165.938 222.053 165.413 223.86 164.37C225.666 163.328 227.15 161.808 228.151 159.979C229.152 158.149 229.63 156.08 229.533 153.997C230.312 153.421 230.984 152.714 231.52 151.908C230.789 152.233 230.014 152.445 229.219 152.536C230.054 152.039 230.68 151.255 230.978 150.33C230.193 150.793 229.336 151.119 228.442 151.296C227.838 150.655 227.041 150.231 226.172 150.089C225.303 149.948 224.412 150.096 223.636 150.512C222.86 150.927 222.243 151.587 221.88 152.389C221.517 153.19 221.427 154.089 221.626 154.947C220.037 154.867 218.482 154.454 217.063 153.735C215.644 153.015 214.393 152.005 213.39 150.769C212.876 151.649 212.718 152.691 212.947 153.684C213.176 154.676 213.775 155.543 214.622 156.109C213.987 156.085 213.366 155.913 212.809 155.606C212.8 156.538 213.116 157.444 213.702 158.169C214.288 158.893 215.107 159.392 216.02 159.579C215.431 159.739 214.813 159.76 214.214 159.642C214.468 160.438 214.966 161.134 215.636 161.633C216.306 162.131 217.116 162.407 217.952 162.422C216.28 163.741 214.154 164.342 212.039 164.094Z" fill="#455A64"/>
<path d="M190.894 173.705L180.647 137.633H91.0556L79.3797 173.587C79.2148 174.088 79.1699 174.621 79.2487 175.143C79.3276 175.665 79.5278 176.161 79.8334 176.591C80.139 177.021 80.5414 177.373 81.0082 177.619C81.4749 177.866 81.9929 177.999 82.5204 178.008H123.445L125.102 176.351H144.426L146.082 178.008H187.698C188.217 178.003 188.729 177.878 189.191 177.643C189.654 177.407 190.056 177.068 190.366 176.651C190.676 176.234 190.885 175.751 190.976 175.24C191.068 174.729 191.04 174.203 190.894 173.705Z" fill="#E0E0E0"/>
<g opacity="0.3">
<path d="M190.894 173.705L180.647 137.633H91.0556L79.3797 173.587C79.2148 174.088 79.1699 174.621 79.2487 175.143C79.3276 175.665 79.5278 176.161 79.8334 176.591C80.139 177.021 80.5414 177.373 81.0082 177.619C81.4749 177.866 81.9929 177.999 82.5204 178.008H123.445L125.102 176.351H144.426L146.082 178.008H187.698C188.217 178.003 188.729 177.878 189.191 177.643C189.654 177.407 190.056 177.068 190.366 176.651C190.676 176.234 190.885 175.751 190.976 175.24C191.068 174.729 191.04 174.203 190.894 173.705Z" fill="black"/>
</g>
<path d="M91.0196 136.699V83.7681C91.0175 83.2705 91.1136 82.7773 91.3024 82.3168C91.4912 81.8563 91.7689 81.4376 92.1197 81.0846C92.4705 80.7316 92.8875 80.4513 93.3468 80.2596C93.8061 80.068 94.2987 79.9688 94.7964 79.9678H177.125C177.622 79.9688 178.115 80.068 178.574 80.2596C179.034 80.4513 179.451 80.7316 179.801 81.0846C180.152 81.4376 180.43 81.8563 180.619 82.3168C180.808 82.7773 180.904 83.2705 180.902 83.7681V136.699H91.0196Z" fill="#E0E0E0"/>
<path d="M175.466 85.2051H96.4512V132.278H175.466V85.2051Z" fill="white"/>
<path d="M175.467 132.278C175.467 132.278 175.467 131.98 175.467 131.422C175.467 130.865 175.467 130.024 175.467 128.949C175.467 126.774 175.467 123.594 175.42 119.526C175.42 111.368 175.373 99.6214 175.341 85.2208L175.498 85.3779L96.4677 85.4093L96.6718 85.2051C96.6718 101.875 96.6718 117.791 96.6718 132.278L96.4834 132.09L153.316 132.176L169.633 132.231H173.983H175.106H175.498H175.129H174.03H169.711L153.442 132.278L96.4834 132.372H96.2949V132.278C96.2949 117.791 96.2949 101.875 96.2949 85.2051V85.001H96.4677L175.475 85.0481H175.632V85.2051C175.632 99.6528 175.569 111.431 175.545 119.613C175.545 123.68 175.545 126.844 175.506 129.035C175.506 130.095 175.506 130.912 175.506 131.477C175.506 132.042 175.467 132.278 175.467 132.278Z" fill="#263238"/>
<path d="M137.417 82.7241C137.423 83.0145 137.342 83.3002 137.185 83.5447C137.028 83.7891 136.802 83.9812 136.535 84.0963C136.269 84.2115 135.974 84.2444 135.688 84.191C135.403 84.1377 135.139 84.0003 134.932 83.7966C134.725 83.5928 134.584 83.332 134.526 83.0473C134.468 82.7627 134.496 82.4672 134.606 82.1986C134.717 81.93 134.906 81.7006 135.147 81.5396C135.389 81.3787 135.674 81.2935 135.964 81.295C136.153 81.2929 136.341 81.3283 136.517 81.3991C136.693 81.4699 136.853 81.5747 136.988 81.7075C137.123 81.8403 137.23 81.9985 137.304 82.1729C137.377 82.3474 137.416 82.5347 137.417 82.7241Z" fill="#263238"/>
<path d="M190.894 172.371L180.647 136.299H91.0556L79.3797 172.253C79.2148 172.754 79.1699 173.287 79.2487 173.809C79.3276 174.331 79.5278 174.827 79.8334 175.257C80.139 175.687 80.5414 176.039 81.0082 176.285C81.4749 176.532 81.9929 176.665 82.5204 176.674H123.445L125.102 175.017H144.426L146.082 176.674H187.698C188.217 176.669 188.729 176.544 189.191 176.309C189.654 176.074 190.056 175.734 190.366 175.317C190.676 174.9 190.885 174.417 190.976 173.906C191.068 173.395 191.04 172.869 190.894 172.371Z" fill="#E0E0E0"/>
<path d="M174.288 138.607L96.2153 138.348C95.8454 138.326 95.4778 138.419 95.1619 138.612C94.8461 138.806 94.5971 139.092 94.4486 139.431L88.167 157.193C87.8293 158.158 88.7009 159.116 89.9258 159.116H180.295C181.512 159.116 182.391 158.166 182.053 157.2L176.047 139.706C175.898 139.367 175.651 139.081 175.337 138.885C175.023 138.688 174.658 138.592 174.288 138.607Z" fill="#EBEBEB"/>
<g opacity="0.1">
<path d="M150.041 172.677H119.237C118.928 172.658 118.626 172.57 118.355 172.42C118.084 172.269 117.85 172.059 117.67 171.806C117.491 171.553 117.371 171.263 117.319 170.957C117.266 170.651 117.284 170.337 117.369 170.039L119.112 162.744C119.2 162.31 119.433 161.918 119.772 161.633C120.112 161.348 120.538 161.186 120.981 161.174H148.51C148.964 161.189 149.399 161.359 149.742 161.656C150.085 161.954 150.315 162.36 150.394 162.807L151.965 170.094C152.041 170.393 152.049 170.705 151.99 171.008C151.93 171.311 151.803 171.596 151.619 171.844C151.434 172.091 151.197 172.295 150.924 172.439C150.651 172.583 150.349 172.664 150.041 172.677Z" fill="black"/>
</g>
<path d="M149.938 144.228L149.153 140.506C149.125 140.383 149.057 140.273 148.958 140.194C148.86 140.115 148.737 140.073 148.611 140.074H143.805C143.726 140.073 143.647 140.09 143.575 140.122C143.503 140.155 143.438 140.202 143.386 140.262C143.334 140.322 143.295 140.392 143.273 140.468C143.25 140.544 143.244 140.624 143.256 140.702L143.79 144.424C143.808 144.557 143.874 144.678 143.975 144.766C144.076 144.854 144.205 144.903 144.339 144.903H149.419C149.5 144.899 149.58 144.878 149.651 144.84C149.723 144.803 149.786 144.75 149.835 144.686C149.885 144.622 149.919 144.547 149.937 144.468C149.955 144.389 149.955 144.307 149.938 144.228Z" fill="#263238"/>
<path d="M135.45 144.314L135.105 140.577C135.095 140.439 135.032 140.31 134.93 140.216C134.828 140.123 134.694 140.072 134.555 140.074H129.648C129.573 140.074 129.499 140.089 129.431 140.118C129.362 140.147 129.3 140.19 129.248 140.243C129.196 140.297 129.155 140.36 129.128 140.429C129.101 140.499 129.088 140.573 129.09 140.648L129.224 144.385C129.23 144.529 129.291 144.665 129.395 144.764C129.499 144.864 129.637 144.919 129.781 144.919H134.94C135.013 144.913 135.085 144.893 135.15 144.859C135.215 144.825 135.273 144.779 135.321 144.723C135.368 144.667 135.404 144.602 135.426 144.532C135.449 144.461 135.457 144.388 135.45 144.314Z" fill="#263238"/>
<path d="M143.075 144.275L142.541 140.545C142.522 140.414 142.455 140.293 142.354 140.207C142.253 140.12 142.124 140.073 141.991 140.074H136.338C136.261 140.074 136.184 140.09 136.114 140.121C136.043 140.152 135.98 140.197 135.928 140.254C135.876 140.311 135.837 140.378 135.813 140.452C135.789 140.525 135.78 140.602 135.788 140.679L136.126 144.409C136.141 144.546 136.206 144.673 136.309 144.766C136.412 144.858 136.545 144.91 136.683 144.911H142.525C142.605 144.912 142.684 144.896 142.757 144.863C142.83 144.83 142.895 144.781 142.948 144.721C143 144.66 143.038 144.589 143.06 144.512C143.082 144.435 143.087 144.354 143.075 144.275Z" fill="#263238"/>
<path d="M107.223 144.369L108.008 140.977C108.025 140.869 108.019 140.759 107.99 140.653C107.962 140.548 107.912 140.449 107.843 140.364C107.774 140.279 107.688 140.21 107.591 140.16C107.494 140.11 107.387 140.081 107.278 140.074H102.622C102.462 140.081 102.308 140.136 102.18 140.233C102.052 140.33 101.957 140.464 101.907 140.616L100.934 144.008C100.91 144.119 100.91 144.234 100.935 144.344C100.959 144.455 101.008 144.559 101.076 144.65C101.145 144.74 101.232 144.814 101.332 144.867C101.432 144.921 101.543 144.952 101.656 144.958H106.524C106.688 144.945 106.843 144.881 106.968 144.776C107.094 144.67 107.183 144.528 107.223 144.369Z" fill="#263238"/>
<path d="M175.048 144.11L173.634 140.428C173.594 140.323 173.523 140.233 173.43 140.17C173.338 140.107 173.228 140.073 173.116 140.074H163.992C163.902 140.073 163.814 140.095 163.735 140.136C163.655 140.177 163.587 140.237 163.536 140.31C163.485 140.384 163.452 140.469 163.442 140.558C163.431 140.646 163.442 140.737 163.474 140.82L164.848 144.511C164.886 144.617 164.956 144.71 165.049 144.775C165.142 144.839 165.253 144.873 165.366 144.872H174.545C174.635 144.869 174.722 144.845 174.8 144.802C174.878 144.758 174.945 144.696 174.994 144.622C175.044 144.547 175.074 144.461 175.083 144.372C175.093 144.283 175.08 144.193 175.048 144.11Z" fill="#263238"/>
<path d="M127.873 140.074H122.565C122.422 140.074 122.285 140.128 122.181 140.226C122.078 140.324 122.015 140.458 122.007 140.6L121.827 144.354C121.823 144.429 121.836 144.504 121.862 144.574C121.889 144.645 121.929 144.709 121.981 144.763C122.033 144.817 122.096 144.861 122.165 144.89C122.234 144.92 122.309 144.935 122.384 144.935H128.014C128.088 144.935 128.162 144.92 128.23 144.891C128.298 144.862 128.36 144.819 128.411 144.765C128.463 144.712 128.503 144.648 128.529 144.579C128.555 144.51 128.567 144.436 128.564 144.361L128.43 140.616C128.426 140.471 128.366 140.333 128.261 140.232C128.157 140.131 128.018 140.074 127.873 140.074Z" fill="#263238"/>
<path d="M100.394 140.074H96.6957C96.5425 140.079 96.3939 140.128 96.2683 140.216C96.1427 140.304 96.0457 140.426 95.989 140.569L94.7719 143.977C94.7401 144.089 94.7337 144.207 94.7532 144.322C94.7726 144.437 94.8174 144.546 94.8844 144.641C94.9513 144.737 95.0386 144.816 95.1401 144.874C95.2415 144.931 95.3545 144.965 95.4708 144.974H99.3968C99.5569 144.967 99.7112 144.912 99.839 144.815C99.9667 144.718 100.062 144.585 100.111 144.432L101.085 141.032C101.11 140.923 101.112 140.81 101.089 140.701C101.067 140.591 101.022 140.487 100.957 140.397C100.891 140.306 100.807 140.23 100.71 140.175C100.613 140.119 100.505 140.085 100.394 140.074Z" fill="#263238"/>
<path d="M114.094 144.464L114.589 140.695C114.599 140.617 114.592 140.538 114.569 140.462C114.546 140.387 114.507 140.318 114.455 140.259C114.403 140.201 114.339 140.154 114.267 140.122C114.196 140.09 114.118 140.074 114.039 140.074H109.328C109.202 140.075 109.08 140.117 108.982 140.196C108.884 140.274 108.815 140.384 108.786 140.506L107.946 144.275C107.927 144.356 107.927 144.441 107.945 144.522C107.964 144.604 108 144.68 108.053 144.745C108.105 144.81 108.171 144.862 108.247 144.898C108.322 144.933 108.405 144.951 108.488 144.95H113.568C113.7 144.947 113.826 144.896 113.923 144.806C114.02 144.717 114.081 144.595 114.094 144.464Z" fill="#263238"/>
<path d="M115.31 140.554L114.815 144.315C114.805 144.394 114.812 144.474 114.835 144.55C114.859 144.626 114.898 144.697 114.951 144.756C115.004 144.816 115.069 144.863 115.142 144.895C115.214 144.928 115.293 144.944 115.373 144.943H120.626C120.768 144.944 120.905 144.889 121.009 144.791C121.113 144.694 121.175 144.56 121.183 144.417L121.364 140.664C121.368 140.589 121.357 140.513 121.331 140.442C121.304 140.371 121.264 140.307 121.212 140.252C121.159 140.198 121.096 140.154 121.026 140.125C120.957 140.096 120.882 140.082 120.806 140.083H115.859C115.727 140.083 115.598 140.131 115.498 140.217C115.397 140.304 115.33 140.423 115.31 140.554Z" fill="#263238"/>
<path d="M157.163 144.173L156.063 140.467C156.029 140.352 155.959 140.252 155.862 140.181C155.766 140.11 155.649 140.073 155.53 140.074H150.41C150.327 140.074 150.246 140.091 150.171 140.127C150.096 140.162 150.03 140.213 149.978 140.277C149.926 140.342 149.889 140.417 149.87 140.497C149.851 140.577 149.851 140.661 149.868 140.742L150.653 144.456C150.68 144.58 150.749 144.691 150.847 144.771C150.946 144.851 151.068 144.895 151.195 144.895H156.613C156.702 144.898 156.79 144.88 156.87 144.841C156.95 144.803 157.02 144.746 157.074 144.676C157.128 144.605 157.164 144.523 157.179 144.435C157.195 144.348 157.189 144.258 157.163 144.173Z" fill="#263238"/>
<path d="M163.994 144.126L162.62 140.435C162.581 140.33 162.51 140.239 162.417 140.174C162.325 140.11 162.215 140.075 162.102 140.074H157.391C157.305 140.074 157.221 140.094 157.144 140.133C157.068 140.171 157.002 140.227 156.951 140.296C156.899 140.364 156.865 140.444 156.85 140.528C156.835 140.612 156.84 140.699 156.865 140.781L157.956 144.487C157.991 144.601 158.062 144.701 158.158 144.771C158.255 144.842 158.371 144.88 158.49 144.88H163.476C163.565 144.877 163.653 144.854 163.731 144.811C163.809 144.769 163.877 144.708 163.927 144.635C163.978 144.561 164.01 144.477 164.022 144.388C164.034 144.3 164.024 144.21 163.994 144.126Z" fill="#263238"/>
<path d="M128.078 145.768H122.284C122.141 145.767 122.004 145.822 121.9 145.92C121.796 146.017 121.734 146.151 121.726 146.294L121.538 150.173C121.534 150.248 121.547 150.323 121.573 150.393C121.6 150.464 121.64 150.528 121.692 150.582C121.744 150.636 121.807 150.68 121.876 150.709C121.945 150.739 122.02 150.754 122.095 150.754H128.22C128.295 150.753 128.369 150.737 128.437 150.707C128.506 150.677 128.568 150.634 128.62 150.58C128.672 150.526 128.712 150.462 128.739 150.392C128.766 150.322 128.779 150.247 128.777 150.173L128.636 146.309C128.632 146.164 128.571 146.026 128.467 145.925C128.363 145.824 128.224 145.768 128.078 145.768Z" fill="#263238"/>
<path d="M166.153 149.945L164.731 146.137C164.693 146.03 164.622 145.939 164.529 145.874C164.437 145.809 164.326 145.775 164.213 145.775H159.078C158.991 145.776 158.906 145.796 158.829 145.835C158.751 145.874 158.684 145.93 158.632 145.999C158.581 146.069 158.546 146.149 158.53 146.234C158.515 146.319 158.52 146.407 158.544 146.49L159.675 150.337C159.71 150.451 159.781 150.551 159.877 150.622C159.973 150.692 160.089 150.73 160.209 150.73H165.634C165.728 150.732 165.821 150.709 165.904 150.666C165.987 150.622 166.057 150.558 166.109 150.48C166.161 150.401 166.192 150.311 166.199 150.218C166.207 150.124 166.191 150.03 166.153 149.945Z" fill="#263238"/>
<path d="M158.89 149.992L157.751 146.168C157.719 146.054 157.65 145.954 157.555 145.883C157.459 145.812 157.344 145.774 157.225 145.775H151.642C151.56 145.775 151.478 145.793 151.403 145.828C151.329 145.863 151.263 145.914 151.211 145.979C151.159 146.043 151.122 146.118 151.103 146.198C151.084 146.279 151.083 146.362 151.101 146.443L151.925 150.275C151.953 150.398 152.022 150.508 152.12 150.588C152.218 150.668 152.34 150.712 152.467 150.714H158.356C158.443 150.715 158.53 150.694 158.608 150.655C158.686 150.616 158.754 150.559 158.806 150.488C158.858 150.418 158.892 150.336 158.907 150.25C158.922 150.164 158.916 150.075 158.89 149.992Z" fill="#263238"/>
<path d="M114.584 150.761H120.323C120.465 150.76 120.6 150.704 120.702 150.607C120.804 150.509 120.865 150.376 120.873 150.235L121.061 146.356C121.065 146.281 121.053 146.206 121.026 146.136C120.999 146.065 120.959 146.001 120.907 145.947C120.855 145.893 120.792 145.849 120.723 145.82C120.654 145.79 120.579 145.775 120.504 145.775H115.086C114.951 145.776 114.821 145.826 114.72 145.916C114.619 146.005 114.554 146.128 114.536 146.262L114.034 150.141C114.024 150.219 114.03 150.298 114.054 150.373C114.077 150.448 114.115 150.518 114.168 150.576C114.22 150.635 114.284 150.682 114.355 150.714C114.427 150.746 114.505 150.762 114.584 150.761Z" fill="#263238"/>
<path d="M129.996 150.738H135.438C135.515 150.738 135.591 150.722 135.661 150.691C135.732 150.66 135.795 150.615 135.847 150.558C135.899 150.501 135.938 150.434 135.962 150.361C135.986 150.287 135.995 150.21 135.987 150.133L135.634 146.286C135.622 146.148 135.559 146.019 135.458 145.924C135.356 145.83 135.223 145.777 135.084 145.775H129.855C129.78 145.776 129.707 145.792 129.638 145.822C129.57 145.852 129.508 145.896 129.457 145.95C129.406 146.004 129.366 146.068 129.34 146.138C129.314 146.208 129.302 146.282 129.305 146.356L129.447 150.212C129.453 150.353 129.513 150.487 129.616 150.585C129.718 150.683 129.854 150.738 129.996 150.738Z" fill="#263238"/>
<path d="M136.308 146.412L136.661 150.26C136.677 150.397 136.742 150.524 136.845 150.617C136.947 150.709 137.081 150.761 137.219 150.762H143.351C143.431 150.763 143.509 150.747 143.581 150.714C143.654 150.682 143.718 150.634 143.771 150.575C143.823 150.515 143.861 150.445 143.884 150.369C143.906 150.293 143.912 150.213 143.901 150.134L143.351 146.287C143.334 146.155 143.269 146.035 143.17 145.948C143.07 145.862 142.942 145.814 142.809 145.815H136.866C136.789 145.815 136.713 145.831 136.643 145.861C136.572 145.892 136.509 145.936 136.457 145.992C136.404 146.048 136.364 146.115 136.339 146.187C136.313 146.259 136.303 146.336 136.308 146.412Z" fill="#263238"/>
<path d="M151.194 150.039L150.362 146.207C150.335 146.084 150.266 145.974 150.167 145.895C150.069 145.817 149.946 145.774 149.82 145.775H144.598C144.519 145.775 144.44 145.791 144.368 145.823C144.296 145.856 144.231 145.903 144.179 145.963C144.127 146.023 144.088 146.093 144.066 146.169C144.043 146.245 144.037 146.325 144.049 146.404L144.598 150.243C144.617 150.376 144.683 150.497 144.784 150.585C144.885 150.673 145.014 150.722 145.148 150.722H150.644C150.729 150.723 150.812 150.705 150.889 150.669C150.965 150.633 151.032 150.58 151.085 150.514C151.138 150.448 151.175 150.371 151.194 150.289C151.213 150.207 151.213 150.121 151.194 150.039Z" fill="#263238"/>
<path d="M106.22 145.768H94.6461C94.5344 145.769 94.4257 145.803 94.3334 145.866C94.2412 145.929 94.1697 146.017 94.1278 146.121L92.6203 150.047C92.5883 150.131 92.5772 150.221 92.588 150.31C92.5988 150.398 92.6312 150.483 92.6822 150.557C92.7333 150.63 92.8016 150.69 92.8811 150.731C92.9606 150.773 93.049 150.794 93.1385 150.793H105.348C105.477 150.791 105.602 150.745 105.701 150.662C105.8 150.579 105.867 150.464 105.89 150.337L106.762 146.411C106.774 146.333 106.769 146.252 106.748 146.175C106.727 146.098 106.689 146.027 106.638 145.966C106.586 145.905 106.522 145.856 106.45 145.821C106.378 145.787 106.3 145.769 106.22 145.768Z" fill="#263238"/>
<path d="M107.17 150.77H112.792C112.926 150.769 113.055 150.72 113.156 150.632C113.257 150.544 113.322 150.423 113.341 150.291L113.844 146.365C113.855 146.286 113.849 146.206 113.827 146.13C113.804 146.054 113.766 145.984 113.713 145.924C113.661 145.864 113.597 145.817 113.524 145.784C113.452 145.752 113.373 145.736 113.294 145.736H108.041C107.915 145.737 107.793 145.78 107.695 145.858C107.597 145.936 107.528 146.046 107.499 146.168L106.628 150.094C106.61 150.175 106.611 150.259 106.63 150.34C106.649 150.421 106.686 150.496 106.738 150.561C106.79 150.626 106.855 150.678 106.93 150.714C107.005 150.75 107.087 150.769 107.17 150.77Z" fill="#263238"/>
<path d="M173.061 150.683H176.673C176.766 150.685 176.859 150.662 176.942 150.619C177.025 150.575 177.096 150.511 177.147 150.433C177.199 150.354 177.23 150.264 177.238 150.171C177.245 150.077 177.229 149.983 177.191 149.898L175.668 146.105C175.626 146.002 175.554 145.913 175.462 145.85C175.37 145.787 175.261 145.753 175.149 145.752H171.844C171.756 145.753 171.67 145.774 171.592 145.815C171.514 145.855 171.446 145.913 171.394 145.984C171.342 146.054 171.308 146.136 171.293 146.223C171.278 146.309 171.284 146.398 171.31 146.482L172.543 150.275C172.575 150.388 172.643 150.489 172.736 150.562C172.829 150.636 172.942 150.678 173.061 150.683Z" fill="#263238"/>
<path d="M171.718 149.961L170.485 146.16C170.449 146.049 170.379 145.952 170.284 145.883C170.19 145.814 170.076 145.776 169.959 145.775H166.104C166.015 145.776 165.928 145.799 165.849 145.84C165.771 145.882 165.703 145.942 165.652 146.015C165.602 146.088 165.569 146.172 165.558 146.26C165.546 146.348 165.556 146.438 165.586 146.521L166.999 150.33C167.039 150.436 167.111 150.528 167.205 150.593C167.299 150.657 167.411 150.692 167.525 150.691H171.192C171.28 150.692 171.367 150.672 171.446 150.632C171.525 150.592 171.593 150.534 171.645 150.462C171.696 150.391 171.73 150.308 171.743 150.22C171.756 150.133 171.747 150.044 171.718 149.961Z" fill="#263238"/>
<path d="M114.049 157.287H119.733C119.947 157.289 120.153 157.208 120.308 157.062C120.463 156.915 120.556 156.715 120.566 156.501L120.762 152.458C120.769 152.345 120.752 152.232 120.713 152.126C120.674 152.02 120.613 151.923 120.535 151.841C120.457 151.759 120.363 151.694 120.259 151.651C120.155 151.607 120.043 151.585 119.93 151.586H114.575C114.372 151.584 114.175 151.657 114.022 151.79C113.869 151.923 113.769 152.107 113.742 152.308L113.216 156.344C113.201 156.462 113.21 156.583 113.245 156.697C113.28 156.811 113.339 156.916 113.418 157.005C113.496 157.095 113.594 157.166 113.702 157.215C113.811 157.263 113.929 157.288 114.049 157.287Z" fill="#263238"/>
<path d="M177.405 151.586H168.705C168.57 151.585 168.437 151.617 168.317 151.678C168.198 151.74 168.095 151.83 168.017 151.941C167.94 152.051 167.891 152.179 167.874 152.313C167.857 152.446 167.872 152.582 167.92 152.708L169.49 156.831C169.548 156.992 169.655 157.132 169.795 157.23C169.936 157.328 170.104 157.381 170.275 157.38H179.093C179.229 157.38 179.363 157.347 179.483 157.284C179.604 157.221 179.707 157.129 179.784 157.017C179.862 156.905 179.911 156.776 179.927 156.641C179.943 156.506 179.926 156.369 179.878 156.242L178.261 152.096C178.192 151.93 178.072 151.791 177.918 151.699C177.763 151.607 177.583 151.567 177.405 151.586Z" fill="#263238"/>
<path d="M106.148 152.238L105.245 156.258C105.218 156.377 105.218 156.501 105.245 156.621C105.271 156.74 105.324 156.852 105.399 156.949C105.474 157.046 105.569 157.125 105.678 157.18C105.788 157.236 105.907 157.267 106.03 157.271H111.66C111.862 157.269 112.057 157.194 112.208 157.06C112.36 156.926 112.458 156.741 112.484 156.541L113.01 152.513C113.027 152.395 113.019 152.275 112.985 152.161C112.951 152.047 112.893 151.941 112.815 151.852C112.736 151.762 112.64 151.691 112.531 151.642C112.422 151.594 112.305 151.569 112.186 151.57H106.933C106.746 151.577 106.567 151.647 106.424 151.768C106.282 151.889 106.184 152.055 106.148 152.238Z" fill="#263238"/>
<path d="M98.5078 152.191L97.3221 156.344C97.2919 156.451 97.2868 156.564 97.3072 156.673C97.3277 156.783 97.3731 156.886 97.44 156.975C97.5069 157.064 97.5934 157.136 97.6928 157.186C97.7922 157.236 97.9018 157.262 98.0131 157.263H103.761C103.924 157.263 104.083 157.207 104.21 157.104C104.337 157.001 104.425 156.858 104.46 156.698L105.41 152.465C105.435 152.36 105.435 152.249 105.411 152.143C105.388 152.037 105.34 151.938 105.271 151.853C105.203 151.768 105.117 151.7 105.018 151.654C104.92 151.607 104.812 151.584 104.703 151.586L99.2066 151.657C99.0476 151.656 98.8929 151.709 98.7666 151.805C98.6402 151.902 98.5492 152.037 98.5078 152.191Z" fill="#263238"/>
<path d="M152.43 152.591L153.317 156.698C153.356 156.879 153.455 157.041 153.597 157.16C153.739 157.278 153.917 157.345 154.103 157.349H159.929C160.057 157.346 160.184 157.313 160.298 157.254C160.412 157.194 160.51 157.109 160.586 157.005C160.662 156.901 160.713 156.781 160.735 156.654C160.757 156.527 160.75 156.397 160.714 156.274L159.489 152.167C159.44 151.996 159.337 151.846 159.195 151.738C159.054 151.631 158.882 151.572 158.704 151.57H153.207C153.084 151.574 152.964 151.605 152.854 151.661C152.745 151.717 152.649 151.797 152.575 151.895C152.5 151.993 152.449 152.106 152.424 152.227C152.398 152.347 152.401 152.472 152.43 152.591Z" fill="#263238"/>
<path d="M121.434 152.379L121.238 156.423C121.231 156.536 121.248 156.649 121.287 156.756C121.326 156.862 121.386 156.96 121.464 157.042C121.542 157.124 121.636 157.19 121.74 157.235C121.844 157.279 121.957 157.302 122.07 157.302L151.735 157.349C151.857 157.344 151.976 157.312 152.084 157.256C152.193 157.2 152.287 157.121 152.362 157.025C152.437 156.928 152.49 156.817 152.517 156.698C152.544 156.579 152.545 156.456 152.52 156.336L151.633 152.238C151.593 152.057 151.494 151.895 151.352 151.777C151.21 151.659 151.032 151.592 150.848 151.586H122.266C122.052 151.586 121.846 151.668 121.691 151.816C121.536 151.963 121.444 152.165 121.434 152.379Z" fill="#263238"/>
<path d="M92.0211 152.017L90.4507 156.359C90.414 156.459 90.402 156.566 90.4156 156.672C90.4293 156.777 90.4682 156.878 90.5292 156.965C90.5901 157.052 90.6712 157.123 90.7655 157.172C90.8599 157.221 90.9647 157.247 91.071 157.247H95.8921C96.0352 157.245 96.174 157.197 96.2883 157.111C96.4026 157.025 96.4866 156.905 96.5282 156.768L97.7688 152.418C97.7968 152.319 97.8015 152.216 97.7827 152.116C97.7639 152.015 97.722 151.92 97.6603 151.839C97.5986 151.758 97.5189 151.691 97.4273 151.646C97.3358 151.601 97.2349 151.577 97.1328 151.578H92.665C92.5249 151.573 92.3869 151.613 92.2711 151.692C92.1553 151.771 92.0678 151.885 92.0211 152.017Z" fill="#263238"/>
<path d="M160.373 152.693L161.59 156.807C161.641 156.977 161.745 157.126 161.886 157.233C162.027 157.34 162.198 157.4 162.375 157.404H167.691C167.826 157.405 167.959 157.373 168.078 157.311C168.198 157.249 168.301 157.159 168.378 157.049C168.455 156.938 168.505 156.811 168.522 156.677C168.539 156.543 168.523 156.408 168.476 156.281L166.906 152.159C166.846 151.999 166.739 151.861 166.598 151.764C166.458 151.668 166.291 151.616 166.12 151.617H161.119C160.993 151.625 160.87 151.661 160.76 151.722C160.651 151.784 160.556 151.87 160.484 151.974C160.412 152.077 160.365 152.196 160.346 152.321C160.326 152.445 160.336 152.572 160.373 152.693Z" fill="#263238"/>
<path d="M180.971 136.431C180.971 136.541 160.886 136.635 136.112 136.635C111.339 136.635 91.2539 136.541 91.2539 136.431C91.2539 136.321 111.332 136.227 136.112 136.227C160.893 136.227 180.971 136.313 180.971 136.431Z" fill="#263238"/>
<path d="M118.584 98.7256C119.406 98.0425 120.318 97.4746 121.293 97.0374L121.458 94.0772L126.287 93.292L127.41 96.0323C128.484 96.132 129.54 96.3723 130.551 96.7469L132.757 94.7839L136.746 97.6263L135.6 100.351C136.283 101.175 136.853 102.086 137.296 103.06L140.248 103.225L141.033 108.054L138.293 109.177C138.201 110.252 137.96 111.309 137.578 112.317L139.549 114.524L136.707 118.513L133.966 117.358C133.144 118.037 132.236 118.605 131.265 119.047L131.092 121.999L126.264 122.784L125.141 120.044C124.066 119.952 123.009 119.711 122 119.329L119.825 121.284L115.836 118.442L116.982 115.717C116.303 114.891 115.733 113.981 115.286 113.008L112.334 112.836L111.549 108.007L114.289 106.884C114.389 105.81 114.629 104.754 115.004 103.743L113.033 101.537L115.875 97.5478L118.608 98.6942L118.584 98.7256ZM122.125 104.787C121.523 105.633 121.185 106.639 121.153 107.677C121.122 108.715 121.399 109.739 121.949 110.62C122.5 111.5 123.299 112.198 124.246 112.625C125.193 113.051 126.245 113.188 127.269 113.017C128.294 112.845 129.244 112.375 130.001 111.663C130.758 110.952 131.287 110.033 131.521 109.021C131.756 108.009 131.685 106.951 131.318 105.979C130.951 105.007 130.304 104.167 129.459 103.562C128.897 103.161 128.261 102.875 127.588 102.719C126.915 102.564 126.218 102.543 125.537 102.658C124.855 102.772 124.204 103.02 123.618 103.387C123.033 103.753 122.526 104.232 122.125 104.795V104.787Z" fill="#F5F5F5"/>
<path d="M145.196 111.022C145.752 110.563 146.368 110.18 147.026 109.884L147.143 107.882L150.41 107.332L151.195 109.185C151.915 109.254 152.622 109.417 153.299 109.672L154.791 108.337L157.492 110.261L156.707 112.106C157.167 112.665 157.55 113.283 157.846 113.943L159.848 114.053L160.398 117.328L158.544 118.113C158.474 118.832 158.31 119.54 158.058 120.217L159.392 121.709L157.461 124.426L155.608 123.641C155.053 124.104 154.437 124.49 153.778 124.787L153.668 126.789L150.394 127.339L149.609 125.478C148.889 125.411 148.182 125.25 147.504 124.999L146.013 126.326L143.312 124.402L144.097 122.557C143.632 122.003 143.246 121.387 142.95 120.728L140.948 120.61L140.398 117.343L142.259 116.558C142.321 115.838 142.483 115.13 142.738 114.454L141.403 112.962L143.335 110.261L145.18 111.046L145.196 111.022ZM147.599 115.129C147.19 115.702 146.96 116.383 146.938 117.087C146.916 117.79 147.104 118.484 147.477 119.081C147.85 119.678 148.391 120.151 149.033 120.44C149.675 120.729 150.388 120.821 151.082 120.704C151.777 120.588 152.421 120.268 152.933 119.785C153.445 119.302 153.803 118.678 153.96 117.992C154.118 117.306 154.068 116.589 153.818 115.931C153.567 115.273 153.127 114.704 152.553 114.297C151.786 113.751 150.833 113.533 149.904 113.689C148.975 113.845 148.146 114.363 147.599 115.129Z" fill="#F5F5F5"/>
<path d="M143.666 91.9032C144.16 91.4985 144.704 91.1581 145.283 90.8902L145.385 89.1235L148.283 88.6367L148.95 90.2778C149.589 90.3412 150.217 90.4863 150.819 90.7096L152.138 89.524L154.494 91.2279L153.811 92.869C154.221 93.3592 154.562 93.9035 154.824 94.4865L156.598 94.5885L157.077 97.4859L155.436 98.1534C155.38 98.7926 155.238 99.4214 155.012 100.022L156.19 101.341L154.486 103.736L152.853 103.045C152.359 103.455 151.813 103.796 151.227 104.058L151.125 105.833L148.236 106.319L147.56 104.678C146.924 104.616 146.298 104.471 145.7 104.247L144.373 105.424L142.017 103.72L142.7 102.087C142.293 101.592 141.952 101.046 141.687 100.462L139.92 100.36L139.434 97.4702L141.075 96.795C141.134 96.158 141.279 95.5319 141.507 94.934L140.321 93.607L142.025 91.2514L143.666 91.9346V91.9032ZM145.786 95.5386C145.426 96.0443 145.224 96.6453 145.205 97.2657C145.186 97.8861 145.352 98.4982 145.681 99.0246C146.01 99.551 146.487 99.9682 147.053 100.223C147.619 100.479 148.247 100.561 148.86 100.459C149.472 100.357 150.04 100.076 150.493 99.6511C150.946 99.2264 151.263 98.6771 151.403 98.0726C151.544 97.468 151.503 96.8353 151.284 96.2543C151.065 95.6734 150.679 95.1702 150.175 94.8084C149.839 94.5674 149.459 94.3951 149.056 94.3014C148.654 94.2077 148.237 94.1944 147.829 94.2622C147.421 94.33 147.031 94.4777 146.68 94.6968C146.33 94.9158 146.026 95.2019 145.786 95.5386Z" fill="#F5F5F5"/>
<path d="M109.17 109.554L109.735 108.29C110.334 108.671 111.028 108.878 111.738 108.887C112.452 108.887 112.727 108.691 112.727 108.392C112.727 107.426 109.272 108.133 109.272 105.872C109.272 104.788 110.159 103.901 111.965 103.901C112.733 103.889 113.492 104.07 114.172 104.427L113.638 105.707C113.125 105.413 112.548 105.251 111.957 105.236C111.235 105.236 110.976 105.479 110.976 105.785C110.976 106.712 114.423 106.021 114.423 108.259C114.423 109.319 113.536 110.222 111.73 110.222C110.831 110.245 109.943 110.014 109.17 109.554Z" fill="#263238"/>
<path d="M114.898 107.065C114.847 106.385 115.003 105.706 115.344 105.116C115.686 104.525 116.197 104.052 116.812 103.756C117.427 103.461 118.116 103.358 118.79 103.46C119.464 103.563 120.092 103.866 120.591 104.33C121.09 104.795 121.438 105.399 121.589 106.064C121.74 106.729 121.686 107.424 121.436 108.058C121.186 108.693 120.751 109.237 120.187 109.62C119.623 110.003 118.956 110.207 118.274 110.206C117.843 110.238 117.409 110.181 117 110.038C116.591 109.895 116.217 109.669 115.9 109.374C115.582 109.079 115.33 108.721 115.157 108.324C114.985 107.927 114.897 107.498 114.898 107.065ZM119.915 107.065C119.897 106.745 119.785 106.438 119.594 106.181C119.403 105.923 119.141 105.728 118.84 105.618C118.539 105.508 118.212 105.489 117.9 105.562C117.588 105.636 117.305 105.799 117.085 106.032C116.865 106.265 116.717 106.557 116.661 106.872C116.605 107.188 116.643 107.513 116.769 107.807C116.896 108.102 117.106 108.353 117.373 108.529C117.641 108.706 117.954 108.8 118.274 108.801C118.499 108.803 118.721 108.759 118.928 108.672C119.134 108.584 119.321 108.455 119.475 108.292C119.629 108.129 119.748 107.936 119.823 107.725C119.899 107.514 119.931 107.289 119.915 107.065Z" fill="#263238"/>
<path d="M124.284 105.353V106.688H126.969V108.015H124.284V110.104H122.564V104.011H127.331V105.338L124.284 105.353Z" fill="#263238"/>
<path d="M129.48 105.385H127.611V104.011H133.053V105.369H131.2V110.08H129.48V105.385Z" fill="#263238"/>
<path d="M143.089 104.011L141.119 110.088H139.281L138.08 106.406L136.863 110.104H135.025L133.086 104.011H134.853L136.078 107.89L137.365 104.011H138.936L140.153 107.937L141.433 104.011H143.089Z" fill="#263238"/>
<path d="M147.573 108.918H145.005L144.526 110.104H142.791L145.469 104.026H147.165L149.858 110.104H148.052L147.573 108.918ZM147.07 107.654L146.285 105.707L145.5 107.654H147.07Z" fill="#263238"/>
<path d="M153 108.486H152.058V110.104H150.33V104.011H153.11C154.766 104.011 155.811 104.867 155.811 106.256C155.827 106.659 155.722 107.056 155.511 107.399C155.3 107.742 154.992 108.014 154.625 108.18L155.936 110.088H154.091L153 108.486ZM153 105.346H152.042V107.152H153C153.714 107.152 154.068 106.822 154.068 106.264C154.068 105.707 153.722 105.377 153 105.377V105.346Z" fill="#263238"/>
<path d="M161.636 108.777V110.104H156.752V104.011H161.518V105.338H158.495V106.366H161.196V107.654H158.495V108.769L161.636 108.777Z" fill="#263238"/>
<path d="M107.889 111.611H108.713V117.414H107.889V111.611Z" fill="#263238"/>
<path d="M115.443 111.611V117.414H114.768L111.281 113.088V117.414H110.457V111.611H111.132L114.619 115.938V111.611H115.443Z" fill="#263238"/>
<path d="M118.33 112.334H116.344V111.611H121.141V112.334H119.155V117.414H118.37L118.33 112.334Z" fill="#263238"/>
<path d="M126.254 116.692V117.414H122.045V111.611H126.144V112.334H122.877V114.116H125.782V114.815H122.877V116.692H126.254Z" fill="#263238"/>
<path d="M131.593 114.477H132.379V116.738C131.757 117.233 130.982 117.495 130.188 117.477C129.704 117.456 129.233 117.318 128.814 117.074C128.396 116.829 128.044 116.486 127.789 116.075C127.534 115.663 127.383 115.196 127.351 114.713C127.318 114.229 127.404 113.746 127.601 113.303C127.798 112.861 128.1 112.474 128.481 112.175C128.862 111.876 129.311 111.675 129.787 111.59C130.264 111.504 130.754 111.536 131.215 111.684C131.677 111.831 132.095 112.089 132.434 112.436L131.915 112.954C131.695 112.733 131.433 112.56 131.144 112.444C130.856 112.328 130.546 112.271 130.235 112.278C129.644 112.278 129.076 112.513 128.658 112.932C128.24 113.35 128.005 113.917 128.005 114.508C128.005 115.1 128.24 115.667 128.658 116.085C129.076 116.503 129.644 116.738 130.235 116.738C130.714 116.751 131.187 116.623 131.593 116.369V114.477Z" fill="#263238"/>
<path d="M137.852 117.414L136.595 115.632H136.234H134.797V117.398H133.973V111.596H136.234C137.742 111.596 138.652 112.381 138.652 113.614C138.672 114.017 138.558 114.416 138.328 114.748C138.098 115.08 137.765 115.327 137.38 115.451L138.755 117.398L137.852 117.414ZM137.852 113.629C137.852 112.805 137.294 112.334 136.234 112.334H134.821V114.941H136.234C137.294 114.941 137.828 114.462 137.828 113.629H137.852Z" fill="#263238"/>
<path d="M143.695 115.961H140.609L139.973 117.414H139.117L141.748 111.611H142.533L145.171 117.414H144.362L143.695 115.961ZM143.404 115.302L142.148 112.451L140.9 115.302H143.404Z" fill="#263238"/>
<path d="M146.922 112.334H144.936V111.611H149.733V112.334H147.747V117.414H146.922V112.334Z" fill="#263238"/>
<path d="M150.643 111.611H151.428V117.414H150.643V111.611Z" fill="#263238"/>
<path d="M152.731 114.508C152.707 113.894 152.868 113.286 153.193 112.763C153.517 112.24 153.99 111.827 154.552 111.575C155.113 111.323 155.737 111.245 156.343 111.35C156.949 111.456 157.51 111.74 157.954 112.166C158.397 112.593 158.703 113.142 158.832 113.744C158.961 114.345 158.907 114.972 158.677 115.543C158.447 116.113 158.052 116.602 157.543 116.947C157.033 117.292 156.432 117.476 155.817 117.476C155.416 117.496 155.016 117.433 154.641 117.292C154.265 117.151 153.923 116.935 153.634 116.657C153.345 116.38 153.116 116.046 152.961 115.676C152.805 115.307 152.727 114.909 152.731 114.508ZM158.07 114.508C158.076 114.059 157.949 113.619 157.704 113.243C157.459 112.867 157.107 112.572 156.694 112.396C156.281 112.22 155.825 112.171 155.384 112.256C154.943 112.34 154.537 112.554 154.218 112.87C153.899 113.185 153.681 113.589 153.592 114.029C153.503 114.469 153.547 114.925 153.719 115.34C153.89 115.755 154.181 116.11 154.555 116.359C154.928 116.608 155.368 116.74 155.817 116.738C156.113 116.748 156.409 116.697 156.685 116.589C156.961 116.48 157.212 116.317 157.423 116.108C157.634 115.899 157.8 115.65 157.911 115.375C158.023 115.1 158.077 114.805 158.07 114.508Z" fill="#263238"/>
<path d="M165.152 111.611V117.414H164.469L160.991 113.088V117.414H160.158V111.611H160.849L164.328 115.938V111.611H165.152Z" fill="#263238"/>
</svg>
