<svg width="29" height="30" viewBox="0 0 29 30" fill="none" xmlns="http://www.w3.org/2000/svg">
<path d="M25.6996 0.600098H3.29961C1.53961 0.600098 0.0996094 2.0401 0.0996094 3.8001V26.2001C0.0996094 27.9617 1.53961 29.4001 3.29961 29.4001H14.4996V18.2001H11.2996V14.2401H14.4996V10.9601C14.4996 7.4977 16.4388 5.0657 20.5252 5.0657L23.41 5.0689V9.2369H21.4948C19.9044 9.2369 19.2996 10.4305 19.2996 11.5377V14.2417H23.4084L22.4996 18.2001H19.2996V29.4001H25.6996C27.4596 29.4001 28.8996 27.9617 28.8996 26.2001V3.8001C28.8996 2.0401 27.4596 0.600098 25.6996 0.600098Z" fill="#F7971D"/>
</svg>
