<svg width="54" height="81" viewBox="0 0 54 81" fill="none" xmlns="http://www.w3.org/2000/svg">
<path d="M13.5 80.6237C17.0804 80.6237 20.5142 79.2189 23.0459 76.7185C25.5776 74.218 27 70.8266 27 67.2904V53.957H13.5C9.91956 53.957 6.48579 55.3618 3.95405 57.8623C1.42232 60.3628 0 63.7541 0 67.2904C0 70.8266 1.42232 74.218 3.95405 76.7185C6.48579 79.2189 9.91956 80.6237 13.5 80.6237Z" fill="#0ACF83"/>
<path d="M0 40.6224C0 37.0862 1.42232 33.6948 3.95405 31.1943C6.48579 28.6938 9.91956 27.2891 13.5 27.2891H27V53.9557H13.5C9.91956 53.9557 6.48579 52.551 3.95405 50.0505C1.42232 47.55 0 44.1586 0 40.6224Z" fill="#A259FF"/>
<path d="M0 13.9564C-1.0921e-06 10.422 1.42087 7.03216 3.95032 4.53197C6.47978 2.03178 9.91084 0.625808 13.4894 0.623047L26.9894 0.623047V27.2897H13.5C9.91956 27.2897 6.48579 25.885 3.95405 23.3845C1.42232 20.884 0 17.4926 0 13.9564Z" fill="#F24E1E"/>
<path d="M27 0.623047H40.5C44.0804 0.623047 47.5142 2.0278 50.0459 4.52829C52.5776 7.02877 54 10.4202 54 13.9564C54 17.4926 52.5776 20.884 50.0459 23.3845C47.5142 25.885 44.0804 27.2897 40.5 27.2897H27V0.623047Z" fill="#FF7262"/>
<path d="M54 40.6224C54 44.1586 52.5776 47.55 50.0459 50.0505C47.5142 52.551 44.0804 53.9557 40.5 53.9557C36.9196 53.9557 33.4858 52.551 30.9541 50.0505C28.4223 47.55 27 44.1586 27 40.6224C27 37.0862 28.4223 33.6948 30.9541 31.1943C33.4858 28.6938 36.9196 27.2891 40.5 27.2891C44.0804 27.2891 47.5142 28.6938 50.0459 31.1943C52.5776 33.6948 54 37.0862 54 40.6224Z" fill="#1ABCFE"/>
</svg>
