<svg width="18" height="18" viewBox="0 0 18 18" fill="none" xmlns="http://www.w3.org/2000/svg">
<path d="M3.10503 3.10307C3.47541 2.73269 3.97776 2.52461 4.50156 2.52461H6.90156C7.17341 2.52461 7.43412 2.41662 7.62635 2.22439C7.81857 2.03217 7.92656 1.77146 7.92656 1.49961C7.92656 1.22776 7.81857 0.967049 7.62635 0.774825C7.43412 0.5826 7.17341 0.474609 6.90156 0.474609H4.50156C3.43407 0.474609 2.41029 0.89867 1.65546 1.6535C0.900624 2.40834 0.476562 3.43211 0.476562 4.49961V13.4996C0.476562 14.5671 0.900624 15.5909 1.65546 16.3457C2.41029 17.1005 3.43407 17.5246 4.50156 17.5246H13.5016C14.5691 17.5246 15.5928 17.1005 16.3477 16.3457C17.1025 15.5909 17.5266 14.5671 17.5266 13.4996V11.0996C17.5266 10.8278 17.4186 10.567 17.2263 10.3748C17.0341 10.1826 16.7734 10.0746 16.5016 10.0746C16.2297 10.0746 15.969 10.1826 15.7768 10.3748C15.5846 10.567 15.4766 10.8278 15.4766 11.0996V13.4996C15.4766 14.0234 15.2685 14.5258 14.8981 14.8961C14.5277 15.2665 14.0254 15.4746 13.5016 15.4746H4.50156C3.4114 15.4746 2.52656 14.5898 2.52656 13.4996V4.49961C2.52656 3.97581 2.73464 3.47346 3.10503 3.10307ZM9.77678 0.774825C9.58455 0.967049 9.47656 1.22776 9.47656 1.49961C9.47656 1.77146 9.58455 2.03217 9.77678 2.22439C9.969 2.41662 10.2297 2.52461 10.5016 2.52461H14.0278L9.77867 6.77372C9.67875 6.86725 9.59856 6.97985 9.54285 7.10489C9.48682 7.23062 9.4567 7.36635 9.45427 7.50398C9.45184 7.6416 9.47716 7.77831 9.52871 7.90594C9.58026 8.03357 9.657 8.14951 9.75433 8.24684C9.85166 8.34417 9.9676 8.42091 10.0952 8.47246C10.2229 8.52401 10.3596 8.54933 10.4972 8.5469C10.6348 8.54447 10.7705 8.51435 10.8963 8.45832C11.0213 8.40261 11.1339 8.32242 11.2275 8.22249L15.4766 3.97339V7.49961C15.4766 7.77146 15.5846 8.03217 15.7768 8.22439C15.969 8.41662 16.2297 8.52461 16.5016 8.52461C16.7734 8.52461 17.0341 8.41662 17.2263 8.22439C17.4186 8.03217 17.5266 7.77146 17.5266 7.49961V1.49961C17.5266 1.22776 17.4186 0.96705 17.2263 0.774825C17.0341 0.5826 16.7734 0.474609 16.5016 0.474609H10.5016C10.2297 0.474609 9.969 0.5826 9.77678 0.774825Z" fill="#F7971D" stroke="#F7971D" stroke-width="0.25"/>
</svg>
