<svg width="80" height="80" viewBox="0 0 80 80" fill="none" xmlns="http://www.w3.org/2000/svg">
<rect width="80" height="80" rx="8" fill="url(#paint0_linear_1346_6737)"/>
<path d="M50 24C49.4696 24 48.9609 23.7893 48.5858 23.4142C48.2107 23.0391 48 22.5304 48 22C48 21.4696 48.2107 20.9609 48.5858 20.5858C48.9609 20.2107 49.4696 20 50 20H58C58.5304 20 59.0391 20.2107 59.4142 20.5858C59.7893 20.9609 60 21.4696 60 22V30C60 30.5304 59.7893 31.0391 59.4142 31.4142C59.0391 31.7893 58.5304 32 58 32C57.4696 32 56.9609 31.7893 56.5858 31.4142C56.2107 31.0391 56 30.5304 56 30V26.828L44.414 38.414C44.0389 38.7889 43.5303 38.9996 43 38.9996C42.4697 38.9996 41.9611 38.7889 41.586 38.414L36 32.828L25.414 43.414C25.0368 43.7783 24.5316 43.9799 24.0072 43.9753C23.4828 43.9708 22.9812 43.7605 22.6104 43.3896C22.2395 43.0188 22.0292 42.5172 22.0247 41.9928C22.0201 41.4684 22.2217 40.9632 22.586 40.586L34.586 28.586C34.9611 28.2111 35.4697 28.0004 36 28.0004C36.5303 28.0004 37.0389 28.2111 37.414 28.586L43 34.172L53.172 24H50ZM26 52V58C26 58.5304 25.7893 59.0391 25.4142 59.4142C25.0391 59.7893 24.5304 60 24 60C23.4696 60 22.9609 59.7893 22.5858 59.4142C22.2107 59.0391 22 58.5304 22 58V52C22 51.4696 22.2107 50.9609 22.5858 50.5858C22.9609 50.2107 23.4696 50 24 50C24.5304 50 25.0391 50.2107 25.4142 50.5858C25.7893 50.9609 26 51.4696 26 52ZM36 44C36 43.4696 35.7893 42.9609 35.4142 42.5858C35.0391 42.2107 34.5304 42 34 42C33.4696 42 32.9609 42.2107 32.5858 42.5858C32.2107 42.9609 32 43.4696 32 44V58C32 58.5304 32.2107 59.0391 32.5858 59.4142C32.9609 59.7893 33.4696 60 34 60C34.5304 60 35.0391 59.7893 35.4142 59.4142C35.7893 59.0391 36 58.5304 36 58V44ZM44 46C44.5304 46 45.0391 46.2107 45.4142 46.5858C45.7893 46.9609 46 47.4696 46 48V58C46 58.5304 45.7893 59.0391 45.4142 59.4142C45.0391 59.7893 44.5304 60 44 60C43.4696 60 42.9609 59.7893 42.5858 59.4142C42.2107 59.0391 42 58.5304 42 58V48C42 47.4696 42.2107 46.9609 42.5858 46.5858C42.9609 46.2107 43.4696 46 44 46ZM56 38C56 37.4696 55.7893 36.9609 55.4142 36.5858C55.0391 36.2107 54.5304 36 54 36C53.4696 36 52.9609 36.2107 52.5858 36.5858C52.2107 36.9609 52 37.4696 52 38V58C52 58.5304 52.2107 59.0391 52.5858 59.4142C52.9609 59.7893 53.4696 60 54 60C54.5304 60 55.0391 59.7893 55.4142 59.4142C55.7893 59.0391 56 58.5304 56 58V38Z" fill="#383838"/>
<defs>
<linearGradient id="paint0_linear_1346_6737" x1="0" y1="80" x2="80" y2="0" gradientUnits="userSpaceOnUse">
<stop stop-color="#DE3C63"/>
<stop offset="0.4" stop-color="#F7971D"/>
<stop offset="1" stop-color="#FFD700"/>
</linearGradient>
</defs>
</svg>
