<svg width="27" height="28" viewBox="0 0 27 28" fill="none" xmlns="http://www.w3.org/2000/svg">
<path d="M14.8708 0.668144C15.8438 0.664411 16.8167 0.67419 17.7895 0.697478L18.0481 0.706811C18.3468 0.717478 18.6415 0.730811 18.9975 0.746811C20.4161 0.813478 21.3841 1.03748 22.2335 1.36681C23.1135 1.70548 23.8548 2.16414 24.5961 2.90548C25.274 3.57162 25.7986 4.37741 26.1335 5.26681C26.4628 6.11614 26.6868 7.08548 26.7535 8.50414C26.7695 8.85881 26.7828 9.15481 26.7935 9.45348L26.8015 9.71214C26.8251 10.6844 26.8354 11.6569 26.8321 12.6295L26.8335 13.6241V15.3708C26.8367 16.3438 26.8265 17.3168 26.8028 18.2895L26.7948 18.5481C26.7841 18.8468 26.7708 19.1415 26.7548 19.4975C26.6881 20.9161 26.4615 21.8841 26.1335 22.7335C25.7997 23.6238 25.2749 24.4303 24.5961 25.0961C23.9294 25.7739 23.1232 26.2985 22.2335 26.6335C21.3841 26.9628 20.4161 27.1868 18.9975 27.2535C18.6415 27.2695 18.3468 27.2828 18.0481 27.2935L17.7895 27.3015C16.8168 27.3252 15.8438 27.3354 14.8708 27.3321L13.8761 27.3335H12.1308C11.1578 27.3368 10.1848 27.3265 9.21212 27.3028L8.95345 27.2948C8.63693 27.2833 8.32048 27.27 8.00412 27.2548C6.58545 27.1881 5.61745 26.9615 4.76678 26.6335C3.87703 26.2993 3.0711 25.7746 2.40545 25.0961C1.72685 24.4299 1.20175 23.6236 0.866785 22.7335C0.537452 21.8841 0.313452 20.9161 0.246785 19.4975C0.231935 19.1811 0.218602 18.8647 0.206785 18.5481L0.200118 18.2895C0.175537 17.3168 0.164424 16.3438 0.166785 15.3708V12.6295C0.163064 11.6569 0.172842 10.6844 0.196118 9.71214L0.205452 9.45348C0.216118 9.15481 0.229452 8.85881 0.245452 8.50414C0.312118 7.08414 0.536118 6.11748 0.865452 5.26681C1.20062 4.37697 1.72674 3.5714 2.40679 2.90681C3.07198 2.22781 3.8774 1.70224 4.76678 1.36681C5.61745 1.03748 6.58412 0.813478 8.00412 0.746811L8.95345 0.706811L9.21212 0.700145C10.1844 0.675575 11.1569 0.664463 12.1295 0.666811L14.8708 0.668144ZM13.5001 7.33481C12.6168 7.32232 11.7398 7.48551 10.9201 7.8149C10.1004 8.14429 9.35431 8.63332 8.72525 9.25355C8.09618 9.87379 7.59665 10.6129 7.2557 11.4278C6.91475 12.2428 6.73917 13.1174 6.73917 14.0008C6.73917 14.8842 6.91475 15.7588 7.2557 16.5738C7.59665 17.3888 8.09618 18.1278 8.72525 18.7481C9.35431 19.3683 10.1004 19.8573 10.9201 20.1867C11.7398 20.5161 12.6168 20.6793 13.5001 20.6668C15.2682 20.6668 16.9639 19.9644 18.2142 18.7142C19.4644 17.4639 20.1668 15.7683 20.1668 14.0001C20.1668 12.232 19.4644 10.5363 18.2142 9.2861C16.9639 8.03586 15.2682 7.33481 13.5001 7.33481ZM13.5001 10.0015C14.0315 9.99169 14.5594 10.0879 15.0532 10.2844C15.5469 10.481 15.9966 10.7739 16.3758 11.1462C16.7551 11.5185 17.0564 11.9626 17.262 12.4526C17.4677 12.9426 17.5737 13.4687 17.5738 14.0001C17.5739 14.5316 17.4681 15.0577 17.2626 15.5478C17.057 16.0378 16.7559 16.4821 16.3768 16.8545C15.9976 17.2269 15.5481 17.52 15.0544 17.7167C14.5607 17.9134 14.0328 18.0098 13.5015 18.0001C12.4406 18.0001 11.4232 17.5787 10.673 16.8286C9.92288 16.0784 9.50145 15.061 9.50145 14.0001C9.50145 12.9393 9.92288 11.9219 10.673 11.1717C11.4232 10.4216 12.4406 10.0001 13.5015 10.0001L13.5001 10.0015ZM20.5001 5.33481C20.07 5.35203 19.6632 5.53501 19.3649 5.84544C19.0667 6.15587 18.9001 6.56966 18.9001 7.00014C18.9001 7.43063 19.0667 7.84442 19.3649 8.15485C19.6632 8.46528 20.07 8.64826 20.5001 8.66548C20.9421 8.66548 21.3661 8.48988 21.6786 8.17732C21.9912 7.86476 22.1668 7.44084 22.1668 6.99881C22.1668 6.55678 21.9912 6.13286 21.6786 5.8203C21.3661 5.50774 20.9421 5.33214 20.5001 5.33214V5.33481Z" fill="#F7971D"/>
</svg>
