<svg width="118" height="80" viewBox="0 0 118 80" fill="none" xmlns="http://www.w3.org/2000/svg">
<path d="M38.91 24.073C35.99 24.073 31.47 20.753 26.71 20.873C20.43 20.953 14.67 24.513 11.43 30.153C4.90996 41.473 9.74996 58.193 16.11 67.393C19.23 71.873 22.91 76.913 27.79 76.753C32.47 76.553 34.23 73.713 39.91 73.713C45.55 73.713 47.15 76.753 52.11 76.633C57.15 76.553 60.35 72.073 63.43 67.553C66.99 62.353 68.47 57.313 68.55 57.033C68.43 56.993 58.75 53.273 58.63 42.073C58.55 32.713 66.27 28.233 66.63 28.033C62.23 21.593 55.47 20.873 53.11 20.713C46.95 20.233 41.79 24.073 38.91 24.073ZM49.31 14.633C51.91 11.513 53.63 7.15301 53.15 2.83301C49.43 2.99301 44.95 5.31301 42.27 8.43301C39.87 11.193 37.79 15.633 38.35 19.873C42.47 20.193 46.71 17.753 49.31 14.633Z" fill="#AEAEAE"/>
<path d="M97.2273 46V37.2727H98.5682V46H97.2273ZM97.9091 35.8182C97.6477 35.8182 97.4223 35.7292 97.233 35.5511C97.0473 35.3731 96.9545 35.1591 96.9545 34.9091C96.9545 34.6591 97.0473 34.4451 97.233 34.267C97.4223 34.089 97.6477 34 97.9091 34C98.1705 34 98.3939 34.089 98.5795 34.267C98.7689 34.4451 98.8636 34.6591 98.8636 34.9091C98.8636 35.1591 98.7689 35.3731 98.5795 35.5511C98.3939 35.7292 98.1705 35.8182 97.9091 35.8182ZM104.57 46.1818C103.782 46.1818 103.09 45.9943 102.496 45.6193C101.905 45.2443 101.443 44.7197 101.109 44.0455C100.78 43.3712 100.615 42.5833 100.615 41.6818C100.615 40.7727 100.78 39.9792 101.109 39.3011C101.443 38.6231 101.905 38.0966 102.496 37.7216C103.09 37.3466 103.782 37.1591 104.57 37.1591C105.357 37.1591 106.047 37.3466 106.638 37.7216C107.232 38.0966 107.695 38.6231 108.024 39.3011C108.357 39.9792 108.524 40.7727 108.524 41.6818C108.524 42.5833 108.357 43.3712 108.024 44.0455C107.695 44.7197 107.232 45.2443 106.638 45.6193C106.047 45.9943 105.357 46.1818 104.57 46.1818ZM104.57 44.9773C105.168 44.9773 105.661 44.8239 106.047 44.517C106.433 44.2102 106.719 43.8068 106.905 43.3068C107.09 42.8068 107.183 42.2652 107.183 41.6818C107.183 41.0985 107.09 40.5549 106.905 40.0511C106.719 39.5473 106.433 39.1402 106.047 38.8295C105.661 38.5189 105.168 38.3636 104.57 38.3636C103.971 38.3636 103.479 38.5189 103.092 38.8295C102.706 39.1402 102.42 39.5473 102.234 40.0511C102.049 40.5549 101.956 41.0985 101.956 41.6818C101.956 42.2652 102.049 42.8068 102.234 43.3068C102.42 43.8068 102.706 44.2102 103.092 44.517C103.479 44.8239 103.971 44.9773 104.57 44.9773ZM116.753 39.2273L115.548 39.5682C115.473 39.3674 115.361 39.1723 115.213 38.983C115.069 38.7898 114.872 38.6307 114.622 38.5057C114.372 38.3807 114.052 38.3182 113.662 38.3182C113.128 38.3182 112.683 38.4413 112.327 38.6875C111.974 38.9299 111.798 39.2386 111.798 39.6136C111.798 39.947 111.92 40.2102 112.162 40.4034C112.404 40.5966 112.783 40.7576 113.298 40.8864L114.594 41.2045C115.374 41.3939 115.955 41.6837 116.338 42.0739C116.721 42.4602 116.912 42.9583 116.912 43.5682C116.912 44.0682 116.768 44.5152 116.48 44.9091C116.196 45.303 115.798 45.6136 115.287 45.8409C114.776 46.0682 114.181 46.1818 113.503 46.1818C112.613 46.1818 111.876 45.9886 111.293 45.6023C110.709 45.2159 110.34 44.6515 110.185 43.9091L111.457 43.5909C111.579 44.0606 111.808 44.4129 112.145 44.6477C112.486 44.8826 112.931 45 113.48 45C114.105 45 114.601 44.8674 114.969 44.6023C115.34 44.3333 115.526 44.0114 115.526 43.6364C115.526 43.3333 115.42 43.0795 115.207 42.875C114.995 42.6667 114.67 42.5114 114.23 42.4091L112.776 42.0682C111.976 41.8788 111.389 41.5852 111.014 41.1875C110.643 40.786 110.457 40.2841 110.457 39.6818C110.457 39.1894 110.596 38.7538 110.872 38.375C111.152 37.9962 111.533 37.6989 112.014 37.483C112.499 37.267 113.048 37.1591 113.662 37.1591C114.526 37.1591 115.204 37.3485 115.696 37.7273C116.192 38.1061 116.545 38.6061 116.753 39.2273Z" fill="#AEAEAE"/>
</svg>
