<svg width="33" height="32" viewBox="0 0 33 32" fill="none" xmlns="http://www.w3.org/2000/svg">
<g clip-path="url(#clip0_885_9201)">
<path d="M27.7627 27.2693H23.024V19.844C23.024 18.0733 22.988 15.7947 20.5547 15.7947C18.084 15.7947 17.7067 17.7213 17.7067 19.7133V27.2693H12.968V12H17.52V14.0813H17.5813C18.2173 12.8813 19.764 11.6147 22.0747 11.6147C26.876 11.6147 27.764 14.7747 27.764 18.888L27.7627 27.2693ZM7.616 9.91067C7.2545 9.91084 6.89652 9.83973 6.56254 9.70139C6.22856 9.56305 5.92514 9.3602 5.66965 9.10446C5.41416 8.84872 5.21161 8.54511 5.07359 8.21099C4.93558 7.87688 4.86481 7.51883 4.86533 7.15733C4.8656 6.61304 5.02726 6.08105 5.32987 5.62863C5.63248 5.17621 6.06246 4.82369 6.56542 4.61564C7.06838 4.40759 7.62175 4.35336 8.15553 4.45981C8.68931 4.56625 9.17955 4.82859 9.56423 5.21365C9.94892 5.59871 10.2108 6.0892 10.3167 6.62309C10.4226 7.15697 10.3679 7.71028 10.1593 8.21304C9.9508 8.71581 9.59786 9.14544 9.14515 9.44761C8.69244 9.74979 8.16029 9.91093 7.616 9.91067ZM9.992 27.2693H5.24V12H9.992V27.2693ZM30.1333 0H2.86133C1.556 0 0.5 1.032 0.5 2.30533V29.6947C0.5 30.9693 1.556 32 2.86133 32H30.1293C31.4333 32 32.5 30.9693 32.5 29.6947V2.30533C32.5 1.032 31.4333 0 30.1293 0H30.1333Z" fill="#F7971D"/>
</g>
<defs>
<clipPath id="clip0_885_9201">
<rect width="32" height="32" fill="white" transform="translate(0.5)"/>
</clipPath>
</defs>
</svg>
