<svg width="80" height="81" viewBox="0 0 80 81" fill="none" xmlns="http://www.w3.org/2000/svg">
<rect y="0.923828" width="80" height="80" rx="8" fill="url(#paint0_linear_1346_6616)"/>
<g opacity="0.8" clip-path="url(#clip0_1346_6616)">
<path d="M18.424 16.9238L16 19.3478L20.2702 26.7324L23.0394 26.3263L39.9428 43.2315L38.5009 44.6161C37.7625 45.3546 37.7625 46.4734 38.5009 47.2118L39.2505 47.9632C39.9889 48.7017 41.1188 48.7017 41.6726 47.9632L43.8658 50.1546C43.6812 51.2623 43.8658 52.5786 44.7889 53.5017L54.7692 63.4248C56.8 65.4555 60.1231 65.4555 62.1538 63.4248C64.5538 61.2094 64.5317 57.8974 62.5009 55.8666L52.5778 45.8844C51.6548 44.9614 50.3385 44.5921 49.2308 44.9614L46.8068 42.77C47.3606 42.0315 47.3606 40.9017 46.8068 40.346L46.1145 39.6555C45.9466 39.4805 45.7451 39.3412 45.5221 39.2461C45.2991 39.151 45.0591 39.1019 44.8166 39.1019C44.5741 39.1019 44.3342 39.151 44.1111 39.2461C43.8881 39.3412 43.6866 39.4805 43.5188 39.6555L42.3077 40.8666L25.4043 23.9632L25.8068 21.194L18.424 16.9238ZM54.424 16.9811C50.7815 16.6783 45.952 19.0931 43.6923 21.1921C40.912 23.9724 41.3662 27.6075 43.576 31.1171L39.6548 35.0401L42.424 38.1546C43.9009 36.8623 46.0794 36.8623 47.5563 38.1546L48.3077 38.9041L48.4812 39.0777L50.0966 37.4623C53.4345 39.4248 56.9089 39.7072 59.5582 37.058C62.1428 34.658 64.9452 28.7392 63.6529 25.2315L58.4615 30.5964C57.7231 31.3349 56.6043 31.3349 55.8658 30.5964L50.4991 25.2315C50.3241 25.0637 50.1848 24.8622 50.0897 24.6392C49.9945 24.4161 49.9455 24.1762 49.9455 23.9337C49.9455 23.6912 49.9945 23.4512 50.0897 23.2282C50.1848 23.0051 50.3241 22.8037 50.4991 22.6358L55.8677 17.2709C55.4062 17.1084 54.9446 17.0254 54.424 16.9811ZM34.1163 40.0008L27.4222 46.6931C26.7028 46.5332 25.9676 46.4558 25.2308 46.4623C20.0615 46.4623 16 50.5238 16 55.6931C16 60.8623 20.0615 64.9238 25.2308 64.9238C30.4 64.9238 34.4615 60.8623 34.4615 55.6931C34.4615 54.746 34.312 53.8358 34.0572 52.9811L37.9803 49.058L37.4043 48.3084C35.9274 46.8315 35.9385 44.594 37.2308 43.1152L34.1163 40.0008ZM48.424 48.4248C48.6548 48.4248 48.8726 48.4691 49.0572 48.6555L59.9625 59.5589C60.3317 59.9281 60.3317 60.5152 59.9625 60.8844C59.5932 61.2537 59.0025 61.2537 58.6332 60.8844L47.7317 49.9811C47.3625 49.6118 47.3625 49.0248 47.7317 48.6555C47.9163 48.4709 48.1932 48.4248 48.424 48.4248ZM26.5009 50.9023L30.0197 54.4229L28.7495 59.21L23.9625 60.4801L20.4418 56.9595L21.712 52.1724L26.5009 50.9023Z" fill="#383838"/>
</g>
<defs>
<linearGradient id="paint0_linear_1346_6616" x1="0" y1="80.9238" x2="80" y2="0.923828" gradientUnits="userSpaceOnUse">
<stop stop-color="#DE3C63"/>
<stop offset="0.4" stop-color="#F7971D"/>
<stop offset="1" stop-color="#FFD700"/>
</linearGradient>
<clipPath id="clip0_1346_6616">
<rect width="48" height="48" fill="white" transform="translate(16 16.9238)"/>
</clipPath>
</defs>
</svg>
