<svg width="14" height="15" viewBox="0 0 14 15" fill="none" xmlns="http://www.w3.org/2000/svg">
<path fill-rule="evenodd" clip-rule="evenodd" d="M1.5 5V2H4.5V5H1.5ZM0 1.5C0 1.23478 0.105357 0.98043 0.292893 0.792893C0.48043 0.605357 0.734784 0.5 1 0.5H5C5.26522 0.5 5.51957 0.605357 5.70711 0.792893C5.89464 0.98043 6 1.23478 6 1.5V5.5C6 5.76522 5.89464 6.01957 5.70711 6.20711C5.51957 6.39464 5.26522 6.5 5 6.5H1C0.734784 6.5 0.48043 6.39464 0.292893 6.20711C0.105357 6.01957 0 5.76522 0 5.5V1.5ZM8 1.75C8 1.55109 8.07902 1.36032 8.21967 1.21967C8.36032 1.07902 8.55109 1 8.75 1H13.25C13.4489 1 13.6397 1.07902 13.7803 1.21967C13.921 1.36032 14 1.55109 14 1.75C14 1.94891 13.921 2.13968 13.7803 2.28033C13.6397 2.42098 13.4489 2.5 13.25 2.5H8.75C8.55109 2.5 8.36032 2.42098 8.21967 2.28033C8.07902 2.13968 8 1.94891 8 1.75ZM8.75 4.5C8.55109 4.5 8.36032 4.57902 8.21967 4.71967C8.07902 4.86032 8 5.05109 8 5.25C8 5.44891 8.07902 5.63968 8.21967 5.78033C8.36032 5.92098 8.55109 6 8.75 6H13.25C13.4489 6 13.6397 5.92098 13.7803 5.78033C13.921 5.63968 14 5.44891 14 5.25C14 5.05109 13.921 4.86032 13.7803 4.71967C13.6397 4.57902 13.4489 4.5 13.25 4.5H8.75ZM1.5 10V13H4.5V10H1.5ZM1 8.5C0.734784 8.5 0.48043 8.60536 0.292893 8.79289C0.105357 8.98043 0 9.23478 0 9.5V13.5C0 13.7652 0.105357 14.0196 0.292893 14.2071C0.48043 14.3946 0.734784 14.5 1 14.5H5C5.26522 14.5 5.51957 14.3946 5.70711 14.2071C5.89464 14.0196 6 13.7652 6 13.5V9.5C6 9.23478 5.89464 8.98043 5.70711 8.79289C5.51957 8.60536 5.26522 8.5 5 8.5H1ZM8.75 9C8.55109 9 8.36032 9.07902 8.21967 9.21967C8.07902 9.36032 8 9.55109 8 9.75C8 9.94891 8.07902 10.1397 8.21967 10.2803C8.36032 10.421 8.55109 10.5 8.75 10.5H13.25C13.4489 10.5 13.6397 10.421 13.7803 10.2803C13.921 10.1397 14 9.94891 14 9.75C14 9.55109 13.921 9.36032 13.7803 9.21967C13.6397 9.07902 13.4489 9 13.25 9H8.75ZM8.75 12.5C8.55109 12.5 8.36032 12.579 8.21967 12.7197C8.07902 12.8603 8 13.0511 8 13.25C8 13.4489 8.07902 13.6397 8.21967 13.7803C8.36032 13.921 8.55109 14 8.75 14H13.25C13.4489 14 13.6397 13.921 13.7803 13.7803C13.921 13.6397 14 13.4489 14 13.25C14 13.0511 13.921 12.8603 13.7803 12.7197C13.6397 12.579 13.4489 12.5 13.25 12.5H8.75Z" fill="#C9C8D3"/>
</svg>
