<svg width="53" height="80" viewBox="0 0 53 80" fill="none" xmlns="http://www.w3.org/2000/svg">
<path d="M46.4994 0H6.49944C4.98392 0 3.53047 0.602039 2.45883 1.67368C1.3872 2.74531 0.785156 4.19876 0.785156 5.71429V74.2857C0.785156 75.8012 1.3872 77.2547 2.45883 78.3263C3.53047 79.398 4.98392 80 6.49944 80H46.4994C48.015 80 49.4684 79.398 50.5401 78.3263C51.6117 77.2547 52.2137 75.8012 52.2137 74.2857V5.71429C52.2137 4.19876 51.6117 2.74531 50.5401 1.67368C49.4684 0.602039 48.015 0 46.4994 0ZM6.49944 5.71429H46.4994V57.1429H6.49944V5.71429ZM6.49944 74.2857V62.8571H46.4994V74.2857H6.49944Z" fill="#383838"/>
</svg>
