 <svg width="158" height="158" viewBox="0 0 158 158" fill="none" xmlns="http://www.w3.org/2000/svg">
<path d="M113.562 34.5625H133.312V54.3125H113.562V34.5625ZM113.562 64.1875H133.312V83.9375H113.562V64.1875ZM83.9375 34.5625H103.688V54.3125H83.9375V34.5625ZM83.9375 64.1875H103.688V83.9375H83.9375V64.1875Z" fill="#383838"/>
<path d="M71.5938 128.375C75.6841 128.375 79 125.059 79 120.969C79 116.878 75.6841 113.562 71.5938 113.562C67.5034 113.562 64.1875 116.878 64.1875 120.969C64.1875 125.059 67.5034 128.375 71.5938 128.375Z" fill="#383838"/>
<path d="M103.688 148.125H39.5C36.8818 148.122 34.3716 147.081 32.5202 145.23C30.6689 143.378 29.6276 140.868 29.625 138.25V19.75C29.6276 17.1318 30.6689 14.6216 32.5202 12.7702C34.3716 10.9189 36.8818 9.87761 39.5 9.875H103.688V19.75H39.5V138.25H103.688V98.75H113.562V138.25C113.56 140.868 112.519 143.378 110.667 145.23C108.816 147.081 106.306 148.122 103.688 148.125Z" fill="#383838"/>
</svg>
