<svg width="250" height="220" viewBox="0 0 250 220" fill="none" xmlns="http://www.w3.org/2000/svg">
<path d="M146.712 219.485C203.262 219.485 249.105 213.367 249.105 205.819C249.105 198.272 203.262 192.153 146.712 192.153C90.1613 192.153 44.3184 198.272 44.3184 205.819C44.3184 213.367 90.1613 219.485 146.712 219.485Z" fill="#EBEBEB"/>
<path d="M136.957 199.747L72.5953 199.78C70.1067 199.781 67.7195 198.794 65.9586 197.035C64.1977 195.276 63.2073 192.89 63.2051 190.402L63.1309 45.4188C63.1298 44.0141 63.4055 42.623 63.9421 41.3248C64.4788 40.0267 65.266 38.847 66.2587 37.8532C67.2514 36.8593 68.4301 36.0708 69.7277 35.5326C71.0252 34.9944 72.416 34.7171 73.8207 34.7166L136.994 34.6836C139.511 34.6836 141.924 35.6833 143.704 37.4629C145.484 39.2425 146.483 41.6561 146.483 44.1728L146.562 190.15C146.56 192.696 145.547 195.137 143.746 196.936C141.945 198.736 139.503 199.747 136.957 199.747Z" fill="#455A64"/>
<path d="M64.5137 187.052L64.4395 47.4408C64.4449 44.4185 65.6491 41.5218 67.7877 39.3862C69.9264 37.2507 72.8248 36.0507 75.8472 36.0496L133.748 36.0166C135.247 36.0155 136.731 36.3098 138.117 36.8825C139.502 37.4553 140.761 38.2953 141.821 39.3547C142.882 40.414 143.723 41.6719 144.297 43.0566C144.872 44.4412 145.167 45.9253 145.168 47.4243L145.242 187.036C145.243 188.535 144.949 190.019 144.376 191.404C143.804 192.79 142.964 194.048 141.904 195.109C140.845 196.169 139.587 197.011 138.202 197.585C136.818 198.159 135.334 198.455 133.835 198.456L75.9338 198.489C74.4325 198.489 72.9459 198.194 71.5591 197.619C70.1722 197.044 68.9123 196.202 67.8515 195.139C66.7907 194.077 65.9499 192.816 65.3772 191.428C64.8044 190.04 64.511 188.553 64.5137 187.052Z" fill="#263238"/>
<path d="M98.815 41.219C98.5688 41.219 98.3327 41.1212 98.1586 40.9471C97.9845 40.773 97.8867 40.5369 97.8867 40.2907C97.8867 40.0445 97.9845 39.8084 98.1586 39.6343C98.3327 39.4602 98.5688 39.3624 98.815 39.3624H110.734C110.861 39.3539 110.988 39.3716 111.108 39.4143C111.228 39.457 111.337 39.5239 111.43 39.6107C111.523 39.6976 111.597 39.8025 111.648 39.9192C111.698 40.0358 111.724 40.1615 111.724 40.2886C111.724 40.4158 111.698 40.5415 111.648 40.6581C111.597 40.7747 111.523 40.8797 111.43 40.9666C111.337 41.0534 111.228 41.1203 111.108 41.163C110.988 41.2057 110.861 41.2233 110.734 41.2149L98.815 41.219Z" fill="#455A64"/>
<path d="M92.4246 41.2228C92.2408 41.2236 92.061 41.1699 91.9078 41.0684C91.7546 40.9669 91.6349 40.8222 91.564 40.6526C91.4931 40.4831 91.4742 40.2963 91.5095 40.1159C91.5449 39.9356 91.633 39.7698 91.7626 39.6396C91.8923 39.5093 92.0577 39.4205 92.2379 39.3844C92.418 39.3482 92.6049 39.3663 92.7748 39.4365C92.9446 39.5066 93.0899 39.6256 93.192 39.7783C93.2942 39.9311 93.3488 40.1107 93.3488 40.2945C93.3488 40.54 93.2515 40.7755 93.0783 40.9494C92.9051 41.1234 92.6701 41.2217 92.4246 41.2228Z" fill="#455A64"/>
<path d="M95.8367 41.2189C95.6529 41.2197 95.4731 41.166 95.3199 41.0644C95.1667 40.9629 95.047 40.8183 94.9762 40.6487C94.9053 40.4792 94.8863 40.2924 94.9216 40.112C94.957 39.9317 95.0451 39.7659 95.1747 39.6357C95.3044 39.5054 95.4698 39.4166 95.65 39.3804C95.8301 39.3443 96.017 39.3624 96.1869 39.4326C96.3567 39.5027 96.502 39.6217 96.6042 39.7744C96.7063 39.9272 96.7609 40.1068 96.7609 40.2906C96.7609 40.5361 96.6637 40.7716 96.4905 40.9455C96.3173 41.1195 96.0822 41.2178 95.8367 41.2189Z" fill="#455A64"/>
<path d="M117.178 41.2062C116.995 41.2062 116.815 41.1516 116.662 41.0495C116.509 40.9473 116.39 40.8021 116.32 40.6322C116.25 40.4623 116.232 40.2755 116.268 40.0953C116.304 39.9151 116.393 39.7497 116.523 39.62C116.654 39.4904 116.819 39.4023 117 39.3669C117.18 39.3316 117.367 39.3506 117.536 39.4215C117.706 39.4924 117.851 39.612 117.952 39.7652C118.054 39.9184 118.107 40.0983 118.107 40.282C118.107 40.4037 118.083 40.5243 118.036 40.6366C117.989 40.749 117.921 40.8511 117.834 40.937C117.748 41.0228 117.646 41.0908 117.533 41.137C117.421 41.1832 117.3 41.2067 117.178 41.2062Z" fill="#455A64"/>
<path d="M113.766 41.2101C113.583 41.2101 113.403 41.1557 113.25 41.0537C113.098 40.9517 112.979 40.8067 112.909 40.6371C112.838 40.4674 112.82 40.2808 112.856 40.1007C112.892 39.9206 112.98 39.7552 113.11 39.6254C113.24 39.4956 113.405 39.4072 113.585 39.3714C113.765 39.3355 113.952 39.3539 114.121 39.4242C114.291 39.4944 114.436 39.6134 114.538 39.7661C114.64 39.9187 114.694 40.0982 114.694 40.2818C114.695 40.4039 114.671 40.5248 114.625 40.6377C114.578 40.7506 114.51 40.8531 114.424 40.9394C114.337 41.0257 114.235 41.0941 114.122 41.1406C114.009 41.187 113.888 41.2107 113.766 41.2101Z" fill="#455A64"/>
<path d="M134.366 37.9102H123.144C122.615 37.9099 122.1 38.081 121.676 38.3978C121.252 38.7146 120.942 39.1601 120.793 39.6677L119.877 42.8116C119.711 43.3802 119.365 43.8796 118.891 44.2345C118.417 44.5895 117.841 44.7808 117.249 44.7795H92.3868C91.7949 44.7799 91.2188 44.5889 90.7444 44.235C90.27 43.881 89.9228 43.3832 89.7546 42.8157L88.8345 39.6719C88.6853 39.1643 88.3753 38.719 87.9513 38.4028C87.5272 38.0866 87.0119 37.9166 86.4829 37.9184H75.2526C72.8887 37.914 70.6198 38.8486 68.9448 40.5167C67.2698 42.1847 66.3258 44.4497 66.3203 46.8135L66.3946 187.345C66.3984 188.515 66.6326 189.673 67.084 190.753C67.5353 191.833 68.1949 192.813 69.0251 193.638C69.8553 194.463 70.8399 195.116 71.9225 195.56C73.0052 196.005 74.1648 196.231 75.3351 196.228L134.436 196.199C136.8 196.203 139.069 195.269 140.744 193.601C142.419 191.932 143.363 189.668 143.369 187.304L143.294 46.7764C143.282 44.4179 142.336 42.1604 140.662 40.4984C138.989 38.8365 136.725 37.9058 134.366 37.9102Z" fill="#FAFAFA"/>
<path d="M146.492 70.5527C146.637 70.5538 146.776 70.612 146.879 70.7146C146.982 70.8173 147.04 70.9563 147.041 71.1015V88.9783C147.041 89.1232 146.984 89.2621 146.882 89.3649C146.78 89.4677 146.641 89.526 146.496 89.5271L146.492 70.5527Z" fill="#455A64"/>
<path d="M63.1434 82.291C62.9934 82.291 62.8497 82.3506 62.7437 82.4566C62.6377 82.5626 62.5781 82.7063 62.5781 82.8562V93.7359C62.5792 93.8861 62.6397 94.0299 62.7463 94.1358C62.853 94.2417 62.9972 94.3011 63.1475 94.3011L63.1434 82.291Z" fill="#455A64"/>
<path d="M63.1356 66.5801C63.061 66.5801 62.9871 66.5948 62.9183 66.6235C62.8494 66.6522 62.787 66.6942 62.7344 66.7471C62.6819 66.8 62.6403 66.8628 62.6122 66.9319C62.584 67.0009 62.5698 67.0749 62.5703 67.1494V78.0249C62.5714 78.1756 62.6317 78.3198 62.7383 78.4263C62.8448 78.5329 62.989 78.5932 63.1397 78.5943L63.1356 66.5801Z" fill="#455A64"/>
<path d="M63.1316 54.8174C63.0014 54.8174 62.8765 54.8691 62.7844 54.9612C62.6924 55.0533 62.6406 55.1781 62.6406 55.3083V59.9168C62.6406 59.9811 62.6533 60.0447 62.6781 60.1041C62.7028 60.1634 62.739 60.2173 62.7847 60.2625C62.8303 60.3078 62.8845 60.3436 62.944 60.3678C63.0036 60.392 63.0673 60.4042 63.1316 60.4037V54.8174Z" fill="#455A64"/>
<path d="M125.175 42.4854H124.602V43.2899H125.175V42.4854Z" fill="white"/>
<path d="M126.107 42.127H125.533V43.2863H126.107V42.127Z" fill="white"/>
<path d="M127.04 41.8584H126.467V43.2859H127.04V41.8584Z" fill="white"/>
<path d="M127.972 41.3389H127.398V43.2862H127.972V41.3389Z" fill="white"/>
<path d="M136.43 43.3225H133.542C133.515 43.3231 133.489 43.3182 133.464 43.3083C133.439 43.2984 133.416 43.2836 133.397 43.2648C133.377 43.2459 133.362 43.2235 133.352 43.1987C133.341 43.1739 133.336 43.1472 133.336 43.1203V41.6887C133.336 41.6347 133.357 41.5829 133.395 41.5443C133.433 41.5057 133.484 41.4835 133.538 41.4824H136.426C136.44 41.4834 136.453 41.4893 136.463 41.4992C136.473 41.5091 136.479 41.5222 136.48 41.5361V42.0064H136.789C136.796 42.0064 136.803 42.0078 136.809 42.0105C136.815 42.0133 136.821 42.0173 136.826 42.0223C136.83 42.0274 136.834 42.0333 136.836 42.0398C136.838 42.0463 136.839 42.0532 136.839 42.06V42.7449C136.839 42.7591 136.833 42.7728 136.823 42.7828C136.813 42.7929 136.799 42.7985 136.785 42.7985H136.476V43.2689C136.476 43.2754 136.475 43.2819 136.473 43.2882C136.472 43.2944 136.468 43.3001 136.464 43.3051C136.46 43.3101 136.455 43.3142 136.449 43.3172C136.443 43.3202 136.437 43.322 136.43 43.3225ZM136.377 41.5856H133.542C133.516 41.5856 133.491 41.596 133.472 41.6146C133.454 41.6331 133.443 41.6583 133.443 41.6846V43.1162C133.443 43.1425 133.454 43.1677 133.472 43.1862C133.491 43.2048 133.516 43.2152 133.542 43.2152H136.364V42.7449C136.364 42.7318 136.369 42.7192 136.379 42.7099C136.388 42.7006 136.401 42.6954 136.414 42.6954H136.723V42.1095H136.43C136.417 42.1095 136.405 42.1043 136.395 42.095C136.386 42.0858 136.381 42.0732 136.381 42.06L136.377 41.5856Z" fill="white"/>
<path d="M133.682 42.9848V41.8254L136.136 41.8213V42.3453V42.4608V42.9848H133.682Z" fill="white"/>
<path d="M130.712 43.2153C130.712 43.1737 130.7 43.133 130.676 43.0984C130.653 43.0638 130.62 43.0368 130.582 43.0209C130.544 43.005 130.501 43.0008 130.46 43.0089C130.42 43.017 130.382 43.0371 130.353 43.0665C130.323 43.0959 130.303 43.1334 130.295 43.1742C130.287 43.2151 130.291 43.2574 130.307 43.2958C130.323 43.3343 130.35 43.3671 130.385 43.3903C130.419 43.4134 130.46 43.4257 130.501 43.4257C130.557 43.4257 130.611 43.4035 130.65 43.3641C130.69 43.3246 130.712 43.2711 130.712 43.2153Z" fill="white"/>
<path d="M129.783 42.7123L130.051 42.9764C130.171 42.8579 130.333 42.7915 130.501 42.7915C130.669 42.7915 130.831 42.8579 130.951 42.9764L131.219 42.7082C131.028 42.5186 130.77 42.4119 130.501 42.4111C130.367 42.4114 130.235 42.4381 130.112 42.4898C129.989 42.5415 129.877 42.6172 129.783 42.7123Z" fill="white"/>
<path d="M130.502 41.8252C130.075 41.8256 129.666 41.9947 129.363 42.2955L129.631 42.5637C129.863 42.3344 130.176 42.2058 130.502 42.2058C130.828 42.2058 131.141 42.3344 131.373 42.5637L131.641 42.2955C131.491 42.1458 131.314 42.0272 131.118 41.9464C130.923 41.8657 130.713 41.8245 130.502 41.8252Z" fill="white"/>
<path d="M128.926 41.8546L129.194 42.1228C129.365 41.9495 129.568 41.8121 129.793 41.7186C130.018 41.6251 130.259 41.5773 130.502 41.5782C130.992 41.5786 131.462 41.7729 131.81 42.1186L132.078 41.8505C131.871 41.6434 131.625 41.4791 131.355 41.367C131.084 41.255 130.795 41.1973 130.502 41.1973C130.209 41.1973 129.919 41.255 129.649 41.367C129.378 41.4791 129.133 41.6434 128.926 41.8505V41.8546Z" fill="white"/>
<path d="M82.1633 77.183C82.1543 78.2348 81.8336 79.2602 81.2418 80.1298C80.65 80.9993 79.8136 81.6737 78.8385 82.0679C77.8633 82.4621 76.7932 82.5583 75.7634 82.3443C74.7336 82.1303 73.7904 81.6157 73.053 80.8657C72.3157 80.1156 71.8173 79.1637 71.6209 78.1304C71.4245 77.0971 71.5389 76.0288 71.9497 75.0605C72.3604 74.0922 73.0491 73.2675 73.9286 72.6906C74.8081 72.1137 75.8389 71.8106 76.8906 71.8195C77.589 71.8255 78.2794 71.9689 78.9223 72.2417C79.5653 72.5144 80.1482 72.9111 80.6378 73.4092C81.1275 73.9072 81.5142 74.4969 81.7759 75.1444C82.0377 75.7919 82.1693 76.4846 82.1633 77.183Z" fill="#383838"/>
<path d="M108.747 73.0859C108.747 73.1436 103.796 73.1519 97.7308 73.0859C91.666 73.0198 86.7109 72.9497 86.7109 72.8878C86.7109 72.8259 91.6618 72.8218 97.7308 72.8878C103.8 72.9538 108.751 73.0281 108.747 73.0859Z" fill="#263238"/>
<path d="M126.731 78.1316C126.731 78.1894 117.737 78.1646 106.643 78.0739C95.5488 77.9831 86.5547 77.8593 86.5547 77.8016C86.5547 77.7438 95.5488 77.7686 106.647 77.8593C117.745 77.9501 126.731 78.0698 126.731 78.1316Z" fill="#E0E0E0"/>
<path d="M126.697 82.0968C126.697 82.1546 117.703 82.1298 106.608 82.0391C95.5143 81.9483 86.5078 81.8451 86.5078 81.7668C86.5078 81.6884 95.4978 81.7338 106.596 81.8245C117.694 81.9153 126.697 82.0349 126.697 82.0968Z" fill="#E0E0E0"/>
<path d="M138.554 72.3232C138.554 72.3851 136.606 72.414 134.209 72.3975C131.812 72.381 129.869 72.3108 129.869 72.2531C129.869 72.1953 131.812 72.1623 134.214 72.1829C136.615 72.2036 138.554 72.2654 138.554 72.3232Z" fill="#263238"/>
<path d="M135.191 77.8553L135.549 78.598C135.579 78.6616 135.624 78.717 135.68 78.7594C135.736 78.8018 135.802 78.83 135.871 78.8414L136.696 78.9652C136.781 78.9687 136.862 78.9981 136.93 79.0495C136.997 79.1008 137.047 79.1716 137.072 79.2522C137.098 79.3328 137.098 79.4193 137.073 79.5001C137.048 79.5808 136.998 79.6519 136.932 79.7037L136.333 80.2771C136.283 80.3263 136.245 80.3867 136.223 80.4535C136.201 80.5202 136.195 80.5913 136.205 80.6608L136.342 81.486C136.354 81.566 136.344 81.6478 136.312 81.7224C136.281 81.797 136.229 81.8614 136.164 81.9084C136.098 81.9554 136.02 81.9833 135.939 81.9888C135.859 81.9944 135.778 81.9774 135.706 81.9398L134.98 81.5479C134.917 81.5139 134.846 81.4962 134.774 81.4962C134.702 81.4962 134.631 81.5139 134.568 81.5479L133.833 81.9274C133.762 81.9742 133.679 81.9981 133.594 81.9958C133.51 81.9935 133.428 81.9652 133.36 81.9147C133.292 81.8642 133.241 81.794 133.214 81.7136C133.187 81.6332 133.186 81.5466 133.21 81.4654L133.355 80.6402C133.369 80.5714 133.366 80.5 133.345 80.4328C133.324 80.3656 133.286 80.305 133.235 80.2565L132.649 79.6748C132.591 79.6179 132.55 79.5458 132.531 79.4668C132.513 79.3878 132.516 79.3051 132.542 79.2281C132.568 79.1511 132.615 79.0829 132.677 79.0313C132.74 78.9797 132.816 78.9468 132.897 78.9363L133.722 78.8249C133.792 78.8167 133.858 78.7908 133.915 78.7497C133.972 78.7085 134.018 78.6534 134.048 78.5897L134.419 77.8553C134.456 77.7854 134.512 77.727 134.58 77.6863C134.648 77.6455 134.726 77.624 134.805 77.624C134.884 77.624 134.962 77.6455 135.03 77.6863C135.098 77.727 135.153 77.7854 135.191 77.8553Z" fill="#383838"/>
<path d="M114.63 72.8466C114.628 73.044 114.568 73.2366 114.457 73.3998C114.346 73.5631 114.189 73.6898 114.006 73.7638C113.823 73.8379 113.622 73.856 113.428 73.8159C113.235 73.7758 113.058 73.6792 112.919 73.5384C112.781 73.3976 112.687 73.219 112.65 73.025C112.613 72.831 112.635 72.6304 112.712 72.4486C112.789 72.2668 112.918 72.1119 113.083 72.0036C113.248 71.8952 113.442 71.8383 113.639 71.8399C113.771 71.841 113.9 71.8679 114.021 71.919C114.142 71.9702 114.251 72.0447 114.343 72.1381C114.435 72.2316 114.508 72.3423 114.557 72.4638C114.606 72.5854 114.631 72.7154 114.63 72.8466Z" fill="#383838"/>
<path d="M142.989 63.2131C142.989 63.2709 125.805 63.1801 104.619 63.0069C83.4338 62.8336 66.25 62.6438 66.25 62.5943C66.25 62.5448 83.4296 62.6273 104.619 62.8006C125.809 62.9739 142.993 63.1554 142.989 63.2131Z" fill="#E0E0E0"/>
<path d="M142.766 90.6985C142.766 90.7604 125.578 90.6655 104.397 90.4922C83.2152 90.3189 66.0273 90.1291 66.0273 90.0796C66.0273 90.0301 83.2111 90.1126 104.397 90.2859C125.583 90.4592 142.766 90.6407 142.766 90.6985Z" fill="#E0E0E0"/>
<path d="M80.1564 135.779C82.2332 133.702 82.2332 130.335 80.1564 128.258C78.0795 126.181 74.7123 126.181 72.6355 128.258C70.5586 130.335 70.5586 133.702 72.6355 135.779C74.7123 137.856 78.0795 137.856 80.1564 135.779Z" fill="#383838"/>
<path d="M108.295 127.967C108.295 128.024 103.365 128.033 97.2796 127.967C91.1942 127.901 86.2598 127.831 86.2598 127.769C86.2598 127.707 91.2107 127.703 97.2796 127.769C103.349 127.835 108.3 127.909 108.295 127.967Z" fill="#263238"/>
<path d="M126.28 133.005C126.28 133.062 117.286 133.038 106.192 132.947C95.0977 132.856 86.1035 132.732 86.1035 132.675C86.1035 132.617 95.0977 132.642 106.196 132.732C117.294 132.823 126.28 132.951 126.28 133.005Z" fill="#E0E0E0"/>
<path d="M126.247 136.977C126.247 137.035 117.253 137.01 106.158 136.92C95.0642 136.829 86.0701 136.705 86.0742 136.647C86.0783 136.59 95.0642 136.614 106.163 136.705C117.261 136.796 126.247 136.915 126.247 136.977Z" fill="#E0E0E0"/>
<path d="M138.105 127.204C138.105 127.266 136.161 127.295 133.76 127.278C131.359 127.262 129.42 127.192 129.42 127.134C129.42 127.076 131.363 127.043 133.764 127.064C136.166 127.084 138.105 127.146 138.105 127.204Z" fill="#263238"/>
<path d="M134.737 132.736L135.096 133.479C135.126 133.542 135.171 133.598 135.227 133.64C135.283 133.683 135.349 133.711 135.418 133.722L136.243 133.846C136.328 133.849 136.409 133.879 136.476 133.93C136.544 133.982 136.593 134.052 136.619 134.133C136.645 134.214 136.645 134.3 136.62 134.381C136.595 134.462 136.545 134.533 136.478 134.584L135.88 135.158C135.83 135.207 135.792 135.267 135.77 135.334C135.748 135.401 135.742 135.472 135.752 135.542L135.888 136.367C135.901 136.447 135.891 136.529 135.859 136.603C135.828 136.678 135.776 136.742 135.71 136.789C135.645 136.836 135.567 136.864 135.486 136.87C135.405 136.875 135.325 136.858 135.253 136.821L134.527 136.408C134.464 136.374 134.393 136.356 134.321 136.356C134.249 136.356 134.178 136.374 134.114 136.408L133.38 136.788C133.309 136.834 133.226 136.858 133.141 136.856C133.057 136.854 132.975 136.825 132.907 136.775C132.839 136.724 132.788 136.654 132.761 136.574C132.734 136.493 132.733 136.407 132.757 136.325L132.906 135.5C132.919 135.431 132.915 135.36 132.894 135.292C132.872 135.225 132.834 135.165 132.782 135.117L132.196 134.535C132.138 134.478 132.097 134.406 132.078 134.327C132.059 134.248 132.063 134.165 132.089 134.088C132.115 134.011 132.162 133.943 132.224 133.891C132.287 133.84 132.363 133.807 132.443 133.796L133.269 133.685C133.339 133.677 133.405 133.651 133.462 133.61C133.519 133.569 133.565 133.514 133.595 133.45L133.966 132.715C134.005 132.647 134.062 132.59 134.131 132.551C134.2 132.512 134.279 132.492 134.358 132.494C134.437 132.496 134.514 132.52 134.581 132.563C134.648 132.605 134.702 132.665 134.737 132.736Z" fill="#383838"/>
<path d="M114.163 127.927C114.27 127.386 113.919 126.86 113.378 126.753C112.837 126.645 112.312 126.996 112.204 127.537C112.097 128.078 112.448 128.604 112.989 128.711C113.53 128.819 114.055 128.467 114.163 127.927Z" fill="#383838"/>
<path d="M142.54 118.094C142.54 118.152 125.356 118.061 104.17 117.888C82.9845 117.714 65.8008 117.525 65.8008 117.475C65.8008 117.426 82.9804 117.508 104.17 117.681C125.36 117.855 142.544 118.036 142.54 118.094Z" fill="#E0E0E0"/>
<path d="M142.316 145.58C142.316 145.642 125.4 145.53 104.528 145.332C83.6558 145.134 66.7402 144.92 66.7402 144.87C66.7402 144.821 83.6558 144.92 104.532 145.118C125.408 145.316 142.316 145.522 142.316 145.58Z" fill="#E0E0E0"/>
<path d="M81.2883 184.254C81.2793 185.306 80.9587 186.331 80.3671 187.201C79.7755 188.07 78.9394 188.745 77.9645 189.139C76.9896 189.533 75.9196 189.63 74.8899 189.416C73.8602 189.202 72.917 188.688 72.1795 187.938C71.4419 187.189 70.9432 186.237 70.7464 185.204C70.5495 184.171 70.6633 183.103 71.0735 182.135C71.4836 181.166 72.1716 180.341 73.0506 179.764C73.9295 179.186 74.9599 178.883 76.0115 178.891C77.4223 178.903 78.7707 179.474 79.7602 180.48C80.7497 181.486 81.2993 182.843 81.2883 184.254Z" fill="#E0E0E0"/>
<path d="M107.872 180.162C107.872 180.22 102.921 180.228 96.8517 180.162C90.7827 180.096 85.8359 180.026 85.8359 179.964C85.8359 179.902 90.7868 179.898 96.8558 179.964C102.925 180.03 107.872 180.104 107.872 180.162Z" fill="#263238"/>
<path d="M125.852 185.208C125.852 185.266 116.858 185.241 105.768 185.15C94.6779 185.059 85.6797 184.936 85.6797 184.878C85.6797 184.82 94.6738 184.845 105.768 184.936C116.862 185.026 125.852 185.146 125.852 185.208Z" fill="#E0E0E0"/>
<path d="M125.817 189.169C125.817 189.231 116.823 189.206 105.733 189.115C94.6428 189.024 85.6445 188.901 85.6445 188.843C85.6445 188.785 94.6387 188.806 105.733 188.897C116.827 188.987 125.821 189.115 125.817 189.169Z" fill="#E0E0E0"/>
<path d="M137.667 179.399C137.667 179.456 135.724 179.489 133.327 179.469C130.93 179.448 128.982 179.386 128.982 179.329C128.982 179.271 130.93 179.238 133.327 179.254C135.724 179.271 137.667 179.341 137.667 179.399Z" fill="#263238"/>
<path d="M113.737 179.923C113.735 180.12 113.675 180.313 113.564 180.476C113.453 180.639 113.296 180.766 113.113 180.84C112.93 180.914 112.729 180.932 112.536 180.892C112.342 180.852 112.165 180.755 112.027 180.615C111.888 180.474 111.795 180.295 111.758 180.101C111.721 179.907 111.742 179.707 111.819 179.525C111.896 179.343 112.026 179.188 112.191 179.08C112.356 178.971 112.549 178.914 112.747 178.916C112.878 178.917 113.008 178.944 113.128 178.995C113.249 179.046 113.359 179.121 113.45 179.214C113.542 179.308 113.615 179.418 113.664 179.54C113.713 179.662 113.738 179.792 113.737 179.923Z" fill="#383838"/>
<path d="M143.193 90.7048L66.6836 90.0771L66.4581 117.562L142.968 118.19L143.193 90.7048Z" fill="#F5F5F5"/>
<path d="M80.5392 107.803C82.616 105.727 82.616 102.359 80.5392 100.283C78.4623 98.2057 75.0951 98.2057 73.0183 100.283C70.9414 102.359 70.9414 105.727 73.0183 107.803C75.0951 109.88 78.4623 109.88 80.5392 107.803Z" fill="#455A64"/>
<path d="M108.68 99.9979C108.68 100.06 103.729 100.068 97.6644 100.019C91.5996 99.9691 86.6445 99.8783 86.6445 99.8205C86.6445 99.7628 91.5954 99.7504 97.6644 99.8205C103.733 99.8907 108.68 99.9319 108.68 99.9979Z" fill="#263238"/>
<path d="M126.665 105.036C126.665 105.098 117.671 105.069 106.577 104.978C95.4824 104.887 86.4883 104.768 86.4883 104.706C86.4883 104.644 95.4824 104.673 106.577 104.764C117.671 104.854 126.665 104.978 126.665 105.036Z" fill="#E0E0E0"/>
<path d="M126.63 109.001C126.63 109.058 117.636 109.034 106.541 108.943C95.4473 108.852 86.4531 108.732 86.4531 108.671C86.4531 108.609 95.4473 108.638 106.546 108.728C117.644 108.819 126.63 108.943 126.63 109.001Z" fill="#E0E0E0"/>
<path d="M138.491 99.2308C138.491 99.2886 136.544 99.3216 134.147 99.3009C132.699 99.3257 131.25 99.2775 129.807 99.1565C129.807 99.0988 131.75 99.0658 134.151 99.0864C135.599 99.0616 137.048 99.1098 138.491 99.2308Z" fill="#263238"/>
<path d="M135.122 104.764C135.122 104.764 135.089 104.719 135.015 104.653C134.962 104.609 134.9 104.579 134.833 104.565C134.766 104.551 134.696 104.555 134.631 104.574C134.539 104.6 134.46 104.661 134.412 104.744C134.359 104.834 134.305 104.958 134.247 105.078L134.057 105.49C134.024 105.577 133.968 105.653 133.896 105.711C133.823 105.769 133.737 105.807 133.645 105.82L133.113 105.903L132.832 105.944C132.753 105.958 132.681 105.998 132.63 106.06C132.576 106.122 132.546 106.202 132.546 106.285C132.546 106.367 132.576 106.447 132.63 106.509L133.1 106.971L133.224 107.091C133.274 107.138 133.314 107.194 133.344 107.256C133.401 107.386 133.412 107.532 133.373 107.669C133.331 107.902 133.29 108.142 133.249 108.387C133.236 108.434 133.233 108.484 133.242 108.533C133.252 108.582 133.272 108.627 133.301 108.667C133.33 108.707 133.368 108.74 133.412 108.762C133.456 108.785 133.505 108.798 133.554 108.799C133.649 108.799 133.736 108.75 133.859 108.688L134.21 108.51C134.33 108.438 134.457 108.38 134.59 108.337C134.665 108.322 134.742 108.323 134.817 108.338C134.893 108.354 134.964 108.384 135.027 108.428L135.687 108.783C135.729 108.803 135.774 108.814 135.82 108.816C135.866 108.818 135.912 108.811 135.955 108.794C135.998 108.778 136.037 108.752 136.07 108.72C136.102 108.687 136.128 108.648 136.145 108.605C136.174 108.51 136.174 108.408 136.145 108.312C136.145 108.197 136.112 108.085 136.091 107.974L136.042 107.64C136.017 107.509 136.042 107.374 136.112 107.26C136.182 107.17 136.261 107.087 136.347 107.013L136.574 106.802L136.789 106.6C136.847 106.548 136.887 106.479 136.904 106.402C136.918 106.329 136.908 106.254 136.877 106.187C136.846 106.12 136.795 106.064 136.731 106.027C136.583 105.979 136.431 105.946 136.277 105.928L135.864 105.853C135.794 105.847 135.726 105.826 135.664 105.792C135.602 105.758 135.548 105.711 135.506 105.655C135.451 105.56 135.402 105.461 135.361 105.358C135.27 105.182 135.197 104.996 135.142 104.805C135.256 104.968 135.356 105.141 135.44 105.321C135.483 105.415 135.533 105.506 135.588 105.593C135.625 105.636 135.671 105.67 135.722 105.694C135.773 105.719 135.829 105.732 135.885 105.734L136.298 105.791C136.469 105.804 136.638 105.839 136.801 105.895C136.872 105.934 136.933 105.989 136.979 106.056C137.024 106.123 137.053 106.2 137.064 106.28C137.074 106.36 137.066 106.442 137.039 106.518C137.012 106.595 136.967 106.664 136.908 106.72L136.694 106.926L136.475 107.145C136.4 107.207 136.333 107.278 136.273 107.355C136.23 107.43 136.216 107.518 136.232 107.603C136.252 107.714 136.269 107.825 136.289 107.937C136.31 108.048 136.327 108.16 136.347 108.275C136.389 108.41 136.389 108.553 136.347 108.688C136.321 108.758 136.28 108.823 136.227 108.876C136.175 108.93 136.111 108.972 136.041 109C135.971 109.028 135.896 109.04 135.821 109.037C135.746 109.033 135.672 109.014 135.605 108.981L134.94 108.626C134.898 108.594 134.85 108.571 134.799 108.559C134.748 108.547 134.695 108.546 134.643 108.556C134.531 108.598 134.422 108.649 134.317 108.708L133.971 108.886L133.793 108.977C133.72 109.01 133.639 109.026 133.558 109.022C133.48 109.018 133.404 108.997 133.335 108.962C133.266 108.926 133.205 108.875 133.157 108.814C133.109 108.752 133.074 108.681 133.056 108.606C133.038 108.53 133.036 108.451 133.051 108.374C133.096 108.131 133.141 107.891 133.183 107.66C133.217 107.569 133.217 107.468 133.183 107.376C133.13 107.287 133.062 107.208 132.981 107.145L132.49 106.6C132.407 106.504 132.361 106.381 132.361 106.254C132.361 106.126 132.407 106.004 132.49 105.907C132.571 105.818 132.68 105.759 132.799 105.742L133.084 105.705L133.62 105.639C133.69 105.631 133.757 105.604 133.813 105.561C133.869 105.518 133.912 105.461 133.938 105.395L134.14 105.008C134.206 104.888 134.26 104.781 134.326 104.669C134.393 104.571 134.494 104.502 134.61 104.475C134.688 104.457 134.769 104.459 134.845 104.482C134.921 104.505 134.99 104.549 135.043 104.607C135.114 104.702 135.126 104.76 135.122 104.764Z" fill="#263238"/>
<path d="M114.563 99.7548C114.562 99.9522 114.501 100.145 114.39 100.308C114.279 100.471 114.122 100.598 113.939 100.672C113.756 100.746 113.555 100.764 113.362 100.724C113.169 100.684 112.992 100.587 112.853 100.447C112.715 100.306 112.621 100.127 112.584 99.9332C112.547 99.7392 112.569 99.5386 112.646 99.3568C112.723 99.175 112.852 99.0201 113.017 98.9118C113.182 98.8034 113.376 98.7465 113.573 98.7481C113.838 98.7513 114.09 98.859 114.275 99.0475C114.461 99.2361 114.564 99.4903 114.563 99.7548Z" fill="#383838"/>
<path d="M143.25 145.498L66.7402 144.87L66.5148 172.355L143.024 172.983L143.25 145.498Z" fill="#F5F5F5"/>
<path d="M80.5978 162.594C82.6746 160.518 82.6746 157.15 80.5978 155.074C78.5209 152.997 75.1537 152.997 73.0769 155.074C71 157.15 71 160.518 73.0769 162.594C75.1537 164.671 78.5209 164.671 80.5978 162.594Z" fill="#455A64"/>
<path d="M108.737 154.784C108.737 154.842 103.786 154.85 97.721 154.784C91.6562 154.718 86.7012 154.648 86.7012 154.586C86.7012 154.524 91.6521 154.52 97.721 154.586C103.79 154.652 108.737 154.726 108.737 154.784Z" fill="#263238"/>
<path d="M126.721 159.822C126.721 159.88 117.727 159.855 106.633 159.764C95.5391 159.674 86.5449 159.55 86.5449 159.492C86.5449 159.434 95.5391 159.459 106.633 159.55C117.727 159.641 126.721 159.768 126.721 159.822Z" fill="#E0E0E0"/>
<path d="M126.689 163.794C126.689 163.852 117.694 163.827 106.6 163.737C95.5061 163.646 86.5078 163.534 86.5078 163.464C86.5078 163.394 95.5019 163.431 106.6 163.522C117.698 163.613 126.689 163.732 126.689 163.794Z" fill="#E0E0E0"/>
<path d="M138.546 154.021C138.546 154.083 136.599 154.112 134.202 154.096C131.805 154.079 129.861 154.009 129.861 153.951C129.861 153.894 131.805 153.861 134.206 153.881C136.607 153.902 138.546 153.964 138.546 154.021Z" fill="#263238"/>
<path d="M135.191 159.554C135.191 159.554 135.158 159.508 135.084 159.447C135.032 159.402 134.969 159.371 134.902 159.357C134.835 159.342 134.766 159.345 134.7 159.364C134.608 159.391 134.53 159.451 134.481 159.533C134.428 159.628 134.374 159.752 134.316 159.871C134.258 159.991 134.192 160.127 134.126 160.263C134.094 160.351 134.039 160.428 133.966 160.487C133.893 160.546 133.806 160.584 133.714 160.598L133.182 160.676L132.901 160.721C132.84 160.73 132.783 160.756 132.735 160.795C132.688 160.834 132.652 160.886 132.631 160.944C132.611 161.002 132.607 161.065 132.619 161.125C132.632 161.186 132.661 161.241 132.703 161.287L133.173 161.745L133.297 161.864C133.348 161.912 133.389 161.97 133.417 162.033C133.477 162.163 133.487 162.31 133.446 162.446C133.404 162.683 133.363 162.922 133.322 163.164C133.312 163.21 133.312 163.258 133.322 163.305C133.332 163.351 133.353 163.394 133.382 163.432C133.411 163.469 133.448 163.5 133.491 163.521C133.533 163.543 133.58 163.554 133.627 163.556C133.737 163.55 133.843 163.512 133.933 163.449L134.283 163.267C134.404 163.197 134.531 163.138 134.663 163.094C134.815 163.067 134.972 163.101 135.1 163.189L135.76 163.543C135.802 163.564 135.847 163.575 135.893 163.577C135.939 163.579 135.985 163.572 136.028 163.555C136.071 163.538 136.11 163.513 136.143 163.48C136.176 163.448 136.201 163.409 136.218 163.366C136.247 163.27 136.247 163.169 136.218 163.073C136.218 162.958 136.185 162.842 136.165 162.731L136.115 162.401C136.09 162.27 136.115 162.134 136.185 162.021C136.255 161.931 136.334 161.848 136.42 161.773L136.647 161.563L136.862 161.357C136.921 161.306 136.962 161.236 136.977 161.159C136.99 161.087 136.981 161.012 136.95 160.946C136.919 160.879 136.868 160.824 136.804 160.787C136.657 160.738 136.505 160.704 136.35 160.688L135.938 160.614C135.867 160.607 135.799 160.586 135.737 160.551C135.675 160.516 135.621 160.469 135.579 160.412C135.524 160.318 135.476 160.22 135.434 160.119C135.342 159.942 135.269 159.755 135.216 159.562C135.329 159.727 135.428 159.901 135.513 160.082C135.557 160.174 135.606 160.264 135.661 160.35C135.698 160.393 135.744 160.428 135.795 160.453C135.846 160.478 135.901 160.492 135.958 160.494L136.371 160.552C136.531 160.566 136.688 160.598 136.841 160.647C136.936 160.698 137.012 160.776 137.06 160.873C137.107 160.969 137.123 161.078 137.105 161.183C137.087 161.297 137.032 161.401 136.948 161.481L136.734 161.687L136.515 161.901C136.441 161.966 136.374 162.038 136.313 162.116C136.27 162.191 136.255 162.279 136.272 162.363C136.292 162.475 136.309 162.582 136.33 162.694C136.35 162.805 136.367 162.92 136.387 163.036C136.427 163.171 136.427 163.314 136.387 163.449C136.36 163.518 136.318 163.582 136.265 163.635C136.211 163.688 136.147 163.729 136.077 163.756C136.007 163.784 135.932 163.796 135.857 163.793C135.782 163.789 135.708 163.77 135.641 163.737C135.422 163.622 135.199 163.506 134.976 163.383C134.89 163.322 134.784 163.297 134.679 163.312C134.567 163.357 134.458 163.409 134.353 163.469L134.007 163.647L133.829 163.737C133.755 163.768 133.675 163.782 133.594 163.779C133.517 163.775 133.441 163.754 133.372 163.718C133.303 163.683 133.243 163.633 133.194 163.572C133.146 163.511 133.112 163.44 133.093 163.365C133.075 163.29 133.073 163.211 133.087 163.135C133.132 162.892 133.178 162.652 133.219 162.417C133.253 162.325 133.253 162.224 133.219 162.132C133.164 162.045 133.096 161.967 133.017 161.901L132.546 161.427C132.463 161.33 132.418 161.207 132.418 161.08C132.418 160.953 132.463 160.83 132.546 160.734C132.628 160.645 132.737 160.585 132.856 160.565L133.14 160.527L133.677 160.461C133.747 160.455 133.814 160.43 133.87 160.387C133.926 160.345 133.969 160.288 133.994 160.222L134.197 159.834C134.263 159.711 134.316 159.603 134.382 159.496C134.448 159.396 134.55 159.325 134.667 159.298C134.741 159.284 134.818 159.289 134.89 159.312C134.962 159.335 135.027 159.375 135.079 159.43C135.191 159.496 135.191 159.554 135.191 159.554Z" fill="#263238"/>
<path d="M114.62 154.545C114.618 154.742 114.558 154.935 114.447 155.098C114.336 155.261 114.179 155.388 113.996 155.462C113.813 155.536 113.612 155.554 113.419 155.514C113.225 155.474 113.048 155.377 112.91 155.237C112.771 155.096 112.678 154.917 112.641 154.723C112.604 154.529 112.625 154.329 112.702 154.147C112.779 153.965 112.909 153.81 113.074 153.702C113.239 153.593 113.432 153.536 113.63 153.538C113.761 153.539 113.89 153.566 114.011 153.617C114.132 153.668 114.241 153.743 114.333 153.836C114.425 153.93 114.498 154.041 114.547 154.162C114.596 154.284 114.621 154.414 114.62 154.545Z" fill="#383838"/>
<path d="M108.045 53.0231L101.633 52.9705C101.121 52.9663 100.702 53.3785 100.697 53.8912L100.658 58.7099C100.654 59.2225 101.066 59.6415 101.579 59.6457L107.99 59.6983C108.502 59.7025 108.921 59.2904 108.926 58.7777L108.965 53.959C108.969 53.4463 108.557 53.0273 108.045 53.0231Z" fill="#383838"/>
<path d="M108.519 53.2781C108.45 53.4048 108.364 53.5214 108.263 53.6247C108.09 53.8392 107.851 54.1446 107.508 54.52L106.37 55.8279L105.689 56.5953C105.571 56.7391 105.445 56.8768 105.313 57.0078C105.146 57.1459 104.931 57.2126 104.715 57.1935C104.501 57.1712 104.304 57.066 104.166 56.9006L103.799 56.488L103.11 55.7288L101.955 54.4375C101.625 54.0662 101.365 53.765 101.188 53.5504C101.086 53.4481 100.999 53.333 100.928 53.208C100.928 53.208 101.052 53.2988 101.25 53.4968C101.448 53.6948 101.724 53.9754 102.075 54.322L103.263 55.5844L103.964 56.3353L104.331 56.7479C104.381 56.8102 104.443 56.8619 104.514 56.9C104.584 56.9382 104.661 56.962 104.74 56.97C104.82 56.9781 104.9 56.9703 104.977 56.947C105.053 56.9237 105.124 56.8855 105.186 56.8345C105.297 56.7355 105.425 56.5746 105.54 56.4508L106.229 55.6917L107.405 54.4127C107.739 54.0538 108.016 53.7609 108.23 53.5876C108.313 53.4728 108.41 53.3688 108.519 53.2781Z" fill="white"/>
<path d="M103.552 56.3027C103.152 56.8374 102.709 57.3383 102.227 57.8004C101.794 58.3134 101.294 58.767 100.742 59.1495C101.143 58.6145 101.587 58.1135 102.071 57.6519C102.504 57.1396 103.001 56.686 103.552 56.3027Z" fill="white"/>
<path d="M108.918 59.3056C108.357 58.858 107.844 58.3533 107.388 57.7997C106.876 57.2953 106.415 56.7427 106.01 56.1494C106.572 56.5976 107.086 57.1022 107.545 57.6553C108.055 58.1591 108.516 58.7118 108.918 59.3056Z" fill="white"/>
<path d="M78.1616 55.7047C78.1616 55.7418 76.7506 55.7707 75.0095 55.7707C73.2684 55.7707 71.8574 55.7418 71.8574 55.7047C71.8574 55.6676 73.2684 55.6387 75.0095 55.6387C76.7506 55.6387 78.1616 55.6676 78.1616 55.7047Z" fill="#263238"/>
<path d="M78.1616 57.317C78.1616 57.3541 76.7506 57.383 75.0095 57.383C73.2684 57.383 71.8574 57.3541 71.8574 57.317C71.8574 57.2799 73.2684 57.251 75.0095 57.251C76.7506 57.251 78.1616 57.2799 78.1616 57.317Z" fill="#263238"/>
<path d="M78.1616 58.9312C78.1616 58.9684 76.7506 59.0014 75.0095 59.0014C73.2684 59.0014 71.8574 58.9684 71.8574 58.9354C71.8574 58.9024 73.2684 58.8652 75.0095 58.8652C76.7506 58.8652 78.1616 58.8982 78.1616 58.9312Z" fill="#263238"/>
<path d="M137.329 56.7317C137.309 56.7317 137.329 56.5749 137.238 56.3191C137.137 55.9539 136.916 55.633 136.611 55.4073C136.367 55.2222 136.077 55.1086 135.772 55.0792C135.467 55.0498 135.16 55.1058 134.886 55.2409C134.611 55.376 134.379 55.5848 134.216 55.8441C134.053 56.1034 133.966 56.4029 133.963 56.709C133.961 57.0152 134.044 57.316 134.203 57.5778C134.361 57.8396 134.59 58.052 134.863 58.1914C135.135 58.3307 135.441 58.3915 135.746 58.3669C136.052 58.3422 136.344 58.2332 136.591 58.0519C136.897 57.8281 137.123 57.5111 137.234 57.1484C137.309 56.8884 137.309 56.7358 137.329 56.7358C137.335 56.7727 137.335 56.8103 137.329 56.8472C137.332 56.9554 137.32 57.0635 137.296 57.169C137.207 57.5643 136.982 57.9159 136.661 58.1633C136.39 58.366 136.068 58.4889 135.731 58.5183C135.394 58.5477 135.055 58.4823 134.753 58.3296C134.452 58.1769 134.198 57.9428 134.023 57.6539C133.847 57.3649 133.755 57.0326 133.758 56.6943C133.761 56.356 133.858 56.0253 134.039 55.7394C134.22 55.4535 134.477 55.2239 134.781 55.0763C135.086 54.9288 135.425 54.8692 135.762 54.9044C136.098 54.9395 136.418 55.068 136.686 55.2753C137.002 55.5282 137.22 55.8846 137.3 56.282C137.324 56.3875 137.334 56.4957 137.329 56.6038C137.339 56.6458 137.339 56.6896 137.329 56.7317Z" fill="#263238"/>
<path d="M138.259 59.7267C137.942 59.5148 137.663 59.2512 137.434 58.9469C137.152 58.6843 136.916 58.376 136.736 58.0352C137.053 58.2471 137.332 58.5106 137.561 58.8149C137.844 59.0767 138.08 59.3851 138.259 59.7267Z" fill="#263238"/>
<path d="M40.4638 176.67L36.1117 205.263H10.8262L4.95898 177.08L40.4638 176.67Z" fill="#383838"/>
<path d="M8.49609 194.995C8.49609 195.08 14.9729 195.146 22.9829 195.146C30.993 195.146 37.4698 195.08 37.4698 194.995C37.4698 194.911 30.993 194.851 22.9829 194.851C14.9729 194.851 8.49609 194.917 8.49609 194.995Z" fill="#FAFAFA"/>
<path d="M8.40039 193.589C8.40039 193.674 14.9195 193.74 22.9657 193.74C31.0119 193.74 37.531 193.674 37.531 193.589C37.531 193.505 31.0119 193.444 22.9657 193.444C14.9195 193.444 8.40039 193.511 8.40039 193.589Z" fill="#FAFAFA"/>
<path d="M8.44727 192.001C8.44727 192.086 14.9663 192.152 23.0126 192.152C31.0588 192.152 37.5779 192.086 37.5779 192.001C37.5779 191.917 31.0588 191.851 23.0126 191.851C14.9663 191.851 8.44727 191.917 8.44727 192.001Z" fill="#FAFAFA"/>
<path d="M33.209 203.633C33.5595 202.447 33.8178 201.237 33.9816 200.011C34.2402 198.809 34.4017 197.588 34.4645 196.359C34.1088 197.544 33.8504 198.755 33.6919 199.981C33.4297 201.183 33.2682 202.404 33.209 203.633Z" fill="#FAFAFA"/>
<path d="M31.488 203.331C31.6599 202.167 31.7647 200.994 31.8019 199.818C31.9295 198.648 31.9839 197.47 31.9649 196.293C31.6892 197.441 31.5354 198.614 31.5061 199.794C31.3715 200.969 31.3654 202.155 31.488 203.331Z" fill="#FAFAFA"/>
<path d="M28.3496 203.331C28.9405 200.963 29.2265 198.529 29.2007 196.088C28.9707 197.285 28.8075 198.494 28.7118 199.71C28.5261 200.909 28.4052 202.118 28.3496 203.331Z" fill="#FAFAFA"/>
<path d="M26.1461 203.483C26.5341 201.056 26.6132 198.589 26.3815 196.143C26.2506 197.361 26.1902 198.587 26.2004 199.813C26.1095 201.034 26.0913 202.259 26.1461 203.483Z" fill="#FAFAFA"/>
<path d="M22.2521 203.332C22.4433 202.183 22.5342 201.02 22.5237 199.855C22.6108 198.695 22.5987 197.53 22.4875 196.372C22.3038 197.522 22.2149 198.685 22.2219 199.849C22.1384 201.009 22.1485 202.174 22.2521 203.332Z" fill="#FAFAFA"/>
<path d="M19.409 203.483C19.5524 202.281 19.5928 201.07 19.5297 199.861C19.5692 198.661 19.5087 197.46 19.3486 196.27C19.2132 197.472 19.1748 198.683 19.2339 199.891C19.1944 201.091 19.2529 202.292 19.409 203.483Z" fill="#FAFAFA"/>
<path d="M16.7408 203.096C16.7708 201.841 16.6982 200.585 16.5234 199.342C16.4506 198.089 16.2811 196.844 16.0164 195.617C15.9862 196.873 16.0589 198.128 16.2337 199.372C16.3066 200.624 16.4761 201.869 16.7408 203.096Z" fill="#FAFAFA"/>
<path d="M13.3017 202.722C13.2972 201.644 13.1552 200.571 12.8791 199.529C12.6974 198.467 12.3809 197.432 11.9375 196.45C12.0977 197.51 12.3153 198.559 12.5894 199.595C12.7658 200.65 13.0037 201.694 13.3017 202.722Z" fill="#FAFAFA"/>
<path d="M15.738 120.243C15.7306 120.291 15.7306 120.34 15.738 120.388C15.738 120.497 15.8044 120.629 15.8526 120.792C15.9734 121.167 16.1303 121.68 16.3355 122.332C16.5408 122.984 16.8124 123.823 17.078 124.782C17.3436 125.742 17.6816 126.823 17.9894 128.042C18.2973 129.261 18.6595 130.583 18.9734 132.026C19.2872 133.468 19.6192 135.002 19.9512 136.631C20.5548 139.891 21.1102 143.495 21.4965 147.297C21.8828 151.1 22.0397 154.752 22.1001 158.072C22.1001 159.726 22.1001 161.301 22.0578 162.78C22.0156 164.259 21.9492 165.623 21.8768 166.879C21.8043 168.134 21.7077 169.257 21.6293 170.253C21.5508 171.249 21.4663 172.1 21.3818 172.8C21.2973 173.5 21.255 174.007 21.2188 174.406C21.2188 174.575 21.2067 174.714 21.1826 174.822C21.1826 174.919 21.1826 174.967 21.1826 174.967C21.2028 174.923 21.2151 174.876 21.2188 174.828C21.2188 174.72 21.255 174.581 21.2852 174.412C21.3335 174.026 21.412 173.488 21.5025 172.812C21.5931 172.136 21.7077 171.261 21.7983 170.271C21.8888 169.281 22.0216 168.146 22.0941 166.891C22.1665 165.635 22.2691 164.265 22.3053 162.786C22.3415 161.307 22.3717 159.732 22.3838 158.066C22.3476 154.746 22.1846 151.088 21.7802 147.273C21.3757 143.458 20.8265 139.843 20.2047 136.577C19.8667 134.947 19.5649 133.402 19.2027 131.965C18.8406 130.529 18.5146 129.195 18.1826 127.988C17.8506 126.78 17.5126 125.688 17.2229 124.734C16.9331 123.78 16.6675 122.959 16.4321 122.32C16.1967 121.68 16.0277 121.167 15.9009 120.792C15.8406 120.636 15.7923 120.503 15.7561 120.4C15.7535 120.347 15.7474 120.295 15.738 120.243Z" fill="#263238"/>
<path d="M20.3027 137.948C19.6064 135.886 18.2152 134.13 16.3671 132.98C15.7635 132.594 14.9546 132.28 14.2906 132.6C13.4093 133.028 13.3369 134.266 13.6025 135.214C14.0611 136.819 15.0861 138.205 16.4878 139.113C17.7197 140.026 19.2624 140.414 20.7795 140.193" fill="#263238"/>
<path d="M21.836 149.906C21.1841 147.437 19.2163 143.93 17.17 142.397C16.8566 142.141 16.4954 141.95 16.1076 141.835C15.9134 141.777 15.7077 141.768 15.5093 141.811C15.311 141.853 15.1265 141.944 14.9728 142.077C14.7984 142.308 14.6839 142.579 14.6397 142.866C14.5955 143.152 14.6228 143.445 14.7193 143.718C15.1388 145.519 16.0509 147.166 17.3536 148.478C18.6563 149.789 20.2982 150.712 22.0955 151.143" fill="#263238"/>
<path d="M22.2572 160.426C21.2421 158.071 19.6168 156.029 17.549 154.511C17.3304 154.304 17.0722 154.144 16.79 154.041C16.5078 153.937 16.2074 153.892 15.9072 153.907C15.0138 154.064 14.6094 155.157 14.6999 156.062C14.8629 157.921 16.2874 159.418 17.7542 160.571C19.1006 161.505 20.5638 162.258 22.1063 162.811" fill="#263238"/>
<path d="M22.0235 167.996C21.0423 166.196 19.6732 164.638 18.0154 163.432C17.66 163.162 17.2467 162.978 16.8082 162.895C16.5853 162.848 16.3537 162.865 16.1401 162.944C15.9265 163.023 15.7396 163.161 15.601 163.342C15.1965 163.945 15.601 164.73 16.0114 165.304C17.4247 167.27 19.4265 168.737 21.7277 169.493" fill="#263238"/>
<path d="M22.2225 164.911C23.949 162.796 25.8687 160.846 27.9568 159.086C28.096 158.925 28.2734 158.802 28.4727 158.727C28.672 158.652 28.8868 158.628 29.0977 158.658C29.2501 158.721 29.3809 158.827 29.4741 158.963C29.5673 159.099 29.619 159.26 29.6228 159.424C29.6228 159.757 29.5486 160.085 29.4055 160.384C28.7204 161.905 27.7016 163.252 26.4246 164.325C25.1477 165.399 23.6454 166.17 22.0293 166.583" fill="#263238"/>
<path d="M22.0352 155.079L26.5381 149.592C26.9342 149.042 27.4297 148.571 27.9989 148.203C28.2886 148.029 28.6204 147.937 28.9587 147.937C29.2969 147.937 29.6287 148.029 29.9184 148.203C30.1777 148.419 30.3715 148.703 30.4782 149.023C30.5848 149.343 30.6 149.686 30.522 150.014C30.3611 150.674 30.0606 151.291 29.6407 151.825C28.7664 153.154 27.6603 154.316 26.3752 155.254C25.0532 156.165 23.852 156.757 22.2645 156.521" fill="#263238"/>
<path d="M21.4121 143.99C22.291 141.363 23.8536 139.017 25.9392 137.193C26.2718 136.859 26.6891 136.621 27.1465 136.505C27.6053 136.469 28.0624 136.594 28.4392 136.858C28.8159 137.123 29.0888 137.51 29.2109 137.954C29.3555 138.451 29.3936 138.973 29.3229 139.486C29.2522 139.998 29.0741 140.49 28.8004 140.93C28.2525 141.809 27.5342 142.571 26.6877 143.169C25.1712 144.326 23.4827 145.239 21.6837 145.873" fill="#263238"/>
<path d="M19.6152 134.127C20.0498 130.946 21.7038 128.296 23.6233 125.724C24.0277 125.181 24.5951 124.608 25.2591 124.71C25.4707 124.755 25.6678 124.851 25.8323 124.992C25.9968 125.132 26.1235 125.311 26.2007 125.513C26.3499 125.92 26.4096 126.355 26.3758 126.787C26.2934 128.714 25.6449 130.575 24.5113 132.136C23.3776 133.697 21.809 134.889 20.0015 135.563" fill="#263238"/>
<path d="M18.3528 129.056C18.5609 127.427 18.6155 125.782 18.5158 124.143C18.4136 122.493 17.8488 120.905 16.8861 119.561C16.4837 118.985 15.9273 118.533 15.2804 118.258C14.9517 118.126 14.5946 118.082 14.2437 118.128C13.8927 118.175 13.5596 118.311 13.2764 118.523C13.0368 118.748 12.8506 119.023 12.7316 119.329C12.6125 119.635 12.5635 119.964 12.5883 120.292C12.6486 120.944 12.8201 121.581 13.0953 122.175C14.3026 125.06 16.2945 128.253 18.383 129.056" fill="#263238"/>
<path d="M37.9589 132.847C37.9445 132.981 37.9445 133.117 37.9589 133.251C37.9589 133.547 37.9589 133.927 37.9589 134.404C37.9589 134.881 37.9589 135.521 37.9287 136.215C37.8985 136.909 37.9287 137.736 37.8442 138.629C37.7657 140.44 37.5907 142.541 37.319 144.895C37.0474 147.249 36.5887 149.82 36.0394 152.507C35.4901 155.193 34.8321 157.698 34.1259 159.967C33.4197 162.237 32.7315 164.241 32.0857 165.913C31.7839 166.752 31.482 167.5 31.1983 168.158C30.9146 168.816 30.6913 169.366 30.4861 169.842L30.0394 170.905C29.9805 171.027 29.932 171.154 29.8945 171.285C29.9721 171.173 30.0388 171.054 30.0937 170.929C30.2205 170.663 30.3835 170.325 30.5947 169.891C30.806 169.456 31.0716 168.883 31.3493 168.225C31.6269 167.567 31.9529 166.83 32.2849 165.991C32.9549 164.325 33.6732 162.309 34.3855 160.046C35.0977 157.782 35.7557 155.247 36.3291 152.567C36.9025 149.887 37.2768 147.303 37.5363 144.943C37.7959 142.583 37.9468 140.452 37.9951 138.653C38.0434 137.76 38.0313 136.945 38.0373 136.239C38.0434 135.533 38.0373 134.911 38.0373 134.428C38.0373 133.945 38.0373 133.571 37.9951 133.275C38.0004 133.131 37.9883 132.988 37.9589 132.847Z" fill="#263238"/>
<path d="M37.2535 145.886C37.2229 144.334 36.6555 142.841 35.6479 141.66C35.4997 141.443 35.3007 141.265 35.0683 141.142C34.8358 141.019 34.5769 140.955 34.3139 140.954C33.6197 141.057 33.3058 141.884 33.2817 142.584C33.2447 143.773 33.6392 144.935 34.3923 145.855C35.0347 146.74 35.9997 147.337 37.0784 147.515" fill="#263238"/>
<path d="M35.7258 154.36C35.8103 152.549 35.2248 149.725 34.1624 148.246C34.0035 148.006 33.7982 147.801 33.5588 147.642C33.4375 147.563 33.2986 147.515 33.1544 147.502C33.0101 147.49 32.865 147.513 32.7318 147.57C32.5612 147.686 32.4234 147.844 32.3314 148.029C32.2395 148.214 32.1965 148.42 32.2067 148.626C32.1051 149.941 32.3714 151.259 32.9758 152.431C33.5802 153.604 34.4989 154.585 35.6292 155.266" fill="#263238"/>
<path d="M33.7449 161.616C33.5632 159.792 32.8985 158.05 31.8194 156.569C31.7114 156.385 31.5677 156.223 31.3967 156.095C31.2257 155.966 31.0308 155.873 30.8234 155.821C30.1836 155.736 29.6705 156.394 29.5317 157.028C29.242 158.326 29.8878 159.648 30.6363 160.752C31.3536 161.677 32.1875 162.505 33.1172 163.215" fill="#263238"/>
<path d="M31.9588 166.722C31.6758 165.288 31.0802 163.934 30.2144 162.756C30.0262 162.506 29.7851 162.3 29.5081 162.153C29.3674 162.079 29.2093 162.046 29.0509 162.055C28.8925 162.065 28.7397 162.117 28.6088 162.207C28.2104 162.521 28.3009 163.143 28.4699 163.626C29.014 165.275 30.0716 166.707 31.488 167.712" fill="#263238"/>
<path d="M32.786 164.664C34.4158 163.595 36.1415 162.679 37.9409 161.93C38.0698 161.849 38.2172 161.802 38.3693 161.793C38.5213 161.785 38.673 161.815 38.8101 161.881C38.8951 161.954 38.9582 162.049 38.9923 162.156C39.0264 162.262 39.0302 162.376 39.0033 162.485C38.9325 162.711 38.8107 162.918 38.6471 163.089C37.8543 163.978 36.8711 164.677 35.7706 165.134C34.67 165.591 33.4807 165.793 32.291 165.726" fill="#263238"/>
<path d="M34.7473 157.922C36.1638 157.004 37.5722 156.083 38.9726 155.157C39.3631 154.875 39.8035 154.671 40.2704 154.553C40.5024 154.473 40.7539 154.468 40.9889 154.539C41.2239 154.61 41.4305 154.754 41.579 154.949C41.7276 155.145 41.8107 155.382 41.8163 155.627C41.822 155.873 41.7499 156.114 41.6105 156.316C41.3569 156.728 41.0197 157.081 40.6205 157.354C39.7362 158.086 38.7257 158.651 37.6386 159.02C37.1538 159.226 36.6323 159.333 36.1055 159.333C35.5786 159.333 35.0571 159.226 34.5723 159.02" fill="#263238"/>
<path d="M36.7102 150.243C37.8771 148.645 39.4449 147.384 41.2554 146.585C41.5505 146.436 41.8786 146.363 42.2092 146.374C42.5292 146.448 42.8134 146.632 43.0128 146.893C43.2123 147.154 43.3144 147.476 43.3017 147.805C43.2914 148.174 43.204 148.537 43.0449 148.871C42.8859 149.205 42.6587 149.502 42.3782 149.742C41.8165 150.224 41.1637 150.587 40.4587 150.811C39.1773 151.274 37.8306 151.53 36.4688 151.571" fill="#263238"/>
<path d="M37.6147 143.126C38.5926 141.056 40.2887 139.607 42.1479 138.267C42.3213 138.099 42.5358 137.98 42.7698 137.92C43.0039 137.861 43.2494 137.864 43.4819 137.929C43.6167 138.004 43.7304 138.113 43.8127 138.243C43.8949 138.374 43.9431 138.523 43.9527 138.678C43.967 138.987 43.9135 139.296 43.7957 139.583C43.3245 140.878 42.4824 142.005 41.3746 142.824C40.2668 143.643 38.9423 144.118 37.5664 144.189" fill="#263238"/>
<path d="M37.8432 139.42C38.3351 138.355 38.7251 137.245 39.0082 136.107C39.2951 134.961 39.2533 133.758 38.8874 132.636C38.7263 132.164 38.438 131.747 38.0544 131.429C37.8586 131.268 37.6247 131.16 37.3753 131.116C37.1258 131.071 36.8692 131.092 36.6299 131.175C36.4189 131.277 36.2335 131.424 36.0872 131.607C35.9409 131.79 35.8376 132.003 35.7848 132.231C35.6802 132.687 35.6597 133.157 35.7245 133.62C35.9176 135.841 36.5937 138.449 37.8432 139.451" fill="#263238"/>
<path d="M5.99107 132.569C5.98203 132.704 5.98203 132.839 5.99107 132.974C5.99107 133.27 5.96089 133.65 5.94882 134.127C5.93674 134.604 5.9126 135.243 5.94882 135.938C5.98503 136.632 5.94882 137.465 5.99107 138.352C6.04539 140.163 6.1963 142.282 6.44982 144.642C6.70334 147.002 7.12587 149.585 7.65705 152.265C8.18824 154.945 8.90051 157.475 9.59467 159.744C10.2888 162.014 11.0252 164.024 11.7013 165.69C12.0212 166.529 12.3532 167.265 12.6369 167.923C12.9206 168.581 13.1681 169.13 13.3914 169.589L13.8924 170.627C13.9442 170.753 14.0089 170.872 14.0856 170.984C14.0489 170.854 14.0025 170.726 13.9468 170.603L13.4699 169.565C13.2647 169.106 13.0232 168.545 12.7637 167.881C12.5041 167.217 12.16 166.475 11.8703 165.636C11.2244 163.964 10.5303 161.947 9.83008 159.69C9.12988 157.432 8.48401 154.903 7.91661 152.235C7.34921 149.567 6.96289 146.99 6.66712 144.642C6.37135 142.294 6.22648 140.163 6.14801 138.352C6.08765 137.459 6.08161 136.65 6.05747 135.938C6.03332 135.225 6.05747 134.61 6.05747 134.127C6.05747 133.644 6.05747 133.27 6.05747 132.974C6.0525 132.837 6.03019 132.701 5.99107 132.569Z" fill="#455A64"/>
<path d="M6.69727 145.596C6.72757 144.043 7.29739 142.549 8.30893 141.37C8.45541 141.153 8.65315 140.975 8.88472 140.851C9.1163 140.728 9.3746 140.664 9.63689 140.664C10.331 140.767 10.6449 141.594 10.6691 142.294C10.7157 143.492 10.3228 144.666 9.56445 145.596C8.92024 146.481 7.95305 147.078 6.87232 147.256" fill="#455A64"/>
<path d="M8.22484 154.082C8.14033 152.271 8.72584 149.446 9.78821 147.967C9.94753 147.728 10.1527 147.523 10.3918 147.364C10.512 147.285 10.6499 147.237 10.7932 147.224C10.9364 147.211 11.0806 147.235 11.2127 147.291C11.3833 147.408 11.5212 147.566 11.6131 147.751C11.7051 147.936 11.748 148.141 11.7379 148.348C11.8409 149.663 11.5752 150.981 10.9707 152.154C10.3661 153.327 9.44661 154.308 8.31538 154.987" fill="#455A64"/>
<path d="M10.2051 161.338C10.3917 159.515 11.0582 157.774 12.1367 156.292C12.2437 156.108 12.3864 155.947 12.5564 155.818C12.7263 155.69 12.9202 155.596 13.1266 155.543C13.7725 155.459 14.2795 156.117 14.4244 156.751C14.7141 158.049 14.0682 159.376 13.3137 160.475C12.5982 161.401 11.7641 162.229 10.8328 162.938" fill="#455A64"/>
<path d="M11.9961 166.438C12.2772 165.011 12.8731 163.664 13.7406 162.497C13.9265 162.246 14.1656 162.04 14.4407 161.893C14.5815 161.82 14.7395 161.786 14.898 161.796C15.0564 161.805 15.2092 161.858 15.3401 161.947C15.7385 162.261 15.654 162.889 15.485 163.366C14.9382 165.014 13.8812 166.445 12.4669 167.452" fill="#455A64"/>
<path d="M11.1999 164.386C9.56798 163.316 7.84023 162.401 6.03894 161.651C5.90999 161.57 5.7626 161.524 5.61057 161.515C5.45854 161.507 5.30686 161.537 5.16974 161.603C5.0803 161.679 5.01497 161.78 4.98174 161.892C4.9485 162.005 4.94881 162.124 4.98261 162.237C5.05116 162.462 5.17099 162.669 5.33271 162.841C6.12576 163.73 7.10908 164.429 8.20953 164.885C9.30997 165.342 10.4992 165.545 11.6888 165.478" fill="#455A64"/>
<path d="M9.20338 157.667L4.97805 154.903C4.58902 154.622 4.15086 154.418 3.68631 154.299C3.45248 154.238 3.20636 154.243 2.97519 154.314C2.74402 154.384 2.5368 154.517 2.37646 154.697C2.24324 154.899 2.16972 155.134 2.16438 155.375C2.15904 155.617 2.2221 155.855 2.34628 156.062C2.59632 156.458 2.92502 156.799 3.31207 157.064C4.19722 157.795 5.2075 158.359 6.29394 158.73C6.77981 158.936 7.30227 159.042 7.83015 159.042C8.35803 159.042 8.88049 158.936 9.36636 158.73" fill="#455A64"/>
<path d="M7.24078 149.966C6.07662 148.365 4.508 147.103 2.69553 146.308C2.4026 146.159 2.07653 146.086 1.74785 146.097C1.42723 146.171 1.14231 146.354 0.941898 146.615C0.741482 146.876 0.638031 147.198 0.649265 147.527C0.659538 147.897 0.747013 148.26 0.906065 148.594C1.06512 148.928 1.29223 149.224 1.5728 149.465C2.13445 149.946 2.78726 150.31 3.49231 150.533C4.77366 150.996 6.12039 151.253 7.48223 151.294" fill="#455A64"/>
<path d="M6.34099 142.849C5.35709 140.778 3.66093 139.33 1.80178 137.989C1.62865 137.821 1.41423 137.701 1.18007 137.642C0.945903 137.582 0.700247 137.586 0.467785 137.651C0.334451 137.728 0.2222 137.837 0.141084 137.967C0.0599685 138.098 0.0125218 138.246 0.00299825 138.4C-0.0134688 138.709 0.0380415 139.018 0.153903 139.305C0.62582 140.6 1.46807 141.726 2.57575 142.545C3.68343 143.364 5.00757 143.839 6.38324 143.911" fill="#455A64"/>
<path d="M6.11249 139.142C5.61868 138.077 5.2266 136.968 4.94147 135.829C4.65647 134.683 4.70041 133.48 5.06823 132.358C5.21769 131.869 5.50731 131.434 5.90122 131.108C6.09586 130.948 6.32869 130.84 6.57719 130.795C6.8257 130.751 7.08145 130.771 7.31973 130.855C7.53157 130.956 7.718 131.103 7.8653 131.286C8.0126 131.469 8.11701 131.683 8.17083 131.911C8.26947 132.367 8.28988 132.837 8.23119 133.299C8.03199 135.527 7.36198 138.128 6.11249 139.13" fill="#455A64"/>
<path d="M43.3598 171.008V176.38C43.3598 176.657 43.3053 176.931 43.1995 177.186C43.0936 177.442 42.9384 177.674 42.7428 177.87C42.5472 178.065 42.3149 178.22 42.0594 178.326C41.8038 178.432 41.5298 178.487 41.2532 178.487H4.64374C4.36709 178.487 4.09315 178.432 3.83757 178.326C3.58198 178.22 3.34975 178.065 3.15413 177.87C2.95851 177.674 2.80333 177.442 2.69747 177.186C2.5916 176.931 2.53711 176.657 2.53711 176.38V171.008H43.3598Z" fill="#383838"/>
<g opacity="0.4">
<path d="M40.1874 178.463L39.8856 180.165L6.10714 182.574L5.25 178.463H40.1874Z" fill="black"/>
</g>
<path d="M222.599 15.9121H138.353C136.073 15.9339 133.894 16.8604 132.297 18.4878C130.699 20.1152 129.814 22.3104 129.834 24.5907V198.034C129.815 200.314 130.701 202.508 132.298 204.135C133.896 205.762 136.073 206.689 138.353 206.713H222.599C224.88 206.691 227.06 205.765 228.659 204.137C230.258 202.51 231.146 200.315 231.128 198.034V24.5907C231.147 22.309 230.259 20.1131 228.66 18.4857C227.061 16.8583 224.881 15.9326 222.599 15.9121ZM225.795 192.644C225.795 197.208 222.377 200.904 218.164 200.904H142.793C138.57 200.904 135.152 197.213 135.152 192.644V31.1681C135.152 21.8751 138.57 21.4156 142.793 21.4156H157.894C158.772 21.4156 159.489 22.412 159.489 23.6459V24.1622C159.489 27.0585 161.074 27.0689 163.015 27.0689H197.931C199.893 27.0689 201.468 27.0689 201.468 24.1622V23.6459C201.468 22.412 202.175 21.4156 203.068 21.4156H218.169C222.382 21.4156 225.8 22.6495 225.8 31.1681L225.795 192.644Z" fill="#263238"/>
<path d="M225.8 31.3072V192.783C225.8 197.352 222.382 201.044 218.17 201.044H142.793C138.57 201.044 135.152 197.352 135.152 192.783V31.3072C135.152 22.0142 138.57 21.5547 142.793 21.5547H157.894C158.772 21.5547 159.49 22.5511 159.49 23.7902V24.3064C159.49 27.2028 161.075 27.2131 163.016 27.2131H197.926C199.888 27.2131 201.463 27.2131 201.463 24.3064V23.7902C201.463 22.5511 202.17 21.5547 203.063 21.5547H218.17C222.382 21.5547 225.8 22.7938 225.8 31.3072Z" fill="white"/>
<path opacity="0.1" d="M225.8 51.9277V192.789C225.8 197.353 222.382 201.049 218.17 201.049H142.793C138.57 201.049 135.152 197.358 135.152 192.789V87.0965C154.993 84.5513 174.906 113.525 193.378 104.986C210.276 97.1588 209.517 72.4188 215.79 61.1381C218.036 57.0611 221.551 53.8277 225.8 51.9277Z" fill="#FF8B7B"/>
<path opacity="0.2" d="M225.8 144.672V192.789C225.8 197.353 222.382 201.049 218.17 201.049H142.793C138.57 201.049 135.152 197.358 135.152 192.789V129.886C145.917 148.694 157.956 154.109 168.927 151.327C181.442 148.157 199.357 131.946 216.213 137.578C220.072 138.883 223.424 141.363 225.8 144.672Z" fill="#FF8B7B"/>
<path d="M185.241 23.4701H175.716C175.559 23.4701 175.41 23.4081 175.299 23.2977C175.189 23.1873 175.127 23.0376 175.127 22.8815C175.127 22.7254 175.189 22.5757 175.299 22.4654C175.41 22.355 175.559 22.293 175.716 22.293H185.241C185.397 22.293 185.547 22.355 185.657 22.4654C185.767 22.5757 185.829 22.7254 185.829 22.8815C185.829 23.0376 185.767 23.1873 185.657 23.2977C185.547 23.4081 185.397 23.4701 185.241 23.4701Z" fill="white"/>
<path d="M155.292 25.04L155.148 25.1846L155.065 25.2672C154.881 25.0816 154.662 24.9343 154.42 24.8338C154.179 24.7332 153.92 24.6815 153.658 24.6815C153.397 24.6815 153.138 24.7332 152.896 24.8338C152.655 24.9343 152.436 25.0816 152.251 25.2672L152.174 25.1846L152.029 25.04L152.215 24.8748C152.345 24.7681 152.487 24.6779 152.639 24.6064C152.818 24.5154 153.009 24.4511 153.206 24.4153C153.299 24.4153 153.392 24.4153 153.49 24.374H153.733H153.929C154.105 24.397 154.278 24.4385 154.445 24.4979C154.566 24.5446 154.684 24.5998 154.797 24.6631C154.917 24.7298 155.029 24.8095 155.132 24.9006L155.287 25.04H155.292Z" fill="#A6A6A6"/>
<path d="M152.717 25.727L152.484 25.4998C152.736 25.2423 153.067 25.0768 153.424 25.03C153.679 24.9905 153.94 25.012 154.185 25.0928C154.43 25.1735 154.652 25.3113 154.833 25.4946L154.601 25.727C154.478 25.6025 154.331 25.5038 154.169 25.4364C154.008 25.369 153.834 25.3343 153.659 25.3343C153.484 25.3343 153.31 25.369 153.149 25.4364C152.987 25.5038 152.84 25.6025 152.717 25.727Z" fill="#A6A6A6"/>
<path d="M154.368 25.9588L154.141 26.1859C154.078 26.1224 154.003 26.072 153.92 26.0376C153.837 26.0032 153.748 25.9855 153.658 25.9855C153.569 25.9855 153.48 26.0032 153.397 26.0376C153.314 26.072 153.239 26.1224 153.176 26.1859L152.943 25.9588C153.037 25.8645 153.147 25.7896 153.27 25.7385C153.392 25.6874 153.523 25.6611 153.656 25.6611C153.788 25.6611 153.92 25.6874 154.042 25.7385C154.164 25.7896 154.275 25.8645 154.368 25.9588Z" fill="#A6A6A6"/>
<path d="M153.862 26.3921C153.862 26.4329 153.85 26.4728 153.827 26.5068C153.805 26.5408 153.772 26.5672 153.735 26.5828C153.697 26.5985 153.655 26.6026 153.615 26.5946C153.575 26.5866 153.539 26.567 153.51 26.5381C153.481 26.5092 153.461 26.4724 153.453 26.4323C153.445 26.3923 153.449 26.3508 153.465 26.313C153.481 26.2753 153.507 26.243 153.541 26.2204C153.575 26.1977 153.615 26.1855 153.656 26.1855C153.683 26.1855 153.71 26.1909 153.735 26.2013C153.76 26.2116 153.783 26.2269 153.802 26.246C153.821 26.2652 153.836 26.288 153.847 26.313C153.857 26.3381 153.862 26.3649 153.862 26.3921Z" fill="#A6A6A6"/>
<path d="M141.068 25.4842C141.067 25.3643 141.102 25.2468 141.168 25.1467C141.234 25.0465 141.328 24.9683 141.439 24.922C141.549 24.8756 141.671 24.8632 141.789 24.8864C141.907 24.9095 142.015 24.9671 142.1 25.0519C142.184 25.1367 142.242 25.2448 142.265 25.3625C142.288 25.4801 142.276 25.602 142.229 25.7126C142.183 25.8232 142.105 25.9174 142.005 25.9834C141.905 26.0494 141.787 26.0841 141.667 26.0831C141.508 26.0831 141.356 26.02 141.244 25.9077C141.131 25.7953 141.068 25.643 141.068 25.4842Z" fill="#A6A6A6"/>
<path d="M142.959 25.4842C142.958 25.3645 142.993 25.2472 143.058 25.1472C143.124 25.0472 143.218 24.969 143.328 24.9225C143.439 24.876 143.56 24.8633 143.678 24.886C143.795 24.9087 143.903 24.9658 143.988 25.0501C144.073 25.1344 144.131 25.242 144.155 25.3593C144.179 25.4766 144.167 25.5983 144.122 25.709C144.076 25.8197 143.999 25.9143 143.899 25.9809C143.8 26.0475 143.683 26.0831 143.563 26.0831C143.404 26.0831 143.251 26.0202 143.138 25.908C143.025 25.7958 142.96 25.6435 142.959 25.4842Z" fill="#A6A6A6"/>
<path d="M144.859 25.4842C144.858 25.3643 144.893 25.2468 144.959 25.1467C145.025 25.0465 145.119 24.9683 145.23 24.922C145.34 24.8756 145.462 24.8632 145.58 24.8864C145.698 24.9095 145.806 24.9671 145.891 25.0519C145.975 25.1367 146.033 25.2448 146.056 25.3625C146.079 25.4801 146.067 25.602 146.02 25.7126C145.974 25.8232 145.896 25.9174 145.796 25.9834C145.696 26.0494 145.578 26.0841 145.458 26.0831C145.299 26.0831 145.147 26.02 145.035 25.9077C144.922 25.7953 144.859 25.643 144.859 25.4842Z" fill="#A6A6A6"/>
<path d="M146.742 25.4842C146.741 25.3645 146.776 25.2472 146.841 25.1472C146.907 25.0472 147.001 24.969 147.112 24.9225C147.222 24.876 147.343 24.8633 147.461 24.886C147.578 24.9087 147.687 24.9658 147.772 25.0501C147.857 25.1344 147.915 25.242 147.938 25.3593C147.962 25.4766 147.95 25.5983 147.905 25.709C147.859 25.8197 147.782 25.9143 147.682 25.9809C147.583 26.0475 147.466 26.0831 147.346 26.0831C147.187 26.0831 147.034 26.0202 146.921 25.908C146.808 25.7958 146.744 25.6435 146.742 25.4842Z" fill="#A6A6A6"/>
<path d="M148.637 25.4842C148.636 25.3643 148.67 25.2468 148.736 25.1467C148.802 25.0465 148.897 24.9683 149.007 24.922C149.118 24.8756 149.24 24.8632 149.357 24.8864C149.475 24.9095 149.583 24.9671 149.668 25.0519C149.753 25.1367 149.81 25.2448 149.833 25.3625C149.857 25.4801 149.844 25.602 149.798 25.7126C149.751 25.8232 149.673 25.9174 149.573 25.9834C149.473 26.0494 149.356 26.0841 149.236 26.0831C149.077 26.0831 148.924 26.02 148.812 25.9077C148.7 25.7953 148.637 25.643 148.637 25.4842Z" fill="#A6A6A6"/>
<path d="M219 26.7948H214.105V24.5283H219V26.7948ZM214.353 26.5418H218.742V24.7761H214.353V26.5418Z" fill="#A6A6A6"/>
<path d="M217.668 24.9111H214.514V26.4083H217.668V24.9111Z" fill="#A6A6A6"/>
<path d="M219.436 25.0557H219.002V26.2689H219.436V25.0557Z" fill="#A6A6A6"/>
<path d="M163.088 65.5108V66.9512H155.21V65.5108H158.509V55.5415C158.332 55.7788 158.116 55.9833 157.869 56.1455C157.219 56.6098 156.502 56.9703 155.742 57.2142C155.409 57.329 155.061 57.3917 154.709 57.4001V55.8513C155.119 55.839 155.52 55.7368 155.886 55.5518C156.307 55.3521 156.711 55.119 157.094 54.8548C157.431 54.6251 157.753 54.3751 158.06 54.1062C158.23 53.9763 158.378 53.8194 158.498 53.6416H160.125V65.4798L163.088 65.5108Z" fill="#A6A6A6"/>
<path d="M176.552 60.1367C176.561 61.0978 176.411 62.0539 176.108 62.9659C175.838 63.7762 175.426 64.5316 174.889 65.1962C174.385 65.8114 173.755 66.3114 173.041 66.6625C172.315 67.0051 171.521 67.1828 170.718 67.1828C169.915 67.1828 169.121 67.0051 168.395 66.6625C167.679 66.312 167.047 65.812 166.541 65.1962C166.005 64.5316 165.592 63.7762 165.323 62.9659C164.731 61.128 164.731 59.1506 165.323 57.3127C165.591 56.5019 166.004 55.7463 166.541 55.0824C167.047 54.4659 167.677 53.9628 168.39 53.6058C169.113 53.2534 169.908 53.0703 170.713 53.0703C171.518 53.0703 172.312 53.2534 173.036 53.6058C173.749 53.9628 174.379 54.4659 174.884 55.0824C175.422 55.7463 175.834 56.5019 176.103 57.3127C176.407 58.2227 176.559 59.177 176.552 60.1367ZM174.946 60.1367C174.956 59.3663 174.85 58.5987 174.631 57.8599C174.449 57.2267 174.154 56.6319 173.759 56.1046C173.404 55.6307 172.95 55.241 172.427 54.9636C171.898 54.6931 171.312 54.555 170.718 54.5609C170.116 54.5526 169.52 54.6908 168.983 54.9636C168.458 55.2394 168.001 55.6293 167.646 56.1046C167.255 56.6343 166.96 57.2284 166.774 57.8599C166.354 59.3505 166.354 60.9281 166.774 62.4187C166.96 63.0502 167.255 63.6443 167.646 64.174C168 64.6462 168.458 65.0311 168.983 65.2995C169.522 65.5682 170.116 65.7045 170.718 65.697C171.311 65.7022 171.897 65.5659 172.427 65.2995C172.95 65.0296 173.405 64.6448 173.759 64.174C174.154 63.6467 174.449 63.0519 174.631 62.4187C174.851 61.6782 174.957 60.9089 174.946 60.1367Z" fill="#A6A6A6"/>
<path d="M179.34 57.183V54.9062H180.692V57.183H179.34ZM179.34 66.951V64.6742H180.692V66.951H179.34Z" fill="#A6A6A6"/>
<path d="M190.177 61.4628C191.141 61.6006 192.017 62.0987 192.629 62.8568C193.256 63.6577 193.582 64.6538 193.548 65.6705C193.555 66.3302 193.425 66.9841 193.166 67.591C192.916 68.1614 192.542 68.6692 192.072 69.0779C191.573 69.5037 190.996 69.8281 190.373 70.033C189.665 70.264 188.924 70.3773 188.179 70.3686C187.104 70.3936 186.039 70.1505 185.081 69.6613C184.233 69.2193 183.535 68.5345 183.078 67.6943L184.173 66.6927C184.495 67.3726 185.012 67.9407 185.66 68.3241C186.426 68.7519 187.296 68.9608 188.174 68.9282C189.161 68.9849 190.134 68.6823 190.915 68.0763C191.255 67.774 191.521 67.3986 191.695 66.9782C191.868 66.5579 191.944 66.1037 191.917 65.6498C191.941 65.1774 191.862 64.7054 191.683 64.2673C191.505 63.8292 191.232 63.4357 190.884 63.1149C190.027 62.4422 188.951 62.1111 187.864 62.1856H187.281V60.8381H187.91C188.894 60.9026 189.868 60.6093 190.652 60.0121C190.962 59.7477 191.209 59.417 191.374 59.0444C191.54 58.6717 191.619 58.2667 191.607 57.8592C191.615 57.4338 191.526 57.012 191.349 56.6253C191.183 56.2781 190.942 55.9727 190.642 55.7321C190.323 55.4834 189.961 55.2977 189.573 55.1849C189.134 55.0659 188.68 55.012 188.225 55.0249C187.406 55.0076 186.598 55.2128 185.887 55.6186C185.216 55.9944 184.676 56.5652 184.338 57.2552L183.305 56.2794C183.499 55.8662 183.767 55.4917 184.095 55.1746C184.441 54.8396 184.832 54.5546 185.257 54.3279C185.714 54.0869 186.2 53.9032 186.702 53.7806C187.235 53.65 187.781 53.5842 188.329 53.5844C188.995 53.5763 189.657 53.6774 190.291 53.8839C190.856 54.0669 191.382 54.356 191.839 54.7357C192.276 55.0913 192.629 55.5391 192.872 56.0471C193.114 56.5802 193.236 57.1602 193.228 57.7456C193.231 58.1995 193.161 58.6508 193.022 59.0828C192.889 59.4959 192.685 59.8822 192.418 60.2238C192.149 60.5591 191.822 60.8425 191.452 61.0601C191.058 61.2773 190.624 61.4141 190.177 61.4628Z" fill="#A6A6A6"/>
<path d="M202.898 69.904V65.7738H195.154V64.3799L203.415 53.6826H204.483V64.3179H206.549V65.7583H204.483V69.8885L202.898 69.904ZM196.827 64.3179H203.058V56.1607L196.827 64.3179Z" fill="#A6A6A6"/>
<path d="M160.615 74.0754H158.906V78.4586H158.431V74.0754H156.732V73.6572H160.625L160.615 74.0754Z" fill="#A6A6A6"/>
<path d="M161.617 78.5256C161.455 78.5382 161.292 78.5098 161.143 78.4431C160.994 78.3763 160.864 78.2734 160.765 78.1436C160.552 77.8031 160.452 77.4035 160.482 77.0026V74.9375H160.941V76.9303C160.941 77.7254 161.215 78.1281 161.762 78.1281C161.897 78.1263 162.031 78.1037 162.159 78.061C162.29 78.0154 162.412 77.9492 162.521 77.8648C162.633 77.7765 162.734 77.6741 162.82 77.5602C162.911 77.4375 162.982 77.3017 163.032 77.1575V74.9375H163.491V77.8699C163.491 77.9939 163.548 78.061 163.657 78.061V78.4637H163.522H163.445C163.395 78.4624 163.347 78.4513 163.301 78.4309C163.256 78.4105 163.215 78.3813 163.182 78.3449C163.147 78.3057 163.12 78.26 163.103 78.2103C163.086 78.1606 163.08 78.1081 163.084 78.0558V77.6531C162.936 77.9138 162.722 78.1308 162.464 78.2822C162.206 78.4337 161.912 78.5141 161.612 78.5153L161.617 78.5256Z" fill="#A6A6A6"/>
<path d="M166.057 78.5261C165.82 78.5293 165.585 78.4827 165.367 78.3894C165.149 78.296 164.953 78.1579 164.792 77.984C164.633 77.8131 164.509 77.6133 164.425 77.3955C164.246 76.9427 164.246 76.4388 164.425 75.986C164.509 75.7742 164.632 75.5799 164.787 75.413C164.945 75.2465 165.134 75.1131 165.344 75.0206C165.568 74.9252 165.809 74.876 166.052 74.876C166.295 74.876 166.535 74.9252 166.759 75.0206C166.967 75.1133 167.154 75.2487 167.306 75.4181C167.461 75.585 167.584 75.7794 167.668 75.9912C167.753 76.2119 167.797 76.4464 167.797 76.683V76.7863C167.801 76.8119 167.801 76.8381 167.797 76.8637H164.782C164.794 77.0427 164.839 77.2178 164.916 77.38C164.984 77.5355 165.08 77.6773 165.2 77.7982C165.316 77.9134 165.453 78.0062 165.602 78.0718C165.756 78.1384 165.921 78.1718 166.088 78.1699C166.201 78.17 166.314 78.1544 166.423 78.1234C166.534 78.0944 166.639 78.051 166.738 77.9944C166.834 77.9423 166.919 77.8742 166.991 77.793C167.067 77.72 167.127 77.6321 167.167 77.5349L167.57 77.6433C167.512 77.7738 167.433 77.8941 167.337 77.9995C167.124 78.2176 166.857 78.376 166.563 78.459C166.398 78.5031 166.228 78.5257 166.057 78.5261ZM167.353 76.5126C167.343 76.3338 167.3 76.1585 167.224 75.9964C167.156 75.8451 167.059 75.7083 166.94 75.5937C166.825 75.4806 166.69 75.3896 166.542 75.3252C166.388 75.2633 166.223 75.2317 166.057 75.2323C165.892 75.2302 165.729 75.2611 165.576 75.3232C165.424 75.3853 165.285 75.4772 165.169 75.5937C165.049 75.7068 164.954 75.844 164.89 75.9964C164.817 76.1592 164.775 76.3343 164.766 76.5126H167.353Z" fill="#A6A6A6"/>
<path d="M169.675 78.5263C169.401 78.5254 169.129 78.48 168.87 78.3921C168.62 78.3093 168.389 78.1757 168.193 77.9997L168.405 77.6899C168.587 77.842 168.79 77.9656 169.009 78.0565C169.22 78.136 169.444 78.1762 169.67 78.1752C169.907 78.1871 170.143 78.1278 170.346 78.0049C170.427 77.9521 170.493 77.8791 170.538 77.7931C170.582 77.7071 170.603 77.6111 170.599 77.5144C170.604 77.4268 170.58 77.34 170.532 77.2666C170.482 77.193 170.415 77.1327 170.336 77.0911C170.229 77.0358 170.117 76.9925 170 76.962C169.871 76.9207 169.716 76.8845 169.541 76.8432C169.365 76.8019 169.159 76.7451 169.025 76.6935C168.895 76.6544 168.771 76.5971 168.658 76.5231C168.566 76.4673 168.491 76.3868 168.441 76.2908C168.39 76.1828 168.366 76.0643 168.369 75.9449C168.366 75.7818 168.403 75.6205 168.477 75.4751C168.546 75.3433 168.643 75.2286 168.761 75.1395C168.888 75.0498 169.03 74.9834 169.179 74.9433C169.347 74.8964 169.521 74.8738 169.696 74.8762C169.948 74.8723 170.198 74.9161 170.434 75.0053C170.629 75.084 170.805 75.2038 170.95 75.3564L170.728 75.6248C170.596 75.488 170.433 75.3837 170.253 75.3202C170.065 75.2522 169.865 75.2173 169.665 75.217C169.552 75.217 169.439 75.2309 169.329 75.2583C169.231 75.2797 169.138 75.3201 169.056 75.377C168.975 75.426 168.91 75.4979 168.87 75.5835C168.822 75.6741 168.799 75.7755 168.803 75.8778C168.799 75.9562 168.815 76.0342 168.849 76.105C168.885 76.1699 168.939 76.2235 169.004 76.2598C169.091 76.3064 169.183 76.3444 169.278 76.3734L169.68 76.4767C169.907 76.5335 170.104 76.5851 170.274 76.6419C170.424 76.6844 170.569 76.7469 170.702 76.8277C170.811 76.8921 170.901 76.9826 170.966 77.0911C171.026 77.2092 171.056 77.3405 171.054 77.4731C171.061 77.6254 171.03 77.7772 170.963 77.9143C170.896 78.0515 170.796 78.1696 170.671 78.2578C170.378 78.4549 170.028 78.5493 169.675 78.5263Z" fill="#A6A6A6"/>
<path d="M173.254 78.5262C173.02 78.528 172.788 78.4768 172.577 78.3764C172.381 78.276 172.206 78.1393 172.061 77.9737C171.912 77.8035 171.794 77.6076 171.715 77.3955C171.631 77.1763 171.587 76.9436 171.586 76.7089C171.585 76.4676 171.627 76.228 171.71 76.0016C171.785 75.7883 171.899 75.5905 172.045 75.4182C172.187 75.2499 172.363 75.1142 172.562 75.0206C172.763 74.9225 172.984 74.873 173.207 74.8761C173.49 74.8712 173.767 74.9522 174.002 75.1084C174.213 75.2567 174.389 75.4486 174.518 75.6712V73.5234H174.978V77.8653C174.978 77.9892 175.035 78.0563 175.143 78.0563V78.459C175.088 78.4651 175.033 78.4651 174.978 78.459C174.874 78.4584 174.774 78.422 174.694 78.3558C174.657 78.3246 174.627 78.2859 174.607 78.2422C174.587 78.1986 174.576 78.151 174.575 78.1028V77.7569C174.436 77.9853 174.241 78.1738 174.007 78.3042C173.78 78.443 173.52 78.5196 173.254 78.5262ZM173.352 78.1235C173.475 78.1203 173.597 78.0977 173.713 78.0563C173.844 78.0104 173.967 77.9461 174.08 77.8653C174.188 77.7891 174.283 77.6968 174.364 77.5917C174.439 77.4918 174.489 77.3747 174.508 77.251V76.1616C174.464 76.0354 174.398 75.9182 174.312 75.8157C174.227 75.71 174.128 75.6163 174.018 75.5369C173.911 75.4564 173.792 75.392 173.667 75.3459C173.547 75.3045 173.421 75.2819 173.295 75.2788C173.115 75.2762 172.938 75.3188 172.779 75.4027C172.627 75.4827 172.492 75.5914 172.381 75.7228C172.271 75.8604 172.186 76.0158 172.128 76.1823C172.072 76.3486 172.042 76.5229 172.04 76.6985C172.041 76.884 172.076 77.0678 172.144 77.2406C172.208 77.4064 172.302 77.5587 172.422 77.6898C172.538 77.8182 172.679 77.9218 172.835 77.9944C172.994 78.0753 173.169 78.1195 173.346 78.1235H173.352Z" fill="#A6A6A6"/>
<path d="M176.893 78.526C176.584 78.5328 176.284 78.42 176.056 78.211C175.953 78.1098 175.869 77.9909 175.808 77.86C175.75 77.7246 175.72 77.5788 175.721 77.4315C175.72 77.2817 175.757 77.1343 175.829 77.003C175.905 76.8699 176.009 76.7553 176.134 76.6674C176.277 76.568 176.436 76.493 176.604 76.4454C176.797 76.392 176.997 76.3659 177.197 76.3679C177.381 76.3682 177.564 76.3838 177.745 76.4144C177.921 76.4419 178.094 76.4886 178.261 76.5538V76.2337C178.273 75.9626 178.179 75.6973 177.997 75.4954C177.902 75.4002 177.787 75.3262 177.661 75.2782C177.534 75.2302 177.399 75.2092 177.264 75.2166C177.075 75.2207 176.888 75.2574 176.712 75.3251C176.507 75.4068 176.313 75.5125 176.134 75.64L175.974 75.3354C176.359 75.0508 176.822 74.8905 177.301 74.8759C177.489 74.8662 177.677 74.8941 177.854 74.958C178.031 75.0218 178.194 75.1202 178.333 75.2476C178.465 75.3841 178.566 75.5462 178.632 75.7239C178.698 75.9016 178.726 76.091 178.715 76.2802V77.8703C178.715 77.9942 178.772 78.0613 178.885 78.0613V78.464C178.825 78.4697 178.765 78.4697 178.705 78.464C178.606 78.4685 178.509 78.4373 178.431 78.3762C178.399 78.3447 178.373 78.307 178.355 78.2653C178.337 78.2237 178.328 78.1789 178.328 78.1336V77.8548C178.169 78.0658 177.96 78.2329 177.719 78.3401C177.461 78.4641 177.179 78.5277 176.893 78.526ZM177.001 78.1749C177.228 78.1764 177.453 78.1307 177.662 78.0407C177.843 77.9624 177.999 77.8377 178.116 77.6793C178.156 77.6435 178.188 77.5994 178.209 77.5502C178.229 77.5081 178.239 77.4624 178.24 77.416V76.8429C178.084 76.7849 177.923 76.74 177.76 76.7087C177.59 76.6767 177.417 76.6611 177.244 76.6622C176.965 76.6503 176.688 76.7203 176.449 76.8636C176.358 76.9168 176.283 76.9921 176.23 77.0824C176.176 77.1727 176.147 77.275 176.144 77.3798C176.145 77.485 176.168 77.5887 176.211 77.6844C176.251 77.7786 176.311 77.8631 176.387 77.9322C176.464 78.0049 176.555 78.0611 176.655 78.0975C176.764 78.1467 176.882 78.173 177.001 78.1749Z" fill="#A6A6A6"/>
<path d="M179.81 79.5435H179.913H180.012C180.077 79.5464 180.142 79.5359 180.203 79.5126C180.261 79.4757 180.309 79.424 180.342 79.3628C180.402 79.257 180.454 79.1465 180.497 79.0324C180.554 78.8879 180.631 78.6917 180.734 78.449L179.186 74.9229H179.655L180.962 78.0205L182.175 74.9229H182.614L180.786 79.4713C180.736 79.6053 180.65 79.7231 180.538 79.812C180.405 79.9161 180.237 79.9675 180.068 79.9566H179.965H179.821L179.81 79.5435Z" fill="#A6A6A6"/>
<path d="M183.022 79.0059L183.135 78.438H182.98V77.7979H183.43V78.438L183.259 79.0059H183.022Z" fill="#A6A6A6"/>
<path d="M189.47 76.8794C189.467 77.0987 189.42 77.3151 189.331 77.5156C189.242 77.7161 189.114 77.8966 188.954 78.0462C188.798 78.1976 188.613 78.3168 188.411 78.3973C188.201 78.4851 187.974 78.529 187.745 78.5264C187.506 78.5291 187.269 78.4816 187.048 78.387C186.839 78.2979 186.653 78.1639 186.501 77.9946C186.342 77.8081 186.221 77.5924 186.145 77.3596C186.057 77.0878 186.014 76.8037 186.016 76.518C186.012 76.0895 186.055 75.6618 186.145 75.2428C186.214 74.9236 186.336 74.6182 186.506 74.3394C186.649 74.1259 186.84 73.949 187.064 73.8231C187.289 73.7059 187.539 73.6456 187.792 73.6475C188.094 73.6444 188.391 73.7268 188.649 73.885C188.9 74.0425 189.1 74.2705 189.222 74.5407L188.928 74.8143C188.837 74.5893 188.68 74.3967 188.479 74.2619C188.277 74.123 188.037 74.0508 187.792 74.0554C187.602 74.0524 187.415 74.1005 187.25 74.1948C187.08 74.298 186.937 74.4395 186.832 74.6078C186.708 74.8109 186.618 75.0322 186.563 75.2635C186.494 75.5543 186.461 75.8526 186.465 76.1515C186.563 75.889 186.744 75.666 186.981 75.5165C187.225 75.357 187.511 75.2742 187.802 75.279C188.24 75.2742 188.661 75.4432 188.974 75.7488C189.122 75.8976 189.241 76.0727 189.325 76.2651C189.412 76.4588 189.461 76.6673 189.47 76.8794ZM187.776 78.1237C187.943 78.123 188.108 78.0897 188.262 78.0256C188.41 77.9612 188.544 77.8702 188.659 77.7571C188.774 77.6424 188.867 77.5076 188.933 77.3596C188.997 77.2076 189.03 77.0444 189.031 76.8794C189.032 76.7121 188.997 76.5466 188.928 76.3941C188.861 76.2461 188.769 76.1113 188.654 75.9966C188.539 75.8835 188.404 75.7925 188.257 75.7281C188.103 75.6644 187.938 75.6311 187.771 75.63C187.605 75.6307 187.44 75.6641 187.286 75.7281C187.138 75.7925 187.003 75.8835 186.888 75.9966C186.774 76.1113 186.681 76.2461 186.615 76.3941C186.55 76.5478 186.517 76.7128 186.517 76.8794C186.517 77.045 186.552 77.2087 186.62 77.3596C186.688 77.5053 186.78 77.6381 186.894 77.7519C187.009 77.8679 187.146 77.9607 187.296 78.0256C187.448 78.0898 187.611 78.1231 187.776 78.1237Z" fill="#A6A6A6"/>
<path d="M196.346 78.4586V74.5142L194.596 77.5654H194.317L192.567 74.5142V78.4586H192.092V73.6572H192.577L194.451 76.9459L196.341 73.6572H196.821V78.4586H196.346Z" fill="#A6A6A6"/>
<path d="M198.783 78.526C198.474 78.5328 198.175 78.42 197.947 78.211C197.844 78.1098 197.76 77.9909 197.699 77.86C197.641 77.7246 197.611 77.5788 197.611 77.4315C197.611 77.2817 197.648 77.1343 197.72 77.003C197.795 76.8699 197.899 76.7553 198.024 76.6674C198.168 76.568 198.326 76.493 198.494 76.4454C198.688 76.392 198.887 76.3659 199.088 76.3679C199.271 76.3682 199.454 76.3838 199.635 76.4144C199.812 76.4419 199.985 76.4886 200.151 76.5538V76.2337C200.164 75.9626 200.07 75.6973 199.888 75.4954C199.792 75.4002 199.677 75.3262 199.551 75.2782C199.425 75.2302 199.29 75.2092 199.155 75.2166C198.966 75.2207 198.779 75.2574 198.603 75.3251C198.398 75.4068 198.204 75.5125 198.024 75.64L197.864 75.3354C198.25 75.0508 198.712 74.8905 199.191 74.8759C199.379 74.8662 199.568 74.8941 199.745 74.958C199.922 75.0218 200.085 75.1202 200.224 75.2476C200.355 75.3841 200.457 75.5462 200.523 75.7239C200.588 75.9016 200.617 76.091 200.606 76.2802V77.8703C200.606 77.9942 200.663 78.0613 200.776 78.0613V78.464C200.716 78.4697 200.656 78.4697 200.595 78.464C200.497 78.4685 200.4 78.4373 200.322 78.3762C200.289 78.3447 200.263 78.307 200.246 78.2653C200.228 78.2237 200.219 78.1789 200.219 78.1336V77.8548C200.06 78.0658 199.85 78.2329 199.609 78.3401C199.352 78.4641 199.069 78.5277 198.783 78.526ZM198.892 78.1749C199.119 78.1764 199.344 78.1307 199.553 78.0407C199.734 77.964 199.891 77.839 200.007 77.6793C200.047 77.6435 200.078 77.5994 200.1 77.5502C200.119 77.5081 200.13 77.4624 200.131 77.416V76.8429C199.975 76.7849 199.814 76.74 199.651 76.7087C199.48 76.6767 199.308 76.6611 199.134 76.6622C198.855 76.6503 198.579 76.7203 198.339 76.8636C198.249 76.9168 198.174 76.9921 198.12 77.0824C198.067 77.1727 198.038 77.275 198.035 77.3798C198.035 77.485 198.058 77.5887 198.102 77.6844C198.142 77.7786 198.202 77.8631 198.277 77.9322C198.355 78.0049 198.446 78.0611 198.546 78.0975C198.655 78.1467 198.772 78.173 198.892 78.1749Z" fill="#A6A6A6"/>
<path d="M201.701 79.5435H201.804H201.902C201.967 79.5464 202.032 79.5359 202.093 79.5126C202.153 79.4771 202.202 79.4251 202.233 79.3628C202.293 79.257 202.345 79.1465 202.388 79.0324C202.444 78.8879 202.522 78.6917 202.625 78.449L201.076 74.9229H201.546L202.852 78.0205L204.065 74.9229H204.504L202.682 79.4816C202.632 79.6156 202.546 79.7335 202.434 79.8223C202.3 79.9264 202.133 79.9778 201.964 79.9669H201.835H201.691L201.701 79.5435Z" fill="#A6A6A6"/>
<path d="M214.039 192.66C213.327 192.66 212.621 192.521 211.962 192.248C211.303 191.976 210.705 191.576 210.201 191.072C209.697 190.568 209.297 189.97 209.025 189.311C208.752 188.652 208.613 187.946 208.613 187.234C208.613 185.795 209.185 184.414 210.203 183.397C211.22 182.379 212.6 181.808 214.039 181.808C215.478 181.809 216.856 182.381 217.873 183.399C218.889 184.416 219.46 185.795 219.46 187.234C219.461 187.946 219.321 188.651 219.049 189.31C218.777 189.968 218.378 190.566 217.874 191.07C217.371 191.574 216.773 191.974 216.115 192.247C215.457 192.519 214.752 192.66 214.039 192.66Z" fill="#FF8B7B"/>
<path d="M217.317 185.602H210.703V189.644H217.317V185.602Z" fill="white"/>
<path d="M215.654 185.602H212.365L212.69 184.827H215.329L215.654 185.602Z" fill="white"/>
<path d="M215.545 187.621C215.545 187.927 215.454 188.227 215.284 188.482C215.114 188.736 214.872 188.935 214.589 189.052C214.306 189.169 213.994 189.2 213.694 189.14C213.393 189.08 213.118 188.933 212.901 188.716C212.684 188.5 212.537 188.224 212.477 187.923C212.417 187.623 212.448 187.311 212.565 187.028C212.682 186.745 212.881 186.503 213.136 186.333C213.39 186.163 213.69 186.072 213.996 186.072C214.407 186.072 214.801 186.235 215.091 186.526C215.382 186.816 215.545 187.21 215.545 187.621Z" fill="#FF8B7B"/>
<path d="M215.202 187.62C215.203 187.856 215.133 188.088 215.003 188.285C214.872 188.481 214.686 188.635 214.468 188.726C214.25 188.817 214.009 188.841 213.778 188.795C213.546 188.749 213.333 188.636 213.166 188.469C212.999 188.301 212.885 188.088 212.839 187.857C212.793 187.625 212.817 187.385 212.908 187.166C212.999 186.948 213.153 186.762 213.35 186.631C213.547 186.501 213.778 186.432 214.014 186.433C214.329 186.433 214.631 186.558 214.854 186.78C215.076 187.003 215.202 187.305 215.202 187.62Z" fill="white"/>
<path d="M216.93 185.943H216.295V186.31H216.93V185.943Z" fill="#FF8B7B"/>
<path d="M211.556 185.303H210.926V185.483H211.556V185.303Z" fill="white"/>
<path d="M146.494 192.66C145.782 192.66 145.076 192.521 144.417 192.248C143.759 191.976 143.16 191.576 142.656 191.072C142.152 190.568 141.752 189.97 141.48 189.311C141.208 188.652 141.068 187.946 141.068 187.234C141.068 185.795 141.64 184.414 142.658 183.397C143.675 182.379 145.055 181.808 146.494 181.808C147.933 181.809 149.312 182.381 150.33 183.398C151.347 184.416 151.919 185.795 151.92 187.234C151.92 188.673 151.349 190.053 150.331 191.07C149.314 192.088 147.934 192.66 146.494 192.66Z" fill="#FF8B7B"/>
<path d="M147.79 186.459H145.131V190.904H147.79V186.459Z" fill="white"/>
<path d="M148.522 184.399V185.427L147.846 186.227H145.074L144.402 185.427V184.399H148.522Z" fill="white"/>
<path d="M148.522 183.567H144.402V184.156H148.522V183.567Z" fill="white"/>
<path d="M180.434 152.849C185.963 152.849 190.445 148.367 190.445 142.839C190.445 137.31 185.963 132.828 180.434 132.828C174.906 132.828 170.424 137.31 170.424 142.839C170.424 148.367 174.906 152.849 180.434 152.849Z" fill="#383838"/>
<path d="M184.757 162.308C185.343 159.924 183.885 157.517 181.501 156.931C179.117 156.345 176.71 157.802 176.124 160.186C175.538 162.57 176.995 164.978 179.379 165.564C181.763 166.15 184.171 164.692 184.757 162.308Z" fill="#383838"/>
<path d="M182.747 173.294C182.747 173.752 182.611 174.199 182.357 174.579C182.103 174.96 181.742 175.256 181.319 175.431C180.896 175.606 180.431 175.652 179.983 175.563C179.534 175.474 179.122 175.253 178.799 174.93C178.475 174.606 178.255 174.194 178.166 173.746C178.076 173.297 178.122 172.832 178.297 172.409C178.472 171.987 178.769 171.625 179.149 171.371C179.529 171.117 179.977 170.981 180.434 170.981C181.047 170.981 181.636 171.225 182.069 171.659C182.503 172.093 182.747 172.681 182.747 173.294Z" fill="#383838"/>
<path d="M183.889 139.421V143.143H182.856V139.421C182.883 139.09 182.84 138.757 182.732 138.443C182.624 138.129 182.451 137.841 182.226 137.596C182.001 137.352 181.727 137.157 181.423 137.024C181.119 136.891 180.79 136.822 180.458 136.822C180.126 136.822 179.797 136.891 179.493 137.024C179.189 137.157 178.915 137.352 178.69 137.596C178.465 137.841 178.292 138.129 178.184 138.443C178.075 138.757 178.033 139.09 178.06 139.421V143.143H177.027V139.421C176.996 138.948 177.061 138.474 177.22 138.028C177.38 137.582 177.629 137.173 177.952 136.827C178.276 136.481 178.667 136.205 179.102 136.016C179.536 135.828 180.005 135.73 180.479 135.73C180.952 135.73 181.421 135.828 181.856 136.016C182.29 136.205 182.681 136.481 183.005 136.827C183.329 137.173 183.578 137.582 183.737 138.028C183.896 138.474 183.962 138.948 183.93 139.421H183.889Z" fill="white"/>
<path d="M175.639 140.8V148.988H185.236V140.8H175.639ZM181.245 146.861H179.537L179.939 144.956C179.817 144.878 179.716 144.772 179.646 144.646C179.576 144.519 179.538 144.378 179.537 144.233C179.553 144.018 179.651 143.817 179.809 143.67C179.967 143.524 180.175 143.442 180.391 143.442C180.607 143.442 180.815 143.524 180.973 143.67C181.131 143.817 181.229 144.018 181.245 144.233C181.244 144.378 181.206 144.519 181.136 144.646C181.066 144.772 180.965 144.878 180.843 144.956L181.245 146.861Z" fill="white"/>
</svg>
