<svg width="100" height="100" viewBox="0 0 100 100" fill="none" xmlns="http://www.w3.org/2000/svg">
<path d="M50 15C48.0109 15 46.1032 15.7902 44.6967 17.1967C43.2902 18.6032 42.5 20.5109 42.5 22.5C42.5 24.4891 43.2902 26.3968 44.6967 27.8033C46.1032 29.2098 48.0109 30 50 30C51.9891 30 53.8968 29.2098 55.3033 27.8033C56.7098 26.3968 57.5 24.4891 57.5 22.5C57.5 20.5109 56.7098 18.6032 55.3033 17.1967C53.8968 15.7902 51.9891 15 50 15ZM37.5 22.5C37.5 19.1848 38.817 16.0054 41.1612 13.6612C43.5054 11.317 46.6848 10 50 10C53.3152 10 56.4946 11.317 58.8388 13.6612C61.183 16.0054 62.5 19.1848 62.5 22.5C62.5 25.8152 61.183 28.9946 58.8388 31.3388C56.4946 33.683 53.3152 35 50 35C46.6848 35 43.5054 33.683 41.1612 31.3388C38.817 28.9946 37.5 25.8152 37.5 22.5ZM77.5 20C76.1739 20 74.9021 20.5268 73.9645 21.4645C73.0268 22.4021 72.5 23.6739 72.5 25C72.5 26.3261 73.0268 27.5979 73.9645 28.5355C74.9021 29.4732 76.1739 30 77.5 30C78.8261 30 80.0979 29.4732 81.0355 28.5355C81.9732 27.5979 82.5 26.3261 82.5 25C82.5 23.6739 81.9732 22.4021 81.0355 21.4645C80.0979 20.5268 78.8261 20 77.5 20ZM67.5 25C67.5 22.3478 68.5536 19.8043 70.4289 17.9289C72.3043 16.0536 74.8478 15 77.5 15C80.1522 15 82.6957 16.0536 84.5711 17.9289C86.4464 19.8043 87.5 22.3478 87.5 25C87.5 27.6522 86.4464 30.1957 84.5711 32.0711C82.6957 33.9464 80.1522 35 77.5 35C74.8478 35 72.3043 33.9464 70.4289 32.0711C68.5536 30.1957 67.5 27.6522 67.5 25ZM17.5 25C17.5 23.6739 18.0268 22.4021 18.9645 21.4645C19.9021 20.5268 21.1739 20 22.5 20C23.8261 20 25.0979 20.5268 26.0355 21.4645C26.9732 22.4021 27.5 23.6739 27.5 25C27.5 26.3261 26.9732 27.5979 26.0355 28.5355C25.0979 29.4732 23.8261 30 22.5 30C21.1739 30 19.9021 29.4732 18.9645 28.5355C18.0268 27.5979 17.5 26.3261 17.5 25ZM22.5 15C19.8478 15 17.3043 16.0536 15.4289 17.9289C13.5536 19.8043 12.5 22.3478 12.5 25C12.5 27.6522 13.5536 30.1957 15.4289 32.0711C17.3043 33.9464 19.8478 35 22.5 35C25.1522 35 27.6957 33.9464 29.5711 32.0711C31.4464 30.1957 32.5 27.6522 32.5 25C32.5 22.3478 31.4464 19.8043 29.5711 17.9289C27.6957 16.0536 25.1522 15 22.5 15ZM25.5 74.99C24.1462 75.0578 22.7927 74.8496 21.5218 74.3781C20.2509 73.9066 19.0891 73.1817 18.1071 72.2473C17.125 71.313 16.3432 70.1887 15.809 68.9428C15.2749 67.697 14.9997 66.3555 15 65V46.25C15 45.9185 15.1317 45.6005 15.3661 45.3661C15.6005 45.1317 15.9185 45 16.25 45H25.07C25.27 43.165 25.92 41.46 26.895 40H16.25C12.8 40 10 42.8 10 46.25V65C9.99977 67.1406 10.4577 69.2565 11.343 71.2054C12.2283 73.1543 13.5205 74.8912 15.1328 76.2993C16.745 77.7074 18.64 78.7542 20.6903 79.3692C22.7407 79.9842 24.8989 80.1533 27.02 79.865C26.347 78.2966 25.8377 76.6629 25.5 74.99ZM72.98 79.865C75.1011 80.1533 77.2593 79.9842 79.3097 79.3692C81.36 78.7542 83.255 77.7074 84.8672 76.2993C86.4795 74.8912 87.7717 73.1543 88.657 71.2054C89.5423 69.2565 90.0002 67.1406 90 65V46.25C90 42.8 87.2 40 83.75 40H73.105C74.085 41.46 74.73 43.165 74.93 45H83.75C84.0815 45 84.3995 45.1317 84.6339 45.3661C84.8683 45.6005 85 45.9185 85 46.25V65C85.0003 66.3555 84.7251 67.697 84.191 68.9428C83.6568 70.1887 82.875 71.313 81.8929 72.2473C80.9109 73.1817 79.7491 73.9066 78.4782 74.3781C77.2073 74.8496 75.8538 75.0578 74.5 74.99C74.1622 76.6629 73.6529 78.2966 72.98 79.865ZM36.25 40C32.8 40 30 42.8 30 46.25V70C30 75.3043 32.1071 80.3914 35.8579 84.1421C39.6086 87.8929 44.6957 90 50 90C55.3043 90 60.3914 87.8929 64.1421 84.1421C67.8929 80.3914 70 75.3043 70 70V46.25C70 42.8 67.2 40 63.75 40H36.25ZM35 46.25C35 45.9185 35.1317 45.6005 35.3661 45.3661C35.6005 45.1317 35.9185 45 36.25 45H63.75C64.0815 45 64.3995 45.1317 64.6339 45.3661C64.8683 45.6005 65 45.9185 65 46.25V70C65 73.9782 63.4197 77.7936 60.6066 80.6066C57.7936 83.4196 53.9782 85 50 85C46.0218 85 42.2064 83.4196 39.3934 80.6066C36.5804 77.7936 35 73.9782 35 70V46.25Z" fill="#383838"/>
</svg>
