<svg width="372" height="279" viewBox="0 0 372 279" fill="none" xmlns="http://www.w3.org/2000/svg">
<rect width="372" height="279" fill="url(#paint0_linear_1345_6001)"/>
<path d="M32.9886 84.0909H41.2557L49.2159 99.125H49.5568L57.517 84.0909H65.7841L53.0511 106.659V119H45.7216V106.659L32.9886 84.0909ZM76.0241 119.511C73.3764 119.511 71.0866 118.949 69.1548 117.824C67.2344 116.687 65.7514 115.108 64.706 113.085C63.6605 111.051 63.1378 108.693 63.1378 106.011C63.1378 103.307 63.6605 100.943 64.706 98.9205C65.7514 96.8864 67.2344 95.3068 69.1548 94.1818C71.0866 93.0455 73.3764 92.4773 76.0241 92.4773C78.6719 92.4773 80.956 93.0455 82.8764 94.1818C84.8082 95.3068 86.2969 96.8864 87.3423 98.9205C88.3878 100.943 88.9105 103.307 88.9105 106.011C88.9105 108.693 88.3878 111.051 87.3423 113.085C86.2969 115.108 84.8082 116.687 82.8764 117.824C80.956 118.949 78.6719 119.511 76.0241 119.511ZM76.0582 113.886C77.2628 113.886 78.2685 113.545 79.0753 112.864C79.8821 112.17 80.4901 111.227 80.8991 110.034C81.3196 108.841 81.5298 107.483 81.5298 105.96C81.5298 104.438 81.3196 103.08 80.8991 101.886C80.4901 100.693 79.8821 99.75 79.0753 99.0568C78.2685 98.3636 77.2628 98.017 76.0582 98.017C74.8423 98.017 73.8196 98.3636 72.9901 99.0568C72.1719 99.75 71.5526 100.693 71.1321 101.886C70.723 103.08 70.5185 104.438 70.5185 105.96C70.5185 107.483 70.723 108.841 71.1321 110.034C71.5526 111.227 72.1719 112.17 72.9901 112.864C73.8196 113.545 74.8423 113.886 76.0582 113.886ZM110.422 107.852V92.8182H117.683V119H110.712V114.244H110.439C109.848 115.778 108.865 117.011 107.49 117.943C106.126 118.875 104.462 119.341 102.496 119.341C100.746 119.341 99.206 118.943 97.8764 118.148C96.5469 117.352 95.5071 116.222 94.7571 114.756C94.0185 113.29 93.6435 111.534 93.6321 109.489V92.8182H100.893V108.193C100.905 109.739 101.32 110.96 102.138 111.858C102.956 112.756 104.053 113.205 105.428 113.205C106.303 113.205 107.121 113.006 107.882 112.608C108.643 112.199 109.257 111.597 109.723 110.801C110.2 110.006 110.433 109.023 110.422 107.852ZM123.491 119V92.8182H130.531V97.3864H130.804C131.281 95.7614 132.082 94.5341 133.207 93.7045C134.332 92.8636 135.628 92.4432 137.094 92.4432C137.457 92.4432 137.849 92.4659 138.27 92.5114C138.69 92.5568 139.06 92.6193 139.378 92.6989V99.142C139.037 99.0398 138.565 98.9489 137.963 98.8693C137.361 98.7898 136.81 98.75 136.31 98.75C135.241 98.75 134.287 98.983 133.446 99.4489C132.616 99.9034 131.957 100.54 131.469 101.358C130.991 102.176 130.753 103.119 130.753 104.188V119H123.491ZM164.916 100.284L158.268 100.693C158.155 100.125 157.911 99.6136 157.536 99.1591C157.161 98.6932 156.666 98.3239 156.053 98.0511C155.45 97.767 154.729 97.625 153.888 97.625C152.763 97.625 151.814 97.8636 151.041 98.3409C150.268 98.8068 149.882 99.4318 149.882 100.216C149.882 100.841 150.132 101.369 150.632 101.801C151.132 102.233 151.99 102.58 153.206 102.841L157.945 103.795C160.49 104.318 162.388 105.159 163.638 106.318C164.888 107.477 165.513 109 165.513 110.886C165.513 112.602 165.007 114.108 163.996 115.403C162.996 116.699 161.621 117.71 159.871 118.438C158.132 119.153 156.126 119.511 153.854 119.511C150.388 119.511 147.626 118.79 145.57 117.347C143.524 115.892 142.325 113.915 141.973 111.415L149.115 111.04C149.331 112.097 149.854 112.903 150.683 113.46C151.513 114.006 152.575 114.278 153.871 114.278C155.143 114.278 156.166 114.034 156.939 113.545C157.723 113.045 158.121 112.403 158.132 111.619C158.121 110.96 157.842 110.42 157.297 110C156.751 109.568 155.911 109.239 154.774 109.011L150.24 108.108C147.683 107.597 145.78 106.71 144.53 105.449C143.291 104.187 142.672 102.58 142.672 100.625C142.672 98.9432 143.126 97.4943 144.036 96.2784C144.956 95.0625 146.246 94.125 147.905 93.4659C149.575 92.8068 151.53 92.4773 153.768 92.4773C157.075 92.4773 159.678 93.1761 161.575 94.5739C163.484 95.9716 164.598 97.875 164.916 100.284ZM46.7273 177.511C44.0455 177.511 41.7386 176.943 39.8068 175.807C37.8864 174.659 36.4091 173.068 35.375 171.034C34.3523 169 33.8409 166.659 33.8409 164.011C33.8409 161.33 34.358 158.977 35.392 156.955C36.4375 154.92 37.9205 153.335 39.8409 152.199C41.7614 151.051 44.0455 150.477 46.6932 150.477C48.9773 150.477 50.9773 150.892 52.6932 151.722C54.4091 152.551 55.767 153.716 56.767 155.216C57.767 156.716 58.3182 158.477 58.4205 160.5H51.5682C51.375 159.193 50.8636 158.142 50.0341 157.347C49.2159 156.54 48.142 156.136 46.8125 156.136C45.6875 156.136 44.7045 156.443 43.8636 157.057C43.0341 157.659 42.3864 158.54 41.9205 159.699C41.4545 160.858 41.2216 162.261 41.2216 163.909C41.2216 165.58 41.4489 167 41.9034 168.17C42.3693 169.341 43.0227 170.233 43.8636 170.847C44.7045 171.46 45.6875 171.767 46.8125 171.767C47.642 171.767 48.3864 171.597 49.0455 171.256C49.7159 170.915 50.267 170.42 50.6989 169.773C51.142 169.114 51.4318 168.324 51.5682 167.403H58.4205C58.3068 169.403 57.7614 171.165 56.7841 172.688C55.8182 174.199 54.483 175.381 52.7784 176.233C51.0739 177.085 49.0568 177.511 46.7273 177.511ZM74.8991 177.511C72.2514 177.511 69.9616 176.949 68.0298 175.824C66.1094 174.687 64.6264 173.108 63.581 171.085C62.5355 169.051 62.0128 166.693 62.0128 164.011C62.0128 161.307 62.5355 158.943 63.581 156.92C64.6264 154.886 66.1094 153.307 68.0298 152.182C69.9616 151.045 72.2514 150.477 74.8991 150.477C77.5469 150.477 79.831 151.045 81.7514 152.182C83.6832 153.307 85.1719 154.886 86.2173 156.92C87.2628 158.943 87.7855 161.307 87.7855 164.011C87.7855 166.693 87.2628 169.051 86.2173 171.085C85.1719 173.108 83.6832 174.687 81.7514 175.824C79.831 176.949 77.5469 177.511 74.8991 177.511ZM74.9332 171.886C76.1378 171.886 77.1435 171.545 77.9503 170.864C78.7571 170.17 79.3651 169.227 79.7741 168.034C80.1946 166.841 80.4048 165.483 80.4048 163.96C80.4048 162.438 80.1946 161.08 79.7741 159.886C79.3651 158.693 78.7571 157.75 77.9503 157.057C77.1435 156.364 76.1378 156.017 74.9332 156.017C73.7173 156.017 72.6946 156.364 71.8651 157.057C71.0469 157.75 70.4276 158.693 70.0071 159.886C69.598 161.08 69.3935 162.438 69.3935 163.96C69.3935 165.483 69.598 166.841 70.0071 168.034C70.4276 169.227 71.0469 170.17 71.8651 170.864C72.6946 171.545 73.7173 171.886 74.9332 171.886ZM109.297 165.852V150.818H116.558V177H109.587V172.244H109.314C108.723 173.778 107.74 175.011 106.365 175.943C105.001 176.875 103.337 177.341 101.371 177.341C99.6207 177.341 98.081 176.943 96.7514 176.148C95.4219 175.352 94.3821 174.222 93.6321 172.756C92.8935 171.29 92.5185 169.534 92.5071 167.489V150.818H99.7685V166.193C99.7798 167.739 100.195 168.96 101.013 169.858C101.831 170.756 102.928 171.205 104.303 171.205C105.178 171.205 105.996 171.006 106.757 170.608C107.518 170.199 108.132 169.597 108.598 168.801C109.075 168.006 109.308 167.023 109.297 165.852ZM129.628 142.091V177H122.366V142.091H129.628ZM145.092 177.426C143.104 177.426 141.303 176.915 139.689 175.892C138.087 174.858 136.814 173.341 135.871 171.341C134.939 169.33 134.473 166.864 134.473 163.943C134.473 160.943 134.956 158.449 135.922 156.46C136.888 154.46 138.172 152.966 139.774 151.977C141.388 150.977 143.155 150.477 145.075 150.477C146.541 150.477 147.763 150.727 148.74 151.227C149.729 151.716 150.524 152.33 151.126 153.068C151.74 153.795 152.206 154.511 152.524 155.216H152.746V142.091H159.99V177H152.831V172.807H152.524C152.183 173.534 151.7 174.256 151.075 174.972C150.462 175.676 149.661 176.261 148.672 176.727C147.695 177.193 146.501 177.426 145.092 177.426ZM147.393 171.648C148.564 171.648 149.553 171.33 150.359 170.693C151.178 170.045 151.803 169.142 152.234 167.983C152.678 166.824 152.899 165.466 152.899 163.909C152.899 162.352 152.683 161 152.251 159.852C151.82 158.705 151.195 157.818 150.376 157.193C149.558 156.568 148.564 156.256 147.393 156.256C146.2 156.256 145.195 156.58 144.376 157.227C143.558 157.875 142.939 158.773 142.518 159.92C142.098 161.068 141.888 162.398 141.888 163.909C141.888 165.432 142.098 166.778 142.518 167.949C142.95 169.108 143.57 170.017 144.376 170.676C145.195 171.324 146.2 171.648 147.393 171.648ZM177.206 177V142.091H184.467V155.216H184.689C185.007 154.511 185.467 153.795 186.07 153.068C186.683 152.33 187.479 151.716 188.456 151.227C189.445 150.727 190.672 150.477 192.138 150.477C194.047 150.477 195.808 150.977 197.422 151.977C199.036 152.966 200.325 154.46 201.291 156.46C202.257 158.449 202.74 160.943 202.74 163.943C202.74 166.864 202.268 169.33 201.325 171.341C200.393 173.341 199.121 174.858 197.507 175.892C195.905 176.915 194.109 177.426 192.121 177.426C190.712 177.426 189.513 177.193 188.524 176.727C187.547 176.261 186.746 175.676 186.121 174.972C185.496 174.256 185.018 173.534 184.689 172.807H184.365V177H177.206ZM184.314 163.909C184.314 165.466 184.53 166.824 184.962 167.983C185.393 169.142 186.018 170.045 186.837 170.693C187.655 171.33 188.649 171.648 189.82 171.648C191.001 171.648 192.001 171.324 192.82 170.676C193.638 170.017 194.257 169.108 194.678 167.949C195.109 166.778 195.325 165.432 195.325 163.909C195.325 162.398 195.115 161.068 194.695 159.92C194.274 158.773 193.655 157.875 192.837 157.227C192.018 156.58 191.013 156.256 189.82 156.256C188.638 156.256 187.638 156.568 186.82 157.193C186.013 157.818 185.393 158.705 184.962 159.852C184.53 161 184.314 162.352 184.314 163.909ZM219.517 177.511C216.824 177.511 214.506 176.966 212.562 175.875C210.631 174.773 209.142 173.216 208.097 171.205C207.051 169.182 206.528 166.79 206.528 164.028C206.528 161.335 207.051 158.972 208.097 156.938C209.142 154.903 210.614 153.318 212.511 152.182C214.42 151.045 216.659 150.477 219.227 150.477C220.955 150.477 222.563 150.756 224.051 151.312C225.551 151.858 226.858 152.682 227.972 153.784C229.097 154.886 229.972 156.273 230.597 157.943C231.222 159.602 231.534 161.545 231.534 163.773V165.767H209.426V161.267H224.699C224.699 160.222 224.472 159.295 224.017 158.489C223.563 157.682 222.932 157.051 222.125 156.597C221.33 156.131 220.403 155.898 219.347 155.898C218.244 155.898 217.267 156.153 216.415 156.665C215.574 157.165 214.915 157.841 214.438 158.693C213.96 159.534 213.716 160.472 213.705 161.506V165.784C213.705 167.08 213.943 168.199 214.42 169.142C214.909 170.085 215.597 170.812 216.483 171.324C217.369 171.835 218.42 172.091 219.636 172.091C220.443 172.091 221.182 171.977 221.852 171.75C222.523 171.523 223.097 171.182 223.574 170.727C224.051 170.273 224.415 169.716 224.665 169.057L231.381 169.5C231.04 171.114 230.341 172.523 229.284 173.727C228.239 174.92 226.886 175.852 225.227 176.523C223.58 177.182 221.676 177.511 219.517 177.511ZM48.8239 208.818V214.273H33.0568V208.818H48.8239ZM36.6364 202.545H43.8977V226.955C43.8977 227.625 44 228.148 44.2045 228.523C44.4091 228.886 44.6932 229.142 45.0568 229.29C45.4318 229.437 45.8636 229.511 46.3523 229.511C46.6932 229.511 47.0341 229.483 47.375 229.426C47.7159 229.358 47.9773 229.307 48.1591 229.273L49.3011 234.676C48.9375 234.79 48.4261 234.92 47.767 235.068C47.108 235.227 46.3068 235.324 45.3636 235.358C43.6136 235.426 42.0795 235.193 40.7614 234.659C39.4545 234.125 38.4375 233.295 37.7102 232.17C36.983 231.045 36.625 229.625 36.6364 227.909V202.545ZM61.3778 219.864V235H54.1165V200.091H61.1733V213.438H61.4801C62.071 211.892 63.0256 210.682 64.3438 209.807C65.6619 208.92 67.3153 208.477 69.304 208.477C71.1222 208.477 72.7074 208.875 74.0597 209.67C75.4233 210.455 76.4801 211.585 77.2301 213.062C77.9915 214.528 78.3665 216.284 78.3551 218.33V235H71.0938V219.625C71.1051 218.011 70.696 216.756 69.8665 215.858C69.0483 214.96 67.9006 214.511 66.4233 214.511C65.4347 214.511 64.5597 214.722 63.7983 215.142C63.0483 215.562 62.4574 216.176 62.0256 216.983C61.6051 217.778 61.3892 218.739 61.3778 219.864ZM96.0014 235.511C93.3082 235.511 90.9901 234.966 89.0469 233.875C87.1151 232.773 85.6264 231.216 84.581 229.205C83.5355 227.182 83.0128 224.79 83.0128 222.028C83.0128 219.335 83.5355 216.972 84.581 214.938C85.6264 212.903 87.098 211.318 88.9957 210.182C90.9048 209.045 93.1435 208.477 95.7116 208.477C97.4389 208.477 99.0469 208.756 100.536 209.312C102.036 209.858 103.342 210.682 104.456 211.784C105.581 212.886 106.456 214.273 107.081 215.943C107.706 217.602 108.018 219.545 108.018 221.773V223.767H85.9105V219.267H101.183C101.183 218.222 100.956 217.295 100.501 216.489C100.047 215.682 99.4162 215.051 98.6094 214.597C97.8139 214.131 96.8878 213.898 95.831 213.898C94.7287 213.898 93.7514 214.153 92.8991 214.665C92.0582 215.165 91.3991 215.841 90.9219 216.693C90.4446 217.534 90.2003 218.472 90.1889 219.506V223.784C90.1889 225.08 90.4276 226.199 90.9048 227.142C91.3935 228.085 92.081 228.812 92.9673 229.324C93.8537 229.835 94.9048 230.091 96.1207 230.091C96.9276 230.091 97.6662 229.977 98.3366 229.75C99.0071 229.523 99.581 229.182 100.058 228.727C100.536 228.273 100.899 227.716 101.149 227.057L107.865 227.5C107.524 229.114 106.825 230.523 105.768 231.727C104.723 232.92 103.371 233.852 101.712 234.523C100.064 235.182 98.1605 235.511 96.0014 235.511ZM131.128 219.864V235H123.866V208.818H130.787V213.438H131.094C131.673 211.915 132.645 210.71 134.009 209.824C135.372 208.926 137.026 208.477 138.969 208.477C140.787 208.477 142.372 208.875 143.724 209.67C145.077 210.466 146.128 211.602 146.878 213.08C147.628 214.545 148.003 216.295 148.003 218.33V235H140.741V219.625C140.753 218.023 140.344 216.773 139.514 215.875C138.685 214.966 137.543 214.511 136.088 214.511C135.111 214.511 134.247 214.722 133.497 215.142C132.759 215.562 132.179 216.176 131.759 216.983C131.349 217.778 131.139 218.739 131.128 219.864ZM165.658 235.511C162.964 235.511 160.646 234.966 158.703 233.875C156.771 232.773 155.283 231.216 154.237 229.205C153.192 227.182 152.669 224.79 152.669 222.028C152.669 219.335 153.192 216.972 154.237 214.938C155.283 212.903 156.754 211.318 158.652 210.182C160.561 209.045 162.8 208.477 165.368 208.477C167.095 208.477 168.703 208.756 170.192 209.312C171.692 209.858 172.999 210.682 174.112 211.784C175.237 212.886 176.112 214.273 176.737 215.943C177.362 217.602 177.675 219.545 177.675 221.773V223.767H155.567V219.267H170.839C170.839 218.222 170.612 217.295 170.158 216.489C169.703 215.682 169.072 215.051 168.266 214.597C167.47 214.131 166.544 213.898 165.487 213.898C164.385 213.898 163.408 214.153 162.555 214.665C161.714 215.165 161.055 215.841 160.578 216.693C160.101 217.534 159.857 218.472 159.845 219.506V223.784C159.845 225.08 160.084 226.199 160.561 227.142C161.05 228.085 161.737 228.812 162.624 229.324C163.51 229.835 164.561 230.091 165.777 230.091C166.584 230.091 167.322 229.977 167.993 229.75C168.663 229.523 169.237 229.182 169.714 228.727C170.192 228.273 170.555 227.716 170.805 227.057L177.521 227.5C177.18 229.114 176.482 230.523 175.425 231.727C174.379 232.92 173.027 233.852 171.368 234.523C169.72 235.182 167.817 235.511 165.658 235.511ZM188.013 208.818L192.82 217.972L197.746 208.818H205.195L197.609 221.909L205.399 235H197.984L192.82 225.949L187.74 235H180.24L188.013 221.909L180.513 208.818H188.013ZM223.433 208.818V214.273H207.666V208.818H223.433ZM211.246 202.545H218.507V226.955C218.507 227.625 218.609 228.148 218.814 228.523C219.018 228.886 219.303 229.142 219.666 229.29C220.041 229.437 220.473 229.511 220.962 229.511C221.303 229.511 221.643 229.483 221.984 229.426C222.325 229.358 222.587 229.307 222.768 229.273L223.911 234.676C223.547 234.79 223.036 234.92 222.376 235.068C221.717 235.227 220.916 235.324 219.973 235.358C218.223 235.426 216.689 235.193 215.371 234.659C214.064 234.125 213.047 233.295 212.32 232.17C211.592 231.045 211.234 229.625 211.246 227.909V202.545ZM232.408 235.443C231.283 235.443 230.317 235.045 229.51 234.25C228.714 233.443 228.317 232.477 228.317 231.352C228.317 230.239 228.714 229.284 229.51 228.489C230.317 227.693 231.283 227.295 232.408 227.295C233.499 227.295 234.453 227.693 235.271 228.489C236.089 229.284 236.499 230.239 236.499 231.352C236.499 232.102 236.305 232.79 235.919 233.415C235.544 234.028 235.05 234.523 234.436 234.898C233.822 235.261 233.146 235.443 232.408 235.443ZM246.705 235.443C245.58 235.443 244.614 235.045 243.807 234.25C243.011 233.443 242.614 232.477 242.614 231.352C242.614 230.239 243.011 229.284 243.807 228.489C244.614 227.693 245.58 227.295 246.705 227.295C247.795 227.295 248.75 227.693 249.568 228.489C250.386 229.284 250.795 230.239 250.795 231.352C250.795 232.102 250.602 232.79 250.216 233.415C249.841 234.028 249.347 234.523 248.733 234.898C248.119 235.261 247.443 235.443 246.705 235.443ZM261.001 235.443C259.876 235.443 258.911 235.045 258.104 234.25C257.308 233.443 256.911 232.477 256.911 231.352C256.911 230.239 257.308 229.284 258.104 228.489C258.911 227.693 259.876 227.295 261.001 227.295C262.092 227.295 263.047 227.693 263.865 228.489C264.683 229.284 265.092 230.239 265.092 231.352C265.092 232.102 264.899 232.79 264.513 233.415C264.138 234.028 263.643 234.523 263.03 234.898C262.416 235.261 261.74 235.443 261.001 235.443Z" fill="#F5FEFD"/>
<defs>
<linearGradient id="paint0_linear_1345_6001" x1="-1.52737e-05" y1="279" x2="139.387" y2="-88.2795" gradientUnits="userSpaceOnUse">
<stop stop-color="#DE3C63"/>
<stop offset="0.4375" stop-color="#F7971D"/>
<stop offset="1" stop-color="#FFD700"/>
</linearGradient>
</defs>
</svg>
