<svg width="100" height="100" viewBox="0 0 100 100" fill="none" xmlns="http://www.w3.org/2000/svg">
<g clip-path="url(#clip0_1353_26724)">
<path d="M79.166 29.167C79.166 29.167 58.3327 58.3337 27.0827 58.3337M27.0827 58.3337C18.7493 58.3337 4.16602 62.5003 4.16602 79.167V95.8337H49.9993V79.167C49.9993 68.7503 62.4993 75.0003 79.166 45.8337L72.916 39.5837M27.0827 58.3337C30.9504 58.3337 34.6597 56.7972 37.3947 54.0623C40.1296 51.3274 41.666 47.6181 41.666 43.7503C41.666 39.8826 40.1296 36.1733 37.3947 33.4384C34.6597 30.7034 30.9504 29.167 27.0827 29.167C23.2149 29.167 19.5056 30.7034 16.7707 33.4384C14.0358 36.1733 12.4993 39.8826 12.4993 43.7503C12.4993 47.6181 14.0358 51.3274 16.7707 54.0623C19.5056 56.7972 23.2149 58.3337 27.0827 58.3337ZM12.4993 20.8337V8.33366H95.8327V66.667H83.3327M45.8327 4.16699H62.4993V12.5003H45.8327V4.16699Z" stroke="#383838" stroke-width="7"/>
</g>
<defs>
<clipPath id="clip0_1353_26724">
<rect width="100" height="100" fill="white"/>
</clipPath>
</defs>
</svg>
