<svg width="68" height="68" viewBox="0 0 68 68" fill="none" xmlns="http://www.w3.org/2000/svg">
<g opacity="0.8">
<path d="M3.98631 63.6733L25.1996 42.4599M51.913 33.0266L45.563 52.0766C45.4616 52.382 45.2881 52.6584 45.0572 52.8824C44.8262 53.1064 44.5446 53.2713 44.2363 53.3633L5.30964 64.9333C4.95894 65.0374 4.58639 65.0434 4.23254 64.9505C3.87869 64.8577 3.55708 64.6695 3.30273 64.4066C3.04837 64.1436 2.87101 63.816 2.78995 63.4592C2.70889 63.1025 2.72723 62.7303 2.84297 62.3833L15.483 24.4699C15.5736 24.1977 15.7217 23.9482 15.9172 23.7383C16.1128 23.5283 16.3512 23.3629 16.6163 23.2533L34.573 15.8599C34.938 15.7092 35.3396 15.6699 35.7269 15.747C36.1143 15.8241 36.4702 16.0142 36.7496 16.2933L51.4296 30.9766C51.6929 31.2395 51.8776 31.5707 51.963 31.9328C52.0484 32.295 52.0311 32.6738 51.913 33.0266Z" stroke="#F7971D" stroke-width="5" stroke-linecap="round" stroke-linejoin="round"/>
<path d="M52.3065 31.8533L61.7331 22.4233C62.9829 21.1731 63.685 19.4777 63.685 17.71C63.685 15.9422 62.9829 14.2468 61.7331 12.9966L54.6665 5.9233C54.0474 5.30396 53.3123 4.81266 52.5033 4.47745C51.6943 4.14225 50.8272 3.96973 49.9515 3.96973C49.0758 3.96973 48.2086 4.14225 47.3996 4.47745C46.5906 4.81266 45.8556 5.30396 45.2365 5.9233L35.8098 15.3533M32.2698 35.3866C31.8054 34.9224 31.254 34.5542 30.6473 34.3031C30.0405 34.0519 29.3903 33.9227 28.7336 33.9229C28.077 33.923 27.4268 34.0525 26.8201 34.304C26.2135 34.5554 25.6624 34.9239 25.1981 35.3883C24.7339 35.8527 24.3657 36.4041 24.1146 37.0108C23.8634 37.6175 23.7342 38.2678 23.7344 38.9245C23.7345 39.5812 23.864 40.2313 24.1155 40.838C24.3669 41.4446 24.7354 41.9958 25.1998 42.46C26.1378 43.3975 27.4098 43.924 28.736 43.9237C30.0622 43.9234 31.3339 43.3963 32.2715 42.4583C33.209 41.5203 33.7355 40.2483 33.7352 38.9221C33.7349 37.5959 33.2078 36.3242 32.2698 35.3866Z" stroke="#F7971D" stroke-width="7" stroke-linecap="round" stroke-linejoin="round"/>
</g>
</svg>
