<svg width="80" height="81" viewBox="0 0 80 81" fill="none" xmlns="http://www.w3.org/2000/svg">
<g clip-path="url(#clip0_1258_1657)">
<path d="M61.25 0.623047H18.75C8.39466 0.623047 0 9.01771 0 19.373V61.873C0 72.2284 8.39466 80.623 18.75 80.623H61.25C71.6053 80.623 80 72.2284 80 61.873V19.373C80 9.01771 71.6053 0.623047 61.25 0.623047Z" fill="#001E36"/>
<path d="M18 56.2611V21.9611C18 21.7277 18.1 21.5945 18.3334 21.5945C18.9 21.5945 19.4334 21.5945 20.2 21.5611C21 21.5277 21.8334 21.5277 22.7334 21.4945C23.6334 21.4611 24.6 21.4611 25.6334 21.4277C26.6666 21.3945 27.6666 21.3945 28.6666 21.3945C31.4 21.3945 33.6666 21.7277 35.5334 22.4277C37.2067 22.9959 38.7325 23.9297 40 25.1611C41.0741 26.2387 41.904 27.5347 42.4334 28.9611C42.9334 30.3611 43.2 31.7945 43.2 33.2945C43.2 36.1611 42.5334 38.5277 41.2 40.3945C39.8666 42.2611 38 43.6611 35.8334 44.4611C33.5666 45.2945 31.0666 45.5945 28.3334 45.5945C27.5334 45.5945 27 45.5945 26.6666 45.5611C26.3334 45.5277 25.8666 45.5277 25.2334 45.5277V56.2277C25.2666 56.4611 25.1 56.6611 24.8666 56.6945H18.4C18.1334 56.6945 18 56.5611 18 56.2611ZM25.2666 28.0277V39.2277C25.7334 39.2611 26.1666 39.2945 26.5666 39.2945H28.3334C29.6334 39.2945 30.9334 39.0945 32.1666 38.6945C33.2334 38.3945 34.1666 37.7611 34.9 36.9277C35.6 36.0945 35.9334 34.9611 35.9334 33.4945C35.9647 32.4528 35.6987 31.4237 35.1666 30.5277C34.6 29.6611 33.8 28.9945 32.8334 28.6277C31.6 28.1277 30.2666 27.9277 28.9 27.9611C28.0334 27.9611 27.2666 27.9611 26.6334 27.9945C25.9666 27.9611 25.5 27.9945 25.2666 28.0277ZM64 37.1945C63 36.6611 61.9334 36.2945 60.8 36.0611C59.5666 35.7945 58.3334 35.6277 57.0666 35.6277C56.4 35.5945 55.7 35.6945 55.0666 35.8611C54.6334 35.9611 54.2666 36.1945 54.0334 36.5277C53.8666 36.7945 53.7666 37.1277 53.7666 37.4277C53.7666 37.7277 53.9 38.0277 54.1 38.2945C54.4 38.6611 54.8 38.9611 55.2334 39.1945C56.0062 39.5948 56.7958 39.9618 57.6 40.2945C59.4 40.8945 61.1334 41.7277 62.7334 42.7277C63.8334 43.4277 64.7334 44.3611 65.3666 45.4945C65.9 46.5611 66.1666 47.7277 66.1334 48.9277C66.1666 50.4945 65.7 52.0611 64.8334 53.3611C63.9036 54.6917 62.6063 55.7226 61.1 56.3277C59.4666 57.0277 57.4666 57.3945 55.0666 57.3945C53.5334 57.3945 52.0334 57.2611 50.5334 56.9611C49.3578 56.758 48.2144 56.3994 47.1334 55.8945C46.9 55.7611 46.7334 55.5277 46.7666 55.2611V49.4611C46.7666 49.3611 46.8 49.2277 46.9 49.1611C47 49.0945 47.1 49.1277 47.2 49.1945C48.5 49.9611 49.8666 50.4945 51.3334 50.8277C52.6 51.1611 53.9334 51.3277 55.2666 51.3277C56.5334 51.3277 57.4334 51.1611 58.0334 50.8611C58.5666 50.6277 58.9334 50.0611 58.9334 49.4611C58.9334 48.9945 58.6666 48.5611 58.1334 48.1277C57.6 47.6945 56.5 47.1945 54.8666 46.5611C53.191 45.9707 51.5999 45.1639 50.1334 44.1611C49.0889 43.4166 48.2235 42.4486 47.6 41.3277C47.0666 40.2611 46.8 39.0945 46.8334 37.9277C46.8334 36.4945 47.2334 35.1277 47.9666 33.8945C48.8 32.5611 50.0334 31.4945 51.4666 30.8277C53.0334 30.0277 55 29.6611 57.3666 29.6611C58.7334 29.6611 60.1334 29.7611 61.5 29.9611C62.5 30.0945 63.4666 30.3611 64.3666 30.7277C64.5 30.7611 64.6334 30.8945 64.7 31.0277C64.7334 31.1611 64.7666 31.2945 64.7666 31.4277V36.8611C64.7666 36.9945 64.7 37.1277 64.6 37.1945C64.3 37.2611 64.1334 37.2611 64 37.1945Z" fill="#31A8FF"/>
</g>
<defs>
<clipPath id="clip0_1258_1657">
<rect width="80" height="80" fill="white" transform="translate(0 0.623047)"/>
</clipPath>
</defs>
</svg>
