<svg width="80" height="80" viewBox="0 0 80 80" fill="none" xmlns="http://www.w3.org/2000/svg">
<rect width="80" height="80" rx="8" fill="url(#paint0_linear_1346_6704)"/>
<path fill-rule="evenodd" clip-rule="evenodd" d="M49.75 19C50.3467 19 50.919 19.2371 51.341 19.659C51.7629 20.081 52 20.6533 52 21.25V25H58C58.7957 25 59.5587 25.3161 60.1213 25.8787C60.6839 26.4413 61 27.2044 61 28V58C61 58.7957 60.6839 59.5587 60.1213 60.1213C59.5587 60.6839 58.7957 61 58 61H22C21.2044 61 20.4413 60.6839 19.8787 60.1213C19.3161 59.5587 19 58.7957 19 58V28C19 27.2044 19.3161 26.4413 19.8787 25.8787C20.4413 25.3161 21.2044 25 22 25H28V21.25C28 20.6533 28.2371 20.081 28.659 19.659C29.081 19.2371 29.6533 19 30.25 19C30.8467 19 31.419 19.2371 31.841 19.659C32.2629 20.081 32.5 20.6533 32.5 21.25V25H47.5V21.25C47.5 20.6533 47.7371 20.081 48.159 19.659C48.581 19.2371 49.1533 19 49.75 19ZM23.5 38.5V56.5H56.5V38.5H23.5ZM23.5 34H56.5V29.5H23.5V34ZM46.84 42.91C47.2614 43.3319 47.498 43.9037 47.498 44.5C47.498 45.0963 47.2614 45.6681 46.84 46.09L40.09 52.84C39.6681 53.2613 39.0963 53.498 38.5 53.498C37.9037 53.498 37.3319 53.2613 36.91 52.84L33.16 49.09C32.9389 48.884 32.7616 48.6356 32.6387 48.3596C32.5157 48.0836 32.4496 47.7857 32.4442 47.4836C32.4389 47.1815 32.4945 46.8814 32.6076 46.6012C32.7208 46.321 32.8892 46.0665 33.1029 45.8529C33.3165 45.6392 33.571 45.4708 33.8512 45.3576C34.1314 45.2445 34.4315 45.1889 34.7336 45.1942C35.0357 45.1996 35.3336 45.2657 35.6096 45.3887C35.8856 45.5116 36.134 45.6889 36.34 45.91L38.5 48.07L43.66 42.91C44.0819 42.4886 44.6537 42.252 45.25 42.252C45.8463 42.252 46.4181 42.4886 46.84 42.91Z" fill="#383838"/>
<defs>
<linearGradient id="paint0_linear_1346_6704" x1="0" y1="80" x2="80" y2="0" gradientUnits="userSpaceOnUse">
<stop stop-color="#DE3C63"/>
<stop offset="0.4" stop-color="#F7971D"/>
<stop offset="1" stop-color="#FFD700"/>
</linearGradient>
</defs>
</svg>
