<svg width="80" height="80" viewBox="0 0 80 80" fill="none" xmlns="http://www.w3.org/2000/svg">
<rect width="80" height="80" rx="8" fill="url(#paint0_linear_1346_6591)"/>
<path fill-rule="evenodd" clip-rule="evenodd" d="M34.0001 40H29.4641C29.0238 40.7626 28.3442 41.3586 27.5307 41.6955C26.7172 42.0325 25.8153 42.0916 24.9647 41.8637C24.1142 41.6358 23.3626 41.1336 22.8266 40.435C22.2905 39.7365 22 38.8805 22 38C22 37.1195 22.2905 36.2635 22.8266 35.565C23.3626 34.8664 24.1142 34.3642 24.9647 34.1363C25.8153 33.9084 26.7172 33.9675 27.5307 34.3045C28.3442 34.6414 29.0238 35.2374 29.4641 36H34.0001V26C34.0001 24.9391 34.4215 23.9217 35.1717 23.1716C35.9218 22.4214 36.9392 22 38.0001 22H54.0001C55.061 22 56.0784 22.4214 56.8285 23.1716C57.5787 23.9217 58.0001 24.9391 58.0001 26V54C58.0001 55.0609 57.5787 56.0783 56.8285 56.8284C56.0784 57.5786 55.061 58 54.0001 58H38.0001C36.9392 58 35.9218 57.5786 35.1717 56.8284C34.4215 56.0783 34.0001 55.0609 34.0001 54V40ZM38.0001 40V54H54.0001V26H38.0001V36H42.5361C42.9764 35.2374 43.656 34.6414 44.4695 34.3045C45.283 33.9675 46.1849 33.9084 47.0355 34.1363C47.886 34.3642 48.6376 34.8664 49.1736 35.565C49.7097 36.2635 50.0002 37.1195 50.0002 38C50.0002 38.8805 49.7097 39.7365 49.1736 40.435C48.6376 41.1336 47.886 41.6358 47.0355 41.8637C46.1849 42.0916 45.283 42.0325 44.4695 41.6955C43.656 41.3586 42.9764 40.7626 42.5361 40H38.0001Z" fill="#383838"/>
<defs>
<linearGradient id="paint0_linear_1346_6591" x1="0" y1="80" x2="80" y2="0" gradientUnits="userSpaceOnUse">
<stop stop-color="#DE3C63"/>
<stop offset="0.4" stop-color="#F7971D"/>
<stop offset="1" stop-color="#FFD700"/>
</linearGradient>
</defs>
</svg>
