<svg width="191" height="80" viewBox="0 0 191 80" fill="none" xmlns="http://www.w3.org/2000/svg">
<path d="M51.6719 55L63.8156 25H55.7656L47.4594 44.3859L41.5516 25H35.3625L29.0219 44.3859L24.5484 35.5531L20.5016 47.9688L24.6109 55H32.5328L38.2641 37.6141L43.7328 55H51.6719ZM7.62344 44.7016H12.5688C13.9199 44.7205 15.2672 44.5517 16.5719 44.2L17.85 40.2641L21.425 29.2656C21.1492 28.8315 20.8355 28.4226 20.4875 28.0437C18.6562 26.0146 15.9724 25 12.4359 25H0V55H7.62344V44.7016ZM14.1703 31.9016C14.888 32.6224 15.2464 33.587 15.2453 34.7953C15.2443 36.0036 14.9318 36.9688 14.3078 37.6906C13.6161 38.4844 12.3432 38.8807 10.4891 38.8797H7.62344V30.8203H10.5016C12.2297 30.8203 13.4526 31.1807 14.1703 31.9016ZM58.8828 49.6266L61.1938 43.8062H67.8641L64.6984 34.9766L68.6578 25L80 55H71.6359L69.6984 49.6266H58.8828Z" fill="#AEAEAE"/>
<path d="M97.4091 35V23.3636H101.341C102.254 23.3636 103 23.5284 103.58 23.858C104.163 24.1837 104.595 24.625 104.875 25.1818C105.155 25.7386 105.295 26.3598 105.295 27.0455C105.295 27.7311 105.155 28.3542 104.875 28.9148C104.598 29.4754 104.17 29.9223 103.591 30.2557C103.011 30.5852 102.269 30.75 101.364 30.75H98.5455V29.5H101.318C101.943 29.5 102.445 29.392 102.824 29.1761C103.203 28.9602 103.477 28.6686 103.648 28.3011C103.822 27.9299 103.909 27.5114 103.909 27.0455C103.909 26.5795 103.822 26.1629 103.648 25.7955C103.477 25.428 103.201 25.1402 102.818 24.9318C102.436 24.7197 101.928 24.6136 101.295 24.6136H98.8182V35H97.4091ZM107.384 35V26.2727H108.679V27.5909H108.77C108.929 27.1591 109.217 26.8087 109.634 26.5398C110.05 26.2708 110.52 26.1364 111.043 26.1364C111.141 26.1364 111.264 26.1383 111.412 26.142C111.56 26.1458 111.671 26.1515 111.747 26.1591V27.5227C111.702 27.5114 111.598 27.4943 111.435 27.4716C111.276 27.4451 111.107 27.4318 110.929 27.4318C110.505 27.4318 110.126 27.5208 109.793 27.6989C109.463 27.8731 109.202 28.1155 109.009 28.4261C108.819 28.733 108.724 29.0833 108.724 29.4773V35H107.384ZM116.616 35.1818C115.829 35.1818 115.137 34.9943 114.543 34.6193C113.952 34.2443 113.49 33.7197 113.156 33.0455C112.827 32.3712 112.662 31.5833 112.662 30.6818C112.662 29.7727 112.827 28.9792 113.156 28.3011C113.49 27.6231 113.952 27.0966 114.543 26.7216C115.137 26.3466 115.829 26.1591 116.616 26.1591C117.404 26.1591 118.094 26.3466 118.685 26.7216C119.279 27.0966 119.741 27.6231 120.071 28.3011C120.404 28.9792 120.571 29.7727 120.571 30.6818C120.571 31.5833 120.404 32.3712 120.071 33.0455C119.741 33.7197 119.279 34.2443 118.685 34.6193C118.094 34.9943 117.404 35.1818 116.616 35.1818ZM116.616 33.9773C117.215 33.9773 117.707 33.8239 118.094 33.517C118.48 33.2102 118.766 32.8068 118.952 32.3068C119.137 31.8068 119.23 31.2652 119.23 30.6818C119.23 30.0985 119.137 29.5549 118.952 29.0511C118.766 28.5473 118.48 28.1402 118.094 27.8295C117.707 27.5189 117.215 27.3636 116.616 27.3636C116.018 27.3636 115.526 27.5189 115.139 27.8295C114.753 28.1402 114.467 28.5473 114.281 29.0511C114.096 29.5549 114.003 30.0985 114.003 30.6818C114.003 31.2652 114.096 31.8068 114.281 32.3068C114.467 32.8068 114.753 33.2102 115.139 33.517C115.526 33.8239 116.018 33.9773 116.616 33.9773ZM126.141 38.4545C125.493 38.4545 124.936 38.3712 124.47 38.2045C124.004 38.0417 123.616 37.8258 123.305 37.5568C122.999 37.2917 122.754 37.0076 122.572 36.7045L123.641 35.9545C123.762 36.1136 123.915 36.2955 124.101 36.5C124.286 36.7083 124.54 36.8883 124.862 37.0398C125.188 37.1951 125.614 37.2727 126.141 37.2727C126.845 37.2727 127.427 37.1023 127.885 36.7614C128.343 36.4205 128.572 35.8864 128.572 35.1591V33.3864H128.459C128.36 33.5455 128.22 33.7424 128.038 33.9773C127.86 34.2083 127.603 34.4148 127.266 34.5966C126.932 34.7746 126.482 34.8636 125.913 34.8636C125.209 34.8636 124.576 34.697 124.016 34.3636C123.459 34.0303 123.018 33.5455 122.692 32.9091C122.37 32.2727 122.209 31.5 122.209 30.5909C122.209 29.697 122.366 28.9186 122.68 28.2557C122.995 27.589 123.432 27.0739 123.993 26.7102C124.554 26.3428 125.201 26.1591 125.936 26.1591C126.504 26.1591 126.955 26.2538 127.288 26.4432C127.625 26.6288 127.883 26.8409 128.061 27.0795C128.243 27.3144 128.383 27.5076 128.482 27.6591H128.618V26.2727H129.913V35.25C129.913 36 129.743 36.6098 129.402 37.0795C129.065 37.553 128.61 37.8996 128.038 38.1193C127.47 38.3428 126.838 38.4545 126.141 38.4545ZM126.095 33.6591C126.633 33.6591 127.088 33.536 127.459 33.2898C127.83 33.0436 128.112 32.6894 128.305 32.2273C128.499 31.7652 128.595 31.2121 128.595 30.5682C128.595 29.9394 128.5 29.3845 128.311 28.9034C128.122 28.4223 127.841 28.0455 127.47 27.7727C127.099 27.5 126.641 27.3636 126.095 27.3636C125.527 27.3636 125.054 27.5076 124.675 27.7955C124.3 28.0833 124.018 28.4697 123.828 28.9545C123.643 29.4394 123.55 29.9773 123.55 30.5682C123.55 31.1742 123.644 31.7102 123.834 32.1761C124.027 32.6383 124.311 33.0019 124.686 33.267C125.065 33.5284 125.535 33.6591 126.095 33.6591ZM132.368 35V26.2727H133.663V27.5909H133.754C133.913 27.1591 134.201 26.8087 134.618 26.5398C135.035 26.2708 135.504 26.1364 136.027 26.1364C136.125 26.1364 136.249 26.1383 136.396 26.142C136.544 26.1458 136.656 26.1515 136.732 26.1591V27.5227C136.686 27.5114 136.582 27.4943 136.419 27.4716C136.26 27.4451 136.091 27.4318 135.913 27.4318C135.489 27.4318 135.11 27.5208 134.777 27.6989C134.447 27.8731 134.186 28.1155 133.993 28.4261C133.804 28.733 133.709 29.0833 133.709 29.4773V35H132.368ZM141.714 35.1818C140.874 35.1818 140.148 34.9962 139.538 34.625C138.932 34.25 138.464 33.7273 138.135 33.0568C137.809 32.3826 137.646 31.5985 137.646 30.7045C137.646 29.8106 137.809 29.0227 138.135 28.3409C138.464 27.6553 138.923 27.1212 139.51 26.7386C140.101 26.3523 140.79 26.1591 141.578 26.1591C142.033 26.1591 142.482 26.2348 142.925 26.3864C143.368 26.5379 143.771 26.7841 144.135 27.125C144.499 27.4621 144.788 27.9091 145.004 28.4659C145.22 29.0227 145.328 29.7083 145.328 30.5227V31.0909H138.601V29.9318H143.964C143.964 29.4394 143.866 29 143.669 28.6136C143.476 28.2273 143.199 27.9223 142.839 27.6989C142.483 27.4754 142.063 27.3636 141.578 27.3636C141.044 27.3636 140.582 27.4962 140.192 27.7614C139.805 28.0227 139.508 28.3636 139.3 28.7841C139.091 29.2045 138.987 29.6553 138.987 30.1364V30.9091C138.987 31.5682 139.101 32.1269 139.328 32.5852C139.559 33.0398 139.879 33.3864 140.288 33.625C140.697 33.8598 141.173 33.9773 141.714 33.9773C142.067 33.9773 142.385 33.928 142.669 33.8295C142.957 33.7273 143.205 33.5758 143.413 33.375C143.622 33.1705 143.783 32.9167 143.896 32.6136L145.192 32.9773C145.055 33.4167 144.826 33.803 144.504 34.1364C144.182 34.4659 143.785 34.7235 143.311 34.9091C142.838 35.0909 142.305 35.1818 141.714 35.1818ZM153.55 28.2273L152.345 28.5682C152.269 28.3674 152.158 28.1723 152.01 27.983C151.866 27.7898 151.669 27.6307 151.419 27.5057C151.169 27.3807 150.849 27.3182 150.459 27.3182C149.925 27.3182 149.48 27.4413 149.124 27.6875C148.771 27.9299 148.595 28.2386 148.595 28.6136C148.595 28.947 148.716 29.2102 148.959 29.4034C149.201 29.5966 149.58 29.7576 150.095 29.8864L151.391 30.2045C152.171 30.3939 152.752 30.6837 153.135 31.0739C153.518 31.4602 153.709 31.9583 153.709 32.5682C153.709 33.0682 153.565 33.5152 153.277 33.9091C152.993 34.303 152.595 34.6136 152.084 34.8409C151.572 35.0682 150.978 35.1818 150.3 35.1818C149.41 35.1818 148.673 34.9886 148.089 34.6023C147.506 34.2159 147.137 33.6515 146.982 32.9091L148.254 32.5909C148.375 33.0606 148.605 33.4129 148.942 33.6477C149.283 33.8826 149.728 34 150.277 34C150.902 34 151.398 33.8674 151.766 33.6023C152.137 33.3333 152.322 33.0114 152.322 32.6364C152.322 32.3333 152.216 32.0795 152.004 31.875C151.792 31.6667 151.466 31.5114 151.027 31.4091L149.572 31.0682C148.773 30.8788 148.186 30.5852 147.811 30.1875C147.44 29.786 147.254 29.2841 147.254 28.6818C147.254 28.1894 147.393 27.7538 147.669 27.375C147.949 26.9962 148.33 26.6989 148.811 26.483C149.296 26.267 149.845 26.1591 150.459 26.1591C151.322 26.1591 152 26.3485 152.493 26.7273C152.989 27.1061 153.341 27.6061 153.55 28.2273ZM161.909 28.2273L160.705 28.5682C160.629 28.3674 160.517 28.1723 160.369 27.983C160.225 27.7898 160.028 27.6307 159.778 27.5057C159.528 27.3807 159.208 27.3182 158.818 27.3182C158.284 27.3182 157.839 27.4413 157.483 27.6875C157.131 27.9299 156.955 28.2386 156.955 28.6136C156.955 28.947 157.076 29.2102 157.318 29.4034C157.561 29.5966 157.939 29.7576 158.455 29.8864L159.75 30.2045C160.53 30.3939 161.112 30.6837 161.494 31.0739C161.877 31.4602 162.068 31.9583 162.068 32.5682C162.068 33.0682 161.924 33.5152 161.636 33.9091C161.352 34.303 160.955 34.6136 160.443 34.8409C159.932 35.0682 159.337 35.1818 158.659 35.1818C157.769 35.1818 157.032 34.9886 156.449 34.6023C155.866 34.2159 155.496 33.6515 155.341 32.9091L156.614 32.5909C156.735 33.0606 156.964 33.4129 157.301 33.6477C157.642 33.8826 158.087 34 158.636 34C159.261 34 159.758 33.8674 160.125 33.6023C160.496 33.3333 160.682 33.0114 160.682 32.6364C160.682 32.3333 160.576 32.0795 160.364 31.875C160.152 31.6667 159.826 31.5114 159.386 31.4091L157.932 31.0682C157.133 30.8788 156.545 30.5852 156.17 30.1875C155.799 29.786 155.614 29.2841 155.614 28.6818C155.614 28.1894 155.752 27.7538 156.028 27.375C156.309 26.9962 156.689 26.6989 157.17 26.483C157.655 26.267 158.205 26.1591 158.818 26.1591C159.682 26.1591 160.36 26.3485 160.852 26.7273C161.348 27.1061 161.701 27.6061 161.909 28.2273ZM164.087 35V26.2727H165.428V35H164.087ZM164.768 24.8182C164.507 24.8182 164.282 24.7292 164.092 24.5511C163.907 24.3731 163.814 24.1591 163.814 23.9091C163.814 23.6591 163.907 23.4451 164.092 23.267C164.282 23.089 164.507 23 164.768 23C165.03 23 165.253 23.089 165.439 23.267C165.628 23.4451 165.723 23.6591 165.723 23.9091C165.723 24.1591 165.628 24.3731 165.439 24.5511C165.253 24.7292 165.03 24.8182 164.768 24.8182ZM175.02 26.2727L171.793 35H170.429L167.202 26.2727H168.656L171.065 33.2273H171.156L173.565 26.2727H175.02ZM180.136 35.1818C179.295 35.1818 178.57 34.9962 177.96 34.625C177.354 34.25 176.886 33.7273 176.557 33.0568C176.231 32.3826 176.068 31.5985 176.068 30.7045C176.068 29.8106 176.231 29.0227 176.557 28.3409C176.886 27.6553 177.345 27.1212 177.932 26.7386C178.523 26.3523 179.212 26.1591 180 26.1591C180.455 26.1591 180.903 26.2348 181.347 26.3864C181.79 26.5379 182.193 26.7841 182.557 27.125C182.92 27.4621 183.21 27.9091 183.426 28.4659C183.642 29.0227 183.75 29.7083 183.75 30.5227V31.0909H177.023V29.9318H182.386C182.386 29.4394 182.288 29 182.091 28.6136C181.898 28.2273 181.621 27.9223 181.261 27.6989C180.905 27.4754 180.485 27.3636 180 27.3636C179.466 27.3636 179.004 27.4962 178.614 27.7614C178.227 28.0227 177.93 28.3636 177.722 28.7841C177.513 29.2045 177.409 29.6553 177.409 30.1364V30.9091C177.409 31.5682 177.523 32.1269 177.75 32.5852C177.981 33.0398 178.301 33.3864 178.71 33.625C179.119 33.8598 179.595 33.9773 180.136 33.9773C180.489 33.9773 180.807 33.928 181.091 33.8295C181.379 33.7273 181.627 33.5758 181.835 33.375C182.044 33.1705 182.205 32.9167 182.318 32.6136L183.614 32.9773C183.477 33.4167 183.248 33.803 182.926 34.1364C182.604 34.4659 182.206 34.7235 181.733 34.9091C181.259 35.0909 180.727 35.1818 180.136 35.1818ZM99.5227 57L96.3409 45.3636H97.7727L100.205 54.8409H100.318L102.795 45.3636H104.386L106.864 54.8409H106.977L109.409 45.3636H110.841L107.659 57H106.205L103.636 47.7273H103.545L100.977 57H99.5227ZM115.261 57.1818C114.42 57.1818 113.695 56.9962 113.085 56.625C112.479 56.25 112.011 55.7273 111.682 55.0568C111.356 54.3826 111.193 53.5985 111.193 52.7045C111.193 51.8106 111.356 51.0227 111.682 50.3409C112.011 49.6553 112.47 49.1212 113.057 48.7386C113.648 48.3523 114.337 48.1591 115.125 48.1591C115.58 48.1591 116.028 48.2348 116.472 48.3864C116.915 48.5379 117.318 48.7841 117.682 49.125C118.045 49.4621 118.335 49.9091 118.551 50.4659C118.767 51.0227 118.875 51.7083 118.875 52.5227V53.0909H112.148V51.9318H117.511C117.511 51.4394 117.413 51 117.216 50.6136C117.023 50.2273 116.746 49.9223 116.386 49.6989C116.03 49.4754 115.61 49.3636 115.125 49.3636C114.591 49.3636 114.129 49.4962 113.739 49.7614C113.352 50.0227 113.055 50.3636 112.847 50.7841C112.638 51.2045 112.534 51.6553 112.534 52.1364V52.9091C112.534 53.5682 112.648 54.1269 112.875 54.5852C113.106 55.0398 113.426 55.3864 113.835 55.625C114.244 55.8598 114.72 55.9773 115.261 55.9773C115.614 55.9773 115.932 55.928 116.216 55.8295C116.504 55.7273 116.752 55.5758 116.96 55.375C117.169 55.1705 117.33 54.9167 117.443 54.6136L118.739 54.9773C118.602 55.4167 118.373 55.803 118.051 56.1364C117.729 56.4659 117.331 56.7235 116.858 56.9091C116.384 57.0909 115.852 57.1818 115.261 57.1818ZM121.097 57V45.3636H122.438V49.6591H122.551C122.65 49.5076 122.786 49.3144 122.96 49.0795C123.138 48.8409 123.392 48.6288 123.722 48.4432C124.055 48.2538 124.506 48.1591 125.074 48.1591C125.809 48.1591 126.456 48.3428 127.017 48.7102C127.578 49.0777 128.015 49.5985 128.33 50.2727C128.644 50.947 128.801 51.7424 128.801 52.6591C128.801 53.5833 128.644 54.3845 128.33 55.0625C128.015 55.7367 127.58 56.2595 127.023 56.6307C126.466 56.9981 125.824 57.1818 125.097 57.1818C124.536 57.1818 124.087 57.089 123.75 56.9034C123.413 56.714 123.153 56.5 122.972 56.2614C122.79 56.0189 122.65 55.8182 122.551 55.6591H122.392V57H121.097ZM122.415 52.6364C122.415 53.2955 122.511 53.8769 122.705 54.3807C122.898 54.8807 123.18 55.2727 123.551 55.5568C123.922 55.8371 124.377 55.9773 124.915 55.9773C125.475 55.9773 125.943 55.8295 126.318 55.5341C126.697 55.2348 126.981 54.8333 127.17 54.3295C127.364 53.822 127.46 53.2576 127.46 52.6364C127.46 52.0227 127.366 51.4697 127.176 50.9773C126.991 50.4811 126.708 50.089 126.33 49.8011C125.955 49.5095 125.483 49.3636 124.915 49.3636C124.369 49.3636 123.911 49.5019 123.54 49.7784C123.169 50.0511 122.888 50.4337 122.699 50.9261C122.509 51.4148 122.415 51.9848 122.415 52.6364ZM136.011 57H134.534L138.807 45.3636H140.261L144.534 57H143.057L139.58 47.2045H139.489L136.011 57ZM136.557 52.4545H142.511V53.7045H136.557V52.4545ZM146.165 60.2727V48.2727H147.46V49.6591H147.619C147.718 49.5076 147.854 49.3144 148.028 49.0795C148.206 48.8409 148.46 48.6288 148.79 48.4432C149.123 48.2538 149.574 48.1591 150.142 48.1591C150.877 48.1591 151.525 48.3428 152.085 48.7102C152.646 49.0777 153.083 49.5985 153.398 50.2727C153.712 50.947 153.869 51.7424 153.869 52.6591C153.869 53.5833 153.712 54.3845 153.398 55.0625C153.083 55.7367 152.648 56.2595 152.091 56.6307C151.534 56.9981 150.892 57.1818 150.165 57.1818C149.604 57.1818 149.155 57.089 148.818 56.9034C148.481 56.714 148.222 56.5 148.04 56.2614C147.858 56.0189 147.718 55.8182 147.619 55.6591H147.506V60.2727H146.165ZM147.483 52.6364C147.483 53.2955 147.58 53.8769 147.773 54.3807C147.966 54.8807 148.248 55.2727 148.619 55.5568C148.991 55.8371 149.445 55.9773 149.983 55.9773C150.544 55.9773 151.011 55.8295 151.386 55.5341C151.765 55.2348 152.049 54.8333 152.239 54.3295C152.432 53.822 152.528 53.2576 152.528 52.6364C152.528 52.0227 152.434 51.4697 152.244 50.9773C152.059 50.4811 151.777 50.089 151.398 49.8011C151.023 49.5095 150.551 49.3636 149.983 49.3636C149.438 49.3636 148.979 49.5019 148.608 49.7784C148.237 50.0511 147.956 50.4337 147.767 50.9261C147.578 51.4148 147.483 51.9848 147.483 52.6364ZM155.915 60.2727V48.2727H157.21V49.6591H157.369C157.468 49.5076 157.604 49.3144 157.778 49.0795C157.956 48.8409 158.21 48.6288 158.54 48.4432C158.873 48.2538 159.324 48.1591 159.892 48.1591C160.627 48.1591 161.275 48.3428 161.835 48.7102C162.396 49.0777 162.833 49.5985 163.148 50.2727C163.462 50.947 163.619 51.7424 163.619 52.6591C163.619 53.5833 163.462 54.3845 163.148 55.0625C162.833 55.7367 162.398 56.2595 161.841 56.6307C161.284 56.9981 160.642 57.1818 159.915 57.1818C159.354 57.1818 158.905 57.089 158.568 56.9034C158.231 56.714 157.972 56.5 157.79 56.2614C157.608 56.0189 157.468 55.8182 157.369 55.6591H157.256V60.2727H155.915ZM157.233 52.6364C157.233 53.2955 157.33 53.8769 157.523 54.3807C157.716 54.8807 157.998 55.2727 158.369 55.5568C158.741 55.8371 159.195 55.9773 159.733 55.9773C160.294 55.9773 160.761 55.8295 161.136 55.5341C161.515 55.2348 161.799 54.8333 161.989 54.3295C162.182 53.822 162.278 53.2576 162.278 52.6364C162.278 52.0227 162.184 51.4697 161.994 50.9773C161.809 50.4811 161.527 50.089 161.148 49.8011C160.773 49.5095 160.301 49.3636 159.733 49.3636C159.188 49.3636 158.729 49.5019 158.358 49.7784C157.987 50.0511 157.706 50.4337 157.517 50.9261C157.328 51.4148 157.233 51.9848 157.233 52.6364Z" fill="#AEAEAE"/>
</svg>
