<svg width="254" height="176" viewBox="0 0 254 176" fill="none" xmlns="http://www.w3.org/2000/svg">
<path d="M0.240234 175.23L31.933 175.095L63.6201 175.044L127 174.947L190.38 175.044L222.073 175.095L253.76 175.23L222.073 175.372L190.38 175.417L127 175.514L63.6201 175.417L31.933 175.372L0.240234 175.23Z" fill="#263238"/>
<path d="M99.8342 169.249H27.6816V175.224H99.8342V169.249Z" fill="#455A64"/>
<path d="M237.211 169.249H99.8262V175.224H237.211V169.249Z" fill="#37474F"/>
<path d="M165.076 169.249H27.6803L8.95117 81.1426H146.347L165.076 169.249Z" fill="#263238"/>
<path d="M71.0747 163.682H32.059L15.6973 86.7041H54.7129L71.0747 163.682Z" fill="white"/>
<path d="M31.2415 115.593C30.9689 115.788 30.6612 115.929 30.3353 116.007C29.4133 116.219 28.4448 116.071 27.6282 115.593C26.76 115.12 26.0656 114.382 25.646 113.487C24.8078 111.64 25.5384 109.783 27.2884 109.335C29.0384 108.888 31.1339 110.015 31.9778 111.856C32.6574 113.362 32.3119 114.857 31.2415 115.593Z" fill="#C7C7C7"/>
<path d="M29.7762 112.303C29.8091 112.426 29.8126 112.556 29.7863 112.681C29.7599 112.806 29.7046 112.923 29.6247 113.023C29.5447 113.123 29.4425 113.202 29.3262 113.255C29.2098 113.308 29.0827 113.333 28.955 113.328C28.6585 113.317 28.3738 113.209 28.1446 113.021C27.9154 112.833 27.7544 112.574 27.6863 112.286C27.6504 112.161 27.6446 112.029 27.6694 111.902C27.6943 111.774 27.749 111.654 27.8292 111.552C27.9093 111.45 28.0126 111.368 28.1306 111.313C28.2485 111.259 28.3777 111.233 28.5075 111.238C28.8065 111.252 29.0926 111.364 29.3218 111.556C29.551 111.748 29.7107 112.011 29.7762 112.303Z" fill="white"/>
<path d="M31.1511 115.186L31.2417 115.616C30.9691 115.811 30.6614 115.951 30.3356 116.03C29.4135 116.242 28.445 116.094 27.6284 115.616L27.5378 115.186C27.4756 114.97 27.4656 114.743 27.5087 114.522C27.5518 114.302 27.6467 114.095 27.7856 113.918C27.9244 113.742 28.1033 113.601 28.3074 113.507C28.5115 113.413 28.735 113.37 28.9593 113.379C29.4712 113.402 29.9618 113.59 30.3572 113.916C30.7525 114.242 31.0312 114.688 31.1511 115.186Z" fill="white"/>
<path d="M49.9058 110.604H34.2576L33.9688 109.256H49.6169L49.9058 110.604Z" fill="#C7C7C7"/>
<path d="M56.1608 113.079H34.7812L34.6113 112.303H55.9966L56.1608 113.079Z" fill="#C7C7C7"/>
<path d="M56.5183 114.755H35.133L34.9688 113.979H56.3483L56.5183 114.755Z" fill="#C7C7C7"/>
<path d="M33.5539 126.354C33.2826 126.548 32.977 126.688 32.6534 126.768C31.7295 126.98 30.7591 126.833 29.9406 126.354C29.0728 125.882 28.3798 125.143 27.964 124.247C27.1202 122.401 27.8507 120.543 29.6008 120.096C31.3508 119.649 33.4463 120.776 34.2901 122.616C34.9414 124.089 34.5959 125.601 33.5539 126.354Z" fill="#383838"/>
<path d="M32.0594 123.046C32.0955 123.171 32.1015 123.302 32.0767 123.43C32.0519 123.557 31.997 123.677 31.9167 123.779C31.8364 123.881 31.733 123.962 31.615 124.016C31.4969 124.07 31.3678 124.095 31.2382 124.088C30.942 124.077 30.6578 123.969 30.4288 123.781C30.1997 123.592 30.0385 123.335 29.9695 123.046C29.9336 122.922 29.9278 122.79 29.9526 122.662C29.9775 122.535 30.0322 122.415 30.1124 122.313C30.1925 122.21 30.2958 122.129 30.4138 122.074C30.5317 122.019 30.6609 121.994 30.7908 121.999C31.0874 122.012 31.3717 122.121 31.6007 122.31C31.8296 122.499 31.9907 122.758 32.0594 123.046Z" fill="white"/>
<path d="M33.4353 125.929L33.5542 126.354C33.283 126.547 32.9774 126.688 32.6537 126.767C31.7298 126.98 30.7595 126.832 29.9409 126.354L29.8503 125.923C29.7881 125.707 29.7781 125.48 29.8212 125.259C29.8643 125.039 29.9592 124.832 30.0981 124.656C30.2369 124.479 30.4158 124.338 30.6199 124.244C30.824 124.151 31.0475 124.107 31.2718 124.117C31.7795 124.145 32.2642 124.337 32.654 124.664C33.0438 124.991 33.3178 125.434 33.4353 125.929Z" fill="white"/>
<path d="M52.187 121.354H36.5388L36.25 120H51.9038L52.187 121.354Z" fill="#C7C7C7"/>
<path d="M58.4442 123.823H37.0646L36.9004 123.047H58.28L58.4442 123.823Z" fill="#C7C7C7"/>
<path d="M58.8015 125.499H37.4219L37.252 124.723H58.6372L58.8015 125.499Z" fill="#C7C7C7"/>
<path d="M35.8181 137.115C35.5469 137.309 35.2413 137.449 34.9176 137.528C33.9901 137.744 33.0152 137.596 32.1935 137.115C31.3257 136.643 30.6327 135.904 30.217 135.008C29.3731 133.167 30.1093 131.304 31.8537 130.857C33.598 130.409 35.7049 131.536 36.5487 133.377C37.2227 134.85 36.8772 136.345 35.8181 137.115Z" fill="#455A64"/>
<path d="M34.3407 133.79C34.3802 133.916 34.3887 134.049 34.3655 134.179C34.3422 134.309 34.2879 134.431 34.2072 134.535C34.1265 134.639 34.0218 134.722 33.902 134.777C33.7823 134.831 33.651 134.856 33.5195 134.849C33.2233 134.838 32.9391 134.73 32.7101 134.542C32.481 134.353 32.3198 134.096 32.2509 133.807C32.2147 133.682 32.209 133.55 32.2341 133.422C32.2592 133.294 32.3145 133.174 32.3953 133.071C32.4761 132.969 32.5802 132.887 32.6989 132.833C32.8175 132.779 32.9474 132.754 33.0777 132.76C33.3714 132.772 33.6532 132.879 33.8809 133.065C34.1086 133.251 34.2699 133.505 34.3407 133.79Z" fill="white"/>
<path d="M35.7166 136.673L35.8186 137.115C35.5474 137.309 35.2418 137.449 34.9181 137.528C33.9906 137.744 33.0156 137.596 32.194 137.115L32.1033 136.685C32.036 136.465 32.023 136.232 32.0655 136.006C32.1079 135.78 32.2046 135.567 32.3472 135.387C32.4897 135.206 32.6739 135.063 32.884 134.97C33.0941 134.876 33.3237 134.835 33.5532 134.85C34.0627 134.878 34.549 135.072 34.9392 135.4C35.3293 135.729 35.6021 136.176 35.7166 136.673Z" fill="white"/>
<path d="M54.4741 132.097H38.8203L38.5371 130.743H54.1853L54.4741 132.097Z" fill="#C7C7C7"/>
<path d="M60.7255 134.566H39.3459L39.1816 133.79H60.5612L60.7255 134.566Z" fill="#C7C7C7"/>
<path d="M61.0829 136.243H39.7033L39.5391 135.467H60.9187L61.0829 136.243Z" fill="#C7C7C7"/>
<path d="M38.084 147.875C37.8124 148.069 37.5071 148.211 37.1835 148.294C36.2588 148.501 35.2897 148.352 34.4707 147.875C33.6054 147.399 32.9133 146.662 32.4942 145.768C31.656 143.91 32.4205 142.036 34.1196 141.588C35.8186 141.141 37.9651 142.268 38.8089 144.108C39.5055 145.609 39.1657 147.087 38.084 147.875Z" fill="#263238"/>
<path d="M36.6282 144.534C36.668 144.659 36.6771 144.793 36.6549 144.922C36.6327 145.052 36.5798 145.175 36.5005 145.28C36.4213 145.386 36.3181 145.47 36.1994 145.528C36.0807 145.585 35.9501 145.613 35.8183 145.61C35.5217 145.597 35.2374 145.488 35.0084 145.298C34.7795 145.109 34.6184 144.851 34.5497 144.562C34.5149 144.437 34.5101 144.305 34.5358 144.177C34.5614 144.05 34.6168 143.93 34.6973 143.828C34.7779 143.726 34.8814 143.645 34.9994 143.59C35.1174 143.535 35.2467 143.509 35.3766 143.514C35.6665 143.529 35.9442 143.636 36.1693 143.819C36.3943 144.002 36.5551 144.253 36.6282 144.534Z" fill="white"/>
<path d="M37.9975 147.416L38.0824 147.875C37.8109 148.069 37.5055 148.212 37.1819 148.294C36.2572 148.502 35.2881 148.352 34.4691 147.875L34.3785 147.445C34.3116 147.226 34.2985 146.994 34.3404 146.769C34.3823 146.544 34.478 146.332 34.6192 146.152C34.7604 145.972 34.9431 145.828 35.1517 145.734C35.3602 145.64 35.5885 145.597 35.817 145.61C36.3275 145.633 36.8164 145.822 37.2099 146.148C37.6033 146.474 37.8798 146.919 37.9975 147.416Z" fill="white"/>
<path d="M56.7573 142.84H41.1035L40.8203 141.486H56.4685L56.7573 142.84Z" fill="#C7C7C7"/>
<path d="M63.0087 145.31H41.6291L41.4648 144.534H62.8444L63.0087 145.31Z" fill="#C7C7C7"/>
<path d="M63.3641 146.986H41.9846L41.8203 146.21H63.1999L63.3641 146.986Z" fill="#C7C7C7"/>
<path d="M40.3782 158.59C40.1046 158.785 39.7974 158.927 39.4721 159.01C38.5492 159.217 37.5818 159.068 36.7649 158.59C35.8967 158.117 35.2023 157.379 34.7827 156.484C33.9445 154.643 34.6751 152.78 36.4251 152.332C38.1751 151.885 40.2706 153.012 41.1145 154.858C41.7941 156.37 41.4486 157.832 40.3782 158.59Z" fill="#C7C7C7"/>
<path d="M38.9109 155.277C38.9471 155.402 38.9528 155.534 38.9277 155.662C38.9026 155.79 38.8473 155.911 38.7665 156.013C38.6857 156.115 38.5816 156.197 38.4629 156.251C38.3443 156.305 38.2144 156.331 38.0841 156.325C37.7881 156.311 37.5046 156.202 37.2766 156.013C37.0486 155.824 36.8887 155.565 36.8211 155.277C36.7852 155.152 36.7794 155.02 36.8042 154.893C36.829 154.765 36.8838 154.645 36.9639 154.543C37.0441 154.441 37.1474 154.359 37.2653 154.304C37.3833 154.25 37.5125 154.224 37.6423 154.229C37.939 154.242 38.2233 154.351 38.4522 154.54C38.6812 154.729 38.8422 154.988 38.9109 155.277Z" fill="white"/>
<path d="M40.2868 158.16L40.3774 158.591C40.1038 158.785 39.7966 158.927 39.4712 159.01C38.5483 159.218 37.5809 159.068 36.7641 158.591L36.6678 158.16C36.6103 157.946 36.6037 157.722 36.6485 157.504C36.6933 157.287 36.7883 157.084 36.9258 156.91C37.0634 156.736 37.2398 156.596 37.4408 156.503C37.6419 156.409 37.862 156.364 38.0837 156.371C38.595 156.391 39.086 156.576 39.4832 156.899C39.8804 157.221 40.1623 157.664 40.2868 158.16Z" fill="white"/>
<path d="M59.0386 153.584H43.3904L43.1016 152.23H58.7554L59.0386 153.584Z" fill="#C7C7C7"/>
<path d="M65.2975 156.053H43.918L43.748 155.277H65.1276L65.2975 156.053Z" fill="#C7C7C7"/>
<path d="M65.653 157.73H44.2678L44.1035 156.954H65.4831L65.653 157.73Z" fill="#C7C7C7"/>
<path d="M25.3691 97.2894C25.198 97.4104 25.006 97.4988 24.8028 97.5499C24.2239 97.6836 23.6159 97.5904 23.1037 97.2894C22.5648 96.9959 22.1341 96.5374 21.8747 95.9811C21.348 94.8484 21.8068 93.6761 22.8942 93.3929C23.4871 93.2917 24.0969 93.3917 24.6264 93.677C25.156 93.9623 25.5749 94.4165 25.8165 94.9674C26.0277 95.345 26.0986 95.7852 26.0167 96.2101C25.9349 96.635 25.7055 97.0172 25.3691 97.2894Z" fill="#C7C7C7"/>
<path d="M24.4519 95.2044C24.4744 95.282 24.4781 95.3638 24.4628 95.4431C24.4475 95.5224 24.4135 95.597 24.3637 95.6606C24.314 95.7242 24.2498 95.775 24.1765 95.809C24.1032 95.8429 24.0229 95.8589 23.9422 95.8557C23.7578 95.8482 23.581 95.7804 23.4388 95.6628C23.2966 95.5451 23.1969 95.3841 23.1549 95.2044C23.1324 95.1269 23.1287 95.045 23.144 94.9657C23.1593 94.8864 23.1933 94.8119 23.2431 94.7483C23.2929 94.6847 23.357 94.6338 23.4303 94.5999C23.5036 94.566 23.5839 94.5499 23.6647 94.5531C23.8488 94.5616 24.0251 94.6297 24.1671 94.7472C24.3091 94.8647 24.4091 95.0252 24.4519 95.2044Z" fill="white"/>
<path d="M25.3076 97.023L25.3699 97.2892C25.1988 97.4102 25.0068 97.4985 24.8035 97.5497C24.2247 97.6834 23.6167 97.5902 23.1045 97.2892L23.0479 97.023C23.0093 96.8879 23.0033 96.7456 23.0303 96.6077C23.0573 96.4698 23.1167 96.3403 23.2034 96.2298C23.2902 96.1193 23.4019 96.0309 23.5294 95.9719C23.6569 95.9129 23.7966 95.8849 23.937 95.8903C24.258 95.903 24.5659 96.0207 24.8135 96.2253C25.0611 96.43 25.2347 96.7102 25.3076 97.023Z" fill="white"/>
<path d="M52.1565 95.9417C52.1499 95.9204 52.1486 95.8978 52.1528 95.876C52.157 95.8541 52.1665 95.8336 52.1805 95.8162C52.1945 95.7989 52.2125 95.7853 52.233 95.7765C52.2535 95.7678 52.2758 95.7642 52.298 95.7661C52.3488 95.768 52.3976 95.786 52.4373 95.8176C52.4771 95.8492 52.5057 95.8927 52.5189 95.9417C52.5241 95.9637 52.5242 95.9865 52.5192 96.0085C52.5142 96.0305 52.5042 96.0511 52.4899 96.0686C52.4757 96.0861 52.4576 96.1001 52.4371 96.1095C52.4166 96.119 52.3942 96.1235 52.3717 96.1229C52.3206 96.1214 52.2716 96.1027 52.2325 96.0698C52.1935 96.0369 52.1666 95.9917 52.1565 95.9417Z" fill="#C7C7C7"/>
<path d="M52.0057 95.2048C51.9994 95.1832 51.9983 95.1605 52.0025 95.1384C52.0068 95.1163 52.0162 95.0956 52.03 95.0779C52.0438 95.0601 52.0617 95.046 52.0821 95.0365C52.1025 95.0271 52.1248 95.0226 52.1473 95.0236C52.199 95.0248 52.2489 95.0433 52.2889 95.0762C52.3289 95.109 52.3568 95.1543 52.3682 95.2048C52.3745 95.2264 52.3756 95.2491 52.3713 95.2712C52.3671 95.2933 52.3577 95.314 52.3438 95.3317C52.33 95.3494 52.3122 95.3636 52.2918 95.373C52.2714 95.3825 52.249 95.3869 52.2266 95.386C52.1748 95.3848 52.125 95.3662 52.085 95.3334C52.0449 95.3006 52.017 95.2553 52.0057 95.2048Z" fill="#C7C7C7"/>
<path d="M51.8534 94.5144C51.847 94.4928 51.846 94.47 51.8502 94.448C51.8544 94.4259 51.8638 94.4051 51.8777 94.3874C51.8915 94.3697 51.9094 94.3556 51.9298 94.3461C51.9501 94.3367 51.9725 94.3322 51.9949 94.3331C52.0467 94.3344 52.0965 94.3529 52.1366 94.3858C52.1766 94.4186 52.2045 94.4639 52.2158 94.5144C52.2221 94.5359 52.2232 94.5587 52.219 94.5808C52.2148 94.6028 52.2053 94.6236 52.1915 94.6413C52.1777 94.659 52.1598 94.6732 52.1394 94.6826C52.119 94.692 52.0967 94.6965 52.0742 94.6956C52.023 94.6925 51.9741 94.6733 51.9344 94.6408C51.8948 94.6082 51.8664 94.564 51.8534 94.5144Z" fill="#C7C7C7"/>
<path d="M49.524 95.6866H47.4568L47.168 94.333H49.2351L49.524 95.6866Z" fill="#C7C7C7"/>
<path d="M47.457 95.6865L47.5476 96.1226L47.9044 95.6865H47.457Z" fill="#C7C7C7"/>
<path d="M48.9176 94.6947H47.6377L47.6094 94.5645H48.8893L48.9176 94.6947Z" fill="white"/>
<path d="M48.9743 94.9615H47.6943L47.666 94.8369H48.9516L48.9743 94.9615Z" fill="white"/>
<path d="M49.0311 95.2281H47.7512L47.7285 95.1035H49.0085L49.0311 95.2281Z" fill="white"/>
<path d="M142.853 90.8668H16.5808L15.6973 86.7041H141.97L142.853 90.8668Z" fill="#37474F"/>
<path d="M19.4459 88.7823C19.4819 88.9057 19.4881 89.0358 19.4639 89.1621C19.4397 89.2883 19.3858 89.4069 19.3067 89.5082C19.2275 89.6094 19.1255 89.6904 19.0088 89.7444C18.8922 89.7984 18.7644 89.8239 18.636 89.8187C18.3428 89.8066 18.0616 89.6986 17.8355 89.5115C17.6095 89.3243 17.451 89.0682 17.3844 88.7823C17.3494 88.6593 17.3441 88.5298 17.3688 88.4043C17.3935 88.2789 17.4476 88.161 17.5266 88.0605C17.6056 87.9599 17.7073 87.8795 17.8233 87.8258C17.9394 87.7721 18.0665 87.7467 18.1943 87.7516C18.4867 87.7634 18.7673 87.8705 18.9933 88.0566C19.2193 88.2427 19.3782 88.4975 19.4459 88.7823Z" fill="#C7C7C7"/>
<path d="M23.6645 88.7826C23.6994 88.9063 23.7046 89.0366 23.6796 89.1627C23.6545 89.2888 23.6 89.4073 23.5205 89.5083C23.441 89.6094 23.3387 89.6902 23.222 89.7442C23.1053 89.7982 22.9775 89.8238 22.849 89.819C22.5563 89.805 22.276 89.6964 22.0503 89.5095C21.8246 89.3226 21.6657 89.0675 21.5973 88.7826C21.5622 88.6591 21.5569 88.529 21.5819 88.4031C21.6069 88.2772 21.6615 88.159 21.7412 88.0583C21.8208 87.9577 21.9233 87.8774 22.0401 87.8241C22.1568 87.7708 22.2846 87.746 22.4129 87.7518C22.7054 87.7636 22.986 87.8708 23.2119 88.0568C23.4379 88.2429 23.5968 88.4978 23.6645 88.7826Z" fill="white"/>
<path d="M27.8892 88.7823C27.9253 88.9057 27.9315 89.0358 27.9073 89.1621C27.8831 89.2883 27.8292 89.4069 27.75 89.5082C27.6709 89.6094 27.5688 89.6904 27.4522 89.7444C27.3356 89.7984 27.2078 89.8239 27.0794 89.8187C26.7861 89.8066 26.5049 89.6986 26.2789 89.5115C26.0528 89.3243 25.8944 89.0682 25.8277 88.7823C25.7928 88.6593 25.7874 88.5298 25.8121 88.4043C25.8369 88.2789 25.8909 88.161 25.9699 88.0605C26.0489 87.9599 26.1506 87.8795 26.2667 87.8258C26.3827 87.7721 26.5098 87.7467 26.6376 87.7516C26.9301 87.7634 27.2107 87.8705 27.4367 88.0566C27.6626 88.2427 27.8216 88.4975 27.8892 88.7823Z" fill="#383838"/>
<path d="M142.853 90.8672H55.5957L71.074 163.682H158.331L142.853 90.8672Z" fill="#EBEBEB"/>
<path d="M150.792 160.171H78.3339L77.4277 155.929H149.892L150.792 160.171Z" fill="white"/>
<path d="M149.343 158.103C149.379 158.228 149.385 158.36 149.36 158.487C149.335 158.615 149.28 158.735 149.2 158.837C149.12 158.939 149.017 159.021 148.899 159.076C148.781 159.13 148.652 159.156 148.522 159.151C148.225 159.137 147.941 159.028 147.713 158.839C147.484 158.65 147.323 158.392 147.253 158.103C147.218 157.978 147.213 157.847 147.239 157.72C147.264 157.592 147.32 157.473 147.401 157.371C147.481 157.27 147.585 157.189 147.703 157.135C147.821 157.081 147.95 157.056 148.08 157.061C148.375 157.074 148.658 157.183 148.886 157.371C149.114 157.559 149.274 157.816 149.343 158.103Z" fill="#383838"/>
<path d="M147.979 157.503L148.755 158.103L148.239 158.709L148.075 158.568L148.466 158.103L147.877 157.645L147.979 157.503Z" fill="white"/>
<path d="M79.3429 159.316H79.0654L78.5273 156.784H78.8048L79.3429 159.316Z" fill="#263238"/>
<path d="M153.618 160.205C153.593 160.204 153.569 160.196 153.55 160.181C153.53 160.165 153.516 160.144 153.51 160.12L153.295 159.1C153.291 159.09 153.29 159.079 153.292 159.068C153.293 159.056 153.298 159.046 153.305 159.037C153.311 159.028 153.32 159.021 153.33 159.016C153.341 159.011 153.352 159.009 153.363 159.01C153.388 159.012 153.412 159.021 153.432 159.038C153.451 159.054 153.465 159.076 153.471 159.1L153.686 160.12C153.688 160.13 153.689 160.141 153.686 160.151C153.684 160.161 153.68 160.171 153.673 160.179C153.666 160.188 153.658 160.194 153.648 160.199C153.639 160.203 153.628 160.205 153.618 160.205Z" fill="#A6A6A6"/>
<path d="M154.184 160.205H153.051C153.026 160.204 153.002 160.196 152.983 160.181C152.963 160.165 152.95 160.144 152.943 160.12C152.941 160.109 152.941 160.098 152.943 160.088C152.945 160.077 152.95 160.067 152.956 160.059C152.963 160.05 152.971 160.043 152.98 160.038C152.99 160.033 153.001 160.03 153.011 160.029H154.144C154.17 160.03 154.194 160.039 154.214 160.056C154.233 160.072 154.247 160.095 154.252 160.12C154.254 160.13 154.255 160.141 154.252 160.151C154.25 160.161 154.246 160.171 154.239 160.179C154.232 160.188 154.224 160.194 154.214 160.199C154.205 160.203 154.194 160.205 154.184 160.205Z" fill="#A6A6A6"/>
<path d="M153.618 156.648L153.929 158.127C153.954 158.212 153.957 158.303 153.94 158.39C153.922 158.478 153.884 158.56 153.829 158.63C153.774 158.7 153.703 158.756 153.622 158.794C153.541 158.831 153.452 158.849 153.363 158.846C153.219 158.84 153.078 158.801 152.953 158.731C152.827 158.661 152.719 158.563 152.638 158.444C152.569 158.349 152.521 158.241 152.496 158.127L152.179 156.648C152.155 156.562 152.152 156.472 152.169 156.385C152.187 156.297 152.224 156.215 152.28 156.145C152.335 156.075 152.406 156.018 152.487 155.981C152.568 155.944 152.657 155.926 152.746 155.929C152.954 155.928 153.155 156.003 153.312 156.139C153.465 156.259 153.575 156.426 153.624 156.614C153.624 156.614 153.618 156.637 153.618 156.648Z" fill="#A6A6A6"/>
<path d="M153.415 159.202C153.129 159.197 152.854 159.095 152.633 158.913C152.391 158.725 152.221 158.459 152.152 158.16L152.021 157.537C152.018 157.526 152.017 157.515 152.018 157.504C152.02 157.493 152.024 157.482 152.031 157.473C152.038 157.464 152.047 157.457 152.057 157.453C152.067 157.448 152.078 157.446 152.089 157.446C152.114 157.447 152.138 157.457 152.157 157.474C152.175 157.49 152.188 157.512 152.191 157.537L152.327 158.16C152.387 158.409 152.528 158.631 152.729 158.789C152.923 158.949 153.169 159.034 153.42 159.027C153.526 159.021 153.629 158.992 153.722 158.942C153.814 158.891 153.894 158.82 153.955 158.734C154.017 158.647 154.057 158.548 154.074 158.444C154.092 158.34 154.085 158.233 154.055 158.132L153.93 157.537C153.926 157.526 153.925 157.515 153.927 157.504C153.929 157.493 153.933 157.482 153.94 157.473C153.946 157.464 153.955 157.457 153.965 157.453C153.976 157.448 153.987 157.446 153.998 157.446C154.023 157.447 154.047 157.457 154.065 157.474C154.084 157.49 154.096 157.512 154.1 157.537L154.23 158.132C154.267 158.254 154.275 158.383 154.254 158.508C154.232 158.634 154.183 158.753 154.108 158.856C154.034 158.96 153.937 159.045 153.824 159.105C153.712 159.165 153.587 159.198 153.46 159.202H153.415Z" fill="#A6A6A6"/>
<path d="M76.3401 158.07C76.4073 158.323 76.4151 158.588 76.363 158.844C76.3108 159.101 76.2001 159.342 76.0395 159.548C75.8789 159.755 75.6727 159.922 75.437 160.036C75.2013 160.15 74.9424 160.207 74.6807 160.205C74.0804 160.179 73.5046 159.959 73.0399 159.578C72.5752 159.197 72.2467 158.676 72.1038 158.092C72.0366 157.839 72.0288 157.574 72.0809 157.318C72.1331 157.061 72.2438 156.82 72.4044 156.613C72.565 156.407 72.7712 156.24 73.0069 156.126C73.2426 156.012 73.5015 155.954 73.7632 155.957C74.3641 155.981 74.9408 156.2 75.4058 156.581C75.8708 156.963 76.1989 157.485 76.3401 158.07Z" fill="white"/>
<path d="M73.4192 157.634C73.4301 157.669 73.4324 157.707 73.4257 157.743C73.419 157.78 73.4037 157.814 73.3809 157.844C73.3582 157.873 73.3287 157.897 73.2949 157.912C73.2612 157.928 73.2242 157.935 73.187 157.934C73.102 157.931 73.02 157.901 72.9535 157.848C72.8871 157.795 72.8398 157.722 72.8189 157.639C72.8091 157.603 72.8079 157.565 72.8154 157.529C72.8229 157.492 72.8388 157.458 72.862 157.429C72.8851 157.4 72.9148 157.376 72.9486 157.361C72.9825 157.345 73.0195 157.338 73.0568 157.339C73.1411 157.342 73.2222 157.372 73.2877 157.425C73.3532 157.478 73.3994 157.552 73.4192 157.634Z" fill="#A6A6A6"/>
<path d="M75.4623 157.628C75.4732 157.663 75.4755 157.701 75.4688 157.737C75.4621 157.774 75.4468 157.808 75.424 157.838C75.4013 157.867 75.3718 157.891 75.338 157.906C75.3043 157.922 75.2673 157.929 75.2301 157.928C75.1453 157.924 75.064 157.892 74.9986 157.838C74.9332 157.784 74.8873 157.71 74.8677 157.628C74.8567 157.592 74.8545 157.554 74.8612 157.518C74.8678 157.481 74.8832 157.447 74.906 157.417C74.9287 157.388 74.9582 157.364 74.992 157.349C75.0257 157.333 75.0627 157.326 75.0999 157.327C75.1847 157.331 75.2659 157.363 75.3313 157.417C75.3967 157.471 75.4427 157.545 75.4623 157.628Z" fill="#A6A6A6"/>
<path d="M74.5606 157.537C74.5837 157.633 74.5695 157.734 74.521 157.82C74.4888 157.874 74.443 157.918 74.3883 157.947C74.3335 157.977 74.2718 157.992 74.2095 157.99C74.0629 157.988 73.9228 157.929 73.8187 157.826C73.7394 157.749 73.6843 157.651 73.6602 157.543L74.5606 157.537Z" fill="#A6A6A6"/>
<path d="M74.5226 157.82C74.4904 157.873 74.4446 157.917 74.3899 157.947C74.3351 157.977 74.2734 157.992 74.2111 157.99C74.0645 157.988 73.9244 157.929 73.8203 157.826C73.8623 157.783 73.9126 157.749 73.9682 157.727C74.0237 157.705 74.0833 157.694 74.1431 157.695C74.2796 157.696 74.4124 157.739 74.5226 157.82Z" fill="#DBDBDB"/>
<path d="M25.811 104.573L25.5448 104.816L24.7972 104.04L24.5254 103.757C24.5656 103.742 24.6022 103.719 24.633 103.689C24.6937 103.633 24.7353 103.56 24.7519 103.479L25.0408 103.78L25.811 104.573Z" fill="#A6A6A6"/>
<path d="M24.8036 102.76C24.6568 102.58 24.4467 102.462 24.2161 102.432C23.9855 102.401 23.752 102.46 23.5633 102.596C23.4888 102.681 23.4321 102.781 23.3965 102.888C23.3609 102.996 23.3472 103.109 23.3562 103.222C23.3652 103.335 23.3966 103.445 23.4487 103.546C23.5008 103.646 23.5725 103.735 23.6596 103.808C23.7967 103.966 23.9819 104.074 24.1867 104.116C24.3914 104.158 24.6042 104.131 24.7923 104.04C24.8294 104.02 24.8637 103.995 24.8943 103.966C24.9528 103.914 25.0008 103.85 25.0358 103.78C25.1055 103.606 25.1207 103.416 25.0792 103.234C25.0377 103.051 24.9415 102.886 24.8036 102.76ZM24.6337 103.689C24.6029 103.719 24.5663 103.742 24.5261 103.757C24.4164 103.799 24.2965 103.805 24.1828 103.776C24.0692 103.746 23.9675 103.682 23.8918 103.593C23.8398 103.55 23.7968 103.497 23.7654 103.438C23.734 103.378 23.7148 103.313 23.709 103.246C23.7032 103.179 23.7109 103.112 23.7316 103.048C23.7523 102.984 23.7856 102.924 23.8295 102.873C23.9442 102.795 24.0838 102.761 24.2217 102.779C24.3595 102.797 24.486 102.865 24.5771 102.97C24.6441 103.035 24.6948 103.115 24.7253 103.204C24.7558 103.292 24.7652 103.387 24.7527 103.479C24.7384 103.564 24.6966 103.642 24.6337 103.7V103.689Z" fill="#A6A6A6"/>
<path d="M29.2038 103.995C29.208 103.99 29.2133 103.986 29.2191 103.983C29.225 103.981 29.2313 103.979 29.2378 103.979C29.2442 103.979 29.2506 103.981 29.2564 103.983C29.2623 103.986 29.2675 103.99 29.2718 103.995C29.4355 104.118 29.6334 104.187 29.8381 104.193C29.9527 104.199 30.0655 104.163 30.1553 104.091C30.1899 104.066 30.2164 104.031 30.2315 103.99C30.2466 103.95 30.2496 103.906 30.2402 103.865C30.2298 103.819 30.2091 103.776 30.1796 103.74C30.1502 103.704 30.1128 103.675 30.0703 103.655C29.9505 103.59 29.8201 103.545 29.6852 103.525C29.5475 103.508 29.4145 103.464 29.2944 103.394C29.2416 103.368 29.1951 103.331 29.158 103.285C29.1208 103.239 29.094 103.185 29.0792 103.128C29.0674 103.075 29.0707 103.02 29.0887 102.969C29.1068 102.918 29.1388 102.873 29.1811 102.839C29.2785 102.761 29.4014 102.72 29.5266 102.726C29.7105 102.74 29.8878 102.801 30.042 102.902C30.0498 102.912 30.054 102.925 30.054 102.939C30.054 102.952 30.0498 102.965 30.042 102.975C30.0383 102.98 30.0335 102.984 30.0282 102.987C30.0228 102.989 30.0168 102.99 30.0108 102.99C30.0048 102.99 29.9989 102.989 29.9935 102.987C29.9881 102.984 29.9834 102.98 29.9797 102.975C29.8435 102.882 29.6855 102.825 29.521 102.811C29.4155 102.808 29.312 102.84 29.2265 102.902C29.1948 102.927 29.1707 102.96 29.1567 102.998C29.1427 103.036 29.1394 103.077 29.1472 103.117C29.1596 103.157 29.18 103.195 29.2073 103.227C29.2346 103.259 29.268 103.285 29.3057 103.304C29.4155 103.362 29.5341 103.403 29.6569 103.423C29.806 103.443 29.9501 103.491 30.0816 103.564C30.1385 103.593 30.1886 103.634 30.2286 103.684C30.2686 103.734 30.2977 103.791 30.3138 103.853C30.3249 103.911 30.3202 103.97 30.3002 104.025C30.2803 104.079 30.2458 104.128 30.2006 104.165C30.0956 104.246 29.9653 104.288 29.8324 104.284C29.6099 104.27 29.3957 104.194 29.2151 104.063C29.206 104.054 29.2 104.043 29.1979 104.031C29.1959 104.018 29.1979 104.006 29.2038 103.995Z" fill="#A6A6A6"/>
<path d="M30.5915 103.739C30.5727 103.676 30.5692 103.609 30.5813 103.544C30.5933 103.479 30.6207 103.417 30.661 103.365C30.7013 103.312 30.7535 103.27 30.8133 103.242C30.8731 103.213 30.9388 103.199 31.0049 103.201C31.1485 103.209 31.286 103.262 31.3978 103.353C31.5096 103.443 31.5901 103.567 31.6279 103.705C31.6287 103.712 31.6281 103.718 31.6262 103.724C31.6243 103.731 31.6211 103.736 31.6168 103.741C31.6125 103.746 31.6073 103.75 31.6014 103.752C31.5955 103.755 31.5891 103.756 31.5826 103.756H30.7218C30.7529 103.869 30.8181 103.969 30.9083 104.043C30.9986 104.117 31.1094 104.161 31.2258 104.17C31.2913 104.174 31.3564 104.157 31.4115 104.121C31.4665 104.086 31.5087 104.033 31.5316 103.972C31.541 103.963 31.5531 103.959 31.5656 103.959C31.5781 103.959 31.5903 103.963 31.5996 103.972C31.6131 103.978 31.624 103.989 31.6302 104.002C31.6364 104.016 31.6376 104.031 31.6336 104.045C31.6018 104.121 31.5481 104.185 31.4794 104.229C31.4107 104.274 31.3302 104.296 31.2485 104.294C31.0926 104.289 30.9432 104.231 30.8241 104.13C30.705 104.03 30.6231 103.892 30.5915 103.739ZM30.6878 103.654H31.5033C31.4641 103.558 31.3989 103.474 31.3149 103.412C31.231 103.35 31.1315 103.312 31.0276 103.303C30.9815 103.302 30.9356 103.31 30.8929 103.327C30.8501 103.344 30.8115 103.37 30.7794 103.403C30.7474 103.436 30.7226 103.476 30.7069 103.519C30.6911 103.562 30.6846 103.608 30.6878 103.654Z" fill="#A6A6A6"/>
<path d="M32.8178 103.253L33.0216 104.227C33.0233 104.233 33.0236 104.24 33.0224 104.246C33.0213 104.253 33.0187 104.259 33.0149 104.264C33.0112 104.27 33.0063 104.274 33.0006 104.278C32.9949 104.281 32.9886 104.283 32.982 104.283C32.9671 104.282 32.9531 104.275 32.942 104.265C32.9308 104.255 32.9231 104.242 32.9197 104.227L32.8857 104.068C32.8506 104.134 32.7983 104.188 32.7345 104.226C32.6706 104.264 32.5976 104.284 32.5233 104.283C32.3715 104.271 32.2282 104.209 32.1155 104.106C32.0029 104.004 31.9272 103.867 31.9003 103.717C31.8795 103.655 31.8738 103.59 31.8836 103.525C31.8934 103.461 31.9185 103.4 31.9567 103.347C31.995 103.295 32.0453 103.252 32.1035 103.223C32.1616 103.193 32.226 103.178 32.2911 103.179C32.3767 103.182 32.4609 103.202 32.5387 103.238C32.6165 103.274 32.6863 103.325 32.7441 103.389L32.7102 103.23C32.7102 103.196 32.7102 103.179 32.7498 103.179C32.7595 103.178 32.7693 103.179 32.7784 103.183C32.7875 103.186 32.7957 103.192 32.8023 103.199C32.809 103.206 32.8138 103.215 32.8165 103.224C32.8191 103.233 32.8196 103.243 32.8178 103.253ZM32.8178 103.74C32.791 103.624 32.7284 103.52 32.6389 103.441C32.5495 103.363 32.4377 103.315 32.3194 103.304C32.2673 103.305 32.2162 103.318 32.1702 103.342C32.1242 103.366 32.0844 103.401 32.0542 103.444C32.0239 103.486 32.004 103.535 31.9959 103.586C31.9879 103.638 31.992 103.69 32.0079 103.74C32.0347 103.856 32.0972 103.96 32.1867 104.038C32.2761 104.117 32.3879 104.165 32.5063 104.176C32.5578 104.174 32.6082 104.16 32.6536 104.135C32.6989 104.111 32.7379 104.076 32.7675 104.034C32.7972 103.992 32.8166 103.943 32.8243 103.892C32.8321 103.841 32.8279 103.789 32.8121 103.74H32.8178Z" fill="#A6A6A6"/>
<path d="M33.2773 103.253C33.2752 103.246 33.2748 103.239 33.2763 103.233C33.2777 103.226 33.2808 103.22 33.2854 103.214C33.29 103.209 33.2958 103.205 33.3023 103.203C33.3088 103.201 33.3158 103.201 33.3226 103.202C33.3368 103.203 33.3502 103.209 33.3613 103.218C33.3724 103.227 33.3806 103.239 33.3849 103.253L33.4358 103.491C33.4639 103.413 33.5154 103.345 33.5834 103.297C33.6513 103.25 33.7323 103.224 33.8153 103.225C33.8298 103.225 33.8436 103.231 33.8548 103.24C33.866 103.249 33.874 103.262 33.8776 103.276C33.8776 103.31 33.8776 103.332 33.8379 103.332C33.7798 103.332 33.7228 103.348 33.6736 103.38C33.6245 103.411 33.5852 103.455 33.5604 103.508C33.5225 103.586 33.4976 103.67 33.4868 103.757L33.5888 104.233C33.5888 104.267 33.5888 104.289 33.5491 104.289C33.5334 104.288 33.5186 104.281 33.5065 104.271C33.4944 104.261 33.4856 104.248 33.4812 104.233L33.2773 103.253Z" fill="#A6A6A6"/>
<path d="M34.215 103.74C34.1965 103.675 34.1942 103.605 34.2083 103.539C34.2224 103.472 34.2523 103.409 34.2957 103.356C34.3391 103.304 34.3945 103.262 34.4574 103.235C34.5202 103.208 34.5886 103.197 34.6567 103.202C34.7887 103.204 34.9172 103.245 35.0248 103.321C35.0326 103.332 35.0369 103.345 35.0369 103.358C35.0369 103.371 35.0326 103.384 35.0248 103.395C35.0146 103.404 35.0015 103.409 34.988 103.409C34.9745 103.409 34.9615 103.404 34.9512 103.395C34.8633 103.333 34.7586 103.299 34.651 103.299C34.596 103.295 34.5409 103.304 34.4902 103.326C34.4396 103.348 34.3949 103.382 34.36 103.425C34.3251 103.467 34.3009 103.518 34.2894 103.572C34.278 103.626 34.2796 103.682 34.2942 103.735C34.3241 103.862 34.3968 103.974 34.4999 104.053C34.6031 104.133 34.7304 104.174 34.8606 104.171C34.9565 104.173 35.0496 104.138 35.1211 104.075C35.1314 104.066 35.1444 104.061 35.1579 104.061C35.1714 104.061 35.1845 104.066 35.1947 104.075C35.1947 104.075 35.1947 104.131 35.1947 104.148C35.1084 104.227 34.9947 104.27 34.8776 104.267C34.7251 104.262 34.5783 104.209 34.4589 104.114C34.3395 104.019 34.2539 103.888 34.215 103.74Z" fill="#A6A6A6"/>
<path d="M36.3229 103.626C36.299 103.535 36.2453 103.454 36.1705 103.397C36.0956 103.339 36.0038 103.308 35.9094 103.309C35.8683 103.304 35.8265 103.308 35.7877 103.323C35.7489 103.338 35.7145 103.362 35.6875 103.394C35.6605 103.425 35.6418 103.463 35.6331 103.504C35.6244 103.544 35.6259 103.586 35.6376 103.626L35.7622 104.226C35.7531 104.23 35.743 104.23 35.7339 104.226H35.6885L35.564 103.626L35.3884 102.805C35.3866 102.799 35.3862 102.792 35.3874 102.786C35.3886 102.78 35.3912 102.774 35.3951 102.769C35.3989 102.764 35.404 102.76 35.4097 102.758C35.4154 102.755 35.4217 102.754 35.428 102.754C35.4435 102.753 35.4586 102.758 35.471 102.768C35.4833 102.777 35.4921 102.79 35.496 102.805L35.6206 103.371C35.6532 103.32 35.6987 103.279 35.7523 103.251C35.806 103.223 35.866 103.21 35.9264 103.213C36.055 103.209 36.1812 103.248 36.2841 103.326C36.3871 103.403 36.4607 103.513 36.4928 103.637L36.6174 104.238C36.619 104.244 36.6193 104.251 36.6181 104.257C36.617 104.264 36.6144 104.27 36.6107 104.275C36.6069 104.281 36.602 104.285 36.5963 104.288C36.5906 104.292 36.5843 104.294 36.5777 104.294C36.5618 104.294 36.5465 104.288 36.5343 104.277C36.522 104.267 36.5134 104.253 36.5098 104.238L36.3229 103.626Z" fill="#A6A6A6"/>
<path d="M37.5177 103.74C37.4993 103.675 37.497 103.605 37.511 103.539C37.5251 103.472 37.5551 103.409 37.5984 103.356C37.6418 103.304 37.6972 103.262 37.7601 103.235C37.8229 103.208 37.8913 103.197 37.9594 103.202C38.0914 103.204 38.2199 103.245 38.3276 103.321C38.3354 103.332 38.3396 103.345 38.3396 103.358C38.3396 103.371 38.3354 103.384 38.3276 103.395C38.3173 103.404 38.3042 103.409 38.2907 103.409C38.2772 103.409 38.2642 103.404 38.2539 103.395C38.1661 103.333 38.0613 103.299 37.9538 103.299C37.8987 103.295 37.8436 103.304 37.793 103.326C37.7423 103.348 37.6977 103.382 37.6628 103.425C37.6278 103.467 37.6036 103.518 37.5922 103.572C37.5807 103.626 37.5824 103.682 37.597 103.735C37.6269 103.862 37.6995 103.974 37.8027 104.053C37.9058 104.133 38.0332 104.174 38.1633 104.171C38.2592 104.173 38.3523 104.138 38.4238 104.075C38.4341 104.066 38.4472 104.061 38.4607 104.061C38.4742 104.061 38.4872 104.066 38.4975 104.075C38.4975 104.075 38.4975 104.131 38.4975 104.148C38.4111 104.227 38.2974 104.27 38.1803 104.267C38.0279 104.262 37.881 104.209 37.7616 104.114C37.6422 104.019 37.5567 103.888 37.5177 103.74Z" fill="#A6A6A6"/>
<path d="M39.5959 103.627C39.572 103.535 39.5184 103.455 39.4435 103.397C39.3687 103.34 39.2768 103.309 39.1825 103.309C39.1413 103.304 39.0995 103.309 39.0607 103.324C39.022 103.338 38.9875 103.363 38.9605 103.394C38.9335 103.426 38.9148 103.463 38.9061 103.504C38.8974 103.545 38.8989 103.587 38.9106 103.627L39.0352 104.227C39.0261 104.23 39.016 104.23 39.0069 104.227H38.9616L38.8313 103.627L38.6501 102.788C38.6483 102.782 38.648 102.776 38.6491 102.77C38.6503 102.763 38.6529 102.758 38.6568 102.753C38.6607 102.748 38.6657 102.744 38.6714 102.741C38.6771 102.738 38.6834 102.737 38.6897 102.737C38.7052 102.737 38.7203 102.742 38.7327 102.751C38.745 102.76 38.7539 102.773 38.7577 102.788L38.8766 103.355C38.911 103.304 38.9575 103.263 39.012 103.235C39.0665 103.208 39.127 103.194 39.1881 103.196C39.3167 103.192 39.4429 103.232 39.5458 103.309C39.6488 103.386 39.7224 103.496 39.7545 103.621L39.8791 104.221C39.8808 104.228 39.881 104.235 39.8795 104.242C39.878 104.249 39.875 104.255 39.8706 104.261C39.8662 104.266 39.8606 104.271 39.8542 104.274C39.8478 104.277 39.8408 104.278 39.8338 104.278C39.8188 104.276 39.8049 104.269 39.7937 104.259C39.7826 104.249 39.7748 104.236 39.7715 104.221L39.5959 103.627Z" fill="#A6A6A6"/>
<path d="M41.0693 103.252L41.2732 104.226C41.2749 104.233 41.2751 104.239 41.274 104.246C41.2728 104.252 41.2703 104.259 41.2665 104.264C41.2627 104.269 41.2578 104.274 41.2521 104.277C41.2465 104.28 41.2401 104.282 41.2336 104.283C41.2186 104.281 41.2047 104.275 41.1935 104.265C41.1824 104.254 41.1746 104.241 41.1713 104.226L41.1373 104.068C41.1022 104.133 41.0499 104.188 40.986 104.226C40.9221 104.264 40.8491 104.284 40.7748 104.283C40.6227 104.27 40.4791 104.207 40.3656 104.105C40.2522 104.003 40.1752 103.867 40.1462 103.717C40.1265 103.655 40.1219 103.589 40.1325 103.524C40.1432 103.46 40.1689 103.399 40.2075 103.347C40.2462 103.294 40.2967 103.252 40.3549 103.223C40.4132 103.193 40.4775 103.178 40.5426 103.179C40.6283 103.182 40.7124 103.202 40.7902 103.238C40.868 103.274 40.9379 103.325 40.9957 103.388L40.9617 103.23C40.9617 103.196 40.9617 103.179 41.0014 103.179C41.0199 103.18 41.0372 103.189 41.0498 103.202C41.0624 103.216 41.0694 103.234 41.0693 103.252ZM41.0693 103.739C41.0425 103.624 40.98 103.519 40.8905 103.441C40.8011 103.363 40.6893 103.315 40.5709 103.303C40.5189 103.304 40.4678 103.318 40.4218 103.342C40.3757 103.366 40.336 103.401 40.3057 103.443C40.2755 103.486 40.2555 103.534 40.2475 103.586C40.2395 103.637 40.2436 103.69 40.2594 103.739C40.2863 103.855 40.3488 103.96 40.4383 104.038C40.5277 104.116 40.6395 104.164 40.7578 104.175C40.8094 104.174 40.8598 104.16 40.9051 104.135C40.9505 104.11 40.9895 104.076 41.0191 104.033C41.0487 103.991 41.0682 103.943 41.0759 103.892C41.0836 103.841 41.0794 103.789 41.0637 103.739H41.0693Z" fill="#A6A6A6"/>
<path d="M41.9012 103.253C41.903 103.259 41.9034 103.265 41.9022 103.272C41.901 103.278 41.8984 103.284 41.8945 103.289C41.8907 103.294 41.8856 103.298 41.8799 103.3C41.8742 103.303 41.8679 103.304 41.8616 103.304H41.7257L41.8899 104.091C41.8949 104.113 41.9071 104.133 41.9245 104.147C41.9419 104.162 41.9636 104.17 41.9862 104.17C42.0016 104.173 42.0161 104.179 42.0281 104.189C42.0401 104.199 42.0491 104.212 42.0541 104.227C42.0559 104.234 42.0561 104.241 42.0546 104.248C42.0531 104.255 42.05 104.261 42.0457 104.267C42.0413 104.272 42.0356 104.277 42.0292 104.279C42.0229 104.282 42.0159 104.284 42.0088 104.284C41.9545 104.283 41.9021 104.264 41.8607 104.228C41.8193 104.193 41.7916 104.145 41.7823 104.091L41.6124 103.304H41.4821C41.4312 103.304 41.4255 103.304 41.4198 103.253C41.4142 103.202 41.4198 103.202 41.4595 103.202H41.5954L41.5104 102.8C41.5088 102.793 41.5085 102.787 41.5097 102.78C41.5108 102.774 41.5134 102.768 41.5171 102.762C41.5209 102.757 41.5258 102.752 41.5315 102.749C41.5372 102.746 41.5435 102.744 41.5501 102.743C41.5501 102.743 41.618 102.771 41.618 102.8L41.7087 103.202H41.8446C41.858 103.204 41.8706 103.21 41.8807 103.219C41.8908 103.228 41.898 103.24 41.9012 103.253Z" fill="#A6A6A6"/>
<path d="M58.9981 106.81H19.9824V106.951H58.9981V106.81Z" fill="#A6A6A6"/>
<path d="M57.5899 100.16H18.5742V100.302H57.5899V100.16Z" fill="#A6A6A6"/>
<path d="M35.864 173.112H22.334V175.225H35.864V173.112Z" fill="#383838"/>
<path opacity="0.1" d="M35.864 173.112H22.334V174.506H35.864V173.112Z" fill="black"/>
<path d="M6.27265 167.438C7.21707 168.872 8.62739 169.937 10.2657 170.453C11.9041 170.969 13.6702 170.904 15.2662 170.269C15.9385 170.005 16.5803 169.669 17.1805 169.267L15.4815 166.718C15.1625 166.939 14.823 167.129 14.4677 167.285C11.2452 168.746 9.20633 166.209 8.80422 165.625C6.9466 163.02 6.28398 157.068 8.16425 154.78C8.28884 154.61 8.83254 154.338 10.996 154.78C11.3981 154.87 11.8512 154.972 12.3665 155.114C12.7679 155.252 13.1843 155.341 13.6068 155.38L13.6578 153.851L13.8107 152.322C13.6691 152.322 13.4483 152.237 13.1651 152.158C12.1566 151.863 11.1264 151.649 10.0842 151.518C8.4814 151.353 6.80502 151.518 5.77427 152.809C2.71599 156.603 3.95063 164.17 6.27265 167.438Z" fill="#383838"/>
<path opacity="0.1" d="M15.4591 166.746C15.1402 166.967 14.8007 167.157 14.4453 167.312L15.2665 170.291C15.9388 170.027 16.5806 169.691 17.1808 169.289L15.4591 166.746Z" fill="black"/>
<path opacity="0.1" d="M10.0781 151.574L10.9899 154.836C11.3921 154.927 11.8451 155.029 12.3605 155.171C12.7619 155.308 13.1782 155.398 13.6008 155.437L13.6518 153.908L13.8047 152.378C13.6631 152.378 13.4422 152.293 13.1591 152.214C12.1506 151.92 11.1204 151.706 10.0781 151.574Z" fill="black"/>
<path d="M47.0949 147.581C47.0949 147.581 45.4751 161.372 42.6717 167.182C39.8683 172.993 35.9548 173.627 33.5195 173.627H24.6789C22.2436 173.627 18.3301 172.982 15.5267 167.182C12.7233 161.383 11.1035 147.581 11.1035 147.581H47.0949Z" fill="#383838"/>
<path d="M120.582 113.952H199.106V81.1318H120.582V113.952Z" fill="#455A64"/>
<path d="M199.107 90.8107V81.1318H209.183L199.107 90.8107Z" fill="#455A64"/>
<path d="M193.114 86.8066H126.568V87.4296H193.114V86.8066Z" fill="white"/>
<path d="M173.904 90.1709H126.568V90.7939H173.904V90.1709Z" fill="white"/>
<path d="M185.508 96.9102H126.568V97.5331H185.508V96.9102Z" fill="white"/>
<path d="M193.114 100.274H126.568V100.897H193.114V100.274Z" fill="white"/>
<path d="M193.114 103.645H126.568V104.268H193.114V103.645Z" fill="white"/>
<path d="M167.481 107.014H126.568V107.637H167.481V107.014Z" fill="white"/>
<path d="M188.37 20.6348H109.846V48.3291H188.37V20.6348Z" fill="#383838"/>
<path d="M109.856 30.3193V20.6348H99.7754L109.856 30.3193Z" fill="#383838"/>
<path d="M167.028 25.749H115.949V26.372H167.028V25.749Z" fill="white"/>
<path d="M182.495 29.1182H115.949V29.7411H182.495V29.1182Z" fill="white"/>
<path d="M182.495 32.4883H115.949V33.1113H182.495V32.4883Z" fill="white"/>
<path d="M175.166 35.8525H115.949V36.4755H175.166V35.8525Z" fill="white"/>
<path d="M182.495 39.2227H115.949V39.8456H182.495V39.2227Z" fill="white"/>
<path d="M158.329 42.5918H115.949V43.2148H158.329V42.5918Z" fill="white"/>
<path d="M188.37 52.8086H109.846V73.3443H188.37V52.8086Z" fill="#383838"/>
<path d="M109.856 62.4875V52.8086H99.7754L109.856 62.4875Z" fill="#383838"/>
<path d="M182.331 57.9229H115.949V58.5458H182.331V57.9229Z" fill="white"/>
<path d="M165.986 61.293H115.949V61.916H165.986V61.293Z" fill="white"/>
<path d="M173.626 64.6572H115.949V65.2802H173.626V64.6572Z" fill="white"/>
<path d="M154.495 68.0264H115.949V68.6494H154.495V68.0264Z" fill="white"/>
<path d="M188.37 120.335H109.846V139.279H188.37V120.335Z" fill="#383838"/>
<path d="M109.845 130.014V120.335H99.7637L109.845 130.014Z" fill="#383838"/>
<path d="M177.353 125.448H115.949V126.071H177.353V125.448Z" fill="white"/>
<path d="M161.45 128.812H115.949V129.435H161.45V128.812Z" fill="white"/>
<path d="M173.082 132.183H115.949V132.806H173.082V132.183Z" fill="white"/>
<path d="M230.453 100.059C240.468 100.059 248.587 91.9398 248.587 81.9245C248.587 71.9091 240.468 63.79 230.453 63.79C220.437 63.79 212.318 71.9091 212.318 81.9245C212.318 91.9398 220.437 100.059 230.453 100.059Z" fill="#A6A6A6"/>
<mask id="mask0_1353_19576" style="mask-type:luminance" maskUnits="userSpaceOnUse" x="212" y="57" width="37" height="44">
<path d="M248.594 81.924C248.599 84.5689 248.022 87.1827 246.906 89.5804C245.789 91.9781 244.159 94.1012 242.132 95.7995C240.791 96.9267 239.296 97.8556 237.692 98.5576C237.505 98.6426 237.312 98.7218 237.125 98.7955L236.814 98.9144C235.788 99.3045 234.725 99.591 233.642 99.7696C232.596 99.9663 231.535 100.063 230.471 100.058C229.839 100.059 229.207 100.025 228.579 99.9565C228.309 99.9365 228.041 99.9024 227.775 99.8545C227.458 99.8092 227.14 99.7583 226.823 99.6846C226.725 99.6726 226.629 99.6518 226.534 99.6223C226.059 99.5261 225.583 99.4015 225.119 99.2599C224.654 99.1183 224.122 98.9257 223.635 98.7275L223.516 98.6709C223.422 98.6414 223.331 98.6035 223.244 98.5576C222.644 98.3026 222.062 98.0094 221.5 97.6798C218.928 96.2192 216.752 94.1514 215.164 91.6568C213.575 89.1622 212.62 86.3166 212.384 83.3684C212.148 80.4202 212.637 77.459 213.808 74.7432C214.979 72.0274 216.798 69.6395 219.104 67.788C219.291 67.0914 219.483 66.4231 219.67 65.8114C216.538 63.6876 217.926 59.6666 218.481 58.817C219.036 57.9675 220.996 60.029 220.996 60.029C220.996 60.029 221.624 57.5258 222.344 57.3672C223.063 57.2086 223.572 58.8567 223.572 58.8567C223.572 58.8567 228.936 57.8939 233.569 58.7151C238.201 59.5363 239.798 64.5598 239.798 64.5598C239.798 64.5598 242.205 65.449 242.743 67.3066C242.829 67.7232 242.829 68.1529 242.743 68.5695C244.59 70.2691 246.064 72.3337 247.071 74.6325C248.078 76.9313 248.596 79.4143 248.594 81.924Z" fill="white"/>
</mask>
<g mask="url(#mask0_1353_19576)">
<path d="M225.265 93.9418L226.867 101.214L238.602 92.543L242.81 96.4168C242.81 96.4168 233.386 107.41 225.74 107.41C221.731 107.41 220.943 98.2064 220.943 98.2064L225.265 93.9418Z" fill="#383838"/>
<path d="M227.099 102.21C230.05 103.128 235.515 98.9028 237.803 95.3292C237.956 95.0856 237.752 92.3728 237.662 89.071C237.611 87.0662 237.605 84.8291 237.747 82.7902C237.781 82.3711 224.721 85.0103 224.721 85.0103C225.276 87.6149 225.508 90.2779 225.412 92.9392C225.39 93.2209 225.341 93.4998 225.264 93.7717C225.264 93.8057 225.264 93.8566 225.264 93.9076C224.891 95.4651 224.251 101.321 227.099 102.21Z" fill="#DD6A57"/>
<path d="M236.999 82.7793C236.11 86.336 233.307 94.4234 226.573 94.1062C226.133 94.0876 225.695 94.0326 225.264 93.942C225.264 93.891 225.264 93.8401 225.264 93.8061C225.344 93.5349 225.394 93.2557 225.412 92.9735V92.9396C225.492 91.6179 225.462 90.2918 225.321 88.9751C225.188 87.665 224.987 86.3626 224.721 85.073L224.806 85.0164C225.831 84.7955 234.383 83.0738 236.999 82.7793Z" fill="#263238"/>
<path d="M238.858 66.553C240.432 71.0385 238.592 84.257 235.488 87.321C230.986 91.7611 223.334 92.4917 219.495 87.0152C215.768 81.7085 218.469 64.5199 221.964 61.7051C227.118 57.5651 236.525 59.9325 238.858 66.553Z" fill="#DD6A57"/>
<path d="M237.691 77.6479C234.593 77.1778 234.825 71.4634 234.825 71.4634C234.825 71.4634 229.632 69.7983 229.451 65.681C229.451 65.681 223.923 68.1559 220.168 66.1284C216.413 64.1009 217.903 59.7343 218.469 58.8395C219.036 57.9447 220.984 60.0515 220.984 60.0515C220.984 60.0515 221.612 57.5482 222.332 57.3897C223.051 57.2311 223.561 58.8792 223.561 58.8792C223.561 58.8792 228.93 57.922 233.551 58.7376C238.172 59.5531 239.781 64.5823 239.781 64.5823C239.781 64.5823 242.182 65.4771 242.731 67.3347C243.281 69.1923 239.662 77.9254 237.691 77.6479Z" fill="#263238"/>
<path d="M226.109 75.7169C226.109 75.6829 226.171 75.7678 226.165 75.8018C226.018 76.691 225.995 77.733 226.765 78.1352C226.765 78.1352 226.765 78.1918 226.765 78.1861C225.808 77.9143 225.848 76.5154 226.109 75.7169Z" fill="#263238"/>
<path d="M227.05 74.8901C228.499 74.975 228.228 77.8634 226.885 77.7897C225.543 77.7161 225.838 74.8164 227.05 74.8901Z" fill="#263238"/>
<path d="M220.933 75.3823C220.933 75.3483 220.859 75.4163 220.859 75.4559C220.803 76.3507 220.587 77.3701 219.727 77.591V77.642C220.752 77.5854 221.012 76.2318 220.933 75.3823Z" fill="#263238"/>
<path d="M220.224 74.3574C218.792 74.1139 218.407 76.9909 219.732 77.2174C221.057 77.444 221.419 74.5669 220.224 74.3574Z" fill="#263238"/>
<path d="M228.32 73.6835C227.951 73.5358 227.59 73.3695 227.238 73.1851C226.831 73.0614 226.477 72.8065 226.23 72.4602C226.173 72.3369 226.159 72.1981 226.19 72.0658C226.22 71.9335 226.294 71.8153 226.4 71.7296C226.634 71.5933 226.899 71.5215 227.17 71.5215C227.441 71.5215 227.706 71.5933 227.94 71.7296C228.459 71.9329 228.884 72.32 229.135 72.817C229.181 72.9331 229.193 73.0599 229.17 73.1826C229.147 73.3052 229.089 73.4187 229.003 73.5096C228.917 73.6005 228.808 73.6652 228.687 73.696C228.566 73.7268 228.438 73.7225 228.32 73.6835Z" fill="#263238"/>
<path d="M219.245 72.8002C219.641 72.7585 220.034 72.6943 220.423 72.6076C220.846 72.6008 221.254 72.4533 221.584 72.1885C221.672 72.0857 221.724 71.9561 221.73 71.8206C221.736 71.685 221.697 71.5513 221.618 71.4409C221.432 71.2439 221.197 71.1001 220.937 71.0244C220.677 70.9487 220.402 70.9439 220.14 71.0105C219.585 71.0664 219.071 71.3245 218.695 71.7354C218.617 71.8345 218.568 71.9542 218.556 72.0801C218.544 72.2061 218.568 72.3329 218.626 72.4454C218.684 72.5578 218.773 72.6511 218.883 72.7141C218.993 72.777 219.118 72.8069 219.245 72.8002Z" fill="#263238"/>
<path d="M226.17 84.1041C225.938 84.291 225.694 84.5572 225.366 84.5572C225.034 84.5162 224.714 84.4083 224.426 84.2401C224.426 84.2401 224.369 84.2401 224.386 84.2797C224.496 84.4683 224.655 84.6234 224.847 84.7282C225.039 84.833 225.255 84.8835 225.473 84.8744C225.661 84.8447 225.835 84.7599 225.974 84.6308C226.114 84.5017 226.211 84.3342 226.255 84.1494C226.272 84.0985 226.204 84.0758 226.17 84.1041Z" fill="#263238"/>
<path d="M225.493 81.3858C225.227 81.7151 224.897 81.9858 224.521 82.1808C224.146 82.3758 223.734 82.4908 223.312 82.5185C222.943 82.5488 222.571 82.5278 222.208 82.4562L221.998 82.4109L221.806 82.36C221.76 82.3445 221.719 82.3148 221.691 82.2751C221.662 82.2355 221.647 82.1879 221.647 82.1391C221.644 82.109 221.644 82.0786 221.647 82.0485V81.9748C221.698 81.2782 221.88 80.2362 221.88 80.2362C221.613 80.3381 220.265 80.8025 220.322 80.423C220.82 77.4554 221.37 74.1593 222.485 71.3162C222.493 71.2964 222.507 71.28 222.525 71.27C222.544 71.26 222.565 71.2572 222.585 71.2621C222.606 71.2671 222.624 71.2794 222.636 71.2967C222.647 71.314 222.652 71.335 222.65 71.3558C222.287 74.2215 221.421 77.0193 221.013 79.885C221.491 79.719 221.991 79.6218 222.497 79.5962C222.593 79.6358 222.117 81.6067 222.117 81.9182V81.9522C223.25 82.224 224.173 81.9522 225.38 81.3065C225.487 81.2499 225.544 81.3179 225.493 81.3858Z" fill="#263238"/>
<path d="M222.66 82.2642C223.01 82.7832 223.488 83.2027 224.048 83.4818C224.355 83.6263 224.7 83.6699 225.033 83.6064C225.764 83.4591 225.82 82.8022 225.724 82.2302C225.669 81.9265 225.58 81.6301 225.458 81.3467C224.647 81.9431 223.667 82.2646 222.66 82.2642Z" fill="#263238"/>
<path d="M224.049 83.4805C224.356 83.625 224.701 83.6686 225.034 83.6051C225.765 83.4579 225.822 82.8009 225.725 82.2289C225.346 82.2206 224.975 82.3393 224.672 82.5661C224.368 82.7929 224.149 83.1148 224.049 83.4805Z" fill="#FF99BA"/>
<path d="M236.506 77.3646C236.506 77.3646 239.377 73.0547 241.326 74.0685C243.274 75.0822 241.184 81.2894 238.941 82.1842C238.661 82.3176 238.357 82.3931 238.047 82.4061C237.737 82.4191 237.427 82.3694 237.137 82.2599C236.847 82.1504 236.582 81.9834 236.357 81.769C236.133 81.5545 235.954 81.297 235.832 81.0119L236.506 77.3646Z" fill="#DD6A57"/>
<path d="M240.688 75.8809C240.722 75.8809 240.728 75.9262 240.688 75.9431C239.114 76.6171 238.315 78.1066 237.766 79.6471C238.225 79.0467 238.859 78.7126 239.658 79.2563C239.697 79.2846 239.658 79.3526 239.618 79.3412C239.337 79.2583 239.037 79.265 238.76 79.3604C238.483 79.4559 238.242 79.6352 238.072 79.8736C237.784 80.2695 237.543 80.6971 237.353 81.1479C237.279 81.2895 237.024 81.2215 237.075 81.0573C237.073 81.0442 237.073 81.0307 237.075 81.0176C237.013 78.9958 238.519 76.1357 240.688 75.8809Z" fill="#263238"/>
<path d="M225.413 93.0244L226.988 100.545L237.811 90.8779L240.506 93.9136C240.506 93.9136 229.95 109.205 229.882 108.52L226.676 102.046L222.23 106.622L224.014 95.2501L225.413 93.0244Z" fill="white"/>
<path d="M223.94 95.3576C223.94 95.2897 224.07 95.2557 224.07 95.3576C223.968 97.6797 222.49 104.34 222.518 106.062C222.705 105.863 226.636 102.029 226.681 102.097C227.366 103.122 229.705 107.834 229.864 108.265C231.359 106.062 238.303 97.0057 239.996 94.7063C240.004 94.6913 240.018 94.6802 240.035 94.6754C240.051 94.6706 240.069 94.6726 240.084 94.6809C240.099 94.6891 240.11 94.703 240.115 94.7195C240.119 94.7359 240.117 94.7536 240.109 94.7686C238.852 97.3285 230.079 109.222 229.966 109.188C228.748 106.95 227.65 104.649 226.675 102.295C226.013 103.128 222.048 107.449 222.031 107.172C221.89 105.291 223.306 97.6853 223.94 95.3576Z" fill="#263238"/>
</g>
<path d="M91.798 130.985C99.0038 123.779 99.0038 112.096 91.798 104.89C84.5922 97.6845 72.9093 97.6845 65.7035 104.89C58.4977 112.096 58.4977 123.779 65.7035 130.985C72.9093 138.191 84.5922 138.191 91.798 130.985Z" fill="#A6A6A6"/>
<mask id="mask1_1353_19576" style="mask-type:luminance" maskUnits="userSpaceOnUse" x="60" y="94" width="38" height="43">
<path d="M97.2113 117.933C97.2164 121.166 96.3723 124.343 94.7633 127.148C93.1544 129.952 90.8371 132.284 88.0435 133.911C85.2498 135.538 82.0778 136.403 78.8449 136.419C75.612 136.435 72.4316 135.601 69.6221 134.002C66.8126 132.402 64.4725 130.093 62.836 127.305C61.1996 124.516 60.3242 121.347 60.2975 118.114C60.2708 114.882 61.0937 111.698 62.6839 108.884C64.2741 106.069 66.5757 103.721 69.3584 102.075C70.2136 99.3228 72.4393 96.7006 77.3892 95.4603C87.0851 93.0363 89.2372 100.031 89.4411 100.79C89.4411 100.79 89.4411 100.79 89.4411 100.818C89.4432 100.827 89.4432 100.837 89.4411 100.846C89.7791 101.742 90.0684 102.655 90.3076 103.582C92.4601 105.304 94.1981 107.487 95.393 109.971C96.588 112.456 97.2094 115.176 97.2113 117.933Z" fill="white"/>
</mask>
<g mask="url(#mask1_1353_19576)">
<path d="M84.0398 130.166L82.403 137.528L71.246 129.871L68.4766 133.96C68.4766 133.96 75.7768 143.837 83.5527 143.837C87.6361 143.837 88.4346 134.475 88.4346 134.475L84.0398 130.166Z" fill="#383838"/>
<path d="M82.169 138.577C79.1674 139.511 73.6059 135.213 71.2782 131.577C71.1196 131.328 71.3292 128.569 71.4254 125.205C71.4708 123.167 71.4821 120.896 71.3348 118.823C71.3065 118.392 72.8073 119.078 72.8073 119.078L75.5371 119.536L84.5647 121.082C84.5647 121.082 83.5906 125.517 83.8624 129.13C83.8833 129.418 83.9326 129.702 84.0097 129.98C84.0097 130.019 84.0097 130.065 84.0097 130.116C84.4118 131.718 85.0914 137.682 82.169 138.577Z" fill="#EB9481"/>
<path d="M84.0097 130.025C84.0097 130.064 84.0097 130.11 84.0097 130.166C83.5712 130.257 83.1261 130.312 82.6788 130.331C73.9004 130.744 72.0371 119.678 72.0371 119.678L75.5088 119.587L84.5364 121.127C84.5364 121.127 83.5623 125.568 83.8341 129.181C83.8637 129.467 83.9225 129.75 84.0097 130.025Z" fill="#263238"/>
<path d="M70.2102 102.302C68.6074 106.861 70.4764 120.312 73.6366 123.432C78.2183 127.963 85.9999 128.694 89.9134 123.121C93.7023 117.718 90.9498 100.229 87.3932 97.3692C82.1545 93.1556 72.5832 95.5626 70.2102 102.302Z" fill="#EB9481"/>
<path d="M83.1546 111.629C83.1546 111.595 83.0923 111.68 83.098 111.714C83.2452 112.62 83.2679 113.679 82.4863 114.087C82.4863 114.087 82.4863 114.149 82.4863 114.138C83.4831 113.86 83.4435 112.45 83.1546 111.629Z" fill="#263238"/>
<path d="M82.22 110.786C80.7475 110.87 81.025 113.81 82.3899 113.731C83.7548 113.651 83.4547 110.712 82.22 110.786Z" fill="#263238"/>
<path d="M88.4399 111.273C88.4399 111.233 88.5192 111.307 88.5192 111.347C88.5758 112.259 88.7967 113.295 89.6519 113.521V113.572C88.6268 113.527 88.3493 112.145 88.4399 111.273Z" fill="#263238"/>
<path d="M89.1637 110.242C90.6192 109.992 91.01 112.92 89.6621 113.153C88.3142 113.385 87.9234 110.451 89.1637 110.242Z" fill="#263238"/>
<path d="M80.9292 109.551C81.32 109.41 81.6598 109.217 82.0336 109.042C82.4452 108.915 82.8036 108.656 83.053 108.305C83.1107 108.18 83.1253 108.04 83.0945 107.905C83.0638 107.771 82.9894 107.651 82.8831 107.563C82.6452 107.424 82.3744 107.351 82.0987 107.351C81.823 107.351 81.5522 107.424 81.3143 107.563C80.7866 107.767 80.3543 108.161 80.1023 108.668C80.0553 108.786 80.0427 108.915 80.0662 109.039C80.0897 109.164 80.1483 109.28 80.235 109.372C80.3218 109.465 80.4332 109.531 80.5561 109.563C80.679 109.594 80.8084 109.59 80.9292 109.551Z" fill="#263238"/>
<path d="M90.1893 108.656C89.788 108.612 89.3891 108.548 88.9943 108.463C88.5632 108.454 88.1473 108.302 87.8106 108.033C87.7208 107.928 87.6682 107.796 87.661 107.657C87.6538 107.519 87.6925 107.382 87.771 107.268C87.9619 107.068 88.2027 106.923 88.4685 106.847C88.7344 106.772 89.0156 106.768 89.2831 106.838C89.845 106.888 90.3671 107.149 90.7443 107.568C90.8255 107.669 90.8758 107.791 90.8892 107.919C90.9026 108.048 90.8785 108.177 90.8197 108.292C90.761 108.407 90.6702 108.503 90.5583 108.567C90.4465 108.632 90.3183 108.663 90.1893 108.656Z" fill="#263238"/>
<path d="M83.1174 120.153C83.3552 120.345 83.5988 120.617 83.9329 120.617C84.271 120.578 84.5971 120.468 84.89 120.294C84.8926 120.291 84.8958 120.289 84.8993 120.287C84.9029 120.285 84.9067 120.284 84.9107 120.284C84.9146 120.284 84.9186 120.284 84.9223 120.286C84.9261 120.287 84.9295 120.289 84.9325 120.292C84.9355 120.294 84.9379 120.297 84.9397 120.301C84.9414 120.304 84.9425 120.308 84.9427 120.312C84.943 120.316 84.9425 120.32 84.9412 120.324C84.9399 120.328 84.9379 120.331 84.9353 120.334C84.8208 120.53 84.6544 120.69 84.4545 120.797C84.2546 120.904 84.029 120.953 83.8026 120.94C83.6125 120.909 83.4357 120.823 83.2946 120.692C83.1535 120.561 83.0543 120.391 83.0098 120.204C83.0154 120.153 83.0834 120.125 83.1174 120.153Z" fill="#263238"/>
<path d="M83.672 117.729C84.6008 118.482 87.7044 118.482 87.7158 118.38L87.4609 116.2C87.7327 116.307 89.092 116.766 89.0353 116.404C88.5709 113.391 88.0499 110.038 86.9455 107.133C86.9385 107.113 86.9244 107.096 86.9059 107.086C86.8875 107.076 86.866 107.074 86.8456 107.079C86.8252 107.083 86.8073 107.096 86.7954 107.113C86.7836 107.13 86.7785 107.151 86.7813 107.172C87.1154 110.089 87.9593 112.926 88.3444 115.849C87.859 115.677 87.3519 115.574 86.8379 115.543C86.7416 115.582 87.2004 117.587 87.2004 117.905C86.0688 117.955 84.9373 117.803 83.8589 117.457C83.5021 117.344 83.4228 117.531 83.672 117.729Z" fill="#263238"/>
<path d="M71.8443 113.164C72.977 112.875 74.0757 109.109 74.1097 105.451C74.1097 103.1 75.0725 100.133 77.6947 99.2492C79.439 98.6828 82.4747 100.099 84.2077 99.674C85.9407 99.2492 86.2635 98.2581 87.2886 98.2864C88.3137 98.3147 89.4577 100.835 89.4577 100.835C89.4577 100.835 87.6284 92.8721 77.3889 95.432C66.6283 98.1335 68.769 107.371 69.8055 110.333C70.6097 112.621 71.8443 113.164 71.8443 113.164Z" fill="#263238"/>
<path d="M72.6326 113.328C72.6326 113.328 69.7046 108.945 67.7224 109.975C65.7402 111.006 67.8697 117.338 70.152 118.227C70.4361 118.364 70.745 118.442 71.0601 118.457C71.3752 118.471 71.6899 118.422 71.9853 118.311C72.2807 118.2 72.5506 118.031 72.7786 117.813C73.0067 117.595 73.1882 117.333 73.3123 117.043L72.6326 113.328Z" fill="#EB9481"/>
<path d="M68.3505 111.788C68.3444 111.791 68.3393 111.795 68.3356 111.801C68.332 111.806 68.3301 111.813 68.3301 111.819C68.3301 111.826 68.332 111.832 68.3356 111.838C68.3393 111.843 68.3444 111.848 68.3505 111.85C69.9532 112.541 70.7688 114.059 71.3295 115.622C70.8594 115.016 70.1968 114.671 69.4039 115.226C69.3586 115.226 69.4039 115.322 69.4435 115.311C69.7295 115.228 70.0339 115.235 70.3156 115.331C70.5973 115.428 70.8425 115.608 71.018 115.849C71.304 116.256 71.5488 116.69 71.7486 117.146C71.8165 117.293 72.0827 117.225 72.0317 117.055C72.0284 117.042 72.0284 117.028 72.0317 117.015C72.0657 114.96 70.5536 112.049 68.3505 111.788Z" fill="#263238"/>
</g>
<path d="M75.8986 43.6897C86.4989 43.6897 95.0921 35.0965 95.0921 24.4962C95.0921 13.896 86.4989 5.30273 75.8986 5.30273C65.2983 5.30273 56.7051 13.896 56.7051 24.4962C56.7051 35.0965 65.2983 43.6897 75.8986 43.6897Z" fill="#A6A6A6"/>
<path d="M95.9934 39.1367H94.3566C94.1867 37.0469 92.8615 33.8527 93.2239 35.4611C93.4349 36.6742 93.5052 37.9075 93.4335 39.1367H65.7051C65.3823 35.9935 66.7868 30.8227 66.7868 30.8227C65.1841 33.4223 64.5668 37.1092 64.3346 39.1367H61.718C61.4462 37.2564 62.1145 34.0396 62.1145 34.0396C61.3952 35.3025 60.9818 37.6755 60.7722 39.1367H57.7933C57.68 35.9935 58.7504 31.8591 61.2593 28.1099C63.2698 25.1026 60.7779 23.3526 60.8289 17.4966C60.8798 9.70364 66.2262 6.73599 67.1153 5.8978C79.2068 -5.30455 90.1826 5.09359 91.3606 12.4957C92.4933 19.7337 90.4148 20.6908 93.7789 27.2661C96.3218 32.1763 95.9934 39.1367 95.9934 39.1367Z" fill="#263238"/>
<path d="M63.3984 43.1746C63.3984 43.1746 63.4551 43.2086 63.4777 43.2312C67.4988 45.9723 75.439 50.792 79.6866 49.2628C82.9544 48.0848 84.8687 44.732 85.0895 43.6503C83.3905 42.1212 80.9269 40.728 79.8395 40.0031C73.57 35.8347 67.9235 38.3323 63.3984 43.1746Z" fill="#455A64"/>
<path d="M69.4534 40.8014C69.7365 41.7302 74.6468 47.5466 78.9397 47.0595C80.3386 46.8953 79.7949 39.2213 79.7949 39.2213L79.8855 38.655L81.1314 30.5958L71.4073 25.2325L70.0027 24.5303C70.0027 24.5303 69.8102 26.756 69.595 29.5311L69.561 29.9276C69.561 30.0861 69.527 30.2334 69.5213 30.3806C69.4817 30.7941 69.4477 31.2188 69.4194 31.6379C69.4194 31.9607 69.3741 32.2722 69.3627 32.612C69.3514 32.9518 69.3288 33.2803 69.3118 33.6201C69.1958 36.0143 69.2431 38.4136 69.4534 40.8014Z" fill="#AD6359"/>
<path d="M69.5938 29.5087C70.5447 31.6847 71.9577 33.6279 73.7346 35.2034C75.5116 36.7789 77.61 37.949 79.8843 38.6325L81.1302 30.5734L71.4061 25.2101L70.0015 24.5078C70.0015 24.5078 69.7976 26.7505 69.5938 29.5087Z" fill="#263238"/>
<path d="M91.0931 17.1734C93.3585 31.3321 85.1294 34.2488 82.0768 34.7302C79.313 35.1662 69.8324 36.3046 66.1398 22.4744C62.4472 8.64421 68.3089 3.13932 74.584 1.80274C80.8592 0.466162 88.8503 3.04304 91.0931 17.1734Z" fill="#AD6359"/>
<path d="M67.2959 23.4717C70.8355 23.047 70.9658 12.0485 70.9658 10.6949C71.0054 11.5501 71.2546 16.0526 71.6171 16.2055C71.9956 16.1631 72.3647 16.0598 72.7102 15.8997C72.6704 15.3605 72.6704 14.8191 72.7102 14.2799C72.7102 14.0307 72.8517 14.8123 73.067 15.7751C73.2652 15.7014 73.4747 15.6165 73.7069 15.5372C73.5719 14.3901 73.5909 13.2302 73.7636 12.0882C73.8315 11.6577 74.1034 13.5607 74.6471 15.1917C77.6044 14.0568 80.6772 13.2496 83.8106 12.7848C84.6884 12.6772 85.4586 12.6262 86.1382 12.6035C86.0306 11.2726 85.7588 9.87374 85.8834 10.1682C86.2144 10.9478 86.4685 11.7577 86.6423 12.5865C87.0104 12.5865 87.3502 12.5865 87.656 12.5865C87.5938 10.7063 86.4554 7.78958 86.7895 8.22001C87.7964 9.556 88.542 11.0701 88.987 12.6828C90.2839 12.8244 90.686 13.0453 90.686 12.7111C90.686 12.1108 89.5533 6.92873 85.1301 3.41738C80.3445 -0.388471 71.4019 -0.705622 66.9447 6.14718C66.9447 6.14718 63.0596 9.17147 62.7708 13.5493C62.4819 17.9272 65.2684 23.7096 67.2959 23.4717Z" fill="#263238"/>
<path d="M85.1932 25.4087C84.8915 26.023 84.4371 26.5495 83.8736 26.9379C83.5579 27.1383 83.1882 27.2371 82.8146 27.221C81.999 27.1701 81.8348 26.4678 81.8574 25.8278C81.8724 25.4906 81.9256 25.1562 82.016 24.8311C82.9859 25.359 84.0996 25.5615 85.1932 25.4087Z" fill="white"/>
<path d="M88.1438 15.4402C87.8097 15.4402 87.4982 15.3609 87.1641 15.3213C86.8141 15.3266 86.4719 15.2172 86.19 15.0098C86.1126 14.927 86.0651 14.8208 86.0548 14.708C86.0446 14.5952 86.0722 14.4822 86.1333 14.3868C86.2814 14.2181 86.4717 14.092 86.6847 14.0213C86.8978 13.9506 87.1258 13.938 87.3453 13.9847C87.8079 14.0139 88.2425 14.2161 88.5629 14.551C88.6201 14.6328 88.6547 14.7282 88.6632 14.8276C88.6716 14.927 88.6537 15.0269 88.6112 15.1171C88.5686 15.2073 88.503 15.2848 88.4209 15.3415C88.3389 15.3982 88.2433 15.4323 88.1438 15.4402Z" fill="#263238"/>
<path d="M78.9685 16.6075C79.297 16.5396 79.5915 16.4206 79.9087 16.3244C80.2567 16.2667 80.5766 16.0978 80.8205 15.843C80.8802 15.7482 80.907 15.6363 80.8968 15.5247C80.8866 15.4131 80.8398 15.308 80.7639 15.2257C80.5889 15.0851 80.3797 14.9937 80.1577 14.9609C79.9358 14.928 79.709 14.9549 79.5009 15.0388C79.0512 15.1455 78.6574 15.4161 78.3965 15.7977C78.3524 15.8888 78.3335 15.99 78.3417 16.0909C78.35 16.1918 78.3852 16.2887 78.4436 16.3714C78.502 16.4541 78.5815 16.5196 78.6738 16.5611C78.7661 16.6027 78.8679 16.6187 78.9685 16.6075Z" fill="#263238"/>
<path d="M81.1832 20.0397C81.1832 20.0057 81.1096 20.0963 81.1152 20.136C81.2568 21.0988 81.2512 22.2258 80.413 22.6449C80.3847 22.6449 80.413 22.7072 80.413 22.7015C81.4777 22.4297 81.4664 20.9289 81.1832 20.0397Z" fill="#263238"/>
<path d="M80.2021 19.1216C78.6334 19.1782 78.8599 22.3158 80.3154 22.2648C81.7709 22.2138 81.5217 19.0763 80.2021 19.1216Z" fill="#263238"/>
<path d="M79.5967 19.314C79.3362 19.5066 79.0926 19.8407 78.7642 19.8804C78.4357 19.92 78.0732 19.6369 77.8014 19.3424C77.8014 19.3084 77.7447 19.3423 77.7504 19.382C77.7844 19.9823 78.0562 20.5827 78.7075 20.628C79.3588 20.6733 79.6873 20.1013 79.7949 19.4953C79.8119 19.4103 79.7043 19.2574 79.5967 19.314Z" fill="#263238"/>
<path d="M86.58 19.1557C86.58 19.1217 86.6593 19.201 86.6593 19.2407C86.6593 20.2148 86.8915 21.3248 87.792 21.591C87.792 21.591 87.792 21.6476 87.792 21.642C86.7046 21.5797 86.4497 20.0845 86.58 19.1557Z" fill="#263238"/>
<path d="M87.3555 18.0854C88.9129 17.8645 89.2414 20.9964 87.7972 21.2003C86.353 21.4042 86.0755 18.2723 87.3555 18.0854Z" fill="#263238"/>
<path d="M88.0534 18.2267C88.3195 18.3626 88.6197 18.6401 88.8916 18.6288C89.1634 18.6175 89.4579 18.2493 89.6391 17.9039C89.6391 17.8699 89.6901 17.9039 89.6958 17.9322C89.7694 18.5269 89.6391 19.1725 89.0784 19.3481C88.5178 19.5236 88.127 19.0309 87.9458 18.4532C87.8835 18.3456 87.9514 18.1814 88.0534 18.2267Z" fill="#263238"/>
<path d="M81.5382 27.4591C81.7761 27.6856 82.014 27.9914 82.3708 28.0254C82.7336 28.0061 83.0885 27.9116 83.4128 27.7479C83.4196 27.7455 83.4269 27.7453 83.4338 27.7473C83.4407 27.7493 83.4467 27.7534 83.4511 27.759C83.4555 27.7647 83.458 27.7716 83.4583 27.7787C83.4585 27.7859 83.4565 27.7929 83.4525 27.7989C83.3205 27.9954 83.1373 28.1521 82.9227 28.2519C82.708 28.3517 82.4702 28.3909 82.2348 28.3652C82.0345 28.3198 81.8521 28.2159 81.711 28.0667C81.5698 27.9174 81.4762 27.7296 81.442 27.527C81.425 27.4534 81.4986 27.4307 81.5382 27.4591Z" fill="#263238"/>
<path d="M85.2987 23.6131C85.2987 23.6131 85.6215 25.0459 85.6781 25.7255C85.6781 25.7935 85.5252 25.8388 85.293 25.8671C85.293 25.8671 85.293 25.8671 85.2647 25.8671C84.686 26.0236 84.0754 26.0175 83.4999 25.8497C82.9245 25.6818 82.4064 25.3587 82.0025 24.9157C81.9516 24.8534 82.0025 24.7741 82.0988 24.8137C83.0207 25.3382 84.0881 25.5488 85.1401 25.4141C85.1741 25.2215 84.5058 22.9788 84.6134 22.9618C85.1494 22.9657 85.6825 23.04 86.1992 23.1826C85.6328 20.1753 84.5511 17.2926 84.0131 14.291C84.0113 14.2698 84.0165 14.2486 84.0281 14.2307C84.0396 14.2128 84.0567 14.1992 84.0768 14.1921C84.0969 14.1849 84.1187 14.1847 84.139 14.1913C84.1592 14.1979 84.1767 14.2111 84.1886 14.2287C85.5139 17.1794 86.2615 20.6228 86.9467 23.7093C87.0374 24.1001 85.5818 23.7037 85.2987 23.6131Z" fill="#263238"/>
<path d="M79.5522 24.8982C78.754 24.8928 77.9734 24.6636 77.2991 24.2365C76.6248 23.8094 76.0839 23.2016 75.7379 22.4823C75.3919 21.763 75.2547 20.961 75.342 20.1676C75.4292 19.3742 75.7374 18.6212 76.2314 17.9942C76.7254 17.3673 77.3855 16.8916 78.1365 16.6212C78.8875 16.3509 79.6993 16.2967 80.4796 16.4649C81.2599 16.6331 81.9773 17.0169 82.5502 17.5726C83.1232 18.1284 83.5287 18.8338 83.7205 19.6086C83.991 20.7065 83.8149 21.8668 83.231 22.8351C82.647 23.8034 81.7029 24.5005 80.6056 24.7736C80.2607 24.8569 79.9071 24.8987 79.5522 24.8982ZM79.6032 16.9411C79.2959 16.938 78.9895 16.9742 78.6914 17.0487C77.7778 17.2741 76.9844 17.8393 76.473 18.6292C75.9616 19.4192 75.7705 20.3743 75.9387 21.3002C76.1069 22.2261 76.6217 23.053 77.3782 23.6126C78.1348 24.1721 79.0763 24.4223 80.0108 24.312C80.9453 24.2017 81.8027 23.7393 82.4082 23.019C83.0137 22.2987 83.3219 21.3746 83.27 20.435C83.218 19.4954 82.8098 18.611 82.1286 17.9618C81.4473 17.3127 80.5442 16.9476 79.6032 16.9411Z" fill="#383838"/>
<path d="M89.2707 23.7658C87.6396 23.7658 86.1728 22.0667 85.9292 19.8637C85.7917 18.81 85.9899 17.7399 86.4956 16.8054C86.6876 16.3889 86.9839 16.029 87.3559 15.7608C87.7279 15.4925 88.1628 15.3248 88.6186 15.2741C89.0745 15.2234 89.5356 15.2914 89.9575 15.4713C90.3793 15.6513 90.7475 15.9372 91.0263 16.3013C91.7233 17.1055 92.151 18.1075 92.2497 19.1671C92.5045 21.5004 91.3039 23.5619 89.5652 23.7545C89.4676 23.7674 89.369 23.7712 89.2707 23.7658ZM88.8912 15.8369C88.8196 15.8311 88.7476 15.8311 88.676 15.8369C88.3136 15.8909 87.9697 16.0319 87.6738 16.2479C87.3779 16.4639 87.1388 16.7485 86.977 17.0772C86.5329 17.9077 86.3587 18.8559 86.4786 19.79C86.7051 21.8175 88.0474 23.3354 89.4746 23.1881C90.9018 23.0409 91.8815 21.2512 91.6607 19.2237C91.5715 18.2846 91.1936 17.3963 90.5789 16.6808C90.3714 16.4309 90.1142 16.2268 89.8237 16.0816C89.5332 15.9363 89.2156 15.853 88.8912 15.8369Z" fill="#383838"/>
<path d="M83.6285 20.1127L83.2207 19.7219C83.7871 19.1102 85.2086 18.2211 86.3639 19.2122L85.9901 19.6426C84.9594 18.7478 83.6851 20.0617 83.6285 20.1127Z" fill="#383838"/>
<path d="M64.8703 23.2786L64.3379 23.0747C64.4342 22.8311 65.3063 20.645 66.5466 20.2996C67.7869 19.9541 75.3817 19.8465 75.7101 19.8408V20.4072C73.5127 20.4411 67.5944 20.5941 66.6939 20.8433C65.7934 21.0924 65.1025 22.7122 64.8703 23.2786Z" fill="#383838"/>
<path d="M68.5594 23.2053C68.5594 23.2053 65.1273 18.9691 63.1848 20.2264C61.2422 21.4837 64.0456 27.7758 66.4809 28.4894C66.7872 28.6021 67.1132 28.6517 67.4392 28.6354C67.7652 28.619 68.0846 28.537 68.3781 28.3942C68.6717 28.2514 68.9333 28.0507 69.1474 27.8043C69.3615 27.5579 69.5237 27.2708 69.6241 26.9602L68.5594 23.2053Z" fill="#AD6359"/>
<path d="M64.0341 22.0107C64.028 22.0134 64.0229 22.0177 64.0192 22.0233C64.0156 22.0288 64.0137 22.0353 64.0137 22.0419C64.0137 22.0485 64.0156 22.055 64.0192 22.0605C64.0229 22.066 64.028 22.0704 64.0341 22.073C65.7331 22.6394 66.7355 24.1119 67.4322 25.6693C66.8941 25.103 66.1975 24.7972 65.416 25.4428C65.4039 25.4496 65.3951 25.4608 65.3914 25.4741C65.3877 25.4874 65.3894 25.5016 65.3961 25.5136C65.4029 25.5256 65.4142 25.5345 65.4274 25.5382C65.4407 25.5419 65.4549 25.5402 65.4669 25.5334C65.7563 25.4122 66.0766 25.3859 66.3819 25.4581C66.6871 25.5304 66.9616 25.6975 67.166 25.9355C67.5024 26.3231 67.7949 26.7466 68.0381 27.1985C68.1288 27.3401 68.3893 27.2438 68.3213 27.0796V27.0399C68.1854 24.9161 66.3278 22.0617 64.0341 22.0107Z" fill="#263238"/>
<mask id="mask2_1353_19576" style="mask-type:luminance" maskUnits="userSpaceOnUse" x="56" y="0" width="41" height="44">
<path d="M95.9921 39.1369H94.3553C94.1911 37.0471 92.8659 33.8529 93.2227 35.467C93.4353 36.678 93.5075 37.9094 93.4379 39.1369H88.3407C86.8163 40.4371 85.0961 41.4883 83.2436 42.2518C82.1583 42.7049 81.0317 43.052 79.8795 43.2882C78.5661 43.5755 77.2255 43.7198 75.8811 43.7187C74.3177 43.7189 72.7601 43.5287 71.2427 43.1523C69.3461 42.6812 67.5346 41.9169 65.8738 40.8869C65.0124 40.3716 64.1976 39.7823 63.4385 39.1256H61.7394C61.6679 38.5622 61.6509 37.9932 61.6885 37.4265C61.5186 37.2283 61.3543 37.0414 61.1901 36.8602C61.0088 37.6871 60.8786 38.5139 60.788 39.1256H57.792C57.7576 37.0946 58.0835 35.0735 58.7548 33.1563C56.9126 29.5029 56.286 25.3565 56.9666 21.3219C57.6472 17.2873 59.5993 13.5758 62.538 10.729C64.1974 7.79528 66.5534 6.40207 67.1084 5.88669H67.1367C70.733 0.670636 77.0138 -0.15623 81.8051 1.6221L81.9297 1.66175C87.0834 3.44008 90.7081 8.42959 91.3594 12.5073C91.399 12.7961 91.4387 13.0736 91.4783 13.3455C93.0933 15.5876 94.2034 18.1528 94.7323 20.8649C95.2612 23.5769 95.1964 26.3713 94.5422 29.0559C96.2469 33.6773 95.9921 39.1369 95.9921 39.1369Z" fill="white"/>
</mask>
<g mask="url(#mask2_1353_19576)">
<path d="M85.0895 43.6683C84.8687 44.733 82.9544 48.0971 79.6866 49.2694C75.439 50.8042 67.4931 45.9846 63.4721 43.2492L63.3984 43.1925C64.1678 42.3608 64.9989 41.5883 65.8847 40.8818C67.5455 41.9118 69.357 42.6761 71.2537 43.1472C72.7711 43.5236 74.3287 43.7138 75.892 43.7136C77.2365 43.7147 78.5771 43.5704 79.8905 43.2831C81.0426 43.0469 82.1692 42.6998 83.2546 42.2467C83.8938 42.6838 84.5066 43.1585 85.0895 43.6683Z" fill="#455A64"/>
<path d="M79.8907 43.2609C79.8511 45.1412 79.6188 46.9818 78.9392 47.0554C76.1641 47.3726 73.1342 45.0562 71.2539 43.125C72.7713 43.5014 74.3289 43.6916 75.8923 43.6913C77.2367 43.6925 78.5773 43.5482 79.8907 43.2609Z" fill="#DD6A57"/>
</g>
</svg>
