<svg width="100" height="100" viewBox="0 0 100 100" fill="none" xmlns="http://www.w3.org/2000/svg">
<path d="M87.5 45.8337C87.5 68.9587 71.5 90.5837 50 95.8337C28.5 90.5837 12.5 68.9587 12.5 45.8337V20.8337L50 4.16699L87.5 20.8337V45.8337ZM50 87.5003C65.625 83.3337 79.1667 64.7503 79.1667 46.7503V26.2503L50 13.2503L20.8333 26.2503V46.7503C20.8333 64.7503 34.375 83.3337 50 87.5003ZM61.6667 45.8337V39.5837C61.6667 33.7503 55.8333 29.167 50 29.167C44.1667 29.167 38.3333 33.7503 38.3333 39.5837V45.8337C35.8333 45.8337 33.3333 48.3337 33.3333 50.8337V65.417C33.3333 68.3337 35.8333 70.8337 38.3333 70.8337H61.25C64.1667 70.8337 66.6667 68.3337 66.6667 65.8337V51.2503C66.6667 48.3337 64.1667 45.8337 61.6667 45.8337ZM56.25 45.8337H43.75V39.5837C43.75 36.2503 46.6667 34.167 50 34.167C53.3333 34.167 56.25 36.2503 56.25 39.5837V45.8337Z" fill="#383838"/>
</svg>
