<svg width="136" height="136" viewBox="0 0 136 136" fill="none" xmlns="http://www.w3.org/2000/svg">
<path d="M124.25 65C124.25 53.2815 120.775 41.8261 114.265 32.0825C107.754 22.3389 98.5005 14.7447 87.674 10.2602C76.8475 5.77567 64.9343 4.60232 53.4409 6.8885C41.9476 9.17467 31.3902 14.8177 23.1039 23.1039C14.8177 31.3902 9.17467 41.9476 6.8885 53.4409C4.60232 64.9343 5.77567 76.8475 10.2602 87.674C14.7447 98.5005 22.3389 107.754 32.0825 114.265C41.8261 120.775 53.2815 124.25 65 124.25M9.70003 45.25H120.3M9.70003 84.75H61.7084" stroke="#383838" stroke-width="10" stroke-linecap="round" stroke-linejoin="round"/>
<path d="M61.7088 5.75C50.6181 23.5224 44.7383 44.0509 44.7383 65C44.7383 85.9491 50.6181 106.478 61.7088 124.25M68.2921 5.75C78.9387 22.7991 84.7926 42.4029 85.2376 62.4983M118.984 118.983L130.834 130.833M84.7504 104.5C84.7504 109.738 86.8312 114.762 90.5351 118.465C94.2389 122.169 99.2624 124.25 104.5 124.25C109.738 124.25 114.762 122.169 118.466 118.465C122.17 114.762 124.25 109.738 124.25 104.5C124.25 99.262 122.17 94.2385 118.466 90.5346C114.762 86.8308 109.738 84.75 104.5 84.75C99.2624 84.75 94.2389 86.8308 90.5351 90.5346C86.8312 94.2385 84.7504 99.262 84.7504 104.5Z" stroke="#383838" stroke-width="10" stroke-linecap="round" stroke-linejoin="round"/>
</svg>
