<svg width="100" height="100" viewBox="0 0 100 100" fill="none" xmlns="http://www.w3.org/2000/svg">
<path d="M87.5007 75.0002H61.7507C61.1285 73.2527 60.1252 71.6656 58.8136 70.3539C57.5019 69.0423 55.9148 68.039 54.1673 67.4168V54.1668H83.334C84.4391 54.1668 85.4989 53.7278 86.2803 52.9464C87.0617 52.165 87.5007 51.1052 87.5007 50.0002C87.5007 48.8951 87.0617 47.8353 86.2803 47.0539C85.4989 46.2725 84.4391 45.8335 83.334 45.8335H79.1673V20.8335C79.1673 17.5183 77.8504 14.3389 75.5062 11.9947C73.162 9.65046 69.9825 8.3335 66.6673 8.3335H33.334C30.0188 8.3335 26.8394 9.65046 24.4952 11.9947C22.1509 14.3389 20.834 17.5183 20.834 20.8335V45.8335H16.6673C15.5622 45.8335 14.5024 46.2725 13.721 47.0539C12.9396 47.8353 12.5007 48.8951 12.5007 50.0002C12.5007 51.1052 12.9396 52.165 13.721 52.9464C14.5024 53.7278 15.5622 54.1668 16.6673 54.1668H45.834V67.4168C44.0865 68.039 42.4994 69.0423 41.1877 70.3539C39.8761 71.6656 38.8728 73.2527 38.2507 75.0002H12.5007C11.3956 75.0002 10.3358 75.4391 9.55437 76.2206C8.77297 77.002 8.33398 78.0618 8.33398 79.1668C8.33398 80.2719 8.77297 81.3317 9.55437 82.1131C10.3358 82.8945 11.3956 83.3335 12.5007 83.3335H38.2507C39.1265 85.7466 40.7241 87.8316 42.8263 89.305C44.9286 90.7784 47.4335 91.5688 50.0007 91.5688C52.5678 91.5688 55.0727 90.7784 57.175 89.305C59.2772 87.8316 60.8748 85.7466 61.7507 83.3335H87.5007C88.6057 83.3335 89.6655 82.8945 90.4469 82.1131C91.2283 81.3317 91.6673 80.2719 91.6673 79.1668C91.6673 78.0618 91.2283 77.002 90.4469 76.2206C89.6655 75.4391 88.6057 75.0002 87.5007 75.0002ZM29.1673 45.8335V20.8335C29.1673 19.7284 29.6063 18.6686 30.3877 17.8872C31.1691 17.1058 32.2289 16.6668 33.334 16.6668H66.6673C67.7724 16.6668 68.8322 17.1058 69.6136 17.8872C70.395 18.6686 70.834 19.7284 70.834 20.8335V45.8335H29.1673ZM50.0007 83.3335C49.1766 83.3335 48.371 83.0891 47.6858 82.6313C47.0006 82.1735 46.4665 81.5227 46.1512 80.7613C45.8358 80 45.7533 79.1622 45.914 78.354C46.0748 77.5457 46.4717 76.8033 47.0544 76.2206C47.6371 75.6378 48.3795 75.241 49.1878 75.0802C49.996 74.9195 50.8338 75.002 51.5952 75.3173C52.3565 75.6327 53.0073 76.1668 53.4651 76.852C53.923 77.5372 54.1673 78.3427 54.1673 79.1668C54.1673 80.2719 53.7283 81.3317 52.9469 82.1131C52.1655 82.8945 51.1057 83.3335 50.0007 83.3335Z" fill="#383838"/>
</svg>
