<svg width="33" height="32" viewBox="0 0 33 32" fill="none" xmlns="http://www.w3.org/2000/svg">
<g clip-path="url(#clip0_885_9203)">
<path d="M25 0H8C3.85786 0 0.5 3.35786 0.5 7.5V24.5C0.5 28.6421 3.85786 32 8 32H25C29.1421 32 32.5 28.6421 32.5 24.5V7.5C32.5 3.35786 29.1421 0 25 0Z" fill="white"/>
<path d="M25 0H8C3.85786 0 0.5 3.35786 0.5 7.5V24.5C0.5 28.6421 3.85786 32 8 32H25C29.1421 32 32.5 28.6421 32.5 24.5V7.5C32.5 3.35786 29.1421 0 25 0Z" fill="#F7971D"/>
<path d="M25.4465 11.4264C25.4603 11.6247 25.4603 11.8231 25.4603 12.0234C25.4603 18.123 20.8168 25.1577 12.3259 25.1577V25.154C9.81752 25.1576 7.36113 24.4392 5.25 23.0846C5.61475 23.1285 5.98125 23.1504 6.34875 23.1512C8.42771 23.1529 10.4469 22.4556 12.0817 21.1714C11.1185 21.1532 10.185 20.8344 9.4118 20.2596C8.63859 19.6849 8.06431 18.8829 7.76925 17.9657C8.46085 18.0991 9.17382 18.0719 9.85325 17.8862C7.69975 17.4511 6.15037 15.559 6.15037 13.3615V13.303C6.79236 13.6606 7.51085 13.8587 8.24538 13.8807C6.21713 12.5251 5.59188 9.82674 6.81663 7.71699C7.97554 9.14312 9.42149 10.3095 11.0606 11.1404C12.6996 11.9712 14.4952 12.448 16.3305 12.5397C16.1475 11.752 16.1745 10.9301 16.4089 10.1561C16.6432 9.38215 17.0767 8.68327 17.6659 8.12937C19.5251 6.38162 22.4493 6.47124 24.197 8.32949C25.2308 8.1254 26.2221 7.74642 27.1284 7.20887C26.7838 8.2777 26.0626 9.18496 25.0991 9.76187C26.0142 9.65406 26.9078 9.40911 27.75 9.03524C27.1305 9.96299 26.3505 10.7726 25.4465 11.4264Z" fill="white"/>
</g>
<defs>
<clipPath id="clip0_885_9203">
<rect width="32" height="32" fill="white" transform="translate(0.5)"/>
</clipPath>
</defs>
</svg>
