<svg width="109" height="42" viewBox="0 0 109 42" fill="none" xmlns="http://www.w3.org/2000/svg">
<path d="M18.7614 15.3636H20.5227V23.017C20.5227 23.8314 20.3314 24.553 19.9489 25.1818C19.5663 25.8068 19.0284 26.2992 18.3352 26.6591C17.642 27.0152 16.8295 27.1932 15.8977 27.1932C14.9697 27.1932 14.1591 27.0152 13.4659 26.6591C12.7727 26.2992 12.2348 25.8068 11.8523 25.1818C11.4697 24.553 11.2784 23.8314 11.2784 23.017V15.3636H13.0341V22.875C13.0341 23.4015 13.1496 23.8693 13.3807 24.2784C13.6155 24.6875 13.947 25.0095 14.375 25.2443C14.803 25.4754 15.3106 25.5909 15.8977 25.5909C16.4886 25.5909 16.9981 25.4754 17.4261 25.2443C17.858 25.0095 18.1875 24.6875 18.4148 24.2784C18.6458 23.8693 18.7614 23.4015 18.7614 22.875V15.3636ZM23.0753 27V15.3636H27.223C28.1283 15.3636 28.8783 15.5284 29.473 15.858C30.0677 16.1875 30.5128 16.6383 30.8082 17.2102C31.1037 17.7784 31.2514 18.4186 31.2514 19.1307C31.2514 19.8466 31.1018 20.4905 30.8026 21.0625C30.5071 21.6307 30.0601 22.0814 29.4616 22.4148C28.867 22.7443 28.1188 22.9091 27.2173 22.9091H24.3651V21.4205H27.0582C27.6302 21.4205 28.0942 21.322 28.4503 21.125C28.8063 20.9242 29.0677 20.6515 29.2344 20.3068C29.401 19.9621 29.4844 19.5701 29.4844 19.1307C29.4844 18.6913 29.401 18.3011 29.2344 17.9602C29.0677 17.6193 28.8045 17.3523 28.4446 17.1591C28.0885 16.9659 27.6188 16.8693 27.0355 16.8693H24.831V27H23.0753ZM42.9744 19.1477H41.2017C41.1335 18.7689 41.0066 18.4356 40.821 18.1477C40.6354 17.8598 40.4081 17.6155 40.1392 17.4148C39.8703 17.214 39.5691 17.0625 39.2358 16.9602C38.9063 16.858 38.5559 16.8068 38.1847 16.8068C37.5142 16.8068 36.9138 16.9754 36.3835 17.3125C35.857 17.6496 35.4403 18.1439 35.1335 18.7955C34.8305 19.447 34.679 20.2424 34.679 21.1818C34.679 22.1288 34.8305 22.928 35.1335 23.5795C35.4403 24.2311 35.8589 24.7235 36.3892 25.0568C36.9195 25.3902 37.5161 25.5568 38.179 25.5568C38.5464 25.5568 38.8949 25.5076 39.2244 25.4091C39.5578 25.3068 39.8589 25.1572 40.1278 24.9602C40.3968 24.7633 40.6241 24.5227 40.8097 24.2386C40.9991 23.9508 41.1297 23.6212 41.2017 23.25L42.9744 23.2557C42.8797 23.8277 42.696 24.3542 42.4233 24.8352C42.1544 25.3125 41.8078 25.7254 41.3835 26.0739C40.9631 26.4186 40.482 26.6856 39.9403 26.875C39.3987 27.0644 38.8078 27.1591 38.1676 27.1591C37.16 27.1591 36.2623 26.9205 35.4744 26.4432C34.6866 25.9621 34.0653 25.2746 33.6108 24.3807C33.16 23.4867 32.9347 22.4205 32.9347 21.1818C32.9347 19.9394 33.1619 18.8731 33.6165 17.983C34.071 17.089 34.6922 16.4034 35.4801 15.9261C36.268 15.4451 37.1638 15.2045 38.1676 15.2045C38.785 15.2045 39.3608 15.2936 39.8949 15.4716C40.4328 15.6458 40.9157 15.9034 41.3438 16.2443C41.7718 16.5814 42.1259 16.9943 42.4062 17.483C42.6866 17.9678 42.8759 18.5227 42.9744 19.1477ZM55.1832 21.1818C55.1832 22.4242 54.956 23.4924 54.5014 24.3864C54.0469 25.2765 53.4238 25.9621 52.6321 26.4432C51.8442 26.9205 50.9484 27.1591 49.9446 27.1591C48.937 27.1591 48.0374 26.9205 47.2457 26.4432C46.4579 25.9621 45.8366 25.2746 45.3821 24.3807C44.9276 23.4867 44.7003 22.4205 44.7003 21.1818C44.7003 19.9394 44.9276 18.8731 45.3821 17.983C45.8366 17.089 46.4579 16.4034 47.2457 15.9261C48.0374 15.4451 48.937 15.2045 49.9446 15.2045C50.9484 15.2045 51.8442 15.4451 52.6321 15.9261C53.4238 16.4034 54.0469 17.089 54.5014 17.983C54.956 18.8731 55.1832 19.9394 55.1832 21.1818ZM53.4446 21.1818C53.4446 20.2348 53.2912 19.4375 52.9844 18.7898C52.6813 18.1383 52.2647 17.6458 51.7344 17.3125C51.2079 16.9754 50.6113 16.8068 49.9446 16.8068C49.2741 16.8068 48.6757 16.9754 48.1491 17.3125C47.6226 17.6458 47.206 18.1383 46.8991 18.7898C46.5961 19.4375 46.4446 20.2348 46.4446 21.1818C46.4446 22.1288 46.5961 22.928 46.8991 23.5795C47.206 24.2273 47.6226 24.7197 48.1491 25.0568C48.6757 25.3902 49.2741 25.5568 49.9446 25.5568C50.6113 25.5568 51.2079 25.3902 51.7344 25.0568C52.2647 24.7197 52.6813 24.2273 52.9844 23.5795C53.2912 22.928 53.4446 22.1288 53.4446 21.1818ZM57.3722 15.3636H59.5028L63.2074 24.4091H63.3438L67.0483 15.3636H69.179V27H67.5085V18.5795H67.4006L63.9688 26.983H62.5824L59.1506 18.5739H59.0426V27H57.3722V15.3636ZM73.4872 15.3636V27H71.7315V15.3636H73.4872ZM85.4361 15.3636V27H83.8224L77.9077 18.4659H77.7997V27H76.044V15.3636H77.669L83.5895 23.9091H83.6974V15.3636H85.4361ZM95.8722 19.0398C95.7623 18.6951 95.6146 18.3864 95.429 18.1136C95.2472 17.8371 95.0294 17.6023 94.7756 17.4091C94.5218 17.2121 94.232 17.0625 93.9062 16.9602C93.5843 16.858 93.2301 16.8068 92.8438 16.8068C92.1884 16.8068 91.5975 16.9754 91.071 17.3125C90.5445 17.6496 90.1278 18.1439 89.821 18.7955C89.518 19.4432 89.3665 20.2367 89.3665 21.1761C89.3665 22.1193 89.5199 22.9167 89.8267 23.5682C90.1335 24.2197 90.554 24.714 91.0881 25.0511C91.6222 25.3883 92.2301 25.5568 92.9119 25.5568C93.5445 25.5568 94.0956 25.428 94.5653 25.1705C95.0388 24.9129 95.4044 24.5492 95.6619 24.0795C95.9233 23.6061 96.054 23.0492 96.054 22.4091L96.5085 22.4943H93.179V21.0455H97.7528V22.3693C97.7528 23.3466 97.5445 24.1951 97.1278 24.9148C96.715 25.6307 96.143 26.1837 95.4119 26.5739C94.6847 26.964 93.8513 27.1591 92.9119 27.1591C91.8589 27.1591 90.9347 26.9167 90.1392 26.4318C89.3475 25.947 88.7301 25.2595 88.2869 24.3693C87.8438 23.4754 87.6222 22.4148 87.6222 21.1875C87.6222 20.2595 87.7509 19.4261 88.0085 18.6875C88.2661 17.9489 88.6278 17.322 89.0938 16.8068C89.5634 16.2879 90.1146 15.892 90.7472 15.6193C91.3835 15.3428 92.0786 15.2045 92.8324 15.2045C93.4612 15.2045 94.0464 15.2973 94.5881 15.483C95.1335 15.6686 95.6184 15.9318 96.0426 16.2727C96.4706 16.6136 96.8248 17.0189 97.1051 17.4886C97.3854 17.9545 97.5748 18.4716 97.6733 19.0398H95.8722Z" fill="#F7971D"/>
<rect x="2" y="2" width="105" height="38" stroke="#F7971D" stroke-width="4"/>
</svg>
