<svg width="100" height="100" viewBox="0 0 100 100" fill="none" xmlns="http://www.w3.org/2000/svg">
<g clip-path="url(#clip0_1307_18325)">
<path fill-rule="evenodd" clip-rule="evenodd" d="M50.0007 8.33301C73.0132 8.33301 91.6674 26.9872 91.6674 49.9997C91.6821 59.6159 88.3565 68.9387 82.259 76.3747L82.3424 76.4663L81.7924 76.933C77.885 81.5548 73.0156 85.2677 67.5245 87.8125C62.0334 90.3573 56.0528 91.6725 50.0007 91.6663C37.709 91.6663 26.6674 86.3455 19.0424 77.8872L18.209 76.9288L17.659 76.4705L17.7424 76.3705C11.6455 68.9358 8.31995 59.6145 8.33403 49.9997C8.33403 26.9872 26.9882 8.33301 50.0007 8.33301ZM50.0007 70.833C42.2507 70.833 35.2465 73.2997 30.0299 76.6872C35.7894 81.0106 42.799 83.3432 50.0007 83.333C57.2024 83.3432 64.212 81.0106 69.9715 76.6872C64.0101 72.8689 57.0801 70.8375 50.0007 70.833ZM50.0007 16.6663C43.7279 16.6662 37.5823 18.436 32.2704 21.7724C26.9584 25.1088 22.6957 29.8763 19.9722 35.5271C17.2487 41.1778 16.1749 47.4823 16.8742 53.716C17.5736 59.9497 20.0177 65.8596 23.9257 70.7663C30.6799 65.9205 39.8965 62.4997 50.0007 62.4997C60.1049 62.4997 69.3215 65.9205 76.0757 70.7663C79.9837 65.8596 82.4278 59.9497 83.1272 53.716C83.8265 47.4823 82.7527 41.1778 80.0292 35.5271C77.3057 29.8763 73.043 25.1088 67.731 21.7724C62.4191 18.436 56.2735 16.6662 50.0007 16.6663ZM50.0007 24.9997C54.421 24.9997 58.6602 26.7556 61.7858 29.8812C64.9114 33.0068 66.6674 37.2461 66.6674 41.6663C66.6674 46.0866 64.9114 50.3258 61.7858 53.4515C58.6602 56.5771 54.421 58.333 50.0007 58.333C45.5804 58.333 41.3412 56.5771 38.2156 53.4515C35.09 50.3258 33.334 46.0866 33.334 41.6663C33.334 37.2461 35.09 33.0068 38.2156 29.8812C41.3412 26.7556 45.5804 24.9997 50.0007 24.9997ZM50.0007 33.333C47.7906 33.333 45.6709 34.211 44.1081 35.7738C42.5453 37.3366 41.6674 39.4562 41.6674 41.6663C41.6674 43.8765 42.5453 45.9961 44.1081 47.5589C45.6709 49.1217 47.7906 49.9997 50.0007 49.9997C52.2108 49.9997 54.3304 49.1217 55.8932 47.5589C57.4561 45.9961 58.334 43.8765 58.334 41.6663C58.334 39.4562 57.4561 37.3366 55.8932 35.7738C54.3304 34.211 52.2108 33.333 50.0007 33.333Z" fill="#383838"/>
</g>
<defs>
<clipPath id="clip0_1307_18325">
<rect width="100" height="100" fill="white"/>
</clipPath>
</defs>
</svg>
