<svg width="100" height="100" viewBox="0 0 100 100" fill="none" xmlns="http://www.w3.org/2000/svg">
<path d="M35.9375 18.75C33.0402 18.7615 30.2649 19.9176 28.2162 21.9662C26.1676 24.0149 25.0115 26.7902 25 29.6875C25 35.6938 29.9312 40.625 35.9375 40.625C41.9437 40.625 46.875 35.6938 46.875 29.6875C46.875 23.6812 41.9437 18.75 35.9375 18.75ZM64.0625 18.75C61.1652 18.7615 58.3899 19.9176 56.3412 21.9662C54.2926 24.0149 53.1365 26.7902 53.125 29.6875C53.125 35.6938 58.0563 40.625 64.0625 40.625C70.0687 40.625 75 35.6938 75 29.6875C75 23.6812 70.0687 18.75 64.0625 18.75ZM35.9375 25C38.5625 25 40.625 27.0625 40.625 29.6875C40.625 32.3125 38.5625 34.375 35.9375 34.375C33.3125 34.375 31.25 32.3125 31.25 29.6875C31.25 27.0625 33.3125 25 35.9375 25ZM64.0625 25C66.6875 25 68.75 27.0625 68.75 29.6875C68.75 32.3125 66.6875 34.375 64.0625 34.375C61.4375 34.375 59.375 32.3125 59.375 29.6875C59.375 27.0625 61.4375 25 64.0625 25ZM21.875 37.5C15 37.5 9.375 43.125 9.375 50C9.375 53.4781 10.8656 56.6156 13.1844 58.8875C11.0573 60.3229 9.31342 62.2567 8.10479 64.5203C6.89615 66.784 6.2594 69.3089 6.25 71.875H12.5C12.5 66.6625 16.6625 62.5 21.875 62.5C27.0875 62.5 31.25 66.6625 31.25 71.875H37.5C37.4906 69.3089 36.8538 66.784 35.6452 64.5203C34.4366 62.2567 32.6927 60.3229 30.5656 58.8875C32.8844 56.6156 34.375 53.4813 34.375 50C34.375 43.125 28.75 37.5 21.875 37.5ZM37.5 71.875C35.5469 74.4875 34.375 77.7719 34.375 81.25H40.625C40.625 76.0375 44.7875 71.875 50 71.875C55.2125 71.875 59.375 76.0375 59.375 81.25H65.625C65.6196 77.8701 64.5236 74.5822 62.5 71.875C61.4375 70.4594 60.1562 69.25 58.6906 68.2625C61.0094 65.9906 62.5 62.8563 62.5 59.375C62.5 52.5 56.875 46.875 50 46.875C43.125 46.875 37.5 52.5 37.5 59.375C37.5 62.8531 38.9906 65.9906 41.3094 68.2625C39.8465 69.2452 38.5588 70.4663 37.5 71.875ZM62.5 71.875H68.75C68.75 66.6625 72.9125 62.5 78.125 62.5C83.3375 62.5 87.5 66.6625 87.5 71.875H93.75C93.7406 69.3089 93.1038 66.784 91.8952 64.5203C90.6866 62.2567 88.9427 60.3229 86.8156 58.8875C89.1344 56.6156 90.625 53.4813 90.625 50C90.625 43.125 85 37.5 78.125 37.5C71.25 37.5 65.625 43.125 65.625 50C65.625 53.4781 67.1156 56.6156 69.4344 58.8875C67.3073 60.3229 65.5634 62.2567 64.3548 64.5203C63.1462 66.784 62.5094 69.3089 62.5 71.875ZM21.875 43.75C25.3656 43.75 28.125 46.5094 28.125 50C28.125 53.4906 25.3656 56.25 21.875 56.25C18.3844 56.25 15.625 53.4906 15.625 50C15.625 46.5094 18.3844 43.75 21.875 43.75ZM78.125 43.75C81.6156 43.75 84.375 46.5094 84.375 50C84.375 53.4906 81.6156 56.25 78.125 56.25C74.6344 56.25 71.875 53.4906 71.875 50C71.875 46.5094 74.6344 43.75 78.125 43.75ZM50 53.125C53.4906 53.125 56.25 55.8844 56.25 59.375C56.25 62.8656 53.4906 65.625 50 65.625C46.5094 65.625 43.75 62.8656 43.75 59.375C43.75 55.8844 46.5094 53.125 50 53.125Z" fill="#383838"/>
</svg>
