<svg width="481" height="521" viewBox="0 0 481 521" fill="none" xmlns="http://www.w3.org/2000/svg">
<rect width="481.001" height="520.112" fill="white"/>
<path d="M433.664 487.622L385.281 487.862L336.909 487.952L240.165 488.112L143.42 487.952L95.0382 487.862L46.666 487.622L95.0382 487.371L143.42 487.281L240.165 487.121L336.909 487.281L385.281 487.371L433.664 487.622Z" fill="#263238"/>
<path d="M225.35 487.611H128.986C128.195 484.508 127.424 481.455 126.653 478.451C125.772 474.998 124.901 471.624 124.07 468.341C123.89 467.61 123.7 466.869 123.51 466.148C122.882 463.639 122.262 461.19 121.648 458.8L120.557 454.506C120.176 453.064 119.826 451.643 119.475 450.261C119.375 449.901 119.285 449.53 119.195 449.18L118.895 447.989L118.534 446.567C118.394 446.067 118.274 445.566 118.154 445.085C117.904 444.154 117.674 443.243 117.453 442.353C117.113 441.031 116.783 439.74 116.452 438.478C116.312 437.928 116.162 437.377 116.032 436.847C115.805 435.966 115.585 435.105 115.371 434.264C115.231 433.703 115.091 433.153 114.961 432.612C114.38 430.41 113.859 428.327 113.369 426.385L112.978 424.884C112.768 424.043 112.568 423.242 112.368 422.461C112.238 421.971 112.108 421.46 111.997 421.03C111.577 419.368 111.187 417.856 110.856 416.525C110.756 416.164 110.666 415.824 110.586 415.524C110.366 414.643 110.155 413.862 109.985 413.171C109.915 412.891 109.855 412.62 109.775 412.37C109.695 412.12 109.645 411.84 109.585 411.609C109.525 411.379 109.495 411.259 109.465 411.119C109.435 410.979 109.345 410.648 109.294 410.458C109.244 410.268 109.244 410.248 109.214 410.168C109.074 409.587 108.994 409.297 108.994 409.297H202.795C202.795 409.297 205.889 419.948 210.804 437.117C211.805 440.611 212.886 444.385 214.048 448.389C217.381 459.791 221.215 473.146 225.35 487.611Z" fill="#37474F"/>
<path d="M144.762 487.611H142.359C138.789 472.849 135.332 458.059 131.988 443.243C131.174 439.64 130.376 436.032 129.596 432.422C129.526 432.081 129.445 431.751 129.375 431.421C129.366 431.384 129.372 431.344 129.392 431.311C129.411 431.279 129.443 431.255 129.481 431.246C129.518 431.236 129.557 431.242 129.59 431.262C129.623 431.282 129.646 431.313 129.656 431.351C129.656 431.461 129.716 431.571 129.756 431.681C130.837 435.545 131.928 439.429 132.989 443.314C137.034 458.029 140.958 472.795 144.762 487.611Z" fill="#263238"/>
<path d="M199.772 409.257L195.638 429.979L192.244 446.998L186.468 475.969L185.867 478.972L184.866 483.917L184.125 487.671H128.966C128.185 484.558 127.394 481.505 126.643 478.512C125.762 475.058 124.892 471.684 124.061 468.401C123.88 467.67 123.69 466.929 123.5 466.208C122.873 463.699 122.252 461.25 121.638 458.86L120.547 454.566C120.166 453.124 119.816 451.703 119.466 450.321C119.366 449.961 119.275 449.59 119.185 449.24L118.885 448.049L118.525 446.627C118.385 446.127 118.264 445.626 118.144 445.146C117.894 444.215 117.664 443.304 117.444 442.413C117.103 441.091 116.773 439.8 116.442 438.538C116.292 437.978 116.152 437.437 116.022 436.907C115.795 436.026 115.575 435.165 115.361 434.324C115.221 433.763 115.081 433.213 114.951 432.672C114.37 430.47 113.85 428.387 113.359 426.445L112.969 424.944C112.758 424.103 112.558 423.302 112.358 422.521C112.228 422.031 112.098 421.52 111.988 421.09C111.567 419.428 111.177 417.916 110.846 416.585C110.746 416.224 110.656 415.884 110.576 415.584C110.356 414.703 110.146 413.922 109.975 413.231C109.905 412.951 109.845 412.681 109.765 412.43C109.685 412.18 109.635 411.9 109.575 411.669C109.515 411.439 109.485 411.319 109.455 411.179C109.425 411.039 109.335 410.708 109.285 410.518C109.235 410.328 109.235 410.308 109.205 410.228C109.064 409.647 108.984 409.357 108.984 409.357L199.772 409.257Z" fill="#263238"/>
<path d="M199.792 409.217C199.792 409.727 199.402 415.323 198.491 423.863C198.24 426.355 197.93 429.088 197.58 432.021C197.029 436.646 196.348 441.752 195.497 447.148C194.056 456.558 192.184 466.829 189.741 476.87C188.87 480.484 187.919 484.068 186.908 487.571H65.7773C67.1989 469.121 68.5103 452.433 69.5514 439.279C71.053 420.849 71.984 409.257 71.984 409.257H181.813L199.792 409.217Z" fill="#37474F"/>
<path d="M199.531 420.349C199.401 424.684 199.21 429.009 198.93 433.313C198.64 437.988 198.209 442.653 197.599 447.328C197.589 447.503 197.569 447.677 197.539 447.849C196.971 452.214 196.304 456.572 195.537 460.923C194.836 464.977 194.325 469.352 192.533 473.096C191.855 474.548 190.892 475.848 189.7 476.92C188.61 477.92 187.272 478.611 185.826 478.922C185.59 478.983 185.348 479.023 185.105 479.042C185.045 479.042 184.975 479.042 184.895 479.042C184.94 479.066 184.978 479.102 185.003 479.147C185.028 479.191 185.039 479.242 185.035 479.293C184.985 480.744 185.035 482.226 184.865 483.667C184.86 483.727 184.86 483.788 184.865 483.848C184.725 485.109 184.485 486.35 184.254 487.602H182.182C182.182 487.602 182.182 487.552 182.182 487.522C182.553 486.16 182.853 484.779 183.183 483.397C183.514 482.016 184.014 480.614 184.344 479.183C184.364 479.13 184.398 479.084 184.445 479.053C183.127 479.113 181.823 478.77 180.707 478.068C179.59 477.367 178.715 476.341 178.198 475.128C177.497 473.276 177.817 471.344 178.098 469.442C178.478 466.959 178.838 464.437 179.219 462.004C179.93 457.449 180.841 452.944 181.652 448.409L182.012 446.347C183.644 437.127 185.336 427.907 187.378 418.777C187.448 418.397 187.538 418.017 187.618 417.636C187.698 417.256 188.088 417.456 188.058 417.696C187.998 418.307 187.938 418.928 187.868 419.538C187.508 423.052 187.097 426.546 186.607 430.02C186.016 434.114 185.606 438.228 185.045 442.313C184.845 443.714 184.655 445.106 184.445 446.497C183.504 453.225 182.532 459.952 181.381 466.659C180.841 469.772 178.899 475.349 183.383 476.32C184.399 476.535 185.457 476.401 186.387 475.939C188.366 474.746 189.846 472.875 190.551 470.673C191.823 467.11 192.273 463.175 192.934 459.461C193.664 455.357 194.305 451.253 194.886 447.138C195.62 442.006 196.384 436.874 197.178 431.741C197.579 429.129 197.999 426.516 198.41 423.903C198.61 422.692 198.8 421.48 199 420.269C199.12 420.019 199.531 420.089 199.531 420.349Z" fill="#263238"/>
<path d="M92.3849 452.534C97.4274 452.489 102.445 451.817 107.321 450.532C109.573 449.961 111.796 449.24 113.998 448.53C116.179 447.936 118.221 446.915 120.005 445.526C123.408 442.603 125.01 437.988 126.462 433.894C128.075 429.276 129.383 424.558 130.376 419.769C130.426 419.528 130.776 419.608 130.776 419.829C130.906 425.238 130.231 430.636 128.774 435.846C127.563 440.281 125.921 445.216 122.347 448.319C118.583 451.583 113.468 452.734 108.652 453.325C103.243 453.953 97.7753 453.879 92.3849 453.105C92.3092 453.105 92.2367 453.075 92.1832 453.021C92.1297 452.968 92.0996 452.895 92.0996 452.819C92.0996 452.744 92.1297 452.671 92.1832 452.618C92.2367 452.564 92.3092 452.534 92.3849 452.534Z" fill="#263238"/>
<path d="M83.9959 419.858C83.7223 426.632 83.4353 433.413 83.135 440.2C82.4676 456.011 81.7068 471.814 80.8525 487.611H78.5801C79.6212 471.774 80.7191 455.947 81.8736 440.13C82.3742 433.363 82.8747 426.616 83.4053 419.848C83.4192 419.78 83.4567 419.718 83.5114 419.674C83.5662 419.63 83.6346 419.606 83.7048 419.607C83.775 419.609 83.8426 419.634 83.8958 419.68C83.9489 419.726 83.9844 419.789 83.9959 419.858Z" fill="#263238"/>
<path d="M172.091 289.758C191.222 318.619 238.052 371.706 261.668 379.384C275.282 383.819 332.744 373.958 346.049 370.164C353.116 368.162 326.197 310.45 318.589 312.392C310.791 314.394 274.812 321.832 268.956 322.103C263.099 322.373 217.27 288.336 193.394 272.869C163.282 253.368 156.434 266.122 172.091 289.758Z" fill="#D3766A"/>
<path d="M336.87 371.836C344.268 370.915 378.235 363.828 387.105 359.733C395.974 355.639 420.661 342.004 418.208 334.886C415.755 327.769 408.197 331.193 408.197 331.193C408.197 331.193 417.708 323.785 414.594 316.847C411.481 309.91 399.918 315.606 399.918 315.606C399.918 315.606 409.128 307.287 405.524 300.589C401.921 293.892 391.249 301.591 391.249 301.591C391.249 301.591 400.029 294.373 394.743 290.108C388.376 284.973 373.72 300.119 363.569 303.883C361.267 304.744 315.688 317.998 315.688 317.998L336.87 371.836Z" fill="#D3766A"/>
<path d="M392.199 300.94C381.377 312.032 374.73 315.025 359.894 318.579C359.604 318.649 359.634 319.09 359.894 319.05C374.75 316.887 383.63 314.345 392.72 301.431C393.21 300.8 392.72 300.41 392.199 300.94Z" fill="#263238"/>
<path d="M400.778 314.715C388.535 325.316 381.317 328.56 366.08 333.435C365.86 333.495 365.96 333.875 366.181 333.825C381.557 330.301 390.367 327.558 401.218 315.415C401.699 314.865 401.338 314.234 400.778 314.715Z" fill="#263238"/>
<path d="M407.436 331.413C394.843 340.773 387.114 344.727 371.688 347.55C371.62 347.569 371.561 347.61 371.522 347.668C371.483 347.726 371.466 347.797 371.475 347.866C371.483 347.936 371.517 348 371.569 348.046C371.621 348.093 371.688 348.12 371.758 348.121C387.775 346.78 397.445 341.904 407.676 331.823C408.347 331.143 408.227 330.822 407.436 331.413Z" fill="#263238"/>
<path d="M306.236 320.091C306.236 320.091 316.988 303.913 323.255 297.847C329.521 291.78 361.296 277.825 364.709 284.502C369.114 293.132 352.366 304.814 343.416 309.459C343.416 309.459 353.607 329.421 343.416 340.403C333.225 351.385 306.236 320.091 306.236 320.091Z" fill="#D3766A"/>
<path d="M365.11 287.275C363.449 298.047 351.306 303.393 342.957 308.548C342.83 308.619 342.723 308.718 342.644 308.839C342.564 308.96 342.516 309.099 342.502 309.242C342.488 309.386 342.51 309.531 342.564 309.665C342.619 309.799 342.706 309.917 342.816 310.01C346.53 318.669 349.243 331.954 343.988 340.393C343.958 340.442 343.948 340.501 343.96 340.557C343.971 340.613 344.003 340.663 344.05 340.697C344.096 340.731 344.153 340.746 344.21 340.74C344.267 340.733 344.32 340.706 344.358 340.663C351.215 332.384 349.614 319.11 344.939 309.89C353.578 304.734 365.521 298.878 365.221 287.286C365.221 287.215 365.12 287.195 365.11 287.275Z" fill="#263238"/>
<path d="M232.607 293.942L210.072 348.942C210.072 348.942 173.283 300.459 161.75 277.514C149.737 253.609 154.803 244.989 185.255 263.109C215.899 281.339 232.607 293.942 232.607 293.942Z" fill="#383838"/>
<path d="M232.606 293.943L221.904 320.061L210.072 348.942C210.072 348.942 173.292 300.46 161.75 277.515C155.643 265.392 153.951 257.203 157.745 254.44C161.539 251.677 170.279 254.18 185.285 263.11C215.898 281.349 232.606 293.943 232.606 293.943Z" fill="#383838"/>
<path d="M165.444 253.93C165.794 254.01 166.155 254.1 166.525 254.21L165.584 254.871C162.331 257.203 159.137 259.626 155.964 262.099C155.964 261.818 155.874 261.548 155.854 261.288C158.987 258.785 162.13 256.242 165.444 253.93ZM197.789 270.728C196.589 273.693 195.026 276.498 193.134 279.077C189.399 284.184 184.715 288.525 179.339 291.861C177.101 293.264 174.758 294.493 172.331 295.535C172.511 295.825 172.712 296.115 172.892 296.416C175.396 295.304 177.816 294.009 180.13 292.541C185.307 289.258 189.843 285.058 193.514 280.148C195.587 277.408 197.287 274.405 198.57 271.218L197.789 270.728ZM202.474 338.801L203.475 340.203C203.645 340.273 203.825 340.373 203.995 340.453C206.663 341.767 209.227 343.283 211.664 344.988L212.034 344.097C211.163 343.496 210.282 342.916 209.371 342.355C207.166 340.985 204.86 339.784 202.474 338.761V338.801ZM223.677 310.01C215.508 308.168 208.03 304.094 199.771 302.552C193.044 301.291 185.856 302.042 180.53 306.687C180.36 306.847 180.18 306.997 180.02 307.177C180.19 307.427 180.38 307.698 180.55 307.968C183.064 305.576 186.206 303.948 189.61 303.273C197.959 301.621 206.308 305.125 213.996 307.968C217.717 309.428 221.564 310.544 225.489 311.302L225.869 310.371C225.148 310.301 224.397 310.13 223.677 309.97V310.01Z" fill="white"/>
<path d="M221.626 293.772C220.935 295.014 220.424 296.365 219.854 297.667C219.283 298.968 218.682 300.339 218.092 301.671C216.9 304.374 215.759 307.107 214.628 309.84C212.366 315.306 210.083 320.762 207.921 326.267C207.32 327.779 206.729 329.271 206.179 330.822C205.628 332.374 205.118 334.086 204.537 335.678C204.537 335.778 204.647 335.828 204.687 335.728C205.288 334.396 205.999 333.105 206.609 331.723C207.22 330.342 207.831 328.98 208.421 327.589C209.573 324.866 210.714 322.133 211.825 319.4C214.007 313.994 216.21 308.608 218.282 303.163C218.863 301.641 219.423 300.159 220.004 298.598C220.584 297.036 221.315 295.414 221.766 293.782C221.796 293.752 221.666 293.692 221.626 293.772Z" fill="#263238"/>
<path opacity="0.1" d="M221.904 320.06L210.072 348.941C210.072 348.941 173.292 300.459 161.75 277.514C155.643 265.391 153.951 257.202 157.745 254.439C163.842 254.61 168.066 254.71 168.066 254.71L221.904 320.06Z" fill="black"/>
<path d="M217.26 446.857L61.9727 447.308C61.9727 447.308 75.5173 330.452 132.549 261.417C145.743 245.4 166.996 254.129 175.956 262.609C198.68 284.142 217.701 446.297 217.26 446.857Z" fill="#383838"/>
<path d="M164.774 255.451C158.137 260.247 151.76 265.462 145.303 270.468C141.969 273.04 138.726 275.773 135.242 278.126C132.449 280.008 129.236 281.57 125.812 281.379C123.544 281.212 121.384 280.34 119.635 278.887C119.745 278.707 119.875 278.516 119.996 278.336C120.714 278.917 121.501 279.408 122.338 279.798C125.772 281.369 129.506 280.589 132.699 278.797C136.233 276.855 139.346 274.102 142.53 271.639L152.951 263.55C156.545 260.767 160.109 257.764 163.843 255.041L164.774 255.451ZM141.749 335.478C145.183 330.563 146.855 323.965 144.752 318.199C142.82 313.044 138.205 309.65 132.97 308.389C127.514 307.098 121.777 307.775 116.772 310.301C110.235 313.614 105.48 319.501 99.6036 323.755C97.9463 324.947 96.1638 325.954 94.2878 326.758C94.1176 327.169 93.9575 327.569 93.7873 327.97C100.114 325.577 104.799 320.532 109.875 316.227C112.519 313.824 115.521 311.848 118.774 310.371C121.522 309.255 124.458 308.674 127.424 308.659C133.11 308.599 139.176 310.721 142.44 315.666C146.124 321.222 145.043 328.43 141.689 333.866C133.19 347.641 114.38 346.76 100.324 347.02C95.4987 347.046 90.6848 347.498 85.9388 348.372C85.7887 348.742 85.6585 349.103 85.5384 349.473C90.9406 348.481 96.4236 347.995 101.916 348.021C115.601 347.861 132.98 348.081 141.789 335.478H141.749ZM145.183 300.66C157.409 302.052 169.742 299.185 180.1 292.541C182.863 290.787 185.454 288.776 187.839 286.535C187.729 286.185 187.619 285.844 187.488 285.534C184.99 287.94 182.245 290.078 179.3 291.911C168.574 298.666 155.757 301.288 143.241 299.289C132.92 297.527 123.66 291.18 113.639 288.377C113.438 288.687 113.258 288.998 113.058 289.308C117.402 290.657 121.638 292.33 125.732 294.313C132.049 297.176 138.325 299.799 145.223 300.66H145.183ZM133.66 394.902C137.823 390.746 140.316 385.207 140.668 379.335C140.968 373.959 139.256 368.323 134.982 364.769C130.076 360.765 123.409 360.585 117.603 362.467C110.906 364.639 105.71 369.274 101.165 374.48C96.2199 380.176 91.8852 386.663 85.8688 391.318C81.7743 394.481 76.6188 397.074 71.3431 397.415C71.263 397.725 71.1929 398.035 71.1128 398.346C73.8238 398.2 76.4891 397.587 78.9913 396.534C85.5985 393.751 90.6039 388.775 95.1287 383.36C99.8939 377.683 104.339 371.347 110.555 367.062C115.981 363.348 123.219 360.925 129.726 362.988C135.793 364.9 139.296 370.516 139.737 376.672C139.917 379.72 139.478 382.773 138.446 385.646C137.413 388.52 135.809 391.154 133.73 393.39C128.895 398.656 122.358 401.93 115.711 404.402C108.018 407.152 100.165 409.432 92.1956 411.23C83.7164 413.232 73.5154 414.934 66.4077 420.349C66.3076 420.88 66.1975 421.35 66.1074 421.891C73.2251 415.935 84.1269 414.163 92.9364 412.09C100.88 410.305 108.703 408.025 116.362 405.263C122.668 402.871 128.905 399.757 133.7 394.902H133.66ZM123.65 420.6C116.812 420.139 110.986 424.414 107.122 429.679C103.117 435.145 100.735 441.572 97.0308 447.208H98.152C99.6636 444.836 100.965 442.313 102.226 439.88C105.51 433.524 109.114 426.396 115.861 423.102C119.043 421.464 122.716 421.051 126.182 421.941C127.732 422.447 129.153 423.284 130.348 424.394C131.542 425.504 132.481 426.86 133.1 428.368C135.703 434.264 134.721 440.842 135.102 447.078H136.103C135.803 441.983 136.333 436.827 135.222 431.782C133.951 425.955 130.046 421.02 123.73 420.6H123.65ZM194.116 442.964C191.793 436.647 191.763 429.78 192.113 423.152C192.894 406.514 196.168 389.726 193.555 373.098C191.553 360.365 186.087 347.451 175.305 339.752C169.819 335.848 162.291 333.336 156.065 337.039C150.779 340.163 148.006 346.49 147.936 352.456C147.846 360.184 151.45 367.422 155.234 373.949C159.018 380.476 163.242 386.523 167.046 392.97C170.85 399.417 174.054 406.054 175.445 413.332C176.728 420.091 176.506 427.05 174.795 433.714C173.619 438.397 171.75 442.878 169.249 447.008H170.38C170.89 446.147 171.381 445.266 171.832 444.385C174.873 438.452 176.662 431.956 177.09 425.302C177.517 418.648 176.572 411.977 174.314 405.704C169.209 391.688 158.938 380.366 152.601 366.932C149.357 360.064 147.265 351.916 150.659 344.668C151.983 341.667 154.245 339.176 157.106 337.57C158.803 336.753 160.648 336.287 162.53 336.199C164.411 336.112 166.291 336.404 168.057 337.06C174.745 339.252 180.321 344.648 184.165 350.394C187.821 356.065 190.394 362.365 191.753 368.974C195.317 385.121 192.504 401.719 191.353 417.967C190.852 424.974 190.422 432.152 191.923 439.08C192.482 441.837 193.472 444.489 194.856 446.938H196.118C195.306 445.691 194.634 444.358 194.116 442.964ZM177.297 323.205C180.541 329.792 187.118 333.376 193.645 336.048C196.068 337.05 198.51 337.96 200.903 338.982C200.843 338.641 200.773 338.311 200.713 337.981C196.919 336.369 193.054 334.977 189.35 333.075C183.054 329.912 176.537 324.206 176.627 316.537C176.707 309.53 183.194 304.524 189.641 303.223C190.666 303.027 191.702 302.9 192.744 302.843C192.664 302.572 192.584 302.282 192.514 302.002C188.125 302.173 183.918 303.804 180.561 306.637C178.214 308.615 176.611 311.335 176.018 314.347C175.424 317.359 175.876 320.484 177.297 323.205Z" fill="white"/>
<path d="M126.523 302.702C126.523 340.813 138.626 420.95 160.56 438.409C189.351 461.323 249.386 465.568 268.397 466.028C276.686 466.229 281.28 411.229 274.823 405.153C268.367 399.076 199.252 386.573 193.275 383.71C187.299 380.847 167.938 324.936 152.461 296.796C132.94 261.298 126.523 270.678 126.523 302.702Z" fill="#D3766A"/>
<path d="M300.719 416.094C297.095 413.922 298.206 412.01 305.664 411.089C313.123 410.168 343.425 412.711 343.425 402.079C343.425 391.448 300.619 388.415 288.366 390.947C276.113 393.48 257.082 401.869 257.082 401.869C265.251 404.091 284.662 411.459 300.719 416.094Z" fill="#D3766A"/>
<path d="M247.172 463.776C270.547 469.292 299.298 477.571 325.176 469.552C328.072 468.738 330.61 466.975 332.384 464.547C344.046 461.153 345.948 454.636 345.948 454.636C355.849 448.149 356.88 441.211 356.88 441.211C356.88 441.211 370.525 437.087 369.404 428.418C368.172 418.697 349.242 426.415 336.248 424.263C306.466 419.378 265.512 404.101 257.063 401.839L247.172 463.776Z" fill="#D3766A"/>
<path d="M301.42 441.071C310.21 442.332 318.819 443.804 327.739 443.864C337.519 443.934 346.94 442.362 356.58 441.011C356.635 441.01 356.69 441.028 356.733 441.063C356.777 441.097 356.807 441.146 356.819 441.2C356.831 441.254 356.823 441.311 356.798 441.36C356.773 441.41 356.731 441.449 356.68 441.471C339.662 446.687 318.469 446.377 301.36 441.471C300.94 441.351 300.98 441.001 301.42 441.071Z" fill="#263238"/>
<path d="M295.866 458.611C304.485 459.361 319.652 460.613 345.87 454.336C345.95 454.336 346.02 454.456 345.93 454.496C329.442 460.823 313.075 462.004 295.876 459.021C295.295 458.931 295.285 458.56 295.866 458.611Z" fill="#263238"/>
<path d="M293.053 468.09C307.759 468.821 317.129 467.409 332.295 464.486C332.385 464.486 332.435 464.606 332.345 464.637C315.457 469.782 308.74 469.732 292.953 468.641C292.412 468.561 292.472 468.07 293.053 468.09Z" fill="#263238"/>
<path d="M174.664 339.992L126.342 374.599C126.342 374.599 120.956 313.984 123.339 288.416C125.861 261.778 134.741 257.173 150.898 288.707C167.206 320.441 174.664 339.992 174.664 339.992Z" fill="#383838"/>
<path d="M137.123 366.891L136.272 367.492C134.592 365.367 132.31 363.798 129.725 362.987C128.308 362.543 126.836 362.293 125.351 362.246L125.291 361.325C128.834 361.352 132.267 362.565 135.041 364.769C135.809 365.4 136.507 366.111 137.123 366.891ZM135.241 278.116C137.424 276.634 139.526 275.012 141.598 273.36C141.458 273.15 141.288 272.96 141.138 272.76C138.5 275.013 135.677 277.039 132.699 278.816C130.223 280.315 127.299 280.893 124.44 280.448C124.44 280.678 124.35 280.919 124.309 281.159C124.805 281.264 125.306 281.334 125.811 281.369C129.245 281.559 132.448 279.998 135.241 278.116ZM132.959 308.388C129.61 307.598 126.129 307.547 122.758 308.238C122.758 308.568 122.758 308.889 122.758 309.239C124.288 308.913 125.848 308.745 127.413 308.739C133.099 308.679 139.166 310.801 142.429 315.746C146.113 321.302 145.032 328.51 141.678 333.946C137.674 340.483 131.277 343.716 124.209 345.348L124.269 346.349C131.207 344.767 137.514 341.674 141.798 335.548C145.232 330.632 146.904 324.035 144.802 318.269C142.809 313.043 138.194 309.65 132.959 308.388ZM156.484 299.719C152.071 300.18 147.615 300.039 143.24 299.298C136.232 298.097 129.705 294.784 123.098 291.91L123.038 293.122L125.731 294.333C132.008 297.176 138.325 299.799 145.222 300.66C149.124 301.132 153.068 301.149 156.975 300.71L156.484 299.719ZM174.323 339.101C168.958 335.588 161.94 333.565 156.074 337.099C150.788 340.223 148.015 346.549 147.945 352.516C147.93 354.59 148.156 356.66 148.616 358.682L149.517 358.052C148.416 353.592 148.821 348.893 150.668 344.687C151.992 341.686 154.254 339.196 157.115 337.59C158.812 336.773 160.657 336.307 162.539 336.219C164.421 336.131 166.301 336.424 168.067 337.079C170.306 337.826 172.427 338.892 174.364 340.243L174.664 340.032C174.664 340.032 174.554 339.692 174.323 339.101Z" fill="white"/>
<path d="M165.454 334.006C164.212 334.697 163.051 335.568 161.88 336.369L158.256 338.831C155.803 340.493 153.391 342.195 150.978 343.917C146.153 347.341 141.328 350.754 136.563 354.258C135.251 355.259 133.95 356.19 132.668 357.191C131.387 358.192 130.046 359.394 128.664 360.435C128.574 360.495 128.664 360.615 128.764 360.555C129.985 359.744 131.277 359.033 132.498 358.222C133.719 357.411 135.001 356.551 136.232 355.69C138.655 353.994 141.067 352.283 143.47 350.554C148.185 347.14 152.92 343.747 157.565 340.243L161.449 337.24C162.811 336.239 164.252 335.238 165.454 334.096C165.604 334.086 165.534 333.966 165.454 334.006Z" fill="#263238"/>
<path d="M160.489 302.292C160.489 302.171 160.268 302.232 160.288 302.352C160.638 304.635 161.163 306.887 161.86 309.089C161.4 308.138 160.959 307.177 160.489 306.226C158.977 303.163 157.415 300.119 155.914 297.056C155.9 297.036 155.881 297.022 155.858 297.016C155.836 297.009 155.811 297.011 155.79 297.02C155.768 297.03 155.751 297.047 155.741 297.068C155.73 297.089 155.728 297.113 155.733 297.136C157.986 302.652 160.018 308.278 162.441 313.734C164.863 319.19 167.276 324.636 169.779 330.052C171.16 333.055 173.092 336.619 174.484 339.602C173.232 340.803 171.39 342.014 170.019 343.286C169.899 343.396 170.089 343.576 170.229 343.486C171.821 342.355 173.943 341.294 175.505 339.942C175.705 339.772 167.176 320.271 162.831 311.131C162.13 308.118 161.37 305.155 160.489 302.292Z" fill="#263238"/>
<path d="M133.849 369.684C132.474 370.29 131.137 370.979 129.845 371.746C128.774 372.377 127.773 373.098 126.752 373.749C126.752 372.027 126.542 370.295 126.431 368.583C126.291 366.541 126.154 364.499 126.021 362.456C125.751 358.372 125.47 354.288 125.22 350.203C124.97 346.119 124.68 342.034 124.439 337.94C124.199 333.846 124.019 329.761 123.688 325.677C123.318 321.082 122.978 316.477 122.627 311.882C122.627 311.839 122.61 311.799 122.58 311.769C122.55 311.739 122.51 311.722 122.467 311.722C122.425 311.722 122.384 311.739 122.354 311.769C122.324 311.799 122.307 311.839 122.307 311.882C122.254 316.126 122.254 320.371 122.307 324.616C121.686 322.183 120.865 319.79 120.365 317.328C120.358 317.288 120.336 317.252 120.303 317.229C120.27 317.205 120.23 317.196 120.19 317.203C120.15 317.209 120.114 317.231 120.091 317.264C120.067 317.297 120.058 317.338 120.065 317.378C120.275 320.551 120.745 323.945 122.357 326.738C122.437 330.051 122.537 333.375 122.707 336.699C123.118 344.877 123.618 353.046 124.319 361.215C124.519 363.508 124.72 365.8 124.94 368.102C125.16 370.405 125.28 372.647 125.711 374.86C125.737 374.946 125.786 375.024 125.852 375.086C125.917 375.148 125.998 375.192 126.086 375.213C126.174 375.234 126.266 375.232 126.353 375.207C126.44 375.182 126.519 375.135 126.582 375.07C127.719 374.065 128.923 373.139 130.185 372.297C131.387 371.436 132.618 370.615 133.859 369.814C134.05 369.804 133.95 369.644 133.849 369.684Z" fill="#263238"/>
<path d="M180.76 267.444C180.85 269.917 180.81 272.393 180.64 274.862C180.555 277.09 180.26 279.306 179.759 281.479C178.758 285.413 176.365 289.227 172.131 290.789C170.163 291.43 168.086 291.672 166.023 291.5C163.96 291.328 161.953 290.746 160.118 289.788C156.204 287.866 152.96 284.842 149.967 281.889C148.115 280.057 146.333 278.155 144.651 276.183C143.8 275.182 142.949 274.181 142.148 273.18C141.348 272.179 140.597 271.067 139.736 270.076C139.666 269.996 139.496 270.076 139.556 270.176C141.277 272.549 146.563 280.087 148.195 281.909C151.198 285.223 154.502 288.586 158.586 290.809C162.52 293.092 167.191 293.746 171.6 292.631C173.7 292.028 175.61 290.898 177.15 289.35C178.69 287.801 179.809 285.884 180.4 283.781C181.083 281.267 181.393 278.667 181.321 276.063C181.321 273.2 181.15 270.337 180.91 267.504C180.82 267.403 180.76 267.413 180.76 267.444Z" fill="#263238"/>
<path d="M167.727 284.172C158.186 285.113 144.231 268.876 139.506 256.612C139.186 255.772 146.654 224.868 147.515 218.571C147.675 217.29 185.646 233.437 185.646 233.437C185.646 233.437 180 246.071 178.638 257.023C178.478 257.964 176.937 283.271 167.727 284.172Z" fill="#D3766A"/>
<path d="M185.637 233.457C185.637 233.457 179.991 246.091 178.579 257.042C178.579 257.263 178.449 258.844 178.189 261.137C159.689 256.892 149.318 243.798 144.152 234.688C145.714 227.681 147.156 221.144 147.476 218.601C147.676 217.309 185.637 233.457 185.637 233.457Z" fill="#263238"/>
<path d="M184.185 157.195C186.478 156.915 199.101 172.131 200.343 180.09C201.584 188.049 201.064 204.336 198.761 204.957C196.459 205.577 182.413 157.415 184.185 157.195Z" fill="#263238"/>
<path d="M133.761 179.829C129.826 194.015 138.346 234.488 148.607 243.298C163.493 256.052 187.318 256.682 198.05 238.933C208.441 221.735 196.418 169.178 185.036 161.239C168.188 149.537 139.567 158.857 133.761 179.829Z" fill="#D3766A"/>
<path d="M168.379 195.116C167.295 195.69 166.182 196.208 165.045 196.668C163.754 197.259 162.792 197.859 161.341 197.619C160.937 197.508 160.58 197.266 160.329 196.931C160.077 196.596 159.943 196.186 159.949 195.767C160.08 193.975 161.471 192.864 162.953 192.093C164.459 191.268 166.219 191.036 167.888 191.442C168.273 191.543 168.619 191.755 168.882 192.053C169.145 192.351 169.314 192.721 169.367 193.115C169.419 193.509 169.354 193.909 169.178 194.266C169.002 194.622 168.723 194.918 168.379 195.116Z" fill="#263238"/>
<path d="M169.928 204.116C169.928 204.026 169.748 204.296 169.788 204.406C170.549 207.099 170.979 210.292 168.787 211.814C168.717 211.814 168.787 211.994 168.847 211.954C171.69 210.783 171.09 206.538 169.928 204.116Z" fill="#263238"/>
<path d="M166.806 201.903C162.371 202.664 164.223 211.474 168.338 210.773C172.452 210.072 170.52 201.263 166.806 201.903Z" fill="#263238"/>
<path d="M185.566 200.432C185.566 200.321 185.807 200.512 185.827 200.622C186.317 203.375 187.338 206.438 190.001 206.829C190.081 206.829 190.101 206.979 190.001 206.979C186.908 207.189 185.586 203.114 185.566 200.432Z" fill="#263238"/>
<path d="M187.408 197.067C191.723 195.806 193.925 204.546 189.921 205.707C185.916 206.868 183.784 198.119 187.408 197.067Z" fill="#263238"/>
<path d="M189.61 191.171C188.377 191.18 187.144 191.123 185.916 191.001C184.495 190.911 183.363 191.001 182.182 190.1C181.876 189.813 181.673 189.432 181.606 189.017C181.539 188.602 181.612 188.177 181.812 187.808C182.763 186.276 184.515 185.946 186.226 185.966C187.951 185.945 189.623 186.562 190.921 187.698C191.215 187.968 191.421 188.32 191.513 188.708C191.605 189.097 191.578 189.503 191.438 189.877C191.297 190.25 191.047 190.573 190.722 190.803C190.396 191.034 190.009 191.162 189.61 191.171Z" fill="#263238"/>
<path d="M172.962 229.212C173.743 229.713 174.584 230.454 175.595 230.324C176.603 230.09 177.551 229.646 178.378 229.022C178.395 229.01 178.417 229.003 178.438 229.004C178.46 229.005 178.481 229.012 178.498 229.026C178.515 229.039 178.527 229.058 178.532 229.079C178.538 229.1 178.536 229.122 178.528 229.142C178.248 229.76 177.808 230.291 177.254 230.68C176.699 231.069 176.05 231.302 175.374 231.355C174.784 231.319 174.218 231.11 173.746 230.754C173.274 230.398 172.918 229.91 172.722 229.353C172.641 229.282 172.842 229.212 172.962 229.212Z" fill="#263238"/>
<path d="M174.095 220.473C175.016 221.407 176.12 222.141 177.338 222.628C178.556 223.116 179.861 223.346 181.172 223.306C182.317 223.283 183.453 223.097 184.546 222.756C184.763 222.708 184.974 222.638 185.177 222.545L185.747 222.325C185.887 222.269 186.005 222.167 186.081 222.037C186.157 221.906 186.188 221.754 186.168 221.604C186.147 221.508 186.117 221.414 186.078 221.324L186.018 221.084C185.637 218.971 184.756 215.818 184.756 215.818C185.607 216.048 189.892 216.979 189.601 215.898C187.149 206.888 184.416 196.938 180.081 188.529C180.055 188.468 180.007 188.42 179.947 188.393C179.887 188.367 179.819 188.364 179.757 188.385C179.695 188.407 179.643 188.451 179.612 188.509C179.581 188.568 179.574 188.635 179.591 188.699C181.593 197.418 185.147 205.717 187.319 214.457C185.967 214.236 183.745 213.796 182.654 214.046C182.374 214.196 184.456 220.113 184.546 221.054C184.55 221.087 184.55 221.121 184.546 221.154C181.102 222.355 178.219 221.845 174.295 220.153C174.095 220.063 173.894 220.293 174.095 220.473Z" fill="#263238"/>
<path d="M183.104 221.945C182.269 223.691 180.997 225.191 179.41 226.3C178.519 226.88 177.469 227.167 176.407 227.121C174.105 227.011 173.634 225.019 173.674 223.227C173.699 222.269 173.84 221.317 174.095 220.394C176.854 221.863 180.012 222.407 183.104 221.945Z" fill="#263238"/>
<path d="M179.401 226.299C178.509 226.879 177.459 227.166 176.397 227.12C174.095 227.01 173.624 225.018 173.664 223.226C176.097 222.966 178.72 224.067 179.401 226.299Z" fill="#FF97B8"/>
<path d="M139.366 215.078C146.714 214.547 148.967 205.928 149.627 194.255C150.018 187.438 146.154 174.614 146.154 174.614C146.154 174.614 166.055 180.29 176.396 177.617C186.738 174.944 194.236 164.513 192.414 156.364C190.862 149.357 177.478 142.109 161.701 143.981C150.689 145.282 133.67 156.995 127.424 170.099C127.424 170.099 114.74 178.889 118.464 188.949C122.188 199.01 131.047 215.678 139.366 215.078Z" fill="#263238"/>
<path d="M139.746 214.196C149.607 214.677 152.33 199.501 151.359 191.982C150.358 184.174 146.083 176.796 143.51 169.428C143.51 169.428 143.51 169.368 143.57 169.428C148.286 178.107 153.651 189.189 152.08 199.32C151.079 205.697 148.256 216.439 139.716 214.767C139.426 214.647 139.436 214.196 139.746 214.196Z" fill="#263238"/>
<path d="M115.882 186.166C116.192 179.559 122.459 172.071 128.335 169.578C128.385 169.578 128.425 169.648 128.335 169.678C121.458 173.532 114.32 183.343 117.944 191.171C120.827 197.428 125.372 205.557 130.688 210.032C130.828 210.152 130.688 210.342 130.507 210.242C126.423 207.299 124.141 202.964 121.568 198.73C119.365 195.076 115.671 190.771 115.882 186.166Z" fill="#263238"/>
<path d="M126.203 171.33C132.81 157.565 149.157 140.497 165.675 141.718V141.798C148.386 141.959 135.483 158.817 126.853 171.761C126.593 172.151 126.042 171.721 126.203 171.33Z" fill="#263238"/>
<path d="M144.06 214.768C144.06 214.768 134.36 201.964 128.503 205.468C122.647 208.971 130.295 227.772 137.403 230.114C138.294 230.478 139.249 230.657 140.21 230.642C141.172 230.627 142.121 230.418 143 230.027C143.879 229.637 144.67 229.072 145.325 228.368C145.98 227.664 146.486 226.834 146.813 225.93L144.06 214.768Z" fill="#D3766A"/>
<path d="M130.817 210.803C130.707 210.803 130.697 210.953 130.817 210.993C135.822 212.795 138.575 217.25 140.557 221.905C139.036 220.143 137.004 219.222 134.631 221.054C134.501 221.154 134.631 221.344 134.771 221.314C135.624 221.003 136.552 220.965 137.428 221.206C138.303 221.446 139.082 221.953 139.656 222.656C140.611 223.835 141.437 225.114 142.119 226.47C142.359 226.9 143.12 226.64 142.96 226.139C142.96 226.139 142.96 226.059 142.96 226.029C142.78 219.762 137.574 211.193 130.817 210.803Z" fill="#263238"/>
<path d="M441.381 390.758C428.147 408.687 414.352 429.489 410.979 451.974C410.979 452.314 411.489 452.424 411.569 452.094C413.088 445.956 415.041 439.934 417.415 434.074C426.125 431.682 434.664 429.72 439.239 421.06C443.894 412.181 443.303 400.598 442.422 390.928C442.312 390.437 441.602 390.387 441.381 390.758Z" fill="#383838"/>
<path d="M417.505 433.924C423.452 420.57 431.08 407.175 440.79 396.204C440.85 396.123 440.951 396.204 440.89 396.304C434.544 404.122 429.708 412.631 424.993 421.331C429.378 416.886 434.183 412.902 438.338 408.176C438.418 408.086 438.548 408.177 438.468 408.317C434.343 413.262 429.839 418.638 424.453 422.332C423.011 425.001 421.556 427.671 420.088 430.34C420.448 430.14 420.819 429.96 421.189 429.77C421.259 429.77 421.309 429.84 421.249 429.87C420.839 430.08 420.428 430.3 420.008 430.471C419.317 431.732 418.626 433.003 417.906 434.255C417.765 434.435 417.355 434.205 417.505 433.924Z" fill="#263238"/>
<path d="M421.929 429.259C425.487 427.268 428.884 425.002 432.09 422.482C432.17 422.412 432.3 422.532 432.21 422.602C429.107 425.287 425.704 427.605 422.069 429.51C422.036 429.528 421.997 429.533 421.96 429.523C421.923 429.512 421.892 429.488 421.874 429.455C421.855 429.421 421.851 429.382 421.861 429.346C421.871 429.309 421.896 429.278 421.929 429.259Z" fill="#263238"/>
<path d="M409.397 448.64C409.408 448.697 409.439 448.747 409.484 448.784C409.528 448.82 409.584 448.84 409.642 448.84C409.7 448.84 409.756 448.82 409.8 448.784C409.845 448.747 409.876 448.697 409.887 448.64C409.957 441.242 409.887 433.804 409.997 426.366C411.899 422.532 416.004 420.42 418.797 417.356C420.836 415.119 422.61 412.653 424.083 410.008C427.493 403.685 429.577 396.733 430.209 389.576C430.99 381.658 427.987 355.539 424.643 356.43C422.911 356.901 417.315 369.845 415.824 374.13C413.416 381.187 411.654 388.447 410.558 395.823C407.855 413.212 408.075 431.101 409.397 448.64Z" fill="#383838"/>
<path d="M409.346 416.695C409.756 407.325 411.868 397.865 413.841 388.775C415.973 378.984 418.456 369.754 423.491 361.035C423.515 361.011 423.546 360.996 423.579 360.991C423.612 360.987 423.646 360.994 423.675 361.012C423.704 361.029 423.726 361.055 423.738 361.087C423.75 361.118 423.751 361.153 423.741 361.185C420.383 367.976 417.785 375.117 415.993 382.478C416.323 381.948 416.734 381.477 417.084 380.946C417.224 380.756 417.555 380.946 417.414 381.137C416.967 381.929 416.44 382.673 415.843 383.359C415.82 383.367 415.795 383.367 415.773 383.359C414.041 390.367 412.769 397.514 411.768 404.652L412.009 404.382C412.021 404.372 412.036 404.366 412.051 404.365C412.067 404.365 412.082 404.369 412.095 404.379C412.108 404.388 412.117 404.401 412.121 404.416C412.126 404.431 412.125 404.447 412.119 404.462C411.989 404.702 411.838 404.932 411.688 405.173C411.158 408.796 410.687 412.41 410.157 415.994C416.614 410.478 422.12 403.981 425.233 395.973C425.233 395.973 425.303 395.973 425.293 395.973C422.24 404.282 417.444 411.66 410.056 416.705C409.916 417.706 409.786 418.637 409.646 419.598C409.646 419.798 409.306 419.738 409.306 419.548C409.306 418.697 409.306 417.836 409.376 416.985C409.354 416.969 409.336 416.948 409.323 416.924C409.309 416.9 409.301 416.874 409.298 416.847C409.295 416.819 409.298 416.792 409.306 416.766C409.314 416.74 409.328 416.716 409.346 416.695Z" fill="#263238"/>
<path d="M412.35 403.121C417.275 395.763 421.88 388.615 425.494 380.476C425.494 380.386 425.684 380.476 425.654 380.546C422.651 388.625 418.356 396.814 412.59 403.311C412.52 403.401 412.29 403.271 412.35 403.121Z" fill="#263238"/>
<path d="M418.936 378.664C420.938 375.05 423.131 371.526 425.053 367.843C425.113 367.742 425.253 367.842 425.213 367.933C423.615 371.778 421.601 375.437 419.206 378.844C419.116 379.035 418.816 378.874 418.936 378.664Z" fill="#263238"/>
<path d="M404.392 427.217C404.288 432.127 403.708 437.015 402.66 441.813C402.74 442.333 402.81 442.864 402.89 443.405C404.398 438.108 405.272 432.65 405.493 427.147C405.538 427.071 405.562 426.985 405.562 426.897C405.562 426.809 405.538 426.722 405.493 426.647C405.706 419.268 405.156 411.888 403.851 404.623C401.559 391.018 396.553 377.954 387.063 367.763C386.986 367.703 386.897 367.661 386.802 367.639C386.708 367.617 386.609 367.616 386.514 367.636C386.419 367.656 386.329 367.697 386.251 367.755C386.173 367.813 386.108 367.888 386.062 367.973C382.238 377.714 383.569 389.336 386.833 399.007C388.593 404.271 391.119 409.246 394.331 413.773C397.595 418.348 401.749 422.222 404.392 427.217Z" fill="#383838"/>
<path d="M388.213 372.288C397.223 386.884 403.47 404.192 404.231 421.431C404.231 421.741 403.73 421.821 403.69 421.511C403.47 419.959 403.24 418.418 402.989 416.896C399.265 413.332 395.441 409.578 392.778 405.123C392.728 405.043 392.848 404.953 392.908 405.023C395.995 408.81 399.305 412.411 402.819 415.805C402.178 412.001 401.418 408.247 400.507 404.553L399.796 403.712C399.646 403.532 399.906 403.261 400.066 403.442L400.276 403.682C399.013 398.616 397.445 393.632 395.581 388.756C393.289 386.023 390.726 383.66 389.064 380.377C389.064 380.297 389.124 380.237 389.184 380.307C390.526 382.189 391.817 384.081 393.339 385.823C393.95 386.523 394.61 387.174 395.241 387.825C393.165 382.535 390.703 377.406 387.873 372.478C387.861 372.435 387.863 372.388 387.88 372.347C387.898 372.305 387.928 372.27 387.968 372.248C388.007 372.226 388.053 372.218 388.098 372.225C388.142 372.232 388.183 372.255 388.213 372.288Z" fill="#263238"/>
<path d="M390.036 390.297C392.939 394.201 396.253 397.935 398.955 401.979C399.036 402.099 398.865 402.22 398.765 402.13C395.332 398.866 392.328 394.391 389.836 390.387C389.756 390.277 389.946 390.177 390.036 390.297Z" fill="#263238"/>
<path d="M399.336 402.89L399.456 403.01C399.546 403.1 399.456 403.231 399.326 403.141L399.195 403.02C399.186 403.001 399.183 402.979 399.187 402.958C399.191 402.937 399.202 402.918 399.218 402.904C399.233 402.889 399.253 402.88 399.274 402.878C399.296 402.875 399.317 402.88 399.336 402.89Z" fill="#263238"/>
<path d="M374.118 400.398C374.849 407.906 378.793 416.876 383.608 422.662C385.727 425.18 388.349 427.226 391.307 428.668C394.64 430.32 398.134 432.222 401.578 433.574C403.218 437.747 404.439 442.073 405.222 446.488C405.332 446.117 405.442 445.727 405.552 445.346C403.34 426.326 391.036 410.078 375.299 399.647C375.176 399.567 375.032 399.525 374.884 399.524C374.737 399.524 374.593 399.566 374.469 399.645C374.344 399.724 374.245 399.837 374.183 399.97C374.121 400.104 374.099 400.252 374.118 400.398Z" fill="#383838"/>
<path d="M379.564 405.963C379.454 405.863 379.564 405.663 379.724 405.753C388.357 412.191 395.24 420.689 399.746 430.47C399.856 430.73 399.505 430.96 399.355 430.7C398.625 429.419 397.874 428.167 397.113 426.946C393.519 426.275 390.105 423.743 387.452 421.34C387.382 421.28 387.452 421.17 387.563 421.24C388.947 422.486 390.48 423.555 392.128 424.423C393.589 425.164 395.131 425.635 396.692 426.225C395.361 424.113 393.97 422.091 392.528 420.119C388.645 418.647 385.004 416.603 381.726 414.052C381.626 413.982 381.726 413.812 381.826 413.882C385.068 415.844 388.409 417.635 391.837 419.248C389.645 416.353 387.278 413.595 384.75 410.989C383.528 410.338 382.287 409.687 381.106 408.987C381.016 408.927 381.106 408.766 381.186 408.796C382.166 409.145 383.103 409.606 383.979 410.168C382.587 408.766 381.126 407.345 379.564 405.963Z" fill="#263238"/>
<path d="M379.894 412.531C380.106 412.657 380.307 412.801 380.495 412.962C380.555 413.012 380.495 413.092 380.425 413.062C380.204 412.961 379.993 412.841 379.794 412.701C379.684 412.631 379.784 412.461 379.894 412.531Z" fill="#263238"/>
<path d="M430.109 487.622H386.992L390.466 448.34L391.237 439.681H425.864L426.635 448.34L430.109 487.622Z" fill="#455A64"/>
<path d="M426.636 448.34H390.467L391.238 439.681H425.865L426.636 448.34Z" fill="#263238"/>
<path d="M427.936 433.624H389.174V442.193H427.936V433.624Z" fill="#455A64"/>
<path d="M341.635 119.394C341.224 116.23 340.997 113.045 340.955 109.854C340.875 106.667 340.985 103.478 341.285 100.304C341.698 103.468 341.922 106.653 341.956 109.844C342.034 113.031 341.927 116.22 341.635 119.394Z" fill="#A6A6A6"/>
<path d="M298.059 131.548C296.119 129.016 294.331 126.372 292.704 123.629C291.046 120.909 289.548 118.095 288.219 115.2C290.158 117.723 291.943 120.361 293.565 123.099C295.23 125.823 296.731 128.644 298.059 131.548Z" fill="#A6A6A6"/>
<path d="M266.403 163.862C263.457 162.641 260.586 161.247 257.804 159.688C255.002 158.163 252.294 156.472 249.695 154.622C252.641 155.849 255.512 157.246 258.295 158.807C261.095 160.331 263.802 162.019 266.403 163.862Z" fill="#A6A6A6"/>
<path d="M255.182 207.68C252.021 208.091 248.839 208.318 245.652 208.36C242.465 208.44 239.276 208.33 236.102 208.03C242.432 207.253 248.827 207.135 255.182 207.68Z" fill="#A6A6A6"/>
<path d="M267.305 251.236C264.772 253.171 262.128 254.956 259.386 256.582C256.667 258.249 253.848 259.75 250.947 261.077C253.478 259.139 256.122 257.354 258.866 255.731C261.586 254.064 264.404 252.563 267.305 251.236Z" fill="#A6A6A6"/>
<path d="M418.658 249.695C424.543 252.173 430.148 255.27 435.376 258.935C429.503 256.441 423.903 253.344 418.668 249.695H418.658Z" fill="#A6A6A6"/>
<path d="M429.92 205.877C433.081 205.465 436.263 205.241 439.45 205.207C442.637 205.118 445.827 205.225 449.001 205.527C445.84 205.94 442.658 206.164 439.47 206.198C436.283 206.286 433.094 206.179 429.92 205.877Z" fill="#A6A6A6"/>
<path d="M417.768 162.301C420.296 160.364 422.937 158.579 425.676 156.955C428.396 155.288 431.214 153.787 434.115 152.46C431.586 154.4 428.942 156.185 426.197 157.806C423.479 159.471 420.664 160.972 417.768 162.301Z" fill="#A6A6A6"/>
<path d="M385.443 130.646C386.674 127.719 388.071 124.864 389.628 122.097C391.15 119.296 392.838 116.588 394.683 113.988C393.462 116.931 392.068 119.799 390.509 122.578C388.98 125.364 387.288 128.058 385.443 130.646Z" fill="#A6A6A6"/>
<path d="M255.322 148.596L263.681 147.044L265.553 138.234L267.425 147.044L275.784 148.596L267.455 150.638L265.553 158.957L263.651 150.638L255.322 148.596Z" fill="#383838"/>
<path d="M390.068 295.154L398.427 293.612L400.299 284.793L402.161 293.612L410.53 295.164L402.201 297.196L400.299 305.525L398.397 297.196L390.068 295.154Z" fill="#383838"/>
<path d="M279.299 276.664L283.974 275.803L285.015 270.878L286.066 275.803L290.741 276.664L286.086 277.805L285.015 282.46L283.954 277.805L279.299 276.664Z" fill="#383838"/>
<path d="M304.736 125.831L309.401 124.96L310.452 120.035L311.494 124.96L316.169 125.831L311.514 126.963L310.452 131.618L309.381 126.963L304.736 125.831Z" fill="#383838"/>
<path d="M285.014 299.699C285.354 299.67 285.67 299.514 285.901 299.263C286.131 299.012 286.259 298.684 286.259 298.343C286.259 298.002 286.131 297.673 285.901 297.422C285.67 297.171 285.354 297.016 285.014 296.986C284.675 297.016 284.358 297.171 284.128 297.422C283.897 297.673 283.77 298.002 283.77 298.343C283.77 298.684 283.897 299.012 284.128 299.263C284.358 299.514 284.675 299.67 285.014 299.699Z" fill="#383838"/>
<path d="M416.887 282.46C417.095 282.4 417.277 282.273 417.407 282.1C417.537 281.926 417.608 281.716 417.608 281.499C417.608 281.283 417.537 281.072 417.407 280.898C417.277 280.725 417.095 280.599 416.887 280.538C416.679 280.599 416.496 280.725 416.366 280.898C416.236 281.072 416.166 281.283 416.166 281.499C416.166 281.716 416.236 281.926 416.366 282.1C416.496 282.273 416.679 282.4 416.887 282.46Z" fill="#383838"/>
<path d="M279.939 157.315C280.143 157.252 280.321 157.125 280.448 156.953C280.574 156.781 280.643 156.573 280.643 156.359C280.643 156.146 280.574 155.938 280.448 155.766C280.321 155.594 280.143 155.467 279.939 155.403C279.735 155.467 279.556 155.594 279.429 155.766C279.303 155.938 279.234 156.146 279.234 156.359C279.234 156.573 279.303 156.781 279.429 156.953C279.556 157.125 279.735 157.252 279.939 157.315Z" fill="#383838"/>
<path d="M436.307 171.891C436.515 171.83 436.697 171.704 436.827 171.53C436.957 171.357 437.027 171.146 437.027 170.93C437.027 170.713 436.957 170.502 436.827 170.329C436.697 170.156 436.515 170.029 436.307 169.969C436.099 170.029 435.916 170.156 435.786 170.329C435.656 170.502 435.586 170.713 435.586 170.93C435.586 171.146 435.656 171.357 435.786 171.53C435.916 171.704 436.099 171.83 436.307 171.891Z" fill="#383838"/>
<path d="M424.035 180.7C427.379 180.7 427.379 175.505 424.035 175.505C420.691 175.505 420.681 180.7 424.035 180.7Z" fill="#383838"/>
<g opacity="0.5">
<path d="M416.694 211.194C413.01 257.243 374.649 271.128 374.649 271.128C371.825 278.136 368.152 295.945 368.152 295.945H316.916C316.916 295.945 313.242 278.136 310.419 271.128C310.419 271.128 272.048 257.243 268.374 211.194C265.821 179.159 288.606 131.878 342.254 131.868H342.804C396.452 131.918 419.247 179.229 416.694 211.194Z" fill="#383838"/>
</g>
<g opacity="0.7">
<path d="M410.349 211.464C406.995 253.59 371.898 266.253 371.898 266.253C369.315 272.66 365.961 295.956 365.961 295.956H319.111C319.111 295.956 315.747 272.66 313.164 266.253C313.164 266.253 278.066 253.56 274.703 211.434C272.37 182.163 293.223 138.926 342.276 138.916H342.786C391.849 138.926 412.702 182.163 410.349 211.464Z" fill="#F5FEFD"/>
</g>
<path d="M316.507 219.389L313.555 219.94L328.618 300.584L331.57 300.033L316.507 219.389Z" fill="white"/>
<path d="M368.538 219.393L353.531 300.047L356.484 300.596L371.49 219.942L368.538 219.393Z" fill="white"/>
<path d="M342.535 246.352C337.95 246.352 333.746 242.067 330.793 236.591C330.287 237.289 329.638 237.871 328.888 238.296C328.139 238.721 327.306 238.979 326.448 239.054C318.97 239.054 315.947 223.517 315.816 222.857L316.817 222.676C316.817 222.827 319.821 238.053 326.458 238.053C327.779 238.053 329.111 237.132 330.322 235.65C328.022 231.194 326.731 226.286 326.538 221.275C326.538 216.98 328.13 214.518 330.923 214.518C334.176 214.518 336.038 217.14 336.038 221.705C335.877 226.711 334.305 231.569 331.503 235.72C334.296 241.086 338.281 245.361 342.515 245.361C345.719 245.361 348.922 242.858 351.525 238.353C351.755 237.943 351.985 237.522 352.206 237.092C349.202 233.868 347.531 228.583 347.531 223.547C347.531 218.011 349.593 214.538 352.906 214.538C353.544 214.537 354.169 214.713 354.712 215.047C355.255 215.381 355.694 215.86 355.98 216.43C358.222 220.304 356.981 229.614 353.407 236.902C354.8 238.307 356.694 239.102 358.673 239.114C364.379 239.114 368.683 223.798 368.744 223.647L369.745 223.918C369.554 224.578 365.17 240.115 358.733 240.115C356.601 240.095 354.558 239.265 353.017 237.793L352.446 238.794C350.444 242.227 347.12 246.352 342.535 246.352ZM352.956 215.519C349.723 215.519 348.582 219.813 348.582 223.527C348.582 227.532 349.923 232.877 352.716 236.131C355.97 229.233 357.191 220.444 355.169 216.94C354.975 216.516 354.664 216.157 354.271 215.905C353.879 215.653 353.423 215.519 352.956 215.519ZM330.933 215.519C327.99 215.519 327.549 219.123 327.549 221.275C327.744 225.955 328.928 230.54 331.023 234.729C333.519 230.838 334.904 226.337 335.027 221.715C335.027 219.393 334.487 215.519 330.913 215.519H330.933Z" fill="white"/>
<path d="M374.62 296.045H310.451V331.363H374.62V296.045Z" fill="#455A64"/>
<path d="M367.301 331.323C363.527 338.02 356.289 344.007 342.495 344.007C328.7 344.007 321.472 338 317.678 331.323H367.301Z" fill="#455A64"/>
<path d="M367.301 331.323C366.18 333.325 364.777 335.155 363.137 336.759L318.969 333.365C318.505 332.721 318.074 332.052 317.678 331.363L367.301 331.323Z" fill="#37474F"/>
<path d="M376.492 302.783L308.568 309.059V305.976L376.492 299.699V302.783Z" fill="#37474F"/>
<path d="M376.492 312.103L308.568 318.38V315.306L376.492 309.02V312.103Z" fill="#37474F"/>
<path d="M376.492 321.422L308.568 327.699V324.626L376.492 318.339V321.422Z" fill="#37474F"/>
<g opacity="0.5">
<path d="M284.531 200.472C286.884 200.863 289.937 188.72 302.991 174.664C308.787 168.428 330.791 160.649 329.21 153.411C327.628 146.174 307.997 153.612 298.116 165.054C282.209 183.464 282.369 200.102 284.531 200.472Z" fill="white"/>
<path d="M400.336 202.995C404.661 202.995 404.671 196.268 400.336 196.268C396.002 196.268 395.962 202.995 400.336 202.995Z" fill="white"/>
<path d="M379.124 253.569C381.486 255.381 392.969 244.78 398.144 232.136C402.449 221.645 403.15 208.381 400.296 207.61C397.443 206.839 395.531 225.038 392.058 231.746C387.673 240.225 376.591 251.647 379.124 253.569Z" fill="white"/>
</g>
</svg>
