<svg width="165" height="80" viewBox="0 0 165 80" fill="none" xmlns="http://www.w3.org/2000/svg">
<path d="M33.3333 41.6668C33.3333 40.6668 32.6667 40.0001 31.6667 40.0001H11.6667C10.6667 40.0001 10 40.6668 10 41.6668V58.3335C10 59.3335 10.6667 60.0001 11.6667 60.3335L31.6667 62.6668C32.6667 62.6668 33.3333 62.0001 33.3333 61.3335V41.6668ZM38.3333 40.0001C37.3333 40.0001 36.6667 40.6668 36.6667 41.6668V61.3335C36.6667 62.3335 37.3333 63.0001 38.3333 63.3335L68.3333 66.6668C69.3333 66.6668 70 66.0001 70 65.3335V42.0001C70 41.0001 69.3333 40.3335 68.3333 40.3335L38.3333 40.0001ZM33.3333 15.6668C33.3333 14.6668 32.6667 14.0001 31.6667 14.3335L11.6667 16.6668C10.6667 16.6668 10 17.3335 10 18.3335V35.0001C10 36.0001 10.6667 36.6668 11.6667 36.6668H31.6667C32.6667 36.6668 33.3333 36.0001 33.3333 35.0001V15.6668ZM38.3333 13.6668C37.3333 13.6668 36.6667 14.6668 36.6667 15.6668V35.3335C36.6667 36.3335 37.3333 37.0001 38.3333 37.0001H68.3333C69.3333 37.0001 70 36.3335 70 35.3335V12.0001C70 11.0001 69.3333 10.3335 68.3333 10.6668L38.3333 13.6668Z" fill="#AEAEAE"/>
<path d="M99.5227 46L96.3409 34.3636H97.7727L100.205 43.8409H100.318L102.795 34.3636H104.386L106.864 43.8409H106.977L109.409 34.3636H110.841L107.659 46H106.205L103.636 36.7273H103.545L100.977 46H99.5227ZM112.415 46V37.2727H113.756V46H112.415ZM113.097 35.8182C112.835 35.8182 112.61 35.7292 112.42 35.5511C112.235 35.3731 112.142 35.1591 112.142 34.9091C112.142 34.6591 112.235 34.4451 112.42 34.267C112.61 34.089 112.835 34 113.097 34C113.358 34 113.581 34.089 113.767 34.267C113.956 34.4451 114.051 34.6591 114.051 34.9091C114.051 35.1591 113.956 35.3731 113.767 35.5511C113.581 35.7292 113.358 35.8182 113.097 35.8182ZM117.553 40.75V46H116.212V37.2727H117.507V38.6364H117.621C117.825 38.1932 118.136 37.8371 118.553 37.5682C118.969 37.2955 119.507 37.1591 120.166 37.1591C120.757 37.1591 121.274 37.2803 121.717 37.5227C122.161 37.7614 122.505 38.125 122.751 38.6136C122.998 39.0985 123.121 39.7121 123.121 40.4545V46H121.78V40.5455C121.78 39.8598 121.602 39.3258 121.246 38.9432C120.89 38.5568 120.401 38.3636 119.78 38.3636C119.352 38.3636 118.969 38.4564 118.632 38.642C118.299 38.8277 118.036 39.0985 117.842 39.4545C117.649 39.8106 117.553 40.2424 117.553 40.75ZM128.866 46.1818C128.139 46.1818 127.497 45.9981 126.94 45.6307C126.384 45.2595 125.948 44.7367 125.634 44.0625C125.319 43.3845 125.162 42.5833 125.162 41.6591C125.162 40.7424 125.319 39.947 125.634 39.2727C125.948 38.5985 126.385 38.0777 126.946 37.7102C127.507 37.3428 128.154 37.1591 128.889 37.1591C129.457 37.1591 129.906 37.2538 130.236 37.4432C130.569 37.6288 130.823 37.8409 130.997 38.0795C131.175 38.3144 131.313 38.5076 131.412 38.6591H131.526V34.3636H132.866V46H131.571V44.6591H131.412C131.313 44.8182 131.173 45.0189 130.991 45.2614C130.81 45.5 130.55 45.714 130.213 45.9034C129.876 46.089 129.427 46.1818 128.866 46.1818ZM129.048 44.9773C129.586 44.9773 130.041 44.8371 130.412 44.5568C130.783 44.2727 131.065 43.8807 131.259 43.3807C131.452 42.8769 131.548 42.2955 131.548 41.6364C131.548 40.9848 131.454 40.4148 131.264 39.9261C131.075 39.4337 130.795 39.0511 130.423 38.7784C130.052 38.5019 129.594 38.3636 129.048 38.3636C128.48 38.3636 128.007 38.5095 127.628 38.8011C127.253 39.089 126.971 39.4811 126.781 39.9773C126.596 40.4697 126.503 41.0227 126.503 41.6364C126.503 42.2576 126.598 42.822 126.787 43.3295C126.98 43.8333 127.264 44.2348 127.639 44.5341C128.018 44.8295 128.488 44.9773 129.048 44.9773ZM139.054 46.1818C138.266 46.1818 137.575 45.9943 136.98 45.6193C136.389 45.2443 135.927 44.7197 135.594 44.0455C135.264 43.3712 135.099 42.5833 135.099 41.6818C135.099 40.7727 135.264 39.9792 135.594 39.3011C135.927 38.6231 136.389 38.0966 136.98 37.7216C137.575 37.3466 138.266 37.1591 139.054 37.1591C139.842 37.1591 140.531 37.3466 141.122 37.7216C141.717 38.0966 142.179 38.6231 142.509 39.3011C142.842 39.9792 143.009 40.7727 143.009 41.6818C143.009 42.5833 142.842 43.3712 142.509 44.0455C142.179 44.7197 141.717 45.2443 141.122 45.6193C140.531 45.9943 139.842 46.1818 139.054 46.1818ZM139.054 44.9773C139.652 44.9773 140.145 44.8239 140.531 44.517C140.918 44.2102 141.204 43.8068 141.389 43.3068C141.575 42.8068 141.668 42.2652 141.668 41.6818C141.668 41.0985 141.575 40.5549 141.389 40.0511C141.204 39.5473 140.918 39.1402 140.531 38.8295C140.145 38.5189 139.652 38.3636 139.054 38.3636C138.455 38.3636 137.963 38.5189 137.577 38.8295C137.19 39.1402 136.904 39.5473 136.719 40.0511C136.533 40.5549 136.44 41.0985 136.44 41.6818C136.44 42.2652 136.533 42.8068 136.719 43.3068C136.904 43.8068 137.19 44.2102 137.577 44.517C137.963 44.8239 138.455 44.9773 139.054 44.9773ZM146.736 46L144.077 37.2727H145.486L147.372 43.9545H147.463L149.327 37.2727H150.759L152.599 43.9318H152.69L154.577 37.2727H155.986L153.327 46H152.009L150.099 39.2955H149.963L148.054 46H146.736ZM163.94 39.2273L162.736 39.5682C162.66 39.3674 162.548 39.1723 162.401 38.983C162.257 38.7898 162.06 38.6307 161.81 38.5057C161.56 38.3807 161.24 38.3182 160.849 38.3182C160.315 38.3182 159.87 38.4413 159.514 38.6875C159.162 38.9299 158.986 39.2386 158.986 39.6136C158.986 39.947 159.107 40.2102 159.349 40.4034C159.592 40.5966 159.971 40.7576 160.486 40.8864L161.781 41.2045C162.562 41.3939 163.143 41.6837 163.526 42.0739C163.908 42.4602 164.099 42.9583 164.099 43.5682C164.099 44.0682 163.955 44.5152 163.668 44.9091C163.384 45.303 162.986 45.6136 162.474 45.8409C161.963 46.0682 161.368 46.1818 160.69 46.1818C159.8 46.1818 159.063 45.9886 158.48 45.6023C157.897 45.2159 157.527 44.6515 157.372 43.9091L158.645 43.5909C158.766 44.0606 158.995 44.4129 159.332 44.6477C159.673 44.8826 160.118 45 160.668 45C161.293 45 161.789 44.8674 162.156 44.6023C162.527 44.3333 162.713 44.0114 162.713 43.6364C162.713 43.3333 162.607 43.0795 162.395 42.875C162.183 42.6667 161.857 42.5114 161.418 42.4091L159.963 42.0682C159.164 41.8788 158.577 41.5852 158.202 41.1875C157.83 40.786 157.645 40.2841 157.645 39.6818C157.645 39.1894 157.783 38.7538 158.06 38.375C158.34 37.9962 158.721 37.6989 159.202 37.483C159.687 37.267 160.236 37.1591 160.849 37.1591C161.713 37.1591 162.391 37.3485 162.884 37.7273C163.38 38.1061 163.732 38.6061 163.94 39.2273Z" fill="#AEAEAE"/>
</svg>
