<svg width="42" height="44" viewBox="0 0 42 44" fill="none" xmlns="http://www.w3.org/2000/svg">
<g filter="url(#filter0_d_879_6011)">
<path d="M21 33.3335H36" stroke="#F7971D" stroke-width="4" stroke-linecap="round" stroke-linejoin="round"/>
<path d="M28.5 5.83339C29.163 5.17034 30.0623 4.79785 31 4.79785C31.4643 4.79785 31.924 4.8893 32.353 5.06698C32.7819 5.24466 33.1717 5.50508 33.5 5.83339C33.8283 6.16169 34.0887 6.55144 34.2664 6.98039C34.4441 7.40935 34.5355 7.86909 34.5355 8.33339C34.5355 8.79768 34.4441 9.25743 34.2664 9.68638C34.0887 10.1153 33.8283 10.5051 33.5 10.8334L12.6667 31.6667L6 33.3334L7.66667 26.6667L28.5 5.83339Z" stroke="#F7971D" stroke-width="4" stroke-linecap="round" stroke-linejoin="round"/>
</g>
<defs>
<filter id="filter0_d_879_6011" x="-3" y="0" width="48" height="48" filterUnits="userSpaceOnUse" color-interpolation-filters="sRGB">
<feFlood flood-opacity="0" result="BackgroundImageFix"/>
<feColorMatrix in="SourceAlpha" type="matrix" values="0 0 0 0 0 0 0 0 0 0 0 0 0 0 0 0 0 0 127 0" result="hardAlpha"/>
<feOffset dy="4"/>
<feGaussianBlur stdDeviation="2"/>
<feComposite in2="hardAlpha" operator="out"/>
<feColorMatrix type="matrix" values="0 0 0 0 0 0 0 0 0 0 0 0 0 0 0 0 0 0 0.25 0"/>
<feBlend mode="normal" in2="BackgroundImageFix" result="effect1_dropShadow_879_6011"/>
<feBlend mode="normal" in="SourceGraphic" in2="effect1_dropShadow_879_6011" result="shape"/>
</filter>
</defs>
</svg>
